<svg id="Grupo_55672" data-name="Grupo 55672" xmlns="http://www.w3.org/2000/svg" width="394.218" height="317.385" viewBox="0 0 394.218 317.385">
  <path id="Trazado_118485" data-name="Trazado 118485" d="M144.919,127.574,202.3,100.123l65.662,36.811" fill="none" stroke="#00223d" stroke-miterlimit="10" stroke-width="1"/>
  <path id="Path_81326" data-name="Path 81326" d="M336.1,222.1l-.436-.751,39.161-22.73L246.078,124.3l.434-.754L376.55,198.621Z" fill="#00223d"/>
  <path id="Path_81325" data-name="Path 81325" d="M171.93,317.385l-.218-.125L41.242,241.933l.434-.754,130.251,75.2L322.306,229.1l.437.751Z" fill="#00223d"/>
  <g id="Group_4521" data-name="Group 4521">
    <g id="Group_33110" data-name="Group 33110">
      <path id="Path_81327" data-name="Path 81327" d="M27.871,234.213,3.071,219.9l150.84-87.546.437.751L4.811,219.894l23.494,13.565Z" fill="#00223d"/>
    </g>
  </g>
  <g id="Grupo_55638" data-name="Grupo 55638">
    <path id="Trazado_118486" data-name="Trazado 118486" d="M16.486,246.74v1.471a6.058,6.058,0,0,0,3.023,5.239l105.807,61.085a5.971,5.971,0,0,0,3.011.8,6.09,6.09,0,0,0,3.043-.806l57.674-33.19a6.07,6.07,0,0,0,3.016-5.239v-2.035h-.013v.02a.76.76,0,0,1-.383.665l-63.337,36.575Z" fill="#21587b"/>
    <path id="Trazado_118487" data-name="Trazado 118487" d="M16.486,246.74v1.471a6.058,6.058,0,0,0,3.023,5.239l105.807,61.085a5.971,5.971,0,0,0,3.011.8,6.09,6.09,0,0,0,3.043-.806l57.674-33.19a6.07,6.07,0,0,0,3.016-5.239v-2.035h-.013v.02a.76.76,0,0,1-.383.665l-63.337,36.575Z" fill="#21587b" opacity="0.3"/>
  </g>
  <g id="Grupo_55639" data-name="Grupo 55639">
    <path id="Trazado_118488" data-name="Trazado 118488" d="M16.479,246.735l62.737-36.217a3.6,3.6,0,0,1,3.6,0l108.838,62.846a.8.8,0,0,1,0,1.388l-63.325,36.567Z" fill="#37a3a5"/>
    <path id="Trazado_118489" data-name="Trazado 118489" d="M16.479,246.735l62.737-36.217a3.6,3.6,0,0,1,3.6,0l108.838,62.846a.8.8,0,0,1,0,1.388l-63.325,36.567Z" fill="#37a3a5" opacity="0.2"/>
  </g>
  <path id="Trazado_118490" data-name="Trazado 118490" d="M128.912,305.992l33.838-19.516L63.807,229.351,29.793,248.765Z" opacity="0.3"/>
  <g id="Grupo_55640" data-name="Grupo 55640">
    <path id="Trazado_118491" data-name="Trazado 118491" d="M29.795,248.764l1.292.744L63.81,230.837l97.642,56.386,1.292-.744L63.81,229.349Z" fill="#00dfbf"/>
    <path id="Trazado_118492" data-name="Trazado 118492" d="M29.795,248.764l1.292.744L63.81,230.837l97.642,56.386,1.292-.744L63.81,229.349Z" opacity="0.6"/>
  </g>
  <g id="Grupo_55641" data-name="Grupo 55641">
    <path id="Trazado_118493" data-name="Trazado 118493" d="M145.543,251.7l-.624.36-16.585,9.574L98.84,244.607l-.614-.35,17.209-9.934Z" opacity="0.6"/>
    <path id="Trazado_118494" data-name="Trazado 118494" d="M144.919,252.062l-16.585,9.574L98.84,244.607l16.6-9.574Z" fill="#00dfbf"/>
  </g>
  <path id="Trazado_118495" data-name="Trazado 118495" d="M144.919,252.062l-16.585,9.574L98.84,244.607l16.6-9.574Z" fill="#21587b" opacity="0.5"/>
  <g id="Grupo_55642" data-name="Grupo 55642">
    <path id="Trazado_118496" data-name="Trazado 118496" d="M128.334,311.315v4.025a6.025,6.025,0,0,1-3.018-.8L19.507,253.449a6.052,6.052,0,0,1-3.028-5.242v-1.472Z" fill="#00dfbf"/>
    <path id="Trazado_118497" data-name="Trazado 118497" d="M128.334,311.315v4.025a6.025,6.025,0,0,1-3.018-.8L19.507,253.449a6.052,6.052,0,0,1-3.028-5.242v-1.472Z" opacity="0.6"/>
  </g>
  <g id="Grupo_55643" data-name="Grupo 55643">
    <path id="Trazado_118498" data-name="Trazado 118498" d="M126.629,312.209a7.16,7.16,0,0,1-6.174-.477L15.112,250.911a7.163,7.163,0,0,1-3.484-5.009L.095,177.128A7.389,7.389,0,0,1,0,175.953a7.169,7.169,0,0,1,2.118-5.094l109.473,63.214a5.318,5.318,0,0,1,2.573,3.706Z" fill="#37a3a5"/>
  </g>
  <g id="Grupo_55644" data-name="Grupo 55644">
    <path id="Trazado_118499" data-name="Trazado 118499" d="M128.334,311.319l-.72.413a8.513,8.513,0,0,1-.985.477l-12.465-74.43a5.318,5.318,0,0,0-2.573-3.706L2.118,170.859a7.268,7.268,0,0,1,1.461-1.112l109.7,63.33a5.316,5.316,0,0,1,2.574,3.707Z" fill="#00dfbf"/>
    <path id="Trazado_118500" data-name="Trazado 118500" d="M128.334,311.319l-.72.413a8.513,8.513,0,0,1-.985.477l-12.465-74.43a5.318,5.318,0,0,0-2.573-3.706L2.118,170.859a7.268,7.268,0,0,1,1.461-1.112l109.7,63.33a5.316,5.316,0,0,1,2.574,3.707Z" opacity="0.1"/>
    <path id="Trazado_118501" data-name="Trazado 118501" d="M113.147,235.475l1.7-.98a5.3,5.3,0,0,1,1,2.289l12.486,74.535-.72.413a8.513,8.513,0,0,1-.985.477l-12.465-74.43A5.3,5.3,0,0,0,113.147,235.475Z" opacity="0.25"/>
  </g>
  <g id="Grupo_55645" data-name="Grupo 55645" opacity="0.3">
    <path id="Trazado_118502" data-name="Trazado 118502" d="M67.3,248.72c-.772-4.6-5.526-10.72-10.617-13.66s-8.594-1.59-7.822,3.015,5.526,10.721,10.618,13.66S68.071,253.325,67.3,248.72Z"/>
  </g>
  <line id="Línea_1596" data-name="Línea 1596" x2="132.68" y2="78.005" transform="translate(133.474 160.434)" fill="none" stroke="#00223d" stroke-miterlimit="10" stroke-width="1"/>
  <line id="Línea_1597" data-name="Línea 1597" y1="78.709" x2="135.269" transform="translate(131.832 159.73)" fill="none" stroke="#00223d" stroke-miterlimit="10" stroke-width="1"/>
  <line id="Línea_1598" data-name="Línea 1598" x1="186.113" y2="19.833" transform="translate(91.671 164.819)" fill="none" stroke="#00223d" stroke-miterlimit="10" stroke-width="1"/>
  <line id="Línea_1599" data-name="Línea 1599" y1="3.932" x2="91.73" transform="translate(154.348 246.74)" fill="none" stroke="#00223d" stroke-miterlimit="10" stroke-width="1"/>
  <line id="Línea_1600" data-name="Línea 1600" y1="46.558" x2="2.775" transform="translate(291.243 174.966)" fill="none" stroke="#00223d" stroke-miterlimit="10" stroke-width="1"/>
  <line id="Línea_1601" data-name="Línea 1601" y1="91.244" x2="36.113" transform="translate(125.734 144.053)" fill="none" stroke="#00223d" stroke-miterlimit="10" stroke-width="1"/>
  <g id="Green_Laptop" data-name="Green Laptop">
    <g id="Laptop">
      <path id="Trazado_118503" data-name="Trazado 118503" d="M375.544,156.306a4.94,4.94,0,0,1-2.3,3.825l-50.149,28.96a5.1,5.1,0,0,1-4.607,0l-88.308-50.985a4.327,4.327,0,0,1,0-7.65l50.149-28.96a5.1,5.1,0,0,1,4.607,0l88.309,50.985A4.94,4.94,0,0,1,375.544,156.306Z" fill="#00dfbf"/>
      <path id="Trazado_118504" data-name="Trazado 118504" d="M320.786,184.646v4.994a4.7,4.7,0,0,0,2.3-.548l50.152-28.961a4.313,4.313,0,0,0,.234-7.5c1.032.739.953,1.824-.234,2.51L323.089,184.1A4.7,4.7,0,0,1,320.786,184.646Z" opacity="0.3"/>
      <path id="Trazado_118505" data-name="Trazado 118505" d="M377.7,152.563c1.193-.689,1.128-1.852,1.128-3.321V79.973a5.094,5.094,0,0,0-2.3-3.99L288.222,25a4.94,4.94,0,0,0-4.464-.082c-1.194.689-1.129,1.853-1.129,3.321v69.27a5.089,5.089,0,0,0,2.3,3.989l88.309,50.985A4.937,4.937,0,0,0,377.7,152.563Z" fill="#00dfbf"/>
      <path id="Trazado_118506" data-name="Trazado 118506" d="M377.7,152.563c1.193-.689,1.128-1.852,1.128-3.321V79.973a5.094,5.094,0,0,0-2.3-3.99L288.222,25a4.94,4.94,0,0,0-4.464-.082c-1.194.689-1.129,1.853-1.129,3.321v69.27a5.089,5.089,0,0,0,2.3,3.989l88.309,50.985A4.937,4.937,0,0,0,377.7,152.563Z" opacity="0.1"/>
      <path id="Trazado_118507" data-name="Trazado 118507" d="M373.513,152.62a4.945,4.945,0,0,0,4.191-.059c1.192-.686,1.128-1.85,1.128-3.318V79.971a4.64,4.64,0,0,0-.676-2.266l-3.287,1.9v0a4.724,4.724,0,0,1,.676,2.267v69.272C375.545,152.514,374.656,153.125,373.513,152.62Z" opacity="0.25"/>
      <path id="Trazado_118508" data-name="Trazado 118508" d="M375.544,81.882v69.269c0,1.469-1.031,2.065-2.3,1.33L284.932,101.5a5.089,5.089,0,0,1-2.3-3.989V28.237c0-1.468,1.031-2.064,2.3-1.329l88.309,50.984A5.093,5.093,0,0,1,375.544,81.882Z" fill="#37a3a5"/>
      <path id="Trazado_118509" data-name="Trazado 118509" d="M373.241,155.141l-50.15,28.96a5.1,5.1,0,0,1-4.607,0l-88.308-50.985c-1.272-.735-1.272-1.926,0-2.66l50.149-28.96a5.1,5.1,0,0,1,4.607,0l88.309,50.985C374.513,153.216,374.513,154.406,373.241,155.141Z" fill="#37a3a5"/>
      <path id="Trazado_118510" data-name="Trazado 118510" d="M320.787,189.641a4.741,4.741,0,0,1-2.3-.549L230.175,138.1a4.29,4.29,0,0,1-.42-7.353c-.824.727-.7,1.729.42,2.368L318.484,184.1a4.73,4.73,0,0,0,2.3.549Z" fill="#00dfbf"/>
      <path id="Trazado_118511" data-name="Trazado 118511" d="M372,80.549,286.861,31.406c-.763-.44-1.382-.083-1.382.8V95.978a3.054,3.054,0,0,0,1.382,2.394L372,147.514c.763.441,1.382.084,1.382-.8V82.943A3.057,3.057,0,0,0,372,80.549Z" fill="#f2f2f2"/>
      <path id="Trazado_118512" data-name="Trazado 118512" d="M366.866,152.617,284.9,105.293a2.546,2.546,0,0,0-2.3,0l-1.365.75a.7.7,0,0,0,0,1.329l81.981,47.317a2.548,2.548,0,0,0,2.3,0l1.352-.742A.7.7,0,0,0,366.866,152.617Z" opacity="0.3"/>
      <g id="Grupo_55646" data-name="Grupo 55646">
        <path id="Trazado_118513" data-name="Trazado 118513" d="M278.48,109.11l81.969,47.324c.636.368.725.911.2,1.215l-21.337,12.318a2.345,2.345,0,0,1-2.1-.115l-81.858-47.269c-.636-.367-.727-.912-.2-1.216L276.381,109A2.334,2.334,0,0,1,278.48,109.11Z" opacity="0.3"/>
        <path id="Trazado_118514" data-name="Trazado 118514" d="M326.021,150.117l2.566,1.482a.417.417,0,0,0,.373.013l2.455-1.418c.1-.056.087-.152-.022-.215l-2.566-1.482a.414.414,0,0,0-.373-.013L326,149.9C325.9,149.958,325.912,150.054,326.021,150.117Zm8.88-2.163-2.567-1.482a.414.414,0,0,0-.373-.013l-2.455,1.418c-.1.056-.087.152.022.215l2.567,1.482a.412.412,0,0,0,.372.013l2.456-1.418C335.02,148.113,335.01,148.017,334.9,147.954Zm-8.292-4.787-4.343-2.508a.414.414,0,0,0-.373-.013l-2.455,1.418c-.1.056-.087.152.022.215l4.343,2.508a.413.413,0,0,0,.373.012l2.455-1.417C326.728,143.326,326.718,143.23,326.609,143.167Zm4.541,2.621-2.567-1.482a.415.415,0,0,0-.372-.012l-2.456,1.417c-.1.056-.087.153.022.215l2.567,1.482a.412.412,0,0,0,.372.013L331.172,146C331.269,145.948,331.259,145.851,331.15,145.788Zm-10.069-5.813-2.566-1.482a.413.413,0,0,0-.373-.012l-2.455,1.417c-.1.056-.087.153.022.215l2.567,1.482a.412.412,0,0,0,.372.013l2.455-1.418C321.2,140.134,321.19,140.038,321.081,139.975Zm-3.751-2.165-2.566-1.482a.414.414,0,0,0-.373-.013l-2.455,1.418c-.1.056-.087.152.022.215l2.566,1.482a.414.414,0,0,0,.373.012l2.455-1.417C317.449,137.969,317.44,137.873,317.33,137.81Zm-10.018,5.556,2.566,1.482a.417.417,0,0,0,.373.012l2.455-1.417c.1-.056.087-.153-.022-.216l-2.566-1.481a.414.414,0,0,0-.373-.013l-2.455,1.418C307.193,143.206,307.2,143.3,307.312,143.366Zm-3.751-2.166,2.566,1.482a.414.414,0,0,0,.373.013l2.455-1.418c.1-.056.087-.152-.021-.215l-2.567-1.482a.417.417,0,0,0-.373-.013l-2.455,1.418C303.442,141.041,303.452,141.137,303.561,141.2Zm-3.751-2.165,2.566,1.481a.414.414,0,0,0,.373.013l2.456-1.417c.1-.056.086-.153-.023-.216l-2.566-1.481a.414.414,0,0,0-.373-.013l-2.455,1.417C299.691,138.875,299.7,138.972,299.81,139.035Zm-3.751-2.166,2.566,1.482a.413.413,0,0,0,.373.012l2.455-1.417c.1-.056.088-.152-.022-.215l-2.566-1.482a.414.414,0,0,0-.373-.013l-2.455,1.418C295.94,136.71,295.95,136.806,296.059,136.869Zm26.211,11.083,2.566,1.481a.414.414,0,0,0,.373.013l2.455-1.418c.1-.055.087-.152-.022-.215l-2.566-1.481a.414.414,0,0,0-.373-.013l-2.456,1.417C322.151,147.792,322.161,147.889,322.27,147.952Zm-11.207-2.42,5.725,3.305a.414.414,0,0,0,.373.013l5.963-3.443c.1-.056.086-.152-.023-.215l-2.961-1.71a.414.414,0,0,0-.373-.013l-3.156,1.823a.414.414,0,0,1-.373-.013l-2.369-1.368a.413.413,0,0,0-.373-.012l-2.455,1.417C310.944,145.372,310.954,145.469,311.063,145.532Zm2.517-9.888-2.567-1.482a.413.413,0,0,0-.373-.012l-2.455,1.417c-.1.056-.087.152.022.215l2.566,1.482a.414.414,0,0,0,.373.013l2.456-1.418C313.7,135.8,313.688,135.707,313.58,135.644Zm-3.752-2.166L307.262,132a.414.414,0,0,0-.373-.013l-2.455,1.417c-.1.056-.087.153.022.216l2.566,1.481a.414.414,0,0,0,.373.013l2.456-1.417C309.947,133.638,309.937,133.541,309.828,133.478ZM269.78,121.494c-.1.056-.087.153.022.216l2.567,1.481a.414.414,0,0,0,.373.013l2.455-1.417c.1-.056.087-.153-.022-.216l-2.567-1.481a.414.414,0,0,0-.373-.013Zm10.041-5.341-2.567-1.481a.412.412,0,0,0-.372-.013l-2.455,1.417c-.1.056-.088.153.021.216l2.567,1.481a.414.414,0,0,0,.373.013l2.455-1.417C279.94,116.313,279.93,116.216,279.821,116.153ZM272.3,118.9c-.1.056-.087.153.022.216l2.566,1.481a.414.414,0,0,0,.373.013l2.455-1.417c.1-.056.087-.153-.022-.216l-2.566-1.481a.414.414,0,0,0-.373-.013Zm-4.032,5.976,2.566,1.481a.414.414,0,0,0,.373.013l2.456-1.418c.1-.056.086-.152-.023-.215l-2.566-1.482a.417.417,0,0,0-.373-.012l-2.455,1.417C268.15,124.715,268.16,124.812,268.269,124.875Zm-3.773-2.381c-.1.056-.087.152.022.215l2.567,1.482a.411.411,0,0,0,.372.012l2.455-1.417c.1-.056.087-.152-.021-.215l-2.567-1.482a.414.414,0,0,0-.373-.013Zm19.076-4.175-2.566-1.482a.414.414,0,0,0-.373-.012l-2.456,1.417c-.1.056-.087.152.022.215l2.567,1.482a.412.412,0,0,0,.372.013l2.456-1.418C283.691,118.478,283.681,118.382,283.572,118.319Zm18.755,10.828-2.567-1.482a.413.413,0,0,0-.373-.012l-2.455,1.417c-.1.056-.087.152.022.215l2.567,1.482a.412.412,0,0,0,.372.013l2.456-1.418C302.446,129.306,302.436,129.21,302.327,129.147Zm-15-8.662L284.756,119a.412.412,0,0,0-.372-.013l-2.456,1.418c-.1.056-.087.152.022.215l2.567,1.482a.414.414,0,0,0,.373.012l2.455-1.417C287.442,120.644,287.432,120.548,287.323,120.485Zm18.755,10.828-2.567-1.482a.412.412,0,0,0-.372-.013l-2.456,1.418c-.1.056-.087.152.022.215l2.566,1.482a.417.417,0,0,0,.373.013l2.456-1.418C306.2,131.472,306.187,131.376,306.078,131.313Zm-7.5-4.332-2.567-1.481a.414.414,0,0,0-.373-.013l-2.455,1.418c-.1.055-.087.152.022.215l2.567,1.482a.415.415,0,0,0,.372.012L298.6,127.2C298.694,127.141,298.685,127.044,298.576,126.981Zm-3.751-2.165-2.567-1.482a.412.412,0,0,0-.372-.013l-2.456,1.418c-.1.056-.087.152.022.215l2.566,1.482a.416.416,0,0,0,.374.013l2.455-1.418C294.944,124.975,294.934,124.879,294.825,124.816Zm-3.751-2.166-2.567-1.481a.414.414,0,0,0-.373-.013l-2.455,1.417c-.1.056-.087.153.022.216l2.567,1.481a.414.414,0,0,0,.373.013l2.455-1.417C291.193,122.81,291.183,122.713,291.074,122.65Zm-2.517,9.888,2.566,1.481a.414.414,0,0,0,.373.013l2.456-1.417c.1-.056.086-.153-.023-.216l-2.566-1.481a.414.414,0,0,0-.373-.013l-2.455,1.417C288.438,132.378,288.448,132.475,288.557,132.538Zm54.635,20.2-2.566-1.482a.417.417,0,0,0-.373-.013l-2.455,1.418c-.1.056-.087.152.022.215l2.566,1.482a.414.414,0,0,0,.373.013l2.455-1.418C343.311,152.9,343.3,152.8,343.192,152.741Zm-4.54-2.622-2.567-1.481a.412.412,0,0,0-.372-.013l-2.456,1.417c-.1.056-.087.153.022.216l2.566,1.481a.414.414,0,0,0,.373.013l2.456-1.417C338.771,150.279,338.761,150.182,338.652,150.119Zm8.291,4.787-2.566-1.481a.414.414,0,0,0-.373-.013l-2.455,1.418c-.1.055-.087.152.022.215l2.566,1.482a.417.417,0,0,0,.373.012l2.455-1.417C347.062,155.066,347.052,154.97,346.943,154.906Zm-33.36-11.97,2.567,1.482a.414.414,0,0,0,.373.013l2.455-1.418c.1-.056.087-.152-.022-.215l-2.567-1.482a.411.411,0,0,0-.372-.012l-2.456,1.417C313.464,142.777,313.474,142.874,313.583,142.936Zm37.133,14.351c.1-.056.087-.152-.022-.215l-2.566-1.482a.417.417,0,0,0-.373-.012l-2.455,1.417c-.1.056-.087.153.022.215l2.566,1.482a.414.414,0,0,0,.373.013ZM292.308,134.7l2.566,1.482a.414.414,0,0,0,.373.013l2.456-1.418c.1-.056.087-.152-.022-.215l-2.567-1.482a.414.414,0,0,0-.373-.012l-2.455,1.417C292.189,134.544,292.2,134.64,292.308,134.7Zm46,26.558,2.566,1.481a.414.414,0,0,0,.373.013l2.455-1.417c.1-.056.087-.153-.022-.216l-2.566-1.481a.414.414,0,0,0-.373-.013l-2.455,1.417C338.188,161.1,338.2,161.2,338.307,161.261Zm-.244-4.191,2.567,1.482a.411.411,0,0,0,.372.012l2.456-1.417c.1-.056.087-.152-.022-.215l-2.567-1.482a.414.414,0,0,0-.373-.013l-2.455,1.418C337.944,156.911,337.954,157.007,338.063,157.07Zm9.146,2.242c.1-.055.087-.152-.022-.215l-2.567-1.482a.417.417,0,0,0-.373-.012l-2.455,1.417c-.1.056-.087.153.022.215l2.566,1.482a.414.414,0,0,0,.373.013Zm.789.456-5.963,3.443c-.1.056-.086.152.022.215l2.567,1.482a.414.414,0,0,0,.373.013l5.963-3.443c.1-.056.086-.152-.022-.215l-2.567-1.482A.414.414,0,0,0,348,159.768Zm-8.314-5-2.566-1.482a.413.413,0,0,0-.373-.012l-2.455,1.417c-.1.056-.087.152.022.215l2.567,1.482a.414.414,0,0,0,.373.013l2.455-1.418C339.8,154.925,339.794,154.829,339.684,154.766Zm-28.23-16.3-2.567-1.482a.408.408,0,0,0-.372-.012l-2.455,1.417c-.1.056-.088.152.021.215l2.567,1.482a.414.414,0,0,0,.373.013l2.455-1.418C311.573,138.626,311.563,138.53,311.454,138.467Zm23.08,20.413c-.1.056-.087.152.021.215l2.567,1.482a.414.414,0,0,0,.373.013l2.455-1.418c.1-.056.087-.152-.022-.215l-2.567-1.482a.412.412,0,0,0-.372-.013ZM315.2,140.632l-2.567-1.481a.412.412,0,0,0-.372-.013l-2.456,1.418c-.1.056-.087.152.022.215l2.567,1.482a.411.411,0,0,0,.372.012l2.456-1.417C315.324,140.792,315.314,140.7,315.2,140.632ZM273.531,123.66c-.1.056-.087.152.022.215l2.567,1.482a.412.412,0,0,0,.372.013l2.456-1.418c.1-.056.087-.152-.022-.215l-2.567-1.482a.415.415,0,0,0-.372-.013Zm7.915-2.518-2.566-1.482a.413.413,0,0,0-.373-.012l-2.455,1.417c-.1.056-.087.152.022.215l2.566,1.482a.414.414,0,0,0,.373.013l2.455-1.418C281.565,121.3,281.555,121.205,281.446,121.142Zm-4.142,4.9,2.567,1.482a.413.413,0,0,0,.373.012l2.455-1.417c.1-.056.087-.153-.022-.215l-2.567-1.482a.414.414,0,0,0-.373-.013l-2.455,1.418C277.186,125.882,277.2,125.978,277.3,126.041Zm3.751,2.165,2.566,1.482a.414.414,0,0,0,.373.013l2.456-1.418c.1-.055.087-.152-.022-.215l-2.567-1.482a.417.417,0,0,0-.373-.012l-2.455,1.417C280.936,128.047,280.946,128.144,281.055,128.206Zm3.751,2.166,2.566,1.482a.417.417,0,0,0,.373.013l2.456-1.418c.1-.056.087-.152-.023-.215l-2.566-1.482a.412.412,0,0,0-.372-.013l-2.456,1.418C284.687,130.213,284.7,130.309,284.806,130.372Zm.391-7.064-2.566-1.482a.414.414,0,0,0-.373-.013l-2.455,1.418c-.1.056-.087.152.022.215l2.566,1.482a.414.414,0,0,0,.373.012l2.455-1.417C285.316,123.467,285.306,123.371,285.2,123.308Zm3.751,2.165-2.566-1.481a.414.414,0,0,0-.373-.013l-2.456,1.417c-.1.056-.086.153.023.216l2.566,1.481a.414.414,0,0,0,.373.013l2.455-1.418C289.067,125.632,289.057,125.536,288.948,125.473Zm15,8.663-2.566-1.482a.416.416,0,0,0-.374-.013l-2.454,1.418c-.1.056-.088.152.022.215l2.566,1.482a.417.417,0,0,0,.373.013l2.455-1.418C304.071,134.295,304.061,134.2,303.952,134.136ZM300.2,131.97l-2.566-1.482a.414.414,0,0,0-.373-.012l-2.456,1.417c-.1.056-.086.153.023.215l2.566,1.482a.414.414,0,0,0,.373.013l2.455-1.418C300.32,132.129,300.31,132.033,300.2,131.97Zm7.5,4.331-2.566-1.481a.414.414,0,0,0-.373-.013l-2.456,1.417c-.1.056-.087.153.022.216l2.567,1.481a.414.414,0,0,0,.373.013l2.455-1.418C307.822,136.461,307.812,136.364,307.7,136.3Zm-15-8.662-2.566-1.482a.414.414,0,0,0-.373-.013l-2.455,1.418c-.1.056-.088.152.022.215l2.566,1.482a.414.414,0,0,0,.373.013l2.455-1.418C292.818,127.8,292.808,127.7,292.7,127.639Zm3.751,2.165-2.566-1.481a.414.414,0,0,0-.373-.013l-2.456,1.418c-.1.055-.087.152.022.215l2.567,1.481a.414.414,0,0,0,.373.013l2.455-1.417C296.569,129.964,296.559,129.867,296.45,129.8Zm-24.43-2.764,2.566,1.482a.417.417,0,0,0,.373.013l2.455-1.418c.1-.056.088-.152-.022-.215l-2.566-1.482a.414.414,0,0,0-.373-.013L272,126.825C271.9,126.881,271.911,126.977,272.02,127.04Zm1.617-11.419,2.455-1.418c.1-.056.087-.152-.022-.215l-2.567-1.482a.411.411,0,0,0-.372-.013l-2.456,1.418c-.1.056-.086.152.022.215l2.567,1.482A.417.417,0,0,0,273.637,115.621Zm-2.126,2.822,2.455-1.417c.1-.056.087-.152-.022-.215L270,114.531a.417.417,0,0,0-.373-.013l-2.455,1.418c-.1.056-.087.152.022.215l3.948,2.28A.413.413,0,0,0,271.511,118.443Zm6.975-4.938,2.455-1.418c.1-.056.087-.152-.022-.215l-3.158-1.824a.417.417,0,0,0-.373-.013l-2.456,1.418c-.1.056-.086.152.023.215l3.158,1.824A.414.414,0,0,0,278.486,113.5Zm2.422,1.4c-.1.056-.087.152.022.215L283.5,116.6a.414.414,0,0,0,.373.013l2.455-1.418c.1-.056.087-.152-.022-.215l-2.566-1.482a.414.414,0,0,0-.373-.013Zm-11.917,6.136,2.455-1.418c.1-.056.087-.152-.022-.215l-4.936-2.85a.411.411,0,0,0-.372-.012l-2.456,1.417c-.1.056-.087.152.022.215l4.936,2.85A.417.417,0,0,0,268.991,121.039Zm-5.285,1,2.455-1.418c.1-.056.088-.152-.021-.215l-3.159-1.824a.413.413,0,0,0-.373-.012l-2.455,1.417c-.1.056-.087.152.022.215l3.159,1.824A.411.411,0,0,0,263.706,122.038ZM308.8,131c-.1.056-.087.153.022.216l2.567,1.481a.412.412,0,0,0,.372.013l2.456-1.417c.1-.056.087-.153-.022-.216l-2.566-1.481a.414.414,0,0,0-.373-.013Zm-7.5-4.331c-.1.056-.087.152.022.215l2.567,1.482a.414.414,0,0,0,.373.013l2.455-1.418c.1-.056.087-.152-.022-.215l-2.566-1.482a.414.414,0,0,0-.373-.012Zm-16.635-9.6c-.1.056-.088.153.022.216l2.566,1.481a.414.414,0,0,0,.373.013l2.455-1.417c.1-.056.087-.153-.022-.216l-2.566-1.481a.414.414,0,0,0-.373-.013Zm20.387,11.771c-.1.056-.088.152.021.215l2.567,1.482a.413.413,0,0,0,.373.012l2.455-1.417c.1-.056.087-.152-.022-.215l-2.567-1.482a.412.412,0,0,0-.372-.013Zm-7.5-4.331c-.1.056-.087.152.023.215l2.566,1.481a.411.411,0,0,0,.373.013l2.455-1.417c.1-.056.087-.153-.022-.215l-2.566-1.482a.414.414,0,0,0-.373-.013Zm-34.1-1.407c.1-.056.088-.152-.021-.215l-3.949-2.28a.413.413,0,0,0-.373-.012l-2.455,1.417c-.1.056-.087.153.022.216l3.949,2.279a.412.412,0,0,0,.372.013Zm28.717-1.7c-.1.056-.086.152.023.215l2.566,1.482a.413.413,0,0,0,.373.012l2.455-1.417c.1-.056.087-.152-.022-.215L294.989,120a.414.414,0,0,0-.373-.013Zm-3.751-2.166c-.1.056-.087.152.022.215L291,120.931a.414.414,0,0,0,.373.013l2.455-1.418c.1-.056.087-.152-.022-.215l-2.566-1.482a.414.414,0,0,0-.373-.012Zm44.526,43.988c.1-.056.087-.152-.022-.215L326.6,159.36a.414.414,0,0,0-.373-.013l-2.455,1.417c-.1.056-.088.153.022.216l6.317,3.647a.414.414,0,0,0,.373.013Zm-8.292-4.787c.1-.056.087-.152-.022-.215l-2.566-1.482a.414.414,0,0,0-.373-.013l-2.455,1.418c-.1.056-.087.152.022.215l2.566,1.482a.413.413,0,0,0,.373.012Zm-48.872-29.229,2.566,1.482a.417.417,0,0,0,.373.012l2.455-1.417c.1-.056.087-.153-.022-.216l-2.566-1.481a.414.414,0,0,0-.373-.013l-2.455,1.418C275.652,129.047,275.662,129.143,275.771,129.206Zm41.371,24.9c.1-.056.086-.153-.023-.215l-2.566-1.482a.414.414,0,0,0-.373-.013l-2.455,1.418c-.1.056-.087.152.022.215l2.566,1.482a.413.413,0,0,0,.373.012Zm19.544,11.284c.1-.056.087-.153-.022-.216l-2.567-1.481a.412.412,0,0,0-.372-.013l-2.456,1.418c-.1.056-.086.152.022.215l2.567,1.482a.413.413,0,0,0,.373.012Zm1.295,3.583,5.964-3.443c.1-.056.087-.152-.022-.215l-2.567-1.482a.413.413,0,0,0-.373-.012l-5.963,3.442c-.1.056-.087.152.022.215l2.567,1.482A.412.412,0,0,0,337.981,168.971Zm-34.856-22.96c.1-.056.087-.152-.022-.215l-3.159-1.824a.413.413,0,0,0-.373-.012l-2.455,1.417c-.1.056-.087.152.022.215l3.159,1.824a.412.412,0,0,0,.372.013Zm9.476,5.471c.1-.056.087-.152-.022-.215l-3.949-2.28a.411.411,0,0,0-.372-.012l-2.456,1.417c-.1.056-.086.153.022.215l3.949,2.28a.414.414,0,0,0,.373.013ZM294.438,141c.1-.056.087-.152-.022-.215l-21.123-12.2a.414.414,0,0,0-.373-.013l-2.455,1.418c-.1.056-.088.152.022.215l21.123,12.2a.414.414,0,0,0,.373.013Zm-22.308-12.88c.1-.056.087-.152-.022-.215l-3.159-1.824a.413.413,0,0,0-.373-.012l-2.455,1.417c-.1.056-.087.153.022.216l3.159,1.823a.414.414,0,0,0,.373.013ZM298.782,143.5c.1-.056.086-.153-.022-.216l-3.159-1.823a.414.414,0,0,0-.373-.013l-2.455,1.418c-.1.055-.087.152.022.215l3.159,1.823a.412.412,0,0,0,.372.013Zm-31-17.895c.1-.056.087-.152-.022-.215l-3.159-1.824a.414.414,0,0,0-.373-.013l-2.455,1.418c-.1.056-.087.152.022.215l3.159,1.824a.413.413,0,0,0,.373.012Zm39.681,22.91c.1-.056.087-.152-.022-.215l-3.159-1.824a.412.412,0,0,0-.372-.013l-2.456,1.418c-.1.056-.087.152.022.215l3.159,1.824a.413.413,0,0,0,.373.012Zm13.425,7.75c.1-.056.086-.152-.023-.215l-2.566-1.482a.413.413,0,0,0-.373-.012l-2.455,1.417c-.1.056-.087.152.022.215l2.566,1.482a.414.414,0,0,0,.373.013Zm10.155,4.851,2.566,1.482a.414.414,0,0,0,.373.013l2.455-1.418c.1-.056.088-.152-.022-.215l-2.566-1.482a.414.414,0,0,0-.373-.013l-2.455,1.418C330.929,160.961,330.939,161.057,331.048,161.12Zm-1.276-8.837,2.566,1.481a.414.414,0,0,0,.373.013l2.455-1.417c.1-.056.087-.153-.022-.216l-2.566-1.481a.414.414,0,0,0-.373-.013l-2.455,1.417C329.653,152.123,329.662,152.22,329.772,152.283Zm-23.994-5.752,7.5,4.331a.414.414,0,0,0,.373.013l2.456-1.418c.1-.056.087-.152-.023-.215l-7.5-4.331a.412.412,0,0,0-.372-.013l-2.455,1.417C305.66,146.371,305.669,146.468,305.778,146.531Zm21.5,12.208c-.1.056-.087.153.022.215l2.566,1.482a.414.414,0,0,0,.373.013l2.456-1.418c.1-.055.087-.152-.022-.215l-2.567-1.482a.417.417,0,0,0-.373-.012Zm3.529-1.81,2.567,1.482a.414.414,0,0,0,.373.013l2.455-1.418c.1-.056.087-.152-.022-.215l-2.566-1.482a.413.413,0,0,0-.373-.012l-2.455,1.417C330.686,156.77,330.7,156.866,330.8,156.929Zm-28.777-12.564,2.567,1.482a.417.417,0,0,0,.373.013l2.455-1.418c.1-.056.087-.152-.022-.215l-2.567-1.482a.412.412,0,0,0-.372-.013l-2.455,1.418C301.909,144.206,301.918,144.3,302.027,144.365Zm16.956,9.587c-.1.056-.087.152.022.215l2.567,1.482a.414.414,0,0,0,.373.013l2.455-1.418c.1-.056.087-.152-.022-.215l-2.566-1.482a.414.414,0,0,0-.373-.012Zm-35.71-20.415,2.566,1.482a.417.417,0,0,0,.373.013l2.455-1.418c.1-.056.087-.152-.022-.215l-2.566-1.482a.414.414,0,0,0-.373-.013l-2.455,1.418C283.154,133.378,283.164,133.474,283.273,133.537Zm3.751,2.166,2.566,1.481a.414.414,0,0,0,.373.013l2.456-1.417c.1-.056.086-.153-.023-.216l-2.566-1.481a.414.414,0,0,0-.373-.013L287,135.487C286.9,135.543,286.914,135.64,287.024,135.7Zm-7.5-4.332,2.566,1.482a.414.414,0,0,0,.373.013l2.455-1.418c.1-.056.087-.152-.022-.215l-2.566-1.482a.413.413,0,0,0-.373-.012l-2.456,1.417C279.4,131.212,279.413,131.308,279.522,131.371Zm15,8.663,2.566,1.482a.413.413,0,0,0,.373.012l2.455-1.417c.1-.056.087-.152-.022-.216l-2.567-1.481a.411.411,0,0,0-.372-.013l-2.456,1.418C294.407,139.874,294.417,139.971,294.526,140.034Zm-3.751-2.166,2.566,1.482a.414.414,0,0,0,.373.013l2.455-1.418c.1-.056.087-.152-.022-.215l-2.566-1.482a.414.414,0,0,0-.373-.013l-2.456,1.418C290.656,137.709,290.666,137.8,290.775,137.868Zm7.5,4.331,2.566,1.482a.414.414,0,0,0,.373.013l2.455-1.418c.1-.056.087-.152-.022-.215l-2.566-1.482a.414.414,0,0,0-.373-.012l-2.456,1.417C298.158,142.04,298.167,142.136,298.277,142.2Zm52.18,11.818c-.1.056-.087.153.022.216l2.567,1.481a.414.414,0,0,0,.373.013l.653-.377c.1-.056.087-.153-.022-.216l-2.566-1.481a.414.414,0,0,0-.373-.013Zm-20.445-10.763c-.1.055-.087.152.022.215l2.567,1.481a.414.414,0,0,0,.373.013l2.455-1.417c.1-.056.087-.153-.022-.216l-2.567-1.481a.414.414,0,0,0-.373-.013Zm7.5,4.331c-.1.056-.087.152.022.215l2.567,1.482a.413.413,0,0,0,.373.012l2.455-1.417c.1-.056.087-.153-.022-.215l-2.567-1.482a.412.412,0,0,0-.372-.013Zm-12.082-6.976c-.1.056-.087.152.022.215l2.567,1.482a.412.412,0,0,0,.372.013l2.456-1.418c.1-.056.087-.152-.023-.215L328.26,139.2a.414.414,0,0,0-.373-.012Zm8.331,4.81c-.1.056-.087.152.022.215l2.567,1.482a.412.412,0,0,0,.372.013l2.456-1.418c.1-.056.087-.152-.022-.215l-2.567-1.482a.415.415,0,0,0-.372-.013Zm-15.833-9.141c-.1.056-.087.152.022.215l2.567,1.482a.417.417,0,0,0,.373.013l2.455-1.418c.1-.056.087-.152-.022-.215l-2.567-1.482a.414.414,0,0,0-.373-.013Zm3.751,2.165c-.1.056-.087.153.022.216l2.567,1.481a.412.412,0,0,0,.372.013l2.456-1.417c.1-.056.087-.153-.022-.216l-2.567-1.481a.414.414,0,0,0-.373-.013Zm21.275,11.243c-.1.056-.087.152.022.215l2.566,1.482a.414.414,0,0,0,.373.013l.654-.378c.1-.055.087-.152-.022-.215l-2.567-1.481a.414.414,0,0,0-.373-.013Zm11.253,6.5c-.1.056-.088.152.022.215l2.566,1.482a.414.414,0,0,0,.373.013l.654-.378c.1-.056.086-.152-.023-.215l-2.566-1.482a.413.413,0,0,0-.373-.012Zm-5.158,2.978c-.1.056-.087.152.022.215l2.566,1.482a.417.417,0,0,0,.373.013l2.455-1.418c.1-.056.087-.152-.022-.215l-2.566-1.482a.414.414,0,0,0-.373-.013ZM334.8,163.286l2.567,1.481a.412.412,0,0,0,.372.013l2.455-1.417c.1-.056.087-.153-.021-.216l-2.567-1.481a.414.414,0,0,0-.373-.013l-2.455,1.417C334.68,163.126,334.69,163.223,334.8,163.286Zm11.908-11.434c-.1.056-.088.152.022.215l2.566,1.482a.413.413,0,0,0,.373.012l.653-.377c.1-.056.088-.152-.022-.215l-2.566-1.482a.414.414,0,0,0-.373-.013Zm-32.528-17.74c-.1.056-.087.153.022.215l2.567,1.482a.412.412,0,0,0,.372.013L319.6,134.4c.1-.056.087-.152-.022-.215l-2.567-1.482a.415.415,0,0,0-.372-.012Z" fill="#00dfbf"/>
        <path id="Trazado_118515" data-name="Trazado 118515" d="M326.021,150.117l2.566,1.482a.417.417,0,0,0,.373.013l2.455-1.418c.1-.056.087-.152-.022-.215l-2.566-1.482a.414.414,0,0,0-.373-.013L326,149.9C325.9,149.958,325.912,150.054,326.021,150.117Zm8.88-2.163-2.567-1.482a.414.414,0,0,0-.373-.013l-2.455,1.418c-.1.056-.087.152.022.215l2.567,1.482a.412.412,0,0,0,.372.013l2.456-1.418C335.02,148.113,335.01,148.017,334.9,147.954Zm-8.292-4.787-4.343-2.508a.414.414,0,0,0-.373-.013l-2.455,1.418c-.1.056-.087.152.022.215l4.343,2.508a.413.413,0,0,0,.373.012l2.455-1.417C326.728,143.326,326.718,143.23,326.609,143.167Zm4.541,2.621-2.567-1.482a.415.415,0,0,0-.372-.012l-2.456,1.417c-.1.056-.087.153.022.215l2.567,1.482a.412.412,0,0,0,.372.013L331.172,146C331.269,145.948,331.259,145.851,331.15,145.788Zm-10.069-5.813-2.566-1.482a.413.413,0,0,0-.373-.012l-2.455,1.417c-.1.056-.087.153.022.215l2.567,1.482a.412.412,0,0,0,.372.013l2.455-1.418C321.2,140.134,321.19,140.038,321.081,139.975Zm-3.751-2.165-2.566-1.482a.414.414,0,0,0-.373-.013l-2.455,1.418c-.1.056-.087.152.022.215l2.566,1.482a.414.414,0,0,0,.373.012l2.455-1.417C317.449,137.969,317.44,137.873,317.33,137.81Zm-10.018,5.556,2.566,1.482a.417.417,0,0,0,.373.012l2.455-1.417c.1-.056.087-.153-.022-.216l-2.566-1.481a.414.414,0,0,0-.373-.013l-2.455,1.418C307.193,143.206,307.2,143.3,307.312,143.366Zm-3.751-2.166,2.566,1.482a.414.414,0,0,0,.373.013l2.455-1.418c.1-.056.087-.152-.021-.215l-2.567-1.482a.417.417,0,0,0-.373-.013l-2.455,1.418C303.442,141.041,303.452,141.137,303.561,141.2Zm-3.751-2.165,2.566,1.481a.414.414,0,0,0,.373.013l2.456-1.417c.1-.056.086-.153-.023-.216l-2.566-1.481a.414.414,0,0,0-.373-.013l-2.455,1.417C299.691,138.875,299.7,138.972,299.81,139.035Zm-3.751-2.166,2.566,1.482a.413.413,0,0,0,.373.012l2.455-1.417c.1-.056.088-.152-.022-.215l-2.566-1.482a.414.414,0,0,0-.373-.013l-2.455,1.418C295.94,136.71,295.95,136.806,296.059,136.869Zm26.211,11.083,2.566,1.481a.414.414,0,0,0,.373.013l2.455-1.418c.1-.055.087-.152-.022-.215l-2.566-1.481a.414.414,0,0,0-.373-.013l-2.456,1.417C322.151,147.792,322.161,147.889,322.27,147.952Zm-11.207-2.42,5.725,3.305a.414.414,0,0,0,.373.013l5.963-3.443c.1-.056.086-.152-.023-.215l-2.961-1.71a.414.414,0,0,0-.373-.013l-3.156,1.823a.414.414,0,0,1-.373-.013l-2.369-1.368a.413.413,0,0,0-.373-.012l-2.455,1.417C310.944,145.372,310.954,145.469,311.063,145.532Zm2.517-9.888-2.567-1.482a.413.413,0,0,0-.373-.012l-2.455,1.417c-.1.056-.087.152.022.215l2.566,1.482a.414.414,0,0,0,.373.013l2.456-1.418C313.7,135.8,313.688,135.707,313.58,135.644Zm-3.752-2.166L307.262,132a.414.414,0,0,0-.373-.013l-2.455,1.417c-.1.056-.087.153.022.216l2.566,1.481a.414.414,0,0,0,.373.013l2.456-1.417C309.947,133.638,309.937,133.541,309.828,133.478ZM269.78,121.494c-.1.056-.087.153.022.216l2.567,1.481a.414.414,0,0,0,.373.013l2.455-1.417c.1-.056.087-.153-.022-.216l-2.567-1.481a.414.414,0,0,0-.373-.013Zm10.041-5.341-2.567-1.481a.412.412,0,0,0-.372-.013l-2.455,1.417c-.1.056-.088.153.021.216l2.567,1.481a.414.414,0,0,0,.373.013l2.455-1.417C279.94,116.313,279.93,116.216,279.821,116.153ZM272.3,118.9c-.1.056-.087.153.022.216l2.566,1.481a.414.414,0,0,0,.373.013l2.455-1.417c.1-.056.087-.153-.022-.216l-2.566-1.481a.414.414,0,0,0-.373-.013Zm-4.032,5.976,2.566,1.481a.414.414,0,0,0,.373.013l2.456-1.418c.1-.056.086-.152-.023-.215l-2.566-1.482a.417.417,0,0,0-.373-.012l-2.455,1.417C268.15,124.715,268.16,124.812,268.269,124.875Zm-3.773-2.381c-.1.056-.087.152.022.215l2.567,1.482a.411.411,0,0,0,.372.012l2.455-1.417c.1-.056.087-.152-.021-.215l-2.567-1.482a.414.414,0,0,0-.373-.013Zm19.076-4.175-2.566-1.482a.414.414,0,0,0-.373-.012l-2.456,1.417c-.1.056-.087.152.022.215l2.567,1.482a.412.412,0,0,0,.372.013l2.456-1.418C283.691,118.478,283.681,118.382,283.572,118.319Zm18.755,10.828-2.567-1.482a.413.413,0,0,0-.373-.012l-2.455,1.417c-.1.056-.087.152.022.215l2.567,1.482a.412.412,0,0,0,.372.013l2.456-1.418C302.446,129.306,302.436,129.21,302.327,129.147Zm-15-8.662L284.756,119a.412.412,0,0,0-.372-.013l-2.456,1.418c-.1.056-.087.152.022.215l2.567,1.482a.414.414,0,0,0,.373.012l2.455-1.417C287.442,120.644,287.432,120.548,287.323,120.485Zm18.755,10.828-2.567-1.482a.412.412,0,0,0-.372-.013l-2.456,1.418c-.1.056-.087.152.022.215l2.566,1.482a.417.417,0,0,0,.373.013l2.456-1.418C306.2,131.472,306.187,131.376,306.078,131.313Zm-7.5-4.332-2.567-1.481a.414.414,0,0,0-.373-.013l-2.455,1.418c-.1.055-.087.152.022.215l2.567,1.482a.415.415,0,0,0,.372.012L298.6,127.2C298.694,127.141,298.685,127.044,298.576,126.981Zm-3.751-2.165-2.567-1.482a.412.412,0,0,0-.372-.013l-2.456,1.418c-.1.056-.087.152.022.215l2.566,1.482a.416.416,0,0,0,.374.013l2.455-1.418C294.944,124.975,294.934,124.879,294.825,124.816Zm-3.751-2.166-2.567-1.481a.414.414,0,0,0-.373-.013l-2.455,1.417c-.1.056-.087.153.022.216l2.567,1.481a.414.414,0,0,0,.373.013l2.455-1.417C291.193,122.81,291.183,122.713,291.074,122.65Zm-2.517,9.888,2.566,1.481a.414.414,0,0,0,.373.013l2.456-1.417c.1-.056.086-.153-.023-.216l-2.566-1.481a.414.414,0,0,0-.373-.013l-2.455,1.417C288.438,132.378,288.448,132.475,288.557,132.538Zm54.635,20.2-2.566-1.482a.417.417,0,0,0-.373-.013l-2.455,1.418c-.1.056-.087.152.022.215l2.566,1.482a.414.414,0,0,0,.373.013l2.455-1.418C343.311,152.9,343.3,152.8,343.192,152.741Zm-4.54-2.622-2.567-1.481a.412.412,0,0,0-.372-.013l-2.456,1.417c-.1.056-.087.153.022.216l2.566,1.481a.414.414,0,0,0,.373.013l2.456-1.417C338.771,150.279,338.761,150.182,338.652,150.119Zm8.291,4.787-2.566-1.481a.414.414,0,0,0-.373-.013l-2.455,1.418c-.1.055-.087.152.022.215l2.566,1.482a.417.417,0,0,0,.373.012l2.455-1.417C347.062,155.066,347.052,154.97,346.943,154.906Zm-33.36-11.97,2.567,1.482a.414.414,0,0,0,.373.013l2.455-1.418c.1-.056.087-.152-.022-.215l-2.567-1.482a.411.411,0,0,0-.372-.012l-2.456,1.417C313.464,142.777,313.474,142.874,313.583,142.936Zm37.133,14.351c.1-.056.087-.152-.022-.215l-2.566-1.482a.417.417,0,0,0-.373-.012l-2.455,1.417c-.1.056-.087.153.022.215l2.566,1.482a.414.414,0,0,0,.373.013ZM292.308,134.7l2.566,1.482a.414.414,0,0,0,.373.013l2.456-1.418c.1-.056.087-.152-.022-.215l-2.567-1.482a.414.414,0,0,0-.373-.012l-2.455,1.417C292.189,134.544,292.2,134.64,292.308,134.7Zm46,26.558,2.566,1.481a.414.414,0,0,0,.373.013l2.455-1.417c.1-.056.087-.153-.022-.216l-2.566-1.481a.414.414,0,0,0-.373-.013l-2.455,1.417C338.188,161.1,338.2,161.2,338.307,161.261Zm-.244-4.191,2.567,1.482a.411.411,0,0,0,.372.012l2.456-1.417c.1-.056.087-.152-.022-.215l-2.567-1.482a.414.414,0,0,0-.373-.013l-2.455,1.418C337.944,156.911,337.954,157.007,338.063,157.07Zm9.146,2.242c.1-.055.087-.152-.022-.215l-2.567-1.482a.417.417,0,0,0-.373-.012l-2.455,1.417c-.1.056-.087.153.022.215l2.566,1.482a.414.414,0,0,0,.373.013Zm.789.456-5.963,3.443c-.1.056-.086.152.022.215l2.567,1.482a.414.414,0,0,0,.373.013l5.963-3.443c.1-.056.086-.152-.022-.215l-2.567-1.482A.414.414,0,0,0,348,159.768Zm-8.314-5-2.566-1.482a.413.413,0,0,0-.373-.012l-2.455,1.417c-.1.056-.087.152.022.215l2.567,1.482a.414.414,0,0,0,.373.013l2.455-1.418C339.8,154.925,339.794,154.829,339.684,154.766Zm-28.23-16.3-2.567-1.482a.408.408,0,0,0-.372-.012l-2.455,1.417c-.1.056-.088.152.021.215l2.567,1.482a.414.414,0,0,0,.373.013l2.455-1.418C311.573,138.626,311.563,138.53,311.454,138.467Zm23.08,20.413c-.1.056-.087.152.021.215l2.567,1.482a.414.414,0,0,0,.373.013l2.455-1.418c.1-.056.087-.152-.022-.215l-2.567-1.482a.412.412,0,0,0-.372-.013ZM315.2,140.632l-2.567-1.481a.412.412,0,0,0-.372-.013l-2.456,1.418c-.1.056-.087.152.022.215l2.567,1.482a.411.411,0,0,0,.372.012l2.456-1.417C315.324,140.792,315.314,140.7,315.2,140.632ZM273.531,123.66c-.1.056-.087.152.022.215l2.567,1.482a.412.412,0,0,0,.372.013l2.456-1.418c.1-.056.087-.152-.022-.215l-2.567-1.482a.415.415,0,0,0-.372-.013Zm7.915-2.518-2.566-1.482a.413.413,0,0,0-.373-.012l-2.455,1.417c-.1.056-.087.152.022.215l2.566,1.482a.414.414,0,0,0,.373.013l2.455-1.418C281.565,121.3,281.555,121.205,281.446,121.142Zm-4.142,4.9,2.567,1.482a.413.413,0,0,0,.373.012l2.455-1.417c.1-.056.087-.153-.022-.215l-2.567-1.482a.414.414,0,0,0-.373-.013l-2.455,1.418C277.186,125.882,277.2,125.978,277.3,126.041Zm3.751,2.165,2.566,1.482a.414.414,0,0,0,.373.013l2.456-1.418c.1-.055.087-.152-.022-.215l-2.567-1.482a.417.417,0,0,0-.373-.012l-2.455,1.417C280.936,128.047,280.946,128.144,281.055,128.206Zm3.751,2.166,2.566,1.482a.417.417,0,0,0,.373.013l2.456-1.418c.1-.056.087-.152-.023-.215l-2.566-1.482a.412.412,0,0,0-.372-.013l-2.456,1.418C284.687,130.213,284.7,130.309,284.806,130.372Zm.391-7.064-2.566-1.482a.414.414,0,0,0-.373-.013l-2.455,1.418c-.1.056-.087.152.022.215l2.566,1.482a.414.414,0,0,0,.373.012l2.455-1.417C285.316,123.467,285.306,123.371,285.2,123.308Zm3.751,2.165-2.566-1.481a.414.414,0,0,0-.373-.013l-2.456,1.417c-.1.056-.086.153.023.216l2.566,1.481a.414.414,0,0,0,.373.013l2.455-1.418C289.067,125.632,289.057,125.536,288.948,125.473Zm15,8.663-2.566-1.482a.416.416,0,0,0-.374-.013l-2.454,1.418c-.1.056-.088.152.022.215l2.566,1.482a.417.417,0,0,0,.373.013l2.455-1.418C304.071,134.295,304.061,134.2,303.952,134.136ZM300.2,131.97l-2.566-1.482a.414.414,0,0,0-.373-.012l-2.456,1.417c-.1.056-.086.153.023.215l2.566,1.482a.414.414,0,0,0,.373.013l2.455-1.418C300.32,132.129,300.31,132.033,300.2,131.97Zm7.5,4.331-2.566-1.481a.414.414,0,0,0-.373-.013l-2.456,1.417c-.1.056-.087.153.022.216l2.567,1.481a.414.414,0,0,0,.373.013l2.455-1.418C307.822,136.461,307.812,136.364,307.7,136.3Zm-15-8.662-2.566-1.482a.414.414,0,0,0-.373-.013l-2.455,1.418c-.1.056-.088.152.022.215l2.566,1.482a.414.414,0,0,0,.373.013l2.455-1.418C292.818,127.8,292.808,127.7,292.7,127.639Zm3.751,2.165-2.566-1.481a.414.414,0,0,0-.373-.013l-2.456,1.418c-.1.055-.087.152.022.215l2.567,1.481a.414.414,0,0,0,.373.013l2.455-1.417C296.569,129.964,296.559,129.867,296.45,129.8Zm-24.43-2.764,2.566,1.482a.417.417,0,0,0,.373.013l2.455-1.418c.1-.056.088-.152-.022-.215l-2.566-1.482a.414.414,0,0,0-.373-.013L272,126.825C271.9,126.881,271.911,126.977,272.02,127.04Zm1.617-11.419,2.455-1.418c.1-.056.087-.152-.022-.215l-2.567-1.482a.411.411,0,0,0-.372-.013l-2.456,1.418c-.1.056-.086.152.022.215l2.567,1.482A.417.417,0,0,0,273.637,115.621Zm-2.126,2.822,2.455-1.417c.1-.056.087-.152-.022-.215L270,114.531a.417.417,0,0,0-.373-.013l-2.455,1.418c-.1.056-.087.152.022.215l3.948,2.28A.413.413,0,0,0,271.511,118.443Zm6.975-4.938,2.455-1.418c.1-.056.087-.152-.022-.215l-3.158-1.824a.417.417,0,0,0-.373-.013l-2.456,1.418c-.1.056-.086.152.023.215l3.158,1.824A.414.414,0,0,0,278.486,113.5Zm2.422,1.4c-.1.056-.087.152.022.215L283.5,116.6a.414.414,0,0,0,.373.013l2.455-1.418c.1-.056.087-.152-.022-.215l-2.566-1.482a.414.414,0,0,0-.373-.013Zm-11.917,6.136,2.455-1.418c.1-.056.087-.152-.022-.215l-4.936-2.85a.411.411,0,0,0-.372-.012l-2.456,1.417c-.1.056-.087.152.022.215l4.936,2.85A.417.417,0,0,0,268.991,121.039Zm-5.285,1,2.455-1.418c.1-.056.088-.152-.021-.215l-3.159-1.824a.413.413,0,0,0-.373-.012l-2.455,1.417c-.1.056-.087.152.022.215l3.159,1.824A.411.411,0,0,0,263.706,122.038ZM308.8,131c-.1.056-.087.153.022.216l2.567,1.481a.412.412,0,0,0,.372.013l2.456-1.417c.1-.056.087-.153-.022-.216l-2.566-1.481a.414.414,0,0,0-.373-.013Zm-7.5-4.331c-.1.056-.087.152.022.215l2.567,1.482a.414.414,0,0,0,.373.013l2.455-1.418c.1-.056.087-.152-.022-.215l-2.566-1.482a.414.414,0,0,0-.373-.012Zm-16.635-9.6c-.1.056-.088.153.022.216l2.566,1.481a.414.414,0,0,0,.373.013l2.455-1.417c.1-.056.087-.153-.022-.216l-2.566-1.481a.414.414,0,0,0-.373-.013Zm20.387,11.771c-.1.056-.088.152.021.215l2.567,1.482a.413.413,0,0,0,.373.012l2.455-1.417c.1-.056.087-.152-.022-.215l-2.567-1.482a.412.412,0,0,0-.372-.013Zm-7.5-4.331c-.1.056-.087.152.023.215l2.566,1.481a.411.411,0,0,0,.373.013l2.455-1.417c.1-.056.087-.153-.022-.215l-2.566-1.482a.414.414,0,0,0-.373-.013Zm-34.1-1.407c.1-.056.088-.152-.021-.215l-3.949-2.28a.413.413,0,0,0-.373-.012l-2.455,1.417c-.1.056-.087.153.022.216l3.949,2.279a.412.412,0,0,0,.372.013Zm28.717-1.7c-.1.056-.086.152.023.215l2.566,1.482a.413.413,0,0,0,.373.012l2.455-1.417c.1-.056.087-.152-.022-.215L294.989,120a.414.414,0,0,0-.373-.013Zm-3.751-2.166c-.1.056-.087.152.022.215L291,120.931a.414.414,0,0,0,.373.013l2.455-1.418c.1-.056.087-.152-.022-.215l-2.566-1.482a.414.414,0,0,0-.373-.012Zm44.526,43.988c.1-.056.087-.152-.022-.215L326.6,159.36a.414.414,0,0,0-.373-.013l-2.455,1.417c-.1.056-.088.153.022.216l6.317,3.647a.414.414,0,0,0,.373.013Zm-8.292-4.787c.1-.056.087-.152-.022-.215l-2.566-1.482a.414.414,0,0,0-.373-.013l-2.455,1.418c-.1.056-.087.152.022.215l2.566,1.482a.413.413,0,0,0,.373.012Zm-48.872-29.229,2.566,1.482a.417.417,0,0,0,.373.012l2.455-1.417c.1-.056.087-.153-.022-.216l-2.566-1.481a.414.414,0,0,0-.373-.013l-2.455,1.418C275.652,129.047,275.662,129.143,275.771,129.206Zm41.371,24.9c.1-.056.086-.153-.023-.215l-2.566-1.482a.414.414,0,0,0-.373-.013l-2.455,1.418c-.1.056-.087.152.022.215l2.566,1.482a.413.413,0,0,0,.373.012Zm19.544,11.284c.1-.056.087-.153-.022-.216l-2.567-1.481a.412.412,0,0,0-.372-.013l-2.456,1.418c-.1.056-.086.152.022.215l2.567,1.482a.413.413,0,0,0,.373.012Zm1.295,3.583,5.964-3.443c.1-.056.087-.152-.022-.215l-2.567-1.482a.413.413,0,0,0-.373-.012l-5.963,3.442c-.1.056-.087.152.022.215l2.567,1.482A.412.412,0,0,0,337.981,168.971Zm-34.856-22.96c.1-.056.087-.152-.022-.215l-3.159-1.824a.413.413,0,0,0-.373-.012l-2.455,1.417c-.1.056-.087.152.022.215l3.159,1.824a.412.412,0,0,0,.372.013Zm9.476,5.471c.1-.056.087-.152-.022-.215l-3.949-2.28a.411.411,0,0,0-.372-.012l-2.456,1.417c-.1.056-.086.153.022.215l3.949,2.28a.414.414,0,0,0,.373.013ZM294.438,141c.1-.056.087-.152-.022-.215l-21.123-12.2a.414.414,0,0,0-.373-.013l-2.455,1.418c-.1.056-.088.152.022.215l21.123,12.2a.414.414,0,0,0,.373.013Zm-22.308-12.88c.1-.056.087-.152-.022-.215l-3.159-1.824a.413.413,0,0,0-.373-.012l-2.455,1.417c-.1.056-.087.153.022.216l3.159,1.823a.414.414,0,0,0,.373.013ZM298.782,143.5c.1-.056.086-.153-.022-.216l-3.159-1.823a.414.414,0,0,0-.373-.013l-2.455,1.418c-.1.055-.087.152.022.215l3.159,1.823a.412.412,0,0,0,.372.013Zm-31-17.895c.1-.056.087-.152-.022-.215l-3.159-1.824a.414.414,0,0,0-.373-.013l-2.455,1.418c-.1.056-.087.152.022.215l3.159,1.824a.413.413,0,0,0,.373.012Zm39.681,22.91c.1-.056.087-.152-.022-.215l-3.159-1.824a.412.412,0,0,0-.372-.013l-2.456,1.418c-.1.056-.087.152.022.215l3.159,1.824a.413.413,0,0,0,.373.012Zm13.425,7.75c.1-.056.086-.152-.023-.215l-2.566-1.482a.413.413,0,0,0-.373-.012l-2.455,1.417c-.1.056-.087.152.022.215l2.566,1.482a.414.414,0,0,0,.373.013Zm10.155,4.851,2.566,1.482a.414.414,0,0,0,.373.013l2.455-1.418c.1-.056.088-.152-.022-.215l-2.566-1.482a.414.414,0,0,0-.373-.013l-2.455,1.418C330.929,160.961,330.939,161.057,331.048,161.12Zm-1.276-8.837,2.566,1.481a.414.414,0,0,0,.373.013l2.455-1.417c.1-.056.087-.153-.022-.216l-2.566-1.481a.414.414,0,0,0-.373-.013l-2.455,1.417C329.653,152.123,329.662,152.22,329.772,152.283Zm-23.994-5.752,7.5,4.331a.414.414,0,0,0,.373.013l2.456-1.418c.1-.056.087-.152-.023-.215l-7.5-4.331a.412.412,0,0,0-.372-.013l-2.455,1.417C305.66,146.371,305.669,146.468,305.778,146.531Zm21.5,12.208c-.1.056-.087.153.022.215l2.566,1.482a.414.414,0,0,0,.373.013l2.456-1.418c.1-.055.087-.152-.022-.215l-2.567-1.482a.417.417,0,0,0-.373-.012Zm3.529-1.81,2.567,1.482a.414.414,0,0,0,.373.013l2.455-1.418c.1-.056.087-.152-.022-.215l-2.566-1.482a.413.413,0,0,0-.373-.012l-2.455,1.417C330.686,156.77,330.7,156.866,330.8,156.929Zm-28.777-12.564,2.567,1.482a.417.417,0,0,0,.373.013l2.455-1.418c.1-.056.087-.152-.022-.215l-2.567-1.482a.412.412,0,0,0-.372-.013l-2.455,1.418C301.909,144.206,301.918,144.3,302.027,144.365Zm16.956,9.587c-.1.056-.087.152.022.215l2.567,1.482a.414.414,0,0,0,.373.013l2.455-1.418c.1-.056.087-.152-.022-.215l-2.566-1.482a.414.414,0,0,0-.373-.012Zm-35.71-20.415,2.566,1.482a.417.417,0,0,0,.373.013l2.455-1.418c.1-.056.087-.152-.022-.215l-2.566-1.482a.414.414,0,0,0-.373-.013l-2.455,1.418C283.154,133.378,283.164,133.474,283.273,133.537Zm3.751,2.166,2.566,1.481a.414.414,0,0,0,.373.013l2.456-1.417c.1-.056.086-.153-.023-.216l-2.566-1.481a.414.414,0,0,0-.373-.013L287,135.487C286.9,135.543,286.914,135.64,287.024,135.7Zm-7.5-4.332,2.566,1.482a.414.414,0,0,0,.373.013l2.455-1.418c.1-.056.087-.152-.022-.215l-2.566-1.482a.413.413,0,0,0-.373-.012l-2.456,1.417C279.4,131.212,279.413,131.308,279.522,131.371Zm15,8.663,2.566,1.482a.413.413,0,0,0,.373.012l2.455-1.417c.1-.056.087-.152-.022-.216l-2.567-1.481a.411.411,0,0,0-.372-.013l-2.456,1.418C294.407,139.874,294.417,139.971,294.526,140.034Zm-3.751-2.166,2.566,1.482a.414.414,0,0,0,.373.013l2.455-1.418c.1-.056.087-.152-.022-.215l-2.566-1.482a.414.414,0,0,0-.373-.013l-2.456,1.418C290.656,137.709,290.666,137.8,290.775,137.868Zm7.5,4.331,2.566,1.482a.414.414,0,0,0,.373.013l2.455-1.418c.1-.056.087-.152-.022-.215l-2.566-1.482a.414.414,0,0,0-.373-.012l-2.456,1.417C298.158,142.04,298.167,142.136,298.277,142.2Zm52.18,11.818c-.1.056-.087.153.022.216l2.567,1.481a.414.414,0,0,0,.373.013l.653-.377c.1-.056.087-.153-.022-.216l-2.566-1.481a.414.414,0,0,0-.373-.013Zm-20.445-10.763c-.1.055-.087.152.022.215l2.567,1.481a.414.414,0,0,0,.373.013l2.455-1.417c.1-.056.087-.153-.022-.216l-2.567-1.481a.414.414,0,0,0-.373-.013Zm7.5,4.331c-.1.056-.087.152.022.215l2.567,1.482a.413.413,0,0,0,.373.012l2.455-1.417c.1-.056.087-.153-.022-.215l-2.567-1.482a.412.412,0,0,0-.372-.013Zm-12.082-6.976c-.1.056-.087.152.022.215l2.567,1.482a.412.412,0,0,0,.372.013l2.456-1.418c.1-.056.087-.152-.023-.215L328.26,139.2a.414.414,0,0,0-.373-.012Zm8.331,4.81c-.1.056-.087.152.022.215l2.567,1.482a.412.412,0,0,0,.372.013l2.456-1.418c.1-.056.087-.152-.022-.215l-2.567-1.482a.415.415,0,0,0-.372-.013Zm-15.833-9.141c-.1.056-.087.152.022.215l2.567,1.482a.417.417,0,0,0,.373.013l2.455-1.418c.1-.056.087-.152-.022-.215l-2.567-1.482a.414.414,0,0,0-.373-.013Zm3.751,2.165c-.1.056-.087.153.022.216l2.567,1.481a.412.412,0,0,0,.372.013l2.456-1.417c.1-.056.087-.153-.022-.216l-2.567-1.481a.414.414,0,0,0-.373-.013Zm21.275,11.243c-.1.056-.087.152.022.215l2.566,1.482a.414.414,0,0,0,.373.013l.654-.378c.1-.055.087-.152-.022-.215l-2.567-1.481a.414.414,0,0,0-.373-.013Zm11.253,6.5c-.1.056-.088.152.022.215l2.566,1.482a.414.414,0,0,0,.373.013l.654-.378c.1-.056.086-.152-.023-.215l-2.566-1.482a.413.413,0,0,0-.373-.012Zm-5.158,2.978c-.1.056-.087.152.022.215l2.566,1.482a.417.417,0,0,0,.373.013l2.455-1.418c.1-.056.087-.152-.022-.215l-2.566-1.482a.414.414,0,0,0-.373-.013ZM334.8,163.286l2.567,1.481a.412.412,0,0,0,.372.013l2.455-1.417c.1-.056.087-.153-.021-.216l-2.567-1.481a.414.414,0,0,0-.373-.013l-2.455,1.417C334.68,163.126,334.69,163.223,334.8,163.286Zm11.908-11.434c-.1.056-.088.152.022.215l2.566,1.482a.413.413,0,0,0,.373.012l.653-.377c.1-.056.088-.152-.022-.215l-2.566-1.482a.414.414,0,0,0-.373-.013Zm-32.528-17.74c-.1.056-.087.153.022.215l2.567,1.482a.412.412,0,0,0,.372.013L319.6,134.4c.1-.056.087-.152-.022-.215l-2.567-1.482a.415.415,0,0,0-.372-.012Z" opacity="0.2"/>
      </g>
      <g id="Grupo_55651" data-name="Grupo 55651">
        <g id="Grupo_55647" data-name="Grupo 55647">
          <path id="Trazado_118516" data-name="Trazado 118516" d="M306.032,155.174l-.526.3-13.977,8.068-24.857-14.351-.517-.295,14.5-8.372Z" fill="#21587b"/>
        </g>
        <g id="Grupo_55648" data-name="Grupo 55648" opacity="0.6">
          <path id="Trazado_118517" data-name="Trazado 118517" d="M306.032,155.174l-.526.3-13.977,8.068-24.857-14.351-.517-.295,14.5-8.372Z" fill="#21587b"/>
        </g>
        <g id="Grupo_55649" data-name="Grupo 55649">
          <path id="Trazado_118518" data-name="Trazado 118518" d="M305.505,155.478l-13.977,8.068-24.857-14.351,13.986-8.069Z" fill="#21587b"/>
        </g>
        <g id="Grupo_55650" data-name="Grupo 55650" opacity="0.5">
          <path id="Trazado_118519" data-name="Trazado 118519" d="M305.505,155.478l-13.977,8.068-24.857-14.351,13.986-8.069Z" fill="#21587b"/>
        </g>
      </g>
      <path id="Trazado_118520" data-name="Trazado 118520" d="M377.7,152.559a3.5,3.5,0,0,1-.707.3,3.28,3.28,0,0,0,.707-.3,1.955,1.955,0,0,0,.218-.144C377.854,152.469,377.78,152.517,377.7,152.559Z" fill="#00dfbf"/>
      <path id="Trazado_118521" data-name="Trazado 118521" d="M373.673,152.778a.1.1,0,0,0-.037-.032.134.134,0,0,1,.027.026C373.668,152.778,373.668,152.778,373.673,152.778Z" fill="#00dfbf"/>
    </g>
  </g>
  <g id="Black_Laptop" data-name="Black Laptop">
    <g id="Laptop-2" data-name="Laptop">
      <path id="Trazado_118522" data-name="Trazado 118522" d="M5.221,156.49a5.86,5.86,0,0,0,2.733,4.538L67.46,195.391a6.04,6.04,0,0,0,5.467,0l104.784-60.5a5.135,5.135,0,0,0,0-9.077L118.2,91.454a6.037,6.037,0,0,0-5.466,0L7.954,151.951A5.858,5.858,0,0,0,5.221,156.49Z" fill="#2b454e"/>
      <path id="Trazado_118523" data-name="Trazado 118523" d="M70.195,190.129v5.914a5.578,5.578,0,0,1-2.733-.65L7.953,161.028a5.119,5.119,0,0,1-.278-8.9c-1.225.878-1.13,2.165.278,2.98l59.509,34.364A5.57,5.57,0,0,0,70.195,190.129Z" fill="#1a2e35"/>
      <path id="Trazado_118524" data-name="Trazado 118524" d="M2.657,152.049c-1.416-.818-1.339-2.2-1.339-3.941V65.914A6.043,6.043,0,0,1,4.05,61.18L108.834.683a5.863,5.863,0,0,1,5.3-.1c1.416.817,1.339,2.2,1.339,3.941V86.72a6.041,6.041,0,0,1-2.733,4.734L7.954,151.951A5.861,5.861,0,0,1,2.657,152.049Z" fill="#375a64"/>
      <path id="Trazado_118525" data-name="Trazado 118525" d="M7.631,152.116a5.871,5.871,0,0,1-4.974-.07c-1.414-.814-1.338-2.2-1.338-3.937v-82.2a5.512,5.512,0,0,1,.8-2.689l3.9,2.259v.006a5.608,5.608,0,0,0-.8,2.689v82.2C5.22,151.99,6.274,152.715,7.631,152.116Z" fill="#1a2e35"/>
      <path id="Trazado_118526" data-name="Trazado 118526" d="M5.22,68.18v82.193c0,1.743,1.224,2.45,2.734,1.578l104.784-60.5a6.041,6.041,0,0,0,2.733-4.734V4.527c0-1.743-1.223-2.45-2.733-1.578L7.954,63.446A6.04,6.04,0,0,0,5.22,68.18Z" fill="#2b454e"/>
      <path id="Trazado_118527" data-name="Trazado 118527" d="M7.954,155.107,67.46,189.47a6.046,6.046,0,0,0,5.467,0l104.784-60.5c1.509-.872,1.509-2.285,0-3.156L118.2,91.454a6.037,6.037,0,0,0-5.466,0L7.954,151.951C6.444,152.823,6.444,154.236,7.954,155.107Z" fill="#375a64"/>
      <path id="Trazado_118528" data-name="Trazado 118528" d="M9.424,66.6,110.449,8.287c.906-.523,1.64-.1,1.64.946V84.906a3.625,3.625,0,0,1-1.64,2.841L9.424,146.058c-.906.523-1.64.1-1.64-.947V69.439A3.625,3.625,0,0,1,9.424,66.6Z" fill="#fafafa"/>
      <path id="Trazado_118529" data-name="Trazado 118529" d="M15.517,152.112,112.78,95.959a3.019,3.019,0,0,1,2.733,0l1.62.889a.833.833,0,0,1,0,1.578L19.855,154.571a3.019,3.019,0,0,1-2.733,0l-1.6-.881A.833.833,0,0,1,15.517,152.112Z" fill="#1a2e35"/>
      <g id="Grupo_55652" data-name="Grupo 55652">
        <path id="Trazado_118530" data-name="Trazado 118530" d="M23.146,156.649l97.261-56.155a2.784,2.784,0,0,1,2.5-.136l25.316,14.617c.625.36.519,1.006-.236,1.442L50.836,172.495a2.8,2.8,0,0,1-2.5.14L22.913,158.086C22.287,157.728,22.391,157.084,23.146,156.649Z" fill="#1a2e35"/>
        <path id="Trazado_118531" data-name="Trazado 118531" d="M107.424,124.08l3.045-1.758c.13-.075.142-.189.027-.256l-2.914-1.682a.493.493,0,0,0-.442.015l-3.045,1.759c-.13.074-.141.188-.026.255l2.913,1.682A.49.49,0,0,0,107.424,124.08ZM102.978,118l-3.045,1.759c-.13.074-.141.189-.026.255l2.913,1.682a.487.487,0,0,0,.442-.015l3.046-1.758c.129-.075.141-.189.026-.255l-2.914-1.683A.493.493,0,0,0,102.978,118Zm-9.839,5.681-5.153,2.975c-.129.075-.141.189-.026.255l2.913,1.683a.492.492,0,0,0,.443-.016l5.153-2.975c.129-.074.141-.189.026-.255l-2.913-1.683A.492.492,0,0,0,93.139,123.677Zm5.388-3.111-3.045,1.758c-.129.075-.141.189-.026.256l2.913,1.682a.493.493,0,0,0,.442-.015l3.046-1.758c.129-.075.141-.19.026-.256l-2.914-1.682A.487.487,0,0,0,98.527,120.566Zm-11.947,6.9-3.045,1.758c-.129.075-.141.189-.026.255l2.913,1.682a.489.489,0,0,0,.443-.015l3.045-1.758c.129-.075.141-.189.026-.255l-2.913-1.682A.489.489,0,0,0,86.58,127.464Zm-4.45,2.569-3.046,1.758c-.129.075-.141.19-.026.256l2.914,1.682a.49.49,0,0,0,.442-.015l3.045-1.758c.13-.075.141-.189.026-.256l-2.913-1.682A.49.49,0,0,0,82.13,130.033ZM93.549,136.9l3.045-1.759c.129-.074.141-.189.026-.255L93.707,133.2a.493.493,0,0,0-.442.015l-3.046,1.758c-.129.075-.141.189-.026.256l2.914,1.682A.493.493,0,0,0,93.549,136.9ZM89.1,139.466l3.046-1.758c.129-.075.14-.189.025-.255l-2.913-1.682a.49.49,0,0,0-.442.015l-3.045,1.758c-.13.075-.141.189-.027.255l2.914,1.682A.487.487,0,0,0,89.1,139.466Zm-4.451,2.57,3.046-1.758c.129-.075.141-.189.026-.255l-2.914-1.683a.49.49,0,0,0-.442.016l-3.045,1.758c-.13.075-.141.189-.026.255l2.913,1.682A.487.487,0,0,0,84.647,142.036Zm-4.45,2.57,3.045-1.758c.129-.075.141-.19.026-.256l-2.913-1.682a.492.492,0,0,0-.443.015l-3.045,1.758c-.129.075-.141.189-.026.256l2.913,1.682A.492.492,0,0,0,80.2,144.606Zm22.777-17.956,3.045-1.759c.129-.074.141-.189.026-.255l-2.914-1.682a.493.493,0,0,0-.442.015l-3.045,1.758c-.129.075-.141.189-.026.256l2.913,1.682A.5.5,0,0,0,102.974,126.65ZM98,134.327l6.793-3.922c.129-.075.141-.189.026-.255l-7.075-4.085a.489.489,0,0,0-.443.015l-3.513,2.028c-.13.075-.141.189-.027.256l3.746,2.162c.115.067.1.181-.026.256L94.67,132.4c-.129.074-.141.189-.026.255l2.914,1.682A.487.487,0,0,0,98,134.327ZM77.679,132.6l-3.046,1.758c-.129.075-.141.189-.026.255l2.914,1.683a.49.49,0,0,0,.442-.016l3.045-1.758c.13-.074.141-.189.026-.255l-2.913-1.682A.487.487,0,0,0,77.679,132.6Zm-4.451,2.57-3.045,1.758c-.13.075-.141.189-.026.255l2.913,1.682a.487.487,0,0,0,.442-.015l3.046-1.758c.129-.075.141-.189.026-.255l-2.914-1.682A.487.487,0,0,0,73.228,135.173ZM48.6,162.609a.49.49,0,0,0,.442-.016l3.045-1.758c.13-.074.141-.189.026-.255L49.2,158.9a.487.487,0,0,0-.442.015l-3.045,1.758c-.13.075-.142.189-.027.256ZM37.622,155.73l-3.046,1.758c-.129.075-.141.189-.026.256l2.914,1.681a.487.487,0,0,0,.442-.015l3.045-1.758c.13-.074.141-.189.026-.255l-2.913-1.682A.49.49,0,0,0,37.622,155.73Zm5.643,5.152a.5.5,0,0,0,.443-.015l3.045-1.759c.129-.074.141-.189.026-.255l-2.913-1.682a.5.5,0,0,0-.443.015l-3.045,1.758c-.129.075-.141.189-.026.256Zm12.28,2.762,3.046-1.758c.129-.075.141-.189.026-.256L55.7,159.948a.5.5,0,0,0-.443.015l-3.045,1.759c-.129.074-.141.189-.026.255l2.913,1.682A.49.49,0,0,0,55.545,163.644Zm-4.892,2.585a.493.493,0,0,0,.442-.015l3.045-1.759c.129-.074.141-.189.026-.255l-2.913-1.682a.492.492,0,0,0-.443.015l-3.045,1.758c-.129.075-.141.189-.026.256ZM42.072,153.16l-3.045,1.758c-.129.075-.141.189-.026.256l2.913,1.682a.492.492,0,0,0,.443-.015l3.045-1.758c.13-.075.141-.189.026-.256l-2.913-1.682A.5.5,0,0,0,42.072,153.16Zm22.254-12.848-3.045,1.758c-.129.075-.141.189-.026.256l2.913,1.682a.5.5,0,0,0,.443-.015l3.045-1.759c.129-.074.141-.189.026-.255L64.769,140.3A.489.489,0,0,0,64.326,140.312Zm-17.8,10.279-3.045,1.758c-.129.074-.141.189-.026.255l2.913,1.682a.489.489,0,0,0,.443-.015l3.045-1.758c.129-.075.141-.189.026-.255l-2.913-1.683A.493.493,0,0,0,46.523,150.591Zm22.254-12.849L65.732,139.5c-.13.074-.141.189-.026.255l2.913,1.682a.492.492,0,0,0,.443-.015l3.045-1.758c.129-.075.141-.189.026-.256l-2.913-1.682A.5.5,0,0,0,68.777,137.742Zm-8.9,5.14L56.83,144.64c-.129.074-.141.189-.026.255l2.914,1.682a.487.487,0,0,0,.442-.015l3.045-1.758c.13-.075.142-.189.026-.255l-2.913-1.682A.487.487,0,0,0,59.876,142.882Zm-4.451,2.569L52.38,147.21c-.13.074-.142.189-.027.255l2.914,1.682a.493.493,0,0,0,.442-.015l3.046-1.758c.129-.075.141-.189.026-.256l-2.914-1.682A.493.493,0,0,0,55.425,145.451Zm-4.451,2.57-3.045,1.758c-.13.075-.141.189-.026.256l2.913,1.682a.493.493,0,0,0,.442-.015l3.046-1.759c.129-.074.141-.189.026-.255l-2.914-1.682A.49.49,0,0,0,50.974,148.021Zm20.321,1.724,3.045-1.758c.13-.075.141-.189.027-.255l-2.914-1.683a.49.49,0,0,0-.442.016l-3.046,1.758c-.129.075-.141.189-.026.255l2.914,1.682A.487.487,0,0,0,71.295,149.745Zm41.522-37.429-3.046,1.758c-.129.075-.141.189-.026.256l2.914,1.682A.493.493,0,0,0,113.1,116l3.045-1.758c.13-.075.141-.189.026-.256l-2.913-1.682A.493.493,0,0,0,112.817,112.316Zm-5.388,3.111-3.045,1.758c-.13.075-.141.189-.027.255l2.914,1.682a.487.487,0,0,0,.442-.015l3.045-1.758c.13-.075.141-.189.027-.255l-2.914-1.682A.487.487,0,0,0,107.429,115.427Zm9.838-5.68-3.045,1.758c-.129.074-.141.189-.026.255l2.913,1.682a.492.492,0,0,0,.443-.015l3.045-1.758c.129-.075.141-.189.026-.256l-2.913-1.682A.492.492,0,0,0,117.267,109.747ZM92.667,132.6l3.045-1.758c.129-.075.141-.189.026-.255L92.825,128.9a.489.489,0,0,0-.443.015l-3.045,1.758c-.13.075-.141.189-.026.255l2.913,1.682A.489.489,0,0,0,92.667,132.6Zm29.493-25.438a.487.487,0,0,0-.442.015l-3.045,1.758c-.129.075-.141.189-.026.255l2.913,1.682a.487.487,0,0,0,.442-.015l3.046-1.758c.129-.075.141-.189.026-.255ZM75.746,147.175l3.045-1.758c.129-.075.141-.189.026-.255L75.9,143.48a.489.489,0,0,0-.443.015l-3.045,1.758c-.129.075-.141.189-.026.255L75.3,147.19A.489.489,0,0,0,75.746,147.175Zm54.581-31.512,3.045-1.758c.129-.075.141-.189.026-.256l-2.914-1.681a.487.487,0,0,0-.442.015L127,113.741c-.129.074-.141.189-.026.255l2.913,1.682A.489.489,0,0,0,130.327,115.663Zm-8.613.167,3.045-1.758c.129-.075.141-.189.026-.256l-2.913-1.682a.493.493,0,0,0-.442.015l-3.046,1.758c-.129.075-.141.19-.026.256l2.913,1.682A.489.489,0,0,0,121.714,115.83Zm4.608-6.265a.487.487,0,0,0-.442.015l-3.045,1.758c-.129.075-.141.189-.026.255l2.913,1.682a.487.487,0,0,0,.442-.015l3.046-1.758c.129-.075.141-.189.026-.255Zm.938-.541,7.075,4.085a.493.493,0,0,0,.442-.015l3.045-1.758c.13-.075.142-.19.027-.256L130.773,107a.493.493,0,0,0-.442.015l-3.045,1.758C127.156,108.843,127.145,108.957,127.26,109.024Zm-10.281,5.695-3.046,1.758c-.129.075-.141.189-.026.256l2.914,1.682a.493.493,0,0,0,.442-.015l3.045-1.759c.13-.074.141-.189.026-.255l-2.913-1.682A.49.49,0,0,0,116.979,114.719Zm-33.5,19.34-3.046,1.758c-.129.075-.141.189-.026.256l2.914,1.682a.493.493,0,0,0,.442-.015l3.045-1.758c.13-.075.141-.189.026-.256l-2.913-1.682A.49.49,0,0,0,83.481,134.059Zm41.953-15.811a.493.493,0,0,0,.442-.015l3.045-1.758c.129-.075.141-.189.026-.256l-2.913-1.682a.493.493,0,0,0-.442.015l-3.046,1.759c-.129.074-.141.189-.026.255Zm-37.5,13.242-3.045,1.758c-.129.075-.141.189-.026.255l2.913,1.682a.489.489,0,0,0,.443-.015l3.045-1.758c.129-.075.141-.189.026-.255l-2.913-1.683A.492.492,0,0,0,87.931,131.49ZM53.049,160.039a.5.5,0,0,0,.443-.015l3.045-1.758c.129-.075.141-.189.026-.256l-2.913-1.682a.49.49,0,0,0-.442.015L50.162,158.1c-.129.075-.141.19-.026.256Zm-5.175-5.423-3.045,1.759c-.129.074-.141.189-.026.255l2.913,1.682a.492.492,0,0,0,.443-.015l3.045-1.758c.129-.075.141-.189.026-.256L48.317,154.6A.5.5,0,0,0,47.874,154.616Zm10.068,2.838,3.046-1.758c.129-.075.141-.189.026-.256L58.1,153.759a.489.489,0,0,0-.443.015l-3.045,1.758c-.129.074-.141.189-.026.255l2.913,1.682A.49.49,0,0,0,57.942,157.454Zm4.451-2.569,3.046-1.759c.129-.075.141-.189.026-.255l-2.914-1.682a.487.487,0,0,0-.442.015l-3.045,1.758c-.13.075-.141.189-.026.255l2.913,1.683A.493.493,0,0,0,62.393,154.885Zm4.451-2.57,3.045-1.758c.13-.075.141-.189.027-.256L67,148.619a.49.49,0,0,0-.442.015l-3.045,1.758c-.13.075-.142.19-.026.256L66.4,152.33A.49.49,0,0,0,66.844,152.315Zm-14.519-.268L49.28,153.8c-.13.075-.141.189-.027.256l2.914,1.681a.487.487,0,0,0,.442-.015l3.046-1.758c.129-.074.141-.189.026-.255l-2.914-1.682A.487.487,0,0,0,52.325,152.047Zm4.451-2.57-3.045,1.758c-.13.075-.142.189-.027.256l2.914,1.682a.493.493,0,0,0,.442-.015l3.046-1.759c.129-.074.141-.188.026-.255l-2.914-1.682A.493.493,0,0,0,56.776,149.477Zm17.8-10.278-3.045,1.758c-.13.075-.141.189-.026.255l2.913,1.682a.49.49,0,0,0,.442-.015l3.045-1.758c.13-.075.142-.189.027-.256l-2.914-1.682A.49.49,0,0,0,74.579,139.2Zm-4.451,2.569-3.045,1.758c-.129.075-.141.19-.026.256l2.913,1.682a.493.493,0,0,0,.442-.015l3.046-1.758c.129-.075.141-.189.026-.256l-2.914-1.682A.49.49,0,0,0,70.128,141.768Zm8.9-5.139-3.046,1.758c-.129.075-.141.189-.026.255l2.914,1.683a.49.49,0,0,0,.442-.016l3.045-1.758c.13-.075.141-.189.026-.255l-2.913-1.682A.487.487,0,0,0,79.03,136.629Zm-17.8,10.278-3.046,1.759c-.129.074-.141.189-.026.255l2.914,1.682a.49.49,0,0,0,.442-.015l3.045-1.758c.13-.075.141-.189.026-.256l-2.913-1.681A.49.49,0,0,0,61.227,146.907Zm4.45-2.569L62.632,146.1c-.129.075-.141.189-.026.255l2.914,1.683a.493.493,0,0,0,.442-.015l3.045-1.759c.129-.074.141-.189.026-.255l-2.913-1.682A.489.489,0,0,0,65.677,144.338ZM60,161.074l3.046-1.758c.129-.075.141-.189.026-.255l-2.914-1.682a.487.487,0,0,0-.442.015l-3.045,1.758c-.13.075-.141.189-.026.255l2.913,1.682A.487.487,0,0,0,60,161.074Zm-23.469-1.107-2.914-1.683a.49.49,0,0,0-.442.016l-3.045,1.758c-.13.074-.142.189-.027.255l2.914,1.682a.487.487,0,0,0,.442-.015l3.045-1.758C36.63,160.147,36.641,160.033,36.527,159.967Zm5.8,1.456-2.913-1.682a.49.49,0,0,0-.442.015l-4.685,2.705c-.13.074-.141.189-.026.255l2.913,1.682a.49.49,0,0,0,.442-.015l4.685-2.705C42.432,161.6,42.443,161.489,42.328,161.423Zm-10.15-4.779-2.913-1.681a.489.489,0,0,0-.443.015l-3.748,2.163c-.129.075-.141.19-.026.256l2.913,1.682a.5.5,0,0,0,.443-.015l3.748-2.164C32.281,156.825,32.293,156.711,32.178,156.644Zm2.874-1.659a.487.487,0,0,0,.442-.015l3.045-1.758c.13-.075.141-.189.026-.255l-2.913-1.682a.489.489,0,0,0-.443.015l-3.045,1.758c-.129.075-.141.189-.026.255Zm12.61,8.164-2.914-1.682a.49.49,0,0,0-.442.016l-5.856,3.381c-.13.075-.141.189-.026.255l2.913,1.682a.487.487,0,0,0,.442-.015l5.856-3.381C47.765,163.33,47.777,163.216,47.662,163.149Zm2.054,3.621L46.8,165.088a.487.487,0,0,0-.442.015l-3.748,2.164c-.13.074-.142.189-.026.255L45.5,169.2a.49.49,0,0,0,.442-.015l3.748-2.164C49.819,166.95,49.83,166.836,49.716,166.77Zm18.428-30.89a.493.493,0,0,0,.442-.015l3.045-1.759c.129-.074.141-.188.026-.255l-2.913-1.682a.5.5,0,0,0-.443.015l-3.045,1.758c-.129.075-.141.189-.026.256Zm-8.9,5.139a.487.487,0,0,0,.442-.015l3.046-1.758c.129-.075.141-.189.026-.256l-2.914-1.682a.493.493,0,0,0-.442.015l-3.045,1.759c-.13.074-.141.189-.027.255Zm-19.74,11.4a.492.492,0,0,0,.443-.015l3.045-1.758c.129-.075.141-.19.026-.256L40.1,148.705a.492.492,0,0,0-.443.015l-3.045,1.758c-.129.075-.141.189-.026.256Zm24.191-13.967a.487.487,0,0,0,.442-.015l3.046-1.758c.129-.074.141-.189.026-.255l-2.914-1.682a.49.49,0,0,0-.442.015l-3.045,1.758c-.13.075-.141.189-.027.255Zm-8.9,5.14a.5.5,0,0,0,.443-.015l3.045-1.758c.129-.075.141-.19.026-.256l-2.913-1.682a.492.492,0,0,0-.443.015L51.9,141.651c-.13.075-.141.189-.026.256ZM51.9,166.95a.487.487,0,0,0-.442.015l-4.685,2.705c-.13.074-.141.189-.026.255l2.913,1.682a.49.49,0,0,0,.442-.015l4.685-2.705c.13-.075.141-.189.026-.255Zm-3.5-19.674a.487.487,0,0,0,.442-.015l3.045-1.758c.13-.075.142-.189.027-.255L49,143.566a.487.487,0,0,0-.442.015l-3.045,1.758c-.13.075-.141.189-.026.255Zm-4.451,2.57a.487.487,0,0,0,.442-.015l3.046-1.758c.129-.075.141-.189.026-.255l-2.913-1.683a.492.492,0,0,0-.443.016l-3.045,1.758c-.13.075-.141.189-.026.255Zm90.405-30.5a.5.5,0,0,0-.443.015l-7.5,4.328c-.129.075-.141.189-.026.256l2.914,1.681a.487.487,0,0,0,.442-.015l7.5-4.328c.129-.074.141-.188.026-.255Zm-9.839,5.681a.487.487,0,0,0-.442.015l-3.045,1.758c-.13.075-.141.189-.027.255l2.914,1.682a.49.49,0,0,0,.442-.015l3.045-1.758c.13-.075.141-.189.026-.256ZM64.447,158.505l3.045-1.758c.13-.075.141-.19.026-.256l-2.913-1.682a.487.487,0,0,0-.442.015l-3.045,1.758c-.13.075-.142.189-.027.256L64,158.52A.493.493,0,0,0,64.447,158.505Zm51.171-28.342a.489.489,0,0,0-.443.015l-3.045,1.758c-.13.075-.141.189-.026.255l2.913,1.683a.493.493,0,0,0,.442-.015L118.5,132.1c.129-.074.141-.189.026-.255Zm23.191-13.39a.5.5,0,0,0-.443.015l-3.045,1.759c-.129.074-.141.189-.026.255l2.913,1.682a.49.49,0,0,0,.442-.015l3.046-1.758c.129-.075.141-.189.026-.256Zm7.364-.887L139.1,111.8a.487.487,0,0,0-.442.015l-3.045,1.758c-.13.075-.141.189-.026.255l7.075,4.086a.493.493,0,0,0,.442-.015l3.046-1.759C146.276,116.067,146.288,115.952,146.173,115.886ZM98.986,139.765a.5.5,0,0,0-.443.015l-3.748,2.164c-.129.075-.141.189-.026.256l2.914,1.682a.49.49,0,0,0,.442-.016l3.748-2.163c.129-.075.141-.19.026-.256Zm11.244-6.492a.493.493,0,0,0-.442.015l-4.686,2.706c-.129.074-.141.188-.026.255l2.914,1.682a.493.493,0,0,0,.442-.015l4.685-2.705c.13-.075.141-.189.026-.256ZM88.679,145.716a.492.492,0,0,0-.443.015L63.171,160.2c-.129.075-.141.189-.026.256l2.914,1.682a.49.49,0,0,0,.442-.015l25.065-14.471c.129-.075.141-.19.026-.256ZM62.208,161a.487.487,0,0,0-.442.015l-3.748,2.164c-.13.074-.141.189-.026.255l2.913,1.682a.49.49,0,0,0,.442-.015l3.749-2.164c.129-.075.14-.189.025-.255Zm31.624-18.258a.487.487,0,0,0-.442.015l-3.748,2.164c-.13.074-.141.189-.026.255l2.913,1.682a.487.487,0,0,0,.442-.015l3.748-2.164c.13-.075.141-.189.026-.255ZM57.054,163.974a.493.493,0,0,0-.442.015l-3.748,2.164c-.129.075-.141.189-.026.256l2.913,1.682a.5.5,0,0,0,.443-.015l3.748-2.164c.129-.075.141-.189.026-.256Zm47.085-27.184a.487.487,0,0,0-.442.015l-3.748,2.164c-.129.074-.141.189-.026.255l2.913,1.682a.487.487,0,0,0,.442-.015l3.749-2.164c.129-.074.141-.189.026-.255Zm15.929-9.2a.493.493,0,0,0-.442.015l-3.045,1.758c-.13.075-.141.189-.026.256l2.913,1.682a.493.493,0,0,0,.442-.015l3.046-1.758c.129-.075.141-.189.026-.256Zm9.97-6.957,3.045-1.758c.129-.075.141-.19.026-.256L130.2,116.94a.5.5,0,0,0-.443.015l-3.045,1.758c-.129.075-.141.19-.026.256l2.914,1.682A.49.49,0,0,0,130.038,120.636Zm-18.163.874,3.045-1.758c.13-.075.141-.189.027-.255l-2.914-1.682a.487.487,0,0,0-.442.015l-3.045,1.758c-.13.075-.142.189-.027.255l2.914,1.682A.487.487,0,0,0,111.875,121.51Zm-11.822,16.437,8.9-5.139c.13-.075.141-.189.026-.256l-2.913-1.682a.493.493,0,0,0-.443.016l-8.9,5.139c-.13.074-.141.189-.026.255l2.913,1.682A.487.487,0,0,0,100.053,137.947Zm25.092-14.726a.49.49,0,0,0,.442-.016l3.045-1.758c.13-.074.141-.189.026-.255l-2.913-1.682a.487.487,0,0,0-.442.015l-3.046,1.758c-.129.075-.141.189-.026.255Zm-3.72-2.418,3.045-1.759c.129-.074.141-.189.026-.255l-2.913-1.682a.487.487,0,0,0-.442.015L118.1,118.88c-.129.075-.141.189-.026.256l2.914,1.682A.493.493,0,0,0,121.425,120.8ZM95.6,140.517l3.045-1.758c.129-.075.141-.189.026-.256l-2.913-1.682a.5.5,0,0,0-.443.015L92.273,138.6c-.129.074-.141.189-.026.255l2.913,1.682A.492.492,0,0,0,95.6,140.517Zm19.7-11.616a.49.49,0,0,0,.442-.015l3.046-1.758c.129-.075.141-.19.026-.256l-2.914-1.682a.493.493,0,0,0-.442.015l-3.045,1.758c-.13.075-.141.189-.026.256ZM73.349,153.365l3.045-1.758c.129-.075.141-.189.026-.255l-2.913-1.682a.489.489,0,0,0-.443.015l-3.045,1.758c-.129.075-.141.189-.026.255l2.913,1.682A.489.489,0,0,0,73.349,153.365ZM77.8,150.8l3.045-1.759c.129-.074.141-.189.026-.255L77.957,147.1a.49.49,0,0,0-.442.015l-3.045,1.758c-.129.075-.141.189-.026.256l2.913,1.682A.5.5,0,0,0,77.8,150.8Zm-8.9,5.139,3.045-1.758c.13-.075.141-.189.026-.256l-2.913-1.682a.493.493,0,0,0-.442.015l-3.046,1.759c-.129.074-.141.189-.026.255l2.914,1.682A.49.49,0,0,0,68.9,155.935Zm17.8-10.279,3.045-1.758c.13-.075.142-.189.027-.255l-2.914-1.682a.487.487,0,0,0-.442.015l-3.046,1.758c-.129.075-.141.189-.026.255l2.914,1.682A.487.487,0,0,0,86.7,145.656Zm-4.451,2.57,3.045-1.758c.13-.075.142-.189.027-.256l-2.914-1.682a.493.493,0,0,0-.442.015L78.921,146.3c-.13.075-.141.19-.026.256l2.913,1.682A.49.49,0,0,0,82.25,148.226Zm8.9-5.139,3.045-1.759c.129-.074.141-.189.026-.255l-2.913-1.682a.49.49,0,0,0-.442.015l-3.046,1.758c-.129.075-.141.189-.026.256l2.913,1.682A.5.5,0,0,0,91.152,143.087Zm24.288-35.748a.49.49,0,0,0,.442-.015l3.046-1.758c.129-.075.141-.189.026-.256l-.776-.448a.49.49,0,0,0-.442.016l-3.046,1.758c-.129.074-.14.189-.025.255ZM93.318,121.345a.487.487,0,0,0,.442-.015l3.046-1.758c.129-.075.141-.189.026-.255l-2.914-1.682a.487.487,0,0,0-.442.015l-3.045,1.758c-.13.075-.142.189-.027.255Zm8.9-5.139a.493.493,0,0,0,.442-.015l3.045-1.758c.129-.075.141-.189.026-.256L102.82,112.5a.5.5,0,0,0-.443.015l-3.045,1.759c-.129.074-.141.189-.026.255Zm-14.337,8.277a.492.492,0,0,0,.443-.015l3.045-1.758c.129-.075.141-.189.026-.256l-2.913-1.682a.492.492,0,0,0-.443.016L85,122.546c-.129.074-.141.189-.026.255Zm9.886-5.707a.493.493,0,0,0,.442-.015L101.257,117c.129-.074.141-.189.025-.255l-2.913-1.682a.49.49,0,0,0-.442.015l-3.045,1.758c-.13.075-.142.189-.027.256ZM78.982,129.623a.49.49,0,0,0,.442-.016l3.045-1.758c.13-.074.141-.189.027-.255l-2.914-1.682a.487.487,0,0,0-.442.015l-3.046,1.758c-.129.075-.141.189-.026.255Zm4.45-2.57a.5.5,0,0,0,.443-.015l3.045-1.759c.129-.074.141-.188.026-.255l-2.913-1.682a.5.5,0,0,0-.443.015l-3.045,1.758c-.129.075-.141.189-.026.256Zm23.106-14.575a.489.489,0,0,0,.443-.015l3.045-1.758c.129-.075.141-.189.026-.255l-.776-.448a.487.487,0,0,0-.442.015l-3.045,1.758c-.129.075-.141.189-.026.255Zm13.353-7.709a.487.487,0,0,0,.442-.015L123.378,103c.13-.075.141-.189.026-.255l-.775-.448a.49.49,0,0,0-.442.015l-3.046,1.758c-.129.075-.141.189-.026.256Zm6.12,3.534a.493.493,0,0,0,.442-.015l3.045-1.758c.13-.075.141-.19.027-.256l-2.914-1.682a.487.487,0,0,0-.442.015l-3.045,1.758c-.13.075-.142.19-.026.256Zm8.477,9.763,3.046-1.758c.129-.075.141-.189.026-.255l-2.913-1.682a.489.489,0,0,0-.443.015l-3.045,1.758c-.129.074-.141.189-.026.255l2.913,1.682A.487.487,0,0,0,134.488,118.066Zm-23.5-8.158a.487.487,0,0,0,.442-.015l3.046-1.758c.129-.074.141-.189.026-.255l-.776-.448a.49.49,0,0,0-.442.015l-3.045,1.758c-.13.075-.141.19-.026.256ZM74.531,132.192a.49.49,0,0,0,.442-.015l3.045-1.758c.13-.075.142-.189.027-.256l-2.914-1.682a.493.493,0,0,0-.442.015l-3.046,1.759c-.129.074-.141.189-.025.255Z" fill="#00dfbf"/>
        <path id="Trazado_118532" data-name="Trazado 118532" d="M107.424,124.08l3.045-1.758c.13-.075.142-.189.027-.256l-2.914-1.682a.493.493,0,0,0-.442.015l-3.045,1.759c-.13.074-.141.188-.026.255l2.913,1.682A.49.49,0,0,0,107.424,124.08ZM102.978,118l-3.045,1.759c-.13.074-.141.189-.026.255l2.913,1.682a.487.487,0,0,0,.442-.015l3.046-1.758c.129-.075.141-.189.026-.255l-2.914-1.683A.493.493,0,0,0,102.978,118Zm-9.839,5.681-5.153,2.975c-.129.075-.141.189-.026.255l2.913,1.683a.492.492,0,0,0,.443-.016l5.153-2.975c.129-.074.141-.189.026-.255l-2.913-1.683A.492.492,0,0,0,93.139,123.677Zm5.388-3.111-3.045,1.758c-.129.075-.141.189-.026.256l2.913,1.682a.493.493,0,0,0,.442-.015l3.046-1.758c.129-.075.141-.19.026-.256l-2.914-1.682A.487.487,0,0,0,98.527,120.566Zm-11.947,6.9-3.045,1.758c-.129.075-.141.189-.026.255l2.913,1.682a.489.489,0,0,0,.443-.015l3.045-1.758c.129-.075.141-.189.026-.255l-2.913-1.682A.489.489,0,0,0,86.58,127.464Zm-4.45,2.569-3.046,1.758c-.129.075-.141.19-.026.256l2.914,1.682a.49.49,0,0,0,.442-.015l3.045-1.758c.13-.075.141-.189.026-.256l-2.913-1.682A.49.49,0,0,0,82.13,130.033ZM93.549,136.9l3.045-1.759c.129-.074.141-.189.026-.255L93.707,133.2a.493.493,0,0,0-.442.015l-3.046,1.758c-.129.075-.141.189-.026.256l2.914,1.682A.493.493,0,0,0,93.549,136.9ZM89.1,139.466l3.046-1.758c.129-.075.14-.189.025-.255l-2.913-1.682a.49.49,0,0,0-.442.015l-3.045,1.758c-.13.075-.141.189-.027.255l2.914,1.682A.487.487,0,0,0,89.1,139.466Zm-4.451,2.57,3.046-1.758c.129-.075.141-.189.026-.255l-2.914-1.683a.49.49,0,0,0-.442.016l-3.045,1.758c-.13.075-.141.189-.026.255l2.913,1.682A.487.487,0,0,0,84.647,142.036Zm-4.45,2.57,3.045-1.758c.129-.075.141-.19.026-.256l-2.913-1.682a.492.492,0,0,0-.443.015l-3.045,1.758c-.129.075-.141.189-.026.256l2.913,1.682A.492.492,0,0,0,80.2,144.606Zm22.777-17.956,3.045-1.759c.129-.074.141-.189.026-.255l-2.914-1.682a.493.493,0,0,0-.442.015l-3.045,1.758c-.129.075-.141.189-.026.256l2.913,1.682A.5.5,0,0,0,102.974,126.65ZM98,134.327l6.793-3.922c.129-.075.141-.189.026-.255l-7.075-4.085a.489.489,0,0,0-.443.015l-3.513,2.028c-.13.075-.141.189-.027.256l3.746,2.162c.115.067.1.181-.026.256L94.67,132.4c-.129.074-.141.189-.026.255l2.914,1.682A.487.487,0,0,0,98,134.327ZM77.679,132.6l-3.046,1.758c-.129.075-.141.189-.026.255l2.914,1.683a.49.49,0,0,0,.442-.016l3.045-1.758c.13-.074.141-.189.026-.255l-2.913-1.682A.487.487,0,0,0,77.679,132.6Zm-4.451,2.57-3.045,1.758c-.13.075-.141.189-.026.255l2.913,1.682a.487.487,0,0,0,.442-.015l3.046-1.758c.129-.075.141-.189.026-.255l-2.914-1.682A.487.487,0,0,0,73.228,135.173ZM48.6,162.609a.49.49,0,0,0,.442-.016l3.045-1.758c.13-.074.141-.189.026-.255L49.2,158.9a.487.487,0,0,0-.442.015l-3.045,1.758c-.13.075-.142.189-.027.256ZM37.622,155.73l-3.046,1.758c-.129.075-.141.189-.026.256l2.914,1.681a.487.487,0,0,0,.442-.015l3.045-1.758c.13-.074.141-.189.026-.255l-2.913-1.682A.49.49,0,0,0,37.622,155.73Zm5.643,5.152a.5.5,0,0,0,.443-.015l3.045-1.759c.129-.074.141-.189.026-.255l-2.913-1.682a.5.5,0,0,0-.443.015l-3.045,1.758c-.129.075-.141.189-.026.256Zm12.28,2.762,3.046-1.758c.129-.075.141-.189.026-.256L55.7,159.948a.5.5,0,0,0-.443.015l-3.045,1.759c-.129.074-.141.189-.026.255l2.913,1.682A.49.49,0,0,0,55.545,163.644Zm-4.892,2.585a.493.493,0,0,0,.442-.015l3.045-1.759c.129-.074.141-.189.026-.255l-2.913-1.682a.492.492,0,0,0-.443.015l-3.045,1.758c-.129.075-.141.189-.026.256ZM42.072,153.16l-3.045,1.758c-.129.075-.141.189-.026.256l2.913,1.682a.492.492,0,0,0,.443-.015l3.045-1.758c.13-.075.141-.189.026-.256l-2.913-1.682A.5.5,0,0,0,42.072,153.16Zm22.254-12.848-3.045,1.758c-.129.075-.141.189-.026.256l2.913,1.682a.5.5,0,0,0,.443-.015l3.045-1.759c.129-.074.141-.189.026-.255L64.769,140.3A.489.489,0,0,0,64.326,140.312Zm-17.8,10.279-3.045,1.758c-.129.074-.141.189-.026.255l2.913,1.682a.489.489,0,0,0,.443-.015l3.045-1.758c.129-.075.141-.189.026-.255l-2.913-1.683A.493.493,0,0,0,46.523,150.591Zm22.254-12.849L65.732,139.5c-.13.074-.141.189-.026.255l2.913,1.682a.492.492,0,0,0,.443-.015l3.045-1.758c.129-.075.141-.189.026-.256l-2.913-1.682A.5.5,0,0,0,68.777,137.742Zm-8.9,5.14L56.83,144.64c-.129.074-.141.189-.026.255l2.914,1.682a.487.487,0,0,0,.442-.015l3.045-1.758c.13-.075.142-.189.026-.255l-2.913-1.682A.487.487,0,0,0,59.876,142.882Zm-4.451,2.569L52.38,147.21c-.13.074-.142.189-.027.255l2.914,1.682a.493.493,0,0,0,.442-.015l3.046-1.758c.129-.075.141-.189.026-.256l-2.914-1.682A.493.493,0,0,0,55.425,145.451Zm-4.451,2.57-3.045,1.758c-.13.075-.141.189-.026.256l2.913,1.682a.493.493,0,0,0,.442-.015l3.046-1.759c.129-.074.141-.189.026-.255l-2.914-1.682A.49.49,0,0,0,50.974,148.021Zm20.321,1.724,3.045-1.758c.13-.075.141-.189.027-.255l-2.914-1.683a.49.49,0,0,0-.442.016l-3.046,1.758c-.129.075-.141.189-.026.255l2.914,1.682A.487.487,0,0,0,71.295,149.745Zm41.522-37.429-3.046,1.758c-.129.075-.141.189-.026.256l2.914,1.682A.493.493,0,0,0,113.1,116l3.045-1.758c.13-.075.141-.189.026-.256l-2.913-1.682A.493.493,0,0,0,112.817,112.316Zm-5.388,3.111-3.045,1.758c-.13.075-.141.189-.027.255l2.914,1.682a.487.487,0,0,0,.442-.015l3.045-1.758c.13-.075.141-.189.027-.255l-2.914-1.682A.487.487,0,0,0,107.429,115.427Zm9.838-5.68-3.045,1.758c-.129.074-.141.189-.026.255l2.913,1.682a.492.492,0,0,0,.443-.015l3.045-1.758c.129-.075.141-.189.026-.256l-2.913-1.682A.492.492,0,0,0,117.267,109.747ZM92.667,132.6l3.045-1.758c.129-.075.141-.189.026-.255L92.825,128.9a.489.489,0,0,0-.443.015l-3.045,1.758c-.13.075-.141.189-.026.255l2.913,1.682A.489.489,0,0,0,92.667,132.6Zm29.493-25.438a.487.487,0,0,0-.442.015l-3.045,1.758c-.129.075-.141.189-.026.255l2.913,1.682a.487.487,0,0,0,.442-.015l3.046-1.758c.129-.075.141-.189.026-.255ZM75.746,147.175l3.045-1.758c.129-.075.141-.189.026-.255L75.9,143.48a.489.489,0,0,0-.443.015l-3.045,1.758c-.129.075-.141.189-.026.255L75.3,147.19A.489.489,0,0,0,75.746,147.175Zm54.581-31.512,3.045-1.758c.129-.075.141-.189.026-.256l-2.914-1.681a.487.487,0,0,0-.442.015L127,113.741c-.129.074-.141.189-.026.255l2.913,1.682A.489.489,0,0,0,130.327,115.663Zm-8.613.167,3.045-1.758c.129-.075.141-.189.026-.256l-2.913-1.682a.493.493,0,0,0-.442.015l-3.046,1.758c-.129.075-.141.19-.026.256l2.913,1.682A.489.489,0,0,0,121.714,115.83Zm4.608-6.265a.487.487,0,0,0-.442.015l-3.045,1.758c-.129.075-.141.189-.026.255l2.913,1.682a.487.487,0,0,0,.442-.015l3.046-1.758c.129-.075.141-.189.026-.255Zm.938-.541,7.075,4.085a.493.493,0,0,0,.442-.015l3.045-1.758c.13-.075.142-.19.027-.256L130.773,107a.493.493,0,0,0-.442.015l-3.045,1.758C127.156,108.843,127.145,108.957,127.26,109.024Zm-10.281,5.695-3.046,1.758c-.129.075-.141.189-.026.256l2.914,1.682a.493.493,0,0,0,.442-.015l3.045-1.759c.13-.074.141-.189.026-.255l-2.913-1.682A.49.49,0,0,0,116.979,114.719Zm-33.5,19.34-3.046,1.758c-.129.075-.141.189-.026.256l2.914,1.682a.493.493,0,0,0,.442-.015l3.045-1.758c.13-.075.141-.189.026-.256l-2.913-1.682A.49.49,0,0,0,83.481,134.059Zm41.953-15.811a.493.493,0,0,0,.442-.015l3.045-1.758c.129-.075.141-.189.026-.256l-2.913-1.682a.493.493,0,0,0-.442.015l-3.046,1.759c-.129.074-.141.189-.026.255Zm-37.5,13.242-3.045,1.758c-.129.075-.141.189-.026.255l2.913,1.682a.489.489,0,0,0,.443-.015l3.045-1.758c.129-.075.141-.189.026-.255l-2.913-1.683A.492.492,0,0,0,87.931,131.49ZM53.049,160.039a.5.5,0,0,0,.443-.015l3.045-1.758c.129-.075.141-.189.026-.256l-2.913-1.682a.49.49,0,0,0-.442.015L50.162,158.1c-.129.075-.141.19-.026.256Zm-5.175-5.423-3.045,1.759c-.129.074-.141.189-.026.255l2.913,1.682a.492.492,0,0,0,.443-.015l3.045-1.758c.129-.075.141-.189.026-.256L48.317,154.6A.5.5,0,0,0,47.874,154.616Zm10.068,2.838,3.046-1.758c.129-.075.141-.189.026-.256L58.1,153.759a.489.489,0,0,0-.443.015l-3.045,1.758c-.129.074-.141.189-.026.255l2.913,1.682A.49.49,0,0,0,57.942,157.454Zm4.451-2.569,3.046-1.759c.129-.075.141-.189.026-.255l-2.914-1.682a.487.487,0,0,0-.442.015l-3.045,1.758c-.13.075-.141.189-.026.255l2.913,1.683A.493.493,0,0,0,62.393,154.885Zm4.451-2.57,3.045-1.758c.13-.075.141-.189.027-.256L67,148.619a.49.49,0,0,0-.442.015l-3.045,1.758c-.13.075-.142.19-.026.256L66.4,152.33A.49.49,0,0,0,66.844,152.315Zm-14.519-.268L49.28,153.8c-.13.075-.141.189-.027.256l2.914,1.681a.487.487,0,0,0,.442-.015l3.046-1.758c.129-.074.141-.189.026-.255l-2.914-1.682A.487.487,0,0,0,52.325,152.047Zm4.451-2.57-3.045,1.758c-.13.075-.142.189-.027.256l2.914,1.682a.493.493,0,0,0,.442-.015l3.046-1.759c.129-.074.141-.188.026-.255l-2.914-1.682A.493.493,0,0,0,56.776,149.477Zm17.8-10.278-3.045,1.758c-.13.075-.141.189-.026.255l2.913,1.682a.49.49,0,0,0,.442-.015l3.045-1.758c.13-.075.142-.189.027-.256l-2.914-1.682A.49.49,0,0,0,74.579,139.2Zm-4.451,2.569-3.045,1.758c-.129.075-.141.19-.026.256l2.913,1.682a.493.493,0,0,0,.442-.015l3.046-1.758c.129-.075.141-.189.026-.256l-2.914-1.682A.49.49,0,0,0,70.128,141.768Zm8.9-5.139-3.046,1.758c-.129.075-.141.189-.026.255l2.914,1.683a.49.49,0,0,0,.442-.016l3.045-1.758c.13-.075.141-.189.026-.255l-2.913-1.682A.487.487,0,0,0,79.03,136.629Zm-17.8,10.278-3.046,1.759c-.129.074-.141.189-.026.255l2.914,1.682a.49.49,0,0,0,.442-.015l3.045-1.758c.13-.075.141-.189.026-.256l-2.913-1.681A.49.49,0,0,0,61.227,146.907Zm4.45-2.569L62.632,146.1c-.129.075-.141.189-.026.255l2.914,1.683a.493.493,0,0,0,.442-.015l3.045-1.759c.129-.074.141-.189.026-.255l-2.913-1.682A.489.489,0,0,0,65.677,144.338ZM60,161.074l3.046-1.758c.129-.075.141-.189.026-.255l-2.914-1.682a.487.487,0,0,0-.442.015l-3.045,1.758c-.13.075-.141.189-.026.255l2.913,1.682A.487.487,0,0,0,60,161.074Zm-23.469-1.107-2.914-1.683a.49.49,0,0,0-.442.016l-3.045,1.758c-.13.074-.142.189-.027.255l2.914,1.682a.487.487,0,0,0,.442-.015l3.045-1.758C36.63,160.147,36.641,160.033,36.527,159.967Zm5.8,1.456-2.913-1.682a.49.49,0,0,0-.442.015l-4.685,2.705c-.13.074-.141.189-.026.255l2.913,1.682a.49.49,0,0,0,.442-.015l4.685-2.705C42.432,161.6,42.443,161.489,42.328,161.423Zm-10.15-4.779-2.913-1.681a.489.489,0,0,0-.443.015l-3.748,2.163c-.129.075-.141.19-.026.256l2.913,1.682a.5.5,0,0,0,.443-.015l3.748-2.164C32.281,156.825,32.293,156.711,32.178,156.644Zm2.874-1.659a.487.487,0,0,0,.442-.015l3.045-1.758c.13-.075.141-.189.026-.255l-2.913-1.682a.489.489,0,0,0-.443.015l-3.045,1.758c-.129.075-.141.189-.026.255Zm12.61,8.164-2.914-1.682a.49.49,0,0,0-.442.016l-5.856,3.381c-.13.075-.141.189-.026.255l2.913,1.682a.487.487,0,0,0,.442-.015l5.856-3.381C47.765,163.33,47.777,163.216,47.662,163.149Zm2.054,3.621L46.8,165.088a.487.487,0,0,0-.442.015l-3.748,2.164c-.13.074-.142.189-.026.255L45.5,169.2a.49.49,0,0,0,.442-.015l3.748-2.164C49.819,166.95,49.83,166.836,49.716,166.77Zm18.428-30.89a.493.493,0,0,0,.442-.015l3.045-1.759c.129-.074.141-.188.026-.255l-2.913-1.682a.5.5,0,0,0-.443.015l-3.045,1.758c-.129.075-.141.189-.026.256Zm-8.9,5.139a.487.487,0,0,0,.442-.015l3.046-1.758c.129-.075.141-.189.026-.256l-2.914-1.682a.493.493,0,0,0-.442.015l-3.045,1.759c-.13.074-.141.189-.027.255Zm-19.74,11.4a.492.492,0,0,0,.443-.015l3.045-1.758c.129-.075.141-.19.026-.256L40.1,148.705a.492.492,0,0,0-.443.015l-3.045,1.758c-.129.075-.141.189-.026.256Zm24.191-13.967a.487.487,0,0,0,.442-.015l3.046-1.758c.129-.074.141-.189.026-.255l-2.914-1.682a.49.49,0,0,0-.442.015l-3.045,1.758c-.13.075-.141.189-.027.255Zm-8.9,5.14a.5.5,0,0,0,.443-.015l3.045-1.758c.129-.075.141-.19.026-.256l-2.913-1.682a.492.492,0,0,0-.443.015L51.9,141.651c-.13.075-.141.189-.026.256ZM51.9,166.95a.487.487,0,0,0-.442.015l-4.685,2.705c-.13.074-.141.189-.026.255l2.913,1.682a.49.49,0,0,0,.442-.015l4.685-2.705c.13-.075.141-.189.026-.255Zm-3.5-19.674a.487.487,0,0,0,.442-.015l3.045-1.758c.13-.075.142-.189.027-.255L49,143.566a.487.487,0,0,0-.442.015l-3.045,1.758c-.13.075-.141.189-.026.255Zm-4.451,2.57a.487.487,0,0,0,.442-.015l3.046-1.758c.129-.075.141-.189.026-.255l-2.913-1.683a.492.492,0,0,0-.443.016l-3.045,1.758c-.13.075-.141.189-.026.255Zm90.405-30.5a.5.5,0,0,0-.443.015l-7.5,4.328c-.129.075-.141.189-.026.256l2.914,1.681a.487.487,0,0,0,.442-.015l7.5-4.328c.129-.074.141-.188.026-.255Zm-9.839,5.681a.487.487,0,0,0-.442.015l-3.045,1.758c-.13.075-.141.189-.027.255l2.914,1.682a.49.49,0,0,0,.442-.015l3.045-1.758c.13-.075.141-.189.026-.256ZM64.447,158.505l3.045-1.758c.13-.075.141-.19.026-.256l-2.913-1.682a.487.487,0,0,0-.442.015l-3.045,1.758c-.13.075-.142.189-.027.256L64,158.52A.493.493,0,0,0,64.447,158.505Zm51.171-28.342a.489.489,0,0,0-.443.015l-3.045,1.758c-.13.075-.141.189-.026.255l2.913,1.683a.493.493,0,0,0,.442-.015L118.5,132.1c.129-.074.141-.189.026-.255Zm23.191-13.39a.5.5,0,0,0-.443.015l-3.045,1.759c-.129.074-.141.189-.026.255l2.913,1.682a.49.49,0,0,0,.442-.015l3.046-1.758c.129-.075.141-.189.026-.256Zm7.364-.887L139.1,111.8a.487.487,0,0,0-.442.015l-3.045,1.758c-.13.075-.141.189-.026.255l7.075,4.086a.493.493,0,0,0,.442-.015l3.046-1.759C146.276,116.067,146.288,115.952,146.173,115.886ZM98.986,139.765a.5.5,0,0,0-.443.015l-3.748,2.164c-.129.075-.141.189-.026.256l2.914,1.682a.49.49,0,0,0,.442-.016l3.748-2.163c.129-.075.141-.19.026-.256Zm11.244-6.492a.493.493,0,0,0-.442.015l-4.686,2.706c-.129.074-.141.188-.026.255l2.914,1.682a.493.493,0,0,0,.442-.015l4.685-2.705c.13-.075.141-.189.026-.256ZM88.679,145.716a.492.492,0,0,0-.443.015L63.171,160.2c-.129.075-.141.189-.026.256l2.914,1.682a.49.49,0,0,0,.442-.015l25.065-14.471c.129-.075.141-.19.026-.256ZM62.208,161a.487.487,0,0,0-.442.015l-3.748,2.164c-.13.074-.141.189-.026.255l2.913,1.682a.49.49,0,0,0,.442-.015l3.749-2.164c.129-.075.14-.189.025-.255Zm31.624-18.258a.487.487,0,0,0-.442.015l-3.748,2.164c-.13.074-.141.189-.026.255l2.913,1.682a.487.487,0,0,0,.442-.015l3.748-2.164c.13-.075.141-.189.026-.255ZM57.054,163.974a.493.493,0,0,0-.442.015l-3.748,2.164c-.129.075-.141.189-.026.256l2.913,1.682a.5.5,0,0,0,.443-.015l3.748-2.164c.129-.075.141-.189.026-.256Zm47.085-27.184a.487.487,0,0,0-.442.015l-3.748,2.164c-.129.074-.141.189-.026.255l2.913,1.682a.487.487,0,0,0,.442-.015l3.749-2.164c.129-.074.141-.189.026-.255Zm15.929-9.2a.493.493,0,0,0-.442.015l-3.045,1.758c-.13.075-.141.189-.026.256l2.913,1.682a.493.493,0,0,0,.442-.015l3.046-1.758c.129-.075.141-.189.026-.256Zm9.97-6.957,3.045-1.758c.129-.075.141-.19.026-.256L130.2,116.94a.5.5,0,0,0-.443.015l-3.045,1.758c-.129.075-.141.19-.026.256l2.914,1.682A.49.49,0,0,0,130.038,120.636Zm-18.163.874,3.045-1.758c.13-.075.141-.189.027-.255l-2.914-1.682a.487.487,0,0,0-.442.015l-3.045,1.758c-.13.075-.142.189-.027.255l2.914,1.682A.487.487,0,0,0,111.875,121.51Zm-11.822,16.437,8.9-5.139c.13-.075.141-.189.026-.256l-2.913-1.682a.493.493,0,0,0-.443.016l-8.9,5.139c-.13.074-.141.189-.026.255l2.913,1.682A.487.487,0,0,0,100.053,137.947Zm25.092-14.726a.49.49,0,0,0,.442-.016l3.045-1.758c.13-.074.141-.189.026-.255l-2.913-1.682a.487.487,0,0,0-.442.015l-3.046,1.758c-.129.075-.141.189-.026.255Zm-3.72-2.418,3.045-1.759c.129-.074.141-.189.026-.255l-2.913-1.682a.487.487,0,0,0-.442.015L118.1,118.88c-.129.075-.141.189-.026.256l2.914,1.682A.493.493,0,0,0,121.425,120.8ZM95.6,140.517l3.045-1.758c.129-.075.141-.189.026-.256l-2.913-1.682a.5.5,0,0,0-.443.015L92.273,138.6c-.129.074-.141.189-.026.255l2.913,1.682A.492.492,0,0,0,95.6,140.517Zm19.7-11.616a.49.49,0,0,0,.442-.015l3.046-1.758c.129-.075.141-.19.026-.256l-2.914-1.682a.493.493,0,0,0-.442.015l-3.045,1.758c-.13.075-.141.189-.026.256ZM73.349,153.365l3.045-1.758c.129-.075.141-.189.026-.255l-2.913-1.682a.489.489,0,0,0-.443.015l-3.045,1.758c-.129.075-.141.189-.026.255l2.913,1.682A.489.489,0,0,0,73.349,153.365ZM77.8,150.8l3.045-1.759c.129-.074.141-.189.026-.255L77.957,147.1a.49.49,0,0,0-.442.015l-3.045,1.758c-.129.075-.141.189-.026.256l2.913,1.682A.5.5,0,0,0,77.8,150.8Zm-8.9,5.139,3.045-1.758c.13-.075.141-.189.026-.256l-2.913-1.682a.493.493,0,0,0-.442.015l-3.046,1.759c-.129.074-.141.189-.026.255l2.914,1.682A.49.49,0,0,0,68.9,155.935Zm17.8-10.279,3.045-1.758c.13-.075.142-.189.027-.255l-2.914-1.682a.487.487,0,0,0-.442.015l-3.046,1.758c-.129.075-.141.189-.026.255l2.914,1.682A.487.487,0,0,0,86.7,145.656Zm-4.451,2.57,3.045-1.758c.13-.075.142-.189.027-.256l-2.914-1.682a.493.493,0,0,0-.442.015L78.921,146.3c-.13.075-.141.19-.026.256l2.913,1.682A.49.49,0,0,0,82.25,148.226Zm8.9-5.139,3.045-1.759c.129-.074.141-.189.026-.255l-2.913-1.682a.49.49,0,0,0-.442.015l-3.046,1.758c-.129.075-.141.189-.026.256l2.913,1.682A.5.5,0,0,0,91.152,143.087Zm24.288-35.748a.49.49,0,0,0,.442-.015l3.046-1.758c.129-.075.141-.189.026-.256l-.776-.448a.49.49,0,0,0-.442.016l-3.046,1.758c-.129.074-.14.189-.025.255ZM93.318,121.345a.487.487,0,0,0,.442-.015l3.046-1.758c.129-.075.141-.189.026-.255l-2.914-1.682a.487.487,0,0,0-.442.015l-3.045,1.758c-.13.075-.142.189-.027.255Zm8.9-5.139a.493.493,0,0,0,.442-.015l3.045-1.758c.129-.075.141-.189.026-.256L102.82,112.5a.5.5,0,0,0-.443.015l-3.045,1.759c-.129.074-.141.189-.026.255Zm-14.337,8.277a.492.492,0,0,0,.443-.015l3.045-1.758c.129-.075.141-.189.026-.256l-2.913-1.682a.492.492,0,0,0-.443.016L85,122.546c-.129.074-.141.189-.026.255Zm9.886-5.707a.493.493,0,0,0,.442-.015L101.257,117c.129-.074.141-.189.025-.255l-2.913-1.682a.49.49,0,0,0-.442.015l-3.045,1.758c-.13.075-.142.189-.027.256ZM78.982,129.623a.49.49,0,0,0,.442-.016l3.045-1.758c.13-.074.141-.189.027-.255l-2.914-1.682a.487.487,0,0,0-.442.015l-3.046,1.758c-.129.075-.141.189-.026.255Zm4.45-2.57a.5.5,0,0,0,.443-.015l3.045-1.759c.129-.074.141-.188.026-.255l-2.913-1.682a.5.5,0,0,0-.443.015l-3.045,1.758c-.129.075-.141.189-.026.256Zm23.106-14.575a.489.489,0,0,0,.443-.015l3.045-1.758c.129-.075.141-.189.026-.255l-.776-.448a.487.487,0,0,0-.442.015l-3.045,1.758c-.129.075-.141.189-.026.255Zm13.353-7.709a.487.487,0,0,0,.442-.015L123.378,103c.13-.075.141-.189.026-.255l-.775-.448a.49.49,0,0,0-.442.015l-3.046,1.758c-.129.075-.141.189-.026.256Zm6.12,3.534a.493.493,0,0,0,.442-.015l3.045-1.758c.13-.075.141-.19.027-.256l-2.914-1.682a.487.487,0,0,0-.442.015l-3.045,1.758c-.13.075-.142.19-.026.256Zm8.477,9.763,3.046-1.758c.129-.075.141-.189.026-.255l-2.913-1.682a.489.489,0,0,0-.443.015l-3.045,1.758c-.129.074-.141.189-.026.255l2.913,1.682A.487.487,0,0,0,134.488,118.066Zm-23.5-8.158a.487.487,0,0,0,.442-.015l3.046-1.758c.129-.074.141-.189.026-.255l-.776-.448a.49.49,0,0,0-.442.015l-3.045,1.758c-.13.075-.141.19-.026.256ZM74.531,132.192a.49.49,0,0,0,.442-.015l3.045-1.758c.13-.075.142-.189.027-.256l-2.914-1.682a.493.493,0,0,0-.442.015l-3.046,1.759c-.129.074-.141.189-.025.255Z" fill="#375a64"/>
      </g>
      <g id="Grupo_55656" data-name="Grupo 55656">
        <g id="Grupo_55653" data-name="Grupo 55653">
          <path id="Trazado_118533" data-name="Trazado 118533" d="M87.7,155.147l.624.36,16.585,9.574,29.494-17.029.614-.35-17.209-9.934Z" fill="#1a2e35"/>
        </g>
        <g id="Grupo_55654" data-name="Grupo 55654">
          <path id="Trazado_118534" data-name="Trazado 118534" d="M88.327,155.507l16.585,9.574,29.494-17.029-16.6-9.574Z" fill="#2b454e"/>
        </g>
        <g id="Grupo_55655" data-name="Grupo 55655" opacity="0.5">
          <path id="Trazado_118535" data-name="Trazado 118535" d="M88.327,155.507l16.585,9.574,29.494-17.029-16.6-9.574Z" fill="#1a2e35"/>
        </g>
      </g>
      <path id="Trazado_118536" data-name="Trazado 118536" d="M2.656,152.044a4.217,4.217,0,0,0,.839.36,3.786,3.786,0,0,1-.839-.354,2.18,2.18,0,0,1-.259-.17C2.479,151.937,2.567,151.994,2.656,152.044Z" fill="#00dfbf"/>
      <path id="Trazado_118537" data-name="Trazado 118537" d="M7.44,152.3a.146.146,0,0,1,.044-.038c-.012.013-.025.019-.031.032S7.447,152.3,7.44,152.3Z" fill="#00dfbf"/>
    </g>
  </g>
  <g id="Black_Laptop-2" data-name="Black Laptop">
    <g id="Grupo_55671" data-name="Grupo 55671">
      <g id="Grupo_55657" data-name="Grupo 55657">
        <path id="Trazado_118538" data-name="Trazado 118538" d="M377.732,242.635v1.471a6.059,6.059,0,0,1-3.023,5.24L268.9,310.431a5.971,5.971,0,0,1-3.012.8,6.089,6.089,0,0,1-3.042-.806l-57.675-33.189a6.071,6.071,0,0,1-3.015-5.24v-2.035h0a.8.8,0,0,0,.4.685l63.336,36.575Z" fill="#2b454e"/>
      </g>
      <g id="Grupo_55658" data-name="Grupo 55658">
        <path id="Trazado_118539" data-name="Trazado 118539" d="M377.739,242.631,315,206.413a3.6,3.6,0,0,0-3.605,0L202.558,269.26a.8.8,0,0,0,0,1.388l63.326,36.567Z" fill="#375a64"/>
      </g>
      <g id="Grupo_55659" data-name="Grupo 55659" opacity="0.2">
        <path id="Trazado_118540" data-name="Trazado 118540" d="M377.739,242.631,315,206.413a3.6,3.6,0,0,0-3.605,0L202.558,269.26a.8.8,0,0,0,0,1.388l63.326,36.567Z" fill="#1a2e35"/>
      </g>
      <g id="Grupo_55660" data-name="Grupo 55660" opacity="0.3">
        <path id="Trazado_118541" data-name="Trazado 118541" d="M265.306,301.887l-33.838-19.516,98.943-57.125,34.014,19.414Z"/>
      </g>
      <g id="Grupo_55661" data-name="Grupo 55661">
        <path id="Trazado_118542" data-name="Trazado 118542" d="M364.423,244.66l-1.292.744-32.724-18.671-97.642,56.386-1.292-.744,98.934-57.129Z"/>
      </g>
      <g id="Grupo_55662" data-name="Grupo 55662">
        <path id="Trazado_118543" data-name="Trazado 118543" d="M248.674,247.6l.625.36,16.585,9.574L295.378,240.5l.614-.35-17.209-9.934Z" fill="#1a2e35"/>
      </g>
      <g id="Grupo_55663" data-name="Grupo 55663">
        <path id="Trazado_118544" data-name="Trazado 118544" d="M249.3,247.958l16.585,9.574L295.378,240.5l-16.6-9.574Z" fill="#2b454e"/>
      </g>
      <g id="Grupo_55664" data-name="Grupo 55664" opacity="0.5">
        <path id="Trazado_118545" data-name="Trazado 118545" d="M249.3,247.958l16.585,9.574L295.378,240.5l-16.6-9.574Z" fill="#1a2e35"/>
      </g>
      <g id="Grupo_55665" data-name="Grupo 55665">
        <path id="Trazado_118546" data-name="Trazado 118546" d="M265.884,307.211v4.024a6.024,6.024,0,0,0,3.018-.8L374.71,249.345a6.052,6.052,0,0,0,3.029-5.242v-1.472Z" fill="#00dfbf"/>
      </g>
      <g id="Grupo_55666" data-name="Grupo 55666">
        <path id="Trazado_118547" data-name="Trazado 118547" d="M265.884,307.211v4.024a6.024,6.024,0,0,0,3.018-.8L374.71,249.345a6.052,6.052,0,0,0,3.029-5.242v-1.472Z" fill="#1a2e35"/>
      </g>
      <g id="Grupo_55667" data-name="Grupo 55667">
        <path id="Trazado_118548" data-name="Trazado 118548" d="M267.589,308.1a7.163,7.163,0,0,0,6.174-.476l105.342-60.821a7.164,7.164,0,0,0,3.484-5.009l11.534-68.774a7.4,7.4,0,0,0,.1-1.176,7.174,7.174,0,0,0-2.118-5.094L282.627,229.968a5.317,5.317,0,0,0-2.573,3.707Z" fill="#375a64"/>
      </g>
      <g id="Grupo_55668" data-name="Grupo 55668" opacity="0.2">
        <path id="Trazado_118549" data-name="Trazado 118549" d="M267.589,308.1a7.163,7.163,0,0,0,6.174-.476l105.342-60.821a7.164,7.164,0,0,0,3.484-5.009l11.534-68.774a7.4,7.4,0,0,0,.1-1.176,7.174,7.174,0,0,0-2.118-5.094L282.627,229.968a5.317,5.317,0,0,0-2.573,3.707Z" fill="#1a2e35"/>
      </g>
      <g id="Grupo_55669" data-name="Grupo 55669">
        <path id="Trazado_118550" data-name="Trazado 118550" d="M265.884,307.215l.72.413a8.669,8.669,0,0,0,.985.476l12.465-74.429a5.317,5.317,0,0,1,2.573-3.707L392.1,166.754a7.313,7.313,0,0,0-1.462-1.112l-109.7,63.331a5.315,5.315,0,0,0-2.573,3.707Z" fill="#375a64"/>
      </g>
      <path id="Trazado_118551" data-name="Trazado 118551" d="M281.071,231.371l-1.7-.98a5.283,5.283,0,0,0-1,2.288l-12.486,74.536.72.412a8.5,8.5,0,0,0,.984.477l12.465-74.429A5.289,5.289,0,0,1,281.071,231.371Z" fill="#1a2e35" opacity="0.5"/>
      <g id="Grupo_55670" data-name="Grupo 55670">
        <path id="Trazado_118552" data-name="Trazado 118552" d="M326.919,244.616c.772-4.6,5.525-10.721,10.617-13.66s8.594-1.59,7.822,3.015-5.526,10.72-10.618,13.66S326.146,249.221,326.919,244.616Z" fill="#37a3a5"/>
      </g>
    </g>
  </g>
</svg>
