<svg xmlns="http://www.w3.org/2000/svg" xmlns:xlink="http://www.w3.org/1999/xlink" width="288.13" height="275.358" viewBox="0 0 288.13 275.358">
  <defs>
    <linearGradient id="linear-gradient" x1="-57.458" y1="-82.434" x2="-57.443" y2="-82.436" gradientUnits="objectBoundingBox">
      <stop offset="0" stop-color="#fff"/>
      <stop offset="1" stop-color="#d2e6ee"/>
    </linearGradient>
    <linearGradient id="linear-gradient-2" x1="-38.094" y1="-24.228" x2="-38.083" y2="-24.228" xlink:href="#linear-gradient"/>
    <linearGradient id="linear-gradient-3" x1="-462.528" y1="-154.861" x2="-461.748" y2="-154.865" xlink:href="#linear-gradient"/>
    <linearGradient id="linear-gradient-4" x1="-89.081" y1="-72.29" x2="-89.089" y2="-72.271" xlink:href="#linear-gradient"/>
    <linearGradient id="linear-gradient-5" x1="-39.238" y1="-24.702" x2="-39.209" y2="-24.695" xlink:href="#linear-gradient"/>
    <linearGradient id="linear-gradient-6" x1="-42.304" y1="-27.87" x2="-42.318" y2="-27.875" xlink:href="#linear-gradient"/>
    <linearGradient id="linear-gradient-7" x1="-29.354" y1="-44.407" x2="-29.349" y2="-44.394" xlink:href="#linear-gradient"/>
    <linearGradient id="linear-gradient-8" x1="-102.968" y1="-94.801" x2="-102.968" y2="-94.832" xlink:href="#linear-gradient"/>
    <linearGradient id="linear-gradient-9" x1="-538.565" y1="-241.597" x2="-538.565" y2="-241.671" xlink:href="#linear-gradient"/>
    <linearGradient id="linear-gradient-10" x1="-159.743" y1="-108.329" x2="-159.743" y2="-108.364" xlink:href="#linear-gradient"/>
    <linearGradient id="linear-gradient-11" x1="-549.798" y1="-241.62" x2="-549.798" y2="-241.695" xlink:href="#linear-gradient"/>
    <linearGradient id="linear-gradient-12" x1="-340.248" y1="-143.61" x2="-340.248" y2="-143.656" xlink:href="#linear-gradient"/>
    <linearGradient id="linear-gradient-13" x1="-550.041" y1="-239.103" x2="-550.041" y2="-239.177" xlink:href="#linear-gradient"/>
    <linearGradient id="linear-gradient-14" x1="-455.94" y1="-209.597" x2="-455.94" y2="-209.662" xlink:href="#linear-gradient"/>
    <linearGradient id="linear-gradient-15" x1="-67.371" y1="-56.792" x2="-67.334" y2="-56.793" xlink:href="#linear-gradient"/>
    <linearGradient id="linear-gradient-16" x1="-46.223" y1="-44.875" x2="-46.201" y2="-44.875" xlink:href="#linear-gradient"/>
    <linearGradient id="linear-gradient-17" x1="-54.367" y1="-65.184" x2="-54.352" y2="-65.184" xlink:href="#linear-gradient"/>
    <linearGradient id="linear-gradient-18" x1="-27.374" y1="-38.208" x2="-27.367" y2="-38.189" xlink:href="#linear-gradient"/>
    <linearGradient id="linear-gradient-19" x1="-216.215" y1="-344.389" x2="-216.25" y2="-344.498" gradientUnits="objectBoundingBox">
      <stop offset="0" stop-color="#fff"/>
      <stop offset="1" stop-color="#231f20"/>
    </linearGradient>
    <linearGradient id="linear-gradient-20" x1="-344.193" y1="-40.975" x2="-344.117" y2="-40.975" xlink:href="#linear-gradient"/>
    <linearGradient id="linear-gradient-21" x1="-213.078" y1="-341.134" x2="-213.112" y2="-341.242" xlink:href="#linear-gradient-19"/>
    <linearGradient id="linear-gradient-22" x1="-340.836" y1="-40.545" x2="-340.759" y2="-40.545" xlink:href="#linear-gradient"/>
    <linearGradient id="linear-gradient-23" x1="-270.631" y1="-532.284" x2="-270.526" y2="-532.08" gradientUnits="objectBoundingBox">
      <stop offset="0" stop-color="#fff"/>
      <stop offset="1" stop-color="#e1d3e5"/>
    </linearGradient>
    <linearGradient id="linear-gradient-24" x1="-149.668" y1="-129.44" x2="-149.64" y2="-129.49" xlink:href="#linear-gradient"/>
    <linearGradient id="linear-gradient-25" x1="-70.046" y1="-95.551" x2="-70.029" y2="-95.597" xlink:href="#linear-gradient"/>
    <linearGradient id="linear-gradient-26" x1="-43.738" y1="-57.543" x2="-43.729" y2="-57.566" xlink:href="#linear-gradient"/>
    <linearGradient id="linear-gradient-27" x1="-31.354" y1="-40.877" x2="-31.348" y2="-40.892" xlink:href="#linear-gradient"/>
  </defs>
  <g id="Grupo_63415" data-name="Grupo 63415" transform="translate(-979.644 -13319.5)">
    <g id="grafico5-04" transform="translate(979.644 13361.241)">
      <g id="Group_54836" data-name="Group 54836">
        <g id="Group_33036" data-name="Group 33036">
          <g id="Group_32834" data-name="Group 32834">
            <g id="Group_32828" data-name="Group 32828">
              <path id="Path_81100" data-name="Path 81100" d="M121.3,120.11l-.41-.44a1.69,1.69,0,0,1-.32,2.38,1.781,1.781,0,0,1-.27.17L72.94,149.7a2,2,0,0,1-2,0l-8.12-4.83a2,2,0,0,1-.67-2.67,1.81,1.81,0,0,1,.32-.41l-1.06.67c-.69,1.12-.37,3.75.08,4.75L71,152.77a2,2,0,0,0,2,0l47.31-27.27C121.54,124.77,122.32,121.7,121.3,120.11Z" fill="#e8e8e8"/>
              <g id="Group_32827" data-name="Group 32827">
                <path id="Path_81101" data-name="Path 81101" d="M133.75,22.5a2.51,2.51,0,0,1,.67,0,2.51,2.51,0,0,0-.67,0Z" fill="none"/>
                <path id="Path_81102" data-name="Path 81102" d="M67.28,138.87,61.92,142a1.36,1.36,0,0,0-.5,1.85,1.3,1.3,0,0,0,.48.48l9.36,5.57a1.35,1.35,0,0,0,1.36,0L120.93,122a1.35,1.35,0,0,0,.49-1.85,1.38,1.38,0,0,0-.47-.49l-9.73-5.78-.31-.19-2.74,1.58L73.33,135.38Z" fill="url(#linear-gradient)"/>
                <path id="Path_81103" data-name="Path 81103" d="M48.1,134.69v-8L47.95,76.2a8.76,8.76,0,0,1,4-6.84L132.2,23a3.72,3.72,0,0,1,1.55-.53,2.16,2.16,0,0,1,.67,0h0a1.89,1.89,0,0,1,.6.22l-3.86-2.37a2.8,2.8,0,0,0-2.82.27L48,67a8.73,8.73,0,0,0-4,6.84l.15,50.49v7.95a2.75,2.75,0,0,0,1.16,2.54c1.91,1.11,2,1.26,3.85,2.37A2.78,2.78,0,0,1,48.1,134.69Z" fill="url(#linear-gradient-2)"/>
                <path id="Path_81106" data-name="Path 81106" d="M111.4,117.16l.27,4.82L72.91,144.36h0L111.67,122l-.27-4.83h0Z" fill="#082c44"/>
                <path id="Path_81107" data-name="Path 81107" d="M67.8,127.88l-.38,8-.14,3-.1,2.16,5.73,3.32.24-5.11.19-3.86.52-11Z" fill="url(#linear-gradient-3)"/>
                <path id="Path_81109" data-name="Path 81109" d="M111.4,117.16h0l-.18-3.28-.6-10.71h0L73.85,124.4l-.52,11-.18,3.86-.24,5.11h0L111.67,122Z" fill="url(#linear-gradient-4)"/>
                <path id="Path_81110" data-name="Path 81110" d="M136.34,81.54h0V75.79L136.2,25.3c0-1.56-.7-2.55-1.76-2.76h0a2.1,2.1,0,0,0-.66,0,3.72,3.72,0,0,0-1.55.53L51.89,69.4a8.76,8.76,0,0,0-4,6.85l.14,50.49v8a2.77,2.77,0,0,0,1.16,2.54h0a2.83,2.83,0,0,0,2.82-.27l15.72-9.08,6-3.49h0l36.77-21.23h0l21.9-12.62a8.75,8.75,0,0,0,3.95-6.85Z" fill="url(#linear-gradient-5)"/>
                <path id="Path_81112" data-name="Path 81112" d="M110.62,103.16,73.85,124.39h0l36.77-21.23Z" fill="#134169"/>
                <path id="Path_81113" data-name="Path 81113" d="M133,29c0-1.51-1.07-2.12-2.39-1.36L53.5,72.2a5.24,5.24,0,0,0-2.37,4.11l.13,50.4a2.85,2.85,0,0,0,4.27,2.46l76.19-44a2.85,2.85,0,0,0,1.43-2.47Z" fill="url(#linear-gradient-6)"/>
              </g>
            </g>
            <g id="Group_32833" data-name="Group 32833">
              <g id="Group_32829" data-name="Group 32829">
                <path id="Path_81114" data-name="Path 81114" d="M93.92,93.21c1.75-1,3.17-.2,3.18,1.82a7,7,0,0,1-3.16,5.47c-1.75,1-3.17.2-3.18-1.82A7,7,0,0,1,93.92,93.21Z" fill="#e8e8e8" stroke="#21587b" stroke-miterlimit="10" stroke-width="1.06"/>
              </g>
              <g id="Group_32830" data-name="Group 32830">
                <path id="Path_81115" data-name="Path 81115" d="M93.92,82.05c3.42-2,6.83-2.46,9.29-.93L99.79,87c-1.63-.83-3.59-.67-5.88.66A17,17,0,0,0,88,93.89a3.8,3.8,0,0,1-.4-.19c-1-.56-2.06-1.13-3.1-1.68a26.55,26.55,0,0,1,9.42-9.97Z" fill="#e8e8e8" stroke="#21587b" stroke-miterlimit="10" stroke-width="1.06"/>
              </g>
              <g id="Group_32831" data-name="Group 32831">
                <path id="Path_81116" data-name="Path 81116" d="M93.85,70c6-3.48,12.14-4.41,16.78-1.7-1.16,2-2.28,3.93-3.43,5.94-3.72-2-8.14-1.59-13.31,1.4s-9.6,7.72-13.28,13.93l-3.43-2C81.57,79.85,87.67,73.6,93.85,70Z" fill="#e8e8e8" stroke="#21587b" stroke-miterlimit="10" stroke-width="1.06"/>
              </g>
              <g id="Group_32832" data-name="Group 32832">
                <path id="Path_81117" data-name="Path 81117" d="M94,57.63c9.21-5.32,17.25-6,24.19-2.5-1.2,2.1-2.33,4.06-3.46,6-5.63-3.28-13.21-2.23-20.83,2.17S78.8,75.28,73,85.23l-3.45-2c5.78-9.84,12.75-17.79,20.91-23.35Q92.28,58.62,94,57.63Z" fill="#e8e8e8" stroke="#21587b" stroke-miterlimit="10" stroke-width="1.06"/>
              </g>
            </g>
          </g>
          <g id="Group_32938" data-name="Group 32938">
            <g id="Group_32926" data-name="Group 32926">
              <g id="Group_32925" data-name="Group 32925">
                <g id="Group_32924" data-name="Group 32924">
                  <path id="Path_81165" data-name="Path 81165" d="M2.11,189.73l69,39.84a11.36,11.36,0,0,0,10.27,0l33.36-19.4a3.61,3.61,0,0,0,2.12-3c0,1.88,0,.94,0,2.82a3.63,3.63,0,0,1-2.13,3l-33.35,19.4a11.36,11.36,0,0,1-10.27,0l-69-39.84a3.63,3.63,0,0,1-2.11-3c0-1.88,0-.94,0-2.82a3.61,3.61,0,0,0,2.11,3Z" fill="#e8e8e8"/>
                  <g id="Group_32923" data-name="Group 32923">
                    <path id="Path_81166" data-name="Path 81166" d="M35.49,164.39a11.34,11.34,0,0,1,10.26,0l69,39.85c2.82,1.63,2.81,4.3,0,5.94l-33.36,19.4a11.36,11.36,0,0,1-10.27,0l-69-39.84c-2.82-1.63-2.81-4.3,0-5.95Z" fill="url(#linear-gradient-7)"/>
                  </g>
                </g>
              </g>
              <path id="Path_81167" data-name="Path 81167" d="M110,204.87,44,166.82a4.54,4.54,0,0,0-4.11,0l-8.28,4.82,1.94,1.16a1.15,1.15,0,0,1,.39,1.56,1.1,1.1,0,0,1-.41.39L22.86,181a5.38,5.38,0,0,1-5.48,0l-.88-.53-10.2,5.9a1.25,1.25,0,0,0,0,2.37l66,38a4.52,4.52,0,0,0,4.1,0L110,207.25a1.27,1.27,0,0,0,.79-1.6A1.25,1.25,0,0,0,110,204.87Z" fill="#f3f9ff"/>
            </g>
            <g id="Group_32937" data-name="Group 32937">
              <g id="Group_32931" data-name="Group 32931">
                <path id="Path_81168" data-name="Path 81168" d="M44.79,175.49l1.14-.63.35-.17.85-.43.48-.21.76-.35.55-.23.74-.3h0l1.15-.43.36-.13,1-.32.32-.1,1.19-.35h.06c.52-.15,1.06-.29,1.6-.42l.38-.09L57,171h.17l.53-.1.86-.17.73-.12.87-.14h.26l.55-.07.76-.1.84-.08.77-.08h.25l.62-.05L65,170h3.17v13.43H65.01l-.76.05-.86.07-.78.07-.84.09-.76.1-.81.11-.86.14-.74.12-.86.17-.7.13-1.26.29-.38.09c-.54.13-1.07.27-1.6.42l-1.25.37-.32.1-1,.32-.35.13-1.16.43h0l-.77.31-.52.22c-.27.11-.52.24-.78.35l-.47.22-.85.43-.34.17c-.39.2-.77.41-1.15.63a24.24,24.24,0,0,0-6.47,5.24,15.451,15.451,0,0,0-2,3c-.07.15-.15.3-.21.45a12.35,12.35,0,0,0-.66,1.85,9.64,9.64,0,0,0-.28,1.42,8.641,8.641,0,0,0-.09,1.44h0V188.93C35,183.76,38.75,179,44.79,175.49Z" fill="url(#linear-gradient-8)"/>
                <path id="Path_81169" data-name="Path 81169" d="M35.05,188.93v13.43h-5.5V188.93Z" fill="url(#linear-gradient-9)"/>
                <g id="Group_32928" data-name="Group 32928">
                  <g id="Group_32927" data-name="Group 32927">
                    <path id="Path_81170" data-name="Path 81170" d="M40.85,173.31c-7.3,4.22-11,9.47-11.3,15.61h5.5c0-5.17,3.7-10,9.74-13.44s14.2-5.63,23.31-5.65v-3.17c-9,.08-17.26,1.71-24.32,5.1Q42.22,172.52,40.85,173.31Z" fill="#37a3a5"/>
                  </g>
                </g>
                <path id="Path_81171" data-name="Path 81171" d="M54.47,180.38l.77-.42.26-.13.54-.27.32-.15.49-.22.36-.15.43-.18h0c.35-.14.71-.27,1.07-.39l.29-.1.87-.27.19-.06h.12l.66-.17.33-.09.93-.21h.07l1-.18.32-.05.69-.11h.35l.62-.08h.44l.6-.05h3.03v13.43H66.19l-.6.06-.45.05-.61.08h-.41l-.69.11h-.31l-1,.18h-.07l-.93.21-.33.09-.66.17-.31.09-.87.27-.29.1c-.36.12-.72.25-1.07.39l-.47.19-.36.15-.49.22-.32.15-.53.27-.26.13c-.26.14-.52.28-.77.43-4.09,2.36-6.1,5.26-6.24,8.58V189.02C48.37,185.64,50.38,182.75,54.47,180.38Z" fill="url(#linear-gradient-10)"/>
                <path id="Path_81172" data-name="Path 81172" d="M48.24,189v13.43h-5.4V189Z" fill="url(#linear-gradient-11)"/>
                <g id="Group_32930" data-name="Group 32930">
                  <g id="Group_32929" data-name="Group 32929">
                    <path id="Path_81173" data-name="Path 81173" d="M50.62,178.13c-4.79,2.76-7.84,6.58-7.82,10.84h5.44c.13-3.33,2.14-6.22,6.23-8.59a30.13,30.13,0,0,1,14.82-3.59c0-1.06,0-2.1,0-3.14a37.55,37.55,0,0,0-18.67,4.48Z" fill="#37a3a5"/>
                  </g>
                </g>
              </g>
              <g id="Group_32934" data-name="Group 32934">
                <path id="Path_81174" data-name="Path 81174" d="M64.21,185.17c.22-.13.46-.25.7-.37l.24-.1.46-.2h.09l.61-.21.2-.06.17-.05.23-.06.54-.13h.38l.49-.08h.41l.51-.06h1.53a2.261,2.261,0,0,0,0-.35c0-.93,0-1.86.07-2.79v13.43c0,.93,0,1.86-.07,2.79v.35H69.23l-.5.05-.41.06-.49.09-.38.08-.55.13-.4.11-.2.06-.6.21h-.09l-.49.21-.24.11c-.24.11-.47.23-.7.36-1.82,1.05-2.7,2.33-2.78,3.77V189.09A4.839,4.839,0,0,1,64.21,185.17Z" fill="url(#linear-gradient-12)"/>
                <path id="Path_81175" data-name="Path 81175" d="M56,189h5.42v13.43H56.05V188.87Z" fill="url(#linear-gradient-13)"/>
                <g id="Group_32933" data-name="Group 32933">
                  <g id="Group_32932" data-name="Group 32932">
                    <path id="Path_81176" data-name="Path 81176" d="M60.33,182.94c-2.71,1.56-4.4,3.71-4.32,6h5.42c.08-1.44,1-2.72,2.78-3.77a13.37,13.37,0,0,1,6.58-1.6,2.26,2.26,0,0,0,0-.35c0-.93.05-1.86.07-2.79a20.9,20.9,0,0,0-10.53,2.51Z" fill="#37a3a5"/>
                  </g>
                </g>
              </g>
              <g id="Group_32936" data-name="Group 32936">
                <path id="Path_81177" data-name="Path 81177" d="M67,188.92a.49.49,0,0,0,0,.12.29.29,0,0,1,0,.09v.38l.08.12.06.07.15.16.06.06.11.09.1.08a.739.739,0,0,0,.13.08l.13.09.33.17h.1l.28.11h.76l.4.06h1.89l.22-.06h.12l.38-.13h.05a5.235,5.235,0,0,0,.48-.23,1.75,1.75,0,0,0,1-1.46v13.43a1.78,1.78,0,0,1-1,1.46,4.37,4.37,0,0,1-.49.23h-.05l-.38.13h-.09l-.22.06H69.88a.908.908,0,0,1-.4-.06h-.69l-.28-.1h-.1a2.161,2.161,0,0,1-.34-.17h0l-.09-.06-.13-.09-.1-.08-.11-.08h0l-.15-.16h0l-.09-.12v-.05h0l-.06-.11v-.06h0a.45.45,0,0,1,0-.11.25.25,0,0,1,0-.07h0V189.07a.28.28,0,0,0-.34-.15Z" fill="url(#linear-gradient-14)"/>
                <g id="Group_32935" data-name="Group 32935">
                  <path id="Path_81178" data-name="Path 81178" d="M68,187.36c-1.39.8-1.39,2.1,0,2.9a5.51,5.51,0,0,0,5,0c1.39-.8,1.4-2.1,0-2.9a5.53,5.53,0,0,0-5,0Z" fill="#37a3a5"/>
                </g>
              </g>
            </g>
          </g>
          <g id="Group_33035" data-name="Group 33035">
            <g id="Group_33032" data-name="Group 33032">
              <g id="Group_33019" data-name="Group 33019">
                <path id="Path_81219" data-name="Path 81219" d="M288.13,111.61l-.06,20.91-53.91,31.33.06-20.91Z" fill="url(#linear-gradient-15)"/>
              </g>
              <path id="Path_81220" data-name="Path 81220" d="M234.22,142.94l-.06,20.91-77.25-44.6L157,98.34Z" fill="url(#linear-gradient-16)"/>
              <g id="Group_33020" data-name="Group 33020">
                <path id="Path_81221" data-name="Path 81221" d="M230.12,146.12l-.05,11a.63.63,0,0,1-.63.63.59.59,0,0,1-.32-.09l-67.79-39.14A.62.62,0,0,1,161,118l.05-11a.64.64,0,0,1,.64-.63.56.56,0,0,1,.31.09l67.8,39.14a.65.65,0,0,1,.32.52Z" fill="#21587b"/>
                <path id="Path_81222" data-name="Path 81222" d="M162.69,117v-7.15a.63.63,0,0,1,.63-.63.72.72,0,0,1,.32.08l64.45,37.22a.62.62,0,0,1,.32.55v7.15a.64.64,0,0,1-.64.63.65.65,0,0,1-.31-.08L163,117.58a.65.65,0,0,1-.31-.58Z" fill="url(#linear-gradient-17)"/>
              </g>
              <g id="Group_33021" data-name="Group 33021">
                <path id="Path_81223" data-name="Path 81223" d="M288.13,111.61l-53.91,31.33L157,98.34,210.89,67Z" fill="url(#linear-gradient-18)"/>
              </g>
              <path id="Path_81224" data-name="Path 81224" d="M216.16,124.13a4.66,4.66,0,0,1,4.24,0,1.29,1.29,0,0,1,0,2.45,4.72,4.72,0,0,1-4.24,0,1.29,1.29,0,0,1-.81-1.64,1.26,1.26,0,0,1,.81-.81Z" fill="#37a3a5"/>
              <path id="Path_81225" data-name="Path 81225" d="M223.26,128.2a4.7,4.7,0,0,1,4.23,0,1.29,1.29,0,0,1,.81,1.64,1.26,1.26,0,0,1-.81.81,4.7,4.7,0,0,1-4.23,0,1.29,1.29,0,0,1,0-2.45Z" fill="#37a3a5"/>
              <path id="Path_81226" data-name="Path 81226" d="M231.45,132.86a4.72,4.72,0,0,1,4.24,0,1.29,1.29,0,0,1,0,2.45,4.72,4.72,0,0,1-4.24,0,1.293,1.293,0,0,1,0-2.45Z" fill="#37a3a5"/>
              <path id="Path_81227" data-name="Path 81227" d="M200.86,115.37a4.72,4.72,0,0,1,4.24,0,1.29,1.29,0,0,1,0,2.45,4.66,4.66,0,0,1-4.24,0,1.35,1.35,0,0,1-.57-1.78,1.93,1.93,0,0,1,.57-.67Z" fill="#ebf4fb"/>
              <path id="Path_81228" data-name="Path 81228" d="M208,119.44a4.72,4.72,0,0,1,4.24,0,1.293,1.293,0,0,1,0,2.45,4.72,4.72,0,0,1-4.24,0,1.29,1.29,0,0,1,0-2.45Z" fill="#ebf4fb"/>
              <g id="Group_33024" data-name="Group 33024">
                <path id="Path_81229" data-name="Path 81229" d="M269.06,112.38l10-6-6-3.48-10.36,5.9Z" opacity="0.7" fill="url(#linear-gradient-19)" style="isolation: isolate"/>
                <g id="Group_33023" data-name="Group 33023">
                  <path id="Path_81230" data-name="Path 81230" d="M269.27,42.53a1.48,1.48,0,0,1-.77,1.18,3.94,3.94,0,0,1-1.57.52,5.06,5.06,0,0,1-1.23,0h0a3.75,3.75,0,0,1-1.71-.61,1.41,1.41,0,0,1-.67-1.08L261.35,110a1.57,1.57,0,0,0,.09.48v.12a2.42,2.42,0,0,0,.53.81,1.308,1.308,0,0,0,.12.11l.12.1a3.778,3.778,0,0,0,.56.4,4.941,4.941,0,0,0,.7.33l.22.08a5.759,5.759,0,0,0,.59.18l.22.06a8,8,0,0,0,.83.14h.05a7.261,7.261,0,0,0,.8,0h1.14a3.911,3.911,0,0,0,.82-.14l.63-.19.25-.08a5.8,5.8,0,0,0,.8-.37,2.52,2.52,0,0,0,1.47-2.06Z" fill="url(#linear-gradient-20)"/>
                  <g id="Group_33022" data-name="Group 33022">
                    <path id="Path_81231" data-name="Path 81231" d="M264.15,41.35a1.31,1.31,0,0,0,0,2.48,4.7,4.7,0,0,0,4.29,0,1.31,1.31,0,0,0,.83-1.66,1.29,1.29,0,0,0-.82-.82,4.7,4.7,0,0,0-4.3,0Z" fill="#21587b"/>
                  </g>
                </g>
              </g>
              <g id="Group_33027" data-name="Group 33027">
                <path id="Path_81232" data-name="Path 81232" d="M215.59,81.52l10-6-6-3.48-10.35,5.9Z" opacity="0.7" fill="url(#linear-gradient-21)" style="isolation: isolate"/>
                <g id="Group_33026" data-name="Group 33026">
                  <path id="Path_81233" data-name="Path 81233" d="M215.5,11.84a1.46,1.46,0,0,1-.77,1.18,3.84,3.84,0,0,1-1.57.52,5.06,5.06,0,0,1-1.23,0h0a3.75,3.75,0,0,1-1.71-.61,1.41,1.41,0,0,1-.67-1.08L207.58,79.3a1.93,1.93,0,0,0,.08.48.558.558,0,0,1,0,.12,2.42,2.42,0,0,0,.53.81,1.313,1.313,0,0,0,.12.11l.12.1a3.779,3.779,0,0,0,.56.4,6.361,6.361,0,0,0,.7.33l.22.08a5.58,5.58,0,0,0,.58.18l.23.06c.27.06.55.1.83.14h0a7.259,7.259,0,0,0,.8,0h1.13a7.559,7.559,0,0,0,.83-.14,6.544,6.544,0,0,0,.63-.19l.25-.07a5.3,5.3,0,0,0,.8-.38,2.51,2.51,0,0,0,1.47-2Z" fill="url(#linear-gradient-22)"/>
                  <g id="Group_33025" data-name="Group 33025">
                    <path id="Path_81234" data-name="Path 81234" d="M210.38,10.66a1.31,1.31,0,0,0-.82,1.67,1.34,1.34,0,0,0,.81.82,4.77,4.77,0,0,0,4.29,0,1.31,1.31,0,0,0,.83-1.66,1.33,1.33,0,0,0-.81-.83,4.79,4.79,0,0,0-4.3,0Z" fill="#21587b"/>
                  </g>
                </g>
              </g>
              <g id="Group_33031" data-name="Group 33031">
                <g id="Group_33028" data-name="Group 33028">
                  <path id="Path_81235" data-name="Path 81235" d="M236.9,148.4a.42.42,0,0,1-.43-.43.44.44,0,0,1,.21-.38l48.92-27.77a.431.431,0,0,1,.46.73h0l-48.91,27.78A.54.54,0,0,1,236.9,148.4Z" fill="#21587b"/>
                </g>
                <g id="Group_33029" data-name="Group 33029">
                  <path id="Path_81236" data-name="Path 81236" d="M236.9,151.72a.42.42,0,0,1-.43-.43.44.44,0,0,1,.21-.38l48.92-27.77a.432.432,0,1,1,.43.75h0l-48.91,27.78a.5.5,0,0,1-.22.05Z" fill="#21587b"/>
                </g>
                <g id="Group_33030" data-name="Group 33030">
                  <path id="Path_81237" data-name="Path 81237" d="M236.9,155a.42.42,0,0,1-.43-.43.44.44,0,0,1,.21-.38l48.92-27.77a.431.431,0,0,1,.46.73h0L237.11,155A.5.5,0,0,1,236.9,155Z" fill="#21587b"/>
                </g>
              </g>
            </g>
          </g>
          <path id="Path_81240" data-name="Path 81240" d="M19.57,179.78a1.16,1.16,0,0,0,1.07-.06l10.3-6-.44-.28a.92.92,0,0,0-1,0L19,179.53Z" fill="url(#linear-gradient-23)"/>
          <g id="Group_32842" data-name="Group 32842">
            <g id="Group_32836" data-name="Group 32836">
              <path id="Path_81118" data-name="Path 81118" d="M152.62,83.05c-1.81-1-3.46-1.15-4.65-.46l-12,7c1.19-.69,2.83-.59,4.65.46a14.36,14.36,0,0,1,6.52,11.29c0,2.06-.74,3.51-1.91,4.19l12-7c1.18-.68,1.9-2.13,1.91-4.19A14.34,14.34,0,0,0,152.62,83.05Z" fill="url(#linear-gradient-24)"/>
              <g id="Group_32835" data-name="Group 32835">
                <ellipse id="Ellipse_3403" data-name="Ellipse 3403" cx="5.34" cy="9.22" rx="5.34" ry="9.22" transform="matrix(0.865, -0.502, 0.502, 0.865, 131.384, 92.253)" fill="#37a3a5"/>
              </g>
            </g>
            <g id="Group_32838" data-name="Group 32838">
              <path id="Path_81119" data-name="Path 81119" d="M152.76,60.1c-7-4-14-5.07-19.14-2.07l-12,7c5.17-3,12.17-1.95,19.14,2.07s14.05,11.17,19.11,20.19l12-7C166.82,71.28,159.81,64.17,152.76,60.1Z" fill="url(#linear-gradient-25)"/>
              <g id="Group_32837" data-name="Group 32837">
                <path id="Path_81120" data-name="Path 81120" d="M140.79,67.06c7,4.07,14.05,11.17,19.11,20.19l-7.12,4c-3.34-5.56-7.36-9.89-12.08-12.61s-8.79-3.06-12.2-1.3c-.32-.51-.57-.91-.82-1.33l-6.35-10.84C126.54,62,133.68,63,140.79,67.06Z" fill="#37a3a5"/>
              </g>
            </g>
            <g id="Group_32841" data-name="Group 32841">
              <g id="Group_32839" data-name="Group 32839">
                <path id="Path_81121" data-name="Path 81121" d="M140.78,42.19c12.45,7.19,25,19.8,34.51,36.4l-7.12,4.06C160.55,69.8,151.45,60,140.78,53.86S121,46.92,113.34,50.94c-2.38-4.12-4.72-8.17-7-12.22C115.42,33.17,128,34.84,140.78,42.19Z" fill="#37a3a5"/>
              </g>
              <path id="Path_81122" data-name="Path 81122" d="M152.75,35.24c-12.56-7.26-25-9-34.11-3.7l-12,7c9.09-5.28,21.55-3.56,34.11,3.7s25,19.8,34.51,36.4l12-7C177.76,55,165.2,42.43,152.75,35.24Z" fill="url(#linear-gradient-26)"/>
              <path id="Path_81123" data-name="Path 81123" d="M153.2,10.08c-2.38-1.37-4.79-2.64-7.25-3.8-16.83-7.94-31.25-8.17-43.27-1.71l-12,7c12-6.47,26.43-6.23,43.27,1.71q3.68,1.74,7.25,3.8c19,11,35.54,28.71,49.75,52.37l12-6.95C188.74,38.79,172.2,21.05,153.2,10.08Z" fill="url(#linear-gradient-27)"/>
              <g id="Group_32840" data-name="Group 32840">
                <path id="Path_81124" data-name="Path 81124" d="M141.23,17c19,11,35.54,28.72,49.75,52.38l-7.18,4.15c-11.54-20.14-27.13-36-42.85-45.08-15.53-9-31.19-11.3-43.17-4.58-2.32-4-4.62-8.08-7.07-12.37,12-6.47,26.43-6.24,43.27,1.71C136.43,14.39,138.85,15.66,141.23,17Z" fill="#37a3a5"/>
              </g>
            </g>
          </g>
        </g>
      </g>
      <path id="Trazado_118463" data-name="Trazado 118463" d="M142.1,162a4.72,4.72,0,0,0-1.57,9.17h3.15A4.72,4.72,0,0,0,142.1,162Z" fill="#37a3a5"/>
      <path id="Trazado_118464" data-name="Trazado 118464" d="M142.1,185.59a1.18,1.18,0,0,1-1.18-1.18V170.62a1.19,1.19,0,0,1,2.37,0v13.79a1.18,1.18,0,0,1-1.19,1.18Z" fill="#00223d"/>
      <path id="Trazado_118465" data-name="Trazado 118465" d="M142.1,171.41a4.73,4.73,0,1,1,4.73-4.73,4.73,4.73,0,0,1-4.73,4.73Zm0-7.09a2.36,2.36,0,1,0,1.675.688,2.37,2.37,0,0,0-1.675-.688Z" fill="#00223d"/>
      <path id="Trazado_118466" data-name="Trazado 118466" d="M154.63,180.39a1.181,1.181,0,0,1-.84-2.02,16.36,16.36,0,0,0,4.85-11.69,16.55,16.55,0,0,0-33.09,0,16.36,16.36,0,0,0,4.85,11.69,1.184,1.184,0,1,1-1.67,1.68,18.72,18.72,0,0,1-5.55-13.37,18.91,18.91,0,0,1,37.82,0,18.72,18.72,0,0,1-5.55,13.37A1.16,1.16,0,0,1,154.63,180.39Z" fill="#00223d"/>
      <path id="Trazado_118467" data-name="Trazado 118467" d="M150.17,175.93a1.16,1.16,0,0,1-.84-.35,1.18,1.18,0,0,1,0-1.67,10.1,10.1,0,0,0,3-7.23,10.25,10.25,0,0,0-20.49,0,10.1,10.1,0,0,0,3,7.23,1.184,1.184,0,1,1-1.67,1.68,12.44,12.44,0,0,1-3.7-8.91,12.61,12.61,0,0,1,25.21,0,12.45,12.45,0,0,1-3.71,8.91,1.16,1.16,0,0,1-.8.34Z" fill="#00223d"/>
      <path id="Trazado_118468" data-name="Trazado 118468" d="M152.46,200.17h-3.57l-.81,2.23h-1.16l3.26-8.53h1l3.26,8.53h-1.15Zm-3.23-.92h2.9l-1.46-4Z" fill="#00223d"/>
      <path id="Trazado_118469" data-name="Trazado 118469" d="M158,201.63a1.6,1.6,0,0,0,1-.35,1.3,1.3,0,0,0,.48-.88h1a2,2,0,0,1-.37,1,2.38,2.38,0,0,1-.93.78,2.78,2.78,0,0,1-3.28-.57,3.42,3.42,0,0,1-.76-2.36v-.18a3.77,3.77,0,0,1,.34-1.65,2.59,2.59,0,0,1,1-1.12,2.86,2.86,0,0,1,1.51-.4,2.56,2.56,0,0,1,1.77.64,2.29,2.29,0,0,1,.75,1.66h-1a1.52,1.52,0,0,0-.47-1,1.42,1.42,0,0,0-1-.4,1.5,1.5,0,0,0-1.28.6,2.73,2.73,0,0,0-.46,1.72v.2a2.74,2.74,0,0,0,.45,1.69,1.53,1.53,0,0,0,1.25.62Z" fill="#00223d"/>
      <path id="Trazado_118470" data-name="Trazado 118470" d="M164.23,201.63a1.6,1.6,0,0,0,1-.35,1.23,1.23,0,0,0,.48-.88h1a2,2,0,0,1-.37,1,2.38,2.38,0,0,1-.93.78,2.78,2.78,0,0,1-3.28-.57,3.42,3.42,0,0,1-.76-2.36v-.18a3.77,3.77,0,0,1,.34-1.65,2.66,2.66,0,0,1,1-1.12,2.86,2.86,0,0,1,1.51-.4,2.56,2.56,0,0,1,1.77.64,2.29,2.29,0,0,1,.75,1.66h-1a1.48,1.48,0,0,0-.47-1,1.42,1.42,0,0,0-1-.4,1.51,1.51,0,0,0-1.28.6,2.73,2.73,0,0,0-.46,1.72v.2a2.74,2.74,0,0,0,.45,1.69,1.53,1.53,0,0,0,1.25.62Z" fill="#00223d"/>
      <path id="Trazado_118471" data-name="Trazado 118471" d="M170.6,202.52a2.79,2.79,0,0,1-2.1-.85,3.17,3.17,0,0,1-.8-2.26v-.2a3.85,3.85,0,0,1,.36-1.69,2.83,2.83,0,0,1,1-1.16,2.56,2.56,0,0,1,1.41-.42,2.36,2.36,0,0,1,1.92.82,3.5,3.5,0,0,1,.68,2.33v.45h-4.29a2.24,2.24,0,0,0,.55,1.51,1.7,1.7,0,0,0,1.33.58,1.93,1.93,0,0,0,1-.23,2.58,2.58,0,0,0,.7-.62l.66.51A2.66,2.66,0,0,1,170.6,202.52Zm-.13-5.69a1.43,1.43,0,0,0-1.1.48,2.39,2.39,0,0,0-.56,1.34H172v-.08a2.08,2.08,0,0,0-.44-1.28,1.36,1.36,0,0,0-1.09-.46Z" fill="#00223d"/>
      <path id="Trazado_118472" data-name="Trazado 118472" d="M178,200.72a.78.78,0,0,0-.33-.68,3,3,0,0,0-1.16-.42,5.319,5.319,0,0,1-1.3-.43,1.86,1.86,0,0,1-.72-.58,1.45,1.45,0,0,1-.23-.81,1.65,1.65,0,0,1,.66-1.32,2.58,2.58,0,0,1,1.69-.54,2.63,2.63,0,0,1,1.74.56,1.76,1.76,0,0,1,.68,1.42H178a1,1,0,0,0-.38-.76,1.39,1.39,0,0,0-1-.33,1.49,1.49,0,0,0-.93.26.82.82,0,0,0-.33.67.66.66,0,0,0,.31.6,3.79,3.79,0,0,0,1.12.38,5.569,5.569,0,0,1,1.31.43,1.88,1.88,0,0,1,.75.61,1.48,1.48,0,0,1,.24.86,1.59,1.59,0,0,1-.68,1.36,2.79,2.79,0,0,1-1.76.52,3.19,3.19,0,0,1-1.35-.27,2.13,2.13,0,0,1-.91-.76,1.82,1.82,0,0,1-.34-1h1.09a1.09,1.09,0,0,0,.44.86,1.64,1.64,0,0,0,1.07.32,1.73,1.73,0,0,0,1-.25A.74.74,0,0,0,178,200.72Z" fill="#00223d"/>
      <path id="Trazado_118473" data-name="Trazado 118473" d="M184.21,200.72a.78.78,0,0,0-.33-.68,3,3,0,0,0-1.16-.42,5.18,5.18,0,0,1-1.3-.43,1.72,1.72,0,0,1-.72-.58,1.45,1.45,0,0,1-.23-.81,1.65,1.65,0,0,1,.66-1.32,2.57,2.57,0,0,1,1.68-.54,2.66,2.66,0,0,1,1.75.56,1.75,1.75,0,0,1,.67,1.42h-1.09a1,1,0,0,0-.37-.76,1.42,1.42,0,0,0-1-.33,1.48,1.48,0,0,0-.92.26.8.8,0,0,0-.34.67.68.68,0,0,0,.31.6,3.88,3.88,0,0,0,1.13.38,5.57,5.57,0,0,1,1.31.43,1.88,1.88,0,0,1,.75.61,1.48,1.48,0,0,1,.24.86,1.62,1.62,0,0,1-.68,1.36,2.79,2.79,0,0,1-1.76.52,3.19,3.19,0,0,1-1.35-.27,2.16,2.16,0,0,1-.92-.76,1.81,1.81,0,0,1-.33-1h1.09a1.11,1.11,0,0,0,.43.86,1.65,1.65,0,0,0,1.08.32,1.73,1.73,0,0,0,1-.25.76.76,0,0,0,.4-.7Z" fill="#00223d"/>
      <path id="Trazado_118474" data-name="Trazado 118474" d="M195,199.3a3.81,3.81,0,0,1-.66,2.33,2.13,2.13,0,0,1-1.8.89,2.32,2.32,0,0,1-1.81-.74v3.06h-1.09v-8.78h1l.06.7a2.24,2.24,0,0,1,1.84-.82,2.16,2.16,0,0,1,1.8.86,3.83,3.83,0,0,1,.67,2.4Zm-1.08-.12a2.86,2.86,0,0,0-.46-1.7,1.49,1.49,0,0,0-1.26-.62,1.58,1.58,0,0,0-1.47.88v3a1.59,1.59,0,0,0,1.49.87,1.45,1.45,0,0,0,1.24-.62,3.08,3.08,0,0,0,.54-1.81Z" fill="#00223d"/>
      <path id="Trazado_118475" data-name="Trazado 118475" d="M196.12,199.17a3.63,3.63,0,0,1,.37-1.67,2.66,2.66,0,0,1,1-1.15,2.75,2.75,0,0,1,1.49-.41,2.66,2.66,0,0,1,2.09.9,3.46,3.46,0,0,1,.8,2.38v.08a3.85,3.85,0,0,1-.35,1.66,2.78,2.78,0,0,1-1,1.15,2.82,2.82,0,0,1-1.51.41,2.66,2.66,0,0,1-2.09-.9,3.45,3.45,0,0,1-.8-2.37Zm1.09.13a2.67,2.67,0,0,0,.49,1.69,1.55,1.55,0,0,0,1.31.64,1.53,1.53,0,0,0,1.31-.65,3,3,0,0,0,.49-1.81,2.72,2.72,0,0,0-.5-1.69,1.64,1.64,0,0,0-2.61,0,3,3,0,0,0-.49,1.82Z" fill="#00223d"/>
      <path id="Trazado_118476" data-name="Trazado 118476" d="M203.26,194.38a.64.64,0,0,1,.16-.45.58.58,0,0,1,.47-.18.63.63,0,0,1,.49.18.69.69,0,0,1,.16.45.68.68,0,0,1-.16.44.66.66,0,0,1-.49.17.61.61,0,0,1-.47-.17.63.63,0,0,1-.16-.44Zm1.17,8h-1.09v-6.34h1.09Z" fill="#00223d"/>
      <path id="Trazado_118477" data-name="Trazado 118477" d="M207.19,196.06v.8a2.33,2.33,0,0,1,1.9-.92c1.34,0,2,.76,2,2.27v4.19H210v-4.2a1.42,1.42,0,0,0-.31-1,1.24,1.24,0,0,0-1-.33,1.59,1.59,0,0,0-.92.28,1.86,1.86,0,0,0-.62.74v4.52h-1.09v-6.34Z" fill="#00223d"/>
      <path id="Trazado_118478" data-name="Trazado 118478" d="M214.25,194.52v1.54h1.19v.84h-1.19v3.93a.93.93,0,0,0,.16.58.7.7,0,0,0,.54.19,3.27,3.27,0,0,0,.52-.07v.87a3.141,3.141,0,0,1-.83.12,1.37,1.37,0,0,1-1.1-.44,1.88,1.88,0,0,1-.37-1.25V196.9H212v-.84h1.15v-1.54Z" fill="#00223d"/>
      <path id="Trazado_118479" data-name="Trazado 118479" d="M238.33,24.22h-2v3.45H235.2V19.14H238a3.34,3.34,0,0,1,2.22.66,2.468,2.468,0,0,1-.85,4.18l2,3.62v.07h-1.2Zm-2-.92h1.73a1.94,1.94,0,0,0,1.33-.43,1.48,1.48,0,0,0,.5-1.16,1.57,1.57,0,0,0-.47-1.22,2.06,2.06,0,0,0-1.37-.43h-1.72Z" fill="#00223d"/>
      <path id="Trazado_118480" data-name="Trazado 118480" d="M242.14,24.45a3.8,3.8,0,0,1,.36-1.68,2.845,2.845,0,0,1,4.6-.66,3.49,3.49,0,0,1,.8,2.39v.07a3.76,3.76,0,0,1-.36,1.67,2.61,2.61,0,0,1-1,1.14,2.82,2.82,0,0,1-1.51.41,2.66,2.66,0,0,1-2.09-.9,3.37,3.37,0,0,1-.8-2.37Zm1.09.12a2.7,2.7,0,0,0,.49,1.7,1.65,1.65,0,0,0,2.62,0,3,3,0,0,0,.48-1.81,2.69,2.69,0,0,0-.49-1.69,1.64,1.64,0,0,0-2.61,0,2.9,2.9,0,0,0-.49,1.8Z" fill="#00223d"/>
      <path id="Trazado_118481" data-name="Trazado 118481" d="M253.18,27.05a2.32,2.32,0,0,1-1.86.74,2,2,0,0,1-1.54-.59,2.58,2.58,0,0,1-.54-1.74V21.33h1.09v4.1q0,1.44,1.17,1.44a1.62,1.62,0,0,0,1.65-.92V21.33h1.09v6.34h-1Z" fill="#00223d"/>
      <path id="Trazado_118482" data-name="Trazado 118482" d="M257.35,19.8v1.53h1.19v.84h-1.19v3.94a.92.92,0,0,0,.16.57.67.67,0,0,0,.54.19,2.41,2.41,0,0,0,.52-.07v.87a3.15,3.15,0,0,1-.84.12,1.36,1.36,0,0,1-1.09-.44,1.87,1.87,0,0,1-.37-1.25V22.17h-1.15v-.84h1.15V19.8Z" fill="#00223d"/>
      <path id="Trazado_118483" data-name="Trazado 118483" d="M262.43,27.79a2.74,2.74,0,0,1-2.09-.85,3.11,3.11,0,0,1-.81-2.26v-.2a3.77,3.77,0,0,1,.36-1.68,2.73,2.73,0,0,1,1-1.16,2.52,2.52,0,0,1,1.4-.42,2.39,2.39,0,0,1,1.92.81,3.5,3.5,0,0,1,.69,2.33v.45h-4.3a2.29,2.29,0,0,0,.55,1.52,1.73,1.73,0,0,0,1.33.58,1.87,1.87,0,0,0,1-.24,2.37,2.37,0,0,0,.69-.62l.66.52A2.66,2.66,0,0,1,262.43,27.79Zm-.13-5.68a1.43,1.43,0,0,0-1.1.48,2.26,2.26,0,0,0-.55,1.33h3.17v-.08a2.08,2.08,0,0,0-.44-1.28,1.38,1.38,0,0,0-1.08-.45Z" fill="#00223d"/>
      <path id="Trazado_118484" data-name="Trazado 118484" d="M269.23,22.31a3.121,3.121,0,0,0-.54,0,1.44,1.44,0,0,0-1.45.9v4.5h-1.08V21.33h1.06v.74a1.69,1.69,0,0,1,1.51-.85,1.06,1.06,0,0,1,.49.08Z" fill="#00223d"/>
    </g>
    <g id="Grupo_55637" data-name="Grupo 55637" transform="translate(811 5482.5)">
      <path id="Trazado_124247" data-name="Trazado 124247" d="M4.462,8.261H2.292V12H1.066V2.758h3.06a3.621,3.621,0,0,1,2.4.711A2.558,2.558,0,0,1,7.37,5.538a2.488,2.488,0,0,1-.467,1.5A2.785,2.785,0,0,1,5.6,8l2.171,3.923V12H6.468Zm-2.171-1H4.164a2.112,2.112,0,0,0,1.444-.471,1.591,1.591,0,0,0,.536-1.259,1.676,1.676,0,0,0-.511-1.316,2.164,2.164,0,0,0-1.476-.464H2.292Zm9.452,4.862a3,3,0,0,1-2.272-.917,3.4,3.4,0,0,1-.876-2.453V8.541a4.121,4.121,0,0,1,.39-1.825,3.045,3.045,0,0,1,1.092-1.257A2.745,2.745,0,0,1,11.6,5a2.572,2.572,0,0,1,2.082.882,3.82,3.82,0,0,1,.743,2.526V8.9H9.769a2.441,2.441,0,0,0,.594,1.641,1.866,1.866,0,0,0,1.444.625,2.045,2.045,0,0,0,1.054-.254,2.648,2.648,0,0,0,.755-.673l.717.559A2.884,2.884,0,0,1,11.743,12.127ZM11.6,5.97a1.566,1.566,0,0,0-1.193.517,2.515,2.515,0,0,0-.6,1.45h3.44V7.849a2.237,2.237,0,0,0-.482-1.387A1.475,1.475,0,0,0,11.6,5.97Zm3.9,2.539a4.023,4.023,0,0,1,.749-2.542,2.548,2.548,0,0,1,3.872-.136V2.25H21.29V12H20.211l-.057-.736a2.391,2.391,0,0,1-1.961.863,2.346,2.346,0,0,1-1.946-.978A4.069,4.069,0,0,1,15.495,8.6Zm1.174.133a3.046,3.046,0,0,0,.482,1.828,1.56,1.56,0,0,0,1.333.66,1.713,1.713,0,0,0,1.631-1V6.973A1.726,1.726,0,0,0,18.5,6a1.567,1.567,0,0,0-1.346.667A3.354,3.354,0,0,0,16.669,8.642Zm12.416,2.526a1.692,1.692,0,0,0,1.1-.381,1.34,1.34,0,0,0,.521-.952h1.111a2.13,2.13,0,0,1-.406,1.124,2.676,2.676,0,0,1-1,.851,2.885,2.885,0,0,1-1.323.317,2.829,2.829,0,0,1-2.231-.936,3.729,3.729,0,0,1-.828-2.561v-.2a4.135,4.135,0,0,1,.368-1.784A2.8,2.8,0,0,1,27.45,5.437,3,3,0,0,1,29.079,5,2.755,2.755,0,0,1,31,5.7a2.473,2.473,0,0,1,.816,1.8H30.7A1.618,1.618,0,0,0,30.2,6.4a1.57,1.57,0,0,0-1.12-.428,1.644,1.644,0,0,0-1.387.644A3.026,3.026,0,0,0,27.2,8.477V8.7a2.966,2.966,0,0,0,.489,1.828A1.651,1.651,0,0,0,29.085,11.168Zm8.29.832a2.467,2.467,0,0,1-.165-.724,2.62,2.62,0,0,1-1.955.851,2.424,2.424,0,0,1-1.666-.574,1.859,1.859,0,0,1-.651-1.457,1.942,1.942,0,0,1,.816-1.666,3.846,3.846,0,0,1,2.295-.594h1.143V7.3a1.319,1.319,0,0,0-.368-.981,1.48,1.48,0,0,0-1.085-.365,1.712,1.712,0,0,0-1.054.317.935.935,0,0,0-.425.768H33.078a1.621,1.621,0,0,1,.365-.993,2.491,2.491,0,0,1,.99-.759A3.331,3.331,0,0,1,35.807,5a2.715,2.715,0,0,1,1.86.594,2.141,2.141,0,0,1,.7,1.635v3.161a3.865,3.865,0,0,0,.241,1.5V12Zm-1.949-.9a2.064,2.064,0,0,0,1.047-.286,1.728,1.728,0,0,0,.717-.743V8.667h-.92q-2.158,0-2.158,1.263a1.069,1.069,0,0,0,.368.863A1.415,1.415,0,0,0,35.426,11.1ZM46.021,8.642a4.084,4.084,0,0,1-.724,2.53,2.312,2.312,0,0,1-1.942.955,2.394,2.394,0,0,1-2.012-.92L41.285,12H40.206V2.25H41.38V5.887A2.381,2.381,0,0,1,43.342,5a2.326,2.326,0,0,1,1.965.946,4.206,4.206,0,0,1,.714,2.59Zm-1.174-.133a3.173,3.173,0,0,0-.463-1.854A1.534,1.534,0,0,0,43.05,6,1.724,1.724,0,0,0,41.38,7.081v2.971a1.772,1.772,0,0,0,1.682,1.079,1.526,1.526,0,0,0,1.314-.654A3.374,3.374,0,0,0,44.846,8.509ZM48.775,12H47.6V2.25h1.174Zm4.729.127a3,3,0,0,1-2.272-.917,3.4,3.4,0,0,1-.876-2.453V8.541a4.121,4.121,0,0,1,.39-1.825,3.045,3.045,0,0,1,1.092-1.257A2.745,2.745,0,0,1,53.358,5a2.572,2.572,0,0,1,2.082.882,3.82,3.82,0,0,1,.743,2.526V8.9H51.53a2.441,2.441,0,0,0,.594,1.641,1.866,1.866,0,0,0,1.444.625,2.045,2.045,0,0,0,1.054-.254,2.648,2.648,0,0,0,.755-.673l.717.559A2.884,2.884,0,0,1,53.5,12.127ZM53.358,5.97a1.566,1.566,0,0,0-1.193.517,2.515,2.515,0,0,0-.6,1.45h3.44V7.849a2.237,2.237,0,0,0-.482-1.387A1.475,1.475,0,0,0,53.358,5.97ZM61.782,12a2.467,2.467,0,0,1-.165-.724,2.62,2.62,0,0,1-1.955.851A2.424,2.424,0,0,1,58,11.552a1.859,1.859,0,0,1-.651-1.457,1.942,1.942,0,0,1,.816-1.666,3.846,3.846,0,0,1,2.295-.594H61.6V7.3a1.319,1.319,0,0,0-.368-.981,1.48,1.48,0,0,0-1.085-.365,1.712,1.712,0,0,0-1.054.317.935.935,0,0,0-.425.768H57.484a1.621,1.621,0,0,1,.365-.993,2.491,2.491,0,0,1,.99-.759A3.331,3.331,0,0,1,60.214,5a2.715,2.715,0,0,1,1.86.594,2.141,2.141,0,0,1,.7,1.635v3.161a3.865,3.865,0,0,0,.241,1.5V12Zm-1.949-.9a2.064,2.064,0,0,0,1.047-.286,1.728,1.728,0,0,0,.717-.743V8.667h-.92q-2.158,0-2.158,1.263a1.069,1.069,0,0,0,.368.863A1.415,1.415,0,0,0,59.833,11.1Zm4.494-2.6a4.023,4.023,0,0,1,.749-2.542,2.548,2.548,0,0,1,3.872-.136V2.25h1.174V12H69.043l-.057-.736a2.391,2.391,0,0,1-1.961.863,2.346,2.346,0,0,1-1.946-.978A4.069,4.069,0,0,1,64.327,8.6Zm1.174.133a3.046,3.046,0,0,0,.482,1.828,1.56,1.56,0,0,0,1.333.66,1.713,1.713,0,0,0,1.631-1V6.973A1.726,1.726,0,0,0,67.33,6a1.567,1.567,0,0,0-1.346.667A3.354,3.354,0,0,0,65.5,8.642ZM76.185,12a2.467,2.467,0,0,1-.165-.724,2.62,2.62,0,0,1-1.955.851,2.424,2.424,0,0,1-1.666-.574,1.859,1.859,0,0,1-.651-1.457,1.942,1.942,0,0,1,.816-1.666,3.846,3.846,0,0,1,2.295-.594H76V7.3a1.319,1.319,0,0,0-.368-.981,1.48,1.48,0,0,0-1.085-.365,1.712,1.712,0,0,0-1.054.317.935.935,0,0,0-.425.768H71.887a1.621,1.621,0,0,1,.365-.993,2.491,2.491,0,0,1,.99-.759A3.331,3.331,0,0,1,74.617,5a2.715,2.715,0,0,1,1.86.594,2.141,2.141,0,0,1,.7,1.635v3.161a3.865,3.865,0,0,0,.241,1.5V12Zm-1.949-.9a2.064,2.064,0,0,0,1.047-.286A1.728,1.728,0,0,0,76,10.077V8.667h-.92q-2.158,0-2.158,1.263a1.069,1.069,0,0,0,.368.863A1.415,1.415,0,0,0,74.236,11.1Z" transform="translate(192.667 7838)" fill="#12263f"/>
      <rect id="Rectángulo_27413" data-name="Rectángulo 27413" width="4" height="21" transform="translate(179.667 7837)" fill="#37a3a5"/>
    </g>
  </g>
</svg>
