<svg xmlns="http://www.w3.org/2000/svg" xmlns:xlink="http://www.w3.org/1999/xlink" width="262.384" height="312.117" viewBox="0 0 262.384 312.117">
  <defs>
    <linearGradient id="linear-gradient" x1="-42.011" y1="-84.7" x2="-42.011" y2="-84.707" gradientUnits="objectBoundingBox">
      <stop offset="0" stop-color="#fff"/>
      <stop offset="1" stop-color="#d2e6ee"/>
    </linearGradient>
    <linearGradient id="linear-gradient-2" x1="-68.813" y1="-57.142" x2="-68.813" y2="-57.146" xlink:href="#linear-gradient"/>
    <linearGradient id="linear-gradient-3" x1="-73.928" y1="-60.728" x2="-73.928" y2="-60.733" xlink:href="#linear-gradient"/>
    <linearGradient id="linear-gradient-4" x1="-40.137" y1="-88.321" x2="-40.137" y2="-88.328" xlink:href="#linear-gradient"/>
    <linearGradient id="linear-gradient-5" x1="-65.774" y1="-59.611" x2="-65.774" y2="-59.616" xlink:href="#linear-gradient"/>
    <linearGradient id="linear-gradient-6" x1="-70.666" y1="-63.351" x2="-70.666" y2="-63.356" xlink:href="#linear-gradient"/>
    <linearGradient id="linear-gradient-7" x1="-41.88" y1="-88.473" x2="-41.88" y2="-88.48" xlink:href="#linear-gradient"/>
    <linearGradient id="linear-gradient-8" x1="-68.6" y1="-59.714" x2="-68.6" y2="-59.719" xlink:href="#linear-gradient"/>
    <linearGradient id="linear-gradient-9" x1="-73.7" y1="-63.461" x2="-73.7" y2="-63.466" xlink:href="#linear-gradient"/>
  </defs>
  <g id="Grupo_63417" data-name="Grupo 63417" transform="translate(-973.083 -16667.5)">
    <g id="Grupo_55724" data-name="Grupo 55724" transform="translate(1079.068 15717.754)">
      <line id="Línea_1634" data-name="Línea 1634" y2="89.301" transform="translate(-43.118 1014.87)" fill="none" stroke="#00223d" stroke-miterlimit="10" stroke-width="1" stroke-dasharray="6 6"/>
      <line id="Línea_1635" data-name="Línea 1635" y2="89.301" transform="translate(-58.731 1114.547)" fill="none" stroke="#00223d" stroke-miterlimit="10" stroke-width="1" stroke-dasharray="6 6"/>
      <line id="Línea_1636" data-name="Línea 1636" y2="89.301" transform="translate(118.431 1114.547)" fill="none" stroke="#00223d" stroke-miterlimit="10" stroke-width="1" stroke-dasharray="6 6"/>
      <line id="Línea_1637" data-name="Línea 1637" y2="89.301" transform="translate(98.998 1014.87)" fill="none" stroke="#00223d" stroke-miterlimit="10" stroke-width="1" stroke-dasharray="6 6"/>
      <rect id="Rectángulo_31146" data-name="Rectángulo 31146" width="259.569" height="27.262" rx="13.631" transform="translate(-103.17 1097.355)" fill="#80eb9a"/>
      <g id="Grupo_55723" data-name="Grupo 55723">
        <g id="Grupo_55712" data-name="Grupo 55712">
          <g id="Grupo_55711" data-name="Grupo 55711" style="isolation: isolate">
            <g id="Grupo_55709" data-name="Grupo 55709">
              <path id="Trazado_118826" data-name="Trazado 118826" d="M-32.628,1039.649l6.633-3.855,0,1.277-6.633,3.855Z" fill="#fff"/>
            </g>
            <path id="Trazado_118827" data-name="Trazado 118827" d="M-46.694,1011.688l.176.144q.76.624,1.5,1.306l.173.162q.745.7,1.46,1.458c.04.042.08.083.119.125q.763.815,1.488,1.685l.012.015a41.493,41.493,0,0,1,2.664,3.6c.243.368.472.747.7,1.124.2.318.4.632.588.956.088.151.171.306.257.459.306.541.6,1.085.886,1.637.031.061.063.121.094.181q.507,1.009.959,2.037l.045.105q.438,1.008.817,2.029c.017.045.034.089.05.133q.384,1.044.7,2.094c.013.042.024.083.037.125q.3,1.009.538,2.019c.015.063.03.126.044.19.159.693.3,1.385.406,2.072l.006.035q.165,1.041.249,2.066c.005.057.009.113.014.169.053.684.083,1.363.081,2.032l6.633-3.855q0-.394-.01-.793-.014-.423-.04-.85c-.008-.129-.021-.259-.031-.389,0-.056-.009-.112-.013-.168-.009-.1-.015-.2-.024-.3-.027-.286-.059-.574-.1-.861s-.079-.588-.126-.884l0-.024-.006-.034c-.044-.276-.091-.553-.143-.83q-.087-.457-.187-.917c-.023-.108-.05-.217-.075-.325l-.045-.192c-.032-.135-.061-.269-.094-.4q-.115-.466-.245-.933c-.063-.227-.131-.454-.2-.68l-.036-.126c-.013-.041-.024-.082-.036-.123-.093-.3-.191-.606-.292-.909s-.2-.6-.312-.9c-.02-.055-.042-.109-.062-.164l-.051-.136c-.069-.187-.138-.374-.211-.561q-.167-.428-.343-.854c-.085-.2-.174-.407-.262-.611l-.047-.108-.05-.119q-.189-.426-.387-.848-.217-.467-.449-.928c-.023-.047-.048-.093-.072-.14s-.063-.121-.094-.182c-.125-.245-.249-.491-.379-.734-.162-.3-.335-.6-.5-.9-.087-.154-.171-.31-.26-.463-.035-.06-.066-.122-.1-.182-.153-.261-.324-.512-.483-.77-.233-.378-.463-.757-.707-1.127-.039-.059-.074-.121-.113-.18q-.537-.8-1.108-1.578l-.005-.008h0q-.383-.52-.781-1.026-.324-.411-.656-.811l-.012-.015-.01-.012q-.334-.4-.679-.795t-.684-.758l-.114-.119c-.04-.043-.081-.084-.121-.126-.161-.171-.321-.342-.485-.509q-.366-.373-.741-.733c-.077-.073-.155-.143-.232-.216l-.174-.161c-.122-.114-.243-.23-.366-.341q-.388-.349-.782-.682c-.115-.1-.232-.189-.347-.284l-.177-.144c-.086-.07-.172-.142-.258-.211q-.384-.3-.772-.589c-.187-.137-.376-.269-.564-.4l-.1-.074c-.033-.022-.064-.046-.1-.068q-.371-.255-.747-.494t-.744-.455l-.172-.1-15.353-8.864-6.634,3.855,15.353,8.864c.6.343,1.181.718,1.76,1.118l.1.074C-47.749,1010.864-47.217,1011.266-46.694,1011.688Z" fill="#fff"/>
            <g id="Grupo_55710" data-name="Grupo 55710">
              <path id="Trazado_118828" data-name="Trazado 118828" d="M-50.153,1009.295c9.711,5.606,17.557,19.2,17.525,30.354l0,1.277-32.935-19.015.061-21.48Z" fill="#d3d3d3"/>
            </g>
          </g>
        </g>
        <path id="Trazado_118829" data-name="Trazado 118829" d="M-97.381,1018.3l31.876-17.87,17.216,10.056v2.379c4.106,1.882,13.2,14.98,12.028,25.176-.393.157-31.843,17.882-31.843,17.882Z" fill="#fff"/>
        <path id="Trazado_118830" data-name="Trazado 118830" d="M-71.162,1044.865-39.4,1026.9l.078,6.431L-70.535,1050.9Z" fill="#21587b"/>
        <path id="Trazado_118831" data-name="Trazado 118831" d="M-48.289,1010.487l-36.756,20.5,1.725,1.49,35.03-19.607Z" fill="#e5e5e5"/>
        <path id="Trazado_118832" data-name="Trazado 118832" d="M-105.985,1021.023" fill="#0b0b0b"/>
        <g id="Grupo_55716" data-name="Grupo 55716">
          <g id="Grupo_55715" data-name="Grupo 55715" style="isolation: isolate">
            <g id="Grupo_55713" data-name="Grupo 55713">
              <path id="Trazado_118833" data-name="Trazado 118833" d="M-71.137,1061.374l6.633-3.855,0,1.277-6.633,3.855Z" fill="#fff"/>
            </g>
            <path id="Trazado_118834" data-name="Trazado 118834" d="M-85.2,1033.413l.176.144c.507.415,1.006.852,1.5,1.306l.174.162q.744.7,1.459,1.458c.04.042.08.083.119.125q.764.814,1.488,1.685l.012.015a41.494,41.494,0,0,1,2.664,3.6c.243.368.473.747.7,1.124.2.318.4.632.588.956.088.151.171.306.258.459.305.541.6,1.085.885,1.637.031.061.063.121.094.181q.507,1.01.959,2.037l.045.1q.438,1.008.818,2.029c.016.045.033.089.05.133q.382,1.044.7,2.094c.013.042.024.083.037.125q.3,1.009.538,2.019l.045.19c.158.693.295,1.385.4,2.072l.006.035c.11.693.192,1.383.25,2.066,0,.057.009.113.013.169.053.684.083,1.363.081,2.032l6.634-3.855c0-.263,0-.527-.011-.793-.009-.282-.022-.566-.04-.85-.008-.129-.021-.259-.031-.389,0-.056-.009-.112-.013-.168-.009-.1-.014-.2-.024-.3-.027-.286-.059-.574-.1-.861s-.079-.589-.126-.884l0-.024-.006-.034c-.044-.276-.091-.553-.143-.83-.057-.3-.12-.611-.186-.917-.024-.108-.051-.217-.076-.325l-.045-.192c-.031-.135-.061-.269-.094-.4q-.115-.467-.245-.933c-.063-.227-.131-.454-.2-.68l-.036-.126c-.013-.041-.024-.082-.036-.123q-.14-.454-.292-.909t-.312-.9c-.02-.055-.042-.11-.062-.164s-.034-.091-.051-.136c-.069-.187-.138-.374-.21-.561q-.167-.427-.344-.854c-.085-.2-.173-.407-.262-.611-.016-.036-.031-.072-.047-.109s-.033-.078-.05-.118c-.126-.284-.254-.567-.387-.848q-.217-.467-.449-.928c-.023-.047-.048-.093-.072-.14l-.094-.182c-.125-.245-.249-.491-.379-.734-.162-.3-.335-.6-.5-.9-.087-.154-.17-.31-.26-.463-.035-.06-.066-.122-.1-.182-.154-.261-.325-.512-.484-.77-.233-.378-.463-.757-.707-1.127-.039-.059-.074-.121-.113-.18q-.537-.8-1.108-1.578l0-.008h0q-.384-.521-.782-1.026-.323-.411-.656-.811l-.012-.015-.01-.012q-.334-.4-.679-.8t-.684-.758l-.114-.119-.12-.126c-.162-.171-.322-.342-.485-.509q-.368-.374-.742-.733c-.077-.073-.155-.143-.232-.216l-.174-.161c-.122-.114-.243-.23-.366-.341q-.389-.349-.782-.682c-.115-.1-.231-.189-.347-.284l-.177-.144c-.086-.07-.171-.142-.258-.211q-.384-.3-.772-.589c-.187-.137-.376-.269-.564-.4l-.1-.074c-.033-.022-.064-.046-.1-.068q-.371-.255-.746-.494t-.745-.455l-.172-.1-15.353-8.864-6.633,3.855,15.352,8.864c.6.343,1.182.718,1.76,1.118l.1.074Q-85.988,1032.777-85.2,1033.413Z" fill="#fff"/>
            <g id="Grupo_55714" data-name="Grupo 55714">
              <path id="Trazado_118835" data-name="Trazado 118835" d="M-88.662,1031.02c9.711,5.606,17.557,19.2,17.525,30.354l0,1.277-32.935-19.015.061-21.48Z" fill="#d3d3d3"/>
            </g>
          </g>
        </g>
        <path id="Trazado_118836" data-name="Trazado 118836" d="M-39.32,1033.336-44.732,1030l5.333-3.1Z" fill="#0e0e0e"/>
        <path id="Trazado_118837" data-name="Trazado 118837" d="M-65.908,1048.316l.029.495,14.392-.348L-23.6,1033.63l.039-.51Z" fill="#111"/>
        <path id="Trazado_118838" data-name="Trazado 118838" d="M-39.32,1033.336l-26.588,14.98,14.353-.314,28.078-14.9Z" fill="#00223d"/>
        <path id="Trazado_118839" data-name="Trazado 118839" d="M-96.26,1018.631l10.473,6.113a7.232,7.232,0,0,0,7.172.07l25.461-14.206a2.31,2.31,0,0,0,.018-4.025l-10.791-6.148Z" fill="#00223d"/>
        <g id="Grupo_55719" data-name="Grupo 55719">
          <g id="Grupo_55718" data-name="Grupo 55718" style="isolation: isolate">
            <path id="Trazado_118840" data-name="Trazado 118840" d="M-82.733,1024.149l0,.006a.519.519,0,0,0,.169.148l.418.243a.93.93,0,0,0,.245.094l.038.01a1.432,1.432,0,0,0,.279.031h.011a1.342,1.342,0,0,0,.293-.033l.011,0a1,1,0,0,0,.261-.1l1.556-.9a.405.405,0,0,0,.238-.332v.384a.4.4,0,0,1-.238.331l-1.556.9a1.013,1.013,0,0,1-.114.054c-.031.012-.064.023-.1.033-.016.005-.033.008-.05.012l-.011,0-.023.005a.72.72,0,0,1-.08.014c-.026,0-.053.007-.079.009l-.081,0h-.083c-.031,0-.061,0-.091-.006s-.07-.008-.1-.014l-.043-.011-.038-.009c-.024-.006-.049-.011-.072-.018a.912.912,0,0,1-.173-.076l-.418-.243-.01-.006a.609.609,0,0,1-.1-.073.494.494,0,0,1-.049-.053l-.011-.016,0-.006c0-.009-.012-.017-.016-.025a.31.31,0,0,1-.022-.045.38.38,0,0,1-.013-.045.358.358,0,0,1-.005-.046v-.391A.3.3,0,0,0-82.733,1024.149Z" fill="#d4e7ef"/>
            <g id="Grupo_55717" data-name="Grupo 55717">
              <path id="Trazado_118841" data-name="Trazado 118841" d="M-82.551,1023.648c-.312.18-.32.475-.009.655l.418.243a1.267,1.267,0,0,0,1.138,0l1.556-.9a.349.349,0,0,0,0-.66l-.418-.242a1.239,1.239,0,0,0-1.132,0Z" fill="#dcecf3"/>
            </g>
          </g>
        </g>
        <g id="Grupo_55722" data-name="Grupo 55722">
          <g id="Grupo_55721" data-name="Grupo 55721" style="isolation: isolate">
            <path id="Trazado_118842" data-name="Trazado 118842" d="M-78.983,1022.017l0,.006a.531.531,0,0,0,.169.148l.418.243a.93.93,0,0,0,.245.094l.038.009a1.292,1.292,0,0,0,.279.031h.011a1.417,1.417,0,0,0,.293-.033l.011,0a.967.967,0,0,0,.261-.1l1.556-.9a.4.4,0,0,0,.238-.331v.383a.4.4,0,0,1-.238.332l-1.556.9a.857.857,0,0,1-.114.055c-.031.012-.064.023-.1.033l-.05.012-.011,0-.023.006c-.026.006-.053.01-.08.014s-.053.007-.079.009-.054,0-.081,0h-.084q-.045,0-.09-.006c-.035,0-.07-.008-.1-.015-.014,0-.027-.007-.042-.01l-.038-.009c-.024-.007-.049-.011-.072-.018a.907.907,0,0,1-.173-.077l-.418-.242-.01-.006a.672.672,0,0,1-.1-.073.483.483,0,0,1-.049-.053l-.011-.016,0-.007-.017-.024a.446.446,0,0,1-.021-.045.379.379,0,0,1-.013-.045.25.25,0,0,1-.005-.047v-.39A.3.3,0,0,0-78.983,1022.017Z" fill="#fafcfe"/>
            <g id="Grupo_55720" data-name="Grupo 55720">
              <path id="Trazado_118843" data-name="Trazado 118843" d="M-78.8,1021.515c-.312.181-.32.476-.009.656l.418.243a1.267,1.267,0,0,0,1.138,0l1.556-.9a.348.348,0,0,0,0-.659l-.418-.243a1.242,1.242,0,0,0-1.132,0Z" fill="#fafcfe"/>
            </g>
          </g>
        </g>
        <path id="Trazado_118844" data-name="Trazado 118844" d="M-90.221,1018.356l5.882,3.294,25.607-14.627-5.608-3.49Z" fill="#0d0d0d"/>
        <path id="Trazado_118845" data-name="Trazado 118845" d="M-90.221,1018.356l-5.8-16.078,1.377.672,5.838,16.132Z" fill="#00223d"/>
        <path id="Trazado_118846" data-name="Trazado 118846" d="M-88.809,1019.082l25.558-14.823-5.882-16.117-25.558,14.823Z" fill="#21587b"/>
        <path id="Trazado_118847" data-name="Trazado 118847" d="M-96,1002.273l25.558-14.823,1.309.691-25.558,14.823Z" fill="#00223d"/>
        <path id="Trazado_118848" data-name="Trazado 118848" d="M-63.251,1004.258v5.353l4.52-2.588Z" fill="#0a0a0a"/>
        <path id="Trazado_118849" data-name="Trazado 118849" d="M-77.2,985.18c9.255,4.393,12.235,19.059,12.706,21.1a4.071,4.071,0,0,0,2.353,2.745L-83.476,1021.1a4.071,4.071,0,0,1-2.353-2.745c-.47-2.039-3.451-16.705-12.7-21.1Z" fill="#fff"/>
      </g>
      <path id="Trazado_118850" data-name="Trazado 118850" d="M142.768,1097.355H-89.539a13.671,13.671,0,0,0-13.631,13.631H156.4A13.671,13.671,0,0,0,142.768,1097.355Z" fill="#c6facc" opacity="0.27"/>
      <rect id="Rectángulo_31147" data-name="Rectángulo 31147" width="8.799" height="19.357" rx="4.399" transform="translate(139.816 1100.917)" fill="#fff"/>
      <g id="Group_35152" data-name="Group 35152">
        <path id="Path_86482" data-name="Path 86482" d="M112.86,1069.446l-49.6-28.636a2.288,2.288,0,0,1-1.322-1.88v-2.456c.016-.857.649.631,1.871-.074l28.149-16.251c2.261-1.306,5.682-1.448,7.641-.317l49.6,28.636c.654.378,1.129-1.224,1.3-.716.057.171.021,2.418.024,2.6a3.112,3.112,0,0,1-1.87,2.534L120.5,1069.13C118.24,1070.436,114.819,1070.577,112.86,1069.446Z" fill="#00223d"/>
        <path id="Path_86483" data-name="Path 86483" d="M112.86,1067.035l-49.6-28.636c-1.958-1.131-1.712-3.106.549-4.412l28.149-16.251c2.261-1.306,5.682-1.447,7.641-.317l49.6,28.637c1.959,1.13,1.713,3.1-.549,4.412l-28.147,16.25C118.24,1068.024,114.819,1068.166,112.86,1067.035Z" fill="url(#linear-gradient)"/>
        <path id="Path_86484" data-name="Path 86484" d="M112.86,1069.447c1.959,1.131,5.38.99,7.642-.316v-2.412c-2.262,1.306-5.682,1.447-7.642.317Z" fill="#3f92d1" opacity="0.5" style="isolation: isolate"/>
        <path id="Path_86485" data-name="Path 86485" d="M112.86,1067.035l-49.6-28.636a2.209,2.209,0,0,1-1.311-2.062,1.023,1.023,0,0,0-.011.136v2.456a2.285,2.285,0,0,0,1.323,1.88l49.6,28.637Z" fill="#00223d"/>
        <path id="Path_86486" data-name="Path 86486" d="M148.65,1050.058,120.5,1066.309c-2.262,1.306-5.683,1.447-7.642.317l-49.6-28.636a2.34,2.34,0,0,1-1.307-1.736,2.187,2.187,0,0,0,1.307,2.145l49.6,28.636c1.959,1.131,5.38.99,7.642-.316l28.148-16.251c1.324-.765,1.952-1.758,1.857-2.677A3.34,3.34,0,0,1,148.65,1050.058Z" fill="#fff"/>
        <path id="Path_86487" data-name="Path 86487" d="M101.57,1057.032,83.918,1046.84c-.354-.2-.309-.56.1-.8l6.627-3.825a1.534,1.534,0,0,1,1.379-.057l17.654,10.19c.353.2.308.56-.1.8l-6.628,3.826A1.531,1.531,0,0,1,101.57,1057.032Z" fill="#fff" opacity="0.3" style="isolation: isolate"/>
        <path id="Path_86488" data-name="Path 86488" d="M84.017,1046.463l6.627-3.827a1.531,1.531,0,0,1,1.379-.057l17.652,10.192a.533.533,0,0,1,.163.143.368.368,0,0,0-.08-.516.351.351,0,0,0-.083-.045L92.023,1042.16a1.534,1.534,0,0,0-1.379.058l-6.627,3.826c-.325.188-.415.45-.262.653A.764.764,0,0,1,84.017,1046.463Z" fill="#a8cff0"/>
        <path id="Path_86489" data-name="Path 86489" d="M96.371,1021.1l3.041,1.755a1.548,1.548,0,0,0,1.4,0,.426.426,0,0,0,0-.807l-3.042-1.756a1.542,1.542,0,0,0-1.4,0,.426.426,0,0,0,.006.807Zm5.209,3.007,1.441.83a1.54,1.54,0,0,0,1.4,0,.426.426,0,0,0,0-.806l-1.441-.831a1.548,1.548,0,0,0-1.4,0,.426.426,0,0,0,.005.807Zm3.607,2.083,1.441.832a1.545,1.545,0,0,0,1.4,0,.425.425,0,0,0,0-.806l-1.442-.831a1.543,1.543,0,0,0-1.4,0,.425.425,0,0,0,.005.8Zm3.607,2.083,1.442.83a1.54,1.54,0,0,0,1.4,0,.425.425,0,0,0,0-.805l-1.441-.833a1.543,1.543,0,0,0-1.4,0,.425.425,0,0,0,0,.808Zm3.608,2.083,1.441.83a1.549,1.549,0,0,0,1.4,0,.426.426,0,0,0,0-.807l-1.441-.83a1.549,1.549,0,0,0-1.4,0,.427.427,0,0,0,0,.807Zm3.608,2.082,1.441.833a1.543,1.543,0,0,0,1.4,0,.426.426,0,0,0,0-.807l-1.441-.83a1.549,1.549,0,0,0-1.4,0,.426.426,0,0,0,.005.805Zm3.607,2.083,1.441.832a1.542,1.542,0,0,0,1.4,0,.425.425,0,0,0-.005-.805l-1.441-.833a1.543,1.543,0,0,0-1.4,0,.425.425,0,0,0,0,.806Zm3.608,2.083,1.441.831a1.545,1.545,0,0,0,1.4,0,.425.425,0,0,0,.263-.541.43.43,0,0,0-.268-.265l-1.441-.832a1.542,1.542,0,0,0-1.4,0,.426.426,0,0,0,0,.808Zm3.608,2.083,1.441.83a1.54,1.54,0,0,0,1.4,0,.426.426,0,0,0,0-.806l-1.442-.831a1.543,1.543,0,0,0-1.4,0,.425.425,0,0,0,0,.806Zm3.607,2.083,1.44.832a1.545,1.545,0,0,0,1.4,0,.425.425,0,0,0,0-.806l-1.441-.831a1.545,1.545,0,0,0-1.4,0,.426.426,0,0,0,.005.805Zm3.607,2.083,1.441.83a1.542,1.542,0,0,0,1.4,0c.384-.221.382-.582,0-.806l-1.441-.83a1.54,1.54,0,0,0-1.4,0,.425.425,0,0,0,.005.8Zm3.608,2.083,1.441.83a1.546,1.546,0,0,0,1.4,0,.426.426,0,0,0,0-.807l-1.441-.83a1.542,1.542,0,0,0-1.4,0,.426.426,0,0,0,.005.806Zm3.683,2.126,1.441.832a1.543,1.543,0,0,0,1.4,0,.426.426,0,0,0,0-.806l-1.441-.831a1.545,1.545,0,0,0-1.4,0,.425.425,0,0,0,.005.8Zm-48.212-23.975,1.248.72a1.758,1.758,0,0,0,1.589,0l1.24-.716c.438-.253.435-.663-.005-.918l-1.247-.72a1.757,1.757,0,0,0-1.59,0l-1.239.715a.484.484,0,0,0,0,.917Zm6.445,2.8,1.24-.715a.485.485,0,0,0,0-.918l-1.248-.72a1.758,1.758,0,0,0-1.589,0l-1.24.716a.484.484,0,0,0,.005.917l1.248.721a1.759,1.759,0,0,0,1.589,0Zm.771,1.36,1.247.72a1.755,1.755,0,0,0,1.589,0l1.24-.716a.484.484,0,0,0,0-.918l-1.247-.721a1.755,1.755,0,0,0-1.589,0l-1.24.715c-.438.252-.436.662.005.917Zm3.606,2.083,1.248.721a1.757,1.757,0,0,0,1.59,0l1.24-.715a.485.485,0,0,0,0-.918l-1.248-.72a1.755,1.755,0,0,0-1.589,0l-1.24.716c-.437.25-.435.662,0,.917Zm7.681,1.173-1.248-.72a1.755,1.755,0,0,0-1.589,0l-1.24.716a.485.485,0,0,0,0,.918l1.248.72a1.754,1.754,0,0,0,1.59,0l1.239-.716a.485.485,0,0,0-.005-.919Zm3.607,2.082-1.247-.72a1.76,1.76,0,0,0-1.59,0l-1.24.716a.485.485,0,0,0,.005.918l1.248.72a1.752,1.752,0,0,0,1.589,0l1.24-.716a.485.485,0,0,0,0-.919Zm3.608,2.083-1.247-.72a1.76,1.76,0,0,0-1.59,0l-1.24.716a.484.484,0,0,0,.005.917l1.247.721a1.76,1.76,0,0,0,1.59,0l1.24-.716a.486.486,0,0,0,0-.92Zm3.607,2.083-1.247-.72a1.755,1.755,0,0,0-1.589,0l-1.24.716a.485.485,0,0,0,0,.918l1.248.72a1.758,1.758,0,0,0,1.589,0l1.24-.716a.486.486,0,0,0-.005-.92Zm3.608,2.083-1.248-.72a1.76,1.76,0,0,0-1.59,0l-1.239.716a.484.484,0,0,0,0,.917l1.248.721a1.755,1.755,0,0,0,1.589,0l1.24-.715a.485.485,0,0,0-.005-.919Zm3.607,2.083-1.247-.72a1.754,1.754,0,0,0-1.59,0l-1.24.716a.484.484,0,0,0,.005.917l1.248.72a1.755,1.755,0,0,0,1.589,0l1.24-.716a.486.486,0,0,0-.005-.92Zm-.464,2.993,1.248.72a1.752,1.752,0,0,0,1.589,0l1.24-.715a.485.485,0,0,0-.005-.918l-1.248-.72a1.752,1.752,0,0,0-1.589,0l-1.24.716c-.437.25-.435.661,0,.915Zm7.68,1.173-1.247-.721a1.757,1.757,0,0,0-1.59,0l-1.24.716a.485.485,0,0,0,.005.918l1.248.72a1.758,1.758,0,0,0,1.589,0l1.24-.716a.486.486,0,0,0-.006-.919Zm5.284,3.05-2.849-1.645a1.759,1.759,0,0,0-1.589,0l-1.24.716a.484.484,0,0,0,0,.917l2.848,1.645a1.754,1.754,0,0,0,1.59,0l1.24-.716a.485.485,0,0,0-.006-.919Zm-52.378-23.122,2.848,1.645a1.76,1.76,0,0,0,1.59,0l1.239-.716a.484.484,0,0,0,0-.918l-2.848-1.645a1.758,1.758,0,0,0-1.589,0l-1.24.716a.483.483,0,0,0,0,.916ZM95,1028.022l1.248.72a1.752,1.752,0,0,0,1.589,0l1.24-.716a.484.484,0,0,0,0-.917l-1.247-.72a1.757,1.757,0,0,0-1.59,0l-1.24.716a.483.483,0,0,0,0,.916Zm4.855,2.8a1.754,1.754,0,0,0,1.59,0l1.24-.716a.484.484,0,0,0,0-.917l-1.247-.72a1.754,1.754,0,0,0-1.59,0l-1.24.716a.484.484,0,0,0,0,.917Zm3.608,2.083a1.757,1.757,0,0,0,1.59,0l1.239-.716a.485.485,0,0,0-.005-.918l-1.247-.721a1.76,1.76,0,0,0-1.59,0l-1.24.716a.485.485,0,0,0,0,.918Zm3.6-.271-1.242.715a.484.484,0,0,0,.005.917l1.248.721a1.758,1.758,0,0,0,1.589,0l1.239-.716a.484.484,0,0,0,0-.917l-1.248-.721a1.754,1.754,0,0,0-1.59,0Zm3.683,2.039-1.392.8a.438.438,0,0,0,0,.83l1.4.809a1.586,1.586,0,0,0,1.437,0l1.392-.8a.438.438,0,0,0,0-.83l-1.4-.809a1.59,1.59,0,0,0-1.439,0Zm3.608,2.083-1.392.8a.437.437,0,0,0,0,.83l1.4.808a1.586,1.586,0,0,0,1.436,0l1.393-.8a.438.438,0,0,0,0-.83l-1.4-.808a1.587,1.587,0,0,0-1.439,0Zm3.608,2.083-1.393.8a.438.438,0,0,0,.005.83l1.4.809a1.584,1.584,0,0,0,1.436,0l1.393-.8a.438.438,0,0,0,.273-.555.433.433,0,0,0-.278-.275l-1.4-.81a1.59,1.59,0,0,0-1.439,0Zm3.607,2.083-1.392.8a.437.437,0,0,0,0,.83l1.4.808a1.587,1.587,0,0,0,1.436,0l1.393-.8a.438.438,0,0,0,.273-.555.433.433,0,0,0-.278-.275l-1.4-.81a1.592,1.592,0,0,0-1.44,0Zm3.608,2.083-1.393.8a.439.439,0,0,0,0,.831l1.4.808a1.587,1.587,0,0,0,1.436,0l1.393-.8a.438.438,0,0,0,0-.83l-1.4-.809a1.589,1.589,0,0,0-1.44,0Zm5.057,4.527,1.392-.8a.438.438,0,0,0-.005-.83l-1.4-.809a1.586,1.586,0,0,0-1.437,0l-1.392.8a.437.437,0,0,0,0,.83l1.4.809a1.586,1.586,0,0,0,1.433,0Zm3.607,2.082,1.393-.8a.438.438,0,0,0,.273-.555.433.433,0,0,0-.278-.275l-1.4-.81a1.592,1.592,0,0,0-1.437,0l-1.391.8a.437.437,0,0,0,0,.83l1.4.809a1.585,1.585,0,0,0,1.434,0Zm5.071.493-1.4-.808a1.587,1.587,0,0,0-1.436,0l-1.393.8a.437.437,0,0,0,0,.83l1.4.809a1.584,1.584,0,0,0,1.436,0l1.392-.8a.438.438,0,0,0-.007-.832ZM86.37,1026.9l4.523,2.612a1.59,1.59,0,0,0,1.436,0l1.393-.8a.437.437,0,0,0,0-.83l-4.523-2.612a1.587,1.587,0,0,0-1.436,0l-1.392.8a.438.438,0,0,0,0,.829Zm6.729,3.886,1.4.808a1.589,1.589,0,0,0,1.437,0l1.392-.8a.439.439,0,0,0-.005-.831l-1.4-.808a1.588,1.588,0,0,0-1.437,0l-1.392.8a.438.438,0,0,0,0,.829Zm3.608,2.083,1.4.808a1.587,1.587,0,0,0,1.436,0l1.392-.8a.438.438,0,0,0,0-.83l-1.4-.809a1.584,1.584,0,0,0-1.436,0l-1.392.8a.438.438,0,0,0,0,.829Zm3.608,2.082,1.4.809a1.587,1.587,0,0,0,1.436,0l1.393-.8a.437.437,0,0,0,0-.83l-1.4-.81a1.584,1.584,0,0,0-1.436,0l-1.392.8a.438.438,0,0,0,0,.829Zm6.444,2.9,1.393-.8a.438.438,0,0,0,0-.831l-1.4-.809a1.59,1.59,0,0,0-1.436,0l-1.393.8a.438.438,0,0,0,0,.83l1.4.809a1.589,1.589,0,0,0,1.434,0Zm3.608,2.083,1.393-.8a.438.438,0,0,0-.005-.83l-1.4-.809a1.589,1.589,0,0,0-1.437,0l-1.392.8a.437.437,0,0,0,0,.83l1.4.809a1.587,1.587,0,0,0,1.433,0Zm3.608,2.082,1.392-.8a.438.438,0,0,0,0-.831l-1.4-.808a1.589,1.589,0,0,0-1.437,0l-1.392.8a.437.437,0,0,0,0,.83l1.4.808a1.587,1.587,0,0,0,1.433,0Zm3.607,2.083,1.393-.8a.438.438,0,0,0,0-.83l-1.4-.809a1.589,1.589,0,0,0-1.437,0l-1.392.8a.438.438,0,0,0,.005.831l1.4.809a1.592,1.592,0,0,0,1.434,0Zm3.608,2.083,1.392-.8a.437.437,0,0,0,0-.83l-1.4-.809a1.589,1.589,0,0,0-1.437,0l-1.392.8a.437.437,0,0,0,0,.83l1.4.809a1.587,1.587,0,0,0,1.433,0Zm3.607,2.083,1.392-.8a.438.438,0,0,0,0-.83l-1.4-.809a1.592,1.592,0,0,0-1.437,0l-1.391.8a.438.438,0,0,0,0,.831l1.4.808a1.583,1.583,0,0,0,1.433,0Zm.77,1.271,1.4.809a1.589,1.589,0,0,0,1.437,0l1.392-.8a.438.438,0,0,0,0-.83l-1.4-.809a1.588,1.588,0,0,0-1.437,0l-1.392.805a.437.437,0,0,0,0,.826Zm9.994,2.51L132,1049.982a1.59,1.59,0,0,0-1.436,0l-1.393.8a.438.438,0,0,0,0,.83l3.563,2.058a1.59,1.59,0,0,0,1.436,0l1.392-.807a.438.438,0,0,0-.006-.829Zm-52.519-23.11,6.418,3.7a1.792,1.792,0,0,0,1.623,0l1.206-.7a.494.494,0,0,0,0-.936l-6.418-3.706a1.792,1.792,0,0,0-1.623,0l-1.207.7c-.449.255-.447.673,0,.934Zm8.812,5.085,1.213.7a1.792,1.792,0,0,0,1.623,0l1.207-.7a.494.494,0,0,0-.005-.936l-1.214-.7a1.8,1.8,0,0,0-1.623,0l-1.207.7c-.449.258-.447.676,0,.936Zm3.607,2.083,1.214.7a1.8,1.8,0,0,0,1.623,0l1.207-.7a.5.5,0,0,0,0-.937l-1.214-.7a1.792,1.792,0,0,0-1.623,0l-1.207.7a.494.494,0,0,0,0,.936Zm3.605,2.082,1.214.7a1.792,1.792,0,0,0,1.623,0l1.207-.7a.5.5,0,0,0,0-.937l-1.214-.7a1.792,1.792,0,0,0-1.623,0l-1.207.7A.494.494,0,0,0,99.066,1038.18Zm3.608,2.083,1.214.7a1.792,1.792,0,0,0,1.623,0l1.207-.7a.494.494,0,0,0-.005-.936l-1.215-.7a1.8,1.8,0,0,0-1.623,0l-1.206.7c-.447.256-.445.676,0,.936Zm3.607,2.083,1.215.7a1.792,1.792,0,0,0,1.623,0l1.206-.7a.494.494,0,0,0,0-.937l-1.214-.7a1.789,1.789,0,0,0-1.623,0l-1.207.7c-.447.257-.444.677,0,.937Zm3.608,2.083,1.214.7a1.793,1.793,0,0,0,1.622,0l1.207-.7a.5.5,0,0,0,0-.937l-1.214-.7a1.79,1.79,0,0,0-1.622,0l-1.207.7c-.448.258-.445.677,0,.936Zm3.608,2.082,1.213.7a1.792,1.792,0,0,0,1.623,0l1.207-.7a.494.494,0,0,0,0-.936l-1.214-.7a1.8,1.8,0,0,0-1.623,0l-1.207.7a.5.5,0,0,0,.005.938Zm3.607,2.084,1.214.7a1.792,1.792,0,0,0,1.623,0l1.206-.7a.5.5,0,0,0,0-.937l-1.215-.7a1.792,1.792,0,0,0-1.623,0l-1.206.7a.493.493,0,0,0,0,.935Zm3.607,2.082,1.215.7a1.793,1.793,0,0,0,1.622,0l1.207-.7a.494.494,0,0,0,0-.936l-1.214-.7a1.8,1.8,0,0,0-1.623,0l-1.207.7c-.447.257-.445.677,0,.937Zm3.608,2.083,1.214.7a1.792,1.792,0,0,0,1.623,0l1.207-.7a.5.5,0,0,0-.005-.937l-1.214-.7a1.8,1.8,0,0,0-1.623,0l-1.207.7a.494.494,0,0,0,0,.936Zm7.726,1.2-1.214-.7a1.8,1.8,0,0,0-1.623,0l-1.206.7a.5.5,0,0,0,0,.937l1.214.7a1.792,1.792,0,0,0,1.623,0l1.207-.7a.494.494,0,0,0-.006-.937Zm-46.707-23.108-2.815-1.626a1.792,1.792,0,0,0-1.623,0l-1.207.7a.5.5,0,0,0,0,.937l2.815,1.626a1.8,1.8,0,0,0,1.623,0l1.207-.7A.5.5,0,0,0,85.338,1030.851Zm3.607,2.083-1.214-.7a1.792,1.792,0,0,0-1.623,0l-1.207.7a.5.5,0,0,0,.006.937l1.214.7a1.793,1.793,0,0,0,1.622,0l1.207-.7A.494.494,0,0,0,88.945,1032.934Zm3.608,2.083-1.214-.7a1.792,1.792,0,0,0-1.623,0l-1.207.7a.5.5,0,0,0,0,.937l1.214.7a1.8,1.8,0,0,0,1.623,0l1.207-.7a.5.5,0,0,0,0-.937Zm25.253,14.579-22.86-13.2a1.792,1.792,0,0,0-1.623,0l-1.206.7a.5.5,0,0,0,.005.937l22.858,13.2a1.8,1.8,0,0,0,1.623,0l1.207-.7A.5.5,0,0,0,117.806,1049.6Zm3.607,2.084-1.214-.7a1.792,1.792,0,0,0-1.623,0l-1.206.7a.5.5,0,0,0,0,.937l1.215.7a1.792,1.792,0,0,0,1.623,0l1.206-.7a.5.5,0,0,0,0-.938Zm3.607,2.082-1.213-.7a1.792,1.792,0,0,0-1.623,0l-1.207.7c-.447.258-.444.677.005.937l1.214.7a1.792,1.792,0,0,0,1.623,0l1.206-.7a.494.494,0,0,0-.005-.937Zm3.683,2.126-1.214-.7a1.8,1.8,0,0,0-1.623,0l-1.207.7a.5.5,0,0,0,.005.937l1.214.7a1.8,1.8,0,0,0,1.623,0l1.206-.7a.494.494,0,0,0,0-.937Z" fill="#72b5e8"/>
        <path id="Path_86490" data-name="Path 86490" d="M96.371,1020.763l3.041,1.757a1.542,1.542,0,0,0,1.4,0,.425.425,0,0,0,0-.806l-3.042-1.757a1.545,1.545,0,0,0-1.4,0,.426.426,0,0,0,.006.8Zm5.209,3.007,1.441.832a1.543,1.543,0,0,0,1.4,0,.426.426,0,0,0,0-.806l-1.441-.831a1.545,1.545,0,0,0-1.4,0,.425.425,0,0,0,.005.8Zm3.607,2.083,1.441.83a1.542,1.542,0,0,0,1.4,0,.425.425,0,0,0,0-.805l-1.442-.833a1.543,1.543,0,0,0-1.4,0,.427.427,0,0,0,.005.808Zm3.607,2.083,1.442.83a1.546,1.546,0,0,0,1.4,0,.426.426,0,0,0,0-.807l-1.441-.832a1.54,1.54,0,0,0-1.4,0,.425.425,0,0,0,0,.808Zm3.608,2.082,1.441.831a1.545,1.545,0,0,0,1.4,0,.425.425,0,0,0,0-.806l-1.441-.83a1.542,1.542,0,0,0-1.4,0,.426.426,0,0,0,0,.806Zm3.608,2.083,1.441.833a1.545,1.545,0,0,0,1.4,0,.426.426,0,0,0,0-.807l-1.441-.83a1.545,1.545,0,0,0-1.4,0,.425.425,0,0,0,.005.8Zm3.607,2.083,1.441.831a1.545,1.545,0,0,0,1.4,0,.425.425,0,0,0-.005-.806l-1.441-.832a1.537,1.537,0,0,0-1.4,0,.425.425,0,0,0,0,.807Zm3.608,2.083,1.441.83a1.542,1.542,0,0,0,1.4,0,.425.425,0,0,0-.005-.806l-1.441-.831a1.542,1.542,0,0,0-1.4,0,.425.425,0,0,0,0,.806Zm3.608,2.083,1.441.83a1.546,1.546,0,0,0,1.4,0,.427.427,0,0,0,0-.807l-1.442-.83a1.546,1.546,0,0,0-1.4,0,.426.426,0,0,0,0,.807Zm3.607,2.082,1.44.833a1.545,1.545,0,0,0,1.4,0,.426.426,0,0,0,0-.807l-1.441-.83a1.545,1.545,0,0,0-1.4,0,.425.425,0,0,0,.005.8Zm3.607,2.084,1.441.83a1.545,1.545,0,0,0,1.4,0,.425.425,0,0,0,0-.806l-1.441-.832a1.543,1.543,0,0,0-1.4,0,.426.426,0,0,0,.005.809Zm3.608,2.082,1.441.831a1.543,1.543,0,0,0,1.4,0,.425.425,0,0,0,.264-.541.43.43,0,0,0-.268-.265l-1.441-.83a1.542,1.542,0,0,0-1.4,0,.426.426,0,0,0,.005.806Zm3.683,2.127,1.441.83a1.543,1.543,0,0,0,1.4,0,.426.426,0,0,0,0-.806l-1.441-.832a1.545,1.545,0,0,0-1.4,0,.425.425,0,0,0,.005.807ZM93.126,1022.75l1.248.72a1.758,1.758,0,0,0,1.589,0l1.24-.716a.484.484,0,0,0-.005-.917l-1.247-.721a1.76,1.76,0,0,0-1.59,0l-1.239.716c-.438.251-.436.662,0,.916Zm6.445,2.805,1.24-.715a.485.485,0,0,0,0-.918l-1.248-.72a1.758,1.758,0,0,0-1.589,0l-1.24.716a.484.484,0,0,0,.005.917l1.248.721a1.752,1.752,0,0,0,1.589,0Zm.771,1.36,1.247.721a1.755,1.755,0,0,0,1.589,0l1.24-.715a.485.485,0,0,0,0-.919l-1.247-.72a1.758,1.758,0,0,0-1.589,0l-1.24.716c-.438.251-.436.662.005.917Zm3.606,2.083,1.248.721a1.757,1.757,0,0,0,1.59,0l1.24-.715a.485.485,0,0,0,0-.918l-1.248-.72a1.755,1.755,0,0,0-1.589,0l-1.24.716a.483.483,0,0,0,0,.916Zm7.681,1.173-1.248-.72a1.752,1.752,0,0,0-1.589,0l-1.24.716a.484.484,0,0,0,0,.917l1.248.72a1.754,1.754,0,0,0,1.59,0l1.239-.716a.485.485,0,0,0-.005-.919Zm3.607,2.083-1.247-.721a1.76,1.76,0,0,0-1.59,0l-1.24.716a.485.485,0,0,0,.005.918l1.248.72a1.755,1.755,0,0,0,1.589,0l1.24-.716a.487.487,0,0,0,0-.921Zm3.608,2.083-1.247-.721a1.76,1.76,0,0,0-1.59,0l-1.24.716a.484.484,0,0,0,.005.918l1.247.72a1.754,1.754,0,0,0,1.59,0l1.24-.716a.486.486,0,0,0,0-.92Zm3.607,2.083-1.247-.721a1.758,1.758,0,0,0-1.589,0l-1.24.716a.485.485,0,0,0,0,.918l1.248.72a1.758,1.758,0,0,0,1.589,0l1.24-.716a.486.486,0,0,0-.005-.92Zm3.608,2.082-1.248-.72a1.76,1.76,0,0,0-1.59,0l-1.239.716a.484.484,0,0,0,0,.917l1.248.721a1.759,1.759,0,0,0,1.589,0l1.24-.716a.486.486,0,0,0-.005-.92Zm3.607,2.083-1.247-.72a1.754,1.754,0,0,0-1.59,0l-1.24.716a.484.484,0,0,0,.005.917l1.248.72a1.755,1.755,0,0,0,1.589,0l1.24-.716a.487.487,0,0,0-.005-.921Zm-.464,2.993,1.248.72a1.752,1.752,0,0,0,1.589,0l1.24-.716a.484.484,0,0,0-.005-.917l-1.248-.721a1.755,1.755,0,0,0-1.589,0l-1.24.715c-.437.251-.435.662,0,.916Zm7.68,1.173-1.247-.721a1.76,1.76,0,0,0-1.59,0l-1.24.716a.485.485,0,0,0,.005.918l1.248.72a1.758,1.758,0,0,0,1.589,0l1.24-.716a.486.486,0,0,0-.006-.919Zm5.284,3.05-2.849-1.645a1.758,1.758,0,0,0-1.589,0l-1.24.716a.484.484,0,0,0,0,.917l2.848,1.645a1.754,1.754,0,0,0,1.59,0l1.24-.716a.486.486,0,0,0-.006-.919Zm-52.378-23.122,2.848,1.645a1.76,1.76,0,0,0,1.59,0l1.239-.716a.484.484,0,0,0,0-.918l-2.848-1.645a1.755,1.755,0,0,0-1.589,0l-1.24.715a.483.483,0,0,0,0,.916ZM95,1027.686l1.248.72a1.752,1.752,0,0,0,1.589,0l1.24-.716a.484.484,0,0,0,0-.917l-1.247-.72a1.757,1.757,0,0,0-1.59,0l-1.24.716a.483.483,0,0,0,0,.916Zm4.855,2.8a1.754,1.754,0,0,0,1.59,0l1.24-.716a.484.484,0,0,0,0-.917l-1.247-.72a1.754,1.754,0,0,0-1.59,0l-1.24.716a.484.484,0,0,0,0,.917Zm3.608,2.083a1.757,1.757,0,0,0,1.59,0l1.239-.716a.485.485,0,0,0-.005-.918l-1.247-.721a1.757,1.757,0,0,0-1.59,0l-1.24.715a.485.485,0,0,0,0,.918Zm3.6-.271-1.242.715a.485.485,0,0,0,.005.918l1.248.72a1.758,1.758,0,0,0,1.589,0l1.239-.716a.484.484,0,0,0,0-.917l-1.248-.721a1.757,1.757,0,0,0-1.59,0Zm3.683,2.039-1.392.8a.438.438,0,0,0,0,.83l1.4.809a1.589,1.589,0,0,0,1.437,0l1.392-.8a.438.438,0,0,0,0-.83l-1.4-.809a1.587,1.587,0,0,0-1.439,0Zm3.608,2.083-1.392.8a.438.438,0,0,0,0,.83l1.4.808a1.587,1.587,0,0,0,1.436,0l1.393-.8a.439.439,0,0,0,0-.831l-1.4-.808a1.587,1.587,0,0,0-1.439,0Zm3.608,2.083-1.393.8a.438.438,0,0,0,.005.83l1.4.809a1.587,1.587,0,0,0,1.436,0l1.393-.8a.438.438,0,0,0,.273-.555.433.433,0,0,0-.278-.275l-1.4-.81a1.587,1.587,0,0,0-1.439,0Zm3.607,2.083-1.392.8a.437.437,0,0,0,0,.83l1.4.809a1.587,1.587,0,0,0,1.436,0l1.393-.8a.438.438,0,0,0,0-.831l-1.4-.809a1.592,1.592,0,0,0-1.44,0Zm3.608,2.083-1.393.8a.439.439,0,0,0,0,.831l1.4.808a1.587,1.587,0,0,0,1.436,0l1.393-.8a.438.438,0,0,0,0-.83l-1.4-.809a1.589,1.589,0,0,0-1.44,0Zm5.057,4.527,1.392-.8a.438.438,0,0,0-.005-.83l-1.4-.809a1.589,1.589,0,0,0-1.437,0l-1.392.8a.438.438,0,0,0,0,.831l1.4.808a1.587,1.587,0,0,0,1.433,0Zm3.607,2.083,1.393-.8a.438.438,0,0,0,.273-.555.433.433,0,0,0-.278-.275l-1.4-.81a1.592,1.592,0,0,0-1.437,0l-1.391.8a.437.437,0,0,0,0,.83l1.4.809a1.586,1.586,0,0,0,1.434,0Zm5.071.493-1.4-.809a1.587,1.587,0,0,0-1.436,0l-1.393.8a.437.437,0,0,0,0,.83l1.4.809a1.584,1.584,0,0,0,1.436,0l1.392-.8a.438.438,0,0,0-.007-.832ZM86.37,1026.563l4.523,2.612a1.587,1.587,0,0,0,1.436,0l1.393-.8a.437.437,0,0,0,0-.83l-4.523-2.612a1.59,1.59,0,0,0-1.436,0l-1.392.8a.437.437,0,0,0,0,.828Zm6.729,3.886,1.4.809a1.592,1.592,0,0,0,1.437,0l1.392-.8a.439.439,0,0,0-.005-.831l-1.4-.809a1.587,1.587,0,0,0-1.436,0l-1.393.8a.437.437,0,0,0,0,.829Zm3.608,2.083,1.4.808a1.587,1.587,0,0,0,1.436,0l1.392-.8a.438.438,0,0,0,0-.83l-1.4-.809a1.59,1.59,0,0,0-1.436,0l-1.392.8a.438.438,0,0,0,0,.828Zm3.608,2.082,1.4.81a1.59,1.59,0,0,0,1.436,0l1.393-.8a.437.437,0,0,0,0-.83l-1.4-.81a1.583,1.583,0,0,0-1.436,0l-1.392.8a.438.438,0,0,0,0,.829Zm6.444,2.9,1.393-.8a.438.438,0,0,0,0-.831l-1.4-.808a1.587,1.587,0,0,0-1.436,0l-1.393.8a.438.438,0,0,0,0,.83l1.4.809a1.589,1.589,0,0,0,1.434,0Zm3.608,2.083,1.393-.8a.438.438,0,0,0-.005-.83l-1.4-.809a1.588,1.588,0,0,0-1.437,0l-1.392.8a.438.438,0,0,0,0,.83l1.4.809a1.586,1.586,0,0,0,1.433,0Zm3.608,2.082,1.392-.8a.438.438,0,0,0,0-.831l-1.4-.808a1.588,1.588,0,0,0-1.437,0l-1.392.8a.438.438,0,0,0,0,.831l1.4.808a1.589,1.589,0,0,0,1.433,0Zm3.607,2.084,1.393-.805a.438.438,0,0,0,0-.83l-1.4-.809a1.586,1.586,0,0,0-1.437,0l-1.392.8a.438.438,0,0,0,.005.831l1.4.809a1.592,1.592,0,0,0,1.434,0Zm3.608,2.082,1.392-.8a.437.437,0,0,0,0-.83l-1.4-.809a1.589,1.589,0,0,0-1.437,0l-1.392.8a.438.438,0,0,0,0,.83l1.4.809a1.587,1.587,0,0,0,1.433,0Zm3.607,2.083,1.39-.8a.438.438,0,0,0,0-.83l-1.4-.809a1.587,1.587,0,0,0-1.436,0l-1.392.8a.438.438,0,0,0,0,.83l1.4.809a1.586,1.586,0,0,0,1.436,0Zm.767,1.271,1.4.808a1.588,1.588,0,0,0,1.437,0l1.392-.8a.437.437,0,0,0,0-.83l-1.4-.809a1.589,1.589,0,0,0-1.437,0l-1.392.8a.438.438,0,0,0,0,.831Zm10,2.509-3.564-2.057a1.587,1.587,0,0,0-1.436,0l-1.393.8a.438.438,0,0,0,.005.831l3.563,2.057a1.589,1.589,0,0,0,1.437,0l1.394-.806a.438.438,0,0,0-.006-.829Zm-52.52-23.11,6.419,3.706a1.793,1.793,0,0,0,1.622,0l1.207-.7a.5.5,0,0,0-.005-.937l-6.418-3.706a1.8,1.8,0,0,0-1.623,0l-1.206.7a.493.493,0,0,0,0,.935Zm8.812,5.086,1.214.7a1.792,1.792,0,0,0,1.623,0l1.206-.7a.494.494,0,0,0,0-.937l-1.214-.7a1.792,1.792,0,0,0-1.623,0l-1.207.7c-.446.257-.444.676.006.936Zm3.607,2.082,1.214.7a1.8,1.8,0,0,0,1.623,0l1.207-.7a.494.494,0,0,0,0-.936l-1.214-.7a1.792,1.792,0,0,0-1.623,0l-1.207.7a.5.5,0,0,0,0,.937Zm3.608,2.083,1.214.7a1.792,1.792,0,0,0,1.623,0l1.207-.7a.494.494,0,0,0,0-.936l-1.215-.7a1.8,1.8,0,0,0-1.623,0l-1.206.7a.494.494,0,0,0,.005.936Zm3.607,2.083,1.215.7a1.792,1.792,0,0,0,1.623,0l1.206-.7a.494.494,0,0,0-.005-.937l-1.214-.7a1.8,1.8,0,0,0-1.623,0l-1.207.7a.5.5,0,0,0,0,.937Zm3.608,2.083,1.214.7a1.792,1.792,0,0,0,1.623,0l1.207-.7a.5.5,0,0,0-.006-.937l-1.213-.7a1.8,1.8,0,0,0-1.623,0l-1.207.7c-.447.257-.444.676,0,.936Zm3.608,2.083,1.214.7a1.8,1.8,0,0,0,1.622,0l1.207-.7a.494.494,0,0,0,0-.936l-1.214-.7a1.792,1.792,0,0,0-1.623,0l-1.206.7c-.448.258-.445.676,0,.937Zm3.607,2.083,1.214.7a1.8,1.8,0,0,0,1.623,0l1.207-.7a.494.494,0,0,0,0-.937l-1.214-.7a1.792,1.792,0,0,0-1.623,0l-1.207.7c-.448.257-.445.676.005.936Zm3.607,2.083,1.215.7a1.793,1.793,0,0,0,1.622,0l1.207-.7a.494.494,0,0,0-.005-.937l-1.214-.7a1.792,1.792,0,0,0-1.623,0l-1.207.7c-.446.256-.444.676,0,.936Zm3.608,2.082,1.214.7a1.8,1.8,0,0,0,1.623,0l1.207-.7a.5.5,0,0,0,0-.937l-1.214-.7a1.792,1.792,0,0,0-1.623,0l-1.207.7c-.447.257-.445.676,0,.936Zm3.608,2.083,1.213.7a1.792,1.792,0,0,0,1.623,0l1.206-.7a.5.5,0,0,0,0-.937l-1.215-.7a1.792,1.792,0,0,0-1.623,0l-1.206.7a.5.5,0,0,0,.006.937Zm7.725,1.2-1.214-.7a1.793,1.793,0,0,0-1.622,0l-1.207.7a.494.494,0,0,0,0,.937l1.214.7a1.792,1.792,0,0,0,1.623,0l1.206-.7c.448-.258.445-.678,0-.938Zm-46.706-23.108-2.815-1.626a1.792,1.792,0,0,0-1.623,0l-1.207.7a.5.5,0,0,0,0,.937l2.815,1.626a1.792,1.792,0,0,0,1.623,0l1.207-.7A.5.5,0,0,0,85.338,1030.515Zm3.607,2.082-1.214-.7a1.792,1.792,0,0,0-1.623,0l-1.207.7a.5.5,0,0,0,.006.937l1.214.7a1.793,1.793,0,0,0,1.622,0l1.207-.7c.447-.257.445-.677,0-.937Zm3.608,2.084-1.214-.7a1.792,1.792,0,0,0-1.623,0l-1.207.7a.5.5,0,0,0,0,.937l1.214.7a1.792,1.792,0,0,0,1.623,0l1.207-.7a.5.5,0,0,0,0-.938Zm25.253,14.579-22.86-13.2a1.792,1.792,0,0,0-1.623,0l-1.206.7a.5.5,0,0,0,.005.937l22.858,13.2a1.792,1.792,0,0,0,1.623,0l1.207-.7c.447-.256.445-.675,0-.935Zm3.607,2.083-1.214-.7a1.792,1.792,0,0,0-1.623,0l-1.206.7a.494.494,0,0,0,0,.936l1.215.7a1.8,1.8,0,0,0,1.623,0l1.206-.7a.494.494,0,0,0,0-.937Zm3.607,2.083-1.213-.7a1.8,1.8,0,0,0-1.623,0l-1.207.7a.494.494,0,0,0,.005.936l1.214.7a1.792,1.792,0,0,0,1.623,0l1.206-.7a.494.494,0,0,0-.005-.937Zm3.683,2.126-1.214-.7a1.792,1.792,0,0,0-1.623,0l-1.207.7a.5.5,0,0,0,.005.937l1.214.7a1.8,1.8,0,0,0,1.623,0l1.207-.7a.494.494,0,0,0,0-.937Z" fill="#00223d"/>
        <g id="Group_35151" data-name="Group 35151">
          <path id="Path_86491" data-name="Path 86491" d="M148.413,1045.674l-47.789-27.607a8.023,8.023,0,0,1-3.35-6.4v-37.49c0-2.467,1.5-3.6,3.35-2.533l47.789,27.608a8.023,8.023,0,0,1,3.35,6.4v37.489C151.763,1045.609,150.263,1046.743,148.413,1045.674Z" fill="url(#linear-gradient-2)"/>
          <path id="Path_86492" data-name="Path 86492" d="M148.844,1043.748l-47.278-27.31a5.7,5.7,0,0,1-2.41-4.772V974a.594.594,0,0,1,.894-.512l.1.061,47.317,27.336a5.154,5.154,0,0,1,2.41,4.773v37.582a.64.64,0,0,1-.959.556Z" fill="url(#linear-gradient-3)"/>
          <path id="Path_86493" data-name="Path 86493" d="M147.472,1000.881l-47.317-27.335-.1-.061a.593.593,0,0,0-.894.512v37.671a5.7,5.7,0,0,0,2.41,4.772l47.277,27.308.079.044a.64.64,0,0,0,.874-.238.633.633,0,0,0,.085-.318v-37.585A5.151,5.151,0,0,0,147.472,1000.881Zm2.033,42.355a.265.265,0,0,1-.265.265.262.262,0,0,1-.131-.035l-47.356-27.353a5.312,5.312,0,0,1-2.221-4.447V974a.216.216,0,0,1,.328-.187l47.424,27.4a4.859,4.859,0,0,1,2.222,4.446Z" fill="#022652"/>
          <path id="Path_86494" data-name="Path 86494" d="M149.363,998.747,101.574,971.14a2.265,2.265,0,0,0-1.96-.288c-.07.027-1,.523-1.07.56h0a2.2,2.2,0,0,1,2.085.23l47.788,27.607a8.023,8.023,0,0,1,3.35,6.4v37.492c0,1.54-.584,2.56-1.473,2.85a.55.55,0,0,0,.293-.1c.043-.024,1.057-.6,1.1-.625a3.09,3.09,0,0,0,1.033-2.629v-37.49A8.026,8.026,0,0,0,149.363,998.747Z" fill="#00223d"/>
          <path id="Path_86495" data-name="Path 86495" d="M149.363,998.747,101.574,971.14a2.265,2.265,0,0,0-1.96-.288c-.07.027-1,.523-1.07.56h0a2.2,2.2,0,0,1,2.085.23l47.788,27.607Z" fill="#00223d"/>
          <path id="Path_86496" data-name="Path 86496" d="M148.574,999.171l-47.789-27.608a2.225,2.225,0,0,0-2.018-.258,2.475,2.475,0,0,1,1.616.379l47.789,27.607a8.023,8.023,0,0,1,3.35,6.4v37.49c0,1.455-.524,2.441-1.332,2.791,1.033-.165,1.734-1.227,1.734-2.912v-37.489A8.027,8.027,0,0,0,148.574,999.171Z" fill="#fff"/>
        </g>
      </g>
      <g id="Group_35152-2" data-name="Group 35152">
        <path id="Path_86482-2" data-name="Path 86482" d="M-53.774,1253.414l-49.6-28.636a2.287,2.287,0,0,1-1.322-1.88v-2.457c.016-.857.649.632,1.871-.074l28.149-16.251c2.261-1.306,5.682-1.447,7.641-.316l49.6,28.636c.654.377,1.129-1.225,1.3-.716.057.17.021,2.417.024,2.595a3.111,3.111,0,0,1-1.87,2.533L-46.131,1253.1C-48.394,1254.4-51.815,1254.545-53.774,1253.414Z" fill="#00223d"/>
        <path id="Path_86483-2" data-name="Path 86483" d="M-53.774,1251l-49.6-28.636c-1.959-1.131-1.713-3.1.549-4.411l28.149-16.252c2.261-1.306,5.682-1.447,7.641-.317l49.6,28.637c1.959,1.131,1.713,3.106-.549,4.412l-28.147,16.251C-48.394,1251.992-51.815,1252.133-53.774,1251Z" fill="url(#linear-gradient-4)"/>
        <path id="Path_86484-2" data-name="Path 86484" d="M-53.774,1253.415c1.959,1.13,5.38.989,7.642-.317v-2.412c-2.262,1.306-5.683,1.448-7.642.317Z" fill="#3f92d1" opacity="0.5" style="isolation: isolate"/>
        <path id="Path_86485-2" data-name="Path 86485" d="M-53.774,1251l-49.6-28.636a2.207,2.207,0,0,1-1.311-2.061,1.008,1.008,0,0,0-.011.135v2.456a2.284,2.284,0,0,0,1.323,1.88l49.6,28.638Z" fill="#00223d"/>
        <path id="Path_86486-2" data-name="Path 86486" d="M-17.984,1234.025l-28.147,16.251c-2.262,1.306-5.683,1.447-7.642.317l-49.6-28.636a2.34,2.34,0,0,1-1.307-1.736,2.185,2.185,0,0,0,1.307,2.145l49.6,28.637c1.959,1.13,5.38.989,7.642-.317l28.148-16.251c1.324-.765,1.952-1.757,1.856-2.676A3.336,3.336,0,0,1-17.984,1234.025Z" fill="#fff"/>
        <path id="Path_86487-2" data-name="Path 86487" d="M-65.064,1241l-17.653-10.191c-.353-.2-.308-.561.1-.8l6.627-3.825a1.533,1.533,0,0,1,1.379-.058l17.653,10.19c.354.2.309.561-.1.8l-6.628,3.827A1.531,1.531,0,0,1-65.064,1241Z" fill="#fff" opacity="0.3" style="isolation: isolate"/>
        <path id="Path_86488-2" data-name="Path 86488" d="M-82.617,1230.43l6.627-3.827a1.537,1.537,0,0,1,1.379-.057l17.652,10.192a.549.549,0,0,1,.163.144.368.368,0,0,0-.08-.516.359.359,0,0,0-.083-.046l-17.652-10.192a1.53,1.53,0,0,0-1.379.057l-6.627,3.826c-.325.188-.415.45-.262.653A.775.775,0,0,1-82.617,1230.43Z" fill="#a8cff0"/>
        <path id="Path_86489-2" data-name="Path 86489" d="M-70.263,1205.067l3.041,1.754a1.542,1.542,0,0,0,1.4,0,.426.426,0,0,0,.263-.542.426.426,0,0,0-.268-.264l-3.042-1.757a1.545,1.545,0,0,0-1.4,0,.425.425,0,0,0-.264.541A.427.427,0,0,0-70.263,1205.067Zm5.209,3.006,1.441.831a1.543,1.543,0,0,0,1.4,0,.425.425,0,0,0,.263-.541.426.426,0,0,0-.267-.265l-1.441-.83a1.542,1.542,0,0,0-1.4,0,.426.426,0,0,0-.265.54.429.429,0,0,0,.27.267Zm3.607,2.083,1.441.832a1.539,1.539,0,0,0,1.4,0,.425.425,0,0,0,.264-.54.425.425,0,0,0-.268-.266l-1.442-.83a1.537,1.537,0,0,0-1.4,0,.425.425,0,0,0-.262.541.426.426,0,0,0,.267.263Zm3.607,2.083,1.442.831a1.543,1.543,0,0,0,1.4,0,.427.427,0,0,0,.264-.541.425.425,0,0,0-.268-.265l-1.441-.832a1.542,1.542,0,0,0-1.4,0,.427.427,0,0,0-.267.54.425.425,0,0,0,.272.268Zm3.608,2.083,1.441.83a1.54,1.54,0,0,0,1.4,0,.426.426,0,0,0,.265-.541.425.425,0,0,0-.269-.265l-1.441-.831a1.545,1.545,0,0,0-1.4,0,.424.424,0,0,0-.262.541.426.426,0,0,0,.267.265Zm3.608,2.083,1.441.832a1.543,1.543,0,0,0,1.4,0,.425.425,0,0,0,.264-.541.423.423,0,0,0-.268-.265l-1.441-.831a1.545,1.545,0,0,0-1.4,0,.424.424,0,0,0-.259.543.423.423,0,0,0,.264.261Zm3.607,2.082,1.441.833a1.545,1.545,0,0,0,1.4,0,.426.426,0,0,0,.264-.541.427.427,0,0,0-.269-.265l-1.441-.832a1.537,1.537,0,0,0-1.4,0,.424.424,0,0,0-.265.539.425.425,0,0,0,.268.266Zm3.608,2.084,1.441.83a1.546,1.546,0,0,0,1.4,0,.426.426,0,0,0,.264-.542.43.43,0,0,0-.268-.265l-1.441-.832a1.545,1.545,0,0,0-1.4,0,.425.425,0,0,0-.266.539.425.425,0,0,0,.271.269Zm3.608,2.082,1.44.831a1.545,1.545,0,0,0,1.4,0,.425.425,0,0,0,.263-.541.426.426,0,0,0-.267-.265l-1.442-.83a1.54,1.54,0,0,0-1.4,0,.426.426,0,0,0-.264.541.424.424,0,0,0,.269.265Zm3.607,2.083,1.44.832a1.542,1.542,0,0,0,1.4,0,.424.424,0,0,0,.264-.54.425.425,0,0,0-.268-.266l-1.441-.83a1.542,1.542,0,0,0-1.4,0,.425.425,0,0,0-.26.543.425.425,0,0,0,.265.262Zm3.607,2.083,1.441.831a1.545,1.545,0,0,0,1.4,0,.426.426,0,0,0,0-.807l-1.441-.83a1.543,1.543,0,0,0-1.4,0,.426.426,0,0,0-.26.543.428.428,0,0,0,.265.262Zm3.608,2.083,1.441.83a1.54,1.54,0,0,0,1.4,0,.425.425,0,0,0,.263-.542.425.425,0,0,0-.267-.264l-1.441-.831a1.539,1.539,0,0,0-1.4,0,.426.426,0,0,0-.262.542.427.427,0,0,0,.267.264Zm3.683,2.126,1.44.832a1.542,1.542,0,0,0,1.4,0,.425.425,0,0,0,.263-.541.426.426,0,0,0-.267-.265l-1.441-.83a1.542,1.542,0,0,0-1.4,0,.424.424,0,0,0-.26.542.425.425,0,0,0,.265.262Zm-48.212-23.975,1.248.72a1.752,1.752,0,0,0,1.589,0l1.24-.716c.438-.252.435-.663,0-.917l-1.247-.721a1.76,1.76,0,0,0-1.59,0l-1.239.716c-.438.252-.436.662,0,.917Zm6.445,2.806,1.24-.716a.485.485,0,0,0-.005-.918l-1.248-.72a1.758,1.758,0,0,0-1.589,0l-1.24.716a.485.485,0,0,0,0,.918l1.248.72a1.755,1.755,0,0,0,1.589,0Zm.77,1.359,1.248.721a1.758,1.758,0,0,0,1.589,0l1.24-.716a.485.485,0,0,0-.005-.918l-1.247-.72a1.758,1.758,0,0,0-1.589,0l-1.24.716c-.438.251-.436.662,0,.916Zm3.607,2.084,1.248.72a1.76,1.76,0,0,0,1.59,0l1.24-.716a.485.485,0,0,0,0-.918l-1.248-.72a1.755,1.755,0,0,0-1.589,0l-1.24.716c-.437.249-.435.662,0,.916Zm7.681,1.172-1.248-.72a1.758,1.758,0,0,0-1.589,0l-1.24.716a.485.485,0,0,0,0,.918l1.248.721a1.757,1.757,0,0,0,1.59,0l1.239-.715a.486.486,0,0,0-.005-.92Zm3.607,2.083-1.247-.72a1.754,1.754,0,0,0-1.59,0l-1.24.716a.484.484,0,0,0,0,.917l1.248.72a1.752,1.752,0,0,0,1.589,0l1.24-.716a.485.485,0,0,0,0-.919Zm3.608,2.082-1.248-.72a1.758,1.758,0,0,0-1.589,0l-1.24.716a.484.484,0,0,0,.005.918l1.247.72a1.754,1.754,0,0,0,1.59,0l1.24-.715a.486.486,0,0,0-.005-.92Zm3.607,2.084-1.248-.72a1.755,1.755,0,0,0-1.589,0l-1.239.716a.485.485,0,0,0,0,.918l1.248.72a1.752,1.752,0,0,0,1.589,0l1.239-.716a.485.485,0,0,0,0-.919Zm3.608,2.083-1.248-.721a1.76,1.76,0,0,0-1.59,0l-1.239.716a.485.485,0,0,0,0,.918l1.248.72a1.758,1.758,0,0,0,1.589,0l1.24-.716a.485.485,0,0,0-.005-.919Zm3.607,2.082-1.247-.72a1.76,1.76,0,0,0-1.59,0l-1.24.716a.484.484,0,0,0,0,.917l1.248.721a1.758,1.758,0,0,0,1.589,0l1.24-.716a.486.486,0,0,0,0-.92Zm-.464,2.993,1.248.72a1.755,1.755,0,0,0,1.589,0l1.24-.716a.484.484,0,0,0-.005-.917l-1.248-.721a1.758,1.758,0,0,0-1.589,0l-1.24.716c-.437.25-.435.661.005.915Zm7.68,1.173-1.247-.72a1.757,1.757,0,0,0-1.59,0l-1.24.716a.485.485,0,0,0,0,.918l1.248.72a1.752,1.752,0,0,0,1.589,0l1.24-.716a.486.486,0,0,0-.006-.919Zm5.284,3.05-2.849-1.645a1.758,1.758,0,0,0-1.589,0l-1.24.716a.485.485,0,0,0,0,.918l2.848,1.645a1.757,1.757,0,0,0,1.59,0l1.24-.715a.486.486,0,0,0-.006-.92Zm-52.378-23.122,2.848,1.645a1.76,1.76,0,0,0,1.59,0l1.239-.716a.484.484,0,0,0-.005-.917l-2.848-1.645a1.752,1.752,0,0,0-1.589,0l-1.24.716c-.44.25-.439.661,0,.915Zm5.208,3.007,1.248.721a1.758,1.758,0,0,0,1.589,0l1.24-.716c.438-.253.436-.663-.005-.918l-1.247-.72a1.754,1.754,0,0,0-1.59,0l-1.24.715a.484.484,0,0,0,0,.917Zm4.855,2.8a1.76,1.76,0,0,0,1.59,0l1.24-.716a.485.485,0,0,0-.005-.918l-1.248-.72a1.758,1.758,0,0,0-1.589,0l-1.24.716a.484.484,0,0,0,.005.917Zm3.608,2.082a1.757,1.757,0,0,0,1.59,0l1.239-.716a.485.485,0,0,0-.005-.918l-1.247-.72a1.754,1.754,0,0,0-1.59,0l-1.24.716a.484.484,0,0,0,.005.917Zm3.595-.27-1.242.714a.485.485,0,0,0,0,.918l1.247.72a1.752,1.752,0,0,0,1.589,0l1.24-.716a.484.484,0,0,0,0-.917l-1.248-.72a1.757,1.757,0,0,0-1.59,0Zm3.683,2.039-1.392.8a.438.438,0,0,0-.272.556.438.438,0,0,0,.277.275l1.4.808a1.589,1.589,0,0,0,1.437,0l1.392-.8a.438.438,0,0,0,.273-.556.439.439,0,0,0-.277-.274l-1.4-.809a1.587,1.587,0,0,0-1.439,0Zm3.608,2.082-1.392.8a.438.438,0,0,0-.273.556.438.438,0,0,0,.278.274l1.4.809a1.584,1.584,0,0,0,1.436,0l1.393-.8a.439.439,0,0,0,.272-.556.437.437,0,0,0-.277-.274l-1.4-.809a1.59,1.59,0,0,0-1.439,0Zm3.607,2.083-1.392.8a.437.437,0,0,0-.273.555.437.437,0,0,0,.278.276l1.4.809a1.59,1.59,0,0,0,1.436,0l1.393-.8a.438.438,0,0,0,.273-.555.437.437,0,0,0-.278-.275l-1.4-.809a1.59,1.59,0,0,0-1.439,0Zm3.608,2.083-1.392.8a.438.438,0,0,0-.273.556.438.438,0,0,0,.278.274l1.4.809a1.587,1.587,0,0,0,1.436,0l1.393-.805a.438.438,0,0,0,.273-.555.437.437,0,0,0-.278-.275l-1.4-.809a1.589,1.589,0,0,0-1.44,0Zm3.608,2.083-1.393.8a.437.437,0,0,0-.272.556.437.437,0,0,0,.277.274l1.4.808a1.587,1.587,0,0,0,1.436,0l1.393-.8a.438.438,0,0,0,.272-.557.439.439,0,0,0-.277-.274l-1.4-.808a1.586,1.586,0,0,0-1.44,0Zm5.057,4.527,1.392-.8a.438.438,0,0,0,.272-.557.439.439,0,0,0-.277-.274l-1.4-.808a1.589,1.589,0,0,0-1.437,0l-1.392.8a.439.439,0,0,0-.274.555.441.441,0,0,0,.278.276l1.4.808a1.583,1.583,0,0,0,1.433,0Zm3.607,2.083,1.392-.8a.437.437,0,0,0,.274-.555.438.438,0,0,0-.278-.275l-1.4-.809a1.586,1.586,0,0,0-1.437,0l-1.391.8a.438.438,0,0,0-.274.555.436.436,0,0,0,.278.276l1.4.809a1.592,1.592,0,0,0,1.434,0Zm5.071.493-1.4-.809a1.586,1.586,0,0,0-1.437,0l-1.392.8a.439.439,0,0,0-.273.556.44.44,0,0,0,.278.275l1.4.808a1.587,1.587,0,0,0,1.436,0l1.392-.8a.438.438,0,0,0,.273-.556.434.434,0,0,0-.28-.275Zm-52.533-23.211,4.523,2.612a1.584,1.584,0,0,0,1.436,0l1.393-.8a.439.439,0,0,0,.274-.556.441.441,0,0,0-.279-.275l-4.523-2.611a1.587,1.587,0,0,0-1.436,0l-1.393.8a.438.438,0,0,0-.272.556.435.435,0,0,0,.274.273Zm6.729,3.886,1.4.809a1.589,1.589,0,0,0,1.437,0l1.392-.8a.437.437,0,0,0,.272-.556.436.436,0,0,0-.277-.274l-1.4-.809a1.589,1.589,0,0,0-1.437,0l-1.392.8a.438.438,0,0,0-.272.557.438.438,0,0,0,.274.272Zm3.608,2.083,1.4.808a1.586,1.586,0,0,0,1.436,0l1.392-.8a.439.439,0,0,0,.273-.557.441.441,0,0,0-.277-.274l-1.4-.808a1.587,1.587,0,0,0-1.436,0l-1.392.8a.437.437,0,0,0-.272.556.441.441,0,0,0,.273.273Zm3.607,2.083,1.4.809a1.59,1.59,0,0,0,1.436,0l1.393-.8a.438.438,0,0,0,.274-.555.441.441,0,0,0-.279-.275l-1.4-.809a1.587,1.587,0,0,0-1.436,0l-1.392.8a.438.438,0,0,0-.273.556.435.435,0,0,0,.274.273Zm6.445,2.894,1.393-.8a.438.438,0,0,0,.274-.555.437.437,0,0,0-.279-.275l-1.4-.81a1.59,1.59,0,0,0-1.436,0l-1.393.8a.437.437,0,0,0-.273.555.435.435,0,0,0,.278.275l1.4.809a1.586,1.586,0,0,0,1.434,0Zm3.608,2.083,1.392-.8a.438.438,0,0,0,.273-.556.437.437,0,0,0-.277-.274l-1.4-.809a1.589,1.589,0,0,0-1.437,0l-1.392.8a.439.439,0,0,0-.273.557.441.441,0,0,0,.277.274l1.4.808a1.587,1.587,0,0,0,1.433,0Zm3.608,2.083,1.392-.8a.438.438,0,0,0,.273-.556.439.439,0,0,0-.277-.274l-1.4-.809a1.589,1.589,0,0,0-1.437,0l-1.392.8a.438.438,0,0,0-.273.556.439.439,0,0,0,.277.274l1.4.809a1.586,1.586,0,0,0,1.433,0Zm3.607,2.082,1.392-.8a.438.438,0,0,0,.274-.556.44.44,0,0,0-.278-.275l-1.4-.809a1.589,1.589,0,0,0-1.437,0l-1.392.8a.437.437,0,0,0-.273.555.437.437,0,0,0,.278.275l1.4.809a1.589,1.589,0,0,0,1.434,0Zm3.608,2.084,1.392-.805a.436.436,0,0,0,.273-.555.437.437,0,0,0-.278-.275l-1.4-.809a1.589,1.589,0,0,0-1.437,0l-1.392.8a.439.439,0,0,0-.274.555.441.441,0,0,0,.278.276l1.4.809a1.586,1.586,0,0,0,1.433,0Zm3.607,2.082,1.392-.8a.439.439,0,0,0,.273-.557.439.439,0,0,0-.277-.274l-1.4-.808a1.588,1.588,0,0,0-1.437,0l-1.391.8a.438.438,0,0,0-.273.556.437.437,0,0,0,.277.274l1.4.808a1.586,1.586,0,0,0,1.433,0Zm.77,1.272,1.4.808a1.589,1.589,0,0,0,1.437,0l1.392-.8a.438.438,0,0,0,.273-.556.439.439,0,0,0-.277-.274l-1.4-.809a1.59,1.59,0,0,0-1.436,0l-1.392.8a.438.438,0,0,0-.269.558.441.441,0,0,0,.27.269Zm9.994,2.509-3.563-2.057a1.584,1.584,0,0,0-1.436,0l-1.393.8a.439.439,0,0,0-.274.556.441.441,0,0,0,.279.275l3.563,2.057a1.587,1.587,0,0,0,1.436,0l1.392-.807a.437.437,0,0,0,.27-.556.438.438,0,0,0-.276-.273Zm-52.519-23.11,6.418,3.705a1.792,1.792,0,0,0,1.623,0l1.206-.7a.494.494,0,0,0,0-.937l-6.417-3.706a1.792,1.792,0,0,0-1.623,0l-1.207.7c-.449.256-.447.673,0,.934Zm8.812,5.085,1.213.7a1.792,1.792,0,0,0,1.623,0l1.207-.7a.494.494,0,0,0,0-.937l-1.214-.7a1.8,1.8,0,0,0-1.623,0l-1.207.7a.493.493,0,0,0,0,.935Zm3.607,2.083,1.214.7a1.792,1.792,0,0,0,1.623,0l1.207-.7a.494.494,0,0,0-.005-.936l-1.215-.7a1.79,1.79,0,0,0-1.622,0l-1.207.7c-.45.257-.447.676,0,.936Zm3.6,2.082,1.214.7a1.792,1.792,0,0,0,1.623,0l1.207-.7a.5.5,0,0,0-.005-.938l-1.214-.7a1.8,1.8,0,0,0-1.623,0l-1.207.7A.494.494,0,0,0-67.568,1222.147Zm3.608,2.084,1.214.7a1.792,1.792,0,0,0,1.623,0l1.206-.7a.5.5,0,0,0,0-.937l-1.215-.7a1.792,1.792,0,0,0-1.623,0l-1.206.7a.494.494,0,0,0,0,.936Zm3.607,2.082,1.215.7a1.79,1.79,0,0,0,1.622,0l1.207-.7a.494.494,0,0,0-.005-.936l-1.214-.7a1.792,1.792,0,0,0-1.623,0l-1.207.7c-.447.257-.445.677.005.937Zm3.608,2.083,1.214.7a1.793,1.793,0,0,0,1.622,0l1.207-.7c.447-.257.444-.677-.005-.937l-1.214-.7a1.793,1.793,0,0,0-1.622,0l-1.207.7c-.448.258-.445.677.005.937Zm3.608,2.083,1.213.7a1.8,1.8,0,0,0,1.623,0l1.207-.7a.494.494,0,0,0,0-.937l-1.214-.7a1.792,1.792,0,0,0-1.623,0l-1.207.7a.5.5,0,0,0,.005.938Zm3.607,2.083,1.214.7a1.792,1.792,0,0,0,1.623,0l1.206-.7a.5.5,0,0,0,0-.937l-1.215-.7a1.8,1.8,0,0,0-1.623,0l-1.206.7a.494.494,0,0,0,0,.936Zm3.607,2.083,1.214.7a1.792,1.792,0,0,0,1.623,0l1.207-.7c.447-.258.444-.677,0-.937l-1.214-.7a1.792,1.792,0,0,0-1.623,0l-1.207.7c-.447.257-.445.676.005.936Zm3.608,2.082,1.214.7a1.8,1.8,0,0,0,1.623,0l1.207-.7a.494.494,0,0,0-.005-.936l-1.214-.7a1.792,1.792,0,0,0-1.623,0l-1.207.7a.5.5,0,0,0,0,.937Zm7.726,1.2-1.215-.7a1.79,1.79,0,0,0-1.622,0l-1.206.7a.5.5,0,0,0,0,.937l1.214.7a1.8,1.8,0,0,0,1.623,0l1.207-.7a.5.5,0,0,0-.006-.938ZM-81.3,1214.818l-2.815-1.626a1.8,1.8,0,0,0-1.623,0l-1.207.7a.5.5,0,0,0,.005.937l2.815,1.626a1.792,1.792,0,0,0,1.623,0l1.206-.7A.494.494,0,0,0-81.3,1214.818Zm3.607,2.083-1.214-.7a1.792,1.792,0,0,0-1.623,0l-1.207.7a.5.5,0,0,0,.006.937l1.213.7a1.8,1.8,0,0,0,1.623,0l1.207-.7C-77.237,1217.581-77.239,1217.161-77.689,1216.9Zm3.608,2.083-1.214-.7a1.8,1.8,0,0,0-1.623,0l-1.207.7a.494.494,0,0,0,0,.937l1.214.7a1.8,1.8,0,0,0,1.623,0l1.207-.7a.5.5,0,0,0-.005-.937Zm25.253,14.58-22.86-13.2a1.792,1.792,0,0,0-1.623,0l-1.206.7a.494.494,0,0,0,0,.937l22.858,13.2a1.792,1.792,0,0,0,1.623,0l1.207-.7A.494.494,0,0,0-48.828,1233.564Zm3.607,2.083-1.214-.7a1.792,1.792,0,0,0-1.623,0l-1.206.7a.494.494,0,0,0,0,.936l1.215.7a1.8,1.8,0,0,0,1.623,0l1.206-.7a.5.5,0,0,0-.005-.938Zm3.607,2.083-1.213-.7a1.8,1.8,0,0,0-1.623,0l-1.207.7a.494.494,0,0,0,.005.936l1.214.7a1.792,1.792,0,0,0,1.623,0l1.206-.7a.5.5,0,0,0,0-.938Zm3.683,2.126-1.214-.7a1.792,1.792,0,0,0-1.623,0l-1.207.7a.5.5,0,0,0,0,.937l1.214.7a1.792,1.792,0,0,0,1.623,0l1.206-.7a.5.5,0,0,0,0-.938Z" fill="#72b5e8"/>
        <path id="Path_86490-2" data-name="Path 86490" d="M-70.263,1204.73l3.041,1.758a1.545,1.545,0,0,0,1.4,0,.425.425,0,0,0,.263-.541.43.43,0,0,0-.268-.265l-3.042-1.756a1.539,1.539,0,0,0-1.4,0,.426.426,0,0,0-.259.543A.426.426,0,0,0-70.263,1204.73Zm5.209,3.007,1.441.832a1.54,1.54,0,0,0,1.4,0,.425.425,0,0,0,.263-.541.426.426,0,0,0-.267-.265l-1.441-.83a1.542,1.542,0,0,0-1.4,0,.426.426,0,0,0-.262.542.428.428,0,0,0,.267.263Zm3.607,2.083,1.441.831a1.545,1.545,0,0,0,1.4,0,.425.425,0,0,0,.264-.54.425.425,0,0,0-.268-.266l-1.442-.832a1.537,1.537,0,0,0-1.4,0c-.385.223-.382.583.005.807Zm3.607,2.083,1.442.83a1.54,1.54,0,0,0,1.4,0,.425.425,0,0,0,.264-.541.423.423,0,0,0-.268-.265l-1.441-.833a1.545,1.545,0,0,0-1.4,0,.426.426,0,0,0-.267.539.426.426,0,0,0,.272.269Zm3.608,2.083,1.441.83a1.546,1.546,0,0,0,1.4,0,.426.426,0,0,0,.265-.541.426.426,0,0,0-.269-.266l-1.441-.83a1.549,1.549,0,0,0-1.4,0,.425.425,0,0,0-.262.542.426.426,0,0,0,.267.265Zm3.608,2.082,1.441.833a1.543,1.543,0,0,0,1.4,0,.425.425,0,0,0,.265-.541.424.424,0,0,0-.269-.265l-1.441-.831a1.545,1.545,0,0,0-1.4,0,.426.426,0,0,0-.26.542.423.423,0,0,0,.265.262Zm3.607,2.084,1.441.83a1.545,1.545,0,0,0,1.4,0,.425.425,0,0,0,.264-.54.426.426,0,0,0-.269-.266l-1.441-.832a1.543,1.543,0,0,0-1.4,0,.425.425,0,0,0-.268.539.427.427,0,0,0,.271.269Zm3.608,2.082,1.441.831a1.543,1.543,0,0,0,1.4,0,.425.425,0,0,0,.264-.541.43.43,0,0,0-.268-.265l-1.441-.83a1.542,1.542,0,0,0-1.4,0,.426.426,0,0,0-.264.541.427.427,0,0,0,.269.265Zm3.608,2.083,1.44.83a1.542,1.542,0,0,0,1.4,0,.425.425,0,0,0,.263-.541.426.426,0,0,0-.267-.265l-1.442-.831a1.543,1.543,0,0,0-1.4,0,.425.425,0,0,0-.264.54.426.426,0,0,0,.269.266Zm3.607,2.083,1.44.832a1.545,1.545,0,0,0,1.4,0,.425.425,0,0,0,.264-.541.423.423,0,0,0-.268-.265l-1.441-.831a1.545,1.545,0,0,0-1.4,0,.426.426,0,0,0-.261.542.424.424,0,0,0,.266.263Zm3.607,2.083,1.441.83a1.542,1.542,0,0,0,1.4,0,.425.425,0,0,0,.264-.54.425.425,0,0,0-.269-.265l-1.441-.833a1.543,1.543,0,0,0-1.4,0,.426.426,0,0,0-.268.54.423.423,0,0,0,.273.269Zm3.608,2.083,1.441.83a1.546,1.546,0,0,0,1.4,0,.426.426,0,0,0,.263-.542.426.426,0,0,0-.267-.265l-1.441-.83a1.542,1.542,0,0,0-1.4,0,.426.426,0,0,0-.262.542.422.422,0,0,0,.267.264Zm3.683,2.126,1.44.83a1.542,1.542,0,0,0,1.4,0,.425.425,0,0,0,.264-.54.423.423,0,0,0-.268-.265l-1.441-.833a1.545,1.545,0,0,0-1.4,0,.426.426,0,0,0-.266.54.425.425,0,0,0,.271.268Zm-48.212-23.975,1.248.72a1.752,1.752,0,0,0,1.589,0l1.24-.716c.438-.252.435-.663,0-.917l-1.247-.72a1.757,1.757,0,0,0-1.59,0l-1.239.716c-.438.251-.436.662,0,.916Zm6.445,2.806,1.24-.716a.484.484,0,0,0-.005-.917l-1.248-.721a1.758,1.758,0,0,0-1.589,0l-1.24.716a.485.485,0,0,0,0,.918l1.248.72a1.755,1.755,0,0,0,1.589,0Zm.77,1.359,1.248.721a1.758,1.758,0,0,0,1.589,0l1.24-.716a.485.485,0,0,0-.005-.918l-1.247-.72a1.752,1.752,0,0,0-1.589,0l-1.24.716c-.438.251-.436.661,0,.916Zm3.607,2.084,1.248.72a1.76,1.76,0,0,0,1.59,0l1.24-.716a.484.484,0,0,0,0-.917l-1.248-.721a1.755,1.755,0,0,0-1.589,0l-1.24.716c-.437.252-.435.661,0,.916Zm7.681,1.172-1.248-.72a1.758,1.758,0,0,0-1.589,0l-1.24.716a.484.484,0,0,0,0,.917l1.248.721a1.757,1.757,0,0,0,1.59,0l1.239-.715a.486.486,0,0,0-.005-.92Zm3.607,2.083-1.247-.72a1.754,1.754,0,0,0-1.59,0l-1.24.716a.484.484,0,0,0,0,.917l1.248.72a1.755,1.755,0,0,0,1.589,0l1.24-.716a.486.486,0,0,0,0-.92Zm3.608,2.083-1.248-.72a1.752,1.752,0,0,0-1.589,0l-1.24.716a.484.484,0,0,0,.005.917l1.247.721a1.761,1.761,0,0,0,1.59,0l1.24-.716a.486.486,0,0,0-.005-.92Zm3.607,2.083-1.248-.72a1.755,1.755,0,0,0-1.589,0l-1.239.716a.485.485,0,0,0,0,.918l1.248.72a1.752,1.752,0,0,0,1.589,0l1.239-.716a.485.485,0,0,0,0-.919Zm3.608,2.083-1.248-.721a1.757,1.757,0,0,0-1.59,0l-1.239.715a.485.485,0,0,0,0,.918l1.248.72a1.758,1.758,0,0,0,1.589,0l1.24-.716a.486.486,0,0,0-.005-.92Zm3.607,2.082-1.247-.72a1.76,1.76,0,0,0-1.59,0l-1.24.716a.484.484,0,0,0,0,.917l1.248.721a1.755,1.755,0,0,0,1.589,0l1.24-.716a.486.486,0,0,0,0-.92Zm-.464,2.993,1.248.721a1.758,1.758,0,0,0,1.589,0l1.24-.716a.485.485,0,0,0-.005-.918l-1.248-.72a1.752,1.752,0,0,0-1.589,0l-1.24.716c-.437.25-.435.661.005.915Zm7.68,1.173L-31,1228a1.757,1.757,0,0,0-1.59,0l-1.24.716a.485.485,0,0,0,0,.918l1.248.72a1.752,1.752,0,0,0,1.589,0l1.24-.716a.486.486,0,0,0-.006-.919Zm5.284,3.05-2.849-1.645a1.758,1.758,0,0,0-1.589,0l-1.24.716a.485.485,0,0,0,0,.918l2.848,1.645a1.76,1.76,0,0,0,1.59,0l1.24-.716a.486.486,0,0,0-.006-.92Zm-52.378-23.122,2.848,1.645a1.76,1.76,0,0,0,1.59,0l1.239-.716a.484.484,0,0,0-.005-.917l-2.848-1.645a1.752,1.752,0,0,0-1.589,0l-1.24.716c-.44.25-.439.661,0,.915Zm5.208,3.008,1.248.72a1.758,1.758,0,0,0,1.589,0l1.24-.716c.438-.253.436-.663-.005-.918l-1.247-.72a1.757,1.757,0,0,0-1.59,0l-1.24.715c-.439.25-.437.662,0,.916Zm4.855,2.8a1.76,1.76,0,0,0,1.59,0l1.24-.716a.485.485,0,0,0-.005-.918l-1.248-.72a1.758,1.758,0,0,0-1.589,0l-1.24.716a.485.485,0,0,0,.005.918Zm3.608,2.082a1.757,1.757,0,0,0,1.59,0l1.239-.716a.485.485,0,0,0-.005-.918l-1.247-.72a1.754,1.754,0,0,0-1.59,0l-1.24.716a.484.484,0,0,0,.005.917Zm3.595-.27-1.242.714a.485.485,0,0,0,0,.918l1.247.72a1.752,1.752,0,0,0,1.589,0l1.24-.716a.484.484,0,0,0,0-.917l-1.248-.72a1.757,1.757,0,0,0-1.59,0Zm3.683,2.039-1.392.8a.439.439,0,0,0-.272.557.439.439,0,0,0,.277.274l1.4.808a1.589,1.589,0,0,0,1.437,0l1.392-.8a.438.438,0,0,0,.273-.556.439.439,0,0,0-.277-.274l-1.4-.809a1.59,1.59,0,0,0-1.439,0Zm3.608,2.082-1.392.8a.438.438,0,0,0-.273.556.438.438,0,0,0,.278.274l1.4.809a1.587,1.587,0,0,0,1.436,0l1.393-.8a.438.438,0,0,0,.272-.556.436.436,0,0,0-.277-.274l-1.4-.809a1.59,1.59,0,0,0-1.439,0Zm3.607,2.083-1.392.8a.437.437,0,0,0-.273.555.437.437,0,0,0,.278.276l1.4.809a1.59,1.59,0,0,0,1.436,0l1.393-.8a.437.437,0,0,0,.273-.555.437.437,0,0,0-.278-.275l-1.4-.809a1.587,1.587,0,0,0-1.439,0Zm3.608,2.083-1.392.8a.438.438,0,0,0-.274.555.439.439,0,0,0,.279.275l1.4.81a1.59,1.59,0,0,0,1.436,0l1.393-.8a.438.438,0,0,0,.273-.555.433.433,0,0,0-.278-.275l-1.4-.81a1.589,1.589,0,0,0-1.44,0Zm3.608,2.083-1.393.8a.437.437,0,0,0-.272.556.436.436,0,0,0,.277.274l1.4.808a1.586,1.586,0,0,0,1.436,0l1.393-.8a.438.438,0,0,0,.272-.557.439.439,0,0,0-.277-.274l-1.4-.808a1.589,1.589,0,0,0-1.44-.005Zm5.057,4.527,1.392-.8a.438.438,0,0,0,.272-.557.439.439,0,0,0-.277-.274l-1.4-.808a1.589,1.589,0,0,0-1.437,0l-1.392.8a.438.438,0,0,0-.273.556.439.439,0,0,0,.277.274l1.4.808a1.583,1.583,0,0,0,1.433,0Zm3.607,2.083,1.392-.8a.437.437,0,0,0,.274-.555.437.437,0,0,0-.278-.275l-1.4-.809a1.585,1.585,0,0,0-1.437,0l-1.391.8a.438.438,0,0,0-.274.555.437.437,0,0,0,.278.276l1.4.809a1.592,1.592,0,0,0,1.434,0Zm5.071.493-1.4-.809a1.586,1.586,0,0,0-1.437,0l-1.392.8a.439.439,0,0,0-.273.556.44.44,0,0,0,.278.275l1.4.808a1.586,1.586,0,0,0,1.436,0l1.392-.8a.437.437,0,0,0,.274-.555.437.437,0,0,0-.281-.276Zm-52.533-23.21,4.523,2.611a1.587,1.587,0,0,0,1.436,0l1.393-.8a.439.439,0,0,0,.274-.556.441.441,0,0,0-.279-.275l-4.523-2.611a1.586,1.586,0,0,0-1.436,0l-1.393.8a.439.439,0,0,0-.272.556.44.44,0,0,0,.274.273Zm6.729,3.885,1.4.809a1.589,1.589,0,0,0,1.437,0l1.392-.8a.437.437,0,0,0,.272-.556.437.437,0,0,0-.277-.274l-1.4-.81a1.586,1.586,0,0,0-1.436,0l-1.393.8a.438.438,0,0,0-.271.557.438.438,0,0,0,.276.273Zm3.608,2.083,1.4.809a1.59,1.59,0,0,0,1.436,0l1.392-.8a.439.439,0,0,0,.273-.557.441.441,0,0,0-.277-.274l-1.4-.808a1.586,1.586,0,0,0-1.436,0l-1.392.8a.438.438,0,0,0-.271.557.436.436,0,0,0,.272.271Zm3.607,2.083,1.4.809a1.587,1.587,0,0,0,1.436,0l1.393-.8a.438.438,0,0,0,.274-.555.441.441,0,0,0-.279-.275l-1.4-.809a1.587,1.587,0,0,0-1.436,0l-1.392.8a.437.437,0,0,0-.272.556.438.438,0,0,0,.273.273Zm6.445,2.894,1.393-.8a.438.438,0,0,0,.274-.555.439.439,0,0,0-.279-.275l-1.4-.809a1.587,1.587,0,0,0-1.436,0l-1.393.8a.438.438,0,0,0-.272.556.436.436,0,0,0,.277.274l1.4.809a1.589,1.589,0,0,0,1.434,0Zm3.608,2.083,1.392-.8a.438.438,0,0,0,.273-.556.436.436,0,0,0-.277-.274l-1.4-.808a1.589,1.589,0,0,0-1.437,0l-1.392.8a.439.439,0,0,0-.273.557.441.441,0,0,0,.277.274l1.4.808a1.583,1.583,0,0,0,1.433,0Zm3.608,2.083,1.392-.8a.438.438,0,0,0,.273-.556.439.439,0,0,0-.277-.274l-1.4-.809a1.589,1.589,0,0,0-1.437,0l-1.392.8a.438.438,0,0,0-.274.555.442.442,0,0,0,.278.275l1.4.809a1.586,1.586,0,0,0,1.433,0Zm3.607,2.083,1.392-.8a.439.439,0,0,0,.274-.556.44.44,0,0,0-.278-.275l-1.4-.809a1.589,1.589,0,0,0-1.437,0l-1.392.8a.436.436,0,0,0-.273.555.437.437,0,0,0,.278.275l1.4.809a1.589,1.589,0,0,0,1.434,0Zm3.608,2.083,1.392-.8a.437.437,0,0,0,.273-.555.437.437,0,0,0-.278-.275l-1.4-.808a1.589,1.589,0,0,0-1.437,0l-1.392.8a.439.439,0,0,0-.273.557.441.441,0,0,0,.277.274l1.4.808a1.584,1.584,0,0,0,1.433,0Zm3.607,2.082,1.39-.805a.437.437,0,0,0,.272-.556.437.437,0,0,0-.277-.274l-1.4-.808a1.587,1.587,0,0,0-1.436,0l-1.392.8a.439.439,0,0,0-.273.557.441.441,0,0,0,.277.274l1.4.808a1.584,1.584,0,0,0,1.436,0Zm.767,1.271,1.4.809a1.586,1.586,0,0,0,1.437,0l1.392-.8a.438.438,0,0,0,.274-.555.437.437,0,0,0-.278-.276l-1.4-.809a1.588,1.588,0,0,0-1.437,0l-1.392.805a.437.437,0,0,0-.274.555A.437.437,0,0,0-41.07,1233.161Zm9.995,2.509-3.564-2.057a1.59,1.59,0,0,0-1.436,0l-1.393.8a.438.438,0,0,0-.273.555.437.437,0,0,0,.278.275l3.563,2.058a1.592,1.592,0,0,0,1.437,0l1.394-.807a.437.437,0,0,0,.27-.556.438.438,0,0,0-.276-.273Zm-52.52-23.11,6.419,3.706a1.8,1.8,0,0,0,1.622,0l1.207-.7a.5.5,0,0,0,0-.937l-6.418-3.7a1.792,1.792,0,0,0-1.623,0l-1.206.7a.493.493,0,0,0,0,.935Zm8.812,5.086,1.214.7a1.79,1.79,0,0,0,1.622,0l1.207-.7a.494.494,0,0,0-.005-.937l-1.214-.7a1.8,1.8,0,0,0-1.623,0l-1.207.7c-.446.257-.444.676.006.936Zm3.607,2.083,1.214.7a1.792,1.792,0,0,0,1.623,0l1.207-.7a.5.5,0,0,0,0-.937l-1.214-.7a1.792,1.792,0,0,0-1.623,0l-1.207.7a.494.494,0,0,0,0,.936Zm3.608,2.082,1.214.7a1.792,1.792,0,0,0,1.623,0l1.206-.7a.5.5,0,0,0,0-.937l-1.215-.7a1.792,1.792,0,0,0-1.623,0l-1.206.7a.494.494,0,0,0,0,.937Zm3.607,2.084,1.215.7a1.793,1.793,0,0,0,1.622,0l1.207-.7a.494.494,0,0,0-.005-.937l-1.214-.7a1.792,1.792,0,0,0-1.623,0l-1.207.7c-.446.256-.444.676.005.936Zm3.608,2.082,1.214.7a1.792,1.792,0,0,0,1.623,0l1.207-.7a.5.5,0,0,0-.006-.937l-1.213-.7a1.792,1.792,0,0,0-1.623,0l-1.207.7c-.447.257-.445.677.005.937Zm3.608,2.083,1.214.7a1.8,1.8,0,0,0,1.622,0l1.207-.7a.5.5,0,0,0-.005-.937l-1.214-.7a1.8,1.8,0,0,0-1.623,0l-1.206.7c-.448.257-.445.676.005.936Zm3.607,2.083,1.214.7a1.792,1.792,0,0,0,1.623,0l1.207-.7a.494.494,0,0,0,0-.937l-1.214-.7a1.8,1.8,0,0,0-1.623,0l-1.207.7c-.448.256-.445.675.005.935Zm3.607,2.083,1.214.7a1.792,1.792,0,0,0,1.623,0l1.207-.7a.494.494,0,0,0-.005-.937l-1.214-.7a1.8,1.8,0,0,0-1.623,0l-1.207.7a.494.494,0,0,0,.005.936Zm3.608,2.083,1.214.7a1.8,1.8,0,0,0,1.623,0l1.207-.7a.5.5,0,0,0,0-.937l-1.214-.7a1.792,1.792,0,0,0-1.623,0l-1.207.7c-.447.257-.445.676.005.936Zm3.607,2.082,1.214.7a1.8,1.8,0,0,0,1.623,0l1.206-.7a.494.494,0,0,0-.005-.937l-1.214-.7a1.8,1.8,0,0,0-1.623,0l-1.206.7a.494.494,0,0,0,0,.936Zm7.726,1.2-1.214-.7a1.79,1.79,0,0,0-1.622,0l-1.207.7a.494.494,0,0,0,.005.937l1.214.7a1.8,1.8,0,0,0,1.623,0l1.206-.7c.448-.259.445-.678-.005-.939ZM-81.3,1214.482l-2.815-1.626a1.8,1.8,0,0,0-1.623,0l-1.207.7c-.447.258-.444.677.005.937l2.815,1.626a1.792,1.792,0,0,0,1.623,0l1.206-.7A.494.494,0,0,0-81.3,1214.482Zm3.607,2.083-1.214-.7a1.792,1.792,0,0,0-1.623,0l-1.207.7a.5.5,0,0,0,.006.937l1.213.7a1.8,1.8,0,0,0,1.623,0l1.207-.7c.447-.257.445-.676-.005-.936Zm3.608,2.083-1.214-.7a1.792,1.792,0,0,0-1.623,0l-1.207.7a.494.494,0,0,0,0,.936l1.214.7a1.8,1.8,0,0,0,1.623,0l1.207-.7a.5.5,0,0,0-.005-.937Zm25.253,14.579-22.86-13.2a1.8,1.8,0,0,0-1.623,0l-1.206.7a.494.494,0,0,0,0,.936l22.858,13.2a1.8,1.8,0,0,0,1.623,0l1.207-.7a.494.494,0,0,0,0-.936Zm3.607,2.084-1.214-.7a1.8,1.8,0,0,0-1.623,0l-1.206.7a.5.5,0,0,0,0,.937l1.215.7a1.792,1.792,0,0,0,1.623,0l1.206-.7a.494.494,0,0,0-.005-.937Zm3.607,2.082-1.213-.7a1.792,1.792,0,0,0-1.623,0l-1.207.7a.5.5,0,0,0,.005.937l1.214.7a1.8,1.8,0,0,0,1.623,0l1.206-.7c.448-.258.445-.677,0-.937Zm3.683,2.126-1.214-.7a1.8,1.8,0,0,0-1.623,0l-1.207.7a.5.5,0,0,0,0,.937l1.214.7a1.792,1.792,0,0,0,1.623,0l1.207-.7a.494.494,0,0,0-.005-.937Z" fill="#00223d"/>
        <g id="Group_35151-2" data-name="Group 35151">
          <path id="Path_86491-2" data-name="Path 86491" d="M-18.221,1229.642l-47.789-27.608a8.023,8.023,0,0,1-3.35-6.4v-37.49c0-2.466,1.5-3.6,3.35-2.532l47.789,27.607a8.023,8.023,0,0,1,3.35,6.4v37.49C-14.871,1229.577-16.371,1230.71-18.221,1229.642Z" fill="url(#linear-gradient-5)"/>
          <path id="Path_86492-2" data-name="Path 86492" d="M-17.79,1227.715l-47.279-27.31a5.7,5.7,0,0,1-2.409-4.771v-37.671a.593.593,0,0,1,.594-.593.585.585,0,0,1,.3.082l.1.061,47.317,27.336a5.152,5.152,0,0,1,2.41,4.772V1227.2a.642.642,0,0,1-.642.64.64.64,0,0,1-.317-.084Z" fill="url(#linear-gradient-6)"/>
          <path id="Path_86493-2" data-name="Path 86493" d="M-19.162,1184.848l-47.317-27.334-.1-.062a.594.594,0,0,0-.813.212.6.6,0,0,0-.081.3v37.671a5.7,5.7,0,0,0,2.41,4.772l47.277,27.308.079.045a.641.641,0,0,0,.874-.239.644.644,0,0,0,.085-.317v-37.586A5.151,5.151,0,0,0-19.162,1184.848Zm2.033,42.356a.265.265,0,0,1-.265.264.251.251,0,0,1-.131-.034l-47.356-27.354a5.308,5.308,0,0,1-2.221-4.446v-37.671a.218.218,0,0,1,.219-.217.22.22,0,0,1,.109.03l47.424,27.4a4.859,4.859,0,0,1,2.222,4.447Z" fill="#022652"/>
          <path id="Path_86494-2" data-name="Path 86494" d="M-17.271,1182.714l-47.79-27.607a2.262,2.262,0,0,0-1.959-.288c-.07.027-1,.524-1.07.56h0a2.194,2.194,0,0,1,2.084.23l47.789,27.608a8.023,8.023,0,0,1,3.35,6.4v37.492c0,1.54-.584,2.56-1.473,2.85a.543.543,0,0,0,.293-.1c.043-.024,1.057-.6,1.1-.624a3.092,3.092,0,0,0,1.033-2.629v-37.49A8.028,8.028,0,0,0-17.271,1182.714Z" fill="#00223d"/>
          <path id="Path_86495-2" data-name="Path 86495" d="M-17.271,1182.714l-47.79-27.607a2.262,2.262,0,0,0-1.959-.288c-.07.027-1,.524-1.07.56h0a2.194,2.194,0,0,1,2.084.23l47.789,27.608Z" fill="#00223d"/>
          <path id="Path_86496-2" data-name="Path 86496" d="M-18.06,1183.138l-47.789-27.607a2.22,2.22,0,0,0-2.018-.258,2.475,2.475,0,0,1,1.616.378l47.789,27.608a8.021,8.021,0,0,1,3.35,6.4v37.49c0,1.455-.524,2.441-1.332,2.791,1.033-.164,1.734-1.226,1.734-2.911V1189.54A8.03,8.03,0,0,0-18.06,1183.138Z" fill="#fff"/>
        </g>
      </g>
      <g id="Group_35152-3" data-name="Group 35152">
        <path id="Path_86482-3" data-name="Path 86482" d="M101.2,1261.1l-49.6-28.636a2.288,2.288,0,0,1-1.322-1.881v-2.456c.016-.857.649.631,1.871-.074L80.3,1211.8c2.261-1.306,5.682-1.448,7.641-.317l49.6,28.636c.654.378,1.129-1.224,1.3-.715.057.17.021,2.417.024,2.594a3.112,3.112,0,0,1-1.87,2.534l-28.148,16.249C106.58,1262.088,103.159,1262.229,101.2,1261.1Z" fill="#00223d"/>
        <path id="Path_86483-3" data-name="Path 86483" d="M101.2,1258.687l-49.6-28.636c-1.958-1.131-1.712-3.106.549-4.412L80.3,1209.388c2.261-1.306,5.682-1.447,7.641-.317l49.6,28.637c1.959,1.131,1.713,3.1-.549,4.412l-28.147,16.25C106.58,1259.676,103.159,1259.818,101.2,1258.687Z" fill="url(#linear-gradient-7)"/>
        <path id="Path_86484-3" data-name="Path 86484" d="M101.2,1261.1c1.959,1.131,5.38.99,7.642-.316v-2.412c-2.262,1.306-5.682,1.447-7.642.317Z" fill="#3f92d1" opacity="0.5" style="isolation: isolate"/>
        <path id="Path_86485-3" data-name="Path 86485" d="M101.2,1258.687l-49.6-28.636a2.209,2.209,0,0,1-1.311-2.062,1.025,1.025,0,0,0-.011.136v2.456a2.286,2.286,0,0,0,1.323,1.88l49.6,28.638Z" fill="#00223d"/>
        <path id="Path_86486-3" data-name="Path 86486" d="M136.99,1241.71l-28.147,16.251c-2.262,1.306-5.683,1.447-7.642.317l-49.6-28.636a2.34,2.34,0,0,1-1.307-1.736,2.186,2.186,0,0,0,1.307,2.145l49.6,28.636c1.959,1.131,5.38.99,7.642-.316l28.148-16.251c1.324-.765,1.952-1.758,1.856-2.677A3.336,3.336,0,0,1,136.99,1241.71Z" fill="#fff"/>
        <path id="Path_86487-3" data-name="Path 86487" d="M89.91,1248.684l-17.653-10.192c-.353-.2-.308-.56.1-.795l6.627-3.826a1.534,1.534,0,0,1,1.379-.057L98.017,1244c.353.2.308.56-.1.8l-6.628,3.826A1.531,1.531,0,0,1,89.91,1248.684Z" fill="#fff" opacity="0.3" style="isolation: isolate"/>
        <path id="Path_86488-3" data-name="Path 86488" d="M72.357,1238.115l6.627-3.827a1.531,1.531,0,0,1,1.379-.057l17.652,10.192a.547.547,0,0,1,.163.143.368.368,0,0,0-.08-.516.347.347,0,0,0-.083-.045l-17.652-10.193a1.534,1.534,0,0,0-1.379.058l-6.627,3.826c-.325.188-.415.45-.262.653A.764.764,0,0,1,72.357,1238.115Z" fill="#a8cff0"/>
        <path id="Path_86489-3" data-name="Path 86489" d="M84.711,1212.751l3.041,1.755a1.549,1.549,0,0,0,1.4,0,.426.426,0,0,0-.005-.807l-3.042-1.756a1.542,1.542,0,0,0-1.4,0,.426.426,0,0,0,.006.807Zm5.209,3.007,1.441.83a1.54,1.54,0,0,0,1.4,0,.426.426,0,0,0,0-.806l-1.441-.831a1.548,1.548,0,0,0-1.4,0,.425.425,0,0,0,0,.807Zm3.607,2.083,1.441.832a1.545,1.545,0,0,0,1.4,0,.426.426,0,0,0,0-.806l-1.442-.831a1.543,1.543,0,0,0-1.4,0,.425.425,0,0,0,0,.8Zm3.607,2.083,1.442.83a1.54,1.54,0,0,0,1.4,0,.425.425,0,0,0,0-.8l-1.441-.833a1.545,1.545,0,0,0-1.4,0,.426.426,0,0,0,.005.808Zm3.608,2.083,1.441.83a1.548,1.548,0,0,0,1.4,0,.426.426,0,0,0-.005-.807l-1.441-.83a1.549,1.549,0,0,0-1.4,0,.427.427,0,0,0,0,.807Zm3.608,2.082,1.441.833a1.543,1.543,0,0,0,1.4,0,.426.426,0,0,0,0-.807l-1.441-.83a1.548,1.548,0,0,0-1.4,0,.426.426,0,0,0,0,.8Zm3.607,2.083,1.441.832a1.542,1.542,0,0,0,1.4,0,.424.424,0,0,0,0-.8l-1.441-.833a1.543,1.543,0,0,0-1.4,0,.425.425,0,0,0,0,.806Zm3.608,2.083,1.441.831a1.543,1.543,0,0,0,1.4,0,.425.425,0,0,0,.264-.541.43.43,0,0,0-.268-.265l-1.441-.832a1.542,1.542,0,0,0-1.4,0,.426.426,0,0,0,.005.808Zm3.608,2.083,1.441.83a1.54,1.54,0,0,0,1.4,0,.426.426,0,0,0,0-.806l-1.442-.831a1.543,1.543,0,0,0-1.4,0,.425.425,0,0,0,0,.806Zm3.607,2.083,1.44.832a1.545,1.545,0,0,0,1.4,0,.425.425,0,0,0,0-.806l-1.441-.831a1.545,1.545,0,0,0-1.4,0,.426.426,0,0,0,0,.805Zm3.607,2.083,1.441.83a1.542,1.542,0,0,0,1.4,0c.384-.221.382-.582,0-.806l-1.441-.83a1.54,1.54,0,0,0-1.4,0,.425.425,0,0,0,0,.8Zm3.608,2.083,1.441.83a1.546,1.546,0,0,0,1.4,0,.426.426,0,0,0,0-.807l-1.441-.83a1.542,1.542,0,0,0-1.4,0,.426.426,0,0,0,.005.806Zm3.683,2.126,1.44.832a1.545,1.545,0,0,0,1.4,0,.426.426,0,0,0,0-.806l-1.441-.831a1.545,1.545,0,0,0-1.4,0,.425.425,0,0,0,0,.8Zm-48.212-23.975,1.248.72a1.758,1.758,0,0,0,1.589,0l1.24-.716c.438-.253.435-.663,0-.918l-1.247-.72a1.757,1.757,0,0,0-1.59,0l-1.239.716c-.438.251-.436.662.005.916Zm6.445,2.8,1.24-.715a.485.485,0,0,0,0-.918l-1.248-.72a1.759,1.759,0,0,0-1.589,0l-1.24.716a.484.484,0,0,0,0,.917l1.248.721a1.758,1.758,0,0,0,1.589,0Zm.771,1.36,1.247.72a1.755,1.755,0,0,0,1.589,0l1.24-.716a.485.485,0,0,0-.005-.918l-1.247-.72a1.752,1.752,0,0,0-1.589,0l-1.24.716c-.438.251-.436.661,0,.916Zm3.606,2.083,1.248.721a1.757,1.757,0,0,0,1.59,0l1.24-.715a.485.485,0,0,0,0-.918l-1.248-.72a1.755,1.755,0,0,0-1.589,0l-1.24.716c-.437.25-.435.662.005.917Zm7.681,1.173-1.248-.72a1.755,1.755,0,0,0-1.589,0l-1.24.716a.485.485,0,0,0,0,.918l1.248.72a1.754,1.754,0,0,0,1.59,0l1.239-.716a.485.485,0,0,0,0-.919Zm3.607,2.082-1.247-.72a1.76,1.76,0,0,0-1.59,0l-1.24.716a.485.485,0,0,0,0,.918l1.248.72a1.752,1.752,0,0,0,1.589,0l1.24-.716a.485.485,0,0,0-.005-.919Zm3.608,2.083-1.247-.72a1.76,1.76,0,0,0-1.59,0l-1.24.716a.484.484,0,0,0,0,.917l1.247.721a1.757,1.757,0,0,0,1.59,0l1.24-.716a.486.486,0,0,0-.005-.92Zm3.607,2.084-1.248-.721a1.753,1.753,0,0,0-1.588,0l-1.24.716a.485.485,0,0,0,0,.918l1.248.72a1.758,1.758,0,0,0,1.589,0l1.24-.716a.486.486,0,0,0,0-.92Zm3.608,2.082-1.248-.72a1.76,1.76,0,0,0-1.59,0l-1.239.716a.484.484,0,0,0,0,.917l1.248.721a1.755,1.755,0,0,0,1.589,0l1.24-.715a.485.485,0,0,0,0-.919Zm3.607,2.083-1.247-.72a1.754,1.754,0,0,0-1.59,0l-1.24.716a.484.484,0,0,0,0,.917l1.248.72a1.755,1.755,0,0,0,1.589,0l1.24-.716a.486.486,0,0,0-.005-.92Zm-.464,2.993,1.248.72a1.752,1.752,0,0,0,1.589,0l1.24-.715a.485.485,0,0,0-.005-.918l-1.248-.72a1.752,1.752,0,0,0-1.589,0l-1.24.716c-.437.25-.435.661,0,.915Zm7.68,1.173-1.247-.721a1.757,1.757,0,0,0-1.59,0l-1.24.716a.485.485,0,0,0,.005.918l1.248.72a1.758,1.758,0,0,0,1.589,0l1.24-.716a.486.486,0,0,0-.006-.919Zm5.284,3.05-2.849-1.645a1.758,1.758,0,0,0-1.589,0l-1.24.716a.484.484,0,0,0,0,.917l2.848,1.645a1.754,1.754,0,0,0,1.59,0l1.24-.716a.486.486,0,0,0-.006-.919Zm-52.378-23.122,2.848,1.645a1.76,1.76,0,0,0,1.59,0l1.239-.716a.484.484,0,0,0,0-.918l-2.848-1.645a1.758,1.758,0,0,0-1.589,0l-1.24.716a.483.483,0,0,0,0,.916Zm5.208,3.007,1.248.72a1.752,1.752,0,0,0,1.589,0l1.24-.716a.484.484,0,0,0-.005-.917l-1.247-.72a1.757,1.757,0,0,0-1.59,0l-1.24.716a.483.483,0,0,0,0,.916Zm4.855,2.8a1.754,1.754,0,0,0,1.59,0l1.24-.716a.484.484,0,0,0-.005-.917l-1.247-.72a1.754,1.754,0,0,0-1.59,0l-1.24.716a.484.484,0,0,0,0,.917Zm3.608,2.083a1.757,1.757,0,0,0,1.59,0l1.239-.716a.485.485,0,0,0,0-.918l-1.247-.721a1.757,1.757,0,0,0-1.59,0l-1.24.715a.485.485,0,0,0,.005.918Zm3.595-.271-1.242.715a.484.484,0,0,0,0,.917l1.248.721a1.756,1.756,0,0,0,1.588,0l1.24-.716a.484.484,0,0,0,0-.917l-1.248-.721a1.754,1.754,0,0,0-1.59,0Zm3.683,2.039-1.392.8a.438.438,0,0,0,.005.83l1.4.809a1.589,1.589,0,0,0,1.437,0l1.392-.8a.438.438,0,0,0,0-.83l-1.4-.809a1.59,1.59,0,0,0-1.439,0Zm3.608,2.083-1.392.8a.437.437,0,0,0,0,.83l1.4.808a1.587,1.587,0,0,0,1.436,0l1.393-.8a.439.439,0,0,0,0-.831l-1.4-.808a1.587,1.587,0,0,0-1.439,0Zm3.608,2.083-1.393.8a.438.438,0,0,0,0,.83l1.4.809a1.587,1.587,0,0,0,1.436,0l1.393-.8a.438.438,0,0,0,.273-.555.433.433,0,0,0-.278-.275l-1.4-.81a1.59,1.59,0,0,0-1.439,0Zm3.607,2.083-1.392.8a.437.437,0,0,0,0,.83l1.4.808a1.586,1.586,0,0,0,1.436,0l1.393-.8a.438.438,0,0,0,.273-.555.433.433,0,0,0-.278-.275l-1.4-.81a1.592,1.592,0,0,0-1.44,0Zm3.608,2.083-1.393.8a.439.439,0,0,0,.005.831l1.4.808a1.586,1.586,0,0,0,1.436,0l1.393-.8a.438.438,0,0,0,0-.83l-1.4-.809a1.589,1.589,0,0,0-1.44,0Zm5.057,4.527,1.392-.8a.438.438,0,0,0,0-.83l-1.4-.809a1.585,1.585,0,0,0-1.437,0l-1.392.8a.437.437,0,0,0,0,.83l1.4.809a1.587,1.587,0,0,0,1.433,0Zm3.607,2.083,1.393-.8a.438.438,0,0,0,.273-.555.433.433,0,0,0-.278-.275l-1.4-.81a1.592,1.592,0,0,0-1.437,0l-1.391.8a.437.437,0,0,0,0,.83l1.4.809a1.589,1.589,0,0,0,1.434,0Zm5.071.492-1.4-.808a1.587,1.587,0,0,0-1.436,0l-1.393.8a.437.437,0,0,0,0,.83l1.4.809a1.583,1.583,0,0,0,1.436,0l1.392-.8a.439.439,0,0,0-.007-.832Zm-52.533-23.21,4.523,2.612a1.59,1.59,0,0,0,1.436,0l1.393-.8a.437.437,0,0,0,0-.83l-4.523-2.612a1.584,1.584,0,0,0-1.436,0l-1.393.8a.438.438,0,0,0,0,.829Zm6.729,3.886,1.4.808a1.589,1.589,0,0,0,1.437,0l1.392-.8a.439.439,0,0,0,0-.831l-1.4-.808a1.589,1.589,0,0,0-1.437,0l-1.392.8a.438.438,0,0,0,0,.829Zm3.608,2.083,1.4.808a1.587,1.587,0,0,0,1.436,0l1.392-.8a.438.438,0,0,0,0-.83l-1.4-.809a1.587,1.587,0,0,0-1.436,0l-1.392.8a.438.438,0,0,0,0,.829Zm3.608,2.082,1.4.809a1.587,1.587,0,0,0,1.436,0l1.393-.8a.437.437,0,0,0-.005-.83l-1.4-.81a1.584,1.584,0,0,0-1.436,0l-1.392.8a.438.438,0,0,0,0,.829ZM95.1,1229.5l1.393-.8a.438.438,0,0,0,0-.831l-1.4-.809a1.59,1.59,0,0,0-1.436,0l-1.393.8a.438.438,0,0,0,0,.83l1.4.809a1.589,1.589,0,0,0,1.434,0Zm3.608,2.083,1.393-.8a.438.438,0,0,0,0-.83l-1.4-.809a1.589,1.589,0,0,0-1.437,0l-1.392.8a.438.438,0,0,0,0,.83l1.4.809a1.586,1.586,0,0,0,1.433,0Zm3.608,2.082,1.392-.8a.438.438,0,0,0,0-.831l-1.4-.808a1.589,1.589,0,0,0-1.437,0l-1.392.8a.438.438,0,0,0,0,.83l1.4.808a1.587,1.587,0,0,0,1.433,0Zm3.607,2.083,1.392-.8a.437.437,0,0,0,0-.83l-1.4-.809a1.589,1.589,0,0,0-1.437,0l-1.392.8a.438.438,0,0,0,0,.831l1.4.809a1.592,1.592,0,0,0,1.434,0Zm3.608,2.083,1.392-.8a.438.438,0,0,0,0-.83l-1.4-.809a1.589,1.589,0,0,0-1.437,0l-1.392.8a.437.437,0,0,0,0,.83l1.4.81a1.59,1.59,0,0,0,1.433,0Zm3.607,2.083,1.392-.8a.438.438,0,0,0,0-.83l-1.4-.809a1.592,1.592,0,0,0-1.437,0l-1.391.8a.438.438,0,0,0,0,.831l1.4.808a1.584,1.584,0,0,0,1.433,0Zm.77,1.271,1.4.809a1.589,1.589,0,0,0,1.437,0l1.392-.8a.438.438,0,0,0,0-.83l-1.4-.809a1.587,1.587,0,0,0-1.436,0l-1.392.805a.437.437,0,0,0,0,.826Zm9.994,2.51-3.563-2.058a1.59,1.59,0,0,0-1.436,0l-1.393.8a.438.438,0,0,0,0,.83l3.563,2.058a1.59,1.59,0,0,0,1.436,0l1.392-.807a.438.438,0,0,0-.006-.829Zm-52.519-23.11,6.418,3.7a1.792,1.792,0,0,0,1.623,0l1.206-.7a.494.494,0,0,0,0-.936l-6.418-3.706a1.792,1.792,0,0,0-1.623,0l-1.207.7c-.449.255-.447.673,0,.934Zm8.812,5.085,1.213.7a1.792,1.792,0,0,0,1.623,0l1.207-.7a.494.494,0,0,0,0-.936l-1.214-.7a1.8,1.8,0,0,0-1.623,0l-1.207.7c-.449.258-.447.676,0,.936Zm3.607,2.083,1.214.7a1.792,1.792,0,0,0,1.623,0l1.207-.7a.5.5,0,0,0-.005-.937l-1.215-.7a1.787,1.787,0,0,0-1.622,0l-1.207.7c-.45.257-.447.676,0,.936Zm3.6,2.082,1.214.7a1.792,1.792,0,0,0,1.623,0l1.207-.7c.447-.258.444-.677,0-.937l-1.214-.7a1.792,1.792,0,0,0-1.623,0l-1.207.7A.494.494,0,0,0,87.406,1229.832Zm3.608,2.083,1.214.7a1.792,1.792,0,0,0,1.623,0l1.207-.7a.494.494,0,0,0,0-.936l-1.215-.7a1.8,1.8,0,0,0-1.623,0l-1.206.7c-.447.256-.445.676,0,.936ZM94.621,1234l1.215.7a1.79,1.79,0,0,0,1.622,0l1.207-.7a.494.494,0,0,0,0-.937l-1.214-.7a1.792,1.792,0,0,0-1.623,0l-1.207.7c-.447.257-.444.677.005.937Zm3.608,2.083,1.214.7a1.793,1.793,0,0,0,1.622,0l1.207-.7a.5.5,0,0,0-.005-.937l-1.214-.7a1.793,1.793,0,0,0-1.622,0l-1.207.7c-.448.258-.445.677,0,.936Zm3.608,2.082,1.213.7a1.792,1.792,0,0,0,1.623,0l1.207-.7a.494.494,0,0,0,0-.936l-1.214-.7a1.8,1.8,0,0,0-1.623,0l-1.207.7a.5.5,0,0,0,0,.938Zm3.607,2.084,1.214.7a1.792,1.792,0,0,0,1.623,0l1.206-.7a.5.5,0,0,0,0-.937l-1.215-.7a1.792,1.792,0,0,0-1.623,0l-1.206.7a.493.493,0,0,0,0,.935Zm3.607,2.082,1.215.7a1.793,1.793,0,0,0,1.622,0l1.207-.7a.494.494,0,0,0-.005-.936l-1.214-.7a1.8,1.8,0,0,0-1.623,0l-1.207.7c-.447.257-.445.677.005.937Zm3.608,2.083,1.214.7a1.792,1.792,0,0,0,1.623,0l1.207-.7a.5.5,0,0,0-.005-.937l-1.214-.7a1.8,1.8,0,0,0-1.623,0l-1.207.7a.494.494,0,0,0,0,.936Zm7.726,1.2-1.215-.7a1.793,1.793,0,0,0-1.622,0l-1.206.7a.5.5,0,0,0,0,.937l1.214.7a1.792,1.792,0,0,0,1.623,0l1.207-.7a.494.494,0,0,0-.006-.937ZM73.678,1222.5l-2.815-1.626a1.792,1.792,0,0,0-1.623,0l-1.207.7c-.447.258-.444.677.005.937l2.815,1.626a1.8,1.8,0,0,0,1.623,0l1.206-.7A.494.494,0,0,0,73.678,1222.5Zm3.607,2.083-1.214-.7a1.792,1.792,0,0,0-1.623,0l-1.207.7a.5.5,0,0,0,.006.937l1.214.7a1.793,1.793,0,0,0,1.622,0l1.207-.7A.494.494,0,0,0,77.285,1224.586Zm3.608,2.083-1.214-.7a1.792,1.792,0,0,0-1.623,0l-1.207.7a.494.494,0,0,0,0,.937l1.214.7a1.8,1.8,0,0,0,1.623,0l1.207-.7a.5.5,0,0,0-.005-.937Zm25.253,14.579-22.86-13.2a1.792,1.792,0,0,0-1.623,0l-1.206.7a.494.494,0,0,0,0,.937l22.858,13.2a1.8,1.8,0,0,0,1.623,0l1.207-.7A.5.5,0,0,0,106.146,1241.248Zm3.607,2.084-1.214-.7a1.792,1.792,0,0,0-1.623,0l-1.206.7a.5.5,0,0,0,0,.937l1.215.7a1.792,1.792,0,0,0,1.623,0l1.206-.7a.5.5,0,0,0-.005-.938Zm3.607,2.082-1.213-.7a1.8,1.8,0,0,0-1.623,0l-1.207.7a.5.5,0,0,0,0,.937l1.214.7a1.792,1.792,0,0,0,1.623,0l1.206-.7a.494.494,0,0,0,0-.937Zm3.683,2.126-1.214-.7a1.8,1.8,0,0,0-1.623,0l-1.207.7a.5.5,0,0,0,0,.937l1.214.7a1.8,1.8,0,0,0,1.623,0l1.206-.7a.494.494,0,0,0,0-.937Z" fill="#72b5e8"/>
        <path id="Path_86490-3" data-name="Path 86490" d="M84.711,1212.415l3.041,1.757a1.542,1.542,0,0,0,1.4,0,.425.425,0,0,0-.005-.806l-3.042-1.757a1.545,1.545,0,0,0-1.4,0,.426.426,0,0,0,.006.805Zm5.209,3.007,1.441.832a1.543,1.543,0,0,0,1.4,0,.426.426,0,0,0,0-.806l-1.441-.831a1.545,1.545,0,0,0-1.4,0,.425.425,0,0,0,0,.805Zm3.607,2.083,1.441.83a1.542,1.542,0,0,0,1.4,0,.425.425,0,0,0,0-.805l-1.442-.833a1.543,1.543,0,0,0-1.4,0,.427.427,0,0,0,0,.808Zm3.607,2.083,1.442.83a1.546,1.546,0,0,0,1.4,0,.426.426,0,0,0,0-.807l-1.441-.832a1.542,1.542,0,0,0-1.4,0,.426.426,0,0,0,.005.808Zm3.608,2.082,1.441.831a1.545,1.545,0,0,0,1.4,0,.425.425,0,0,0-.005-.806l-1.441-.83a1.542,1.542,0,0,0-1.4,0,.426.426,0,0,0,0,.806Zm3.608,2.083,1.441.833a1.545,1.545,0,0,0,1.4,0,.426.426,0,0,0-.005-.807l-1.441-.83a1.545,1.545,0,0,0-1.4,0,.425.425,0,0,0,0,.8Zm3.607,2.083,1.441.831a1.545,1.545,0,0,0,1.4,0,.425.425,0,0,0,0-.806l-1.441-.832a1.54,1.54,0,0,0-1.4,0,.425.425,0,0,0,0,.807Zm3.608,2.083,1.441.83a1.54,1.54,0,0,0,1.4,0,.425.425,0,0,0,0-.806l-1.441-.831a1.545,1.545,0,0,0-1.4,0,.425.425,0,0,0,.005.806Zm3.608,2.083,1.441.83a1.546,1.546,0,0,0,1.4,0,.427.427,0,0,0,0-.807l-1.442-.83a1.546,1.546,0,0,0-1.4,0,.426.426,0,0,0,0,.807Zm3.607,2.082,1.44.833a1.545,1.545,0,0,0,1.4,0,.426.426,0,0,0,0-.807l-1.441-.83a1.545,1.545,0,0,0-1.4,0,.425.425,0,0,0,0,.8Zm3.607,2.084,1.441.83a1.545,1.545,0,0,0,1.4,0,.425.425,0,0,0,0-.806l-1.441-.832a1.543,1.543,0,0,0-1.4,0,.426.426,0,0,0,0,.809ZM126,1236.25l1.441.831a1.543,1.543,0,0,0,1.4,0,.425.425,0,0,0,.264-.541.43.43,0,0,0-.268-.265l-1.441-.83a1.542,1.542,0,0,0-1.4,0,.426.426,0,0,0,.005.806Zm3.683,2.127,1.44.83a1.545,1.545,0,0,0,1.4,0,.426.426,0,0,0,0-.806l-1.441-.832a1.545,1.545,0,0,0-1.4,0,.425.425,0,0,0,0,.807ZM81.466,1214.4l1.248.72a1.758,1.758,0,0,0,1.589,0l1.24-.716a.484.484,0,0,0,0-.917l-1.247-.721a1.76,1.76,0,0,0-1.59,0l-1.239.716c-.438.251-.436.662.005.916Zm6.445,2.805,1.24-.715a.485.485,0,0,0,0-.918l-1.248-.72a1.758,1.758,0,0,0-1.589,0l-1.24.716a.484.484,0,0,0,0,.917l1.248.721a1.752,1.752,0,0,0,1.589,0Zm.771,1.36,1.247.721a1.755,1.755,0,0,0,1.589,0l1.24-.715a.485.485,0,0,0-.005-.918l-1.247-.721a1.758,1.758,0,0,0-1.589,0l-1.24.716c-.438.251-.436.662,0,.917Zm3.606,2.083,1.248.721a1.76,1.76,0,0,0,1.59,0l1.24-.716a.485.485,0,0,0,0-.918l-1.248-.72a1.755,1.755,0,0,0-1.589,0l-1.24.716a.483.483,0,0,0,.005.916Zm7.681,1.173-1.248-.72a1.752,1.752,0,0,0-1.589,0l-1.24.716a.484.484,0,0,0,0,.917l1.248.72a1.754,1.754,0,0,0,1.59,0l1.239-.716a.485.485,0,0,0,0-.919Zm3.607,2.083-1.247-.721a1.757,1.757,0,0,0-1.59,0l-1.24.715a.485.485,0,0,0,0,.918l1.248.72a1.755,1.755,0,0,0,1.589,0l1.24-.716a.486.486,0,0,0-.005-.92Zm3.608,2.083-1.247-.721a1.757,1.757,0,0,0-1.59,0l-1.24.715a.484.484,0,0,0,0,.918l1.247.72a1.754,1.754,0,0,0,1.59,0l1.24-.716a.485.485,0,0,0-.005-.919Zm3.607,2.083-1.248-.721a1.756,1.756,0,0,0-1.588,0l-1.24.716a.485.485,0,0,0,0,.918l1.248.72a1.758,1.758,0,0,0,1.589,0l1.24-.716a.486.486,0,0,0,0-.92Zm3.608,2.082-1.248-.72a1.76,1.76,0,0,0-1.59,0l-1.239.716a.484.484,0,0,0,0,.917l1.248.721a1.758,1.758,0,0,0,1.589,0l1.24-.716a.486.486,0,0,0,0-.92Zm3.607,2.083-1.247-.72a1.754,1.754,0,0,0-1.59,0l-1.24.716a.484.484,0,0,0,0,.917l1.248.72a1.755,1.755,0,0,0,1.589,0l1.24-.716a.486.486,0,0,0-.005-.92Zm-.464,2.993,1.248.72a1.752,1.752,0,0,0,1.589,0l1.24-.716a.484.484,0,0,0-.005-.917l-1.248-.721a1.755,1.755,0,0,0-1.589,0l-1.24.715c-.437.251-.435.662,0,.916Zm7.68,1.173-1.247-.721a1.76,1.76,0,0,0-1.59,0l-1.24.716a.485.485,0,0,0,.005.918l1.248.72a1.758,1.758,0,0,0,1.589,0l1.24-.716a.486.486,0,0,0-.006-.919Zm5.284,3.05-2.849-1.645a1.758,1.758,0,0,0-1.589,0l-1.24.716a.484.484,0,0,0,0,.917l2.848,1.645a1.754,1.754,0,0,0,1.59,0l1.24-.716a.485.485,0,0,0-.006-.919Zm-52.378-23.122,2.848,1.645a1.76,1.76,0,0,0,1.59,0l1.239-.716a.484.484,0,0,0,0-.918l-2.848-1.645a1.755,1.755,0,0,0-1.589,0l-1.24.715a.483.483,0,0,0,0,.916Zm5.208,3.007,1.248.721a1.755,1.755,0,0,0,1.589,0l1.24-.716a.484.484,0,0,0-.005-.917l-1.247-.72a1.757,1.757,0,0,0-1.59,0l-1.24.716c-.439.25-.437.662,0,.916Zm4.855,2.8a1.754,1.754,0,0,0,1.59,0l1.24-.716a.484.484,0,0,0-.005-.917l-1.247-.72a1.754,1.754,0,0,0-1.59,0l-1.24.716a.484.484,0,0,0,0,.917Zm3.608,2.083a1.757,1.757,0,0,0,1.59,0l1.239-.716a.485.485,0,0,0,0-.918l-1.247-.721a1.757,1.757,0,0,0-1.59,0l-1.24.715a.485.485,0,0,0,.005.918Zm3.595-.271-1.242.715a.485.485,0,0,0,0,.918l1.248.72a1.756,1.756,0,0,0,1.588,0l1.24-.716a.484.484,0,0,0,0-.917l-1.248-.721a1.757,1.757,0,0,0-1.59,0Zm3.683,2.039-1.392.8a.438.438,0,0,0,.005.83l1.4.809a1.589,1.589,0,0,0,1.437,0l1.392-.8a.438.438,0,0,0,0-.83l-1.4-.809a1.587,1.587,0,0,0-1.439,0Zm3.608,2.083-1.392.8a.437.437,0,0,0,0,.83l1.4.808a1.587,1.587,0,0,0,1.436,0l1.393-.8a.439.439,0,0,0,0-.831l-1.4-.808a1.587,1.587,0,0,0-1.439,0Zm3.608,2.083-1.393.8a.438.438,0,0,0,0,.83l1.4.81a1.59,1.59,0,0,0,1.436,0l1.393-.8a.438.438,0,0,0-.005-.83l-1.4-.81a1.587,1.587,0,0,0-1.439,0Zm3.607,2.083-1.392.8a.437.437,0,0,0,0,.83l1.4.809a1.587,1.587,0,0,0,1.436,0l1.393-.8a.438.438,0,0,0,0-.831l-1.4-.809a1.592,1.592,0,0,0-1.44,0Zm3.608,2.083-1.393.8a.439.439,0,0,0,.005.831l1.4.808a1.587,1.587,0,0,0,1.436,0l1.393-.8a.438.438,0,0,0,0-.83l-1.4-.809a1.589,1.589,0,0,0-1.44,0Zm5.057,4.527,1.392-.8a.438.438,0,0,0,0-.83l-1.4-.809a1.592,1.592,0,0,0-1.437,0l-1.392.8a.438.438,0,0,0,0,.831l1.4.808a1.586,1.586,0,0,0,1.433,0Zm3.607,2.083,1.393-.8a.438.438,0,0,0,.273-.555.433.433,0,0,0-.278-.275l-1.4-.81a1.592,1.592,0,0,0-1.437,0l-1.391.8a.437.437,0,0,0,0,.83l1.4.81a1.589,1.589,0,0,0,1.434,0Zm5.071.493-1.4-.809a1.587,1.587,0,0,0-1.436,0l-1.393.8a.438.438,0,0,0,0,.83l1.4.809a1.587,1.587,0,0,0,1.436,0l1.392-.8a.438.438,0,0,0-.007-.832ZM74.71,1218.215l4.523,2.612a1.587,1.587,0,0,0,1.436,0l1.393-.8a.437.437,0,0,0,0-.83l-4.523-2.612a1.59,1.59,0,0,0-1.436,0l-1.393.8a.438.438,0,0,0,0,.829Zm6.729,3.886,1.4.809a1.592,1.592,0,0,0,1.437,0l1.392-.8a.439.439,0,0,0,0-.831l-1.4-.809a1.587,1.587,0,0,0-1.436,0l-1.393.8a.437.437,0,0,0,0,.829Zm3.608,2.083,1.4.808a1.586,1.586,0,0,0,1.436,0l1.392-.8a.438.438,0,0,0,0-.83l-1.4-.808a1.587,1.587,0,0,0-1.436,0l-1.392.8a.438.438,0,0,0,0,.828Zm3.608,2.082,1.4.81a1.59,1.59,0,0,0,1.436,0l1.393-.8a.437.437,0,0,0-.005-.83l-1.4-.81a1.587,1.587,0,0,0-1.436,0l-1.392.8a.438.438,0,0,0,0,.829Zm6.444,2.9,1.393-.8a.438.438,0,0,0,0-.831l-1.4-.808a1.587,1.587,0,0,0-1.436,0l-1.393.8a.438.438,0,0,0,0,.83l1.4.809a1.589,1.589,0,0,0,1.434,0Zm3.608,2.083,1.393-.8a.438.438,0,0,0,0-.83l-1.4-.809a1.589,1.589,0,0,0-1.437,0l-1.392.8a.438.438,0,0,0,0,.83l1.4.809a1.586,1.586,0,0,0,1.433,0Zm3.608,2.082,1.392-.8a.438.438,0,0,0,0-.831l-1.4-.808a1.589,1.589,0,0,0-1.437,0l-1.392.8a.438.438,0,0,0,0,.831l1.4.808a1.586,1.586,0,0,0,1.433,0Zm3.607,2.084,1.392-.805a.437.437,0,0,0,0-.83l-1.4-.809a1.586,1.586,0,0,0-1.437,0l-1.392.8a.438.438,0,0,0,0,.831l1.4.809a1.592,1.592,0,0,0,1.434,0Zm3.608,2.082,1.392-.8a.438.438,0,0,0,0-.83l-1.4-.809a1.589,1.589,0,0,0-1.437,0l-1.392.8a.438.438,0,0,0,0,.83l1.4.809a1.586,1.586,0,0,0,1.433,0Zm3.607,2.083,1.39-.8a.438.438,0,0,0,0-.83l-1.4-.809a1.587,1.587,0,0,0-1.436,0l-1.392.8a.438.438,0,0,0,0,.83l1.4.809a1.587,1.587,0,0,0,1.436,0Zm.767,1.271,1.4.808a1.589,1.589,0,0,0,1.437,0l1.392-.8a.437.437,0,0,0,0-.83l-1.4-.809a1.589,1.589,0,0,0-1.437,0l-1.392.8a.438.438,0,0,0,0,.831Zm10,2.509-3.564-2.057a1.59,1.59,0,0,0-1.436,0l-1.393.8a.438.438,0,0,0,.005.83l3.563,2.057a1.589,1.589,0,0,0,1.437,0l1.394-.806a.438.438,0,0,0-.006-.829Zm-52.52-23.11,6.419,3.706a1.793,1.793,0,0,0,1.622,0l1.207-.7a.5.5,0,0,0,0-.937l-6.418-3.706a1.8,1.8,0,0,0-1.623,0l-1.206.7a.493.493,0,0,0,0,.935Zm8.812,5.086,1.214.7a1.792,1.792,0,0,0,1.623,0l1.206-.7a.494.494,0,0,0-.005-.937l-1.214-.7a1.792,1.792,0,0,0-1.623,0l-1.207.7c-.446.257-.444.676.006.936Zm3.607,2.082,1.214.7a1.8,1.8,0,0,0,1.623,0l1.207-.7a.5.5,0,0,0-.005-.937l-1.214-.7a1.792,1.792,0,0,0-1.623,0l-1.207.7a.5.5,0,0,0,0,.937Zm3.608,2.083,1.214.7a1.792,1.792,0,0,0,1.623,0l1.207-.7a.5.5,0,0,0,0-.937l-1.215-.7a1.8,1.8,0,0,0-1.623,0l-1.206.7a.494.494,0,0,0,0,.936Zm3.607,2.083,1.215.7a1.79,1.79,0,0,0,1.622,0l1.207-.7a.494.494,0,0,0,0-.937l-1.214-.7a1.8,1.8,0,0,0-1.623,0l-1.207.7a.5.5,0,0,0,0,.937Zm3.608,2.083,1.214.7a1.792,1.792,0,0,0,1.623,0l1.207-.7a.5.5,0,0,0-.006-.937l-1.213-.7a1.8,1.8,0,0,0-1.623,0l-1.207.7c-.447.257-.444.676.005.936Zm3.608,2.083,1.214.7a1.8,1.8,0,0,0,1.622,0l1.207-.7a.5.5,0,0,0-.005-.937l-1.214-.7a1.792,1.792,0,0,0-1.623,0l-1.206.7c-.448.258-.445.676,0,.937Zm3.607,2.083,1.214.7a1.8,1.8,0,0,0,1.623,0l1.207-.7a.494.494,0,0,0,0-.937l-1.214-.7a1.8,1.8,0,0,0-1.623,0l-1.207.7c-.448.257-.445.676,0,.936Zm3.607,2.083,1.215.7a1.794,1.794,0,0,0,1.622,0l1.207-.7a.494.494,0,0,0,0-.937l-1.214-.7a1.792,1.792,0,0,0-1.623,0l-1.207.7c-.446.256-.444.676,0,.936Zm3.608,2.082,1.214.7a1.8,1.8,0,0,0,1.623,0l1.207-.7a.5.5,0,0,0-.005-.937l-1.214-.7a1.792,1.792,0,0,0-1.623,0l-1.207.7c-.447.258-.445.676.005.936Zm3.608,2.083,1.213.7a1.792,1.792,0,0,0,1.623,0l1.206-.7a.5.5,0,0,0,0-.937l-1.215-.7a1.792,1.792,0,0,0-1.623,0l-1.206.7a.5.5,0,0,0,.006.937Zm7.725,1.2-1.214-.7a1.793,1.793,0,0,0-1.622,0l-1.207.7a.494.494,0,0,0,0,.937l1.214.7a1.792,1.792,0,0,0,1.623,0l1.206-.7c.448-.258.445-.678,0-.938Zm-46.706-23.108-2.815-1.626a1.792,1.792,0,0,0-1.623,0l-1.207.7a.5.5,0,0,0,.005.937l2.815,1.626a1.792,1.792,0,0,0,1.623,0l1.206-.7A.494.494,0,0,0,73.678,1222.167Zm3.607,2.082-1.214-.7a1.792,1.792,0,0,0-1.623,0l-1.207.7a.494.494,0,0,0,.006.936l1.214.7a1.793,1.793,0,0,0,1.622,0l1.207-.7c.447-.257.445-.677,0-.937Zm3.608,2.084-1.214-.7a1.792,1.792,0,0,0-1.623,0l-1.207.7a.494.494,0,0,0,0,.937l1.214.7a1.792,1.792,0,0,0,1.623,0l1.207-.7a.5.5,0,0,0-.005-.938Zm25.253,14.579-22.86-13.2a1.792,1.792,0,0,0-1.623,0l-1.206.7a.494.494,0,0,0,0,.937l22.858,13.2a1.792,1.792,0,0,0,1.623,0l1.207-.7c.447-.256.445-.675,0-.935Zm3.607,2.083-1.214-.7a1.792,1.792,0,0,0-1.623,0l-1.206.7a.494.494,0,0,0,0,.936l1.215.7a1.8,1.8,0,0,0,1.623,0l1.206-.7a.494.494,0,0,0-.005-.937Zm3.607,2.083-1.213-.7a1.792,1.792,0,0,0-1.623,0l-1.207.7a.494.494,0,0,0,0,.936l1.214.7a1.792,1.792,0,0,0,1.623,0l1.206-.7a.494.494,0,0,0,0-.937Zm3.683,2.126-1.214-.7a1.792,1.792,0,0,0-1.623,0l-1.207.7a.494.494,0,0,0,0,.936l1.214.7a1.8,1.8,0,0,0,1.623,0l1.207-.7a.494.494,0,0,0,0-.937Z" fill="#00223d"/>
        <g id="Group_35151-3" data-name="Group 35151">
          <path id="Path_86491-3" data-name="Path 86491" d="M136.753,1237.326l-47.789-27.607a8.023,8.023,0,0,1-3.35-6.4v-37.49c0-2.467,1.5-3.6,3.35-2.533l47.789,27.608a8.023,8.023,0,0,1,3.35,6.4v37.489C140.1,1237.261,138.6,1238.4,136.753,1237.326Z" fill="url(#linear-gradient-8)"/>
          <path id="Path_86492-3" data-name="Path 86492" d="M137.184,1235.4l-47.278-27.31a5.7,5.7,0,0,1-2.41-4.772v-37.67a.595.595,0,0,1,.894-.512l.1.061,47.317,27.336a5.154,5.154,0,0,1,2.41,4.773v37.582a.643.643,0,0,1-.642.641.63.63,0,0,1-.317-.085Z" fill="url(#linear-gradient-9)"/>
          <path id="Path_86493-3" data-name="Path 86493" d="M135.812,1192.533,88.5,1165.2l-.1-.061a.593.593,0,0,0-.894.512v37.671a5.7,5.7,0,0,0,2.41,4.772l47.277,27.308.079.044a.641.641,0,0,0,.959-.556V1197.3A5.151,5.151,0,0,0,135.812,1192.533Zm2.033,42.355a.265.265,0,0,1-.4.23l-47.356-27.353a5.312,5.312,0,0,1-2.221-4.447v-37.67a.219.219,0,0,1,.219-.218.221.221,0,0,1,.109.031l47.424,27.4a4.858,4.858,0,0,1,2.222,4.446Z" fill="#022652"/>
          <path id="Path_86494-3" data-name="Path 86494" d="M137.7,1190.4l-47.79-27.607a2.262,2.262,0,0,0-1.959-.288c-.07.027-1,.523-1.07.56h0a2.2,2.2,0,0,1,2.085.23l47.788,27.608a8.02,8.02,0,0,1,3.35,6.4v37.492c0,1.54-.584,2.56-1.473,2.85a.551.551,0,0,0,.293-.1c.043-.024,1.057-.6,1.1-.624a3.093,3.093,0,0,0,1.033-2.63V1196.8A8.026,8.026,0,0,0,137.7,1190.4Z" fill="#00223d"/>
          <path id="Path_86495-3" data-name="Path 86495" d="M137.7,1190.4l-47.79-27.607a2.262,2.262,0,0,0-1.959-.288c-.07.027-1,.523-1.07.56h0a2.2,2.2,0,0,1,2.085.23l47.788,27.608Z" fill="#00223d"/>
          <path id="Path_86496-3" data-name="Path 86496" d="M136.914,1190.823l-47.789-27.608a2.225,2.225,0,0,0-2.018-.258,2.475,2.475,0,0,1,1.616.379l47.789,27.607a8.023,8.023,0,0,1,3.35,6.4v37.49c0,1.455-.524,2.441-1.332,2.791,1.033-.165,1.734-1.227,1.734-2.912v-37.489A8.027,8.027,0,0,0,136.914,1190.823Z" fill="#fff"/>
        </g>
      </g>
    </g>
    <g id="Grupo_55746" data-name="Grupo 55746" transform="translate(799 8830.5)">
      <path id="Trazado_124249" data-name="Trazado 124249" d="M1.073,12V2.758H4.094a3.507,3.507,0,0,1,2.263.622,2.242,2.242,0,0,1,.759,1.841,1.877,1.877,0,0,1-.368,1.146,2.387,2.387,0,0,1-1,.771,2.143,2.143,0,0,1,1.184.8,2.286,2.286,0,0,1,.435,1.4,2.472,2.472,0,0,1-.806,1.955A3.334,3.334,0,0,1,4.278,12ZM2.292,7.677V11H4.3a1.938,1.938,0,0,0,1.343-.441,1.549,1.549,0,0,0,.492-1.216q0-1.669-1.815-1.669Zm0-.978H4.132a1.93,1.93,0,0,0,1.279-.4,1.344,1.344,0,0,0,.479-1.088A1.321,1.321,0,0,0,5.446,4.1a2.182,2.182,0,0,0-1.352-.347h-1.8Zm10.931,4.621a2.494,2.494,0,0,1-2.012.806,2.135,2.135,0,0,1-1.673-.638A2.761,2.761,0,0,1,8.957,9.6V5.132h1.174V9.569q0,1.562,1.27,1.562a1.758,1.758,0,0,0,1.79-1v-5h1.174V12H13.248Zm6.925-1.143a.864.864,0,0,0-.359-.74,3.452,3.452,0,0,0-1.25-.454,5.912,5.912,0,0,1-1.416-.457,2.014,2.014,0,0,1-.774-.635,1.518,1.518,0,0,1-.251-.876,1.782,1.782,0,0,1,.714-1.428A2.789,2.789,0,0,1,18.637,5a2.87,2.87,0,0,1,1.895.6,1.915,1.915,0,0,1,.727,1.542H20.078a1.06,1.06,0,0,0-.409-.832,1.534,1.534,0,0,0-1.031-.349,1.606,1.606,0,0,0-1,.279.879.879,0,0,0-.362.73.712.712,0,0,0,.336.641,4.139,4.139,0,0,0,1.216.413,6.334,6.334,0,0,1,1.425.47,2.079,2.079,0,0,1,.809.657,1.615,1.615,0,0,1,.263.936,1.758,1.758,0,0,1-.736,1.476,3.089,3.089,0,0,1-1.911.555,3.459,3.459,0,0,1-1.46-.292,2.375,2.375,0,0,1-.993-.816,1.966,1.966,0,0,1-.359-1.133h1.174a1.216,1.216,0,0,0,.473.936,1.835,1.835,0,0,0,1.165.346,1.894,1.894,0,0,0,1.07-.27A.829.829,0,0,0,20.147,10.178Z" transform="translate(192.667 7838)" fill="#12263f"/>
      <rect id="Rectángulo_27413" data-name="Rectángulo 27413" width="4" height="21" transform="translate(179.667 7837)" fill="#37a3a5"/>
    </g>
  </g>
</svg>
