<svg xmlns="http://www.w3.org/2000/svg" xmlns:xlink="http://www.w3.org/1999/xlink" width="428.488" height="323.746" viewBox="0 0 428.488 323.746">
  <defs>
    <linearGradient id="linear-gradient" x1="-165.734" y1="-212.319" x2="-165.734" y2="-212.344" gradientUnits="objectBoundingBox">
      <stop offset="0" stop-color="#fff"/>
      <stop offset="1" stop-color="#d2e6ee"/>
    </linearGradient>
    <linearGradient id="linear-gradient-2" x1="-1828.522" y1="-1587.104" x2="-1828.522" y2="-1587.267" xlink:href="#linear-gradient"/>
    <linearGradient id="linear-gradient-3" x1="-1831.505" y1="-1587.245" x2="-1831.505" y2="-1587.407" xlink:href="#linear-gradient"/>
    <linearGradient id="linear-gradient-4" x1="-1832.022" y1="-1585.816" x2="-1832.022" y2="-1585.979" xlink:href="#linear-gradient"/>
    <linearGradient id="linear-gradient-5" x1="-1833.591" y1="-1586.947" x2="-1833.591" y2="-1587.109" xlink:href="#linear-gradient"/>
    <linearGradient id="linear-gradient-6" x1="-1836.754" y1="-1584.983" x2="-1836.754" y2="-1585.145" xlink:href="#linear-gradient"/>
    <linearGradient id="linear-gradient-7" x1="-1838.032" y1="-1585.119" x2="-1838.032" y2="-1585.281" xlink:href="#linear-gradient"/>
    <linearGradient id="linear-gradient-8" x1="-1840.076" y1="-1584" x2="-1840.076" y2="-1584.162" xlink:href="#linear-gradient"/>
    <linearGradient id="linear-gradient-9" x1="-762.701" y1="-222.909" x2="-762.701" y2="-222.936" xlink:href="#linear-gradient"/>
    <linearGradient id="linear-gradient-10" x1="-659.327" y1="-173.816" x2="-659.327" y2="-173.837" xlink:href="#linear-gradient"/>
    <linearGradient id="linear-gradient-11" x1="-765.047" y1="-222.812" x2="-765.047" y2="-222.838" xlink:href="#linear-gradient"/>
    <linearGradient id="linear-gradient-12" x1="-87.041" y1="-152.566" x2="-87.041" y2="-152.585" xlink:href="#linear-gradient"/>
    <linearGradient id="linear-gradient-13" x1="-167.117" y1="-127.399" x2="-167.117" y2="-127.408" xlink:href="#linear-gradient"/>
    <linearGradient id="linear-gradient-14" x1="-119.094" y1="-200.414" x2="-119.094" y2="-200.427" xlink:href="#linear-gradient"/>
    <linearGradient id="linear-gradient-15" x1="-293.162" y1="-96.738" x2="-293.162" y2="-96.749" xlink:href="#linear-gradient"/>
    <linearGradient id="linear-gradient-16" x1="-136.431" y1="-78.711" x2="-136.431" y2="-78.72" xlink:href="#linear-gradient"/>
    <linearGradient id="linear-gradient-17" x1="-92.745" y1="-79.193" x2="-92.736" y2="-79.193" gradientUnits="objectBoundingBox">
      <stop offset="0" stop-color="#c0bff6"/>
      <stop offset="0.294" stop-color="#c4c3f6"/>
      <stop offset="0.64" stop-color="#d2d2f9"/>
      <stop offset="1" stop-color="#e9e9fd"/>
    </linearGradient>
    <linearGradient id="linear-gradient-18" x1="-65.363" y1="-116.348" x2="-65.356" y2="-116.348" xlink:href="#linear-gradient"/>
    <linearGradient id="linear-gradient-19" x1="-252.306" y1="-472.922" x2="-252.281" y2="-472.922" xlink:href="#linear-gradient-17"/>
    <clipPath id="clip-path">
      <path id="Trazado_118875" data-name="Trazado 118875" d="M4260.424,4731.883l55.592,32.1-6.894,40.642-55.556-32.074Z" transform="translate(-4253.566 -4731.883)" fill="none"/>
    </clipPath>
    <linearGradient id="linear-gradient-20" x1="-65.753" y1="-115.973" x2="-65.747" y2="-115.973" xlink:href="#linear-gradient-17"/>
    <linearGradient id="linear-gradient-21" x1="-254.912" y1="-470.67" x2="-254.887" y2="-470.67" xlink:href="#linear-gradient-17"/>
    <linearGradient id="linear-gradient-22" x1="-94.707" y1="-79.893" x2="-94.698" y2="-79.893" xlink:href="#linear-gradient-17"/>
    <linearGradient id="linear-gradient-23" x1="-66.754" y1="-117.371" x2="-66.748" y2="-117.371" xlink:href="#linear-gradient"/>
    <linearGradient id="linear-gradient-24" x1="-257.641" y1="-477.017" x2="-257.616" y2="-477.017" xlink:href="#linear-gradient-17"/>
    <clipPath id="clip-path-2">
      <path id="Trazado_118876" data-name="Trazado 118876" d="M4358.116,4772.591l55.593,32.1-6.895,40.641-55.555-32.072Z" transform="translate(-4351.26 -4772.591)" fill="none"/>
    </clipPath>
    <linearGradient id="linear-gradient-25" x1="-67.144" y1="-116.995" x2="-67.138" y2="-116.995" xlink:href="#linear-gradient-17"/>
    <linearGradient id="linear-gradient-26" x1="-260.254" y1="-474.788" x2="-260.229" y2="-474.788" xlink:href="#linear-gradient-17"/>
  </defs>
  <g id="Grupo_63418" data-name="Grupo 63418" transform="translate(-917.667 -17092.5)">
    <g id="Grupo_55744" data-name="Grupo 55744" transform="translate(-3308.028 12489.492)">
      <g id="Group_41936" data-name="Group 41936" transform="translate(4229.884 4662.445)">
        <path id="Path_95342" data-name="Path 95342" d="M4590.535,4862.914c-82.751,47.778-216.917,47.778-299.67,0s-82.754-125.237,0-173.015,216.919-47.771,299.67,0S4673.287,4815.135,4590.535,4862.914Z" transform="translate(-4228.799 -4654.068)" fill="none" stroke="#e8e8e8" stroke-linecap="round" stroke-linejoin="round" stroke-width="1"/>
        <path id="Path_95343" data-name="Path 95343" d="M4547.783,4838.231c-65.469,37.8-171.615,37.8-237.087,0s-65.472-99.083,0-136.883,171.618-37.8,237.087,0S4613.248,4800.432,4547.783,4838.231Z" transform="translate(-4217.339 -4647.452)" fill="none" stroke="#e8e8e8" stroke-linecap="round" stroke-linejoin="round" stroke-width="2"/>
        <path id="Path_95344" data-name="Path 95344" d="M4507.267,4814.839c-49.091,28.339-128.684,28.339-177.777,0s-49.092-74.294,0-102.64,128.686-28.338,177.777,0S4556.359,4786.5,4507.267,4814.839Z" transform="translate(-4206.479 -4641.182)" fill="none" stroke="#e8e8e8" stroke-linecap="round" stroke-linejoin="round" stroke-width="3"/>
        <path id="Path_95345" data-name="Path 95345" d="M4471.232,4794.037c-34.524,19.932-90.5,19.932-125.025,0s-34.527-52.252,0-72.185,90.5-19.934,125.025,0S4505.759,4774.1,4471.232,4794.037Z" transform="translate(-4196.819 -4635.605)" fill="none" stroke="#e8e8e8" stroke-linecap="round" stroke-linejoin="round" stroke-width="4"/>
        <path id="Path_95346" data-name="Path 95346" d="M4437.633,4774.638c-20.943,12.092-54.9,12.092-75.839,0s-20.943-31.7,0-43.789,54.9-12.092,75.839,0S4458.577,4762.547,4437.633,4774.638Z" transform="translate(-4187.813 -4630.405)" fill="none" stroke="#e8e8e8" stroke-linecap="round" stroke-linejoin="round" stroke-width="5"/>
      </g>
      <ellipse id="Elipse_3830" data-name="Elipse 3830" cx="193.025" cy="100.825" rx="193.025" ry="100.825" transform="translate(4252.499 4683.763)" fill="none" stroke="#00223d" stroke-linecap="round" stroke-linejoin="round" stroke-width="3"/>
      <g id="Group_41943" data-name="Group 41943" transform="translate(4263.704 4661.408)">
        <path id="Path_95404" data-name="Path 95404" d="M4288.25,4701.877l-31.885-18.409a5.089,5.089,0,0,1-1.695-1.744,2.05,2.05,0,0,1-.81.236v6.456a5.543,5.543,0,0,0,2.5,4.34l31.885,18.408c1.383.8,2.5-.24,2.5-1.837v-8.9C4290.755,4702.026,4289.634,4702.676,4288.25,4701.877Z" transform="translate(-4253.861 -4643.366)" fill="url(#linear-gradient)"/>
        <path id="Path_95405" data-name="Path 95405" d="M4315.9,4681.889h-.687a5.162,5.162,0,0,1-1.8,1.92l-31.885,17.307c-1.383.8-2.5,1.253-2.5-.346v8.89c0,1.6,1.117,2.244,2.5,1.447l31.883-18.408a5.543,5.543,0,0,0,2.507-4.34v-6.473Z" transform="translate(-4245.066 -4643.31)" fill="#e1eef2"/>
        <path id="Path_95406" data-name="Path 95406" d="M4309.3,4690.446l-26.375,15.228v-4.689l26.375-15.229Z" transform="translate(-4243.705 -4641.957)" fill="#00223d"/>
        <g id="Group_41941" data-name="Group 41941" transform="translate(40.092 45.012)">
          <path id="Path_95407" data-name="Path 95407" d="M4283.571,4700.438l.711-.411.055.555,1.033-.6.056-.619.713-.411v-2.963l-2.568,1.481Z" transform="translate(-4283.571 -4683.392)" fill="url(#linear-gradient-2)"/>
          <path id="Path_95408" data-name="Path 95408" d="M4286.266,4698.879l.712-.412.056.556,1.032-.6.056-.618.711-.412v-2.962l-2.566,1.48Z" transform="translate(-4282.629 -4683.936)" fill="url(#linear-gradient-3)"/>
          <path id="Path_95409" data-name="Path 95409" d="M4288.963,4697.325l.711-.41.057.555,1.033-.6.055-.619.712-.41v-2.965l-2.567,1.481Z" transform="translate(-4281.687 -4684.479)" fill="url(#linear-gradient-4)"/>
          <path id="Path_95410" data-name="Path 95410" d="M4291.656,4695.77l.711-.412.057.555,1.034-.6.053-.618.713-.412v-2.96l-2.568,1.481Z" transform="translate(-4280.746 -4685.022)" fill="url(#linear-gradient-5)"/>
          <path id="Path_95411" data-name="Path 95411" d="M4294.351,4694.214l.711-.412.055.556,1.034-.6.055-.619.711-.411v-2.964l-2.566,1.482Z" transform="translate(-4279.804 -4685.567)" fill="url(#linear-gradient-6)"/>
          <path id="Path_95412" data-name="Path 95412" d="M4297.046,4692.657l.711-.41.055.553,1.034-.6.056-.618.711-.41v-2.965l-2.567,1.481Z" transform="translate(-4278.862 -4686.111)" fill="url(#linear-gradient-7)"/>
          <path id="Path_95413" data-name="Path 95413" d="M4299.741,4688.137v2.965l.711-.412.055.556,1.034-.6.056-.62.711-.41v-2.965Z" transform="translate(-4277.92 -4686.655)" fill="url(#linear-gradient-8)"/>
        </g>
        <path id="Path_95414" data-name="Path 95414" d="M4260.913,4674.056l-3.227-12.509c-.086-.333-.539-.521-1.018-.435s-.837.424-.8.766l1.4,12.843a3.51,3.51,0,0,0,.128.632l2.271,12.451a1.839,1.839,0,0,0,3.618-.66h0l-2.271-12.451A3.618,3.618,0,0,0,4260.913,4674.056Z" transform="translate(-4253.159 -4650.577)" fill="url(#linear-gradient-9)"/>
        <g id="Group_41942" data-name="Group 41942" transform="translate(4.089 23.357)">
          <path id="Path_95415" data-name="Path 95415" d="M4259.713,4671.316a3.713,3.713,0,0,0-.1-.585l-.032-.124Z" transform="translate(-4255.95 -4670.607)" fill="#cfdade"/>
          <path id="Path_95416" data-name="Path 95416" d="M4262.932,4683.664l-1.469-8.042a1.837,1.837,0,0,1-3.62.63l-.952-5.215.023.209a3.51,3.51,0,0,0,.128.632l2.271,12.451a1.839,1.839,0,0,0,3.618-.66Z" transform="translate(-4256.891 -4670.458)" fill="#cfdade"/>
        </g>
        <path id="Path_95417" data-name="Path 95417" d="M4266.076,4669.887l-3.858-15.973a.938.938,0,0,0-1.818.332l2.034,16.306a5.905,5.905,0,0,0,.159.806l2.892,15.85a1.894,1.894,0,1,0,3.62-.66l-2.894-15.852A6.113,6.113,0,0,0,4266.076,4669.887Z" transform="translate(-4251.576 -4653.299)" fill="url(#linear-gradient-10)"/>
        <path id="Path_95418" data-name="Path 95418" d="M4268.615,4682.382l-1.428-7.823a1.994,1.994,0,0,1-1.432,2.093,2.138,2.138,0,0,1-2.23-1.975l-1.726-9.457.146,1.166a5.891,5.891,0,0,0,.159.806l2.892,15.851a1.894,1.894,0,1,0,3.62-.66Z" transform="translate(-4251.087 -4649.133)" fill="#cfdade"/>
        <path id="Path_95419" data-name="Path 95419" d="M4271.933,4671.289l-3.227-12.509a.847.847,0,0,0-1.019-.436c-.478.086-.837.423-.8.768l1.4,12.841a3.616,3.616,0,0,0,.128.632l2.271,12.448a1.839,1.839,0,0,0,3.618-.66h0l-2.271-12.452A3.739,3.739,0,0,0,4271.933,4671.289Z" transform="translate(-4249.309 -4651.543)" fill="url(#linear-gradient-11)"/>
        <path id="Path_95420" data-name="Path 95420" d="M4273.981,4681.18l-2.019-11.063a1.835,1.835,0,0,1-3.631.142l-.51-2.794.142,1.3a3.634,3.634,0,0,0,.128.632l2.271,12.447a1.839,1.839,0,0,0,3.618-.66Z" transform="translate(-4248.982 -4648.35)" fill="#cfdade"/>
        <path id="Path_95421" data-name="Path 95421" d="M4291.793,4706.912a5.542,5.542,0,0,1-5.011,0L4254.9,4688.5c-1.383-.8-1.383-2.095,0-2.894l31.885-18.408a5.539,5.539,0,0,1,5.011,0l31.883,18.408c1.384.8,1.384,2.093,0,2.894Z" transform="translate(-4253.861 -4648.65)" fill="url(#linear-gradient-12)"/>
        <path id="Path_95422" data-name="Path 95422" d="M4290.637,4703.441a5.007,5.007,0,0,1-4.516,0l-28.725-16.586a1.378,1.378,0,0,1,0-2.61l28.725-16.583a5,5,0,0,1,4.516,0l28.726,16.585a1.377,1.377,0,0,1,0,2.609Z" transform="translate(-4252.952 -4648.468)" fill="#e1eef2"/>
        <path id="Path_95423" data-name="Path 95423" d="M4257.4,4685.889l4.594,2.653q9.3-9.335,18.605-18.653l-23.2,13.393A1.376,1.376,0,0,0,4257.4,4685.889Z" transform="translate(-4252.952 -4647.502)" fill="#e6f3f7"/>
        <path id="Path_95424" data-name="Path 95424" d="M4294.212,4671.064l-4.435-2.561q-12.163,12.164-24.306,24.352l4.4,2.543Z" transform="translate(-4249.804 -4647.986)" fill="#e6f3f7"/>
        <path id="Path_95425" data-name="Path 95425" d="M4302.422,4675.8l-4.434-2.561-24.336,24.333,4.437,2.561Q4290.256,4687.968,4302.422,4675.8Z" transform="translate(-4246.944 -4646.332)" fill="#e6f3f7"/>
        <path id="Path_95426" data-name="Path 95426" d="M4308.823,4680.457l-4.3-2.481-17.907,17.909,22.2-12.825C4310.071,4682.344,4310.071,4681.179,4308.823,4680.457Z" transform="translate(-4242.413 -4644.676)" fill="#e6f3f7"/>
      </g>
      <g id="Group_41951" data-name="Group 41951" transform="translate(4442.377 4630.097)">
        <path id="Path_95436" data-name="Path 95436" d="M4423.019,4630.332l-36.109,20.448a.87.87,0,0,0,0,1.649l1.979,1.5a.87.87,0,0,1,0-1.648L4424.009,4632c.789-.455,1.151-.152,1.665-.485,0,0,.3-.092.057-.591A2.16,2.16,0,0,0,4423.019,4630.332Z" transform="translate(-4386.247 -4630.097)" fill="#00223d"/>
        <path id="Path_95437" data-name="Path 95437" d="M4388.146,4672.071v-24.107c0-.911.639-1.281,1.431-.825l-1.883-1.441c-.79-.456-1.43-.087-1.43.824v24.108a2.984,2.984,0,0,0,1.43,2.477c1.387.661.9.166.9.166C4388.826,4673.271,4388.611,4672.831,4388.146,4672.071Z" transform="translate(-4386.265 -4624.713)" fill="#00223d"/>
        <path id="Path_95438" data-name="Path 95438" d="M4425.5,4655.61a3.157,3.157,0,0,1-1.429,2.475l-35.119,20.278c-.79.455-1.431.086-1.431-.825v-24.11a3.161,3.161,0,0,1,1.431-2.475l35.121-20.276c.79-.456,1.429-.087,1.429.824Z" transform="translate(-4385.826 -4629.962)" fill="url(#linear-gradient-13)"/>
        <path id="Path_95439" data-name="Path 95439" d="M4423.675,4654.338a2.848,2.848,0,0,1-1.321,2.211l-32.437,18.728c-.728.421-1.32.113-1.319-.687v-21.163a2.851,2.851,0,0,1,1.32-2.209l32.438-18.729c.729-.421,1.32-.113,1.32.687Z" transform="translate(-4385.45 -4629.326)" fill="#1e2729"/>
        <path id="Path_95440" data-name="Path 95440" d="M4390.1,4646.207l-.263.152a2.807,2.807,0,0,0-1.023,1.134Z" transform="translate(-4385.374 -4624.467)" fill="#2b383b"/>
        <path id="Path_95441" data-name="Path 95441" d="M4388.6,4656.7v4.232l24.546-24.546-10.019,5.785Z" transform="translate(-4385.45 -4627.9)" fill="#2b383b"/>
        <path id="Path_95442" data-name="Path 95442" d="M4423.675,4633.267v-.221a1.218,1.218,0,0,0-.054-.375L4388.6,4667.7v.649Z" transform="translate(-4385.451 -4629.197)" fill="#2b383b"/>
        <path id="Path_95443" data-name="Path 95443" d="M4388.857,4671.985a2.268,2.268,0,0,1-.259.22v.686a.841.841,0,0,0,.378.794l34.7-34.7v-1.819Z" transform="translate(-4385.451 -4627.625)" fill="#2b383b"/>
        <path id="Path_95444" data-name="Path 95444" d="M4420.49,4644.588v-2.018l-22.779,22.779,4.773-2.756Z" transform="translate(-4382.265 -4625.737)" fill="#2b383b"/>
        <g id="Group_41950" data-name="Group 41950" transform="translate(3.308 27.291)">
          <path id="Path_95445" data-name="Path 95445" d="M4442.166,4661.259v-1.518a1,1,0,0,0-.592-.831l-14.286-8.248a3.152,3.152,0,0,0-2.857,0l-35.122,20.278a1,1,0,0,0-.591.83v1.687a1,1,0,0,0,.591.83l14.285,8.248a3.156,3.156,0,0,0,2.858,0l35.121-20.277a1,1,0,0,0,.593-.832v-.167Z" transform="translate(-4388.716 -4650.32)" fill="#00223d"/>
          <path id="Path_95446" data-name="Path 95446" d="M4441.574,4658.91a.871.871,0,0,1,0,1.65l-35.122,20.277a3.155,3.155,0,0,1-2.857,0l-14.286-8.247a.871.871,0,0,1,0-1.65l35.122-20.278a3.161,3.161,0,0,1,2.857,0Z" transform="translate(-4388.717 -4650.319)" fill="url(#linear-gradient-14)"/>
          <path id="Path_95447" data-name="Path 95447" d="M4395.432,4666.54a.174.174,0,0,1,0,.329l-2.082,1.2a.63.63,0,0,1-.571,0l-2.083-1.2a.175.175,0,0,1-.109-.22.179.179,0,0,1,.109-.111l2.083-1.2a.621.621,0,0,1,.571,0Z" transform="translate(-4388.067 -4645.098)" fill="#00223d"/>
          <g id="Group_41946" data-name="Group 41946" transform="translate(8.049 1.789)">
            <path id="Path_95448" data-name="Path 95448" d="M4396.882,4662.967l-2.082,1.2a.174.174,0,0,0,0,.329l2.082,1.2a.631.631,0,0,0,.573,0l2.081-1.2a.172.172,0,0,0,.109-.22.169.169,0,0,0-.109-.109l-2.081-1.2A.631.631,0,0,0,4396.882,4662.967Z" transform="translate(-4394.681 -4647.714)" fill="#00223d"/>
            <path id="Path_95449" data-name="Path 95449" d="M4399.317,4661.562l-2.08,1.2a.174.174,0,0,0-.111.22.177.177,0,0,0,.111.109l2.08,1.2a.628.628,0,0,0,.573,0l2.081-1.2a.174.174,0,0,0,0-.33l-2.081-1.2A.634.634,0,0,0,4399.317,4661.562Z" transform="translate(-4393.83 -4648.205)" fill="#00223d"/>
            <path id="Path_95450" data-name="Path 95450" d="M4401.754,4660.154l-2.082,1.2a.176.176,0,0,0-.109.22.177.177,0,0,0,.109.109l2.082,1.2a.632.632,0,0,0,.572,0l2.082-1.2a.174.174,0,0,0,0-.33l-2.082-1.2A.626.626,0,0,0,4401.754,4660.154Z" transform="translate(-4392.978 -4648.697)" fill="#00223d"/>
            <path id="Path_95451" data-name="Path 95451" d="M4404.19,4658.747l-2.081,1.2a.177.177,0,0,0-.109.223.18.18,0,0,0,.109.108l2.083,1.2a.627.627,0,0,0,.571,0l2.082-1.2a.175.175,0,0,0,0-.331l-2.082-1.2A.628.628,0,0,0,4404.19,4658.747Z" transform="translate(-4392.126 -4649.188)" fill="#00223d"/>
            <path id="Path_95452" data-name="Path 95452" d="M4406.626,4657.341l-2.082,1.2a.173.173,0,0,0-.108.22.176.176,0,0,0,.108.109l2.082,1.2a.634.634,0,0,0,.573,0l2.083-1.2a.175.175,0,0,0,0-.33l-2.083-1.2A.626.626,0,0,0,4406.626,4657.341Z" transform="translate(-4391.275 -4649.68)" fill="#00223d"/>
            <path id="Path_95453" data-name="Path 95453" d="M4409.063,4655.934l-2.081,1.2a.174.174,0,0,0-.109.222.17.17,0,0,0,.109.107l2.081,1.2a.631.631,0,0,0,.573,0l2.081-1.2a.173.173,0,0,0,0-.329l-2.081-1.2A.64.64,0,0,0,4409.063,4655.934Z" transform="translate(-4390.424 -4650.171)" fill="#00223d"/>
            <path id="Path_95454" data-name="Path 95454" d="M4411.5,4654.527l-2.082,1.2a.175.175,0,0,0,0,.331l2.082,1.2a.631.631,0,0,0,.572,0l2.082-1.2a.174.174,0,0,0,.109-.222.176.176,0,0,0-.109-.109l-2.084-1.2A.632.632,0,0,0,4411.5,4654.527Z" transform="translate(-4389.573 -4650.663)" fill="#00223d"/>
            <path id="Path_95455" data-name="Path 95455" d="M4413.936,4653.12l-2.082,1.2a.174.174,0,0,0-.108.221.17.17,0,0,0,.108.107l2.082,1.206a.626.626,0,0,0,.572,0l2.082-1.2a.174.174,0,0,0,0-.331l-2.082-1.2A.629.629,0,0,0,4413.936,4653.12Z" transform="translate(-4388.721 -4651.154)" fill="#00223d"/>
            <path id="Path_95456" data-name="Path 95456" d="M4416.371,4651.714l-2.082,1.2a.175.175,0,0,0,0,.331l2.082,1.2a.633.633,0,0,0,.574,0l2.081-1.2a.174.174,0,0,0,0-.331l-2.081-1.2A.633.633,0,0,0,4416.371,4651.714Z" transform="translate(-4387.87 -4651.646)" fill="#00223d"/>
          </g>
          <g id="Group_41947" data-name="Group 41947" transform="translate(5.744 3.736)">
            <path id="Path_95457" data-name="Path 95457" d="M4400.853,4664.411l-7.761,4.481a.173.173,0,0,0-.109.22.176.176,0,0,0,.109.109l2.081,1.2a.634.634,0,0,0,.573,0l7.761-4.482a.174.174,0,0,0,.109-.22.169.169,0,0,0-.109-.109l-2.081-1.2A.634.634,0,0,0,4400.853,4664.411Z" transform="translate(-4392.973 -4649.156)" fill="#00223d"/>
            <path id="Path_95458" data-name="Path 95458" d="M4401.818,4663l-2.082,1.2a.175.175,0,0,0,0,.331l2.082,1.2a.631.631,0,0,0,.572,0l2.081-1.2a.174.174,0,0,0,0-.331l-2.081-1.2A.634.634,0,0,0,4401.818,4663Z" transform="translate(-4390.651 -4649.648)" fill="#00223d"/>
            <path id="Path_95459" data-name="Path 95459" d="M4404.255,4661.6l-2.083,1.2a.173.173,0,0,0,0,.329l2.083,1.2a.628.628,0,0,0,.572,0l2.082-1.2a.174.174,0,0,0,.108-.221.169.169,0,0,0-.108-.107l-2.082-1.2A.631.631,0,0,0,4404.255,4661.6Z" transform="translate(-4389.799 -4650.139)" fill="#00223d"/>
            <path id="Path_95460" data-name="Path 95460" d="M4406.691,4660.192l-2.082,1.2a.174.174,0,0,0-.109.22.172.172,0,0,0,.109.11l2.082,1.2a.637.637,0,0,0,.572,0l2.083-1.2a.175.175,0,0,0,.11-.22.172.172,0,0,0-.11-.111l-2.081-1.2A.625.625,0,0,0,4406.691,4660.192Z" transform="translate(-4388.948 -4650.631)" fill="#00223d"/>
            <path id="Path_95461" data-name="Path 95461" d="M4409.128,4658.785l-2.082,1.2a.173.173,0,0,0,0,.329l2.082,1.2a.631.631,0,0,0,.572,0l2.083-1.2a.173.173,0,0,0,0-.329l-2.083-1.2A.628.628,0,0,0,4409.128,4658.785Z" transform="translate(-4388.097 -4651.122)" fill="#00223d"/>
            <path id="Path_95462" data-name="Path 95462" d="M4411.564,4657.377l-2.083,1.2a.174.174,0,0,0,0,.329l2.083,1.2a.628.628,0,0,0,.572,0l2.082-1.2a.174.174,0,0,0,0-.329l-2.082-1.2A.628.628,0,0,0,4411.564,4657.377Z" transform="translate(-4387.245 -4651.614)" fill="#00223d"/>
            <path id="Path_95463" data-name="Path 95463" d="M4414,4655.971l-2.081,1.2a.174.174,0,0,0-.109.221.177.177,0,0,0,.109.109l2.081,1.2a.631.631,0,0,0,.573,0l2.082-1.2a.176.176,0,0,0,.108-.222.172.172,0,0,0-.108-.108l-2.082-1.2A.631.631,0,0,0,4414,4655.971Z" transform="translate(-4386.394 -4652.106)" fill="#00223d"/>
            <path id="Path_95464" data-name="Path 95464" d="M4416.436,4654.564l-2.081,1.2a.174.174,0,0,0-.107.223.17.17,0,0,0,.107.108l2.081,1.2a.631.631,0,0,0,.573,0l2.082-1.2a.174.174,0,0,0,.109-.221.179.179,0,0,0-.109-.109l-2.082-1.2A.631.631,0,0,0,4416.436,4654.564Z" transform="translate(-4385.542 -4652.597)" fill="#00223d"/>
            <path id="Path_95465" data-name="Path 95465" d="M4418.872,4653.158l-2.083,1.2a.174.174,0,0,0-.108.22.167.167,0,0,0,.108.109l2.083,1.2a.632.632,0,0,0,.572,0l2.083-1.2a.174.174,0,0,0,.109-.22.18.18,0,0,0-.109-.109l-2.083-1.2A.626.626,0,0,0,4418.872,4653.158Z" transform="translate(-4384.691 -4653.089)" fill="#00223d"/>
          </g>
          <g id="Group_41948" data-name="Group 41948" transform="translate(12.766 7.79)">
            <path id="Path_95466" data-name="Path 95466" d="M4406.057,4667.415l-7.762,4.481a.174.174,0,0,0-.108.221.169.169,0,0,0,.108.108l2.082,1.2a.631.631,0,0,0,.573,0l7.762-4.481a.174.174,0,0,0,0-.33l-2.082-1.2A.634.634,0,0,0,4406.057,4667.415Z" transform="translate(-4398.177 -4652.161)" fill="#00223d"/>
            <path id="Path_95467" data-name="Path 95467" d="M4407.022,4666.008l-2.082,1.2a.175.175,0,0,0,0,.331l2.082,1.2a.631.631,0,0,0,.573,0l2.081-1.2a.174.174,0,0,0,0-.331l-2.083-1.2A.634.634,0,0,0,4407.022,4666.008Z" transform="translate(-4395.855 -4652.652)" fill="#00223d"/>
            <path id="Path_95468" data-name="Path 95468" d="M4419.32,4660.382l-11.945,6.9a.173.173,0,0,0-.108.221.175.175,0,0,0,.108.108l2.082,1.2a.641.641,0,0,0,.572,0l11.945-6.9a.174.174,0,0,0,0-.33l-2.082-1.2A.63.63,0,0,0,4419.32,4660.382Z" transform="translate(-4395.004 -4654.619)" fill="#00223d"/>
            <path id="Path_95469" data-name="Path 95469" d="M4419.2,4658.975l-2.081,1.2a.173.173,0,0,0-.109.221.17.17,0,0,0,.109.109l2.081,1.2a.63.63,0,0,0,.571,0l2.083-1.2a.175.175,0,0,0,0-.33l-2.083-1.2A.636.636,0,0,0,4419.2,4658.975Z" transform="translate(-4391.599 -4655.11)" fill="#00223d"/>
            <path id="Path_95470" data-name="Path 95470" d="M4424.926,4656.162l-5.368,3.1a.174.174,0,0,0,0,.33l2.082,1.2a.635.635,0,0,0,.572,0l5.37-3.1a.173.173,0,0,0,.109-.22.176.176,0,0,0-.109-.11l-2.082-1.2A.633.633,0,0,0,4424.926,4656.162Z" transform="translate(-4390.747 -4656.093)" fill="#00223d"/>
          </g>
          <g id="Group_41949" data-name="Group 41949" transform="translate(9.21 5.739)">
            <path id="Path_95471" data-name="Path 95471" d="M4400.115,4667.308l-4.455,2.575a.173.173,0,0,0,0,.329l2.082,1.2a.63.63,0,0,0,.573,0l4.453-2.572a.174.174,0,0,0,0-.331l-2.081-1.2A.635.635,0,0,0,4400.115,4667.308Z" transform="translate(-4395.542 -4650.146)" fill="#00223d"/>
            <path id="Path_95472" data-name="Path 95472" d="M4404.388,4664.488l-2.081,1.2a.173.173,0,0,0-.109.22.177.177,0,0,0,.109.109l2.081,1.2a.644.644,0,0,0,.574,0l2.082-1.2a.175.175,0,0,0,.108-.222.17.17,0,0,0-.108-.108l-2.082-1.2A.629.629,0,0,0,4404.388,4664.488Z" transform="translate(-4393.22 -4651.133)" fill="#00223d"/>
            <path id="Path_95473" data-name="Path 95473" d="M4401.951,4665.894l-2.082,1.2a.177.177,0,0,0-.109.221.179.179,0,0,0,.109.109l2.082,1.2a.631.631,0,0,0,.573,0l2.082-1.2a.175.175,0,0,0,.109-.222.18.18,0,0,0-.109-.108l-2.082-1.2A.631.631,0,0,0,4401.951,4665.894Z" transform="translate(-4394.071 -4650.641)" fill="#00223d"/>
            <path id="Path_95474" data-name="Path 95474" d="M4406.823,4663.081l-2.081,1.2a.175.175,0,0,0-.11.222.177.177,0,0,0,.11.109l2.081,1.2a.629.629,0,0,0,.574,0l2.081-1.2a.175.175,0,0,0,0-.331l-2.081-1.2A.641.641,0,0,0,4406.823,4663.081Z" transform="translate(-4392.368 -4651.624)" fill="#00223d"/>
            <path id="Path_95475" data-name="Path 95475" d="M4409.261,4661.675l-2.082,1.2a.174.174,0,0,0-.109.22.177.177,0,0,0,.109.109l2.082,1.2a.633.633,0,0,0,.574,0l2.081-1.2a.174.174,0,0,0,0-.33l-2.081-1.2A.633.633,0,0,0,4409.261,4661.675Z" transform="translate(-4391.517 -4652.116)" fill="#00223d"/>
            <path id="Path_95476" data-name="Path 95476" d="M4411.7,4660.268l-2.083,1.2a.176.176,0,0,0-.109.221.179.179,0,0,0,.109.109l2.083,1.2a.628.628,0,0,0,.573,0l2.083-1.2a.175.175,0,0,0,0-.331l-2.083-1.2A.634.634,0,0,0,4411.7,4660.268Z" transform="translate(-4390.665 -4652.607)" fill="#00223d"/>
            <path id="Path_95477" data-name="Path 95477" d="M4414.132,4658.86l-2.081,1.2a.174.174,0,0,0,0,.331l2.081,1.2a.631.631,0,0,0,.573,0l2.082-1.2a.174.174,0,0,0,0-.331l-2.082-1.2A.64.64,0,0,0,4414.132,4658.86Z" transform="translate(-4389.813 -4653.099)" fill="#00223d"/>
            <path id="Path_95478" data-name="Path 95478" d="M4416.569,4657.455l-2.083,1.2a.174.174,0,0,0-.109.22.18.18,0,0,0,.109.108l2.083,1.2a.631.631,0,0,0,.573,0l2.08-1.2a.173.173,0,0,0,.111-.219.175.175,0,0,0-.111-.109l-2.08-1.2A.634.634,0,0,0,4416.569,4657.455Z" transform="translate(-4388.963 -4653.59)" fill="#00223d"/>
            <path id="Path_95479" data-name="Path 95479" d="M4419.006,4656.048l-2.083,1.2a.176.176,0,0,0-.108.222.172.172,0,0,0,.108.108l2.083,1.2a.631.631,0,0,0,.572,0l2.082-1.2a.175.175,0,0,0,0-.331l-2.082-1.2A.631.631,0,0,0,4419.006,4656.048Z" transform="translate(-4388.111 -4654.082)" fill="#00223d"/>
            <path id="Path_95480" data-name="Path 95480" d="M4421.441,4654.642l-2.081,1.2a.174.174,0,0,0,0,.33l2.081,1.2a.634.634,0,0,0,.573,0l2.082-1.2a.174.174,0,0,0,.108-.221.171.171,0,0,0-.108-.109l-2.082-1.2A.631.631,0,0,0,4421.441,4654.642Z" transform="translate(-4387.259 -4654.573)" fill="#00223d"/>
          </g>
        </g>
      </g>
      <g id="Grupo_55739" data-name="Grupo 55739" transform="translate(4534.574 4651.127)">
        <g id="Grupo_55728" data-name="Grupo 55728" transform="translate(39.887 11.246)">
          <g id="Grupo_55727" data-name="Grupo 55727" style="isolation: isolate">
            <g id="Grupo_55725" data-name="Grupo 55725" transform="translate(32.502 38.703)">
              <path id="Trazado_118851" data-name="Trazado 118851" d="M4508.234,4686.5l6.546-3.8,0,1.261-6.546,3.8Z" transform="translate(-4508.23 -4682.695)" fill="#fff"/>
            </g>
            <path id="Trazado_118852" data-name="Trazado 118852" d="M4502.754,4668.929c.059.046.117.093.173.142q.75.616,1.476,1.289c.057.053.115.105.171.16q.735.692,1.441,1.439l.118.123c.5.536.992,1.091,1.468,1.663l.011.015a40.446,40.446,0,0,1,2.629,3.556c.241.363.467.737.7,1.109.193.314.394.624.58.943.088.15.169.3.255.454.3.533.6,1.07.873,1.615.031.059.063.119.094.179.333.663.65,1.333.945,2.01l.045.1q.433.993.807,2c.016.043.034.087.049.131q.379,1.03.693,2.066c.012.042.023.083.036.124q.3,1,.53,1.992c.015.062.03.126.045.188.156.684.292,1.367.4,2.046l.005.033c.109.684.19,1.364.247,2.039,0,.055.009.11.013.166.053.676.082,1.345.08,2.005l6.546-3.8c0-.259,0-.52-.011-.782q-.012-.417-.04-.838c-.008-.128-.02-.256-.03-.385l-.013-.166c-.009-.1-.014-.2-.023-.294q-.04-.423-.1-.851c-.036-.289-.076-.58-.123-.87l-.005-.024,0-.034c-.043-.272-.09-.546-.142-.819-.057-.3-.118-.6-.184-.906-.023-.106-.05-.213-.074-.319l-.045-.19c-.031-.132-.059-.266-.093-.4-.076-.308-.157-.614-.242-.922-.062-.223-.13-.447-.2-.671-.013-.042-.024-.083-.036-.124s-.023-.081-.037-.122c-.09-.3-.187-.6-.287-.9s-.2-.59-.308-.884c-.02-.054-.042-.108-.061-.162s-.034-.089-.051-.133c-.067-.186-.136-.371-.208-.554q-.164-.423-.339-.843c-.083-.2-.171-.4-.257-.6-.017-.035-.031-.071-.046-.106s-.034-.078-.05-.118q-.186-.419-.382-.836-.216-.461-.442-.917c-.024-.046-.049-.091-.072-.138s-.062-.12-.093-.179c-.123-.243-.246-.484-.374-.725-.161-.3-.331-.592-.5-.888-.086-.152-.169-.306-.258-.458-.034-.059-.064-.12-.1-.179-.151-.257-.319-.5-.477-.76-.23-.373-.457-.748-.7-1.112-.038-.058-.073-.12-.111-.178-.354-.529-.718-1.047-1.093-1.558l-.005-.007h0c-.252-.341-.509-.68-.771-1.012-.213-.27-.429-.537-.647-.8l-.012-.015-.01-.012q-.329-.4-.671-.784t-.674-.748c-.037-.04-.074-.079-.112-.119s-.079-.083-.119-.124c-.159-.168-.317-.337-.479-.5-.241-.246-.484-.488-.731-.724-.075-.073-.153-.142-.229-.213l-.171-.159c-.12-.112-.241-.227-.362-.336q-.382-.344-.771-.673c-.113-.1-.229-.187-.343-.28-.058-.048-.116-.1-.175-.143-.085-.069-.168-.141-.255-.208-.251-.2-.506-.393-.761-.581-.185-.135-.371-.266-.558-.4l-.1-.073-.1-.067q-.365-.251-.736-.488c-.245-.155-.488-.3-.734-.449l-.171-.1-15.15-8.747-6.546,3.8,15.15,8.747c.587.338,1.166.708,1.737,1.1l.1.073Q4501.979,4668.3,4502.754,4668.929Z" transform="translate(-4484.129 -4654.015)" fill="#fff"/>
            <g id="Grupo_55726" data-name="Grupo 55726" transform="translate(0 3.804)">
              <path id="Trazado_118853" data-name="Trazado 118853" d="M4499.356,4665.581c9.584,5.533,17.325,18.945,17.294,29.955l0,1.262-32.5-18.766.061-21.2Z" transform="translate(-4484.145 -4656.834)" fill="#d3d3d3"/>
            </g>
          </g>
        </g>
        <path id="Trazado_118854" data-name="Trazado 118854" d="M4460.879,4674.468l31.457-17.634,16.989,9.924v2.348c4.054,1.857,13.031,14.783,11.871,24.844-.388.156-31.426,17.647-31.426,17.647Z" transform="translate(-4452.388 -4641.784)" fill="#fff"/>
        <path id="Trazado_118855" data-name="Trazado 118855" d="M4480.053,4693.919l31.346-17.725.078,6.348-30.806,17.337Z" transform="translate(-4445.688 -4635.018)" fill="#21587b"/>
        <path id="Trazado_118856" data-name="Trazado 118856" d="M4506.173,4664.188l-36.273,20.227,1.7,1.471,34.57-19.35Z" transform="translate(-4449.235 -4639.214)" fill="#e5e5e5"/>
        <path id="Trazado_118857" data-name="Trazado 118857" d="M4454.587,4671.893" transform="translate(-4454.587 -4636.521)" fill="#0b0b0b"/>
        <g id="Grupo_55732" data-name="Grupo 55732" transform="translate(1.884 32.685)">
          <g id="Grupo_55731" data-name="Grupo 55731" style="isolation: isolate">
            <g id="Grupo_55729" data-name="Grupo 55729" transform="translate(32.503 38.704)">
              <path id="Trazado_118858" data-name="Trazado 118858" d="M4480.072,4702.387l6.546-3.8,0,1.26-6.547,3.8Z" transform="translate(-4480.068 -4698.583)" fill="#fff"/>
            </g>
            <path id="Trazado_118859" data-name="Trazado 118859" d="M4474.592,4684.816l.174.142q.749.615,1.475,1.29c.058.053.115.1.171.159q.735.693,1.441,1.439l.117.123q.754.806,1.468,1.664l.013.015a41.243,41.243,0,0,1,2.628,3.554c.24.364.466.738.7,1.11.193.314.394.625.579.943.088.149.17.3.255.453.3.534.6,1.071.875,1.617.03.059.062.119.092.178q.5,1,.945,2.01l.045.1q.433,1,.807,2c.016.044.034.088.05.132q.378,1.031.692,2.066c.012.04.024.082.036.123q.3,1,.53,1.992l.045.188c.156.685.291,1.367.4,2.045l.006.033q.162,1.029.246,2.041c.005.055.009.11.014.166.052.675.082,1.345.08,2l6.545-3.8c0-.259,0-.521-.009-.783-.009-.278-.022-.559-.041-.84-.006-.126-.02-.255-.03-.383,0-.055-.008-.11-.013-.166-.008-.1-.014-.2-.023-.294-.027-.282-.059-.565-.094-.85s-.078-.581-.125-.872l0-.024-.007-.034c-.043-.273-.09-.545-.142-.819-.057-.3-.117-.6-.184-.9-.022-.106-.049-.215-.074-.321l-.045-.188c-.031-.134-.06-.266-.093-.4-.076-.307-.157-.614-.242-.92-.062-.224-.129-.448-.2-.671l-.037-.125-.035-.121q-.138-.45-.287-.9t-.309-.884c-.02-.054-.041-.108-.062-.163s-.034-.089-.049-.134c-.069-.185-.136-.369-.208-.554-.11-.281-.223-.562-.34-.842-.083-.2-.17-.4-.257-.6-.017-.037-.031-.072-.046-.108s-.034-.077-.049-.116c-.125-.281-.251-.56-.382-.838q-.215-.459-.443-.915c-.023-.047-.049-.092-.071-.139s-.063-.119-.094-.18c-.123-.241-.245-.484-.374-.723-.16-.3-.331-.592-.5-.89-.086-.151-.169-.305-.256-.456-.035-.059-.066-.121-.1-.18-.151-.258-.32-.506-.476-.76-.231-.374-.458-.747-.7-1.113-.038-.058-.072-.119-.111-.177q-.531-.793-1.093-1.557l0-.008h0q-.379-.514-.772-1.012c-.211-.271-.428-.537-.646-.8l-.012-.014-.009-.013q-.332-.4-.671-.786t-.675-.747l-.113-.117-.119-.125c-.159-.169-.317-.337-.479-.5-.24-.245-.484-.487-.731-.723-.075-.073-.152-.142-.229-.213-.057-.054-.113-.107-.171-.159-.12-.112-.239-.227-.362-.337q-.382-.344-.771-.671c-.113-.1-.229-.187-.342-.281l-.174-.143c-.087-.068-.17-.14-.255-.208-.252-.2-.506-.393-.763-.582-.183-.136-.371-.266-.555-.4l-.1-.073c-.031-.023-.062-.046-.094-.068-.245-.167-.49-.33-.737-.487s-.488-.305-.734-.451l-.171-.1-15.15-8.749-6.546,3.8,15.15,8.748c.587.339,1.166.708,1.738,1.1.034.023.067.049.1.073C4473.551,4684,4474.075,4684.4,4474.592,4684.816Z" transform="translate(-4455.967 -4669.902)" fill="#fff"/>
            <g id="Grupo_55730" data-name="Grupo 55730" transform="translate(0 3.805)">
              <path id="Trazado_118860" data-name="Trazado 118860" d="M4471.194,4681.469c9.583,5.533,17.327,18.944,17.295,29.955l0,1.261-32.5-18.766.062-21.2Z" transform="translate(-4455.982 -4672.721)" fill="#d3d3d3"/>
            </g>
          </g>
        </g>
        <path id="Trazado_118861" data-name="Trazado 118861" d="M4504.723,4682.542l-5.341-3.29,5.263-3.058Z" transform="translate(-4438.933 -4635.018)" fill="#0e0e0e"/>
        <path id="Trazado_118862" data-name="Trazado 118862" d="M4483.9,4695.736l.029.489,14.2-.343,27.525-14.639.039-.5Z" transform="translate(-4444.345 -4633.43)" fill="#111"/>
        <path id="Trazado_118863" data-name="Trazado 118863" d="M4510.134,4680.958l-26.239,14.783,14.164-.31,27.709-14.706Z" transform="translate(-4444.345 -4633.435)" fill="#00223d"/>
        <path id="Trazado_118864" data-name="Trazado 118864" d="M4461.7,4674.794l10.334,6.034a7.144,7.144,0,0,0,7.079.069l25.127-14.02a2.281,2.281,0,0,0,.018-3.973l-10.649-6.067Z" transform="translate(-4452.102 -4641.783)" fill="#00223d"/>
        <g id="Grupo_55735" data-name="Grupo 55735" transform="translate(22.891 36.939)">
          <g id="Grupo_55734" data-name="Grupo 55734" style="isolation: isolate">
            <path id="Trazado_118865" data-name="Trazado 118865" d="M4471.605,4674.392l0,.007a.531.531,0,0,0,.166.146l.413.24a.955.955,0,0,0,.243.092l.036.009a1.234,1.234,0,0,0,.275.031h.011a1.273,1.273,0,0,0,.29-.032l.01,0a.963.963,0,0,0,.257-.1l1.536-.888a.393.393,0,0,0,.234-.327l0,.379a.4.4,0,0,1-.234.326l-1.536.887a.915.915,0,0,1-.112.054c-.031.012-.063.023-.1.033l-.05.012-.011,0-.021,0-.08.013-.078.01-.08,0h-.082c-.029,0-.06,0-.089-.005s-.068-.008-.1-.015c-.015,0-.026-.006-.042-.009l-.037-.01c-.023-.006-.049-.011-.07-.017a.952.952,0,0,1-.172-.076l-.413-.241-.009-.005a.513.513,0,0,1-.1-.071.589.589,0,0,1-.049-.053l-.01-.017,0-.005-.016-.024a.3.3,0,0,1-.021-.044.258.258,0,0,1-.013-.045.357.357,0,0,1-.006-.046v-.386A.294.294,0,0,0,4471.605,4674.392Z" transform="translate(-4471.55 -4672.874)" fill="#d4e7ef"/>
            <g id="Grupo_55733" data-name="Grupo 55733">
              <path id="Trazado_118866" data-name="Trazado 118866" d="M4471.785,4674.077c-.308.178-.315.47-.01.648l.413.24a1.253,1.253,0,0,0,1.122,0l1.536-.888a.343.343,0,0,0,0-.65l-.413-.239a1.225,1.225,0,0,0-1.116,0Z" transform="translate(-4471.55 -4673.054)" fill="#dcecf3"/>
            </g>
          </g>
        </g>
        <g id="Grupo_55738" data-name="Grupo 55738" transform="translate(26.591 34.833)">
          <g id="Grupo_55737" data-name="Grupo 55737" style="isolation: isolate">
            <path id="Trazado_118867" data-name="Trazado 118867" d="M4474.347,4672.833l0,.005a.512.512,0,0,0,.167.147l.412.239a.914.914,0,0,0,.242.093l.038.009a1.407,1.407,0,0,0,.275.031h.011a1.443,1.443,0,0,0,.289-.033l.011,0a1.012,1.012,0,0,0,.258-.1l1.535-.887a.394.394,0,0,0,.234-.326v.377a.4.4,0,0,1-.235.328l-1.535.886a.953.953,0,0,1-.112.054.651.651,0,0,1-.1.031l-.048.013-.011,0-.023.007-.079.013c-.026,0-.052.007-.079.008s-.053,0-.08,0a.183.183,0,0,1-.028,0h-.054c-.03,0-.059,0-.089-.005s-.069-.008-.1-.015l-.042-.01-.037-.009c-.024-.006-.048-.01-.071-.019a.861.861,0,0,1-.171-.074l-.412-.24-.009-.006a.539.539,0,0,1-.147-.124l-.011-.017,0-.006-.017-.024a.352.352,0,0,1-.02-.044.174.174,0,0,1-.014-.044c0-.015,0-.03,0-.044v-.386A.317.317,0,0,0,4474.347,4672.833Z" transform="translate(-4474.292 -4671.313)" fill="#fafcfe"/>
            <g id="Grupo_55736" data-name="Grupo 55736" transform="translate(0.001)">
              <path id="Trazado_118868" data-name="Trazado 118868" d="M4474.527,4672.518c-.309.178-.315.47-.009.647l.412.239a1.251,1.251,0,0,0,1.124,0l1.535-.887a.343.343,0,0,0,0-.65l-.411-.241a1.222,1.222,0,0,0-1.117,0Z" transform="translate(-4474.292 -4671.494)" fill="#fafcfe"/>
            </g>
          </g>
        </g>
        <path id="Trazado_118869" data-name="Trazado 118869" d="M4466.115,4673.731l5.805,3.25,25.271-14.435-5.534-3.444Z" transform="translate(-4450.558 -4640.991)" fill="#0d0d0d"/>
        <path id="Trazado_118870" data-name="Trazado 118870" d="M4467.6,4674.052l-5.728-15.867,1.359.663,5.762,15.92Z" transform="translate(-4452.042 -4641.312)" fill="#00223d"/>
        <path id="Trazado_118871" data-name="Trazado 118871" d="M4468.651,4678.38l25.223-14.628-5.805-15.906-25.223,14.628Z" transform="translate(-4451.701 -4644.925)" fill="#21587b"/>
        <path id="Trazado_118872" data-name="Trazado 118872" d="M4461.889,4661.97l25.223-14.629,1.292.682-25.223,14.629Z" transform="translate(-4452.035 -4645.101)" fill="#00223d"/>
        <path id="Trazado_118873" data-name="Trazado 118873" d="M4485.838,4659.633v5.282l4.46-2.554Z" transform="translate(-4443.666 -4640.806)" fill="#0a0a0a"/>
        <path id="Trazado_118874" data-name="Trazado 118874" d="M4481.088,4645.681c9.132,4.334,12.075,18.809,12.539,20.82a4.014,4.014,0,0,0,2.322,2.708l-21.053,11.92a4.014,4.014,0,0,1-2.322-2.709c-.465-2.012-3.406-16.486-12.539-20.82Z" transform="translate(-4452.683 -4645.681)" fill="#fff"/>
      </g>
      <g id="Group_41938" data-name="Group 41938" transform="translate(4537.854 4785.809)">
        <path id="Path_95352" data-name="Path 95352" d="M4513.6,4818.312l-21.729,12.544V4778.02l21.729-12.547Z" transform="translate(-4444.837 -4738.501)" fill="url(#linear-gradient-15)"/>
        <path id="Path_95353" data-name="Path 95353" d="M4513.6,4773.515l-21.729,12.545v-1.309l21.729-12.546Z" transform="translate(-4444.837 -4736.148)" fill="#00223d"/>
        <path id="Path_95354" data-name="Path 95354" d="M4513.6,4781.431l-21.729,12.546v-1.312l21.729-12.545Z" transform="translate(-4444.837 -4733.383)" fill="#00223d"/>
        <path id="Path_95355" data-name="Path 95355" d="M4513.6,4789.348l-21.729,12.546v-1.312l21.729-12.545Z" transform="translate(-4444.837 -4730.616)" fill="#00223d"/>
        <path id="Path_95356" data-name="Path 95356" d="M4513.6,4797.265l-21.729,12.546V4808.5l21.729-12.545Z" transform="translate(-4444.837 -4727.85)" fill="#00223d"/>
        <path id="Path_95357" data-name="Path 95357" d="M4501.808,4805.041a3.31,3.31,0,0,1-1.5,2.593c-.827.478-1.5.092-1.5-.864a3.308,3.308,0,0,1,1.5-2.593C4501.137,4803.7,4501.809,4804.084,4501.808,4805.041Z" transform="translate(-4442.412 -4725.048)" fill="#00223d"/>
        <g id="Group_41937" data-name="Group 41937" transform="translate(50.674 75.406)">
          <path id="Path_95358" data-name="Path 95358" d="M4496.067,4806.626a3.309,3.309,0,0,0-1.5,2.595c0,.956.672,1.341,1.5.864a3.309,3.309,0,0,0,1.5-2.6C4497.566,4806.535,4496.9,4806.148,4496.067,4806.626Z" transform="translate(-4494.569 -4799.598)" fill="#37a3a5"/>
          <path id="Path_95359" data-name="Path 95359" d="M4504.825,4801.569a3.318,3.318,0,0,0-1.5,2.595c0,.956.672,1.343,1.5.865a3.312,3.312,0,0,0,1.5-2.595C4506.323,4801.479,4505.649,4801.093,4504.825,4801.569Z" transform="translate(-4491.509 -4801.365)" fill="#37a3a5"/>
        </g>
        <path id="Path_95360" data-name="Path 95360" d="M4504.051,4834.64l-47.034-27.155v-52.837l47.034,27.154Z" transform="translate(-4457.017 -4742.285)" fill="url(#linear-gradient-16)"/>
        <path id="Path_95361" data-name="Path 95361" d="M4504.051,4785.187l-47.034-27.154,21.731-12.547,47.033,27.155Z" transform="translate(-4457.017 -4745.485)" fill="#d2e1f1"/>
        <path id="Path_95362" data-name="Path 95362" d="M4504.051,4789.842l-47.034-27.154v-1.309l47.034,27.155Z" transform="translate(-4457.017 -4739.932)" fill="#21587b"/>
        <path id="Path_95363" data-name="Path 95363" d="M4504.051,4797.762l-47.033-27.155v-1.312l47.033,27.154Z" transform="translate(-4457.016 -4737.166)" fill="#21587b"/>
        <path id="Path_95364" data-name="Path 95364" d="M4504.051,4805.678l-47.033-27.154v-1.312l47.033,27.157Z" transform="translate(-4457.016 -4734.399)" fill="#21587b"/>
        <path id="Path_95365" data-name="Path 95365" d="M4504.051,4813.595l-47.034-27.155v-1.312l47.034,27.155Z" transform="translate(-4457.017 -4731.633)" fill="#21587b"/>
      </g>
      <g id="Group_34948" data-name="Group 34948" transform="translate(4225.695 4764.057)">
        <g id="Group_34930" data-name="Group 34930" transform="translate(3.064 55.524)" opacity="0.8">
          <path id="Path_86148" data-name="Path 86148" d="M4283.224,4822.752a5.322,5.322,0,0,1-2.653-.708h0l-51.8-29.907a1.607,1.607,0,0,1,0-2.781l32.638-18.844.2.119,54.253,31.322a1.607,1.607,0,0,1,0,2.781l-29.985,17.311A5.325,5.325,0,0,1,4283.224,4822.752Zm-2.253-1.4a4.591,4.591,0,0,0,4.507,0l29.982-17.31a.806.806,0,0,0,.3-1.1.815.815,0,0,0-.3-.3l-54.051-31.206-.051.03-32.186,18.582a.807.807,0,0,0,0,1.4Z" transform="translate(-4227.966 -4770.512)" fill="#00223d"/>
        </g>
        <g id="Group_34943" data-name="Group 34943">
          <g id="Group_34942" data-name="Group 34942">
            <g id="Group_34941" data-name="Group 34941">
              <g id="Group_34935" data-name="Group 34935">
                <g id="Group_34932" data-name="Group 34932" transform="translate(35.532)">
                  <path id="Path_86149" data-name="Path 86149" d="M4252.7,4772.995l7.216-42.812-.58-.246.872-.5v.005a.629.629,0,0,1,.672.046l57.673,33.3a1.63,1.63,0,0,1,.75,1.465l-7.276,43.153a.541.541,0,0,1-.3.44h0l-.853.493-.147-.8.05.015-57.325-33.1A1.629,1.629,0,0,1,4252.7,4772.995Z" transform="translate(-4251.791 -4729.367)" fill="url(#linear-gradient-17)"/>
                  <path id="Path_86150" data-name="Path 86150" d="M4303.942,4755.108l.948-.419a1.292,1.292,0,0,1,.121.713l-7.273,43.153a.541.541,0,0,1-.3.44h0l-.853.493-.146-.8.049.015-2.9-1.675Z" transform="translate(-4237.503 -4720.518)" fill="#dee4f0"/>
                  <path id="Path_86151" data-name="Path 86151" d="M4252.777,4774.845l57.673,33.3c.447.257.828.108.906-.352l7.273-43.155a1.628,1.628,0,0,0-.749-1.466l-57.673-33.3c-.446-.256-.827-.108-.906.354l-7.273,43.157A1.63,1.63,0,0,0,4252.777,4774.845Z" transform="translate(-4252.026 -4729.233)" fill="#00223d"/>
                  <g id="Group_34931" data-name="Group 34931" transform="translate(2.08 3.395)" opacity="0.51">
                    <path id="Path_86152" data-name="Path 86152" d="M4260.424,4731.883l55.592,32.1-6.895,40.64-55.555-32.073Z" transform="translate(-4253.566 -4731.883)" fill="#00223d"/>
                  </g>
                </g>
                <g id="Group_34934" data-name="Group 34934" transform="translate(0 45.464)">
                  <path id="Path_86153" data-name="Path 86153" d="M4225.718,4782.654l3.148,1.643,31.56-18.222a2.289,2.289,0,0,1,2.059.085l54.433,31.426c.521-.291,2.9-1.433,2.9-1.433l-1.152,3,0,0a.687.687,0,0,1-.322.357L4285.1,4818.7a2.289,2.289,0,0,1-2.06-.086l-55.7-32.159a1,1,0,0,1-.469-.5h0Z" transform="translate(-4225.688 -4762.074)" fill="#00223d"/>
                  <path id="Path_86154" data-name="Path 86154" d="M4226.213,4784.154l57.085,32.959a2.347,2.347,0,0,0,2.112.087l34.066-19.668c.541-.312.474-.858-.151-1.218l-57.088-32.959a2.341,2.341,0,0,0-2.11-.088l-34.067,19.669C4225.52,4783.248,4225.587,4783.792,4226.213,4784.154Z" transform="translate(-4225.695 -4763.058)" fill="url(#linear-gradient-18)"/>
                  <path id="Path_86155" data-name="Path 86155" d="M4226.21,4778.582l57.087,32.959a2.35,2.35,0,0,0,2.11.088l34.067-19.669a.7.7,0,0,0,.331-.368.574.574,0,0,1-.331.7l-34.067,19.669a2.342,2.342,0,0,1-2.11-.088l-57.087-32.959c-.42-.243-.582-.568-.481-.85A1,1,0,0,0,4226.21,4778.582Z" transform="translate(-4225.694 -4757.815)" fill="#fff"/>
                  <path id="Path_86156" data-name="Path 86156" d="M4281.755,4798.013v-.626c0-.059-.035-.086-.08-.059l-2.209,1.273a.191.191,0,0,0-.079.153v.628c0,.06.035.087.079.06l2.209-1.275A.193.193,0,0,0,4281.755,4798.013Z" transform="translate(-4206.932 -4751.085)" fill="#21587b"/>
                  <path id="Path_86157" data-name="Path 86157" d="M4279.309,4799.426v-.628c0-.059-.035-.086-.079-.059l-2.21,1.275a.194.194,0,0,0-.081.154v.625c0,.06.037.087.081.06l2.21-1.274A.192.192,0,0,0,4279.309,4799.426Z" transform="translate(-4207.788 -4750.592)" fill="#21587b"/>
                  <path id="Path_86158" data-name="Path 86158" d="M4305.582,4794.368l-47.441-27.389a1.017,1.017,0,0,0-1.022,0l-16.892,9.774a.362.362,0,0,0-.134.5.353.353,0,0,0,.134.133l47.416,27.377a1.026,1.026,0,0,0,1.022,0l16.915-9.76a.363.363,0,0,0,.139-.5A.355.355,0,0,0,4305.582,4794.368Z" transform="translate(-4220.681 -4761.735)" fill="#d2e1f1"/>
                  <path id="Path_86159" data-name="Path 86159" d="M4305.58,4795l-.17.1-47.27-27.291a1.022,1.022,0,0,0-1.022,0l-16.721,9.676-.169-.1a.362.362,0,0,1-.134-.5.349.349,0,0,1,.134-.134l16.893-9.774a1.019,1.019,0,0,1,1.023,0l47.438,27.389a.362.362,0,0,1,.131.5A.337.337,0,0,1,4305.58,4795Z" transform="translate(-4220.681 -4761.735)" fill="#727997"/>
                  <g id="Group_34933" data-name="Group 34933" transform="translate(21.896 8.958)">
                    <path id="Path_86160" data-name="Path 86160" d="M4254.694,4770.749l40.156,23.184,1.733-1.113-40.05-23.123Z" transform="translate(-4237.458 -4769.696)" fill="#00223d"/>
                    <path id="Path_86161" data-name="Path 86161" d="M4252.762,4773.478l36.457,21.045,1.25-1.394-35.875-20.71Z" transform="translate(-4238.132 -4768.744)" fill="#00223d"/>
                    <path id="Path_86162" data-name="Path 86162" d="M4246.257,4772.226l45.508,26.273,1.831-1.058-45.508-26.274Z" transform="translate(-4240.406 -4769.181)" fill="#00223d"/>
                    <path id="Path_86163" data-name="Path 86163" d="M4244.087,4773.478l45.508,26.272,1.831-1.058-45.508-26.272Z" transform="translate(-4241.164 -4768.744)" fill="#00223d"/>
                    <path id="Path_86164" data-name="Path 86164" d="M4241.921,4774.729,4287.429,4801l1.832-1.058-45.509-26.27Z" transform="translate(-4241.921 -4768.306)" fill="#00223d"/>
                    <path id="Path_86165" data-name="Path 86165" d="M4284.135,4787.748l1.833,1.058,1.831-1.058-1.831-1.059Z" transform="translate(-4227.169 -4763.757)" fill="#00223d"/>
                    <path id="Path_86166" data-name="Path 86166" d="M4279.346,4788.827l3.8,2.2,1.831-1.058-3.8-2.2Z" transform="translate(-4228.842 -4763.38)" fill="#00223d"/>
                  </g>
                  <path id="Path_86167" data-name="Path 86167" d="M4255.512,4795.7l-12.794-7.384a.552.552,0,0,1,0-1.046l8.747-5.05a2,2,0,0,1,1.811,0l12.793,7.386a.552.552,0,0,1,0,1.045l-8.747,5.05A1.993,1.993,0,0,1,4255.512,4795.7Z" transform="translate(-4219.877 -4756.438)" fill="url(#linear-gradient-19)"/>
                  <path id="Path_86168" data-name="Path 86168" d="M4266.067,4790.031l-12.793-7.386a2,2,0,0,0-1.811,0l-8.747,5.05a.758.758,0,0,0-.312.31c-.134-.253-.033-.536.313-.737l8.747-5.05a2,2,0,0,1,1.811,0l12.793,7.386c.348.2.446.483.315.737A.77.77,0,0,0,4266.067,4790.031Z" transform="translate(-4219.876 -4756.438)" fill="#727997"/>
                </g>
              </g>
              <g id="Group_34940" data-name="Group 34940" transform="translate(37.611 3.395)" opacity="0.11">
                <g id="Grupo_55741" data-name="Grupo 55741">
                  <g id="Grupo_55740" data-name="Grupo 55740" clip-path="url(#clip-path)">
                    <g id="Group_34939" data-name="Group 34939" transform="translate(-1.642 21.203)">
                      <g id="Group_34938" data-name="Group 34938">
                        <path id="Path_86169" data-name="Path 86169" d="M4252.866,4768.689l57.088,32.959a2.341,2.341,0,0,0,2.11.088l34.067-19.667c.541-.313.472-.858-.152-1.22l-57.086-32.958a2.349,2.349,0,0,0-2.112-.086l-34.066,19.668C4252.175,4767.784,4252.242,4768.329,4252.866,4768.689Z" transform="translate(-4252.35 -4747.594)" fill="url(#linear-gradient-20)"/>
                        <path id="Path_86170" data-name="Path 86170" d="M4298.573,4771.154l-12.793-7.386a.552.552,0,0,1,0-1.046l8.747-5.049a1.993,1.993,0,0,1,1.81,0l12.793,7.385a.551.551,0,0,1,0,1.044l-8.747,5.051A2.009,2.009,0,0,1,4298.573,4771.154Z" transform="translate(-4240.799 -4744.148)" fill="url(#linear-gradient-21)"/>
                        <path id="Path_86171" data-name="Path 86171" d="M4309.127,4765.486l-12.794-7.386a2,2,0,0,0-1.81,0l-8.747,5.049a.791.791,0,0,0-.314.309c-.132-.252-.031-.536.314-.737l8.747-5.049a1.993,1.993,0,0,1,1.81,0l12.794,7.385c.346.2.445.485.313.737A.76.76,0,0,0,4309.127,4765.486Z" transform="translate(-4240.798 -4744.148)" fill="#9198db"/>
                        <g id="Group_34937" data-name="Group 34937" transform="translate(8.422 11.02)">
                          <path id="Path_86172" data-name="Path 86172" d="M4324.127,4783.288l-47.44-27.391a1.025,1.025,0,0,0-1.021,0l-16.894,9.774a.364.364,0,0,0,0,.63l47.418,27.376a1.019,1.019,0,0,0,1.021,0l16.917-9.758a.364.364,0,0,0,.143-.494A.351.351,0,0,0,4324.127,4783.288Z" transform="translate(-4258.591 -4755.761)" fill="#adb1f2"/>
                          <path id="Path_86173" data-name="Path 86173" d="M4324.126,4783.917l-.171.1-47.269-27.292a1.015,1.015,0,0,0-1.021,0l-16.722,9.676-.17-.1a.364.364,0,0,1-.132-.5.358.358,0,0,1,.132-.132l16.893-9.774a1.026,1.026,0,0,1,1.021,0l47.438,27.391a.363.363,0,0,1,.131.5A.356.356,0,0,1,4324.126,4783.917Z" transform="translate(-4258.591 -4755.761)" fill="#9198db"/>
                          <g id="Group_34936" data-name="Group 34936" transform="translate(2.962 2.006)">
                            <path id="Path_86174" data-name="Path 86174" d="M4262.424,4762.612l41.327,23.861-1.637.945-41.329-23.861Z" transform="translate(-4260.786 -4755.373)" fill="#24126a"/>
                            <path id="Path_86175" data-name="Path 86175" d="M4265.65,4760.749l39.281,22.679-1.637.944-39.281-22.679Z" transform="translate(-4259.658 -4756.023)" fill="#24126a"/>
                            <path id="Path_86176" data-name="Path 86176" d="M4296.932,4778.81l3.669,2.118-1.637.945-3.668-2.119Z" transform="translate(-4248.726 -4749.712)" fill="#24126a"/>
                            <path id="Path_86177" data-name="Path 86177" d="M4294.532,4781.15l2.555,1.475-1.637.944-2.555-1.475Z" transform="translate(-4249.565 -4748.894)" fill="#24126a"/>
                            <path id="Path_86178" data-name="Path 86178" d="M4267.673,4759.581l45.883,26.491-1.637.945-45.883-26.492Z" transform="translate(-4258.952 -4756.432)" fill="#24126a"/>
                            <path id="Path_86179" data-name="Path 86179" d="M4269.694,4758.413l45.884,26.491-1.637.945-45.884-26.49Z" transform="translate(-4258.245 -4756.84)" fill="#24126a"/>
                            <path id="Path_86180" data-name="Path 86180" d="M4271.716,4757.247l45.883,26.489-1.637.946-45.883-26.492Z" transform="translate(-4257.539 -4757.247)" fill="#24126a"/>
                          </g>
                        </g>
                      </g>
                    </g>
                  </g>
                </g>
              </g>
            </g>
          </g>
        </g>
        <g id="Group_34947" data-name="Group 34947" transform="translate(52.051 17.678)">
          <path id="Path_86181" data-name="Path 86181" d="M4267.871,4743.248l4.5,2.6.132-.78-4.5-2.6Z" transform="translate(-4263.008 -4742.467)" fill="#42e8e0"/>
          <path id="Path_86182" data-name="Path 86182" d="M4271.74,4745.482l2.45,1.416.132-.782-2.45-1.415Z" transform="translate(-4261.656 -4741.686)" fill="#42e8e0"/>
          <path id="Path_86183" data-name="Path 86183" d="M4276.38,4748.161l1.773,1.024.132-.779-1.773-1.026Z" transform="translate(-4260.034 -4740.75)" fill="#42e8e0"/>
          <path id="Path_86184" data-name="Path 86184" d="M4275.424,4747.607l.606.352.133-.782-.606-.349Z" transform="translate(-4260.368 -4740.943)" fill="#42e8e0"/>
          <path id="Path_86185" data-name="Path 86185" d="M4274.1,4746.843l1.1.635.131-.779-1.1-.637Z" transform="translate(-4260.831 -4741.21)" fill="#42e8e0"/>
          <path id="Path_86186" data-name="Path 86186" d="M4270.509,4747.674l1.773,1.025.131-.782-1.773-1.024Z" transform="translate(-4262.086 -4740.919)" fill="#42e8e0"/>
          <path id="Path_86187" data-name="Path 86187" d="M4267.425,4745.892l3.475,2.009.132-.78-3.475-2.008Z" transform="translate(-4263.164 -4741.542)" fill="#42e8e0"/>
          <g id="Group_34944" data-name="Group 34944" transform="translate(7.454 15.194)">
            <path id="Path_86188" data-name="Path 86188" d="M4271.116,4755.271l3.473,2.009.132-.78-3.475-2.009Z" transform="translate(-4269.328 -4753.458)" fill="#42e8e0"/>
            <path id="Path_86189" data-name="Path 86189" d="M4269.791,4754.507l1.1.635.132-.781-1.1-.635Z" transform="translate(-4269.791 -4753.726)" fill="#42e8e0"/>
          </g>
          <path id="Path_86190" data-name="Path 86190" d="M4271.545,4752.624l3.475,2.008.132-.78-3.475-2.008Z" transform="translate(-4261.724 -4739.19)" fill="#42e8e0"/>
          <path id="Path_86191" data-name="Path 86191" d="M4270.221,4751.859l1.1.635.132-.781-1.1-.635Z" transform="translate(-4262.187 -4739.458)" fill="#42e8e0"/>
          <path id="Path_86192" data-name="Path 86192" d="M4270.943,4767.476l-6.544-3.783-.133.781,6.545,3.783Z" transform="translate(-4264.267 -4735.049)" fill="#42e8e0"/>
          <path id="Path_86193" data-name="Path 86193" d="M4271.379,4767.726l-1.622-.935-.132.78,1.621.934Z" transform="translate(-4262.395 -4733.967)" fill="#42e8e0"/>
          <path id="Path_86194" data-name="Path 86194" d="M4281.176,4769.025l-6.544-3.782-.132.78,6.545,3.783Z" transform="translate(-4260.691 -4734.507)" fill="#42e8e0"/>
          <path id="Path_86195" data-name="Path 86195" d="M4281.611,4769.277l-1.62-.937-.132.781,1.62.936Z" transform="translate(-4258.818 -4733.425)" fill="#42e8e0"/>
          <path id="Path_86196" data-name="Path 86196" d="M4266.4,4763.4l-1.773-1.025-.132.781,1.773,1.024Z" transform="translate(-4264.189 -4735.511)" fill="#42e8e0"/>
          <path id="Path_86197" data-name="Path 86197" d="M4274.39,4765.111l-1.773-1.025-.132.782,1.773,1.024Z" transform="translate(-4261.396 -4734.912)" fill="#42e8e0"/>
          <path id="Path_86198" data-name="Path 86198" d="M4269.919,4765.433l-3.473-2.008-.132.78,3.474,2.008Z" transform="translate(-4263.552 -4735.143)" fill="#42e8e0"/>
          <path id="Path_86199" data-name="Path 86199" d="M4270.63,4765.843l-1.1-.636-.133.782,1.1.635Z" transform="translate(-4262.474 -4734.52)" fill="#42e8e0"/>
          <path id="Path_86200" data-name="Path 86200" d="M4274.352,4767.991l-3.473-2.008-.132.78,3.473,2.008Z" transform="translate(-4262.003 -4734.248)" fill="#42e8e0"/>
          <path id="Path_86201" data-name="Path 86201" d="M4275.063,4768.4l-1.1-.635-.133.78,1.1.636Z" transform="translate(-4260.925 -4733.626)" fill="#42e8e0"/>
          <path id="Path_86202" data-name="Path 86202" d="M4274.167,4766.433l-1.773-1.024-.132.78,1.773,1.024Z" transform="translate(-4261.473 -4734.449)" fill="#42e8e0"/>
          <path id="Path_86203" data-name="Path 86203" d="M4277.691,4768.471l-3.475-2.009-.131.781,3.474,2.008Z" transform="translate(-4260.836 -4734.082)" fill="#42e8e0"/>
          <path id="Path_86204" data-name="Path 86204" d="M4278.4,4768.88l-1.1-.635-.132.78,1.1.636Z" transform="translate(-4259.758 -4733.458)" fill="#42e8e0"/>
          <path id="Path_86205" data-name="Path 86205" d="M4268.474,4763.146l-3.628-2.1-.133.781,3.629,2.1Z" transform="translate(-4264.111 -4735.973)" fill="#42e8e0"/>
          <path id="Path_86206" data-name="Path 86206" d="M4270.667,4764.414l-2.624-1.516-.132.78,2.623,1.517Z" transform="translate(-4262.993 -4735.327)" fill="#42e8e0"/>
          <path id="Path_86207" data-name="Path 86207" d="M4272.27,4765.341l-1.773-1.026-.131.781,1.773,1.024Z" transform="translate(-4262.136 -4734.832)" fill="#42e8e0"/>
          <path id="Path_86208" data-name="Path 86208" d="M4285.5,4771.516l-3.628-2.1-.132.781,3.63,2.1Z" transform="translate(-4258.163 -4733.048)" fill="#42e8e0"/>
          <path id="Path_86209" data-name="Path 86209" d="M4287.686,4772.784l-2.624-1.517-.131.781,2.623,1.517Z" transform="translate(-4257.046 -4732.402)" fill="#42e8e0"/>
          <path id="Path_86210" data-name="Path 86210" d="M4289.291,4773.709l-1.773-1.024-.132.782,1.774,1.023Z" transform="translate(-4256.188 -4731.906)" fill="#42e8e0"/>
          <path id="Path_86211" data-name="Path 86211" d="M4283.469,4753.706l3.63,2.1.132-.78-3.63-2.1Z" transform="translate(-4257.557 -4738.812)" fill="#42e8e0"/>
          <path id="Path_86212" data-name="Path 86212" d="M4281.017,4752.288l2.623,1.517.132-.781-2.623-1.517Z" transform="translate(-4258.414 -4739.308)" fill="#42e8e0"/>
          <path id="Path_86213" data-name="Path 86213" d="M4279.194,4751.234l1.773,1.025.133-.782-1.773-1.024Z" transform="translate(-4259.051 -4739.676)" fill="#42e8e0"/>
          <path id="Path_86214" data-name="Path 86214" d="M4282.578,4751.735l3.63,2.1.133-.782-3.631-2.1Z" transform="translate(-4257.868 -4739.501)" fill="#42e8e0"/>
          <path id="Path_86215" data-name="Path 86215" d="M4280.125,4750.315l2.623,1.516.132-.78-2.623-1.516Z" transform="translate(-4258.726 -4739.997)" fill="#42e8e0"/>
          <path id="Path_86216" data-name="Path 86216" d="M4278.3,4749.262l1.773,1.024.132-.781-1.773-1.024Z" transform="translate(-4259.363 -4740.365)" fill="#42e8e0"/>
          <path id="Path_86217" data-name="Path 86217" d="M4271.722,4754.179l1.225.708.133-.781-1.226-.708Z" transform="translate(-4261.662 -4738.647)" fill="#42e8e0"/>
          <path id="Path_86218" data-name="Path 86218" d="M4270.013,4753.191l1.619.936.132-.78-1.619-.937Z" transform="translate(-4262.259 -4738.992)" fill="#42e8e0"/>
          <path id="Path_86219" data-name="Path 86219" d="M4268.716,4761.832l-3.631-2.1-.132.78,3.63,2.1Z" transform="translate(-4264.027 -4736.433)" fill="#42e8e0"/>
          <path id="Path_86220" data-name="Path 86220" d="M4270.909,4763.1l-2.625-1.517-.131.781,2.625,1.516Z" transform="translate(-4262.909 -4735.787)" fill="#42e8e0"/>
          <path id="Path_86221" data-name="Path 86221" d="M4272.512,4764.025l-1.773-1.024-.132.781,1.773,1.024Z" transform="translate(-4262.052 -4735.291)" fill="#42e8e0"/>
          <path id="Path_86222" data-name="Path 86222" d="M4266.535,4759.122l-1.226-.708-.132.78,1.226.708Z" transform="translate(-4263.948 -4736.894)" fill="#42e8e0"/>
          <path id="Path_86223" data-name="Path 86223" d="M4268.346,4760.168l-1.62-.937-.13.782,1.618.936Z" transform="translate(-4263.453 -4736.608)" fill="#42e8e0"/>
          <path id="Path_86224" data-name="Path 86224" d="M4271.045,4761.727l-2.61-1.509-.132.781,2.609,1.508Z" transform="translate(-4262.856 -4736.264)" fill="#42e8e0"/>
          <path id="Path_86225" data-name="Path 86225" d="M4272.958,4750.535l1.226.707.132-.782-1.225-.707Z" transform="translate(-4261.23 -4739.92)" fill="#42e8e0"/>
          <path id="Path_86226" data-name="Path 86226" d="M4271.249,4749.545l1.62.937.132-.782-1.619-.936Z" transform="translate(-4261.827 -4740.266)" fill="#42e8e0"/>
          <path id="Path_86227" data-name="Path 86227" d="M4268.806,4748.133l2.608,1.508.132-.781-2.61-1.509Z" transform="translate(-4262.681 -4740.76)" fill="#42e8e0"/>
          <path id="Path_86228" data-name="Path 86228" d="M4274.341,4752.681l2.608,1.507.133-.78-2.609-1.509Z" transform="translate(-4260.747 -4739.171)" fill="#42e8e0"/>
          <path id="Path_86229" data-name="Path 86229" d="M4271.178,4750.957l3.517,2.032.132-.781-3.517-2.033Z" transform="translate(-4261.852 -4739.773)" fill="#42e8e0"/>
          <path id="Path_86230" data-name="Path 86230" d="M4269.854,4750.191l1.1.636.132-.781-1.1-.635Z" transform="translate(-4262.315 -4740.041)" fill="#42e8e0"/>
          <path id="Path_86231" data-name="Path 86231" d="M4268.583,4749.455l1.1.637.133-.781-1.1-.636Z" transform="translate(-4262.759 -4740.297)" fill="#42e8e0"/>
          <g id="Group_34946" data-name="Group 34946" transform="translate(1.531 17.109)">
            <path id="Path_86232" data-name="Path 86232" d="M4268.758,4756.926l3.474,2.009.132-.782-3.475-2.007Z" transform="translate(-4264.229 -4754.795)" fill="#42e8e0"/>
            <path id="Path_86233" data-name="Path 86233" d="M4267.433,4756.161l1.1.636.133-.78-1.1-.637Z" transform="translate(-4264.692 -4755.063)" fill="#42e8e0"/>
            <path id="Path_86234" data-name="Path 86234" d="M4268.935,4758.481l1.225.709.132-.781-1.225-.708Z" transform="translate(-4264.167 -4754.252)" fill="#42e8e0"/>
            <path id="Path_86235" data-name="Path 86235" d="M4272.14,4757.422l1.225.707.132-.781-1.226-.707Z" transform="translate(-4263.047 -4754.622)" fill="#42e8e0"/>
            <path id="Path_86236" data-name="Path 86236" d="M4273.435,4758.169l2.94,1.7.132-.78-2.94-1.7Z" transform="translate(-4262.595 -4754.361)" fill="#42e8e0"/>
            <path id="Path_86237" data-name="Path 86237" d="M4276,4759.65l1.749,1.01.131-.781-1.749-1.011Z" transform="translate(-4261.698 -4753.844)" fill="#42e8e0"/>
            <path id="Path_86238" data-name="Path 86238" d="M4267.224,4757.493l1.619.937.132-.782-1.62-.936Z" transform="translate(-4264.765 -4754.598)" fill="#42e8e0"/>
            <g id="Group_34945" data-name="Group 34945" transform="translate(0 2.615)">
              <path id="Path_86239" data-name="Path 86239" d="M4267.112,4758.852l1.226.708.132-.781-1.223-.71Z" transform="translate(-4264.804 -4756.738)" fill="#42e8e0"/>
              <path id="Path_86240" data-name="Path 86240" d="M4265.4,4757.864l1.62.936.133-.78-1.62-.937Z" transform="translate(-4265.401 -4757.083)" fill="#42e8e0"/>
            </g>
            <path id="Path_86241" data-name="Path 86241" d="M4270.823,4756.662l1.1.636.132-.78-1.1-.637Z" transform="translate(-4263.507 -4754.888)" fill="#42e8e0"/>
            <path id="Path_86242" data-name="Path 86242" d="M4269.552,4755.927l1.1.635.132-.779-1.1-.638Z" transform="translate(-4263.952 -4755.145)" fill="#42e8e0"/>
          </g>
          <path id="Path_86243" data-name="Path 86243" d="M4275.815,4749.283l3.753,2.168.132-.782-3.752-2.168Z" transform="translate(-4260.231 -4740.358)" fill="#42e8e0"/>
          <path id="Path_86244" data-name="Path 86244" d="M4272.7,4747.481l3.517,2.032.132-.78-3.518-2.033Z" transform="translate(-4261.32 -4740.987)" fill="#42e8e0"/>
          <path id="Path_86245" data-name="Path 86245" d="M4271.375,4746.715l1.1.636.133-.781-1.1-.635Z" transform="translate(-4261.783 -4741.255)" fill="#42e8e0"/>
          <path id="Path_86246" data-name="Path 86246" d="M4270.1,4745.981l1.1.636.132-.78-1.1-.636Z" transform="translate(-4262.228 -4741.512)" fill="#42e8e0"/>
          <path id="Path_86247" data-name="Path 86247" d="M4270.024,4745.937l-2.375-1.373.132-.781,2.375,1.372Z" transform="translate(-4263.085 -4742.007)" fill="#42e8e0"/>
        </g>
      </g>
      <g id="Group_34948-2" data-name="Group 34948" transform="translate(4357.527 4818.989)">
        <g id="Group_34930-2" data-name="Group 34930" transform="translate(3.064 55.525)" opacity="0.8">
          <path id="Path_86148-2" data-name="Path 86148" d="M4380.916,4863.46a5.314,5.314,0,0,1-2.652-.71h0l-51.8-29.905a1.607,1.607,0,0,1,0-2.781l32.638-18.844.2.119,54.254,31.322a1.607,1.607,0,0,1,0,2.781l-29.983,17.311A5.334,5.334,0,0,1,4380.916,4863.46Zm-2.253-1.4a4.591,4.591,0,0,0,4.507,0l29.982-17.31a.806.806,0,0,0,0-1.4l-54.051-31.207-.051.03-32.187,18.582a.808.808,0,0,0,0,1.4Z" transform="translate(-4325.659 -4811.22)" fill="#00223d"/>
        </g>
        <g id="Group_34943-2" data-name="Group 34943">
          <g id="Group_34942-2" data-name="Group 34942">
            <g id="Group_34941-2" data-name="Group 34941">
              <g id="Group_34935-2" data-name="Group 34935">
                <g id="Group_34932-2" data-name="Group 34932" transform="translate(35.533)">
                  <path id="Path_86149-2" data-name="Path 86149" d="M4350.394,4813.7l7.217-42.812-.581-.246.872-.5v.005a.628.628,0,0,1,.672.047l57.673,33.3a1.629,1.629,0,0,1,.749,1.465l-7.276,43.153a.538.538,0,0,1-.3.44h0l-.853.493-.146-.8.048.015-57.325-33.1A1.63,1.63,0,0,1,4350.394,4813.7Z" transform="translate(-4349.484 -4770.074)" fill="url(#linear-gradient-22)"/>
                  <path id="Path_86150-2" data-name="Path 86150" d="M4401.636,4795.817l.946-.42a1.293,1.293,0,0,1,.122.713l-7.273,43.153a.537.537,0,0,1-.3.44h0l-.852.493-.146-.8.048.015-2.9-1.673Z" transform="translate(-4335.196 -4761.225)" fill="#dee4f0"/>
                  <path id="Path_86151-2" data-name="Path 86151" d="M4350.47,4815.554l57.674,33.3c.447.257.827.108.905-.353l7.273-43.154a1.626,1.626,0,0,0-.749-1.465l-57.673-33.3c-.445-.256-.828-.108-.906.354l-7.273,43.157A1.631,1.631,0,0,0,4350.47,4815.554Z" transform="translate(-4349.719 -4769.94)" fill="#00223d"/>
                  <g id="Group_34931-2" data-name="Group 34931" transform="translate(2.079 3.397)" opacity="0.51">
                    <path id="Path_86152-2" data-name="Path 86152" d="M4358.116,4772.591l55.593,32.1-6.895,40.642-55.555-32.072Z" transform="translate(-4351.26 -4772.591)" fill="#00223d"/>
                  </g>
                </g>
                <g id="Group_34934-2" data-name="Group 34934" transform="translate(0 45.466)">
                  <path id="Path_86153-2" data-name="Path 86153" d="M4323.412,4823.362l3.146,1.643,31.56-18.221a2.284,2.284,0,0,1,2.06.085l54.434,31.426c.521-.292,2.9-1.434,2.9-1.434l-1.152,3,0,0a.685.685,0,0,1-.323.356l-33.239,19.192a2.287,2.287,0,0,1-2.059-.086l-55.7-32.159a1,1,0,0,1-.468-.5h0Z" transform="translate(-4323.38 -4802.782)" fill="#00223d"/>
                  <path id="Path_86154-2" data-name="Path 86154" d="M4323.906,4824.862l57.086,32.959a2.351,2.351,0,0,0,2.112.088l34.064-19.669c.542-.312.475-.858-.15-1.218l-57.088-32.96a2.34,2.34,0,0,0-2.11-.088l-34.066,19.669C4323.212,4823.955,4323.28,4824.5,4323.906,4824.862Z" transform="translate(-4323.388 -4803.765)" fill="url(#linear-gradient-23)"/>
                  <path id="Path_86155-2" data-name="Path 86155" d="M4323.9,4819.29l57.088,32.959a2.347,2.347,0,0,0,2.11.088l34.066-19.669a.708.708,0,0,0,.331-.369.575.575,0,0,1-.331.7l-34.066,19.669a2.344,2.344,0,0,1-2.11-.088l-57.088-32.959c-.42-.243-.582-.568-.481-.851A1,1,0,0,0,4323.9,4819.29Z" transform="translate(-4323.387 -4798.522)" fill="#fff"/>
                  <path id="Path_86156-2" data-name="Path 86156" d="M4379.448,4838.721v-.626c0-.06-.035-.086-.08-.06l-2.208,1.274a.192.192,0,0,0-.08.153v.628c0,.059.035.086.08.059l2.208-1.275A.2.2,0,0,0,4379.448,4838.721Z" transform="translate(-4304.625 -4791.793)" fill="#21587b"/>
                  <path id="Path_86157-2" data-name="Path 86157" d="M4377,4840.132v-.626c0-.059-.036-.086-.08-.059l-2.209,1.275a.194.194,0,0,0-.081.154v.626c0,.06.037.086.081.06l2.209-1.274A.191.191,0,0,0,4377,4840.132Z" transform="translate(-4305.481 -4791.3)" fill="#21587b"/>
                  <path id="Path_86158-2" data-name="Path 86158" d="M4403.275,4835.076l-47.442-27.39a1.023,1.023,0,0,0-1.021,0l-16.893,9.774a.364.364,0,0,0-.134.5.338.338,0,0,0,.134.133l47.416,27.378a1.023,1.023,0,0,0,1.021,0l16.915-9.759a.364.364,0,0,0,.14-.5A.359.359,0,0,0,4403.275,4835.076Z" transform="translate(-4318.374 -4802.443)" fill="#d2e1f1"/>
                  <path id="Path_86159-2" data-name="Path 86159" d="M4403.272,4835.707l-.169.1-47.271-27.291a1.021,1.021,0,0,0-1.021,0l-16.72,9.675-.17-.1a.364.364,0,0,1,0-.63l16.893-9.774a1.025,1.025,0,0,1,1.022,0l47.439,27.39a.362.362,0,0,1,.131.5A.353.353,0,0,1,4403.272,4835.707Z" transform="translate(-4318.373 -4802.443)" fill="#727997"/>
                  <g id="Group_34933-2" data-name="Group 34933" transform="translate(21.896 8.958)">
                    <path id="Path_86160-2" data-name="Path 86160" d="M4352.387,4811.457l40.156,23.183,1.734-1.113-40.051-23.124Z" transform="translate(-4335.149 -4810.404)" fill="#00223d"/>
                    <path id="Path_86161-2" data-name="Path 86161" d="M4350.455,4814.186l36.457,21.046,1.249-1.4-35.875-20.709Z" transform="translate(-4335.825 -4809.452)" fill="#00223d"/>
                    <path id="Path_86162-2" data-name="Path 86162" d="M4343.95,4812.934l45.507,26.273,1.831-1.058-45.507-26.274Z" transform="translate(-4338.098 -4809.889)" fill="#00223d"/>
                    <path id="Path_86163-2" data-name="Path 86163" d="M4341.78,4814.186l45.508,26.272,1.833-1.057-45.509-26.273Z" transform="translate(-4338.857 -4809.452)" fill="#00223d"/>
                    <path id="Path_86164-2" data-name="Path 86164" d="M4339.614,4815.436l45.508,26.273,1.833-1.057-45.507-26.271Z" transform="translate(-4339.614 -4809.014)" fill="#00223d"/>
                    <path id="Path_86165-2" data-name="Path 86165" d="M4381.828,4828.456l1.833,1.058,1.831-1.058-1.831-1.058Z" transform="translate(-4324.862 -4804.465)" fill="#00223d"/>
                    <path id="Path_86166-2" data-name="Path 86166" d="M4377.039,4829.535l3.8,2.2,1.832-1.058-3.8-2.2Z" transform="translate(-4326.535 -4804.088)" fill="#00223d"/>
                  </g>
                  <path id="Path_86167-2" data-name="Path 86167" d="M4353.205,4836.406l-12.793-7.384a.552.552,0,0,1,0-1.046l8.747-5.049a2,2,0,0,1,1.811,0l12.792,7.385a.552.552,0,0,1,0,1.045l-8.747,5.051A2,2,0,0,1,4353.205,4836.406Z" transform="translate(-4317.57 -4797.146)" fill="url(#linear-gradient-24)"/>
                  <path id="Path_86168-2" data-name="Path 86168" d="M4363.761,4830.74l-12.792-7.386a2,2,0,0,0-1.81,0l-8.747,5.05a.755.755,0,0,0-.314.309c-.134-.252-.032-.536.314-.737l8.747-5.049a2,2,0,0,1,1.81,0l12.792,7.385c.347.2.447.483.314.737A.773.773,0,0,0,4363.761,4830.74Z" transform="translate(-4317.569 -4797.146)" fill="#727997"/>
                </g>
              </g>
              <g id="Group_34940-2" data-name="Group 34940" transform="translate(37.611 3.397)" opacity="0.11">
                <g id="Grupo_55743" data-name="Grupo 55743">
                  <g id="Grupo_55742" data-name="Grupo 55742" clip-path="url(#clip-path-2)">
                    <g id="Group_34939-2" data-name="Group 34939" transform="translate(-1.642 21.203)">
                      <g id="Group_34938-2" data-name="Group 34938">
                        <path id="Path_86169-2" data-name="Path 86169" d="M4350.56,4809.4l57.087,32.958a2.342,2.342,0,0,0,2.111.088l34.067-19.668c.541-.313.473-.857-.153-1.219l-57.085-32.958a2.348,2.348,0,0,0-2.112-.086l-34.066,19.667C4349.868,4808.492,4349.935,4809.037,4350.56,4809.4Z" transform="translate(-4350.043 -4788.302)" fill="url(#linear-gradient-25)"/>
                        <path id="Path_86170-2" data-name="Path 86170" d="M4396.266,4811.862l-12.792-7.386a.552.552,0,0,1,0-1.045l8.747-5.049a1.994,1.994,0,0,1,1.81,0l12.792,7.385a.551.551,0,0,1,0,1.044l-8.748,5.051A2.005,2.005,0,0,1,4396.266,4811.862Z" transform="translate(-4338.492 -4784.856)" fill="url(#linear-gradient-26)"/>
                        <path id="Path_86171-2" data-name="Path 86171" d="M4406.821,4806.194l-12.795-7.386a2,2,0,0,0-1.81,0l-8.747,5.049a.787.787,0,0,0-.314.309c-.133-.252-.031-.536.314-.736l8.747-5.049a1.993,1.993,0,0,1,1.81,0l12.795,7.385c.345.2.445.483.314.735A.779.779,0,0,0,4406.821,4806.194Z" transform="translate(-4338.491 -4784.856)" fill="#9198db"/>
                        <g id="Group_34937-2" data-name="Group 34937" transform="translate(8.422 11.02)">
                          <path id="Path_86172-2" data-name="Path 86172" d="M4421.82,4824l-47.44-27.391a1.026,1.026,0,0,0-1.021,0l-16.893,9.774a.366.366,0,0,0-.134.5.38.38,0,0,0,.134.132l47.417,27.376a1.018,1.018,0,0,0,1.02,0l16.917-9.758a.363.363,0,0,0,.142-.493A.347.347,0,0,0,4421.82,4824Z" transform="translate(-4356.284 -4796.469)" fill="#adb1f2"/>
                          <path id="Path_86173-2" data-name="Path 86173" d="M4421.82,4824.625l-.17.1-47.271-27.292a1.016,1.016,0,0,0-1.021,0l-16.721,9.676-.17-.1a.364.364,0,0,1-.133-.5.36.36,0,0,1,.133-.132l16.893-9.774a1.027,1.027,0,0,1,1.022,0L4421.82,4824a.364.364,0,0,1,.132.5A.368.368,0,0,1,4421.82,4824.625Z" transform="translate(-4356.284 -4796.469)" fill="#9198db"/>
                          <g id="Group_34936-2" data-name="Group 34936" transform="translate(2.963 2.004)">
                            <path id="Path_86174-2" data-name="Path 86174" d="M4360.117,4803.319l41.327,23.861-1.637.945-41.327-23.861Z" transform="translate(-4358.48 -4796.079)" fill="#24126a"/>
                            <path id="Path_86175-2" data-name="Path 86175" d="M4363.343,4801.457l39.281,22.678-1.637.946-39.281-22.679Z" transform="translate(-4357.353 -4796.73)" fill="#24126a"/>
                            <path id="Path_86176-2" data-name="Path 86176" d="M4394.626,4819.518l3.669,2.119-1.637.945-3.668-2.119Z" transform="translate(-4346.42 -4790.418)" fill="#24126a"/>
                            <path id="Path_86177-2" data-name="Path 86177" d="M4392.225,4821.858l2.555,1.475-1.637.944-2.555-1.475Z" transform="translate(-4347.26 -4789.601)" fill="#24126a"/>
                            <path id="Path_86178-2" data-name="Path 86178" d="M4365.366,4800.289l45.883,26.491-1.637.945-45.883-26.492Z" transform="translate(-4356.646 -4797.138)" fill="#24126a"/>
                            <path id="Path_86179-2" data-name="Path 86179" d="M4367.387,4799.121l45.884,26.491-1.637.944-45.884-26.491Z" transform="translate(-4355.939 -4797.546)" fill="#24126a"/>
                            <path id="Path_86180-2" data-name="Path 86180" d="M4369.409,4797.954l45.883,26.491-1.637.945-45.883-26.49Z" transform="translate(-4355.233 -4797.954)" fill="#24126a"/>
                          </g>
                        </g>
                      </g>
                    </g>
                  </g>
                </g>
              </g>
            </g>
          </g>
        </g>
        <g id="Group_34947-2" data-name="Group 34947" transform="translate(52.051 17.679)">
          <path id="Path_86181-2" data-name="Path 86181" d="M4365.564,4783.956l4.5,2.6.133-.78-4.5-2.6Z" transform="translate(-4360.701 -4783.175)" fill="#42e8e0"/>
          <path id="Path_86182-2" data-name="Path 86182" d="M4369.433,4786.188l2.451,1.417.132-.782-2.451-1.415Z" transform="translate(-4359.349 -4782.394)" fill="#42e8e0"/>
          <path id="Path_86183-2" data-name="Path 86183" d="M4374.073,4788.869l1.773,1.024.132-.779-1.773-1.026Z" transform="translate(-4357.727 -4781.458)" fill="#42e8e0"/>
          <path id="Path_86184-2" data-name="Path 86184" d="M4373.117,4788.315l.605.352.132-.782-.606-.349Z" transform="translate(-4358.061 -4781.651)" fill="#42e8e0"/>
          <path id="Path_86185-2" data-name="Path 86185" d="M4371.792,4787.551l1.1.635.131-.779-1.1-.637Z" transform="translate(-4358.524 -4781.918)" fill="#42e8e0"/>
          <path id="Path_86186-2" data-name="Path 86186" d="M4368.2,4788.382l1.773,1.025.132-.781-1.774-1.024Z" transform="translate(-4359.779 -4781.627)" fill="#42e8e0"/>
          <path id="Path_86187-2" data-name="Path 86187" d="M4365.118,4786.6l3.475,2.009.132-.78-3.475-2.008Z" transform="translate(-4360.856 -4782.25)" fill="#42e8e0"/>
          <g id="Group_34944-2" data-name="Group 34944" transform="translate(7.454 15.194)">
            <path id="Path_86188-2" data-name="Path 86188" d="M4368.809,4795.98l3.474,2.008.133-.78-3.476-2.009Z" transform="translate(-4367.021 -4794.167)" fill="#42e8e0"/>
            <path id="Path_86189-2" data-name="Path 86189" d="M4367.484,4795.214l1.1.636.132-.781-1.1-.635Z" transform="translate(-4367.484 -4794.434)" fill="#42e8e0"/>
          </g>
          <path id="Path_86190-2" data-name="Path 86190" d="M4369.238,4793.332l3.475,2.009.132-.78-3.475-2.01Z" transform="translate(-4359.417 -4779.898)" fill="#42e8e0"/>
          <path id="Path_86191-2" data-name="Path 86191" d="M4367.914,4792.567l1.1.635.132-.781-1.1-.635Z" transform="translate(-4359.879 -4780.166)" fill="#42e8e0"/>
          <path id="Path_86192-2" data-name="Path 86192" d="M4368.637,4808.184l-6.545-3.783-.132.781,6.545,3.783Z" transform="translate(-4361.96 -4775.757)" fill="#42e8e0"/>
          <path id="Path_86193-2" data-name="Path 86193" d="M4369.073,4808.434l-1.623-.936-.132.781,1.621.934Z" transform="translate(-4360.087 -4774.675)" fill="#42e8e0"/>
          <path id="Path_86194-2" data-name="Path 86194" d="M4378.869,4809.733l-6.545-3.782-.133.781,6.546,3.782Z" transform="translate(-4358.384 -4775.215)" fill="#42e8e0"/>
          <path id="Path_86195-2" data-name="Path 86195" d="M4379.3,4809.984l-1.619-.936-.133.781,1.619.936Z" transform="translate(-4356.511 -4774.133)" fill="#42e8e0"/>
          <path id="Path_86196-2" data-name="Path 86196" d="M4364.09,4804.1l-1.773-1.025-.132.781,1.773,1.024Z" transform="translate(-4361.882 -4776.219)" fill="#42e8e0"/>
          <path id="Path_86197-2" data-name="Path 86197" d="M4372.083,4805.818l-1.773-1.024-.132.781,1.773,1.024Z" transform="translate(-4359.087 -4775.62)" fill="#42e8e0"/>
          <path id="Path_86198-2" data-name="Path 86198" d="M4367.613,4806.141l-3.474-2.008-.133.78,3.476,2.008Z" transform="translate(-4361.244 -4775.851)" fill="#42e8e0"/>
          <path id="Path_86199-2" data-name="Path 86199" d="M4368.323,4806.551l-1.1-.636-.132.781,1.1.635Z" transform="translate(-4360.167 -4775.228)" fill="#42e8e0"/>
          <path id="Path_86200-2" data-name="Path 86200" d="M4372.044,4808.7l-3.473-2.008-.133.781,3.474,2.008Z" transform="translate(-4359.695 -4774.957)" fill="#42e8e0"/>
          <path id="Path_86201-2" data-name="Path 86201" d="M4372.755,4809.109l-1.1-.635-.132.779,1.1.637Z" transform="translate(-4358.618 -4774.334)" fill="#42e8e0"/>
          <path id="Path_86202-2" data-name="Path 86202" d="M4371.86,4807.141l-1.773-1.025-.132.781,1.773,1.024Z" transform="translate(-4359.166 -4775.158)" fill="#42e8e0"/>
          <path id="Path_86203-2" data-name="Path 86203" d="M4375.385,4809.18l-3.475-2.01-.131.781,3.474,2.008Z" transform="translate(-4358.529 -4774.79)" fill="#42e8e0"/>
          <path id="Path_86204-2" data-name="Path 86204" d="M4376.094,4809.588l-1.1-.635-.133.779,1.1.637Z" transform="translate(-4357.451 -4774.167)" fill="#42e8e0"/>
          <path id="Path_86205-2" data-name="Path 86205" d="M4366.167,4803.854l-3.628-2.1-.132.781,3.63,2.1Z" transform="translate(-4361.804 -4776.681)" fill="#42e8e0"/>
          <path id="Path_86206-2" data-name="Path 86206" d="M4368.36,4805.122l-2.623-1.516-.133.78,2.623,1.517Z" transform="translate(-4360.686 -4776.035)" fill="#42e8e0"/>
          <path id="Path_86207-2" data-name="Path 86207" d="M4369.964,4806.049l-1.774-1.026-.132.782,1.773,1.024Z" transform="translate(-4359.829 -4775.54)" fill="#42e8e0"/>
          <path id="Path_86208-2" data-name="Path 86208" d="M4383.188,4812.224l-3.629-2.1-.132.78,3.63,2.1Z" transform="translate(-4355.855 -4773.756)" fill="#42e8e0"/>
          <path id="Path_86209-2" data-name="Path 86209" d="M4385.378,4813.492l-2.623-1.517-.132.781,2.625,1.515Z" transform="translate(-4354.739 -4773.11)" fill="#42e8e0"/>
          <path id="Path_86210-2" data-name="Path 86210" d="M4386.984,4814.417l-1.774-1.024-.132.782,1.773,1.024Z" transform="translate(-4353.881 -4772.614)" fill="#42e8e0"/>
          <path id="Path_86211-2" data-name="Path 86211" d="M4381.162,4794.414l3.63,2.1.133-.78-3.631-2.1Z" transform="translate(-4355.25 -4779.52)" fill="#42e8e0"/>
          <path id="Path_86212-2" data-name="Path 86212" d="M4378.71,4793l2.624,1.517.132-.781-2.623-1.517Z" transform="translate(-4356.106 -4780.016)" fill="#42e8e0"/>
          <path id="Path_86213-2" data-name="Path 86213" d="M4376.887,4791.942l1.773,1.024.132-.78-1.773-1.024Z" transform="translate(-4356.744 -4780.384)" fill="#42e8e0"/>
          <path id="Path_86214-2" data-name="Path 86214" d="M4380.271,4792.442l3.63,2.1.132-.781-3.63-2.1Z" transform="translate(-4355.561 -4780.209)" fill="#42e8e0"/>
          <path id="Path_86215-2" data-name="Path 86215" d="M4377.818,4791.024l2.624,1.515.132-.78-2.623-1.516Z" transform="translate(-4356.418 -4780.705)" fill="#42e8e0"/>
          <path id="Path_86216-2" data-name="Path 86216" d="M4375.993,4789.97l1.773,1.024.132-.781-1.773-1.024Z" transform="translate(-4357.056 -4781.073)" fill="#42e8e0"/>
          <path id="Path_86217-2" data-name="Path 86217" d="M4369.416,4794.887l1.224.708.132-.781-1.225-.708Z" transform="translate(-4359.354 -4779.355)" fill="#42e8e0"/>
          <path id="Path_86218-2" data-name="Path 86218" d="M4367.706,4793.9l1.619.936.132-.78-1.619-.937Z" transform="translate(-4359.952 -4779.7)" fill="#42e8e0"/>
          <path id="Path_86219-2" data-name="Path 86219" d="M4366.408,4802.54l-3.63-2.1-.132.78,3.63,2.1Z" transform="translate(-4361.72 -4777.14)" fill="#42e8e0"/>
          <path id="Path_86220-2" data-name="Path 86220" d="M4368.6,4803.808l-2.625-1.517-.13.781,2.625,1.516Z" transform="translate(-4360.602 -4776.495)" fill="#42e8e0"/>
          <path id="Path_86221-2" data-name="Path 86221" d="M4370.2,4804.733l-1.773-1.024-.132.78,1.773,1.025Z" transform="translate(-4359.745 -4775.999)" fill="#42e8e0"/>
          <path id="Path_86222-2" data-name="Path 86222" d="M4364.229,4799.829l-1.225-.708-.132.78,1.225.708Z" transform="translate(-4361.642 -4777.602)" fill="#42e8e0"/>
          <path id="Path_86223-2" data-name="Path 86223" d="M4366.039,4800.876l-1.619-.937-.131.782,1.617.936Z" transform="translate(-4361.146 -4777.315)" fill="#42e8e0"/>
          <path id="Path_86224-2" data-name="Path 86224" d="M4368.738,4802.433l-2.609-1.507-.132.781,2.61,1.508Z" transform="translate(-4360.549 -4776.972)" fill="#42e8e0"/>
          <path id="Path_86225-2" data-name="Path 86225" d="M4370.651,4791.241l1.226.708.132-.781-1.226-.707Z" transform="translate(-4358.923 -4780.628)" fill="#42e8e0"/>
          <path id="Path_86226-2" data-name="Path 86226" d="M4368.941,4790.253l1.62.937.133-.782-1.62-.936Z" transform="translate(-4359.52 -4780.974)" fill="#42e8e0"/>
          <path id="Path_86227-2" data-name="Path 86227" d="M4366.5,4788.841l2.609,1.508.131-.781-2.608-1.509Z" transform="translate(-4360.374 -4781.468)" fill="#42e8e0"/>
          <path id="Path_86228-2" data-name="Path 86228" d="M4372.034,4793.389l2.608,1.507.132-.781-2.609-1.508Z" transform="translate(-4358.439 -4779.879)" fill="#42e8e0"/>
          <path id="Path_86229-2" data-name="Path 86229" d="M4368.871,4791.664l3.517,2.032.132-.781-3.517-2.032Z" transform="translate(-4359.545 -4780.481)" fill="#42e8e0"/>
          <path id="Path_86230-2" data-name="Path 86230" d="M4367.547,4790.9l1.1.637.133-.781-1.1-.635Z" transform="translate(-4360.008 -4780.749)" fill="#42e8e0"/>
          <path id="Path_86231-2" data-name="Path 86231" d="M4366.275,4790.163l1.1.637.132-.781-1.1-.636Z" transform="translate(-4360.451 -4781.005)" fill="#42e8e0"/>
          <g id="Group_34946-2" data-name="Group 34946" transform="translate(1.532 17.109)">
            <path id="Path_86232-2" data-name="Path 86232" d="M4366.451,4797.634l3.473,2.009.132-.781-3.475-2.009Z" transform="translate(-4361.922 -4795.503)" fill="#42e8e0"/>
            <path id="Path_86233-2" data-name="Path 86233" d="M4365.126,4796.869l1.1.636.133-.78-1.1-.637Z" transform="translate(-4362.386 -4795.771)" fill="#42e8e0"/>
            <path id="Path_86234-2" data-name="Path 86234" d="M4366.628,4799.189l1.226.708.132-.78-1.225-.708Z" transform="translate(-4361.861 -4794.96)" fill="#42e8e0"/>
            <path id="Path_86235-2" data-name="Path 86235" d="M4369.834,4798.131l1.224.707.132-.782-1.225-.707Z" transform="translate(-4360.74 -4795.33)" fill="#42e8e0"/>
            <path id="Path_86236-2" data-name="Path 86236" d="M4371.128,4798.877l2.941,1.7.131-.781-2.94-1.7Z" transform="translate(-4360.288 -4795.069)" fill="#42e8e0"/>
            <path id="Path_86237-2" data-name="Path 86237" d="M4373.693,4800.358l1.75,1.011.13-.781-1.747-1.011Z" transform="translate(-4359.391 -4794.552)" fill="#42e8e0"/>
            <path id="Path_86238-2" data-name="Path 86238" d="M4364.917,4798.2l1.62.937.132-.782-1.619-.936Z" transform="translate(-4362.458 -4795.306)" fill="#42e8e0"/>
            <g id="Group_34945-2" data-name="Group 34945" transform="translate(0 2.615)">
              <path id="Path_86239-2" data-name="Path 86239" d="M4364.805,4799.56l1.225.708.133-.781-1.223-.71Z" transform="translate(-4362.498 -4797.446)" fill="#42e8e0"/>
              <path id="Path_86240-2" data-name="Path 86240" d="M4363.1,4798.571l1.619.937.132-.782-1.62-.935Z" transform="translate(-4363.095 -4797.791)" fill="#42e8e0"/>
            </g>
            <path id="Path_86241-2" data-name="Path 86241" d="M4368.516,4797.369l1.1.636.132-.78-1.1-.637Z" transform="translate(-4361.201 -4795.596)" fill="#42e8e0"/>
            <path id="Path_86242-2" data-name="Path 86242" d="M4367.245,4796.635l1.1.635.133-.779-1.1-.638Z" transform="translate(-4361.645 -4795.853)" fill="#42e8e0"/>
          </g>
          <path id="Path_86243-2" data-name="Path 86243" d="M4373.508,4789.99l3.754,2.169.131-.782-3.753-2.168Z" transform="translate(-4357.924 -4781.066)" fill="#42e8e0"/>
          <path id="Path_86244-2" data-name="Path 86244" d="M4370.393,4788.189l3.517,2.033.132-.78-3.517-2.033Z" transform="translate(-4359.013 -4781.695)" fill="#42e8e0"/>
          <path id="Path_86245-2" data-name="Path 86245" d="M4369.068,4787.423l1.1.636.132-.781-1.1-.635Z" transform="translate(-4359.476 -4781.963)" fill="#42e8e0"/>
          <path id="Path_86246-2" data-name="Path 86246" d="M4367.8,4786.689l1.1.636.132-.78-1.1-.637Z" transform="translate(-4359.92 -4782.22)" fill="#42e8e0"/>
          <path id="Path_86247-2" data-name="Path 86247" d="M4367.717,4786.645l-2.375-1.373.132-.781,2.375,1.372Z" transform="translate(-4360.778 -4782.715)" fill="#42e8e0"/>
        </g>
      </g>
    </g>
    <g id="Grupo_55747" data-name="Grupo 55747" transform="translate(782 9255.5)">
      <path id="Trazado_124250" data-name="Trazado 124250" d="M6.176,9.582H2.3L1.435,12H.178L3.707,2.758H4.773L8.309,12H7.059Zm-3.5-1H5.814L4.24,4.262ZM10.48,5.132,10.518,6A2.5,2.5,0,0,1,12.575,5q2.177,0,2.2,2.457V12H13.6V7.455a1.581,1.581,0,0,0-.34-1.1A1.361,1.361,0,0,0,12.219,6a1.7,1.7,0,0,0-1,.3,2.069,2.069,0,0,0-.673.8V12H9.369V5.132ZM17.818,12H16.644V5.132h1.174Zm-1.27-8.69a.7.7,0,0,1,.175-.482.655.655,0,0,1,.517-.2.666.666,0,0,1,.521.2.694.694,0,0,1,.178.482.671.671,0,0,1-.178.476.678.678,0,0,1-.521.19.667.667,0,0,1-.517-.19A.678.678,0,0,1,16.548,3.31ZM20.973,12H19.8V2.25h1.174Zm3.155,0H22.953V2.25h1.174ZM25.7,8.5a4.057,4.057,0,0,1,.4-1.815,2.96,2.96,0,0,1,1.1-1.244A3.007,3.007,0,0,1,28.812,5a2.9,2.9,0,0,1,2.269.971,3.736,3.736,0,0,1,.866,2.583v.083a4.092,4.092,0,0,1-.384,1.8,2.916,2.916,0,0,1-1.1,1.241,3.041,3.041,0,0,1-1.641.444,2.889,2.889,0,0,1-2.263-.971A3.718,3.718,0,0,1,25.7,8.585Zm1.181.14a2.938,2.938,0,0,0,.53,1.834,1.8,1.8,0,0,0,2.841-.01A3.213,3.213,0,0,0,30.773,8.5a2.933,2.933,0,0,0-.536-1.831,1.705,1.705,0,0,0-1.425-.7,1.686,1.686,0,0,0-1.4.692A3.189,3.189,0,0,0,26.876,8.642Z" transform="translate(192.667 7838)" fill="#12263f"/>
      <rect id="Rectngulo_27413" data-name="Rectngulo 27413" width="4" height="21" transform="translate(179.667 7837)" fill="#37a3a5"/>
    </g>
  </g>
</svg>
