<svg xmlns="http://www.w3.org/2000/svg" xmlns:xlink="http://www.w3.org/1999/xlink" width="321.833" height="266.992" viewBox="0 0 321.833 266.992">
  <defs>
    <linearGradient id="linear-gradient" x1="0.554" y1="0.572" x2="-0.237" y2="-0.487" gradientUnits="objectBoundingBox">
      <stop offset="0" stop-color="#fff"/>
      <stop offset="1" stop-color="#d2e6ee"/>
    </linearGradient>
    <linearGradient id="linear-gradient-2" x1="0" y1="0.5" x2="1" y2="0.5" xlink:href="#linear-gradient"/>
    <clipPath id="clip-path">
      <path id="Trazado_81303" data-name="Trazado 81303" d="M348.487,166.418,280.756,286.249a38.588,38.588,0,0,0,12.015,50.978l103.742,69.98a38.585,38.585,0,0,0,30.287,5.6l140.7-32.591a38.589,38.589,0,0,0,29.881-37.526l.206-118.26A38.588,38.588,0,0,0,567.3,186.68L390.38,147.719A38.591,38.591,0,0,0,348.487,166.418Z" transform="translate(-275.757 -146.814)" fill="none"/>
    </clipPath>
    <linearGradient id="linear-gradient-4" x1="-64.114" y1="0.103" x2="-62.859" y2="0.95" xlink:href="#linear-gradient"/>
    <linearGradient id="linear-gradient-5" x1="-62.154" y1="0.314" x2="-60.815" y2="0.71" xlink:href="#linear-gradient"/>
    <linearGradient id="linear-gradient-6" x1="-69.987" y1="0.5" x2="-68.318" y2="0.5" gradientUnits="objectBoundingBox">
      <stop offset="0" stop-color="#3a9bd5"/>
      <stop offset="1" stop-color="#2573ba"/>
    </linearGradient>
  </defs>
  <g id="Grupo_39007" data-name="Grupo 39007" transform="translate(-275.757 -146.814)">
    <g id="Grupo_33052" data-name="Grupo 33052" transform="translate(365.727 191.804)">
      <g id="Grupo_33046" data-name="Grupo 33046">
        <path id="Trazado_81271" data-name="Trazado 81271" d="M430.148,268.9,346.42,220.562l66.533-38.413,83.727,48.334Z" transform="translate(-346.42 -182.15)" fill="url(#linear-gradient)"/>
        <path id="Trazado_81272" data-name="Trazado 81272" d="M478.713,271.964V220.112l-66.533,38.413v51.852Z" transform="translate(-328.453 -171.778)" fill="url(#linear-gradient-2)"/>
        <path id="Trazado_81273" data-name="Trazado 81273" d="M346.42,212.319v51.852l83.728,48.334V260.653Z" transform="translate(-346.42 -173.907)" fill="url(#linear-gradient-2)"/>
      </g>
      <g id="Grupo_33051" data-name="Grupo 33051" transform="translate(15.237 26.285)">
        <g id="Grupo_33047" data-name="Grupo 33047">
          <path id="Trazado_81274" data-name="Trazado 81274" d="M394.633,202.794l-36.246,20.927v11.218l10.757,6.211V229.931L405.391,209Z" transform="translate(-358.387 -202.794)" fill="#fff"/>
          <path id="Trazado_81275" data-name="Trazado 81275" d="M412.718,213.23l-36.246,20.927v11.218l10.757,6.211V240.367l36.246-20.927Z" transform="translate(-353.446 -199.943)" fill="#fff"/>
          <path id="Trazado_81276" data-name="Trazado 81276" d="M430.822,223.68l-36.246,20.927v11.218l10.757,6.211V250.818l36.246-20.927Z" transform="translate(-348.5 -197.088)" fill="#fff"/>
        </g>
        <g id="Grupo_33048" data-name="Grupo 33048">
          <path id="Trazado_81277" data-name="Trazado 81277" d="M386.855,202.794v4.519l6.912,3.912,3.846-2.22Z" transform="translate(-350.609 -202.794)" fill="#00223d"/>
          <path id="Trazado_81278" data-name="Trazado 81278" d="M362.286,226.22l-3.9,2.319,10.757,6.211v-4.669Z" transform="translate(-358.387 -196.394)" fill="#00223d"/>
          <path id="Trazado_81279" data-name="Trazado 81279" d="M394.633,202.794l-36.246,20.927v11.218l3.9-2.319V226l32.366-18.686Z" transform="translate(-358.387 -202.794)" fill="#21587b"/>
        </g>
        <g id="Grupo_33049" data-name="Grupo 33049" transform="translate(23.025 13.287)">
          <path id="Trazado_81280" data-name="Trazado 81280" d="M404.94,213.23v4.519l6.912,3.912,3.846-2.22Z" transform="translate(-368.694 -213.23)" fill="#00223d"/>
          <path id="Trazado_81281" data-name="Trazado 81281" d="M380.37,236.655l-3.9,2.319,10.757,6.211v-4.669Z" transform="translate(-376.471 -206.829)" fill="#00223d"/>
          <path id="Trazado_81282" data-name="Trazado 81282" d="M412.718,213.23l-36.246,20.927v11.218l3.9-2.319v-6.621l32.366-18.687Z" transform="translate(-376.471 -213.23)" fill="#21587b"/>
        </g>
        <g id="Grupo_33050" data-name="Grupo 33050" transform="translate(46.076 26.592)">
          <path id="Trazado_81283" data-name="Trazado 81283" d="M423.044,223.68V228.2l6.911,3.912,3.846-2.22Z" transform="translate(-386.798 -223.68)" fill="#00223d"/>
          <path id="Trazado_81284" data-name="Trazado 81284" d="M398.474,247.106l-3.9,2.319,10.757,6.211v-4.669Z" transform="translate(-394.576 -217.28)" fill="#00223d"/>
          <path id="Trazado_81285" data-name="Trazado 81285" d="M430.822,223.68l-36.246,20.927v11.218l3.9-2.319v-6.621L430.84,228.2Z" transform="translate(-394.576 -223.68)" fill="#21587b"/>
        </g>
      </g>
    </g>
    <g id="Grupo_33060" data-name="Grupo 33060" transform="translate(275.757 146.814)">
      <g id="Grupo_33059" data-name="Grupo 33059" clip-path="url(#clip-path)">
        <g id="Grupo_33058" data-name="Grupo 33058" transform="translate(184.253 117.98)">
          <g id="Grupo_33054" data-name="Grupo 33054">
            <g id="Grupo_33053" data-name="Grupo 33053">
              <path id="Trazado_81286" data-name="Trazado 81286" d="M454.751,303.824l43.647-25.2V259.268l-43.647,25.2Z" transform="translate(-411.105 -234.069)" fill="url(#linear-gradient-4)"/>
              <path id="Trazado_81287" data-name="Trazado 81287" d="M464.117,289.875l43.647-25.2-43.645-25.2-43.647,25.2Z" transform="translate(-420.471 -239.477)" fill="#37a3a5"/>
              <path id="Trazado_81288" data-name="Trazado 81288" d="M460.734,278.819l27.881-16.1-27.88-16.1-27.881,16.1Z" transform="translate(-417.088 -237.523)" fill="#fff"/>
              <path id="Trazado_81289" data-name="Trazado 81289" d="M460.735,249.556l25.342,14.631,2.538-1.465-27.88-16.1-27.881,16.1,2.538,1.465Z" transform="translate(-417.088 -237.524)" fill="#00223d"/>
              <path id="Trazado_81290" data-name="Trazado 81290" d="M464.119,240.43l42.82,24.722.825-.477-43.645-25.2-43.647,25.2.825.477Z" transform="translate(-420.471 -239.477)" fill="#a9ebff"/>
              <path id="Trazado_81291" data-name="Trazado 81291" d="M420.471,278.624l43.647,25.2V284.468l-43.647-25.2Z" transform="translate(-420.471 -234.069)" fill="url(#linear-gradient-5)"/>
            </g>
            <path id="Trazado_81292" data-name="Trazado 81292" d="M464.117,283.6l42.807-24.715.839.485-43.647,25.2-43.645-25.2.839-.485Z" transform="translate(-420.471 -234.173)" fill="#00223d"/>
          </g>
          <path id="Trazado_81293" data-name="Trazado 81293" d="M461.353,284.928l25.328-14.789,21.336,17.085,1.806,14.748v13.444l75.747,46.15,21.069,12.441-3.21,9.631-14.648,5.819-20.266-6.02-27.088-18.059L496.594,340.5l-12.555-9.631-.8-20.467-1.605-12.44Z" transform="translate(-409.302 -231.099)" fill="#fff"/>
          <g id="Grupo_33055" data-name="Grupo 33055" transform="translate(50.764 14.855)">
            <path id="Trazado_81294" data-name="Trazado 81294" d="M587.985,398.042a24.33,24.33,0,0,0,24.237-24.276V254.454a3.311,3.311,0,0,0-6.622,0V373.765a17.615,17.615,0,0,1-26.423,15.256l-85.749-49.507a12.525,12.525,0,0,1-6.244-10.816V313.534a19.161,19.161,0,0,0-9.555-16.549l-12.32-7.113A3.31,3.31,0,1,0,462,295.6l12.32,7.113a12.525,12.525,0,0,1,6.244,10.816V328.7a19.164,19.164,0,0,0,9.554,16.549l85.75,49.508A24.179,24.179,0,0,0,587.985,398.042Z" transform="translate(-460.342 -251.144)" fill="#fff"/>
          </g>
          <path id="Trazado_81295" data-name="Trazado 81295" d="M480.379,271.449a3.311,3.311,0,0,1,4.522-1.211l12.32,7.113a19.159,19.159,0,0,1,9.554,16.548v15.165a12.527,12.527,0,0,0,6.244,10.816l90.5,52.252a17.669,17.669,0,0,0,7.192,2.3c-.229,2.19-.144,4.422-.325,6.628a24.28,24.28,0,0,1-10.178-3.2l-90.5-52.252a19.161,19.161,0,0,1-9.554-16.549V293.9a12.523,12.523,0,0,0-6.244-10.815l-12.32-7.113A3.31,3.31,0,0,1,480.379,271.449Z" transform="translate(-404.225 -231.193)" fill="#fff"/>
          <path id="Trazado_81296" data-name="Trazado 81296" d="M568.087,394.847l10.067-12.591,1.43-14.9V331.24l-.1-64.588,26.377,4.486v-12.27a3.311,3.311,0,0,1,6.622,0v101.9a23.992,23.992,0,0,1-12.119,20.992,24.783,24.783,0,0,1-4.226,1.934l-.009.009Z" transform="translate(-380.14 -235.083)" fill="url(#linear-gradient-6)"/>
          <g id="Grupo_33056" data-name="Grupo 33056" transform="translate(50.764 14.855)">
            <path id="Trazado_81297" data-name="Trazado 81297" d="M587.985,398.042a24.33,24.33,0,0,0,24.237-24.276V254.454a3.311,3.311,0,0,0-6.622,0V373.765a17.615,17.615,0,0,1-26.423,15.256l-85.749-49.507a12.525,12.525,0,0,1-6.244-10.816V313.534a19.161,19.161,0,0,0-9.555-16.549l-12.32-7.113A3.31,3.31,0,1,0,462,295.6l12.32,7.113a12.525,12.525,0,0,1,6.244,10.816V328.7a19.164,19.164,0,0,0,9.554,16.549l85.75,49.508A24.179,24.179,0,0,0,587.985,398.042Z" transform="translate(-460.342 -251.144)" fill="#37a3a5"/>
          </g>
          <g id="Grupo_33057" data-name="Grupo 33057" transform="translate(4.756 34.387)">
            <path id="Trazado_81298" data-name="Trazado 81298" d="M447.517,288.891l4.455,2.572v-8.948l-4.455-2.572Z" transform="translate(-417.838 -262.808)" fill="#fff" opacity="0.2"/>
            <path id="Trazado_81299" data-name="Trazado 81299" d="M441.69,285.527l4.455,2.572v-8.948l-4.455-2.572Z" transform="translate(-419.43 -263.727)" fill="#fff" opacity="0.4"/>
            <path id="Trazado_81300" data-name="Trazado 81300" d="M435.862,282.162l4.455,2.572v-8.948l-4.455-2.572Z" transform="translate(-421.022 -264.646)" fill="#fff" opacity="0.8"/>
            <path id="Trazado_81301" data-name="Trazado 81301" d="M430.034,278.8l4.455,2.572v-8.948l-4.455-2.572Z" transform="translate(-422.614 -265.566)" fill="#fff"/>
            <path id="Trazado_81302" data-name="Trazado 81302" d="M424.207,275.433l4.455,2.572v-8.948l-4.455-2.572Z" transform="translate(-424.207 -266.485)" fill="#fff"/>
          </g>
        </g>
      </g>
    </g>
    <g id="Grupo_33061" data-name="Grupo 33061" transform="translate(384.534 269.731)">
      <path id="Trazado_81304" data-name="Trazado 81304" d="M388.154,262.285a10.415,10.415,0,0,0,4.712,8.163c2.6,1.5,4.713.285,4.713-2.721a10.418,10.418,0,0,0-4.713-8.163C390.264,258.062,388.154,259.28,388.154,262.285Z" transform="translate(-353.825 -239.102)" fill="#fff"/>
      <ellipse id="Elipse_3404" data-name="Elipse 3404" cx="3.848" cy="6.665" rx="3.848" ry="6.665" transform="matrix(0.866, -0.5, 0.5, 0.866, 15.212, 12.147)" fill="#fff"/>
      <path id="Trazado_81305" data-name="Trazado 81305" d="M361.192,246.719a10.417,10.417,0,0,0,4.713,8.163c2.6,1.5,4.712.284,4.712-2.721A10.419,10.419,0,0,0,365.905,244C363.3,242.5,361.192,243.714,361.192,246.719Z" transform="translate(-361.192 -243.355)" fill="#fff"/>
      <path id="Trazado_81306" data-name="Trazado 81306" d="M390.543,258.949a4.535,4.535,0,0,0-.354,1.854,10.417,10.417,0,0,0,4.712,8.163,4,4,0,0,0,2.325.607c-.7,1.578-2.387,2.005-4.359.867a10.415,10.415,0,0,1-4.712-8.163C388.154,260.254,389.122,259.067,390.543,258.949Z" transform="translate(-353.825 -239.094)" fill="#21587b"/>
      <path id="Trazado_81307" data-name="Trazado 81307" d="M377.062,251.166a4.535,4.535,0,0,0-.354,1.854,10.417,10.417,0,0,0,4.712,8.163,4,4,0,0,0,2.325.607c-.7,1.577-2.387,2.005-4.358.867a10.413,10.413,0,0,1-4.713-8.163C374.673,252.471,375.642,251.284,377.062,251.166Z" transform="translate(-357.509 -241.22)" fill="#21587b"/>
      <path id="Trazado_81308" data-name="Trazado 81308" d="M363.581,243.383a4.536,4.536,0,0,0-.354,1.854,10.415,10.415,0,0,0,4.713,8.163,3.991,3.991,0,0,0,2.324.607c-.7,1.578-2.387,2.005-4.358.867a10.417,10.417,0,0,1-4.713-8.163C361.192,244.687,362.161,243.5,363.581,243.383Z" transform="translate(-361.192 -243.347)" fill="#21587b"/>
    </g>
    <g id="Grupo_33068" data-name="Grupo 33068" transform="translate(491.091 150.395)">
      <g id="Grupo_33062" data-name="Grupo 33062">
        <path id="Trazado_81310" data-name="Trazado 81310" d="M483.843,189.991,444.883,167.5l30.959-17.874,38.96,22.491Z" transform="translate(-444.883 -149.627)" fill="url(#linear-gradient)"/>
        <path id="Trazado_81311" data-name="Trazado 81311" d="M506.441,191.419V167.291l-30.959,17.874v24.128Z" transform="translate(-436.523 -144.8)" fill="url(#linear-gradient-2)"/>
        <path id="Trazado_81312" data-name="Trazado 81312" d="M444.883,163.665v24.128l38.96,22.491V186.156Z" transform="translate(-444.883 -145.791)" fill="url(#linear-gradient-2)"/>
      </g>
      <g id="Grupo_33067" data-name="Grupo 33067" transform="translate(7.09 12.231)">
        <g id="Grupo_33063" data-name="Grupo 33063">
          <path id="Trazado_81313" data-name="Trazado 81313" d="M467.317,159.233l-16.866,9.738v5.22l5.006,2.89v-5.22l16.866-9.738Z" transform="translate(-450.451 -159.233)" fill="#fff"/>
          <path id="Trazado_81314" data-name="Trazado 81314" d="M475.732,164.089l-16.866,9.738v5.22l5.005,2.89v-5.22l16.866-9.738Z" transform="translate(-448.152 -157.906)" fill="#fff"/>
          <path id="Trazado_81315" data-name="Trazado 81315" d="M484.156,168.952l-16.866,9.738v5.22l5.006,2.89v-5.22l16.866-9.738Z" transform="translate(-445.85 -156.578)" fill="#fff"/>
        </g>
        <g id="Grupo_33064" data-name="Grupo 33064">
          <path id="Trazado_81316" data-name="Trazado 81316" d="M463.7,159.233v2.1l3.216,1.82,1.789-1.033Z" transform="translate(-446.832 -159.233)" fill="#21587b"/>
          <path id="Trazado_81317" data-name="Trazado 81317" d="M452.265,170.133l-1.814,1.079,5.006,2.89V171.93Z" transform="translate(-450.451 -156.255)" fill="#21587b"/>
          <path id="Trazado_81318" data-name="Trazado 81318" d="M467.317,159.233l-16.866,9.738v5.22l1.814-1.079v-3.081l15.06-8.7Z" transform="translate(-450.451 -159.233)" fill="#00223d"/>
        </g>
        <g id="Grupo_33065" data-name="Grupo 33065" transform="translate(10.714 6.182)">
          <path id="Trazado_81319" data-name="Trazado 81319" d="M472.113,164.089v2.1l3.216,1.821,1.79-1.033Z" transform="translate(-455.247 -164.089)" fill="#21587b"/>
          <path id="Trazado_81320" data-name="Trazado 81320" d="M460.68,174.989l-1.814,1.079,5.005,2.89v-2.172Z" transform="translate(-458.866 -161.111)" fill="#21587b"/>
          <path id="Trazado_81321" data-name="Trazado 81321" d="M475.732,164.089l-16.866,9.738v5.22l1.814-1.079v-3.081l15.06-8.7Z" transform="translate(-458.866 -164.089)" fill="#00223d"/>
        </g>
        <g id="Grupo_33066" data-name="Grupo 33066" transform="translate(21.44 12.374)">
          <path id="Trazado_81322" data-name="Trazado 81322" d="M480.537,168.952v2.1l3.216,1.821,1.789-1.033Z" transform="translate(-463.671 -168.952)" fill="#21587b"/>
          <path id="Trazado_81323" data-name="Trazado 81323" d="M469.1,179.852l-1.814,1.079,5.006,2.89v-2.172Z" transform="translate(-467.29 -165.973)" fill="#21587b"/>
          <path id="Trazado_81324" data-name="Trazado 81324" d="M484.156,168.952l-16.866,9.738v5.22l1.814-1.079v-3.081l15.061-8.7Z" transform="translate(-467.29 -168.952)" fill="#00223d"/>
        </g>
      </g>
    </g>
  </g>
</svg>
