<svg xmlns="http://www.w3.org/2000/svg" xmlns:xlink="http://www.w3.org/1999/xlink" width="505" height="321.859" viewBox="0 0 505 321.859">
  <defs>
    <linearGradient id="linear-gradient" x1="-0.06" y1="0.5" x2="0.645" y2="0.5" gradientUnits="objectBoundingBox">
      <stop offset="0" stop-color="#fff"/>
      <stop offset="1" stop-color="#d2e6ee"/>
    </linearGradient>
    <linearGradient id="linear-gradient-2" x1="0.5" y1="0" x2="0.5" y2="1" xlink:href="#linear-gradient"/>
    <linearGradient id="linear-gradient-3" x1="-0.06" y1="0.5" x2="0.645" y2="0.5" xlink:href="#linear-gradient"/>
  </defs>
  <g id="Grupo_39006" data-name="Grupo 39006" transform="translate(-99.852 -63.489)">
    <path id="Trazado_81325" data-name="Trazado 81325" d="M299.791,311.111l-.247-.141L152.172,225.884l.491-.851,147.125,84.944,169.861-98.587.493.849Z" transform="translate(14.736 41.656)" fill="#00223d"/>
    <path id="Trazado_81326" data-name="Trazado 81326" d="M434.378,229.689l-.493-.849,44.234-25.674L332.7,119.21l.491-.851,146.885,84.8Z" transform="translate(65.582 15.454)" fill="#00223d"/>
    <path id="Trazado_81327" data-name="Trazado 81327" d="M146.542,241.18l-28.007-16.171,170.382-98.888.493.849L120.495,225.007l26.538,15.322Z" transform="translate(5.262 17.64)" fill="#00223d"/>
    <g id="Grupo_33076" data-name="Grupo 33076" transform="translate(478.958 172.311)">
      <path id="Trazado_81328" data-name="Trazado 81328" d="M443.956,245.854a12.212,12.212,0,0,1-5.969-1.424l-39.722-22.935c-1.687-.974-2.617-2.3-2.617-3.73s.93-2.757,2.617-3.73l69-39.837a13.205,13.205,0,0,1,11.936,0l39.725,22.934c1.687.974,2.617,2.3,2.617,3.73s-.931,2.757-2.617,3.731l-69,39.837A12.213,12.213,0,0,1,443.956,245.854Zm29.277-72.113a11.194,11.194,0,0,0-5.478,1.309l-69,39.837a3.012,3.012,0,0,0,0,5.757l39.722,22.934a12.117,12.117,0,0,0,10.957,0l69-39.836a3.013,3.013,0,0,0,0-5.758L478.71,175.049A11.191,11.191,0,0,0,473.232,173.741Z" transform="translate(-395.648 -141.532)" fill="#00223d"/>
      <g id="Grupo_33075" data-name="Grupo 33075" transform="translate(0.686)">
        <path id="Trazado_81329" data-name="Trazado 81329" d="M521.093,190.976h0l-.006-19.045-24.067,3.211L479,164.737a12.649,12.649,0,0,0-11.446,0l-32.291,18.644-39.075,5.212v19.391l.014,0a4.062,4.062,0,0,0,2.353,3.2l39.723,22.934a12.65,12.65,0,0,0,11.446,0l69-39.837a4.061,4.061,0,0,0,2.352-3.189l.019,0Z" transform="translate(-396.183 -144.18)" fill="url(#linear-gradient)"/>
        <path id="Trazado_81330" data-name="Trazado 81330" d="M518.722,172.7,479,149.766a12.649,12.649,0,0,0-11.446,0l-69,39.836c-3.161,1.825-3.161,4.784,0,6.609l39.723,22.934a12.649,12.649,0,0,0,11.447,0l69-39.836C521.883,177.484,521.883,174.525,518.722,172.7Z" transform="translate(-396.183 -148.397)" fill="url(#linear-gradient-2)"/>
        <path id="Trazado_81331" data-name="Trazado 81331" d="M518.721,172.214l-69,39.836a12.649,12.649,0,0,1-11.446,0l-39.723-22.934a4.388,4.388,0,0,1-2.3-2.727c-.3,1.38.467,2.822,2.3,3.882l39.723,22.934a12.649,12.649,0,0,0,11.446,0l69-39.836c1.835-1.06,2.6-2.5,2.3-3.882A4.388,4.388,0,0,1,518.721,172.214Z" transform="translate(-396.182 -142.457)" fill="#fff"/>
        <g id="Grupo_33070" data-name="Grupo 33070" transform="translate(74.937 44.921)">
          <path id="Trazado_81332" data-name="Trazado 81332" d="M456.533,199.729l-1.88,1.086v-2.171l1.88-1.086Z" transform="translate(-454.653 -179.472)" fill="#fff"/>
          <path id="Trazado_81333" data-name="Trazado 81333" d="M459.6,197.956l-1.881,1.086v-2.171l1.881-1.086Z" transform="translate(-453.788 -179.971)" fill="#fff"/>
          <path id="Trazado_81334" data-name="Trazado 81334" d="M462.672,196.184l-1.88,1.086V195.1l1.88-1.086Z" transform="translate(-452.923 -180.47)" fill="#fff"/>
          <path id="Trazado_81335" data-name="Trazado 81335" d="M460.163,201.066l-1.881,1.086v-2.171l1.881-1.086Z" transform="translate(-453.63 -179.095)" fill="#fff"/>
          <path id="Trazado_81336" data-name="Trazado 81336" d="M462.865,199.506l-1.881,1.086V198.42l1.881-1.086Z" transform="translate(-452.869 -179.535)" fill="#fff"/>
          <path id="Trazado_81337" data-name="Trazado 81337" d="M472.518,190.5l-1.88,1.086v-2.171l1.88-1.086Z" transform="translate(-450.15 -182.071)" fill="#fff"/>
          <path id="Trazado_81338" data-name="Trazado 81338" d="M480.975,185.617l-1.881,1.086v-2.171l1.881-1.086Z" transform="translate(-447.769 -183.446)" fill="#fff"/>
          <path id="Trazado_81339" data-name="Trazado 81339" d="M465.742,194.412l-1.881,1.086v-2.171l1.881-1.086Z" transform="translate(-452.059 -180.969)" fill="#fff"/>
        </g>
        <g id="Grupo_33074" data-name="Grupo 33074" transform="translate(59.348 10.039)">
          <g id="Grupo_33071" data-name="Grupo 33071" transform="translate(0 9.099)">
            <path id="Trazado_81340" data-name="Trazado 81340" d="M445.076,163.329,473.141,179.5l-2.586,1.5L442.49,164.826Z" transform="translate(-442.49 -163.329)" fill="#21587b"/>
            <path id="Trazado_81341" data-name="Trazado 81341" d="M443.464,165.387l1.762-1.02,27.091,15.605.823-.476-28.064-16.166-2.586,1.5Z" transform="translate(-442.49 -163.329)" fill="#fff"/>
          </g>
          <g id="Grupo_33072" data-name="Grupo 33072" transform="translate(7.862 4.55)">
            <path id="Trazado_81342" data-name="Trazado 81342" d="M451.21,159.78l28.065,16.166-2.586,1.5-28.065-16.166Z" transform="translate(-448.624 -159.779)" fill="#21587b"/>
            <path id="Trazado_81343" data-name="Trazado 81343" d="M449.6,161.837l1.762-1.02,27.091,15.605.823-.476L451.21,159.779l-2.586,1.5Z" transform="translate(-448.624 -159.779)" fill="#fff"/>
          </g>
          <g id="Grupo_33073" data-name="Grupo 33073" transform="translate(15.724)">
            <path id="Trazado_81344" data-name="Trazado 81344" d="M457.345,156.23,485.41,172.4l-2.586,1.5-28.065-16.166Z" transform="translate(-454.759 -156.23)" fill="#21587b"/>
            <path id="Trazado_81345" data-name="Trazado 81345" d="M455.733,158.287l1.763-1.02,27.091,15.605.823-.477L457.345,156.23l-2.586,1.5Z" transform="translate(-454.759 -156.23)" fill="#fff"/>
          </g>
        </g>
      </g>
      <path id="Trazado_81346" data-name="Trazado 81346" d="M439.612,204.266a4.109,4.109,0,0,1-2.02-.473l-26.725-15.43A1.6,1.6,0,0,1,409.96,187a2.081,2.081,0,0,1,1.211-1.687l26.116-15.077a5.023,5.023,0,0,1,4.588-.177l26.725,15.43a1.6,1.6,0,0,1,.907,1.366,2.079,2.079,0,0,1-1.211,1.687l-26.116,15.079A5.259,5.259,0,0,1,439.612,204.266Zm-1.67-1.078a4.4,4.4,0,0,0,3.889-.177l26.116-15.079c.541-.311.864-.715.864-1.08a.952.952,0,0,0-.56-.76l-26.725-15.43a4.4,4.4,0,0,0-3.889.176l-26.116,15.079c-.547.317-.861.71-.863,1.08a.959.959,0,0,0,.559.761Z" transform="translate(-391.617 -142.43)" fill="#21587b"/>
      <path id="Trazado_81347" data-name="Trazado 81347" d="M428.509,212.812l-22.053-12.733a2.281,2.281,0,0,1-.954-1.821v-1.637c0-.7.427-1.025.954-.722l22.053,12.733a2.281,2.281,0,0,1,.954,1.821v1.638C429.462,212.793,429.036,213.115,428.509,212.812Z" transform="translate(-392.873 -135.05)" fill="#21587b"/>
    </g>
    <g id="Grupo_33083" data-name="Grupo 33083" transform="translate(289.555 63.489)">
      <path id="Trazado_81348" data-name="Trazado 81348" d="M296.175,160.944a12.2,12.2,0,0,1-5.969-1.425l-39.723-22.933c-1.688-.974-2.616-2.3-2.616-3.73s.929-2.757,2.617-3.73l69-39.839a13.221,13.221,0,0,1,11.936,0l39.723,22.935c1.688.974,2.616,2.3,2.616,3.73s-.928,2.757-2.616,3.73l-69,39.836A12.2,12.2,0,0,1,296.175,160.944ZM325.45,88.833a11.19,11.19,0,0,0-5.477,1.309l-69,39.837a3.012,3.012,0,0,0,0,5.757L290.7,158.668a12.117,12.117,0,0,0,10.957,0l69-39.836a3.013,3.013,0,0,0,0-5.757L330.928,90.141A11.191,11.191,0,0,0,325.45,88.833Z" transform="translate(-247.867 -56.624)" fill="#00223d"/>
      <g id="Grupo_33082" data-name="Grupo 33082" transform="translate(0.685)">
        <path id="Trazado_81349" data-name="Trazado 81349" d="M373.311,106.067h0l-.005-19.044-24.067,3.211-18.021-10.4a12.649,12.649,0,0,0-11.446,0L287.479,98.472,248.4,103.685v19.391l.015,0a4.063,4.063,0,0,0,2.353,3.2l39.722,22.934a12.649,12.649,0,0,0,11.446,0l69-39.837a4.069,4.069,0,0,0,2.352-3.19h.018Z" transform="translate(-248.401 -59.272)" fill="url(#linear-gradient-3)"/>
        <path id="Trazado_81350" data-name="Trazado 81350" d="M370.942,87.792,331.218,64.858a12.649,12.649,0,0,0-11.446,0l-69,39.836c-3.162,1.825-3.162,4.784,0,6.608L290.5,134.237a12.649,12.649,0,0,0,11.446,0l69-39.837C374.1,92.575,374.1,89.617,370.942,87.792Z" transform="translate(-248.402 -63.489)" fill="url(#linear-gradient-2)"/>
        <path id="Trazado_81351" data-name="Trazado 81351" d="M370.94,87.306l-69,39.836a12.652,12.652,0,0,1-11.448,0l-39.722-22.934a4.387,4.387,0,0,1-2.3-2.727c-.3,1.38.467,2.821,2.3,3.881L290.494,128.3a12.656,12.656,0,0,0,11.448,0l69-39.837c1.835-1.059,2.6-2.5,2.3-3.881A4.381,4.381,0,0,1,370.94,87.306Z" transform="translate(-248.4 -57.549)" fill="#fff"/>
        <g id="Grupo_33077" data-name="Grupo 33077" transform="translate(74.937 44.92)">
          <path id="Trazado_81352" data-name="Trazado 81352" d="M308.752,114.82l-1.881,1.086v-2.171l1.881-1.086Z" transform="translate(-306.871 -94.563)" fill="#fff"/>
          <path id="Trazado_81353" data-name="Trazado 81353" d="M311.821,113.048l-1.88,1.086v-2.171l1.88-1.086Z" transform="translate(-306.007 -95.063)" fill="#fff"/>
          <path id="Trazado_81354" data-name="Trazado 81354" d="M314.891,111.276l-1.88,1.086V110.19l1.88-1.086Z" transform="translate(-305.142 -95.562)" fill="#fff"/>
          <path id="Trazado_81355" data-name="Trazado 81355" d="M312.381,116.158l-1.88,1.086v-2.171l1.88-1.086Z" transform="translate(-305.849 -94.187)" fill="#fff"/>
          <path id="Trazado_81356" data-name="Trazado 81356" d="M315.084,114.6l-1.881,1.086v-2.171l1.881-1.086Z" transform="translate(-305.088 -94.626)" fill="#fff"/>
          <path id="Trazado_81357" data-name="Trazado 81357" d="M324.737,105.591l-1.88,1.086v-2.171l1.88-1.086Z" transform="translate(-302.369 -97.163)" fill="#fff"/>
          <path id="Trazado_81358" data-name="Trazado 81358" d="M333.193,100.709l-1.881,1.086V99.623l1.881-1.086Z" transform="translate(-299.987 -98.538)" fill="#fff"/>
          <path id="Trazado_81359" data-name="Trazado 81359" d="M317.961,109.5l-1.88,1.086v-2.171l1.88-1.086Z" transform="translate(-304.277 -96.061)" fill="#fff"/>
        </g>
        <g id="Grupo_33081" data-name="Grupo 33081" transform="translate(59.349 10.038)">
          <g id="Grupo_33078" data-name="Grupo 33078" transform="translate(0 9.099)">
            <path id="Trazado_81360" data-name="Trazado 81360" d="M297.294,78.421l28.065,16.166-2.586,1.5L294.708,79.918Z" transform="translate(-294.708 -78.421)" fill="#11203c"/>
            <path id="Trazado_81361" data-name="Trazado 81361" d="M295.682,80.479l1.762-1.02,27.091,15.605.823-.476L297.294,78.421l-2.586,1.5Z" transform="translate(-294.708 -78.421)" fill="#fff"/>
          </g>
          <g id="Grupo_33079" data-name="Grupo 33079" transform="translate(7.862 4.55)">
            <path id="Trazado_81362" data-name="Trazado 81362" d="M303.429,74.871l28.065,16.166-2.586,1.5L300.843,76.368Z" transform="translate(-300.843 -74.871)" fill="#11203c"/>
            <path id="Trazado_81363" data-name="Trazado 81363" d="M301.817,76.929l1.762-1.02L330.67,91.514l.823-.477L303.429,74.871l-2.586,1.5Z" transform="translate(-300.843 -74.871)" fill="#fff"/>
          </g>
          <g id="Grupo_33080" data-name="Grupo 33080" transform="translate(15.725)">
            <path id="Trazado_81364" data-name="Trazado 81364" d="M309.563,71.321l28.065,16.166-2.586,1.5L306.977,72.818Z" transform="translate(-306.977 -71.321)" fill="#21587b"/>
            <path id="Trazado_81365" data-name="Trazado 81365" d="M307.951,73.379l1.763-1.02L336.8,87.964l.823-.476L309.564,71.321l-2.586,1.5Z" transform="translate(-306.977 -71.321)" fill="#fff"/>
          </g>
        </g>
      </g>
      <path id="Trazado_81366" data-name="Trazado 81366" d="M291.833,119.357a4.1,4.1,0,0,1-2.021-.474l-26.726-15.43a1.6,1.6,0,0,1-.907-1.365,2.084,2.084,0,0,1,1.212-1.688l26.116-15.076a5.035,5.035,0,0,1,4.588-.177l26.725,15.43a1.6,1.6,0,0,1,.907,1.365,2.079,2.079,0,0,1-1.211,1.688L294.4,118.708A5.258,5.258,0,0,1,291.833,119.357Zm.252-33.978a4.6,4.6,0,0,0-2.229.55L263.74,101.007c-.541.311-.864.715-.864,1.082a.952.952,0,0,0,.56.759l26.725,15.431a4.389,4.389,0,0,0,3.889-.176l26.115-15.079c.541-.311.864-.715.864-1.082a.951.951,0,0,0-.559-.759l-26.726-15.43A3.392,3.392,0,0,0,292.085,85.38Z" transform="translate(-243.836 -57.522)" fill="#21587b"/>
      <path id="Trazado_81367" data-name="Trazado 81367" d="M280.728,127.9l-22.055-12.732a2.284,2.284,0,0,1-.952-1.821v-1.638c0-.7.427-1.024.952-.72l22.055,12.733a2.284,2.284,0,0,1,.952,1.821v1.637C281.68,127.884,281.253,128.207,280.728,127.9Z" transform="translate(-245.092 -50.142)" fill="#21587b"/>
    </g>
    <g id="Grupo_33095" data-name="Grupo 33095" transform="translate(247.404 72.405)">
      <g id="Grupo_33086" data-name="Grupo 33086">
        <g id="Grupo_33084" data-name="Grupo 33084">
          <path id="Trazado_81368" data-name="Trazado 81368" d="M328.451,270.907a5.872,5.872,0,0,1-2.894-.677L216.239,207.115a2.207,2.207,0,0,1-1.26-1.88,2.92,2.92,0,0,1,1.707-2.352l70.161-40.508a7.212,7.212,0,0,1,6.59-.258l109.318,63.115a2.2,2.2,0,0,1,1.26,1.88,2.92,2.92,0,0,1-1.707,2.353l-70.161,40.506A7.559,7.559,0,0,1,328.451,270.907Zm-2.521-1.32a6.521,6.521,0,0,0,5.844-.258l70.161-40.506a2.235,2.235,0,0,0,1.337-1.71,1.489,1.489,0,0,0-.889-1.237L293.065,162.761a6.521,6.521,0,0,0-5.844.258l-70.161,40.508a2.231,2.231,0,0,0-1.337,1.708,1.492,1.492,0,0,0,.889,1.237Z" transform="translate(-214.979 -44.817)" fill="#21587b" opacity="0.4"/>
          <path id="Trazado_81369" data-name="Trazado 81369" d="M328.45,257.465a5.884,5.884,0,0,1-2.893-.677L216.239,193.672a2.207,2.207,0,0,1-1.26-1.88,2.916,2.916,0,0,1,1.707-2.352l70.161-40.509a7.22,7.22,0,0,1,6.59-.258L402.756,211.79a2.207,2.207,0,0,1,1.26,1.88,2.917,2.917,0,0,1-1.707,2.352l-70.161,40.509A7.569,7.569,0,0,1,328.45,257.465Zm-2.52-1.32a6.529,6.529,0,0,0,5.844-.258l70.161-40.509a2.233,2.233,0,0,0,1.337-1.708,1.49,1.49,0,0,0-.889-1.237L293.065,149.317a6.509,6.509,0,0,0-5.844.259l-70.161,40.508a2.231,2.231,0,0,0-1.337,1.708,1.492,1.492,0,0,0,.889,1.237Z" transform="translate(-214.979 -48.603)" fill="#00223d"/>
          <path id="Trazado_81370" data-name="Trazado 81370" d="M414.311,133.734,305.422,70.868a2.82,2.82,0,0,0-2.222-.319h0l-.01,0-2.016.7.71.168a3.492,3.492,0,0,0-.665,1.244l-24.624,79.952a4.822,4.822,0,0,0,2,5.38l108.889,62.867a3.189,3.189,0,0,0,.8.327l-.27.587,1.926-.677h-.005a3.076,3.076,0,0,0,1.752-2.037l24.624-79.952A4.823,4.823,0,0,0,414.311,133.734Z" transform="translate(-197.679 -70.445)" fill="#00223d"/>
          <path id="Trazado_81371" data-name="Trazado 81371" d="M400.79,203.911l.04.046-107.554-62.1a6.863,6.863,0,0,0-6.172.256l-69.49,40.121-2.317-.886.651,3.252,0,0a1.946,1.946,0,0,0,1.043,1.3l108.548,62.67a6.859,6.859,0,0,0,6.172-.256l69.666-40.222a2.783,2.783,0,0,0,1.476-1.72l0,0,.665-3.163Z" transform="translate(-214.89 -50.505)" fill="#21587b"/>
          <path id="Trazado_81372" data-name="Trazado 81372" d="M325.662,246.508,216.344,183.393c-1.593-.92-1.393-2.527.446-3.589L286.953,139.3a6.907,6.907,0,0,1,6.216-.258l109.318,63.115c1.594.92,1.394,2.526-.446,3.589L331.88,246.251A6.909,6.909,0,0,1,325.662,246.508Z" transform="translate(-214.897 -51.301)" fill="url(#linear-gradient-2)"/>
          <path id="Trazado_81373" data-name="Trazado 81373" d="M216.341,172.225l109.318,63.115a6.909,6.909,0,0,0,6.217-.258l70.161-40.508a3.449,3.449,0,0,0,1.2-1.087c.665.911.253,2.084-1.2,2.922l-70.161,40.508a6.914,6.914,0,0,1-6.217.259L216.341,174.06a1.661,1.661,0,0,1-.752-2.5A2.393,2.393,0,0,0,216.341,172.225Z" transform="translate(-214.894 -41.968)" fill="#fff"/>
          <path id="Trazado_81374" data-name="Trazado 81374" d="M386.03,221.372,277.142,158.506a4.823,4.823,0,0,1-2-5.38L299.77,73.174a2.8,2.8,0,0,1,4.205-1.8l108.887,62.866a4.823,4.823,0,0,1,2,5.38l-24.626,79.952A2.8,2.8,0,0,1,386.03,221.372Z" transform="translate(-198.087 -70.303)" fill="#37a3a5"/>
          <path id="Trazado_81375" data-name="Trazado 81375" d="M387.578,222.08a3.226,3.226,0,0,1-1.614-.454L277.076,158.759a5.072,5.072,0,0,1-2.1-5.65L299.6,73.158a3.291,3.291,0,0,1,1.9-2.193,3.005,3.005,0,0,1,2.644.259L413.03,134.091a5.073,5.073,0,0,1,2.1,5.649l-24.626,79.953a3.294,3.294,0,0,1-1.9,2.192A2.8,2.8,0,0,1,387.578,222.08ZM302.527,71.237a2.365,2.365,0,0,0-.86.161,2.839,2.839,0,0,0-1.623,1.9L275.42,153.247a4.582,4.582,0,0,0,1.889,5.109L386.2,221.223a2.564,2.564,0,0,0,2.242.229,2.842,2.842,0,0,0,1.623-1.9L414.688,139.6a4.586,4.586,0,0,0-1.89-5.109L303.908,71.626A2.764,2.764,0,0,0,302.527,71.237Z" transform="translate(-198.138 -70.354)" fill="#03a7d3"/>
        </g>
        <g id="Grupo_33085" data-name="Grupo 33085" transform="translate(52.162 100.893)" opacity="0.5">
          <path id="Trazado_81376" data-name="Trazado 81376" d="M259.49,165.66l-3.616-2.088c-.29-.168-.254-.46.082-.654l4.267-2.465a1.263,1.263,0,0,1,1.133-.046l3.616,2.087c.29.168.254.461-.082.655l-4.267,2.463A1.263,1.263,0,0,1,259.49,165.66Z" transform="translate(-255.678 -146.033)" fill="#21587b"/>
          <path id="Trazado_81377" data-name="Trazado 81377" d="M263.845,168.175l-3.614-2.088c-.291-.168-.254-.46.081-.654l4.268-2.463a1.256,1.256,0,0,1,1.132-.047l3.616,2.087c.291.168.254.461-.081.655l-4.268,2.463A1.263,1.263,0,0,1,263.845,168.175Z" transform="translate(-254.451 -145.324)" fill="#21587b"/>
          <path id="Trazado_81378" data-name="Trazado 81378" d="M268.2,170.69l-3.615-2.088c-.291-.168-.254-.46.081-.654l4.268-2.463a1.256,1.256,0,0,1,1.132-.047l3.615,2.088c.291.167.254.46-.081.654l-4.268,2.463A1.256,1.256,0,0,1,268.2,170.69Z" transform="translate(-253.225 -144.616)" fill="#21587b"/>
          <path id="Trazado_81379" data-name="Trazado 81379" d="M274.228,168.526l-3.616-2.088c-.291-.168-.254-.46.081-.654l3.582-2.069a1.258,1.258,0,0,1,1.133-.046l3.616,2.086c.29.168.254.46-.082.654l-3.582,2.069A1.26,1.26,0,0,1,274.228,168.526Z" transform="translate(-251.528 -145.114)" fill="#21587b"/>
          <path id="Trazado_81380" data-name="Trazado 81380" d="M278.584,171.041l-3.615-2.088c-.291-.168-.254-.46.081-.654l3.582-2.069a1.259,1.259,0,0,1,1.133-.046l3.616,2.087c.29.168.254.46-.082.654l-3.582,2.069A1.26,1.26,0,0,1,278.584,171.041Z" transform="translate(-250.301 -144.406)" fill="#21587b"/>
          <path id="Trazado_81381" data-name="Trazado 81381" d="M282.939,173.556l-3.615-2.088c-.29-.168-.254-.46.082-.654l3.582-2.069a1.256,1.256,0,0,1,1.132-.046l3.616,2.086c.291.168.254.46-.081.655l-3.582,2.067A1.259,1.259,0,0,1,282.939,173.556Z" transform="translate(-249.074 -143.697)" fill="#21587b"/>
          <path id="Trazado_81382" data-name="Trazado 81382" d="M287.3,176.071l-3.616-2.088c-.29-.167-.254-.46.082-.654l3.582-2.069a1.256,1.256,0,0,1,1.132-.046l3.615,2.087c.291.168.254.461-.081.655l-3.582,2.067A1.259,1.259,0,0,1,287.3,176.071Z" transform="translate(-247.847 -142.989)" fill="#21587b"/>
          <path id="Trazado_81383" data-name="Trazado 81383" d="M291.651,178.586l-3.614-2.088c-.291-.167-.254-.46.081-.654l3.582-2.067a1.255,1.255,0,0,1,1.133-.047l3.616,2.087c.29.168.254.461-.082.655l-3.582,2.067A1.259,1.259,0,0,1,291.651,178.586Z" transform="translate(-246.62 -142.281)" fill="#21587b"/>
          <path id="Trazado_81384" data-name="Trazado 81384" d="M296.009,181.1l-3.615-2.088c-.291-.167-.254-.46.081-.654l3.582-2.067a1.259,1.259,0,0,1,1.133-.047l3.616,2.088c.29.167.254.46-.082.654l-3.582,2.067A1.256,1.256,0,0,1,296.009,181.1Z" transform="translate(-245.393 -141.572)" fill="#21587b"/>
          <path id="Trazado_81385" data-name="Trazado 81385" d="M300.365,183.616l-3.616-2.088c-.29-.167-.254-.46.082-.654l3.581-2.067a1.259,1.259,0,0,1,1.133-.047l3.616,2.088c.29.167.254.46-.081.654L301.5,183.57A1.259,1.259,0,0,1,300.365,183.616Z" transform="translate(-244.166 -140.864)" fill="#21587b"/>
          <path id="Trazado_81386" data-name="Trazado 81386" d="M304.721,186.131l-3.616-2.088c-.29-.167-.254-.46.082-.654l3.582-2.067a1.256,1.256,0,0,1,1.132-.047l3.616,2.088c.291.167.254.46-.081.654l-3.582,2.067A1.259,1.259,0,0,1,304.721,186.131Z" transform="translate(-242.939 -140.155)" fill="#21587b"/>
          <path id="Trazado_81387" data-name="Trazado 81387" d="M309.077,188.646l-3.616-2.087c-.29-.168-.254-.461.082-.654l3.582-2.069a1.256,1.256,0,0,1,1.132-.047l3.616,2.088c.291.168.254.46-.081.654l-3.582,2.069A1.258,1.258,0,0,1,309.077,188.646Z" transform="translate(-241.712 -139.447)" fill="#21587b"/>
          <path id="Trazado_81388" data-name="Trazado 81388" d="M313.434,191.161l-3.616-2.087c-.291-.168-.254-.46.081-.655l3.582-2.067a1.259,1.259,0,0,1,1.133-.047l3.616,2.088c.29.168.254.46-.082.654l-3.582,2.069A1.256,1.256,0,0,1,313.434,191.161Z" transform="translate(-240.485 -138.739)" fill="#21587b"/>
          <path id="Trazado_81389" data-name="Trazado 81389" d="M280.646,167.335l-3.616-2.088c-.29-.167-.254-.46.082-.654l3.582-2.069a1.26,1.26,0,0,1,1.132-.046l3.615,2.087c.291.168.254.461-.081.655l-3.582,2.067A1.259,1.259,0,0,1,280.646,167.335Z" transform="translate(-249.72 -145.449)" fill="#21587b"/>
          <path id="Trazado_81390" data-name="Trazado 81390" d="M276.224,164.782l-3.616-2.087c-.29-.168-.254-.46.082-.654l3.582-2.069a1.256,1.256,0,0,1,1.132-.047l3.615,2.088c.29.168.254.46-.081.654l-3.582,2.069A1.259,1.259,0,0,1,276.224,164.782Z" transform="translate(-250.965 -146.168)" fill="#21587b"/>
          <path id="Trazado_81391" data-name="Trazado 81391" d="M272.712,162.755l-7.786-4.5c-.29-.168-.254-.46.082-.654l3.582-2.069a1.26,1.26,0,0,1,1.132-.047l7.787,4.5c.29.168.254.46-.082.654l-3.582,2.069A1.263,1.263,0,0,1,272.712,162.755Z" transform="translate(-253.129 -147.418)" fill="#21587b"/>
          <path id="Trazado_81392" data-name="Trazado 81392" d="M275.486,159.459l-6.319-3.648c-.291-.168-.254-.46.081-.654l3.582-2.069a1.259,1.259,0,0,1,1.133-.047l6.319,3.649c.29.167.254.46-.081.654l-3.582,2.069A1.259,1.259,0,0,1,275.486,159.459Z" transform="translate(-251.935 -148.107)" fill="#21587b"/>
          <path id="Trazado_81393" data-name="Trazado 81393" d="M285,169.85l-3.614-2.088c-.291-.167-.255-.46.081-.654l3.582-2.067a1.259,1.259,0,0,1,1.133-.047l3.614,2.087c.291.168.255.461-.081.655l-3.582,2.067A1.259,1.259,0,0,1,285,169.85Z" transform="translate(-248.493 -144.741)" fill="#21587b"/>
          <path id="Trazado_81394" data-name="Trazado 81394" d="M289.359,172.365l-3.615-2.088c-.291-.167-.254-.46.081-.654l3.582-2.067a1.259,1.259,0,0,1,1.133-.047l3.616,2.088c.29.167.254.46-.082.654l-3.582,2.067A1.256,1.256,0,0,1,289.359,172.365Z" transform="translate(-247.266 -144.033)" fill="#21587b"/>
          <path id="Trazado_81395" data-name="Trazado 81395" d="M293.715,174.88l-3.616-2.087c-.29-.168-.254-.461.081-.655l3.582-2.067a1.259,1.259,0,0,1,1.133-.047l3.616,2.088c.29.167.254.46-.082.654l-3.582,2.067A1.252,1.252,0,0,1,293.715,174.88Z" transform="translate(-246.039 -143.324)" fill="#21587b"/>
          <path id="Trazado_81396" data-name="Trazado 81396" d="M298.07,177.4l-3.616-2.087c-.29-.168-.254-.461.082-.655l3.582-2.067a1.256,1.256,0,0,1,1.132-.047l3.616,2.088c.291.168.254.46-.081.654l-3.582,2.069A1.259,1.259,0,0,1,298.07,177.4Z" transform="translate(-244.812 -142.616)" fill="#21587b"/>
          <path id="Trazado_81397" data-name="Trazado 81397" d="M302.427,179.91l-3.615-2.087c-.29-.168-.254-.46.082-.654l3.582-2.069a1.259,1.259,0,0,1,1.133-.047l3.614,2.088c.291.168.254.46-.081.654l-3.582,2.069A1.258,1.258,0,0,1,302.427,179.91Z" transform="translate(-243.585 -141.908)" fill="#21587b"/>
          <path id="Trazado_81398" data-name="Trazado 81398" d="M306.784,182.425l-3.615-2.087c-.291-.168-.254-.46.081-.654l3.582-2.069a1.259,1.259,0,0,1,1.133-.047l3.616,2.088c.29.168.254.46-.082.654l-3.582,2.069A1.256,1.256,0,0,1,306.784,182.425Z" transform="translate(-242.358 -141.199)" fill="#21587b"/>
          <path id="Trazado_81399" data-name="Trazado 81399" d="M311.14,184.94l-3.616-2.087c-.291-.168-.254-.46.081-.654l3.582-2.069a1.263,1.263,0,0,1,1.133-.047l3.615,2.088c.29.168.254.46-.082.654l-3.582,2.069A1.256,1.256,0,0,1,311.14,184.94Z" transform="translate(-241.131 -140.491)" fill="#21587b"/>
          <path id="Trazado_81400" data-name="Trazado 81400" d="M315.5,187.456l-3.616-2.088c-.29-.168-.254-.46.081-.654l3.584-2.069a1.26,1.26,0,0,1,1.132-.047l3.616,2.088c.291.168.254.46-.081.654l-3.582,2.069A1.263,1.263,0,0,1,315.5,187.456Z" transform="translate(-239.905 -139.782)" fill="#21587b"/>
          <path id="Trazado_81401" data-name="Trazado 81401" d="M319.852,189.971l-3.616-2.088c-.29-.168-.254-.46.082-.654l3.582-2.069a1.256,1.256,0,0,1,1.132-.046l3.616,2.087c.291.168.254.46-.081.654l-3.582,2.069A1.263,1.263,0,0,1,319.852,189.971Z" transform="translate(-238.678 -139.074)" fill="#21587b"/>
          <path id="Trazado_81402" data-name="Trazado 81402" d="M328.536,194.984l-7.889-4.555c-.291-.167-.254-.46.081-.654l3.582-2.069a1.258,1.258,0,0,1,1.133-.046l7.889,4.554c.29.168.254.46-.082.654l-3.582,2.069A1.256,1.256,0,0,1,328.536,194.984Z" transform="translate(-237.435 -138.357)" fill="#21587b"/>
          <path id="Trazado_81403" data-name="Trazado 81403" d="M336.746,189.931l-6.658-3.844c-.291-.168-.254-.46.081-.654l3.582-2.069a1.259,1.259,0,0,1,1.133-.046l6.658,3.844c.29.168.254.46-.082.654l-3.582,2.069A1.256,1.256,0,0,1,336.746,189.931Z" transform="translate(-234.776 -139.58)" fill="#21587b"/>
          <path id="Trazado_81404" data-name="Trazado 81404" d="M292.63,169.358l-3.616-2.088c-.29-.167-.254-.46.082-.654l3.582-2.067a1.256,1.256,0,0,1,1.132-.047l3.616,2.088c.291.167.254.46-.081.654l-3.582,2.067A1.259,1.259,0,0,1,292.63,169.358Z" transform="translate(-246.344 -144.88)" fill="#21587b"/>
          <path id="Trazado_81405" data-name="Trazado 81405" d="M288.165,166.78l-3.614-2.087c-.291-.168-.254-.461.081-.654l3.582-2.069a1.259,1.259,0,0,1,1.133-.047l3.616,2.088c.29.168.254.46-.082.654l-3.582,2.069A1.258,1.258,0,0,1,288.165,166.78Z" transform="translate(-247.602 -145.606)" fill="#21587b"/>
          <path id="Trazado_81406" data-name="Trazado 81406" d="M283.7,164.2l-3.616-2.088c-.29-.168-.254-.46.082-.654l3.581-2.069a1.259,1.259,0,0,1,1.133-.046l3.616,2.087c.29.168.254.46-.081.654l-3.582,2.069A1.263,1.263,0,0,1,283.7,164.2Z" transform="translate(-248.859 -146.332)" fill="#21587b"/>
          <path id="Trazado_81407" data-name="Trazado 81407" d="M279.237,161.625l-3.616-2.088c-.29-.167-.254-.46.082-.654l3.582-2.067a1.259,1.259,0,0,1,1.133-.047l3.614,2.088c.291.167.254.46-.081.654l-3.582,2.067A1.259,1.259,0,0,1,279.237,161.625Z" transform="translate(-250.117 -147.058)" fill="#21587b"/>
          <path id="Trazado_81408" data-name="Trazado 81408" d="M296.986,171.873l-3.615-2.088c-.29-.167-.254-.46.082-.654l3.582-2.069a1.259,1.259,0,0,1,1.133-.046l3.614,2.088c.291.167.254.46-.081.654l-3.582,2.067A1.259,1.259,0,0,1,296.986,171.873Z" transform="translate(-245.117 -144.171)" fill="#21587b"/>
          <path id="Trazado_81409" data-name="Trazado 81409" d="M301.344,174.388l-3.616-2.087c-.291-.168-.254-.461.081-.655l3.582-2.067a1.259,1.259,0,0,1,1.133-.047l3.616,2.088c.29.167.254.46-.082.654l-3.582,2.067A1.256,1.256,0,0,1,301.344,174.388Z" transform="translate(-243.89 -143.463)" fill="#21587b"/>
          <path id="Trazado_81410" data-name="Trazado 81410" d="M305.7,176.9l-3.616-2.088c-.291-.167-.254-.46.081-.654l3.582-2.067a1.259,1.259,0,0,1,1.133-.047l3.616,2.088c.29.167.254.46-.082.654l-3.582,2.069A1.256,1.256,0,0,1,305.7,176.9Z" transform="translate(-242.664 -142.754)" fill="#21587b"/>
          <path id="Trazado_81411" data-name="Trazado 81411" d="M310.055,179.418l-3.616-2.087c-.29-.168-.254-.461.082-.655l3.582-2.067a1.256,1.256,0,0,1,1.132-.047l3.615,2.088c.29.167.254.46-.081.654l-3.582,2.069A1.259,1.259,0,0,1,310.055,179.418Z" transform="translate(-241.437 -142.046)" fill="#21587b"/>
          <path id="Trazado_81412" data-name="Trazado 81412" d="M314.411,181.933l-3.616-2.087c-.29-.168-.254-.46.082-.654l3.582-2.069a1.256,1.256,0,0,1,1.132-.047l3.616,2.088c.291.168.254.46-.081.654l-3.582,2.069A1.259,1.259,0,0,1,314.411,181.933Z" transform="translate(-240.21 -141.338)" fill="#21587b"/>
          <path id="Trazado_81413" data-name="Trazado 81413" d="M318.767,184.448l-3.614-2.087c-.291-.168-.254-.46.081-.654l3.582-2.069a1.259,1.259,0,0,1,1.133-.047l3.614,2.088c.291.168.255.46-.081.654L319.9,184.4A1.259,1.259,0,0,1,318.767,184.448Z" transform="translate(-238.983 -140.63)" fill="#21587b"/>
          <path id="Trazado_81414" data-name="Trazado 81414" d="M323.125,186.963l-3.615-2.087c-.291-.168-.254-.46.081-.654l3.582-2.069a1.263,1.263,0,0,1,1.133-.047l3.616,2.088c.29.168.254.46-.082.654l-3.582,2.069A1.256,1.256,0,0,1,323.125,186.963Z" transform="translate(-237.756 -139.921)" fill="#21587b"/>
          <path id="Trazado_81415" data-name="Trazado 81415" d="M327.481,189.478l-3.616-2.087c-.29-.168-.254-.46.081-.654l3.582-2.069a1.263,1.263,0,0,1,1.133-.047l3.616,2.088c.29.168.254.46-.081.654l-3.583,2.069A1.256,1.256,0,0,1,327.481,189.478Z" transform="translate(-236.529 -139.213)" fill="#21587b"/>
          <path id="Trazado_81416" data-name="Trazado 81416" d="M331.836,191.993l-3.615-2.087c-.29-.168-.254-.46.082-.654l3.582-2.069a1.256,1.256,0,0,1,1.132-.046l3.616,2.087c.291.168.254.46-.081.654l-3.582,2.069A1.259,1.259,0,0,1,331.836,191.993Z" transform="translate(-235.302 -138.504)" fill="#21587b"/>
          <path id="Trazado_81417" data-name="Trazado 81417" d="M290.337,163.137l-3.616-2.087c-.29-.168-.254-.461.082-.655l3.582-2.067a1.256,1.256,0,0,1,1.132-.047l3.616,2.088c.291.167.254.46-.081.654l-3.582,2.067A1.259,1.259,0,0,1,290.337,163.137Z" transform="translate(-246.99 -146.632)" fill="#21587b"/>
          <path id="Trazado_81418" data-name="Trazado 81418" d="M286,160.635l-3.616-2.088c-.291-.168-.254-.46.081-.654l3.582-2.069a1.263,1.263,0,0,1,1.133-.047l3.616,2.088c.29.168.254.46-.082.654l-3.582,2.069A1.26,1.26,0,0,1,286,160.635Z" transform="translate(-248.211 -147.337)" fill="#21587b"/>
          <path id="Trazado_81419" data-name="Trazado 81419" d="M281.667,158.132l-3.615-2.088c-.29-.167-.254-.46.082-.654l3.582-2.069a1.256,1.256,0,0,1,1.132-.046l3.615,2.088c.291.167.254.46-.081.654l-3.582,2.067A1.259,1.259,0,0,1,281.667,158.132Z" transform="translate(-249.432 -148.041)" fill="#21587b"/>
          <path id="Trazado_81420" data-name="Trazado 81420" d="M277.334,155.629l-3.615-2.087c-.291-.168-.254-.46.081-.654l3.582-2.069a1.259,1.259,0,0,1,1.133-.047l3.616,2.088c.29.168.254.46-.082.654l-3.582,2.069A1.256,1.256,0,0,1,277.334,155.629Z" transform="translate(-250.653 -148.746)" fill="#21587b"/>
          <path id="Trazado_81421" data-name="Trazado 81421" d="M281.791,152.752l-3.616-2.088c-.29-.167-.254-.46.081-.654l1.184-.683a1.259,1.259,0,0,1,1.133-.047l3.616,2.088c.29.168.254.46-.082.654l-1.184.683A1.256,1.256,0,0,1,281.791,152.752Z" transform="translate(-249.397 -149.167)" fill="#21587b"/>
          <path id="Trazado_81422" data-name="Trazado 81422" d="M287.446,156.018l-3.614-2.088c-.291-.167-.254-.46.081-.654l1.184-.683a1.259,1.259,0,0,1,1.133-.047l3.614,2.088c.291.167.255.46-.081.654l-1.184.683A1.259,1.259,0,0,1,287.446,156.018Z" transform="translate(-247.804 -148.247)" fill="#21587b"/>
          <path id="Trazado_81423" data-name="Trazado 81423" d="M291.763,158.51l-3.616-2.088c-.29-.167-.254-.46.082-.654l1.183-.683a1.259,1.259,0,0,1,1.133-.047l3.615,2.088c.29.168.254.46-.081.654l-1.184.683A1.259,1.259,0,0,1,291.763,158.51Z" transform="translate(-246.588 -147.545)" fill="#21587b"/>
          <path id="Trazado_81424" data-name="Trazado 81424" d="M296.079,161l-3.614-2.087c-.291-.168-.255-.461.081-.655l1.184-.683a1.259,1.259,0,0,1,1.133-.047l3.614,2.088c.291.168.255.46-.081.654l-1.184.683A1.255,1.255,0,0,1,296.079,161Z" transform="translate(-245.373 -146.843)" fill="#21587b"/>
          <path id="Trazado_81425" data-name="Trazado 81425" d="M300.4,163.494l-3.615-2.087c-.29-.168-.254-.461.082-.654l1.183-.684a1.263,1.263,0,0,1,1.133-.047l3.616,2.088c.29.168.254.46-.082.654l-1.183.684A1.259,1.259,0,0,1,300.4,163.494Z" transform="translate(-244.157 -146.141)" fill="#21587b"/>
          <path id="Trazado_81426" data-name="Trazado 81426" d="M324.495,177.407l-3.616-2.087c-.29-.168-.254-.46.082-.654l1.184-.684a1.26,1.26,0,0,1,1.132-.047l3.616,2.088c.291.168.254.46-.081.654l-1.184.684A1.258,1.258,0,0,1,324.495,177.407Z" transform="translate(-237.37 -142.223)" fill="#21587b"/>
          <path id="Trazado_81427" data-name="Trazado 81427" d="M328.812,179.9l-3.615-2.086c-.291-.168-.254-.46.081-.654l1.184-.684a1.259,1.259,0,0,1,1.133-.046l3.616,2.087c.29.168.254.461-.082.654l-1.184.684A1.256,1.256,0,0,1,328.812,179.9Z" transform="translate(-236.154 -141.521)" fill="#21587b"/>
          <path id="Trazado_81428" data-name="Trazado 81428" d="M333.127,182.392l-3.616-2.088c-.29-.168-.254-.46.082-.654l1.184-.684a1.256,1.256,0,0,1,1.132-.046l3.616,2.086c.291.168.254.461-.081.655l-1.184.683A1.263,1.263,0,0,1,333.127,182.392Z" transform="translate(-234.938 -140.819)" fill="#21587b"/>
          <path id="Trazado_81429" data-name="Trazado 81429" d="M337.445,184.884l-3.616-2.088c-.291-.168-.254-.46.081-.654l1.184-.683a1.259,1.259,0,0,1,1.133-.047l3.615,2.088c.29.167.254.46-.082.654l-1.184.683A1.26,1.26,0,0,1,337.445,184.884Z" transform="translate(-233.723 -140.117)" fill="#21587b"/>
          <path id="Trazado_81430" data-name="Trazado 81430" d="M294.692,165.652l-3.614-2.088c-.291-.167-.254-.46.081-.654l3.582-2.067a1.259,1.259,0,0,1,1.133-.047l3.615,2.088c.29.167.254.46-.082.654l-3.582,2.069A1.259,1.259,0,0,1,294.692,165.652Z" transform="translate(-245.763 -145.923)" fill="#21587b"/>
          <path id="Trazado_81431" data-name="Trazado 81431" d="M299.05,168.167l-3.616-2.087c-.291-.168-.254-.461.081-.655l3.582-2.067a1.259,1.259,0,0,1,1.133-.047l3.616,2.088c.29.168.254.46-.082.654l-3.582,2.069A1.256,1.256,0,0,1,299.05,168.167Z" transform="translate(-244.537 -145.215)" fill="#21587b"/>
          <path id="Trazado_81432" data-name="Trazado 81432" d="M303.405,170.682,299.79,168.6c-.29-.168-.254-.461.082-.654l3.582-2.069a1.256,1.256,0,0,1,1.132-.047l3.615,2.088c.29.168.254.46-.081.654l-3.582,2.069A1.259,1.259,0,0,1,303.405,170.682Z" transform="translate(-243.31 -144.507)" fill="#21587b"/>
          <path id="Trazado_81433" data-name="Trazado 81433" d="M307.762,173.2l-3.616-2.087c-.29-.168-.254-.46.082-.654l3.582-2.069a1.26,1.26,0,0,1,1.132-.047l3.616,2.088c.291.168.254.46-.081.654l-3.582,2.069A1.259,1.259,0,0,1,307.762,173.2Z" transform="translate(-242.083 -143.798)" fill="#21587b"/>
          <path id="Trazado_81434" data-name="Trazado 81434" d="M312.117,175.712l-3.614-2.087c-.291-.168-.255-.46.081-.654l3.582-2.069a1.263,1.263,0,0,1,1.133-.047l3.614,2.088c.291.168.255.46-.081.654l-3.582,2.069A1.259,1.259,0,0,1,312.117,175.712Z" transform="translate(-240.856 -143.09)" fill="#21587b"/>
          <path id="Trazado_81435" data-name="Trazado 81435" d="M316.475,178.227l-3.615-2.087c-.291-.168-.254-.46.081-.654l3.582-2.069a1.263,1.263,0,0,1,1.133-.047l3.615,2.088c.29.168.254.46-.082.654l-3.582,2.069A1.256,1.256,0,0,1,316.475,178.227Z" transform="translate(-239.629 -142.382)" fill="#21587b"/>
          <path id="Trazado_81436" data-name="Trazado 81436" d="M320.831,180.743l-3.616-2.088c-.29-.168-.254-.46.081-.654l3.582-2.069a1.263,1.263,0,0,1,1.133-.047l3.616,2.088c.29.168.254.46-.082.654l-3.582,2.069A1.26,1.26,0,0,1,320.831,180.743Z" transform="translate(-238.402 -141.673)" fill="#21587b"/>
          <path id="Trazado_81437" data-name="Trazado 81437" d="M325.187,183.258l-3.616-2.088c-.29-.168-.254-.46.082-.654l3.582-2.069a1.26,1.26,0,0,1,1.132-.047l3.615,2.088c.291.168.254.46-.081.654l-3.582,2.069A1.263,1.263,0,0,1,325.187,183.258Z" transform="translate(-237.175 -140.965)" fill="#21587b"/>
          <path id="Trazado_81438" data-name="Trazado 81438" d="M329.542,185.773l-3.616-2.088c-.29-.168-.254-.46.082-.654l3.582-2.069a1.258,1.258,0,0,1,1.133-.046L334.338,183c.291.168.254.46-.081.654l-3.582,2.069A1.263,1.263,0,0,1,329.542,185.773Z" transform="translate(-235.948 -140.256)" fill="#21587b"/>
          <path id="Trazado_81439" data-name="Trazado 81439" d="M271.333,166.855l-10.647-6.148c-.291-.167-.255-.46.081-.654l3.582-2.069a1.259,1.259,0,0,1,1.133-.046l10.647,6.147c.291.168.254.46-.081.654l-3.582,2.069A1.263,1.263,0,0,1,271.333,166.855Z" transform="translate(-254.323 -146.728)" fill="#21587b"/>
          <path id="Trazado_81440" data-name="Trazado 81440" d="M324.851,197.753,314.2,191.605c-.291-.167-.254-.46.081-.654l3.582-2.067a1.259,1.259,0,0,1,1.133-.047l10.648,6.147c.29.168.254.461-.082.655l-3.582,2.067A1.256,1.256,0,0,1,324.851,197.753Z" transform="translate(-239.25 -138.026)" fill="#21587b"/>
          <path id="Trazado_81441" data-name="Trazado 81441" d="M305.883,192.445l-3.614-2.087c-.291-.168-.255-.461.081-.655l4.268-2.463a1.256,1.256,0,0,1,1.132-.046l3.615,2.087c.29.168.254.46-.081.654l-4.268,2.465A1.259,1.259,0,0,1,305.883,192.445Z" transform="translate(-242.612 -138.489)" fill="#21587b"/>
          <path id="Trazado_81442" data-name="Trazado 81442" d="M274.725,174.456l-5.781-3.339c-.29-.168-.254-.46.081-.654L273.292,168a1.259,1.259,0,0,1,1.133-.047l5.781,3.339c.29.167.254.46-.081.654l-4.268,2.463A1.259,1.259,0,0,1,274.725,174.456Z" transform="translate(-251.998 -143.908)" fill="#21587b"/>
          <path id="Trazado_81443" data-name="Trazado 81443" d="M302.163,190.3l-5.781-3.339c-.291-.167-.254-.46.081-.654l4.268-2.463a1.26,1.26,0,0,1,1.132-.047l5.783,3.339c.29.168.254.46-.082.654l-4.267,2.463A1.259,1.259,0,0,1,302.163,190.3Z" transform="translate(-244.27 -139.446)" fill="#21587b"/>
          <path id="Trazado_81444" data-name="Trazado 81444" d="M281.009,178.085l-5.782-3.339c-.29-.168-.254-.46.082-.654l4.267-2.465a1.259,1.259,0,0,1,1.133-.046l5.781,3.337c.291.168.254.46-.081.654l-4.268,2.465A1.263,1.263,0,0,1,281.009,178.085Z" transform="translate(-250.227 -142.886)" fill="#21587b"/>
          <path id="Trazado_81445" data-name="Trazado 81445" d="M280.7,171.574l25.138,14.515a.343.343,0,0,1,0,.651l-4.351,2.513a1.251,1.251,0,0,1-1.129,0L275.216,174.74Z" transform="translate(-250.176 -142.856)" fill="#21587b"/>
          <path id="Trazado_81446" data-name="Trazado 81446" d="M317.858,195.846l4.027,2.326c.238.137.209.377-.067.536l-1.746,1.007a1.031,1.031,0,0,1-.928.038l-4.027-2.325c-.238-.137-.208-.377.067-.536l1.746-1.009A1.035,1.035,0,0,1,317.858,195.846Z" transform="translate(-238.983 -136.046)" fill="#21587b"/>
          <path id="Trazado_81447" data-name="Trazado 81447" d="M313.467,193.31l4.027,2.326c.238.137.208.377-.067.536l-1.746,1.007a1.031,1.031,0,0,1-.928.038l-4.027-2.325c-.238-.137-.209-.377.067-.536l1.746-1.009A1.035,1.035,0,0,1,313.467,193.31Z" transform="translate(-240.22 -136.76)" fill="#21587b"/>
          <path id="Trazado_81448" data-name="Trazado 81448" d="M309.111,190.8l4.027,2.326c.238.137.208.377-.067.536l-1.746,1.007a1.031,1.031,0,0,1-.928.038l-4.028-2.325c-.237-.137-.208-.378.067-.536l1.746-1.009A1.038,1.038,0,0,1,309.111,190.8Z" transform="translate(-241.447 -137.468)" fill="#21587b"/>
          <path id="Trazado_81449" data-name="Trazado 81449" d="M315.873,191.923l4.027,2.325c.237.137.208.377-.067.536l-1.746,1.007a1.034,1.034,0,0,1-.929.038l-4.027-2.325c-.237-.137-.208-.377.067-.536l1.746-1.007A1.029,1.029,0,0,1,315.873,191.923Z" transform="translate(-239.542 -137.151)" fill="#21587b"/>
        </g>
        <path id="Trazado_81450" data-name="Trazado 81450" d="M286.889,207.037a5.208,5.208,0,0,1-2.563-.6l-28.059-16.2a1.963,1.963,0,0,1-1.12-1.67,2.59,2.59,0,0,1,1.515-2.089l14.443-8.34a6.4,6.4,0,0,1,5.834-.228L305,194.11a1.963,1.963,0,0,1,1.12,1.671,2.59,2.59,0,0,1-1.515,2.088l-14.444,8.34A6.683,6.683,0,0,1,286.889,207.037Zm-2.224-1.188a5.74,5.74,0,0,0,5.155-.228l14.443-8.34a1.96,1.96,0,0,0,1.175-1.5,1.339,1.339,0,0,0-.781-1.083L276.6,178.5a5.738,5.738,0,0,0-5.152.228L257,187.065a1.963,1.963,0,0,0-1.175,1.5,1.338,1.338,0,0,0,.782,1.082Z" transform="translate(-203.666 -40.347)" fill="#21587b" opacity="0.5"/>
      </g>
      <g id="Grupo_33091" data-name="Grupo 33091" transform="translate(90.126 24.074)">
        <g id="Grupo_33088" data-name="Grupo 33088" transform="translate(8.331)">
          <g id="Grupo_33087" data-name="Grupo 33087" transform="translate(3.414 2.544)">
            <path id="Trazado_81451" data-name="Trazado 81451" d="M307.209,95.774l-3.186-1.838a.833.833,0,0,1-.354-.916h0a.472.472,0,0,1,.716-.3l3.185,1.839a.831.831,0,0,1,.355.916h0A.472.472,0,0,1,307.209,95.774Z" transform="translate(-291.879 -90.811)" fill="#fff"/>
            <path id="Trazado_81452" data-name="Trazado 81452" d="M313.461,99.384l-4.7-2.711a.834.834,0,0,1-.354-.916h0a.472.472,0,0,1,.716-.3l4.7,2.712a.832.832,0,0,1,.354.916h0A.471.471,0,0,1,313.461,99.384Z" transform="translate(-290.544 -90.04)" fill="#fff"/>
            <path id="Trazado_81453" data-name="Trazado 81453" d="M302.2,106.839,299.011,105a.831.831,0,0,1-.354-.915h0a.472.472,0,0,1,.716-.3l3.185,1.839a.83.83,0,0,1,.354.916h0A.471.471,0,0,1,302.2,106.839Z" transform="translate(-293.291 -87.694)" fill="#fff"/>
            <path id="Trazado_81454" data-name="Trazado 81454" d="M307.807,110.078l-4.7-2.712a.831.831,0,0,1-.354-.915h0a.472.472,0,0,1,.716-.3l4.7,2.712a.831.831,0,0,1,.355.916h0A.472.472,0,0,1,307.807,110.078Z" transform="translate(-292.137 -87.028)" fill="#fff"/>
            <path id="Trazado_81455" data-name="Trazado 81455" d="M299.5,93.65,297.511,92.5a.832.832,0,0,1-.354-.916h0a.472.472,0,0,1,.716-.3l1.989,1.148a.831.831,0,0,1,.355.916h0A.472.472,0,0,1,299.5,93.65Z" transform="translate(-293.713 -91.214)" fill="#fff"/>
            <path id="Trazado_81456" data-name="Trazado 81456" d="M305.072,99.193l-6.08-3.51a.829.829,0,0,1-.354-.915h0a.471.471,0,0,1,.715-.3l6.08,3.51a.83.83,0,0,1,.354.916h0A.471.471,0,0,1,305.072,99.193Z" transform="translate(-293.296 -90.318)" fill="#fff"/>
            <path id="Trazado_81457" data-name="Trazado 81457" d="M299.8,100.8l-1.989-1.148a.83.83,0,0,1-.354-.916h0a.471.471,0,0,1,.715-.3l1.99,1.15a.83.83,0,0,1,.354.916h0A.472.472,0,0,1,299.8,100.8Z" transform="translate(-293.63 -89.2)" fill="#fff"/>
            <path id="Trazado_81458" data-name="Trazado 81458" d="M308.514,115.141l-5.315-3.07a.831.831,0,0,1-.354-.915h0a.472.472,0,0,1,.717-.3l5.315,3.068a.832.832,0,0,1,.354.916h0A.472.472,0,0,1,308.514,115.141Z" transform="translate(-292.111 -85.703)" fill="#fff"/>
            <path id="Trazado_81459" data-name="Trazado 81459" d="M297.9,104.359l-1.277-.737a.831.831,0,0,1-.355-.916h0a.472.472,0,0,1,.716-.3l1.278.737a.832.832,0,0,1,.354.916h0A.472.472,0,0,1,297.9,104.359Z" transform="translate(-293.963 -88.082)" fill="#fff"/>
            <path id="Trazado_81460" data-name="Trazado 81460" d="M297.026,108.507l-1.585-.916a.83.83,0,0,1-.355-.915h0a.472.472,0,0,1,.716-.3l1.587.916a.831.831,0,0,1,.354.915h0A.472.472,0,0,1,297.026,108.507Z" transform="translate(-294.297 -86.964)" fill="#fff"/>
            <path id="Trazado_81461" data-name="Trazado 81461" d="M302.411,111.617l-4.182-2.415a.83.83,0,0,1-.354-.916h0a.47.47,0,0,1,.715-.3l4.182,2.413a.832.832,0,0,1,.355.916h0A.472.472,0,0,1,302.411,111.617Z" transform="translate(-293.511 -86.511)" fill="#fff"/>
            <path id="Trazado_81462" data-name="Trazado 81462" d="M297.855,111.313l-3.008-1.737a.832.832,0,0,1-.354-.916h0a.472.472,0,0,1,.716-.3l3.007,1.735a.83.83,0,0,1,.354.916h0A.471.471,0,0,1,297.855,111.313Z" transform="translate(-294.464 -86.405)" fill="#fff"/>
            <path id="Trazado_81463" data-name="Trazado 81463" d="M311.329,116.775,309.4,115.66a.83.83,0,0,1-.354-.916h0a.471.471,0,0,1,.717-.3l1.93,1.114a.831.831,0,0,1,.355.916h0A.472.472,0,0,1,311.329,116.775Z" transform="translate(-290.366 -84.692)" fill="#fff"/>
            <path id="Trazado_81464" data-name="Trazado 81464" d="M306.3,104.557l-5.315-3.068a.829.829,0,0,1-.354-.915h0a.471.471,0,0,1,.715-.3l5.315,3.068a.83.83,0,0,1,.354.916h0A.47.47,0,0,1,306.3,104.557Z" transform="translate(-292.734 -88.683)" fill="#fff"/>
          </g>
          <path id="Trazado_81465" data-name="Trazado 81465" d="M307.663,103.016,298.4,97.668a.83.83,0,0,1-.354-.916h0a.471.471,0,0,1,.715-.3l9.264,5.348a.831.831,0,0,1,.354.915h0A.472.472,0,0,1,307.663,103.016Z" transform="translate(-290.049 -87.215)" fill="#fff"/>
          <path id="Trazado_81466" data-name="Trazado 81466" d="M302.532,104.707l-5.315-3.07a.83.83,0,0,1-.355-.915h0a.472.472,0,0,1,.716-.3l5.315,3.068a.83.83,0,0,1,.354.916h0A.471.471,0,0,1,302.532,104.707Z" transform="translate(-290.382 -86.097)" fill="#fff"/>
          <path id="Trazado_81467" data-name="Trazado 81467" d="M308.706,105.944l-1.931-1.115a.831.831,0,0,1-.354-.915h0a.472.472,0,0,1,.716-.3l1.93,1.115a.831.831,0,0,1,.355.916h0A.471.471,0,0,1,308.706,105.944Z" transform="translate(-287.69 -85.198)" fill="#fff"/>
          <path id="Trazado_81468" data-name="Trazado 81468" d="M321.49,104l-6.806-3.909a.83.83,0,0,1-.354-.915h0a.472.472,0,0,1,.716-.3l6.8,3.909a.83.83,0,0,1,.355.915h0A.472.472,0,0,1,321.49,104Z" transform="translate(-285.462 -86.533)" fill="#fff"/>
          <path id="Trazado_81469" data-name="Trazado 81469" d="M302.42,109.3l-6.388-3.689a.832.832,0,0,1-.355-.916h0a.472.472,0,0,1,.717-.3l6.389,3.689a.83.83,0,0,1,.354.916h0A.472.472,0,0,1,302.42,109.3Z" transform="translate(-290.716 -84.979)" fill="#fff"/>
          <path id="Trazado_81470" data-name="Trazado 81470" d="M302.8,93.229l-4.7-2.712a.831.831,0,0,1-.354-.915h0a.472.472,0,0,1,.716-.3l4.7,2.712a.832.832,0,0,1,.354.916h0A.472.472,0,0,1,302.8,93.229Z" transform="translate(-290.132 -89.229)" fill="#fff"/>
          <path id="Trazado_81471" data-name="Trazado 81471" d="M297.623,113.505l-5.439-3.141a.83.83,0,0,1-.354-.916h0a.471.471,0,0,1,.715-.3l5.441,3.14a.832.832,0,0,1,.354.916h0A.472.472,0,0,1,297.623,113.505Z" transform="translate(-291.8 -83.639)" fill="#fff"/>
        </g>
        <g id="Grupo_33090" data-name="Grupo 33090" transform="translate(0 28.182)">
          <g id="Grupo_33089" data-name="Grupo 33089" transform="translate(3.415 2.543)">
            <path id="Trazado_81472" data-name="Trazado 81472" d="M300.709,117.763l-3.185-1.839a.828.828,0,0,1-.354-.916h0a.471.471,0,0,1,.715-.3l3.186,1.838a.833.833,0,0,1,.354.916h0A.472.472,0,0,1,300.709,117.763Z" transform="translate(-285.38 -112.798)" fill="#fff"/>
            <path id="Trazado_81473" data-name="Trazado 81473" d="M306.962,121.373l-4.7-2.712a.831.831,0,0,1-.355-.916h0a.472.472,0,0,1,.716-.3l4.7,2.711a.833.833,0,0,1,.354.916h0A.472.472,0,0,1,306.962,121.373Z" transform="translate(-284.045 -112.027)" fill="#fff"/>
            <path id="Trazado_81474" data-name="Trazado 81474" d="M295.7,128.828l-3.185-1.839a.831.831,0,0,1-.355-.916h0a.472.472,0,0,1,.716-.3l3.185,1.839a.83.83,0,0,1,.355.915h0A.472.472,0,0,1,295.7,128.828Z" transform="translate(-286.792 -109.682)" fill="#fff"/>
            <path id="Trazado_81475" data-name="Trazado 81475" d="M301.307,132.067l-4.7-2.712a.832.832,0,0,1-.354-.916h0a.472.472,0,0,1,.716-.3l4.7,2.711a.834.834,0,0,1,.354.916h0A.472.472,0,0,1,301.307,132.067Z" transform="translate(-285.637 -109.015)" fill="#fff"/>
            <path id="Trazado_81476" data-name="Trazado 81476" d="M293,115.64l-1.989-1.15a.83.83,0,0,1-.355-.915h0a.472.472,0,0,1,.716-.3l1.99,1.15a.831.831,0,0,1,.354.915h0A.472.472,0,0,1,293,115.64Z" transform="translate(-287.214 -113.202)" fill="#fff"/>
            <path id="Trazado_81477" data-name="Trazado 81477" d="M298.572,121.183l-6.08-3.51a.832.832,0,0,1-.354-.916h0a.471.471,0,0,1,.716-.3l6.079,3.509a.832.832,0,0,1,.355.916h0A.472.472,0,0,1,298.572,121.183Z" transform="translate(-286.797 -112.306)" fill="#fff"/>
            <path id="Trazado_81478" data-name="Trazado 81478" d="M293.3,122.791l-1.99-1.15a.83.83,0,0,1-.354-.916h0a.472.472,0,0,1,.716-.3l1.989,1.148a.83.83,0,0,1,.354.916h0A.471.471,0,0,1,293.3,122.791Z" transform="translate(-287.13 -111.188)" fill="#fff"/>
            <path id="Trazado_81479" data-name="Trazado 81479" d="M302.014,137.128,296.7,134.06a.831.831,0,0,1-.355-.916h0a.471.471,0,0,1,.716-.3l5.315,3.068a.831.831,0,0,1,.354.915h0A.472.472,0,0,1,302.014,137.128Z" transform="translate(-285.612 -107.69)" fill="#fff"/>
            <path id="Trazado_81480" data-name="Trazado 81480" d="M291.4,126.348l-1.277-.738a.829.829,0,0,1-.354-.915h0a.471.471,0,0,1,.715-.3l1.278.738a.829.829,0,0,1,.354.915h0A.472.472,0,0,1,291.4,126.348Z" transform="translate(-287.464 -110.07)" fill="#fff"/>
            <path id="Trazado_81481" data-name="Trazado 81481" d="M290.526,130.5l-1.585-.915a.83.83,0,0,1-.354-.916h0a.471.471,0,0,1,.715-.3l1.587.916a.83.83,0,0,1,.354.916h0A.472.472,0,0,1,290.526,130.5Z" transform="translate(-287.797 -108.952)" fill="#fff"/>
            <path id="Trazado_81482" data-name="Trazado 81482" d="M295.911,133.6l-4.182-2.415a.831.831,0,0,1-.354-.915h0a.472.472,0,0,1,.716-.3l4.182,2.415a.831.831,0,0,1,.354.915h0A.472.472,0,0,1,295.911,133.6Z" transform="translate(-287.012 -108.499)" fill="#fff"/>
            <path id="Trazado_81483" data-name="Trazado 81483" d="M291.355,133.3l-3.007-1.737a.827.827,0,0,1-.354-.915h0a.471.471,0,0,1,.715-.3l3.007,1.737a.83.83,0,0,1,.355.915h0A.472.472,0,0,1,291.355,133.3Z" transform="translate(-287.964 -108.393)" fill="#fff"/>
            <path id="Trazado_81484" data-name="Trazado 81484" d="M304.829,138.763l-1.932-1.115a.832.832,0,0,1-.354-.916h0a.472.472,0,0,1,.716-.3l1.931,1.115a.831.831,0,0,1,.354.915h0A.472.472,0,0,1,304.829,138.763Z" transform="translate(-283.866 -106.68)" fill="#fff"/>
            <path id="Trazado_81485" data-name="Trazado 81485" d="M299.8,126.546l-5.315-3.068a.832.832,0,0,1-.354-.916h0a.471.471,0,0,1,.716-.3l5.314,3.068a.83.83,0,0,1,.355.915h0A.472.472,0,0,1,299.8,126.546Z" transform="translate(-286.234 -110.671)" fill="#fff"/>
          </g>
          <path id="Trazado_81486" data-name="Trazado 81486" d="M301.163,125l-9.262-5.348a.829.829,0,0,1-.354-.915h0a.472.472,0,0,1,.716-.3l9.262,5.348a.83.83,0,0,1,.354.916h0A.472.472,0,0,1,301.163,125Z" transform="translate(-283.549 -109.204)" fill="#fff"/>
          <path id="Trazado_81487" data-name="Trazado 81487" d="M296.031,126.694l-5.315-3.068a.83.83,0,0,1-.354-.916h0a.472.472,0,0,1,.716-.3l5.314,3.07a.83.83,0,0,1,.355.915h0A.472.472,0,0,1,296.031,126.694Z" transform="translate(-283.882 -108.086)" fill="#fff"/>
          <path id="Trazado_81488" data-name="Trazado 81488" d="M302.206,127.933l-1.931-1.115a.832.832,0,0,1-.354-.916h0a.471.471,0,0,1,.716-.3l1.931,1.114a.833.833,0,0,1,.354.916h0A.472.472,0,0,1,302.206,127.933Z" transform="translate(-281.19 -107.187)" fill="#fff"/>
          <path id="Trazado_81489" data-name="Trazado 81489" d="M295.921,131.284l-6.389-3.689a.83.83,0,0,1-.354-.916h0a.471.471,0,0,1,.715-.3l6.389,3.689a.829.829,0,0,1,.354.915h0A.471.471,0,0,1,295.921,131.284Z" transform="translate(-284.216 -106.968)" fill="#fff"/>
          <path id="Trazado_81490" data-name="Trazado 81490" d="M296.3,115.218l-4.7-2.712a.831.831,0,0,1-.355-.916h0a.472.472,0,0,1,.716-.3l4.7,2.711a.834.834,0,0,1,.354.916h0A.472.472,0,0,1,296.3,115.218Z" transform="translate(-283.632 -111.218)" fill="#fff"/>
          <path id="Trazado_81491" data-name="Trazado 81491" d="M291.123,135.493l-5.439-3.141a.829.829,0,0,1-.354-.915h0a.472.472,0,0,1,.716-.3l5.439,3.141a.829.829,0,0,1,.354.915h0A.472.472,0,0,1,291.123,135.493Z" transform="translate(-285.3 -105.628)" fill="#fff"/>
        </g>
      </g>
      <g id="Grupo_33093" data-name="Grupo 33093" transform="translate(126.762 45.037)">
        <path id="Trazado_81492" data-name="Trazado 81492" d="M369.81,192.329a3.974,3.974,0,0,1-1.989-.563l-51.1-29.5a6.141,6.141,0,0,1-2.6-6.808l14.358-47.048a3.878,3.878,0,0,1,2.24-2.586,3.693,3.693,0,0,1,3.241.326l51.1,29.5a6.14,6.14,0,0,1,2.6,6.806L373.3,189.5a3.881,3.881,0,0,1-2.24,2.588A3.405,3.405,0,0,1,369.81,192.329Zm-1.756-.965a3.237,3.237,0,0,0,2.838.293,3.422,3.422,0,0,0,1.966-2.288l14.358-47.048a5.657,5.657,0,0,0-2.39-6.268l-51.1-29.5a3.237,3.237,0,0,0-2.838-.3,3.425,3.425,0,0,0-1.965,2.289l-14.358,47.047a5.655,5.655,0,0,0,2.39,6.27Z" transform="translate(-313.885 -105.585)" fill="#fff"/>
        <g id="Grupo_33092" data-name="Grupo 33092" transform="translate(5.688 7.379)">
          <path id="Trazado_81493" data-name="Trazado 81493" d="M374.28,150.3a2.8,2.8,0,0,1-1.406-.4l-44.7-25.807a4.3,4.3,0,0,1-1.825-4.769l1.829-5.99a2.736,2.736,0,0,1,1.583-1.826,2.6,2.6,0,0,1,2.294.228l44.7,25.809a4.3,4.3,0,0,1,1.825,4.768l-1.829,5.992a2.739,2.739,0,0,1-1.584,1.825A2.406,2.406,0,0,1,374.28,150.3Zm-43.631-38.492a1.969,1.969,0,0,0-.718.135,2.29,2.29,0,0,0-1.307,1.529l-1.829,5.99a3.815,3.815,0,0,0,1.611,4.229l44.7,25.807a2.16,2.16,0,0,0,1.888.2,2.283,2.283,0,0,0,1.311-1.528l1.828-5.992a3.816,3.816,0,0,0-1.611-4.229l-44.7-25.807A2.366,2.366,0,0,0,330.649,111.811Z" transform="translate(-316.108 -111.343)" fill="#fff"/>
          <path id="Trazado_81494" data-name="Trazado 81494" d="M361.088,157.723l-8.379-4.838a4.052,4.052,0,0,1-1.719-4.5l1.829-5.992a2.337,2.337,0,0,1,3.537-1.464l8.379,4.838a4.052,4.052,0,0,1,1.719,4.5l-1.828,5.992A2.337,2.337,0,0,1,361.088,157.723Z" transform="translate(-309.166 -103.112)" fill="#fff"/>
          <path id="Trazado_81495" data-name="Trazado 81495" d="M358.558,171.053a2.806,2.806,0,0,1-1.4-.4l-8.379-4.837a4.3,4.3,0,0,1-1.825-4.768l1.828-5.992a2.738,2.738,0,0,1,1.584-1.826,2.605,2.605,0,0,1,2.294.228l8.379,4.838a4.3,4.3,0,0,1,1.825,4.768l-1.829,5.992a2.744,2.744,0,0,1-1.584,1.826A2.408,2.408,0,0,1,358.558,171.053Zm-7.309-17.523a1.965,1.965,0,0,0-.718.135,2.289,2.289,0,0,0-1.309,1.528l-1.829,5.992a3.815,3.815,0,0,0,1.612,4.229l8.379,4.838a2.155,2.155,0,0,0,1.889.2,2.284,2.284,0,0,0,1.31-1.529l1.829-5.99A3.814,3.814,0,0,0,360.8,158.7l-8.379-4.839A2.374,2.374,0,0,0,351.249,153.531Z" transform="translate(-310.306 -99.592)" fill="#fff"/>
          <path id="Trazado_81496" data-name="Trazado 81496" d="M347.013,168.555a2.8,2.8,0,0,1-1.4-.4l-25.3-14.607a4.3,4.3,0,0,1-1.825-4.766l6.948-22.767a2.745,2.745,0,0,1,1.584-1.826,2.61,2.61,0,0,1,2.293.229l25.3,14.606a4.3,4.3,0,0,1,1.825,4.768l-6.949,22.766a2.74,2.74,0,0,1-1.583,1.826A2.414,2.414,0,0,1,347.013,168.555Zm-1.173-.8a2.158,2.158,0,0,0,1.889.2,2.287,2.287,0,0,0,1.31-1.529l6.949-22.765a3.817,3.817,0,0,0-1.612-4.229l-25.3-14.607a2.163,2.163,0,0,0-1.889-.2,2.286,2.286,0,0,0-1.311,1.529l-6.947,22.766a3.814,3.814,0,0,0,1.611,4.229Z" transform="translate(-318.323 -107.771)" fill="#fff"/>
        </g>
      </g>
      <path id="Trazado_81497" data-name="Trazado 81497" d="M368.408,122.128a1.681,1.681,0,0,1-.831-.227,1.79,1.79,0,0,1-.82-2.192,1.326,1.326,0,0,1,.809-.737,1.581,1.581,0,0,1,1.283.155,1.8,1.8,0,0,1,.821,2.192h0a1.331,1.331,0,0,1-.81.737A1.428,1.428,0,0,1,368.408,122.128Zm-.39-2.761a.975.975,0,0,0-.306.047.864.864,0,0,0-.528.483,1.316,1.316,0,0,0,.624,1.6,1.136,1.136,0,0,0,.9.119.868.868,0,0,0,.528-.483h0a1.32,1.32,0,0,0-.627-1.6A1.216,1.216,0,0,0,368.018,119.368Z" transform="translate(-172.266 -56.798)" fill="#fff"/>
      <path id="Trazado_81498" data-name="Trazado 81498" d="M371.287,123.773a1.68,1.68,0,0,1-.83-.226,1.791,1.791,0,0,1-.82-2.192,1.324,1.324,0,0,1,.809-.738,1.577,1.577,0,0,1,1.283.156,1.793,1.793,0,0,1,.82,2.192h0a1.329,1.329,0,0,1-.809.737A1.428,1.428,0,0,1,371.287,123.773Zm-.39-2.761a1.014,1.014,0,0,0-.306.047.867.867,0,0,0-.528.483,1.315,1.315,0,0,0,.624,1.6,1.136,1.136,0,0,0,.9.119.864.864,0,0,0,.528-.483h0a1.316,1.316,0,0,0-.625-1.6A1.2,1.2,0,0,0,370.9,121.013Z" transform="translate(-171.455 -56.335)" fill="#fff"/>
      <path id="Trazado_81499" data-name="Trazado 81499" d="M375.162,124.465a1.2,1.2,0,0,1-1.762.474,1.554,1.554,0,0,1-.724-1.9,1.205,1.205,0,0,1,1.763-.473A1.552,1.552,0,0,1,375.162,124.465Z" transform="translate(-170.594 -55.82)" fill="#fff"/>
      <g id="Grupo_33094" data-name="Grupo 33094" transform="translate(137.551 83.564)">
        <path id="Trazado_81500" data-name="Trazado 81500" d="M328.59,137.255l-2.793-1.609L322.3,147.1,325.1,148.7Z" transform="translate(-322.303 -135.646)" fill="#fff"/>
        <path id="Trazado_81501" data-name="Trazado 81501" d="M332.611,141.852l-2.793-1.609-2.767,9.065,2.792,1.609Z" transform="translate(-320.965 -134.351)" fill="#fff"/>
        <path id="Trazado_81502" data-name="Trazado 81502" d="M339.209,139.86l-2.792-1.609L331.8,153.377l2.792,1.609Z" transform="translate(-319.628 -134.913)" fill="#fff"/>
        <path id="Trazado_81503" data-name="Trazado 81503" d="M345.779,137.941l-2.793-1.609-6.437,21.092,2.792,1.609Z" transform="translate(-318.29 -135.453)" fill="#fff"/>
      </g>
    </g>
    <g id="Grupo_33102" data-name="Grupo 33102" transform="translate(289.774 281.146)">
      <path id="Trazado_81504" data-name="Trazado 81504" d="M296.224,330.626a12.069,12.069,0,0,1-5.908-1.412l-39.723-22.932c-1.647-.951-2.554-2.239-2.554-3.625s.907-2.673,2.554-3.625l69-39.837a13.079,13.079,0,0,1,11.817,0l39.723,22.934c1.647.951,2.554,2.239,2.554,3.624s-.907,2.674-2.554,3.626l-69,39.836A12.082,12.082,0,0,1,296.224,330.626ZM325.5,258.512a11.305,11.305,0,0,0-5.537,1.324l-69,39.837a3.129,3.129,0,0,0,0,5.967l39.723,22.933a12.243,12.243,0,0,0,11.076,0l69-39.836a3.13,3.13,0,0,0,0-5.969l-39.725-22.934A11.3,11.3,0,0,0,325.5,258.512Z" transform="translate(-248.038 -226.423)" fill="#00223d"/>
      <g id="Grupo_33101" data-name="Grupo 33101" transform="translate(0.564)">
        <path id="Trazado_81505" data-name="Trazado 81505" d="M373.387,275.894h0l-.005-19.045-24.067,3.21-18.021-10.4a12.649,12.649,0,0,0-11.446,0L287.555,268.3l-39.075,5.213V292.9l.015,0a4.062,4.062,0,0,0,2.353,3.2l39.722,22.934a12.649,12.649,0,0,0,11.446,0l69-39.837a4.067,4.067,0,0,0,2.352-3.189l.018,0Z" transform="translate(-248.477 -229.098)" fill="url(#linear-gradient-3)"/>
        <path id="Trazado_81506" data-name="Trazado 81506" d="M371.018,257.618l-39.723-22.934a12.649,12.649,0,0,0-11.446,0l-69,39.836c-3.162,1.825-3.162,4.784,0,6.61l39.722,22.934a12.649,12.649,0,0,0,11.446,0l69-39.836C374.178,262.4,374.178,259.443,371.018,257.618Z" transform="translate(-248.478 -233.315)" fill="url(#linear-gradient-2)"/>
        <path id="Trazado_81507" data-name="Trazado 81507" d="M371.016,257.132l-69,39.836a12.649,12.649,0,0,1-11.446,0l-39.722-22.934a4.384,4.384,0,0,1-2.3-2.727c-.3,1.38.467,2.822,2.3,3.882l39.722,22.934a12.649,12.649,0,0,0,11.446,0l69-39.836c1.835-1.06,2.6-2.5,2.3-3.882A4.382,4.382,0,0,1,371.016,257.132Z" transform="translate(-248.476 -227.375)" fill="#fff"/>
        <g id="Grupo_33096" data-name="Grupo 33096" transform="translate(74.937 44.921)">
          <path id="Trazado_81508" data-name="Trazado 81508" d="M308.828,284.647l-1.881,1.086v-2.171l1.881-1.086Z" transform="translate(-306.947 -264.39)" fill="#fff"/>
          <path id="Trazado_81509" data-name="Trazado 81509" d="M311.9,282.875l-1.88,1.086v-2.171l1.88-1.086Z" transform="translate(-306.083 -264.889)" fill="#fff"/>
          <path id="Trazado_81510" data-name="Trazado 81510" d="M314.967,281.1l-1.881,1.086v-2.171l1.881-1.086Z" transform="translate(-305.218 -265.388)" fill="#fff"/>
          <path id="Trazado_81511" data-name="Trazado 81511" d="M312.457,285.984l-1.88,1.086V284.9l1.88-1.086Z" transform="translate(-305.925 -264.013)" fill="#fff"/>
          <path id="Trazado_81512" data-name="Trazado 81512" d="M315.16,284.424l-1.881,1.086v-2.171l1.881-1.086Z" transform="translate(-305.164 -264.452)" fill="#fff"/>
          <path id="Trazado_81513" data-name="Trazado 81513" d="M324.813,275.418l-1.881,1.086v-2.171l1.881-1.086Z" transform="translate(-302.445 -266.989)" fill="#fff"/>
          <path id="Trazado_81514" data-name="Trazado 81514" d="M333.269,270.535l-1.88,1.086V269.45l1.88-1.086Z" transform="translate(-300.063 -268.364)" fill="#fff"/>
          <path id="Trazado_81515" data-name="Trazado 81515" d="M318.037,279.33l-1.881,1.086v-2.171l1.881-1.086Z" transform="translate(-304.353 -265.887)" fill="#fff"/>
        </g>
        <g id="Grupo_33100" data-name="Grupo 33100" transform="translate(59.349 10.039)">
          <g id="Grupo_33097" data-name="Grupo 33097" transform="translate(0 9.099)">
            <path id="Trazado_81516" data-name="Trazado 81516" d="M297.37,248.247l28.065,16.166-2.586,1.5-28.065-16.166Z" transform="translate(-294.784 -248.247)" fill="#21587b"/>
            <path id="Trazado_81517" data-name="Trazado 81517" d="M295.758,250.3l1.762-1.02,27.091,15.605.823-.477L297.37,248.247l-2.586,1.5Z" transform="translate(-294.784 -248.247)" fill="#fff"/>
          </g>
          <g id="Grupo_33098" data-name="Grupo 33098" transform="translate(7.862 4.55)">
            <path id="Trazado_81518" data-name="Trazado 81518" d="M303.5,244.7l28.065,16.166-2.586,1.5-28.065-16.166Z" transform="translate(-300.919 -244.697)" fill="#21587b"/>
            <path id="Trazado_81519" data-name="Trazado 81519" d="M301.893,246.755l1.762-1.02,27.091,15.605.823-.477L303.5,244.7l-2.586,1.5Z" transform="translate(-300.919 -244.697)" fill="#fff"/>
          </g>
          <g id="Grupo_33099" data-name="Grupo 33099" transform="translate(15.725)">
            <path id="Trazado_81520" data-name="Trazado 81520" d="M309.639,241.148,337.7,257.314l-2.586,1.5-28.065-16.166Z" transform="translate(-307.053 -241.148)" fill="#21587b"/>
            <path id="Trazado_81521" data-name="Trazado 81521" d="M308.027,243.205l1.763-1.02,27.091,15.605.823-.476L309.64,241.148l-2.586,1.5Z" transform="translate(-307.053 -241.148)" fill="#fff"/>
          </g>
        </g>
      </g>
      <path id="Trazado_81522" data-name="Trazado 81522" d="M291.907,289.183a4.109,4.109,0,0,1-2.02-.473l-26.725-15.43a1.6,1.6,0,0,1-.907-1.366,2.081,2.081,0,0,1,1.211-1.687l26.116-15.077a5.039,5.039,0,0,1,4.588-.177L320.9,270.4a1.6,1.6,0,0,1,.907,1.366,2.079,2.079,0,0,1-1.211,1.687l-26.116,15.079A5.258,5.258,0,0,1,291.907,289.183Zm-1.669-1.078a4.4,4.4,0,0,0,3.887-.177l26.116-15.079c.541-.311.863-.715.863-1.08a.951.951,0,0,0-.559-.76l-26.726-15.43a4.4,4.4,0,0,0-3.887.176l-26.116,15.079c-.547.317-.863.71-.864,1.08a.96.96,0,0,0,.56.761Z" transform="translate(-244.034 -227.348)" fill="#21587b"/>
      <path id="Trazado_81523" data-name="Trazado 81523" d="M280.8,297.73,258.749,285a2.284,2.284,0,0,1-.952-1.821v-1.637c0-.7.427-1.025.952-.722L280.8,293.55a2.284,2.284,0,0,1,.952,1.821v1.638C281.756,297.71,281.329,298.033,280.8,297.73Z" transform="translate(-245.289 -219.968)" fill="#21587b"/>
    </g>
    <g id="Grupo_33109" data-name="Grupo 33109" transform="translate(99.852 172.311)">
      <path id="Trazado_81524" data-name="Trazado 81524" d="M148.16,245.854a12.211,12.211,0,0,1-5.969-1.424l-39.722-22.935c-1.687-.974-2.617-2.3-2.617-3.73s.931-2.757,2.617-3.73l69-39.837a13.205,13.205,0,0,1,11.936,0l39.725,22.934c1.687.975,2.617,2.3,2.616,3.731s-.929,2.756-2.616,3.73l-69,39.837A12.213,12.213,0,0,1,148.16,245.854Zm29.277-72.113a11.194,11.194,0,0,0-5.478,1.309l-69,39.837a3.012,3.012,0,0,0,0,5.757l39.722,22.934a12.117,12.117,0,0,0,10.957,0l69-39.836a3.013,3.013,0,0,0,0-5.758l-39.723-22.934A11.191,11.191,0,0,0,177.436,173.741Z" transform="translate(-99.852 -141.532)" fill="#00223d"/>
      <g id="Grupo_33108" data-name="Grupo 33108" transform="translate(0.686)">
        <path id="Trazado_81525" data-name="Trazado 81525" d="M225.3,190.976h0l-.006-19.045-24.067,3.211-18.021-10.4a12.649,12.649,0,0,0-11.446,0l-32.291,18.644-39.075,5.212v19.391l.014,0a4.062,4.062,0,0,0,2.353,3.2l39.723,22.934a12.65,12.65,0,0,0,11.446,0l69-39.837a4.061,4.061,0,0,0,2.352-3.189l.019,0Z" transform="translate(-100.387 -144.18)" fill="url(#linear-gradient-3)"/>
        <path id="Trazado_81526" data-name="Trazado 81526" d="M222.926,172.7,183.2,149.766a12.649,12.649,0,0,0-11.446,0l-69,39.836c-3.161,1.825-3.161,4.784,0,6.609l39.723,22.934a12.649,12.649,0,0,0,11.446,0l69-39.836C226.087,177.484,226.087,174.525,222.926,172.7Z" transform="translate(-100.387 -148.397)" fill="url(#linear-gradient-2)"/>
        <path id="Trazado_81527" data-name="Trazado 81527" d="M222.925,172.214l-69,39.836a12.649,12.649,0,0,1-11.446,0l-39.723-22.934a4.388,4.388,0,0,1-2.3-2.727c-.3,1.38.467,2.822,2.3,3.882l39.723,22.934a12.649,12.649,0,0,0,11.446,0l69-39.836c1.835-1.06,2.6-2.5,2.3-3.882A4.388,4.388,0,0,1,222.925,172.214Z" transform="translate(-100.386 -142.457)" fill="#fff"/>
        <g id="Grupo_33103" data-name="Grupo 33103" transform="translate(74.937 44.921)">
          <path id="Trazado_81528" data-name="Trazado 81528" d="M160.737,199.729l-1.881,1.086v-2.171l1.881-1.086Z" transform="translate(-158.857 -179.472)" fill="#fff"/>
          <path id="Trazado_81529" data-name="Trazado 81529" d="M163.807,197.956l-1.88,1.086v-2.171l1.88-1.086Z" transform="translate(-157.992 -179.971)" fill="#fff"/>
          <path id="Trazado_81530" data-name="Trazado 81530" d="M166.876,196.184,165,197.27V195.1l1.881-1.086Z" transform="translate(-157.127 -180.47)" fill="#fff"/>
          <path id="Trazado_81531" data-name="Trazado 81531" d="M164.367,201.066l-1.88,1.086v-2.171l1.88-1.086Z" transform="translate(-157.834 -179.095)" fill="#fff"/>
          <path id="Trazado_81532" data-name="Trazado 81532" d="M167.07,199.506l-1.881,1.086V198.42l1.881-1.086Z" transform="translate(-157.073 -179.535)" fill="#fff"/>
          <path id="Trazado_81533" data-name="Trazado 81533" d="M176.723,190.5l-1.881,1.086v-2.171l1.881-1.086Z" transform="translate(-154.354 -182.071)" fill="#fff"/>
          <path id="Trazado_81534" data-name="Trazado 81534" d="M185.178,185.617,183.3,186.7v-2.171l1.88-1.086Z" transform="translate(-151.973 -183.446)" fill="#fff"/>
          <path id="Trazado_81535" data-name="Trazado 81535" d="M169.946,194.412l-1.881,1.086v-2.171l1.881-1.086Z" transform="translate(-156.263 -180.969)" fill="#fff"/>
        </g>
        <g id="Grupo_33107" data-name="Grupo 33107" transform="translate(59.348 10.039)">
          <g id="Grupo_33104" data-name="Grupo 33104" transform="translate(0 9.099)">
            <path id="Trazado_81536" data-name="Trazado 81536" d="M149.28,163.329,177.345,179.5l-2.586,1.5-28.065-16.166Z" transform="translate(-146.694 -163.329)" fill="#21587b"/>
            <path id="Trazado_81537" data-name="Trazado 81537" d="M147.668,165.387l1.763-1.02,27.091,15.605.823-.476L149.28,163.329l-2.586,1.5Z" transform="translate(-146.694 -163.329)" fill="#fff"/>
          </g>
          <g id="Grupo_33105" data-name="Grupo 33105" transform="translate(7.862 4.55)">
            <path id="Trazado_81538" data-name="Trazado 81538" d="M155.414,159.78l28.065,16.166-2.586,1.5-28.065-16.166Z" transform="translate(-152.828 -159.779)" fill="#21587b"/>
            <path id="Trazado_81539" data-name="Trazado 81539" d="M153.8,161.837l1.762-1.02,27.091,15.605.823-.476-28.065-16.166-2.586,1.5Z" transform="translate(-152.828 -159.779)" fill="#fff"/>
          </g>
          <g id="Grupo_33106" data-name="Grupo 33106" transform="translate(15.725)">
            <path id="Trazado_81540" data-name="Trazado 81540" d="M161.549,156.23,189.614,172.4l-2.586,1.5-28.065-16.166Z" transform="translate(-158.963 -156.23)" fill="#21587b"/>
            <path id="Trazado_81541" data-name="Trazado 81541" d="M159.937,158.287l1.763-1.02,27.091,15.605.823-.477L161.549,156.23l-2.586,1.5Z" transform="translate(-158.963 -156.23)" fill="#fff"/>
          </g>
        </g>
      </g>
      <path id="Trazado_81542" data-name="Trazado 81542" d="M143.816,204.265a4.11,4.11,0,0,1-2.02-.473l-26.725-15.43a1.6,1.6,0,0,1-.907-1.366,2.081,2.081,0,0,1,1.211-1.687l26.116-15.077a5.035,5.035,0,0,1,4.588-.177l26.725,15.43a1.6,1.6,0,0,1,.907,1.366,2.079,2.079,0,0,1-1.211,1.687l-26.116,15.079A5.259,5.259,0,0,1,143.816,204.265Zm-1.669-1.078a4.4,4.4,0,0,0,3.887-.177l26.116-15.079c.541-.311.864-.715.864-1.08a.952.952,0,0,0-.56-.76l-26.725-15.43a4.406,4.406,0,0,0-3.888.176l-26.116,15.079c-.547.317-.861.71-.863,1.08a.959.959,0,0,0,.559.761Z" transform="translate(-95.821 -142.43)" fill="#21587b"/>
      <path id="Trazado_81543" data-name="Trazado 81543" d="M132.713,212.812,110.66,200.079a2.281,2.281,0,0,1-.954-1.821v-1.637c0-.7.427-1.025.954-.722l22.053,12.733a2.281,2.281,0,0,1,.954,1.821v1.638C133.666,212.793,133.24,213.115,132.713,212.812Z" transform="translate(-97.077 -135.05)" fill="#21587b"/>
    </g>
  </g>
</svg>
