<svg xmlns="http://www.w3.org/2000/svg" xmlns:xlink="http://www.w3.org/1999/xlink" width="319.022" height="284.731" viewBox="0 0 319.022 284.731">
  <defs>
    <linearGradient id="linear-gradient" x1="-154.708" y1="-214.835" x2="-154.667" y2="-214.835" gradientUnits="objectBoundingBox">
      <stop offset="0" stop-color="#c0bff6"/>
      <stop offset="0.294" stop-color="#c4c3f6"/>
      <stop offset="0.64" stop-color="#d2d2f9"/>
      <stop offset="1" stop-color="#e9e9fd"/>
    </linearGradient>
    <linearGradient id="linear-gradient-2" x1="-164.806" y1="-214.823" x2="-164.765" y2="-214.823" xlink:href="#linear-gradient"/>
    <linearGradient id="linear-gradient-3" x1="-140.052" y1="-101.723" x2="-140.024" y2="-101.723" gradientUnits="objectBoundingBox">
      <stop offset="0" stop-color="#fff"/>
      <stop offset="1" stop-color="#d2e6ee"/>
    </linearGradient>
    <linearGradient id="linear-gradient-4" x1="-97.017" y1="-80.64" x2="-97.001" y2="-80.64" xlink:href="#linear-gradient-3"/>
    <linearGradient id="linear-gradient-5" x1="-114.027" y1="-116.683" x2="-114.016" y2="-116.683" xlink:href="#linear-gradient-3"/>
    <linearGradient id="linear-gradient-6" x1="-57.338" y1="-69.043" x2="-57.333" y2="-69.03" xlink:href="#linear-gradient-3"/>
    <linearGradient id="linear-gradient-7" x1="-453.767" y1="-600.847" x2="-453.792" y2="-600.927" gradientUnits="objectBoundingBox">
      <stop offset="0" stop-color="#fff"/>
      <stop offset="1" stop-color="#231f20"/>
    </linearGradient>
    <linearGradient id="linear-gradient-8" x1="-730.798" y1="-74.278" x2="-730.742" y2="-74.278" xlink:href="#linear-gradient-3"/>
    <linearGradient id="linear-gradient-9" x1="-450.123" y1="-598.102" x2="-450.149" y2="-598.182" xlink:href="#linear-gradient-7"/>
    <linearGradient id="linear-gradient-10" x1="-724.912" y1="-73.844" x2="-724.856" y2="-73.845" xlink:href="#linear-gradient-3"/>
    <clipPath id="clip-path">
      <path id="Trazado_118461" data-name="Trazado 118461" d="M1864.191,4012.249l-71.18,41.1,8.827,52.038,71.133-41.069Z" transform="translate(-1793.011 -4012.249)" fill="none"/>
    </clipPath>
    <linearGradient id="linear-gradient-11" x1="-41.415" y1="-51.384" x2="-41.405" y2="-51.384" xlink:href="#linear-gradient"/>
    <linearGradient id="linear-gradient-12" x1="-156.86" y1="-214.714" x2="-156.82" y2="-214.714" xlink:href="#linear-gradient"/>
    <linearGradient id="linear-gradient-13" x1="-57.668" y1="-34.811" x2="-57.653" y2="-34.811" xlink:href="#linear-gradient"/>
    <linearGradient id="linear-gradient-14" x1="-40.542" y1="-51.768" x2="-40.532" y2="-51.768" xlink:href="#linear-gradient-3"/>
    <linearGradient id="linear-gradient-15" x1="-155.443" y1="-217.13" x2="-155.402" y2="-217.13" xlink:href="#linear-gradient"/>
    <clipPath id="clip-path-2">
      <path id="Trazado_118462" data-name="Trazado 118462" d="M1706.755,4012.249l71.181,41.1-8.827,52.038-71.133-41.069Z" transform="translate(-1697.976 -4012.249)" fill="none"/>
    </clipPath>
    <linearGradient id="linear-gradient-16" x1="-40.932" y1="-51.384" x2="-40.922" y2="-51.384" xlink:href="#linear-gradient"/>
    <linearGradient id="linear-gradient-17" x1="-158.057" y1="-214.717" x2="-158.016" y2="-214.717" xlink:href="#linear-gradient"/>
  </defs>
  <g id="Grupo_63414" data-name="Grupo 63414" transform="translate(-956.667 -12899.5)">
    <g id="Grupo_55635" data-name="Grupo 55635" transform="translate(-678.728 9016.366)">
      <g id="Group_39011" data-name="Group 39011" transform="translate(1658.371 3962.069)">
        <g id="Group_34951" data-name="Group 34951">
          <g id="Group_34950" data-name="Group 34950">
            <g id="Group_34875" data-name="Group 34875">
              <g id="Group_34865" data-name="Group 34865" transform="translate(3.13 42.916)">
                <path id="Path_85818" data-name="Path 85818" d="M1702.827,4054.2a6.561,6.561,0,0,1-3.275-.874l-37.724-21.782a1.9,1.9,0,0,1,0-3.284l68.258-39.412a.369.369,0,0,1,.374,0l.318.183,40.494,23.379a1.9,1.9,0,0,1,0,3.283l-65.171,37.625A6.568,6.568,0,0,1,1702.827,4054.2Zm27.447-64.582-68.068,39.3a1.139,1.139,0,0,0,0,1.972l37.725,21.784a5.921,5.921,0,0,0,5.795,0l65.171-37.626a1.139,1.139,0,0,0,0-1.972Z" transform="translate(-1660.88 -3988.801)" fill="#42e8e0"/>
              </g>
              <g id="Group_34873" data-name="Group 34873" transform="translate(0 30.063)">
                <g id="Group_34872" data-name="Group 34872">
                  <g id="Group_34871" data-name="Group 34871">
                    <g id="Group_34870" data-name="Group 34870">
                      <g id="Group_34869" data-name="Group 34869">
                        <path id="Path_85819" data-name="Path 85819" d="M1776.782,4003.44l-3.96,2.068-39.707-22.924a2.879,2.879,0,0,0-2.592.106l-68.485,39.539c-.656-.367-3.645-1.8-3.645-1.8l1.451,3.776h0a.862.862,0,0,0,.405.451l41.82,24.146a2.88,2.88,0,0,0,2.592-.108l70.082-40.461a1.267,1.267,0,0,0,.588-.624h0Z" transform="translate(-1658.365 -3977.549)" fill="#00223d"/>
                        <path id="Path_85820" data-name="Path 85820" d="M1776.175,4005.039l-71.828,41.466a2.958,2.958,0,0,1-2.657.112l-42.86-24.746c-.681-.393-.595-1.079.191-1.534l71.824-41.468a2.952,2.952,0,0,1,2.656-.109l42.86,24.745C1777.047,4003.9,1776.961,4004.585,1776.175,4005.039Z" transform="translate(-1658.371 -3978.496)" fill="#d2e6ee"/>
                        <path id="Path_85821" data-name="Path 85821" d="M1776.172,3999.575l-71.824,41.467a2.96,2.96,0,0,1-2.657.111l-42.86-24.746a.875.875,0,0,1-.417-.462.723.723,0,0,0,.417.873l42.86,24.746a2.961,2.961,0,0,0,2.657-.111l71.824-41.468c.529-.305.732-.716.607-1.071A1.278,1.278,0,0,1,1776.172,3999.575Z" transform="translate(-1658.367 -3973.447)" fill="#fff"/>
                        <path id="Path_85822" data-name="Path 85822" d="M1677.867,4026.005v-.789c0-.075.045-.108.1-.076l2.778,1.6a.252.252,0,0,1,.1.194v.788c0,.074-.046.109-.1.077l-2.778-1.6A.24.24,0,0,1,1677.867,4026.005Z" transform="translate(-1653.55 -3966.966)" fill="#2842a2"/>
                        <path id="Path_85823" data-name="Path 85823" d="M1681.2,4027.928v-.789c0-.075.046-.108.1-.076l2.779,1.6a.25.25,0,0,1,.1.193v.788c0,.075-.046.11-.1.078l-2.779-1.6A.248.248,0,0,1,1681.2,4027.928Z" transform="translate(-1652.727 -3966.491)" fill="#2842a2"/>
                        <g id="Group_34867" data-name="Group 34867" transform="translate(24.396 14.363)">
                          <path id="Path_85824" data-name="Path 85824" d="M1678.162,4024.648l59.686-34.463a1.28,1.28,0,0,1,1.286,0l21.254,12.3a.46.46,0,0,1,0,.793l-59.657,34.449a1.292,1.292,0,0,1-1.285,0l-21.282-12.282a.457.457,0,0,1,0-.793Z" transform="translate(-1677.929 -3990.011)" fill="#d2e1f1"/>
                          <path id="Path_85825" data-name="Path 85825" d="M1678.163,4025.441l.213.125,59.473-34.336a1.28,1.28,0,0,1,1.286,0l21.04,12.173.213-.125a.46.46,0,0,0,.165-.629.454.454,0,0,0-.165-.164l-21.253-12.3a1.28,1.28,0,0,0-1.286,0l-59.686,34.459a.458.458,0,0,0,0,.8Z" transform="translate(-1677.93 -3990.011)" fill="#727997"/>
                          <g id="Group_34866" data-name="Group 34866" transform="translate(3.218 1.962)">
                            <path id="Path_85826" data-name="Path 85826" d="M1739.728,3992.915l-54.982,31.742-2.725-1.087,55.4-31.984Z" transform="translate(-1680.137 -3991.584)" fill="#00223d"/>
                            <path id="Path_85827" data-name="Path 85827" d="M1742.916,3995.531l-48.629,28.076-2.3-1.332,48.629-28.076Z" transform="translate(-1677.674 -3990.938)" fill="#24126a"/>
                            <path id="Path_85828" data-name="Path 85828" d="M1747.578,3997.236l-57.256,33.052-2.3-1.33,57.256-33.052Z" transform="translate(-1678.654 -3990.516)" fill="#00223d"/>
                            <path id="Path_85829" data-name="Path 85829" d="M1750.529,3998.939l-57.256,33.052-2.3-1.331,57.256-33.052Z" transform="translate(-1677.924 -3990.094)" fill="#00223d"/>
                            <path id="Path_85830" data-name="Path 85830" d="M1753.48,4000.643l-57.256,33.052-2.3-1.331,57.256-33.052Z" transform="translate(-1677.195 -3989.673)" fill="#24126a"/>
                            <path id="Path_85831" data-name="Path 85831" d="M1685.125,4018.365l-2.3,1.331-2.31-1.331,2.3-1.331Z" transform="translate(-1680.51 -3985.292)" fill="#00223d"/>
                            <path id="Path_85832" data-name="Path 85832" d="M1698.8,4016.756l-11.451,6.611-2.305-1.331,11.533-6.66Z" transform="translate(-1679.389 -3985.701)" fill="#00223d"/>
                          </g>
                        </g>
                        <g id="Group_34868" data-name="Group 34868" transform="translate(32.124 16.324)">
                          <path id="Path_85833" data-name="Path 85833" d="M1697.879,4008.816l16.089-9.292a.694.694,0,0,0,0-1.315l-11-6.354a2.522,2.522,0,0,0-2.277,0l-16.09,9.292a.695.695,0,0,0,0,1.315l11.006,6.354A2.525,2.525,0,0,0,1697.879,4008.816Z" transform="translate(-1684.127 -3991.584)" fill="url(#linear-gradient)"/>
                          <path id="Path_85834" data-name="Path 85834" d="M1684.6,4001.686l16.089-9.291a2.519,2.519,0,0,1,2.278,0l11,6.353a.99.99,0,0,1,.4.388c.167-.316.04-.675-.4-.927l-11-6.354a2.522,2.522,0,0,0-2.278,0l-16.089,9.292c-.435.25-.561.609-.4.927A.992.992,0,0,1,1684.6,4001.686Z" transform="translate(-1684.126 -3991.584)" fill="#727997"/>
                        </g>
                      </g>
                    </g>
                  </g>
                </g>
              </g>
              <g id="Group_34874" data-name="Group 34874" transform="translate(34.497)">
                <path id="Path_85835" data-name="Path 85835" d="M1769.834,4009.281l-9.085-53.866.729-.307-1.1-.624v.006a.788.788,0,0,0-.846.057l-72.562,41.894a2.048,2.048,0,0,0-.942,1.844l9.151,54.3a.68.68,0,0,0,.382.553h0l1.074.624.185-1-.061.017,72.123-41.64A2.05,2.05,0,0,0,1769.834,4009.281Z" transform="translate(-1686.029 -3954.393)" fill="#00223d"/>
                <path id="Path_85836" data-name="Path 85836" d="M1687.387,3989.387l-1.194-.527a1.637,1.637,0,0,0-.153.9l9.151,54.3a.682.682,0,0,0,.382.553h0l1.074.624.185-1-.061.017,3.649-2.106Z" transform="translate(-1686.029 -3945.871)" fill="#00223d"/>
                <path id="Path_85837" data-name="Path 85837" d="M1769.8,4011.65l-72.561,41.894c-.56.323-1.04.136-1.139-.444l-9.151-54.295a2.045,2.045,0,0,1,.943-1.842l72.561-41.894c.56-.322,1.04-.137,1.139.443l9.151,54.295A2.054,2.054,0,0,1,1769.8,4011.65Z" transform="translate(-1685.802 -3954.265)" fill="#37a3a5"/>
              </g>
            </g>
            <g id="Group_34886" data-name="Group 34886" transform="translate(175.375)">
              <g id="Group_34876" data-name="Group 34876" transform="translate(4.967 42.924)">
                <path id="Path_85838" data-name="Path 85838" d="M1872.357,4054.2a6.562,6.562,0,0,1-3.275-.874l-65.171-37.625a1.895,1.895,0,0,1,0-3.283l40.811-23.563a.374.374,0,0,1,.374,0l68.257,39.413a1.9,1.9,0,0,1,0,3.284l-37.716,21.772A6.565,6.565,0,0,1,1872.357,4054.2Zm-27.44-64.582-.125.074-40.494,23.379a1.138,1.138,0,0,0-.417,1.556,1.126,1.126,0,0,0,.417.416l65.165,37.63h0a5.921,5.921,0,0,0,5.795,0l37.724-21.78a1.14,1.14,0,0,0,0-1.972Z" transform="translate(-1802.963 -3988.808)" fill="#42e8e0"/>
              </g>
              <g id="Group_34884" data-name="Group 34884" transform="translate(0.988 30.062)">
                <g id="Group_34883" data-name="Group 34883">
                  <g id="Group_34882" data-name="Group 34882">
                    <g id="Group_34881" data-name="Group 34881">
                      <g id="Group_34880" data-name="Group 34880">
                        <path id="Path_85839" data-name="Path 85839" d="M1799.8,4003.44l3.959,2.068,39.708-22.924a2.879,2.879,0,0,1,2.592.106l68.485,39.539c.655-.367,3.644-1.8,3.644-1.8l-1.449,3.776h0a.866.866,0,0,1-.406.451l-41.82,24.146a2.883,2.883,0,0,1-2.593-.108l-70.082-40.461a1.257,1.257,0,0,1-.588-.624h0Z" transform="translate(-1799.765 -3977.549)" fill="#00223d"/>
                        <path id="Path_85840" data-name="Path 85840" d="M1800.418,4005.039l71.829,41.466a2.958,2.958,0,0,0,2.657.112l42.861-24.746c.681-.393.595-1.079-.191-1.534l-71.824-41.468a2.952,2.952,0,0,0-2.657-.109l-42.86,24.745C1799.552,4003.9,1799.637,4004.585,1800.418,4005.039Z" transform="translate(-1799.773 -3978.496)" fill="#d2e6ee"/>
                        <path id="Path_85841" data-name="Path 85841" d="M1800.423,3999.575l71.824,41.467a2.96,2.96,0,0,0,2.657.111l42.86-24.746a.884.884,0,0,0,.417-.462.725.725,0,0,1-.417.873l-42.86,24.746a2.961,2.961,0,0,1-2.657-.111l-71.824-41.468c-.529-.305-.732-.716-.608-1.071A1.268,1.268,0,0,0,1800.423,3999.575Z" transform="translate(-1799.771 -3973.447)" fill="#fff"/>
                        <path id="Path_85842" data-name="Path 85842" d="M1875.841,4026.005v-.789c0-.075-.045-.108-.1-.076l-2.778,1.6a.241.241,0,0,0-.1.194v.788c0,.074.045.109.1.077l2.778-1.6A.243.243,0,0,0,1875.841,4026.005Z" transform="translate(-1781.702 -3966.965)" fill="#21587b"/>
                        <path id="Path_85843" data-name="Path 85843" d="M1872.511,4027.928v-.789c0-.075-.045-.108-.1-.076l-2.777,1.6a.238.238,0,0,0-.1.193v.788c0,.075.045.11.1.078l2.777-1.6A.244.244,0,0,0,1872.511,4027.928Z" transform="translate(-1782.525 -3966.49)" fill="#21587b"/>
                        <g id="Group_34878" data-name="Group 34878" transform="translate(11.37 14.363)">
                          <path id="Path_85844" data-name="Path 85844" d="M1891.346,4024.648l-59.686-34.463a1.279,1.279,0,0,0-1.286,0l-21.255,12.3a.458.458,0,0,0,0,.793l59.658,34.444a1.289,1.289,0,0,0,1.285,0l21.283-12.282a.459.459,0,0,0,.161-.627A.464.464,0,0,0,1891.346,4024.648Z" transform="translate(-1808.889 -3990.011)" fill="#d2e1f1"/>
                          <path id="Path_85845" data-name="Path 85845" d="M1891.346,4025.44l-.214.125-59.473-34.335a1.28,1.28,0,0,0-1.286,0l-21.041,12.173-.213-.125a.459.459,0,0,1-.168-.626.45.45,0,0,1,.168-.167l21.254-12.3a1.282,1.282,0,0,1,1.286,0l59.687,34.46a.457.457,0,0,1,.166.625A.451.451,0,0,1,1891.346,4025.44Z" transform="translate(-1808.889 -3990.01)" fill="#727997"/>
                          <g id="Group_34877" data-name="Group 34877" transform="translate(3.19 1.962)">
                            <path id="Path_85846" data-name="Path 85846" d="M1824.829,3992.915l54.979,31.742,2.725-1.087-55.4-31.984Z" transform="translate(-1808.138 -3991.584)" fill="#00223d"/>
                            <path id="Path_85847" data-name="Path 85847" d="M1820.3,3995.531l48.629,28.076,2.305-1.332L1822.6,3994.2Z" transform="translate(-1809.259 -3990.938)" fill="#24126a"/>
                            <path id="Path_85848" data-name="Path 85848" d="M1817.347,3997.236l57.256,33.052,2.3-1.33-57.256-33.052Z" transform="translate(-1809.988 -3990.516)" fill="#00223d"/>
                            <path id="Path_85849" data-name="Path 85849" d="M1814.4,3998.939l57.256,33.052,2.305-1.331-57.256-33.052Z" transform="translate(-1810.718 -3990.094)" fill="#00223d"/>
                            <path id="Path_85850" data-name="Path 85850" d="M1811.447,4000.643l57.256,33.052,2.3-1.331-57.256-33.052Z" transform="translate(-1811.447 -3989.673)" fill="#24126a"/>
                            <path id="Path_85851" data-name="Path 85851" d="M1868.909,4018.365l2.3,1.331,2.3-1.331-2.3-1.331Z" transform="translate(-1797.24 -3985.292)" fill="#00223d"/>
                            <path id="Path_85852" data-name="Path 85852" d="M1857.045,4016.756l11.451,6.611,2.3-1.331-11.533-6.66Z" transform="translate(-1800.173 -3985.701)" fill="#00223d"/>
                          </g>
                        </g>
                        <g id="Group_34879" data-name="Group 34879" transform="translate(56.017 16.324)">
                          <path id="Path_85853" data-name="Path 85853" d="M1861.247,4008.816l-16.089-9.292a.693.693,0,0,1,0-1.315l11-6.354a2.522,2.522,0,0,1,2.278,0l16.089,9.292a.694.694,0,0,1,0,1.315l-11,6.354A2.522,2.522,0,0,1,1861.247,4008.816Z" transform="translate(-1844.685 -3991.583)" fill="url(#linear-gradient-2)"/>
                          <path id="Path_85854" data-name="Path 85854" d="M1874.528,4001.686l-16.089-9.291a2.507,2.507,0,0,0-2.279,0l-11,6.353a.972.972,0,0,0-.4.388c-.166-.316-.039-.675.4-.927l11-6.354a2.513,2.513,0,0,1,2.279,0l16.089,9.292c.434.25.562.609.4.927A1,1,0,0,0,1874.528,4001.686Z" transform="translate(-1844.684 -3991.583)" fill="#727997"/>
                        </g>
                      </g>
                    </g>
                  </g>
                </g>
              </g>
              <g id="Group_34885" data-name="Group 34885">
                <path id="Path_85855" data-name="Path 85855" d="M1799.9,4009.281l9.079-53.866-.729-.307,1.1-.624v.006a.789.789,0,0,1,.846.057l72.561,41.894a2.048,2.048,0,0,1,.943,1.844l-9.156,54.292a.683.683,0,0,1-.383.552h0l-1.074.624-.183-1,.061.018-72.123-41.64A2.048,2.048,0,0,1,1799.9,4009.281Z" transform="translate(-1798.755 -3954.393)" fill="#00223d"/>
                <path id="Path_85856" data-name="Path 85856" d="M1868.583,3989.387l1.192-.527a1.639,1.639,0,0,1,.154.9l-9.151,54.3a.683.683,0,0,1-.383.553h0l-1.074.624-.183-1,.061.017-3.649-2.106Z" transform="translate(-1784.994 -3945.871)" fill="#00223d"/>
                <path id="Path_85857" data-name="Path 85857" d="M1799.926,4011.65l72.562,41.894c.56.323,1.04.136,1.137-.444l9.151-54.295a2.047,2.047,0,0,0-.942-1.842l-72.562-41.894c-.56-.322-1.039-.137-1.138.443l-9.151,54.292A2.051,2.051,0,0,0,1799.926,4011.65Z" transform="translate(-1798.98 -3954.265)" fill="#37a3a5"/>
              </g>
            </g>
            <path id="Path_86248" data-name="Path 86248" d="M1694.473,4060.725l2.346,1.354,2.346-1.354-2.346-1.354Z" transform="translate(-1649.445 -3928.438)" fill="#00223d"/>
            <path id="Path_86249" data-name="Path 86249" d="M1689.861,4063.387l4.864,2.812,2.346-1.355-4.864-2.812Z" transform="translate(-1650.585 -3927.779)" fill="#00223d"/>
          </g>
        </g>
        <g id="Group_33035" data-name="Group 33035" transform="translate(104.935 17.744)">
          <g id="Group_33032" data-name="Group 33032">
            <g id="Group_33019" data-name="Group 33019" transform="translate(51.486 67.627)">
              <path id="Path_81219" data-name="Path 81219" d="M1819.758,4022.84l-.04,13.937-35.934,20.883.04-13.937Z" transform="translate(-1783.784 -4022.84)" fill="url(#linear-gradient-3)"/>
            </g>
            <path id="Path_81220" data-name="Path 81220" d="M1794.03,4045.475l-.04,13.938-51.486-29.726.04-13.938Z" transform="translate(-1742.504 -3956.966)" fill="url(#linear-gradient-4)"/>
            <g id="Group_33020" data-name="Group 33020" transform="translate(2.73 64.119)">
              <path id="Path_81221" data-name="Path 81221" d="M1790.758,4046.541l-.031,7.343a.422.422,0,0,1-.634.364l-45.188-26.089a.425.425,0,0,1-.212-.367l.031-7.344a.423.423,0,0,1,.424-.42.431.431,0,0,1,.209.057l45.188,26.089A.422.422,0,0,1,1790.758,4046.541Z" transform="translate(-1744.693 -4020.027)" fill="#21587b"/>
              <path id="Path_81222" data-name="Path 81222" d="M1745.591,4026.765l.021-4.769a.422.422,0,0,1,.422-.421.416.416,0,0,1,.212.057l42.959,24.8a.421.421,0,0,1,.212.366l-.021,4.769a.422.422,0,0,1-.424.421.431.431,0,0,1-.209-.057l-42.959-24.8A.422.422,0,0,1,1745.591,4026.765Z" transform="translate(-1744.471 -4019.645)" fill="url(#linear-gradient-5)"/>
            </g>
            <g id="Group_33021" data-name="Group 33021" transform="translate(0.04 37.9)">
              <path id="Path_81223" data-name="Path 81223" d="M1829.957,4028.732l-35.933,20.882-51.488-29.726,35.934-20.883Z" transform="translate(-1742.536 -3999.006)" fill="url(#linear-gradient-6)"/>
            </g>
            <path id="Path_81224" data-name="Path 81224" d="M1774.281,4029.6a3.129,3.129,0,0,1,2.825,0,.862.862,0,0,1,0,1.632,3.129,3.129,0,0,1-2.825,0A.862.862,0,0,1,1774.281,4029.6Z" transform="translate(-1734.792 -3953.625)" fill="#37a3a5"/>
            <path id="Path_81225" data-name="Path 81225" d="M1778.074,4031.776a3.123,3.123,0,0,1,2.826,0,.861.861,0,0,1,0,1.631,3.126,3.126,0,0,1-2.826,0A.861.861,0,0,1,1778.074,4031.776Z" transform="translate(-1733.854 -3953.087)" fill="#37a3a5"/>
            <path id="Path_81226" data-name="Path 81226" d="M1782.454,4034.265a3.12,3.12,0,0,1,2.825,0,.861.861,0,0,1,0,1.631,3.12,3.12,0,0,1-2.825,0A.861.861,0,0,1,1782.454,4034.265Z" transform="translate(-1732.771 -3952.472)" fill="#37a3a5"/>
            <path id="Path_81227" data-name="Path 81227" d="M1766.108,4024.919a3.127,3.127,0,0,1,2.827,0,.861.861,0,0,1,0,1.631,3.13,3.13,0,0,1-2.827,0A.861.861,0,0,1,1766.108,4024.919Z" transform="translate(-1736.813 -3954.783)" fill="#ebf4fb"/>
            <path id="Path_81228" data-name="Path 81228" d="M1769.9,4027.1a3.124,3.124,0,0,1,2.825,0,.861.861,0,0,1,0,1.631,3.121,3.121,0,0,1-2.825,0A.861.861,0,0,1,1769.9,4027.1Z" transform="translate(-1735.874 -3954.244)" fill="#ebf4fb"/>
            <g id="Group_33024" data-name="Group 33024" transform="translate(69.615 20.454)">
              <path id="Path_81229" data-name="Path 81229" d="M1803.279,4024.509l6.649-4.016-4.017-2.32-6.9,3.935Z" transform="translate(-1798.147 -3976.82)" opacity="0.7" fill="url(#linear-gradient-7)" style="isolation: isolate"/>
              <g id="Group_33023" data-name="Group 33023">
                <path id="Path_81230" data-name="Path 81230" d="M1803.6,3985.923a.976.976,0,0,1-.517.786,2.585,2.585,0,0,1-1.044.349,3.464,3.464,0,0,1-.823,0l-.016,0a2.483,2.483,0,0,1-1.141-.4.946.946,0,0,1-.444-.719l-1.293,44.946a1.154,1.154,0,0,0,.054.324l.026.079a1.555,1.555,0,0,0,.349.541.94.94,0,0,0,.081.07c.026.022.05.048.08.07a2.692,2.692,0,0,0,.377.268,3.555,3.555,0,0,0,.468.222c.05.02.1.036.148.054.126.045.256.084.389.118.048.012.1.026.151.038a4.785,4.785,0,0,0,.551.095h.035a5.155,5.155,0,0,0,.536.031h.168c.145,0,.287-.011.429-.024l.157-.015a5.3,5.3,0,0,0,.551-.093c.145-.035.282-.08.421-.126.053-.017.111-.03.163-.05a3.6,3.6,0,0,0,.531-.246,1.663,1.663,0,0,0,.979-1.37S1803.6,3985.928,1803.6,3985.923Z" transform="translate(-1798.319 -3984.794)" fill="url(#linear-gradient-8)"/>
                <g id="Group_33022" data-name="Group 33022" transform="translate(1.269)">
                  <path id="Path_81231" data-name="Path 81231" d="M1799.932,3985.361a.877.877,0,0,0-.009,1.658,3.16,3.16,0,0,0,2.863,0,.876.876,0,0,0,.009-1.658A3.157,3.157,0,0,0,1799.932,3985.361Z" transform="translate(-1799.337 -3985.018)" fill="#21587b"/>
                </g>
              </g>
            </g>
            <g id="Group_33027" data-name="Group 33027" transform="translate(33.774)">
              <path id="Path_81232" data-name="Path 81232" d="M1774.711,4008.018l6.649-4.017-4.017-2.319-6.9,3.937Z" transform="translate(-1769.371 -3960.444)" opacity="0.7" fill="url(#linear-gradient-9)" style="isolation: isolate"/>
              <g id="Group_33026" data-name="Group 33026">
                <path id="Path_81233" data-name="Path 81233" d="M1774.863,3969.525a.977.977,0,0,1-.518.786,2.6,2.6,0,0,1-1.043.348,3.473,3.473,0,0,1-.824,0l-.016,0a2.513,2.513,0,0,1-1.141-.4.953.953,0,0,1-.444-.72l-1.293,44.946a1.154,1.154,0,0,0,.055.324c.008.026.016.05.026.079a1.537,1.537,0,0,0,.348.542c.025.024.056.049.081.071s.052.049.08.069a2.5,2.5,0,0,0,.376.269,3.868,3.868,0,0,0,.468.223c.05.019.1.037.148.052.126.045.256.085.389.119.049.014.1.027.151.039a5.253,5.253,0,0,0,.551.095.145.145,0,0,1,.036,0c.177.02.355.027.535.03H1773c.145,0,.287-.011.43-.024l.156-.015a5.129,5.129,0,0,0,.551-.095c.145-.033.282-.08.42-.126.053-.018.112-.03.163-.048a3.81,3.81,0,0,0,.53-.247,1.664,1.664,0,0,0,.979-1.374S1774.863,3969.53,1774.863,3969.525Z" transform="translate(-1769.583 -3968.395)" fill="url(#linear-gradient-10)"/>
                <g id="Group_33025" data-name="Group 33025" transform="translate(1.269)">
                  <path id="Path_81234" data-name="Path 81234" d="M1771.2,3968.963a.876.876,0,0,0-.009,1.657,3.156,3.156,0,0,0,2.862,0,.876.876,0,0,0,.009-1.657A3.15,3.15,0,0,0,1771.2,3968.963Z" transform="translate(-1770.601 -3968.619)" fill="#21587b"/>
                </g>
              </g>
            </g>
            <g id="Group_33031" data-name="Group 33031" transform="translate(53.024 73.065)">
              <g id="Group_33028" data-name="Group 33028" transform="translate(0.001)">
                <path id="Path_81235" data-name="Path 81235" d="M1785.305,4046.289a.289.289,0,0,1-.287-.29.284.284,0,0,1,.145-.249l32.6-18.513a.289.289,0,0,1,.286.5l-32.6,18.514A.3.3,0,0,1,1785.305,4046.289Z" transform="translate(-1785.018 -4027.2)" fill="#21587b"/>
              </g>
              <g id="Group_33029" data-name="Group 33029" transform="translate(0 2.213)">
                <path id="Path_81236" data-name="Path 81236" d="M1785.305,4048.063a.288.288,0,0,1-.142-.539l32.6-18.513a.289.289,0,0,1,.286.5l-32.6,18.513A.281.281,0,0,1,1785.305,4048.063Z" transform="translate(-1785.017 -4028.974)" fill="#21587b"/>
              </g>
              <g id="Group_33030" data-name="Group 33030" transform="translate(0 4.426)">
                <path id="Path_81237" data-name="Path 81237" d="M1785.305,4049.837a.288.288,0,0,1-.142-.539l32.6-18.511a.288.288,0,1,1,.286.5l-32.6,18.512A.282.282,0,0,1,1785.305,4049.837Z" transform="translate(-1785.017 -4030.749)" fill="#21587b"/>
              </g>
            </g>
          </g>
        </g>
        <g id="Group_34949" data-name="Group 34949" transform="translate(1.236 67.812)">
          <g id="Group_34929" data-name="Group 34929" transform="translate(162.867)">
            <g id="Group_34911" data-name="Group 34911" transform="translate(14.586 71.308)">
              <path id="Path_86048" data-name="Path 86048" d="M1844.322,4132.476a6.68,6.68,0,0,1-3.331-.89L1802.6,4109.42a1.923,1.923,0,0,1,0-3.33l69.464-40.106a.371.371,0,0,1,.374,0l41.533,23.979a1.924,1.924,0,0,1,0,3.331l-66.322,38.29A6.679,6.679,0,0,1,1844.322,4132.476Zm27.932-65.729-69.276,39.995a1.166,1.166,0,0,0,0,2.018l38.392,22.166a6.021,6.021,0,0,0,5.9,0l66.324-38.291a1.165,1.165,0,0,0,0-2.018Z" transform="translate(-1801.637 -4065.934)" fill="#00223d"/>
            </g>
            <g id="Group_34924" data-name="Group 34924">
              <g id="Group_34923" data-name="Group 34923">
                <g id="Group_34922" data-name="Group 34922">
                  <g id="Group_34916" data-name="Group 34916">
                    <g id="Group_34913" data-name="Group 34913">
                      <path id="Path_86049" data-name="Path 86049" d="M1875.231,4064.626l-9.24-54.819.748-.313-1.123-.641v.006a.8.8,0,0,0-.859.06l-73.847,42.632a2.086,2.086,0,0,0-.959,1.871l9.313,55.253a.693.693,0,0,0,.389.563h0l1.092.63.187-1.02-.062.019,73.4-42.376A2.085,2.085,0,0,0,1875.231,4064.626Z" transform="translate(-1789.941 -4008.762)" fill="#e9e9fd"/>
                      <path id="Path_86050" data-name="Path 86050" d="M1791.324,4044.38l-1.215-.538a1.676,1.676,0,0,0-.156.915l9.313,55.253a.693.693,0,0,0,.389.563h0l1.093.631.187-1.02-.062.019,3.714-2.144Z" transform="translate(-1789.943 -4000.088)" fill="#dee4f0"/>
                      <path id="Path_86051" data-name="Path 86051" d="M1875.2,4067.034l-73.845,42.635c-.57.33-1.058.139-1.159-.451l-9.313-55.253a2.085,2.085,0,0,1,.958-1.871l73.846-42.641c.57-.329,1.058-.138,1.159.451l9.313,55.253A2.083,2.083,0,0,1,1875.2,4067.034Z" transform="translate(-1789.712 -4008.631)" fill="#00223d"/>
                      <g id="Group_34912" data-name="Group 34912" transform="translate(3.827 4.349)" opacity="0.51">
                        <path id="Path_86052" data-name="Path 86052" d="M1864.192,4012.249l-71.181,41.1,8.827,52.038,71.133-41.069Z" transform="translate(-1793.011 -4012.249)" fill="#00223d"/>
                      </g>
                    </g>
                    <g id="Group_34915" data-name="Group 34915" transform="translate(11.404 58.214)">
                      <path id="Path_86053" data-name="Path 86053" d="M1919.584,4080.823l-4.03,2.1-40.411-23.332a2.933,2.933,0,0,0-2.638.109l-69.695,40.239c-.667-.375-3.708-1.836-3.708-1.836l1.475,3.845h0a.876.876,0,0,0,.413.456l42.56,24.571a2.928,2.928,0,0,0,2.638-.109l71.321-41.177a1.272,1.272,0,0,0,.6-.636h0Z" transform="translate(-1799.082 -4054.472)" fill="#00223d"/>
                      <path id="Path_86054" data-name="Path 86054" d="M1918.964,4082.449l-73.089,42.2a3.007,3.007,0,0,1-2.7.112l-43.619-25.183c-.693-.4-.606-1.1.193-1.561l73.089-42.2a2.991,2.991,0,0,1,2.7-.112l43.619,25.183C1919.851,4081.287,1919.764,4081.986,1918.964,4082.449Z" transform="translate(-1799.086 -4055.436)" fill="#d2e6ee"/>
                      <path id="Path_86055" data-name="Path 86055" d="M1918.962,4076.887l-73.089,42.2a3.005,3.005,0,0,1-2.7.112l-43.621-25.184a.89.89,0,0,1-.424-.471.735.735,0,0,0,.424.893l43.618,25.184a3.008,3.008,0,0,0,2.7-.111l73.089-42.2c.539-.312.749-.728.624-1.09A1.286,1.286,0,0,1,1918.962,4076.887Z" transform="translate(-1799.084 -4050.298)" fill="#fff"/>
                      <path id="Path_86056" data-name="Path 86056" d="M1818.919,4103.786v-.8c0-.075.046-.111.1-.077l2.828,1.631a.249.249,0,0,1,.1.2v.8c0,.077-.047.111-.1.079l-2.828-1.633A.247.247,0,0,1,1818.919,4103.786Z" transform="translate(-1794.182 -4043.701)" fill="#21587b"/>
                      <path id="Path_86057" data-name="Path 86057" d="M1822.309,4105.744v-.8c0-.077.046-.112.1-.079l2.828,1.633a.249.249,0,0,1,.1.2v.8c0,.076-.046.111-.1.078l-2.828-1.633A.25.25,0,0,1,1822.309,4105.744Z" transform="translate(-1793.344 -4043.218)" fill="#21587b"/>
                      <path id="Path_86058" data-name="Path 86058" d="M1808.621,4095.923l60.741-35.069a1.31,1.31,0,0,1,1.31,0l21.629,12.519a.467.467,0,0,1,0,.807l-60.714,35.048a1.31,1.31,0,0,1-1.307,0l-21.66-12.5a.468.468,0,0,1-.167-.638A.476.476,0,0,1,1808.621,4095.923Z" transform="translate(-1796.786 -4054.139)" fill="#d2e1f1"/>
                      <path id="Path_86059" data-name="Path 86059" d="M1808.622,4096.732l.218.125,60.524-34.943a1.31,1.31,0,0,1,1.31,0l21.411,12.389.218-.125a.468.468,0,0,0,.17-.637.476.476,0,0,0-.17-.17l-21.635-12.517a1.31,1.31,0,0,0-1.309,0l-60.741,35.069a.468.468,0,0,0-.169.639A.485.485,0,0,0,1808.622,4096.732Z" transform="translate(-1796.786 -4054.139)" fill="#00223d"/>
                      <g id="Group_34914" data-name="Group 34914" transform="translate(14.875 8.531)">
                        <path id="Path_86060" data-name="Path 86060" d="M1870.553,4063.631l-52.759,30.462-2.346-1.354,52.759-30.463Z" transform="translate(-1809.915 -4062.276)" fill="#00223d"/>
                        <path id="Path_86061" data-name="Path 86061" d="M1874.52,4066.293l-49.49,28.574-2.346-1.354,49.49-28.573Z" transform="translate(-1808.126 -4061.617)" fill="#00223d"/>
                        <path id="Path_86062" data-name="Path 86062" d="M1879.263,4068.032,1821,4101.672l-2.346-1.355,58.267-33.64Z" transform="translate(-1809.124 -4061.188)" fill="#00223d"/>
                        <path id="Path_86063" data-name="Path 86063" d="M1882.267,4069.76,1824,4103.4l-2.346-1.354,58.268-33.64Z" transform="translate(-1808.38 -4060.76)" fill="#00223d"/>
                        <path id="Path_86064" data-name="Path 86064" d="M1885.271,4071.495,1827,4105.135l-2.346-1.355,58.272-33.634Z" transform="translate(-1807.639 -4060.33)" fill="#00223d"/>
                        <path id="Path_86065" data-name="Path 86065" d="M1815.7,4089.531l-2.346,1.354-2.346-1.354,2.346-1.355Z" transform="translate(-1811.012 -4055.872)" fill="#00223d"/>
                        <path id="Path_86066" data-name="Path 86066" d="M1822.838,4091.024l-4.864,2.812-2.346-1.354,4.864-2.812Z" transform="translate(-1809.871 -4055.503)" fill="#00223d"/>
                      </g>
                      <path id="Path_86067" data-name="Path 86067" d="M1861.925,4099.217l16.379-9.452a.706.706,0,0,0,0-1.338l-11.2-6.466a2.557,2.557,0,0,0-2.319,0l-16.377,9.456a.706.706,0,0,0,0,1.338l11.2,6.467A2.562,2.562,0,0,0,1861.925,4099.217Z" transform="translate(-1787.01 -4048.947)" fill="#e9e9fd"/>
                      <path id="Path_86068" data-name="Path 86068" d="M1848.406,4091.961l16.378-9.455a2.557,2.557,0,0,1,2.319,0l11.2,6.465a1,1,0,0,1,.4.4c.17-.325.04-.688-.4-.943l-11.2-6.466a2.56,2.56,0,0,0-2.319,0l-16.378,9.456c-.443.25-.571.624-.4.943A1,1,0,0,1,1848.406,4091.961Z" transform="translate(-1787.008 -4048.947)" fill="#727997"/>
                    </g>
                  </g>
                  <g id="Group_34921" data-name="Group 34921" transform="translate(3.827 4.349)" opacity="0.11">
                    <g id="Grupo_55632" data-name="Grupo 55632">
                      <g id="Grupo_55631" data-name="Grupo 55631" clip-path="url(#clip-path)">
                        <g id="Group_34920" data-name="Group 34920" transform="translate(-38.484 27.147)">
                          <g id="Group_34919" data-name="Group 34919">
                            <path id="Path_86069" data-name="Path 86069" d="M1882.039,4061.025l-73.089,42.2a3.01,3.01,0,0,1-2.7.112l-43.623-25.183c-.694-.4-.606-1.1.193-1.56l73.089-42.2a3,3,0,0,1,2.7-.111l43.619,25.183C1882.921,4059.866,1882.839,4060.564,1882.039,4061.025Z" transform="translate(-1762.156 -4034.015)" fill="url(#linear-gradient-11)"/>
                            <path id="Path_86070" data-name="Path 86070" d="M1802.271,4065.215l16.378-9.456a.706.706,0,0,0,0-1.339l-11.2-6.465a2.56,2.56,0,0,0-2.319,0l-16.378,9.456a.706.706,0,0,0,0,1.338l11.2,6.467A2.566,2.566,0,0,0,1802.271,4065.215Z" transform="translate(-1755.698 -4030.637)" fill="url(#linear-gradient-12)"/>
                            <path id="Path_86071" data-name="Path 86071" d="M1788.751,4057.959l16.378-9.455a2.56,2.56,0,0,1,2.319,0l11.2,6.465a1,1,0,0,1,.4.4c.17-.323.04-.688-.4-.942l-11.2-6.466a2.56,2.56,0,0,0-2.319,0l-16.378,9.455c-.443.25-.571.624-.4.943A1.014,1.014,0,0,1,1788.751,4057.959Z" transform="translate(-1755.697 -4030.636)" fill="#9198db"/>
                            <g id="Group_34918" data-name="Group 34918" transform="translate(25.603 14.11)">
                              <path id="Path_86072" data-name="Path 86072" d="M1782.931,4080.573l60.741-35.069a1.305,1.305,0,0,1,1.308,0l21.63,12.515a.467.467,0,0,1,.17.637.473.473,0,0,1-.17.17l-60.71,35.052a1.305,1.305,0,0,1-1.307,0l-21.66-12.5a.467.467,0,0,1-.172-.637A.481.481,0,0,1,1782.931,4080.573Z" transform="translate(-1782.68 -4045.327)" fill="#adb1f2"/>
                              <path id="Path_86073" data-name="Path 86073" d="M1782.935,4081.381l.217.125,60.524-34.945a1.3,1.3,0,0,1,1.308,0l21.413,12.388.217-.125a.466.466,0,0,0,.17-.637.477.477,0,0,0-.17-.169l-21.63-12.515a1.305,1.305,0,0,0-1.308,0l-60.741,35.068a.461.461,0,0,0-.2.624A.4.4,0,0,0,1782.935,4081.381Z" transform="translate(-1782.683 -4045.327)" fill="#9198db"/>
                              <g id="Group_34917" data-name="Group 34917" transform="translate(3.469 2.568)">
                                <path id="Path_86074" data-name="Path 86074" d="M1855.928,4054.818l-52.916,30.551,2.1,1.21,52.916-30.549Z" transform="translate(-1781.127 -4045.548)" fill="#24126a"/>
                                <path id="Path_86075" data-name="Path 86075" d="M1850.939,4052.238l-50.3,29.039,2.1,1.209,50.3-29.038Z" transform="translate(-1781.712 -4046.186)" fill="#24126a"/>
                                <path id="Path_86076" data-name="Path 86076" d="M1798.562,4077.258l-4.7,2.711,2.1,1.21,4.7-2.711Z" transform="translate(-1783.388 -4040)" fill="#24126a"/>
                                <path id="Path_86077" data-name="Path 86077" d="M1801.605,4080.5l-3.271,1.888,2.1,1.21,3.27-1.888Z" transform="translate(-1782.283 -4039.199)" fill="#24126a"/>
                                <path id="Path_86078" data-name="Path 86078" d="M1849.813,4050.621l-58.745,33.918,2.1,1.21,58.745-33.919Z" transform="translate(-1784.08 -4046.587)" fill="#24126a"/>
                                <path id="Path_86079" data-name="Path 86079" d="M1847.011,4049l-58.745,33.918,2.1,1.21,58.745-33.918Z" transform="translate(-1784.772 -4046.987)" fill="#24126a"/>
                                <path id="Path_86080" data-name="Path 86080" d="M1844.21,4047.386l-58.745,33.919,2.1,1.209,58.745-33.919Z" transform="translate(-1785.465 -4047.386)" fill="#24126a"/>
                              </g>
                            </g>
                          </g>
                        </g>
                      </g>
                    </g>
                  </g>
                </g>
              </g>
            </g>
            <g id="Group_34928" data-name="Group 34928" transform="translate(24.404 24.12)">
              <path id="Path_86081" data-name="Path 86081" d="M1814.5,4071.674l5.759-3.329.168,1-5.759,3.329Z" transform="translate(-1808.275 -4018.151)" fill="#42e8e0"/>
              <path id="Path_86082" data-name="Path 86082" d="M1819.86,4068.279l3.138-1.814.168,1-3.138,1.814Z" transform="translate(-1806.95 -4018.615)" fill="#42e8e0"/>
              <path id="Path_86083" data-name="Path 86083" d="M1826.292,4064.463l2.27-1.312.168,1-2.27,1.312Z" transform="translate(-1805.359 -4019.435)" fill="#42e8e0"/>
              <path id="Path_86084" data-name="Path 86084" d="M1824.964,4065.062l.776-.449.168,1-.776.448Z" transform="translate(-1805.688 -4019.073)" fill="#42e8e0"/>
              <path id="Path_86085" data-name="Path 86085" d="M1823.129,4066.194l1.409-.814.168,1-1.409.814Z" transform="translate(-1806.142 -4018.884)" fill="#42e8e0"/>
              <path id="Path_86086" data-name="Path 86086" d="M1818.154,4065.142l2.27-1.312.168,1-2.27,1.312Z" transform="translate(-1807.372 -4019.267)" fill="#42e8e0"/>
              <path id="Path_86087" data-name="Path 86087" d="M1813.883,4067.861l4.449-2.571.168,1-4.449,2.57Z" transform="translate(-1808.428 -4018.906)" fill="#42e8e0"/>
              <g id="Group_34925" data-name="Group 34925" transform="translate(9.544 30.177)">
                <path id="Path_86088" data-name="Path 86088" d="M1819,4054.867l4.449-2.571.168,1-4.448,2.571Z" transform="translate(-1816.707 -4052.296)" fill="#42e8e0"/>
                <path id="Path_86089" data-name="Path 86089" d="M1817.161,4055.577l1.409-.815.168,1-1.409.815Z" transform="translate(-1817.161 -4051.686)" fill="#42e8e0"/>
              </g>
              <path id="Path_86090" data-name="Path 86090" d="M1819.591,4058.533l4.449-2.571.168,1-4.448,2.57Z" transform="translate(-1807.016 -4021.212)" fill="#42e8e0"/>
              <path id="Path_86091" data-name="Path 86091" d="M1817.753,4059.246l1.409-.814.168,1-1.409.815Z" transform="translate(-1807.471 -4020.602)" fill="#42e8e0"/>
              <path id="Path_86092" data-name="Path 86092" d="M1818.058,4038.725l-8.38,4.843-.168-1,8.38-4.843Z" transform="translate(-1809.509 -4025.721)" fill="#42e8e0"/>
              <path id="Path_86093" data-name="Path 86093" d="M1819.175,4037.357l-2.073,1.2-.168-1,2.073-1.2Z" transform="translate(-1807.673 -4026.06)" fill="#42e8e0"/>
              <path id="Path_86094" data-name="Path 86094" d="M1832.233,4036.578l-8.38,4.844-.168-1,8.38-4.843Z" transform="translate(-1806.004 -4026.252)" fill="#42e8e0"/>
              <path id="Path_86095" data-name="Path 86095" d="M1833.349,4035.209l-2.073,1.2-.168-1,2.073-1.2Z" transform="translate(-1804.169 -4026.591)" fill="#42e8e0"/>
              <path id="Path_86096" data-name="Path 86096" d="M1812.257,4043.385l-2.27,1.313-.168-1,2.27-1.312Z" transform="translate(-1809.432 -4024.569)" fill="#42e8e0"/>
              <path id="Path_86097" data-name="Path 86097" d="M1823.332,4041.013l-2.27,1.312-.168-1,2.27-1.312Z" transform="translate(-1806.694 -4025.156)" fill="#42e8e0"/>
              <path id="Path_86098" data-name="Path 86098" d="M1816.962,4040.918l-4.451,2.572-.168-1,4.448-2.57Z" transform="translate(-1808.809 -4025.179)" fill="#42e8e0"/>
              <path id="Path_86099" data-name="Path 86099" d="M1818.2,4039.857l-1.409.814-.168-1,1.409-.814Z" transform="translate(-1807.751 -4025.441)" fill="#42e8e0"/>
              <path id="Path_86100" data-name="Path 86100" d="M1823.1,4037.374l-4.449,2.571-.168-1,4.448-2.57Z" transform="translate(-1807.29 -4026.055)" fill="#42e8e0"/>
              <path id="Path_86101" data-name="Path 86101" d="M1824.334,4036.314l-1.409.814-.168-1,1.41-.814Z" transform="translate(-1806.234 -4026.318)" fill="#42e8e0"/>
              <path id="Path_86102" data-name="Path 86102" d="M1823.017,4039.18l-2.27,1.312-.168-1,2.27-1.312Z" transform="translate(-1806.772 -4025.609)" fill="#42e8e0"/>
              <path id="Path_86103" data-name="Path 86103" d="M1827.727,4036.71l-4.449,2.571-.168-1,4.448-2.571Z" transform="translate(-1806.146 -4026.219)" fill="#42e8e0"/>
              <path id="Path_86104" data-name="Path 86104" d="M1828.959,4035.65l-1.409.814-.168-1,1.41-.814Z" transform="translate(-1805.09 -4026.481)" fill="#42e8e0"/>
              <path id="Path_86105" data-name="Path 86105" d="M1814.942,4044.119l-4.645,2.686-.168-1,4.645-2.686Z" transform="translate(-1809.356 -4024.387)" fill="#42e8e0"/>
              <path id="Path_86106" data-name="Path 86106" d="M1818.085,4042.154l-3.359,1.942-.169-1,3.359-1.942Z" transform="translate(-1808.26 -4024.874)" fill="#42e8e0"/>
              <path id="Path_86107" data-name="Path 86107" d="M1820.4,4040.695l-2.27,1.313-.168-1,2.27-1.312Z" transform="translate(-1807.42 -4025.234)" fill="#42e8e0"/>
              <path id="Path_86108" data-name="Path 86108" d="M1838.52,4032.523l-4.646,2.686-.168-1,4.645-2.686Z" transform="translate(-1803.526 -4027.254)" fill="#42e8e0"/>
              <path id="Path_86109" data-name="Path 86109" d="M1841.663,4030.56l-3.359,1.941-.168-1,3.359-1.942Z" transform="translate(-1802.431 -4027.74)" fill="#42e8e0"/>
              <path id="Path_86110" data-name="Path 86110" d="M1843.973,4029.1l-2.27,1.312-.169-1,2.27-1.312Z" transform="translate(-1801.591 -4028.101)" fill="#42e8e0"/>
              <path id="Path_86111" data-name="Path 86111" d="M1836.111,4057.06l4.646-2.685.168,1-4.645,2.685Z" transform="translate(-1802.932 -4021.606)" fill="#42e8e0"/>
              <path id="Path_86112" data-name="Path 86112" d="M1832.712,4058.876l3.359-1.941.168,1-3.359,1.943Z" transform="translate(-1803.772 -4020.972)" fill="#42e8e0"/>
              <path id="Path_86113" data-name="Path 86113" d="M1830.187,4060.209l2.27-1.312.168,1-2.27,1.312Z" transform="translate(-1804.396 -4020.487)" fill="#42e8e0"/>
              <path id="Path_86114" data-name="Path 86114" d="M1834.875,4059.79l4.645-2.685.168,1-4.645,2.685Z" transform="translate(-1803.238 -4020.93)" fill="#42e8e0"/>
              <path id="Path_86115" data-name="Path 86115" d="M1831.476,4061.607l3.359-1.942.168,1-3.359,1.942Z" transform="translate(-1804.078 -4020.297)" fill="#42e8e0"/>
              <path id="Path_86116" data-name="Path 86116" d="M1828.951,4062.942l2.27-1.312.168,1-2.27,1.313Z" transform="translate(-1804.702 -4019.811)" fill="#42e8e0"/>
              <path id="Path_86117" data-name="Path 86117" d="M1819.837,4056.051l1.569-.907.168,1-1.569.906Z" transform="translate(-1806.955 -4021.415)" fill="#42e8e0"/>
              <path id="Path_86118" data-name="Path 86118" d="M1817.468,4057.477l2.073-1.2.168,1-2.073,1.2Z" transform="translate(-1807.541 -4021.134)" fill="#42e8e0"/>
              <path id="Path_86119" data-name="Path 86119" d="M1815.275,4045.939l-4.645,2.686-.169-1,4.645-2.686Z" transform="translate(-1809.273 -4023.938)" fill="#42e8e0"/>
              <path id="Path_86120" data-name="Path 86120" d="M1818.418,4043.975l-3.359,1.941-.168-1,3.359-1.942Z" transform="translate(-1808.178 -4024.423)" fill="#42e8e0"/>
              <path id="Path_86121" data-name="Path 86121" d="M1820.729,4042.515l-2.27,1.312-.168-1,2.27-1.312Z" transform="translate(-1807.338 -4024.784)" fill="#42e8e0"/>
              <path id="Path_86122" data-name="Path 86122" d="M1812.508,4049.2l-1.569.906-.168-1,1.569-.907Z" transform="translate(-1809.197 -4023.132)" fill="#42e8e0"/>
              <path id="Path_86123" data-name="Path 86123" d="M1814.975,4047.828l-2.073,1.2-.168-1,2.073-1.2Z" transform="translate(-1808.712 -4023.47)" fill="#42e8e0"/>
              <path id="Path_86124" data-name="Path 86124" d="M1818.611,4045.872l-3.341,1.931-.168-1,3.341-1.931Z" transform="translate(-1808.127 -4023.954)" fill="#42e8e0"/>
              <path id="Path_86125" data-name="Path 86125" d="M1821.548,4061.1l1.569-.907.168,1-1.569.907Z" transform="translate(-1806.532 -4020.166)" fill="#42e8e0"/>
              <path id="Path_86126" data-name="Path 86126" d="M1819.18,4062.528l2.073-1.2.168,1-2.073,1.2Z" transform="translate(-1807.118 -4019.885)" fill="#42e8e0"/>
              <path id="Path_86127" data-name="Path 86127" d="M1815.8,4064.629l3.341-1.931.168,1-3.341,1.931Z" transform="translate(-1807.955 -4019.547)" fill="#42e8e0"/>
              <path id="Path_86128" data-name="Path 86128" d="M1823.463,4058.331l3.341-1.931.168,1-3.341,1.931Z" transform="translate(-1806.059 -4021.104)" fill="#42e8e0"/>
              <path id="Path_86129" data-name="Path 86129" d="M1819.083,4060.852l4.5-2.6.168,1-4.5,2.6Z" transform="translate(-1807.142 -4020.647)" fill="#42e8e0"/>
              <path id="Path_86130" data-name="Path 86130" d="M1817.248,4061.559l1.409-.815.168,1-1.409.815Z" transform="translate(-1807.596 -4020.031)" fill="#42e8e0"/>
              <path id="Path_86131" data-name="Path 86131" d="M1815.486,4062.575l1.41-.814.168,1-1.409.814Z" transform="translate(-1808.031 -4019.779)" fill="#42e8e0"/>
              <g id="Group_34927" data-name="Group 34927" transform="translate(1.962 23.89)">
                <path id="Path_86132" data-name="Path 86132" d="M1815.729,4052.574l4.449-2.57.168,1-4.449,2.57Z" transform="translate(-1809.933 -4046.575)" fill="#42e8e0"/>
                <path id="Path_86133" data-name="Path 86133" d="M1813.894,4053.287l1.409-.814.168,1-1.409.814Z" transform="translate(-1810.387 -4045.965)" fill="#42e8e0"/>
                <path id="Path_86134" data-name="Path 86134" d="M1815.974,4050.091l1.569-.907.168,1-1.569.907Z" transform="translate(-1809.872 -4046.778)" fill="#42e8e0"/>
                <path id="Path_86135" data-name="Path 86135" d="M1820.413,4051.559l1.569-.907.168,1-1.569.907Z" transform="translate(-1808.775 -4046.415)" fill="#42e8e0"/>
                <path id="Path_86136" data-name="Path 86136" d="M1822.209,4050.775l3.766-2.174.168,1-3.765,2.174Z" transform="translate(-1808.331 -4046.922)" fill="#42e8e0"/>
                <path id="Path_86137" data-name="Path 86137" d="M1825.763,4048.548l2.245-1.293.168,1-2.245,1.293Z" transform="translate(-1807.452 -4047.255)" fill="#42e8e0"/>
                <path id="Path_86138" data-name="Path 86138" d="M1813.607,4051.518l2.073-1.2.168,1-2.074,1.2Z" transform="translate(-1810.458 -4046.498)" fill="#42e8e0"/>
                <g id="Group_34926" data-name="Group 34926" transform="translate(0 1.766)">
                  <path id="Path_86139" data-name="Path 86139" d="M1813.45,4049.578l1.569-.907.168,1-1.569.907Z" transform="translate(-1810.497 -4048.671)" fill="#42e8e0"/>
                  <path id="Path_86140" data-name="Path 86140" d="M1811.082,4051l2.073-1.2.168,1-2.073,1.2Z" transform="translate(-1811.082 -4048.391)" fill="#42e8e0"/>
                </g>
                <path id="Path_86141" data-name="Path 86141" d="M1818.591,4052.594l1.409-.814.168,1-1.409.814Z" transform="translate(-1809.225 -4046.136)" fill="#42e8e0"/>
                <path id="Path_86142" data-name="Path 86142" d="M1816.829,4053.612l1.409-.814.168,1-1.409.815Z" transform="translate(-1809.661 -4045.884)" fill="#42e8e0"/>
              </g>
              <path id="Path_86143" data-name="Path 86143" d="M1825.506,4063.206l4.806-2.777.168,1-4.806,2.777Z" transform="translate(-1805.554 -4020.109)" fill="#42e8e0"/>
              <path id="Path_86144" data-name="Path 86144" d="M1821.19,4065.661l4.5-2.6.168,1-4.5,2.6Z" transform="translate(-1806.621 -4019.458)" fill="#42e8e0"/>
              <path id="Path_86145" data-name="Path 86145" d="M1819.354,4066.372l1.409-.815.168,1-1.41.815Z" transform="translate(-1807.075 -4018.84)" fill="#42e8e0"/>
              <path id="Path_86146" data-name="Path 86146" d="M1817.594,4067.39l1.409-.814.168,1-1.409.815Z" transform="translate(-1807.51 -4018.589)" fill="#42e8e0"/>
              <path id="Path_86147" data-name="Path 86147" d="M1817.233,4067.784l-3.039,1.758.168,1,3.04-1.757Z" transform="translate(-1808.351 -4018.29)" fill="#42e8e0"/>
            </g>
          </g>
          <g id="Group_34948" data-name="Group 34948">
            <g id="Group_34930" data-name="Group 34930" transform="translate(3.928 71.095)" opacity="0.8">
              <path id="Path_86148" data-name="Path 86148" d="M1733.258,4132.651a6.8,6.8,0,0,1-3.4-.908h0l-66.324-38.29a2.059,2.059,0,0,1,0-3.562l41.79-24.128.256.149,69.464,40.1a2.057,2.057,0,0,1,0,3.561l-38.4,22.165A6.8,6.8,0,0,1,1733.258,4132.651Zm-2.885-1.8a5.886,5.886,0,0,0,5.77,0l38.39-22.165a1.03,1.03,0,0,0,.378-1.409,1.018,1.018,0,0,0-.378-.379l-69.207-39.956-.066.038-41.211,23.793a1.031,1.031,0,0,0,0,1.787Z" transform="translate(-1662.511 -4065.764)" fill="#00223d"/>
            </g>
            <g id="Group_34943" data-name="Group 34943">
              <g id="Group_34942" data-name="Group 34942">
                <g id="Group_34941" data-name="Group 34941">
                  <g id="Group_34935" data-name="Group 34935">
                    <g id="Group_34932" data-name="Group 34932" transform="translate(45.495)">
                      <path id="Path_86149" data-name="Path 86149" d="M1696.771,4064.626l9.24-54.819-.748-.313,1.116-.641v.006a.807.807,0,0,1,.861.06l73.848,42.632a2.087,2.087,0,0,1,.959,1.871l-9.314,55.253a.692.692,0,0,1-.389.563h0l-1.093.63-.188-1.02.064.019-73.4-42.376A2.085,2.085,0,0,1,1696.771,4064.626Z" transform="translate(-1695.609 -4008.762)" fill="url(#linear-gradient-13)"/>
                      <path id="Path_86150" data-name="Path 86150" d="M1766.673,4044.38l1.214-.538a1.679,1.679,0,0,1,.156.915l-9.313,55.253a.692.692,0,0,1-.389.563h0l-1.093.631-.188-1.02.062.019-3.714-2.144Z" transform="translate(-1681.605 -4000.088)" fill="#dee4f0"/>
                      <path id="Path_86151" data-name="Path 86151" d="M1696.806,4067.034l73.837,42.635c.571.33,1.058.139,1.159-.451l9.313-55.253a2.086,2.086,0,0,0-.959-1.871l-73.842-42.641c-.57-.329-1.058-.138-1.159.451l-9.313,55.253A2.085,2.085,0,0,0,1696.806,4067.034Z" transform="translate(-1695.838 -4008.631)" fill="#00223d"/>
                      <g id="Group_34931" data-name="Group 34931" transform="translate(2.665 4.349)" opacity="0.51">
                        <path id="Path_86152" data-name="Path 86152" d="M1706.754,4012.249l71.18,41.1-8.827,52.038-71.133-41.069Z" transform="translate(-1697.975 -4012.249)" fill="#00223d"/>
                      </g>
                    </g>
                    <g id="Group_34934" data-name="Group 34934" transform="translate(0 58.214)">
                      <path id="Path_86153" data-name="Path 86153" d="M1659.394,4080.823l4.03,2.1,40.411-23.332a2.932,2.932,0,0,1,2.638.109l69.7,40.239c.667-.375,3.708-1.836,3.708-1.836l-1.479,3.846h0a.878.878,0,0,1-.413.457l-42.56,24.571a2.929,2.929,0,0,1-2.638-.11l-71.32-41.177a1.276,1.276,0,0,1-.6-.636h0Z" transform="translate(-1659.354 -4054.472)" fill="#00223d"/>
                      <path id="Path_86154" data-name="Path 86154" d="M1660.023,4082.449l73.089,42.2a3.007,3.007,0,0,0,2.7.112l43.619-25.183c.692-.4.606-1.1-.193-1.561l-73.089-42.2a2.991,2.991,0,0,0-2.7-.112l-43.619,25.183C1659.136,4081.287,1659.224,4081.986,1660.023,4082.449Z" transform="translate(-1659.362 -4055.436)" fill="url(#linear-gradient-14)"/>
                      <path id="Path_86155" data-name="Path 86155" d="M1660.022,4076.887l73.089,42.2a3.005,3.005,0,0,0,2.7.112l43.619-25.184a.9.9,0,0,0,.424-.471.737.737,0,0,1-.424.893l-43.619,25.184a3.008,3.008,0,0,1-2.7-.111l-73.089-42.2c-.539-.312-.748-.728-.624-1.09A1.276,1.276,0,0,0,1660.022,4076.887Z" transform="translate(-1659.361 -4050.298)" fill="#fff"/>
                      <path id="Path_86156" data-name="Path 86156" d="M1736.775,4103.786v-.8c0-.075-.046-.111-.1-.077l-2.828,1.631a.25.25,0,0,0-.1.2v.8c0,.077.046.111.1.079l2.828-1.633A.249.249,0,0,0,1736.775,4103.786Z" transform="translate(-1640.971 -4043.701)" fill="#21587b"/>
                      <path id="Path_86157" data-name="Path 86157" d="M1733.386,4105.744v-.8c0-.077-.046-.112-.1-.079l-2.828,1.633a.247.247,0,0,0-.1.2v.8c0,.076.046.111.1.078l2.828-1.633A.254.254,0,0,0,1733.386,4105.744Z" transform="translate(-1641.809 -4043.218)" fill="#21587b"/>
                      <path id="Path_86158" data-name="Path 86158" d="M1763.154,4095.923l-60.741-35.069a1.307,1.307,0,0,0-1.308,0l-21.631,12.519a.465.465,0,0,0,0,.807l60.712,35.048a1.31,1.31,0,0,0,1.307,0l21.658-12.5a.465.465,0,0,0,.17-.637A.476.476,0,0,0,1763.154,4095.923Z" transform="translate(-1654.447 -4054.139)" fill="#d2e1f1"/>
                      <path id="Path_86159" data-name="Path 86159" d="M1763.152,4096.731l-.217.125-60.524-34.943a1.313,1.313,0,0,0-1.309,0L1679.69,4074.3l-.217-.125a.466.466,0,0,1-.172-.635.475.475,0,0,1,.172-.172l21.63-12.515a1.308,1.308,0,0,1,1.309,0l60.741,35.069a.467.467,0,0,1,.17.637A.478.478,0,0,1,1763.152,4096.731Z" transform="translate(-1654.447 -4054.139)" fill="#727997"/>
                      <g id="Group_34933" data-name="Group 34933" transform="translate(28.036 11.471)">
                        <path id="Path_86160" data-name="Path 86160" d="M1699.534,4065.981l51.415,29.684,2.221-1.427-51.281-29.606Z" transform="translate(-1677.465 -4064.633)" fill="#00223d"/>
                        <path id="Path_86161" data-name="Path 86161" d="M1696.858,4069.762l46.679,26.951,1.6-1.786-45.936-26.52Z" transform="translate(-1678.127 -4063.701)" fill="#00223d"/>
                        <path id="Path_86162" data-name="Path 86162" d="M1687.846,4068.031l58.268,33.641,2.346-1.354-58.268-33.645Z" transform="translate(-1680.355 -4064.129)" fill="#00223d"/>
                        <path id="Path_86163" data-name="Path 86163" d="M1684.839,4069.76l58.268,33.64,2.346-1.354-58.268-33.64Z" transform="translate(-1681.099 -4063.701)" fill="#00223d"/>
                        <path id="Path_86164" data-name="Path 86164" d="M1681.84,4071.494l58.268,33.641,2.346-1.355-58.269-33.635Z" transform="translate(-1681.84 -4063.27)" fill="#00223d"/>
                        <path id="Path_86165" data-name="Path 86165" d="M1740.32,4089.53l2.347,1.354,2.346-1.354-2.346-1.355Z" transform="translate(-1667.381 -4058.812)" fill="#00223d"/>
                        <path id="Path_86166" data-name="Path 86166" d="M1733.686,4091.023l4.864,2.811,2.346-1.354-4.864-2.812Z" transform="translate(-1669.021 -4058.443)" fill="#00223d"/>
                      </g>
                      <path id="Path_86167" data-name="Path 86167" d="M1699.286,4099.216l-16.379-9.451a.706.706,0,0,1,0-1.338l11.2-6.466a2.566,2.566,0,0,1,2.318,0l16.377,9.456a.706.706,0,0,1,0,1.338l-11.2,6.466A2.557,2.557,0,0,1,1699.286,4099.216Z" transform="translate(-1653.659 -4048.947)" fill="url(#linear-gradient-15)"/>
                      <path id="Path_86168" data-name="Path 86168" d="M1712.8,4091.961l-16.378-9.455a2.56,2.56,0,0,0-2.318,0l-11.2,6.465a1.006,1.006,0,0,0-.4.4c-.17-.324-.041-.688.4-.943l11.2-6.466a2.563,2.563,0,0,1,2.318,0l16.378,9.455c.443.25.573.624.4.943A1,1,0,0,0,1712.8,4091.961Z" transform="translate(-1653.657 -4048.947)" fill="#727997"/>
                    </g>
                  </g>
                  <g id="Group_34940" data-name="Group 34940" transform="translate(48.162 4.349)" opacity="0.11">
                    <g id="Grupo_55634" data-name="Grupo 55634">
                      <g id="Grupo_55633" data-name="Grupo 55633" clip-path="url(#clip-path-2)">
                        <g id="Group_34939" data-name="Group 34939" transform="translate(-2.106 27.147)">
                          <g id="Group_34938" data-name="Group 34938">
                            <path id="Path_86169" data-name="Path 86169" d="M1696.949,4061.025l73.089,42.2a3.008,3.008,0,0,0,2.7.112l43.619-25.183c.692-.4.606-1.1-.193-1.56l-73.089-42.2a3,3,0,0,0-2.7-.111l-43.618,25.183C1696.062,4059.866,1696.15,4060.564,1696.949,4061.025Z" transform="translate(-1696.288 -4034.015)" fill="url(#linear-gradient-16)"/>
                            <path id="Path_86170" data-name="Path 86170" d="M1758.939,4065.214l-16.377-9.455a.708.708,0,0,1,0-1.339l11.2-6.466a2.566,2.566,0,0,1,2.318,0l16.377,9.456a.706.706,0,0,1,0,1.338l-11.2,6.467A2.563,2.563,0,0,1,1758.939,4065.214Z" transform="translate(-1684.965 -4030.636)" fill="url(#linear-gradient-17)"/>
                            <path id="Path_86171" data-name="Path 86171" d="M1772.455,4057.959l-16.377-9.455a2.563,2.563,0,0,0-2.317,0l-11.2,6.465a1.011,1.011,0,0,0-.4.4c-.17-.323-.04-.688.4-.942l11.2-6.466a2.566,2.566,0,0,1,2.317,0l16.377,9.455c.443.25.571.624.4.943A1,1,0,0,0,1772.455,4057.959Z" transform="translate(-1684.964 -4030.636)" fill="#9198db"/>
                            <g id="Group_34937" data-name="Group 34937" transform="translate(10.778 14.11)">
                              <path id="Path_86172" data-name="Path 86172" d="M1788.843,4080.573,1728.1,4045.5a1.308,1.308,0,0,0-1.31,0l-21.63,12.515a.466.466,0,0,0-.17.637.473.473,0,0,0,.17.17l60.713,35.048a1.313,1.313,0,0,0,1.307,0l21.658-12.5a.466.466,0,0,0,.163-.639A.478.478,0,0,0,1788.843,4080.573Z" transform="translate(-1704.929 -4045.327)" fill="#adb1f2"/>
                              <path id="Path_86173" data-name="Path 86173" d="M1788.843,4081.381l-.218.125-60.523-34.945a1.3,1.3,0,0,0-1.31,0l-21.411,12.388-.218-.125a.465.465,0,0,1-.17-.637.478.478,0,0,1,.17-.169l21.63-12.515a1.308,1.308,0,0,1,1.31,0l60.741,35.068a.464.464,0,0,1,.182.631A.419.419,0,0,1,1788.843,4081.381Z" transform="translate(-1704.929 -4045.327)" fill="#9198db"/>
                              <g id="Group_34936" data-name="Group 34936" transform="translate(3.798 2.568)">
                                <path id="Path_86174" data-name="Path 86174" d="M1710.066,4054.818l52.916,30.551-2.1,1.21-52.911-30.549Z" transform="translate(-1707.974 -4045.548)" fill="#24126a"/>
                                <path id="Path_86175" data-name="Path 86175" d="M1714.541,4052.238l50.3,29.039-2.1,1.209-50.3-29.038Z" transform="translate(-1706.869 -4046.186)" fill="#24126a"/>
                                <path id="Path_86176" data-name="Path 86176" d="M1757.877,4077.258l4.7,2.711-2.1,1.21-4.7-2.711Z" transform="translate(-1696.154 -4040)" fill="#24126a"/>
                                <path id="Path_86177" data-name="Path 86177" d="M1754.551,4080.5l3.272,1.888-2.1,1.21-3.272-1.888Z" transform="translate(-1696.977 -4039.199)" fill="#24126a"/>
                                <path id="Path_86178" data-name="Path 86178" d="M1717.342,4050.621l58.745,33.918-2.1,1.21-58.745-33.919Z" transform="translate(-1706.176 -4046.587)" fill="#24126a"/>
                                <path id="Path_86179" data-name="Path 86179" d="M1720.142,4049l58.745,33.918-2.1,1.21-58.745-33.918Z" transform="translate(-1705.484 -4046.987)" fill="#24126a"/>
                                <path id="Path_86180" data-name="Path 86180" d="M1722.943,4047.386l58.746,33.919-2.1,1.209-58.745-33.919Z" transform="translate(-1704.791 -4047.386)" fill="#24126a"/>
                              </g>
                            </g>
                          </g>
                        </g>
                      </g>
                    </g>
                  </g>
                </g>
              </g>
            </g>
            <g id="Group_34947" data-name="Group 34947" transform="translate(66.647 22.64)">
              <path id="Path_86181" data-name="Path 86181" d="M1717.789,4027.912l5.759,3.329.168-1-5.759-3.329Z" transform="translate(-1711.563 -4026.914)" fill="#42e8e0"/>
              <path id="Path_86182" data-name="Path 86182" d="M1723.149,4031.007l3.138,1.813.168-1-3.138-1.813Z" transform="translate(-1710.237 -4026.149)" fill="#42e8e0"/>
              <path id="Path_86183" data-name="Path 86183" d="M1729.575,4034.72l2.27,1.312.168-1-2.27-1.312Z" transform="translate(-1708.649 -4025.23)" fill="#42e8e0"/>
              <path id="Path_86184" data-name="Path 86184" d="M1728.252,4033.953l.776.448.169-1-.776-.448Z" transform="translate(-1708.976 -4025.42)" fill="#42e8e0"/>
              <path id="Path_86185" data-name="Path 86185" d="M1726.417,4032.892l1.409.814.168-1-1.409-.814Z" transform="translate(-1709.43 -4025.683)" fill="#42e8e0"/>
              <path id="Path_86186" data-name="Path 86186" d="M1721.443,4034.042l2.27,1.312.168-1-2.27-1.312Z" transform="translate(-1710.659 -4025.398)" fill="#42e8e0"/>
              <path id="Path_86187" data-name="Path 86187" d="M1717.171,4031.575l4.449,2.571.168-1-4.449-2.57Z" transform="translate(-1711.715 -4026.009)" fill="#42e8e0"/>
              <g id="Group_34944" data-name="Group 34944" transform="translate(9.544 19.453)">
                <path id="Path_86188" data-name="Path 86188" d="M1722.284,4044.569l4.448,2.57.168-1-4.449-2.57Z" transform="translate(-1719.995 -4042.249)" fill="#42e8e0"/>
                <path id="Path_86189" data-name="Path 86189" d="M1720.449,4043.509l1.409.814.168-1-1.409-.814Z" transform="translate(-1720.449 -4042.511)" fill="#42e8e0"/>
              </g>
              <path id="Path_86190" data-name="Path 86190" d="M1722.879,4040.9l4.448,2.571.168-1-4.448-2.571Z" transform="translate(-1710.304 -4023.702)" fill="#42e8e0"/>
              <path id="Path_86191" data-name="Path 86191" d="M1721.044,4039.839l1.409.814.168-1-1.409-.814Z" transform="translate(-1710.758 -4023.965)" fill="#42e8e0"/>
              <path id="Path_86192" data-name="Path 86192" d="M1721.345,4061.16l-8.38-4.843-.168,1,8.38,4.844Z" transform="translate(-1712.797 -4019.644)" fill="#42e8e0"/>
              <path id="Path_86193" data-name="Path 86193" d="M1722.464,4061.807l-2.073-1.2-.168,1,2.073,1.2Z" transform="translate(-1710.961 -4018.583)" fill="#42e8e0"/>
              <path id="Path_86194" data-name="Path 86194" d="M1735.521,4063.308l-8.38-4.843-.168,1,8.38,4.843Z" transform="translate(-1709.292 -4019.113)" fill="#42e8e0"/>
              <path id="Path_86195" data-name="Path 86195" d="M1736.638,4063.954l-2.073-1.2-.168,1,2.073,1.2Z" transform="translate(-1707.457 -4018.053)" fill="#42e8e0"/>
              <path id="Path_86196" data-name="Path 86196" d="M1715.54,4055.8l-2.27-1.312-.168,1,2.27,1.312Z" transform="translate(-1712.722 -4020.097)" fill="#42e8e0"/>
              <path id="Path_86197" data-name="Path 86197" d="M1726.62,4058.173l-2.27-1.312-.168,1,2.27,1.312Z" transform="translate(-1709.982 -4019.51)" fill="#42e8e0"/>
              <path id="Path_86198" data-name="Path 86198" d="M1720.249,4058.517l-4.449-2.571-.168,1,4.449,2.57Z" transform="translate(-1712.096 -4019.736)" fill="#42e8e0"/>
              <path id="Path_86199" data-name="Path 86199" d="M1721.482,4059.23l-1.409-.814-.168,1,1.409.814Z" transform="translate(-1711.04 -4019.126)" fill="#42e8e0"/>
              <path id="Path_86200" data-name="Path 86200" d="M1726.389,4062.061l-4.449-2.571-.168,1,4.448,2.571Z" transform="translate(-1710.578 -4018.86)" fill="#42e8e0"/>
              <path id="Path_86201" data-name="Path 86201" d="M1727.622,4062.773l-1.409-.814-.168,1,1.409.814Z" transform="translate(-1709.522 -4018.249)" fill="#42e8e0"/>
              <path id="Path_86202" data-name="Path 86202" d="M1726.312,4060.006l-2.27-1.312-.168,1,2.27,1.313Z" transform="translate(-1710.059 -4019.056)" fill="#42e8e0"/>
              <path id="Path_86203" data-name="Path 86203" d="M1731.014,4062.724l-4.448-2.57-.168,1,4.449,2.57Z" transform="translate(-1709.434 -4018.696)" fill="#42e8e0"/>
              <path id="Path_86204" data-name="Path 86204" d="M1732.247,4063.436l-1.409-.814-.168,1,1.409.814Z" transform="translate(-1708.378 -4018.085)" fill="#42e8e0"/>
              <path id="Path_86205" data-name="Path 86205" d="M1718.23,4055.339l-4.645-2.685-.168,1,4.645,2.685Z" transform="translate(-1712.644 -4020.55)" fill="#42e8e0"/>
              <path id="Path_86206" data-name="Path 86206" d="M1721.373,4057.156l-3.359-1.941-.168,1,3.359,1.942Z" transform="translate(-1711.549 -4019.917)" fill="#42e8e0"/>
              <path id="Path_86207" data-name="Path 86207" d="M1723.683,4058.491l-2.27-1.312-.168,1,2.27,1.312Z" transform="translate(-1710.708 -4019.431)" fill="#42e8e0"/>
              <path id="Path_86208" data-name="Path 86208" d="M1741.808,4066.934l-4.645-2.685-.168,1,4.645,2.685Z" transform="translate(-1706.814 -4017.684)" fill="#42e8e0"/>
              <path id="Path_86209" data-name="Path 86209" d="M1744.95,4068.751l-3.359-1.942-.168,1,3.359,1.943Z" transform="translate(-1705.719 -4017.05)" fill="#42e8e0"/>
              <path id="Path_86210" data-name="Path 86210" d="M1747.261,4070.086l-2.27-1.312-.168,1,2.27,1.313Z" transform="translate(-1704.879 -4016.564)" fill="#42e8e0"/>
              <path id="Path_86211" data-name="Path 86211" d="M1739.4,4042.4l4.645,2.685.168-1-4.645-2.686Z" transform="translate(-1706.221 -4023.332)" fill="#42e8e0"/>
              <path id="Path_86212" data-name="Path 86212" d="M1736,4040.434l3.359,1.942.168-1-3.359-1.942Z" transform="translate(-1707.06 -4023.817)" fill="#42e8e0"/>
              <path id="Path_86213" data-name="Path 86213" d="M1733.474,4038.976l2.27,1.312.168-1-2.27-1.312Z" transform="translate(-1707.685 -4024.179)" fill="#42e8e0"/>
              <path id="Path_86214" data-name="Path 86214" d="M1738.163,4039.668l4.645,2.686.168-1-4.645-2.686Z" transform="translate(-1706.526 -4024.007)" fill="#42e8e0"/>
              <path id="Path_86215" data-name="Path 86215" d="M1734.764,4037.7l3.359,1.942.168-1-3.359-1.942Z" transform="translate(-1707.366 -4024.493)" fill="#42e8e0"/>
              <path id="Path_86216" data-name="Path 86216" d="M1732.235,4036.244l2.27,1.312.168-1-2.27-1.312Z" transform="translate(-1707.991 -4024.854)" fill="#42e8e0"/>
              <path id="Path_86217" data-name="Path 86217" d="M1723.124,4043.055l1.569.906.168-1-1.569-.907Z" transform="translate(-1710.244 -4023.17)" fill="#42e8e0"/>
              <path id="Path_86218" data-name="Path 86218" d="M1720.756,4041.686l2.073,1.2.168-1-2.073-1.2Z" transform="translate(-1710.829 -4023.508)" fill="#42e8e0"/>
              <path id="Path_86219" data-name="Path 86219" d="M1718.562,4053.518l-4.645-2.685-.169,1,4.645,2.685Z" transform="translate(-1712.562 -4021)" fill="#42e8e0"/>
              <path id="Path_86220" data-name="Path 86220" d="M1721.706,4055.339l-3.359-1.942-.168,1,3.359,1.941Z" transform="translate(-1711.466 -4020.366)" fill="#42e8e0"/>
              <path id="Path_86221" data-name="Path 86221" d="M1724.016,4056.669l-2.27-1.312-.168,1,2.27,1.312Z" transform="translate(-1710.626 -4019.881)" fill="#42e8e0"/>
              <path id="Path_86222" data-name="Path 86222" d="M1715.8,4049.909l-1.569-.907-.168,1,1.569.906Z" transform="translate(-1712.485 -4021.453)" fill="#42e8e0"/>
              <path id="Path_86223" data-name="Path 86223" d="M1718.263,4051.335l-2.073-1.2-.169,1,2.073,1.2Z" transform="translate(-1712 -4021.172)" fill="#42e8e0"/>
              <path id="Path_86224" data-name="Path 86224" d="M1721.9,4053.437l-3.341-1.93-.168,1,3.341,1.931Z" transform="translate(-1711.414 -4020.834)" fill="#42e8e0"/>
              <path id="Path_86225" data-name="Path 86225" d="M1724.836,4038l1.569.908.168-1-1.569-.907Z" transform="translate(-1709.82 -4024.418)" fill="#42e8e0"/>
              <path id="Path_86226" data-name="Path 86226" d="M1722.468,4036.633l2.073,1.2.169-1-2.073-1.2Z" transform="translate(-1710.406 -4024.758)" fill="#42e8e0"/>
              <path id="Path_86227" data-name="Path 86227" d="M1719.084,4034.681l3.341,1.931.168-1-3.341-1.931Z" transform="translate(-1711.243 -4025.24)" fill="#42e8e0"/>
              <path id="Path_86228" data-name="Path 86228" d="M1726.751,4040.979l3.34,1.93.168-1-3.341-1.931Z" transform="translate(-1709.347 -4023.684)" fill="#42e8e0"/>
              <path id="Path_86229" data-name="Path 86229" d="M1722.37,4038.589l4.5,2.6.169-1-4.5-2.6Z" transform="translate(-1710.43 -4024.275)" fill="#42e8e0"/>
              <path id="Path_86230" data-name="Path 86230" d="M1720.535,4037.529l1.41.814.168-1-1.409-.814Z" transform="translate(-1710.884 -4024.537)" fill="#42e8e0"/>
              <path id="Path_86231" data-name="Path 86231" d="M1718.775,4036.511l1.409.814.168-1-1.409-.814Z" transform="translate(-1711.319 -4024.788)" fill="#42e8e0"/>
              <g id="Group_34946" data-name="Group 34946" transform="translate(1.959 21.905)">
                <path id="Path_86232" data-name="Path 86232" d="M1719.017,4046.865l4.449,2.57.168-1-4.449-2.571Z" transform="translate(-1713.219 -4044.133)" fill="#42e8e0"/>
                <path id="Path_86233" data-name="Path 86233" d="M1717.182,4045.8l1.41.815.168-1-1.409-.814Z" transform="translate(-1713.672 -4044.397)" fill="#42e8e0"/>
                <path id="Path_86234" data-name="Path 86234" d="M1719.263,4049.013l1.569.907.168-1-1.569-.907Z" transform="translate(-1713.158 -4043.602)" fill="#42e8e0"/>
                <path id="Path_86235" data-name="Path 86235" d="M1723.7,4047.545l1.569.907.168-1-1.569-.906Z" transform="translate(-1712.06 -4043.965)" fill="#42e8e0"/>
                <path id="Path_86236" data-name="Path 86236" d="M1725.5,4048.582l3.764,2.173.168-1-3.766-2.174Z" transform="translate(-1711.616 -4043.708)" fill="#42e8e0"/>
                <path id="Path_86237" data-name="Path 86237" d="M1729.051,4050.633l2.245,1.294.168-1-2.245-1.293Z" transform="translate(-1710.738 -4043.201)" fill="#42e8e0"/>
                <path id="Path_86238" data-name="Path 86238" d="M1716.891,4047.645l2.073,1.2.168-1-2.073-1.2Z" transform="translate(-1713.744 -4043.94)" fill="#42e8e0"/>
                <g id="Group_34945" data-name="Group 34945" transform="translate(0 3.349)">
                  <path id="Path_86239" data-name="Path 86239" d="M1716.738,4049.528l1.569.907.168-1-1.569-.907Z" transform="translate(-1713.782 -4046.824)" fill="#42e8e0"/>
                  <path id="Path_86240" data-name="Path 86240" d="M1714.368,4048.16l2.073,1.2.168-1-2.073-1.2Z" transform="translate(-1714.368 -4047.162)" fill="#42e8e0"/>
                </g>
                <path id="Path_86241" data-name="Path 86241" d="M1721.878,4046.492l1.409.814.168-1-1.409-.814Z" transform="translate(-1712.511 -4044.226)" fill="#42e8e0"/>
                <path id="Path_86242" data-name="Path 86242" d="M1720.117,4045.475l1.409.814.168-1-1.41-.814Z" transform="translate(-1712.947 -4044.477)" fill="#42e8e0"/>
              </g>
              <path id="Path_86243" data-name="Path 86243" d="M1728.793,4036.27l4.806,2.777.168-1-4.806-2.778Z" transform="translate(-1708.842 -4024.847)" fill="#42e8e0"/>
              <path id="Path_86244" data-name="Path 86244" d="M1724.478,4033.776l4.5,2.6.168-1-4.5-2.6Z" transform="translate(-1709.909 -4025.464)" fill="#42e8e0"/>
              <path id="Path_86245" data-name="Path 86245" d="M1722.643,4032.716l1.409.814.168-1-1.409-.814Z" transform="translate(-1710.363 -4025.727)" fill="#42e8e0"/>
              <path id="Path_86246" data-name="Path 86246" d="M1720.882,4031.7l1.409.814.168-1-1.409-.814Z" transform="translate(-1710.798 -4025.979)" fill="#42e8e0"/>
              <path id="Path_86247" data-name="Path 86247" d="M1720.52,4031.489l-3.04-1.757.168-1,3.04,1.757Z" transform="translate(-1711.639 -4026.464)" fill="#42e8e0"/>
            </g>
          </g>
        </g>
      </g>
      <path id="Trazado_124246" data-name="Trazado 124246" d="M5.492-4.6H2.82V0H1.313V-11.375H5.078a4.457,4.457,0,0,1,2.957.875A3.148,3.148,0,0,1,9.07-7.953,3.062,3.062,0,0,1,8.5-6.1a3.428,3.428,0,0,1-1.6,1.18L9.57-.094V0H7.961ZM2.82-5.828h2.3A2.6,2.6,0,0,0,6.9-6.407a1.959,1.959,0,0,0,.66-1.55,2.062,2.062,0,0,0-.629-1.62,2.663,2.663,0,0,0-1.816-.571H2.82ZM10.563-4.3a4.993,4.993,0,0,1,.488-2.234A3.643,3.643,0,0,1,12.41-8.07,3.7,3.7,0,0,1,14.4-8.609a3.565,3.565,0,0,1,2.793,1.2,4.6,4.6,0,0,1,1.066,3.18v.1a5.036,5.036,0,0,1-.473,2.215A3.589,3.589,0,0,1,16.434-.391a3.743,3.743,0,0,1-2.02.547,3.556,3.556,0,0,1-2.785-1.2A4.575,4.575,0,0,1,10.563-4.2Zm1.453.172a3.616,3.616,0,0,0,.652,2.258,2.088,2.088,0,0,0,1.746.852,2.075,2.075,0,0,0,1.75-.863A3.955,3.955,0,0,0,16.813-4.3a3.61,3.61,0,0,0-.66-2.254A2.1,2.1,0,0,0,14.4-7.422a2.075,2.075,0,0,0-1.727.852A3.925,3.925,0,0,0,12.016-4.133Zm13.273,3.3a3.07,3.07,0,0,1-2.477.992,2.628,2.628,0,0,1-2.059-.785,3.4,3.4,0,0,1-.715-2.324v-5.5h1.445v5.461q0,1.922,1.563,1.922A2.163,2.163,0,0,0,25.25-2.3V-8.453H26.7V0H25.32ZM30.852-10.5v2.047H32.43v1.117H30.852v5.249a1.173,1.173,0,0,0,.211.763.888.888,0,0,0,.719.254,3.5,3.5,0,0,0,.688-.094V0a4.215,4.215,0,0,1-1.109.155A1.8,1.8,0,0,1,29.9-.43a2.517,2.517,0,0,1-.492-1.664V-7.336H27.867V-8.453h1.539V-10.5ZM37.625.156a3.693,3.693,0,0,1-2.8-1.129,4.19,4.19,0,0,1-1.078-3.02v-.266A5.073,5.073,0,0,1,34.23-6.5a3.748,3.748,0,0,1,1.344-1.547,3.378,3.378,0,0,1,1.871-.559,3.166,3.166,0,0,1,2.563,1.086,4.7,4.7,0,0,1,.914,3.109v.6H35.2a3,3,0,0,0,.73,2.02,2.3,2.3,0,0,0,1.777.77A2.517,2.517,0,0,0,39-1.336a3.259,3.259,0,0,0,.93-.828l.883.688A3.55,3.55,0,0,1,37.625.156Zm-.18-7.578a1.928,1.928,0,0,0-1.469.637A3.1,3.1,0,0,0,35.242-5h4.234v-.109a2.753,2.753,0,0,0-.594-1.707A1.815,1.815,0,0,0,37.445-7.422Zm9.234.266a4.331,4.331,0,0,0-.711-.055A1.9,1.9,0,0,0,44.039-6V0H42.594V-8.453H44l.023.977a2.251,2.251,0,0,1,2.016-1.133,1.477,1.477,0,0,1,.641.109Z" transform="translate(1784.227 3940.345)" fill="#00223d"/>
      <line id="Lnea_1595" data-name="Lnea 1595" y1="86.465" transform="translate(1807.056 3951.222)" fill="none" stroke="#00223d" stroke-miterlimit="10" stroke-width="1" stroke-dasharray="6 6"/>
    </g>
    <g id="Grupo_55636" data-name="Grupo 55636" transform="translate(777 5062.5)">
      <path id="Trazado_124245" data-name="Trazado 124245" d="M4.462,8.261H2.292V12H1.066V2.758h3.06a3.621,3.621,0,0,1,2.4.711A2.558,2.558,0,0,1,7.37,5.538a2.488,2.488,0,0,1-.467,1.5A2.785,2.785,0,0,1,5.6,8l2.171,3.923V12H6.468Zm-2.171-1H4.164a2.112,2.112,0,0,0,1.444-.471,1.591,1.591,0,0,0,.536-1.259,1.676,1.676,0,0,0-.511-1.316,2.164,2.164,0,0,0-1.476-.464H2.292Zm9.452,4.862a3,3,0,0,1-2.272-.917,3.4,3.4,0,0,1-.876-2.453V8.541a4.121,4.121,0,0,1,.39-1.825,3.045,3.045,0,0,1,1.092-1.257A2.745,2.745,0,0,1,11.6,5a2.572,2.572,0,0,1,2.082.882,3.82,3.82,0,0,1,.743,2.526V8.9H9.769a2.441,2.441,0,0,0,.594,1.641,1.866,1.866,0,0,0,1.444.625,2.045,2.045,0,0,0,1.054-.254,2.648,2.648,0,0,0,.755-.673l.717.559A2.884,2.884,0,0,1,11.743,12.127ZM11.6,5.97a1.566,1.566,0,0,0-1.193.517,2.515,2.515,0,0,0-.6,1.45h3.44V7.849a2.237,2.237,0,0,0-.482-1.387A1.475,1.475,0,0,0,11.6,5.97Zm3.9,2.539a4.023,4.023,0,0,1,.749-2.542,2.548,2.548,0,0,1,3.872-.136V2.25H21.29V12H20.211l-.057-.736a2.391,2.391,0,0,1-1.961.863,2.346,2.346,0,0,1-1.946-.978A4.069,4.069,0,0,1,15.495,8.6Zm1.174.133a3.046,3.046,0,0,0,.482,1.828,1.56,1.56,0,0,0,1.333.66,1.713,1.713,0,0,0,1.631-1V6.973A1.726,1.726,0,0,0,18.5,6a1.567,1.567,0,0,0-1.346.667A3.354,3.354,0,0,0,16.669,8.642Zm12.416,2.526a1.692,1.692,0,0,0,1.1-.381,1.34,1.34,0,0,0,.521-.952h1.111a2.13,2.13,0,0,1-.406,1.124,2.676,2.676,0,0,1-1,.851,2.885,2.885,0,0,1-1.323.317,2.829,2.829,0,0,1-2.231-.936,3.729,3.729,0,0,1-.828-2.561v-.2a4.135,4.135,0,0,1,.368-1.784A2.8,2.8,0,0,1,27.45,5.437,3,3,0,0,1,29.079,5,2.755,2.755,0,0,1,31,5.7a2.473,2.473,0,0,1,.816,1.8H30.7A1.618,1.618,0,0,0,30.2,6.4a1.57,1.57,0,0,0-1.12-.428,1.644,1.644,0,0,0-1.387.644A3.026,3.026,0,0,0,27.2,8.477V8.7a2.966,2.966,0,0,0,.489,1.828A1.651,1.651,0,0,0,29.085,11.168Zm8.29.832a2.467,2.467,0,0,1-.165-.724,2.62,2.62,0,0,1-1.955.851,2.424,2.424,0,0,1-1.666-.574,1.859,1.859,0,0,1-.651-1.457,1.942,1.942,0,0,1,.816-1.666,3.846,3.846,0,0,1,2.295-.594h1.143V7.3a1.319,1.319,0,0,0-.368-.981,1.48,1.48,0,0,0-1.085-.365,1.712,1.712,0,0,0-1.054.317.935.935,0,0,0-.425.768H33.078a1.621,1.621,0,0,1,.365-.993,2.491,2.491,0,0,1,.99-.759A3.331,3.331,0,0,1,35.807,5a2.715,2.715,0,0,1,1.86.594,2.141,2.141,0,0,1,.7,1.635v3.161a3.865,3.865,0,0,0,.241,1.5V12Zm-1.949-.9a2.064,2.064,0,0,0,1.047-.286,1.728,1.728,0,0,0,.717-.743V8.667h-.92q-2.158,0-2.158,1.263a1.069,1.069,0,0,0,.368.863A1.415,1.415,0,0,0,35.426,11.1ZM46.021,8.642a4.084,4.084,0,0,1-.724,2.53,2.312,2.312,0,0,1-1.942.955,2.394,2.394,0,0,1-2.012-.92L41.285,12H40.206V2.25H41.38V5.887A2.381,2.381,0,0,1,43.342,5a2.326,2.326,0,0,1,1.965.946,4.206,4.206,0,0,1,.714,2.59Zm-1.174-.133a3.173,3.173,0,0,0-.463-1.854A1.534,1.534,0,0,0,43.05,6,1.724,1.724,0,0,0,41.38,7.081v2.971a1.772,1.772,0,0,0,1.682,1.079,1.526,1.526,0,0,0,1.314-.654A3.374,3.374,0,0,0,44.846,8.509ZM48.775,12H47.6V2.25h1.174Zm4.729.127a3,3,0,0,1-2.272-.917,3.4,3.4,0,0,1-.876-2.453V8.541a4.121,4.121,0,0,1,.39-1.825,3.045,3.045,0,0,1,1.092-1.257A2.745,2.745,0,0,1,53.358,5a2.572,2.572,0,0,1,2.082.882,3.82,3.82,0,0,1,.743,2.526V8.9H51.53a2.441,2.441,0,0,0,.594,1.641,1.866,1.866,0,0,0,1.444.625,2.045,2.045,0,0,0,1.054-.254,2.648,2.648,0,0,0,.755-.673l.717.559A2.884,2.884,0,0,1,53.5,12.127ZM53.358,5.97a1.566,1.566,0,0,0-1.193.517,2.515,2.515,0,0,0-.6,1.45h3.44V7.849a2.237,2.237,0,0,0-.482-1.387A1.475,1.475,0,0,0,53.358,5.97ZM61.782,12a2.467,2.467,0,0,1-.165-.724,2.62,2.62,0,0,1-1.955.851A2.424,2.424,0,0,1,58,11.552a1.859,1.859,0,0,1-.651-1.457,1.942,1.942,0,0,1,.816-1.666,3.846,3.846,0,0,1,2.295-.594H61.6V7.3a1.319,1.319,0,0,0-.368-.981,1.48,1.48,0,0,0-1.085-.365,1.712,1.712,0,0,0-1.054.317.935.935,0,0,0-.425.768H57.484a1.621,1.621,0,0,1,.365-.993,2.491,2.491,0,0,1,.99-.759A3.331,3.331,0,0,1,60.214,5a2.715,2.715,0,0,1,1.86.594,2.141,2.141,0,0,1,.7,1.635v3.161a3.865,3.865,0,0,0,.241,1.5V12Zm-1.949-.9a2.064,2.064,0,0,0,1.047-.286,1.728,1.728,0,0,0,.717-.743V8.667h-.92q-2.158,0-2.158,1.263a1.069,1.069,0,0,0,.368.863A1.415,1.415,0,0,0,59.833,11.1Zm4.494-2.6a4.023,4.023,0,0,1,.749-2.542,2.548,2.548,0,0,1,3.872-.136V2.25h1.174V12H69.043l-.057-.736a2.391,2.391,0,0,1-1.961.863,2.346,2.346,0,0,1-1.946-.978A4.069,4.069,0,0,1,64.327,8.6Zm1.174.133a3.046,3.046,0,0,0,.482,1.828,1.56,1.56,0,0,0,1.333.66,1.713,1.713,0,0,0,1.631-1V6.973A1.726,1.726,0,0,0,67.33,6a1.567,1.567,0,0,0-1.346.667A3.354,3.354,0,0,0,65.5,8.642ZM76.185,12a2.467,2.467,0,0,1-.165-.724,2.62,2.62,0,0,1-1.955.851,2.424,2.424,0,0,1-1.666-.574,1.859,1.859,0,0,1-.651-1.457,1.942,1.942,0,0,1,.816-1.666,3.846,3.846,0,0,1,2.295-.594H76V7.3a1.319,1.319,0,0,0-.368-.981,1.48,1.48,0,0,0-1.085-.365,1.712,1.712,0,0,0-1.054.317.935.935,0,0,0-.425.768H71.887a1.621,1.621,0,0,1,.365-.993,2.491,2.491,0,0,1,.99-.759A3.331,3.331,0,0,1,74.617,5a2.715,2.715,0,0,1,1.86.594,2.141,2.141,0,0,1,.7,1.635v3.161a3.865,3.865,0,0,0,.241,1.5V12Zm-1.949-.9a2.064,2.064,0,0,0,1.047-.286A1.728,1.728,0,0,0,76,10.077V8.667h-.92q-2.158,0-2.158,1.263a1.069,1.069,0,0,0,.368.863A1.415,1.415,0,0,0,74.236,11.1Z" transform="translate(192.667 7838)" fill="#12263f"/>
      <rect id="Rectngulo_27413" data-name="Rectngulo 27413" width="4" height="21" transform="translate(179.667 7837)" fill="#37a3a5"/>
    </g>
  </g>
</svg>
