<svg xmlns="http://www.w3.org/2000/svg" xmlns:xlink="http://www.w3.org/1999/xlink" width="403.75" height="247.25" viewBox="0 0 403.75 247.25">
  <defs>
    <clipPath id="clip-path">
      <path id="Trazado_118906" data-name="Trazado 118906" d="M1433.314,393.02l-.026,3.717c-.014,4.788-3.159,9.568-9.447,13.221-12.654,7.354-33.235,7.354-45.971,0-6.408-3.7-9.609-8.557-9.595-13.407l.025-3.715c-.014,4.848,3.188,9.706,9.6,13.405,12.735,7.354,33.317,7.354,45.971,0C1430.153,402.587,1433.3,397.807,1433.314,393.02Z" transform="translate(-1368.276 -392.835)" fill="none"/>
    </clipPath>
    <clipPath id="clip-path-2">
      <path id="Trazado_118907" data-name="Trazado 118907" d="M1433.314,380.183l-.026,3.715c-.014,4.788-3.159,9.568-9.447,13.221-12.654,7.354-33.235,7.354-45.971,0-6.408-3.7-9.609-8.557-9.595-13.407l.025-3.718c-.014,4.85,3.188,9.708,9.6,13.407,12.735,7.354,33.317,7.354,45.971,0C1430.153,389.748,1433.3,384.971,1433.314,380.183Z" transform="translate(-1368.276 -379.994)" fill="none"/>
    </clipPath>
    <linearGradient id="linear-gradient" x1="-114.823" y1="-68.227" x2="-114.808" y2="-68.227" gradientUnits="objectBoundingBox">
      <stop offset="0" stop-color="#c0bff6"/>
      <stop offset="0.294" stop-color="#c4c3f6"/>
      <stop offset="0.64" stop-color="#d2d2f9"/>
      <stop offset="1" stop-color="#e9e9fd"/>
    </linearGradient>
    <linearGradient id="linear-gradient-2" x1="-81.132" y1="-100.628" x2="-81.122" y2="-100.628" gradientUnits="objectBoundingBox">
      <stop offset="0" stop-color="#fff"/>
      <stop offset="1" stop-color="#d2e6ee"/>
    </linearGradient>
    <linearGradient id="linear-gradient-3" x1="-309.695" y1="-419.569" x2="-309.655" y2="-419.569" xlink:href="#linear-gradient"/>
    <clipPath id="clip-path-3">
      <path id="Trazado_118912" data-name="Trazado 118912" d="M1250.827,435.326l53.7,31-6.659,39.258L1244.2,474.606Z" transform="translate(-1244.204 -435.326)" fill="none"/>
    </clipPath>
    <linearGradient id="linear-gradient-4" x1="-81.525" y1="-100.249" x2="-81.515" y2="-100.249" xlink:href="#linear-gradient"/>
    <linearGradient id="linear-gradient-5" x1="-312.397" y1="-417.233" x2="-312.357" y2="-417.233" xlink:href="#linear-gradient"/>
    <linearGradient id="linear-gradient-6" x1="-126.905" y1="-155.266" x2="-126.905" y2="-155.277" xlink:href="#linear-gradient-2"/>
  </defs>
  <g id="Grupo_63419" data-name="Grupo 63419" transform="translate(-915 -17544.875)">
    <g id="Grupo_55774" data-name="Grupo 55774" transform="translate(735.333 9707.875)">
      <path id="Trazado_124251" data-name="Trazado 124251" d="M6.3,7.728H2.292V11H6.944v1H1.073V2.758H6.881v1H2.292V6.731H6.3Zm5.979,2.45a.865.865,0,0,0-.359-.74,3.452,3.452,0,0,0-1.25-.454,5.912,5.912,0,0,1-1.416-.457,2.014,2.014,0,0,1-.774-.635,1.518,1.518,0,0,1-.251-.876,1.782,1.782,0,0,1,.714-1.428A2.789,2.789,0,0,1,10.766,5a2.87,2.87,0,0,1,1.895.6,1.915,1.915,0,0,1,.727,1.542H12.207a1.06,1.06,0,0,0-.409-.832,1.534,1.534,0,0,0-1.031-.349,1.605,1.605,0,0,0-1,.279.879.879,0,0,0-.362.73.712.712,0,0,0,.336.641,4.139,4.139,0,0,0,1.216.413,6.334,6.334,0,0,1,1.425.47,2.079,2.079,0,0,1,.809.657,1.615,1.615,0,0,1,.263.936,1.758,1.758,0,0,1-.736,1.476,3.089,3.089,0,0,1-1.911.555,3.459,3.459,0,0,1-1.46-.292,2.375,2.375,0,0,1-.993-.816,1.966,1.966,0,0,1-.359-1.133H9.166a1.216,1.216,0,0,0,.473.936,1.835,1.835,0,0,0,1.165.346,1.894,1.894,0,0,0,1.07-.27A.829.829,0,0,0,12.276,10.178Zm4.3-6.709V5.132h1.282V6.04H16.574V10.3a.953.953,0,0,0,.171.62.721.721,0,0,0,.584.207,2.843,2.843,0,0,0,.559-.076V12a3.424,3.424,0,0,1-.9.126,1.462,1.462,0,0,1-1.187-.476,2.045,2.045,0,0,1-.4-1.352V6.04h-1.25V5.132H15.4V3.469Zm5.973,2.717a3.519,3.519,0,0,0-.578-.044,1.547,1.547,0,0,0-1.568.984V12H19.227V5.132H20.37l.019.793A1.829,1.829,0,0,1,22.026,5a1.2,1.2,0,0,1,.521.089Zm3.809,5.941a3,3,0,0,1-2.272-.917,3.4,3.4,0,0,1-.876-2.453V8.541a4.121,4.121,0,0,1,.39-1.825,3.045,3.045,0,0,1,1.092-1.257A2.745,2.745,0,0,1,26.209,5a2.572,2.572,0,0,1,2.082.882,3.82,3.82,0,0,1,.743,2.526V8.9H24.381a2.441,2.441,0,0,0,.594,1.641,1.866,1.866,0,0,0,1.444.625,2.045,2.045,0,0,0,1.054-.254,2.648,2.648,0,0,0,.755-.673l.717.559A2.884,2.884,0,0,1,26.355,12.127ZM26.209,5.97a1.566,1.566,0,0,0-1.193.517,2.515,2.515,0,0,0-.6,1.45h3.44V7.849a2.237,2.237,0,0,0-.482-1.387A1.475,1.475,0,0,0,26.209,5.97ZM31.668,12H30.494V2.25h1.174Zm3.155,0H33.649V2.25h1.174Zm6.119,0a2.467,2.467,0,0,1-.165-.724,2.62,2.62,0,0,1-1.955.851,2.424,2.424,0,0,1-1.666-.574,1.859,1.859,0,0,1-.651-1.457,1.942,1.942,0,0,1,.816-1.666,3.846,3.846,0,0,1,2.295-.594h1.143V7.3a1.319,1.319,0,0,0-.368-.981A1.48,1.48,0,0,0,39.3,5.951a1.712,1.712,0,0,0-1.054.317.935.935,0,0,0-.425.768H36.645a1.621,1.621,0,0,1,.365-.993A2.491,2.491,0,0,1,38,5.284,3.331,3.331,0,0,1,39.375,5a2.715,2.715,0,0,1,1.86.594,2.141,2.141,0,0,1,.7,1.635v3.161a3.865,3.865,0,0,0,.241,1.5V12Zm-1.949-.9a2.064,2.064,0,0,0,1.047-.286,1.728,1.728,0,0,0,.717-.743V8.667h-.92q-2.158,0-2.158,1.263a1.069,1.069,0,0,0,.368.863A1.415,1.415,0,0,0,38.994,11.1Z" transform="translate(192.667 7838)" fill="#12263f"/>
      <rect id="Rectángulo_27413" data-name="Rectángulo 27413" width="4" height="21" transform="translate(179.667 7837)" fill="#37a3a5"/>
    </g>
    <g id="Grupo_55773" data-name="Grupo 55773" transform="translate(-306.377 17197.65)">
      <g id="Grupo_55762" data-name="Grupo 55762" transform="translate(1529.086 500.047)">
        <g id="Grupo_55751" data-name="Grupo 55751" transform="translate(47.049 13.265)">
          <g id="Grupo_55750" data-name="Grupo 55750" style="isolation: isolate">
            <g id="Grupo_55748" data-name="Grupo 55748" transform="translate(38.337 45.651)">
              <path id="Trazado_118877" data-name="Trazado 118877" d="M1468.347,492.545l7.721-4.487,0,1.487-7.721,4.487Z" transform="translate(-1468.342 -488.058)" fill="#fff"/>
            </g>
            <path id="Trazado_118878" data-name="Trazado 118878" d="M1466.2,476.968l.2.167q.886.726,1.741,1.52c.067.064.135.126.2.188q.867.817,1.7,1.7c.046.048.094.1.138.145q.888.948,1.732,1.961l.014.018a48.063,48.063,0,0,1,3.1,4.194c.283.43.551.871.821,1.308.229.371.465.737.684,1.113.1.177.2.357.3.535.357.629.7,1.264,1.032,1.905.036.072.073.142.11.212q.59,1.172,1.116,2.37l.052.123q.511,1.175.952,2.362l.057.154q.446,1.215.818,2.438c.014.048.027.1.041.145q.351,1.175.627,2.349c.018.073.035.148.051.221.185.807.345,1.612.473,2.413l.006.04c.129.807.223,1.611.291,2.405,0,.067.01.132.016.2.062.8.1,1.587.094,2.365l7.721-4.487c0-.307,0-.614-.013-.923-.01-.33-.026-.659-.046-.99-.01-.151-.024-.3-.037-.452l-.014-.2c-.01-.115-.018-.231-.029-.347q-.048-.5-.112-1t-.146-1.028l0-.029-.007-.04q-.076-.482-.167-.966-.1-.532-.217-1.068c-.029-.126-.059-.252-.089-.377-.016-.075-.033-.15-.051-.224-.037-.156-.072-.312-.11-.47-.091-.361-.185-.724-.285-1.086-.073-.264-.153-.528-.232-.793-.014-.048-.027-.1-.043-.146s-.027-.1-.042-.143c-.108-.352-.221-.705-.339-1.057s-.237-.7-.363-1.044c-.024-.064-.05-.127-.073-.191s-.038-.105-.059-.158c-.081-.218-.161-.436-.245-.653q-.193-.5-.4-.995c-.1-.237-.2-.474-.306-.71-.018-.043-.035-.084-.054-.127s-.038-.092-.059-.137c-.145-.331-.3-.661-.449-.988-.17-.361-.344-.723-.524-1.081-.027-.054-.055-.108-.083-.162-.036-.072-.075-.142-.11-.212-.146-.285-.29-.571-.441-.855-.189-.352-.392-.7-.589-1.047-.1-.18-.2-.361-.3-.54-.04-.07-.076-.142-.118-.21-.18-.306-.377-.6-.563-.9-.27-.439-.538-.882-.823-1.312-.044-.068-.086-.142-.132-.21q-.623-.934-1.289-1.835l-.006-.01v0q-.446-.6-.909-1.194-.377-.478-.764-.944l-.014-.018-.011-.014q-.389-.468-.791-.925c-.262-.3-.527-.592-.8-.882-.043-.048-.089-.092-.132-.138s-.094-.1-.14-.148c-.188-.2-.374-.4-.565-.592-.285-.29-.573-.573-.863-.853-.089-.084-.181-.167-.271-.252-.067-.062-.135-.124-.2-.188-.143-.132-.283-.267-.427-.4q-.451-.406-.91-.794c-.134-.111-.269-.22-.4-.329-.068-.056-.137-.113-.205-.167-.1-.081-.2-.167-.3-.247-.3-.234-.6-.463-.9-.684-.218-.161-.438-.314-.657-.468-.04-.027-.08-.057-.121-.086s-.075-.054-.111-.08q-.432-.3-.871-.575t-.866-.53l-.2-.118-17.872-10.317-7.721,4.487,17.872,10.317c.692.4,1.375.836,2.049,1.3.042.029.081.059.121.086Q1465.285,476.228,1466.2,476.968Z" transform="translate(-1444.231 -459.377)" fill="#fff"/>
            <g id="Grupo_55749" data-name="Grupo 55749" transform="translate(0 4.487)">
              <path id="Trazado_118879" data-name="Trazado 118879" d="M1462.2,472.513c11.3,6.526,20.436,22.346,20.4,35.334l0,1.487L1444.257,487.2l.07-25Z" transform="translate(-1444.257 -462.196)" fill="#d3d3d3"/>
            </g>
          </g>
        </g>
        <path id="Trazado_118880" data-name="Trazado 118880" d="M1420.99,483l37.1-20.8,20.041,11.705v2.77c4.78,2.192,15.369,17.437,14,29.3-.457.183-37.066,20.816-37.066,20.816Z" transform="translate(-1410.975 -444.444)" fill="#fff"/>
        <path id="Trazado_118881" data-name="Trazado 118881" d="M1440.164,502.463l36.974-20.906.091,7.486-36.335,20.45Z" transform="translate(-1399.63 -432.988)" fill="#21587b"/>
        <path id="Trazado_118882" data-name="Trazado 118882" d="M1472.8,469.55l-42.785,23.858,2.008,1.735L1472.8,472.32Z" transform="translate(-1405.637 -440.092)" fill="#e5e5e5"/>
        <path id="Trazado_118883" data-name="Trazado 118883" d="M1414.7,477.255" transform="translate(-1414.698 -435.533)" fill="#0b0b0b"/>
        <g id="Grupo_55755" data-name="Grupo 55755" transform="translate(2.224 38.554)">
          <g id="Grupo_55754" data-name="Grupo 55754" style="isolation: isolate">
            <g id="Grupo_55752" data-name="Grupo 55752" transform="translate(38.337 45.65)">
              <path id="Trazado_118884" data-name="Trazado 118884" d="M1440.185,508.432l7.721-4.487,0,1.487-7.721,4.487Z" transform="translate(-1440.181 -503.945)" fill="#fff"/>
            </g>
            <path id="Trazado_118885" data-name="Trazado 118885" d="M1438.037,492.855c.068.056.137.111.2.167q.886.726,1.741,1.522c.067.062.135.124.2.188q.867.817,1.7,1.7c.045.049.092.1.139.146.59.632,1.17,1.286,1.73,1.961l.014.017a47.578,47.578,0,0,1,3.1,4.194c.285.428.551.869.822,1.308.229.371.465.735.684,1.113.1.177.2.357.3.535.355.629.7,1.262,1.03,1.905l.11.212c.393.782.767,1.573,1.116,2.37l.053.123q.511,1.172.952,2.362c.019.051.04.1.059.154q.446,1.215.816,2.437c.014.049.027.1.041.146q.354,1.175.627,2.349c.018.073.035.146.052.221.183.807.344,1.612.471,2.413l.007.04q.193,1.211.291,2.405c0,.065.011.131.016.2.062.8.1,1.587.094,2.365l7.721-4.487c0-.306,0-.613-.013-.923-.01-.328-.026-.657-.046-.99-.01-.15-.024-.3-.035-.452-.006-.065-.011-.13-.016-.2-.01-.116-.018-.231-.027-.347q-.048-.5-.113-1c-.043-.341-.092-.684-.146-1.028l0-.029-.006-.04c-.051-.32-.107-.643-.167-.965-.067-.357-.138-.711-.216-1.068-.027-.126-.059-.251-.088-.379-.018-.073-.035-.148-.052-.223-.037-.156-.072-.314-.11-.47-.089-.363-.185-.724-.285-1.087-.073-.264-.153-.527-.231-.791-.016-.049-.029-.1-.043-.146s-.027-.1-.043-.143c-.108-.353-.221-.705-.339-1.058s-.237-.7-.363-1.043c-.024-.064-.049-.127-.072-.191s-.04-.105-.06-.158c-.08-.218-.161-.436-.245-.654q-.193-.5-.4-.993c-.1-.237-.2-.474-.3-.711-.019-.041-.036-.084-.054-.126s-.04-.092-.06-.138q-.218-.494-.449-.988-.255-.542-.522-1.079c-.029-.054-.057-.108-.084-.162l-.11-.213c-.145-.285-.29-.57-.441-.853-.189-.353-.391-.7-.587-1.047-.1-.18-.2-.361-.3-.54-.04-.07-.076-.142-.118-.212-.18-.3-.377-.6-.563-.9-.271-.441-.538-.882-.823-1.312-.045-.07-.086-.142-.131-.21q-.625-.936-1.289-1.837l-.006-.01h0q-.446-.607-.909-1.194-.377-.478-.764-.944l-.014-.017-.011-.014c-.26-.314-.524-.621-.791-.925s-.527-.594-.8-.883c-.043-.046-.087-.091-.132-.138s-.094-.1-.14-.146c-.188-.2-.374-.4-.565-.592-.285-.29-.572-.575-.863-.853-.089-.086-.181-.167-.27-.252-.067-.064-.135-.126-.2-.188-.142-.132-.283-.267-.427-.4-.3-.271-.6-.536-.909-.794-.134-.113-.271-.22-.4-.329-.068-.057-.137-.113-.207-.169-.1-.081-.2-.166-.3-.245-.3-.236-.6-.463-.9-.686-.218-.159-.438-.314-.657-.466l-.121-.086-.111-.08c-.288-.2-.578-.39-.869-.575s-.576-.36-.868-.53c-.067-.04-.134-.08-.2-.118l-17.872-10.317-7.72,4.487,17.87,10.317c.692.4,1.375.836,2.049,1.3l.121.086Q1437.123,492.116,1438.037,492.855Z" transform="translate(-1416.068 -475.265)" fill="#fff"/>
            <g id="Grupo_55753" data-name="Grupo 55753" transform="translate(0 4.487)">
              <path id="Trazado_118886" data-name="Trazado 118886" d="M1434.037,488.4c11.3,6.526,20.436,22.344,20.4,35.333l0,1.488-38.338-22.134.072-25Z" transform="translate(-1416.095 -478.084)" fill="#d3d3d3"/>
            </g>
          </g>
        </g>
        <path id="Trazado_118887" data-name="Trazado 118887" d="M1465.793,489.043l-6.3-3.88,6.208-3.606Z" transform="translate(-1388.193 -432.988)" fill="#0e0e0e"/>
        <path id="Trazado_118888" data-name="Trazado 118888" d="M1444.007,503.79l.034.576,16.752-.4L1493.26,486.7l.046-.593Z" transform="translate(-1397.356 -430.298)" fill="#111"/>
        <path id="Trazado_118889" data-name="Trazado 118889" d="M1474.956,486.362,1444.007,503.8l16.707-.365,32.683-17.346Z" transform="translate(-1397.356 -430.307)" fill="#00223d"/>
        <path id="Trazado_118890" data-name="Trazado 118890" d="M1421.81,483.38,1434,490.5a8.419,8.419,0,0,0,8.349.081l29.637-16.536a2.689,2.689,0,0,0,.021-4.686l-12.562-7.156Z" transform="translate(-1410.49 -444.442)" fill="#00223d"/>
        <g id="Grupo_55758" data-name="Grupo 55758" transform="translate(27.001 43.57)">
          <g id="Grupo_55757" data-name="Grupo 55757" style="isolation: isolate">
            <path id="Trazado_118891" data-name="Trazado 118891" d="M1431.727,479.9l0,.006a.619.619,0,0,0,.2.172l.487.283a1.165,1.165,0,0,0,.285.11l.045.011a1.574,1.574,0,0,0,.325.035h.013a1.5,1.5,0,0,0,.341-.038l.013,0a1.17,1.17,0,0,0,.3-.116l1.811-1.046a.469.469,0,0,0,.277-.387v.447a.467.467,0,0,1-.277.385l-1.811,1.046a.931.931,0,0,1-.132.064c-.036.014-.075.027-.113.038l-.059.014-.013,0-.027.006a.923.923,0,0,1-.092.016c-.03,0-.062.008-.092.011s-.062,0-.094,0h-.1c-.036,0-.072,0-.106-.008s-.08-.01-.119-.016c-.018,0-.033-.01-.049-.013l-.045-.011a.818.818,0,0,1-.084-.021,1,1,0,0,1-.2-.089l-.487-.282-.011-.006a.753.753,0,0,1-.116-.086.486.486,0,0,1-.056-.06l-.013-.019,0-.008-.021-.029a.416.416,0,0,1-.024-.052c-.006-.018-.011-.035-.016-.053a.278.278,0,0,1,0-.054v-.454A.347.347,0,0,0,1431.727,479.9Z" transform="translate(-1431.662 -478.111)" fill="#d4e7ef"/>
            <g id="Grupo_55756" data-name="Grupo 55756">
              <path id="Trazado_118892" data-name="Trazado 118892" d="M1431.939,479.624c-.363.21-.373.552-.011.762l.487.283a1.47,1.47,0,0,0,1.324,0l1.811-1.046a.405.405,0,0,0,0-.767l-.487-.283a1.442,1.442,0,0,0-1.318,0Z" transform="translate(-1431.662 -478.416)" fill="#dcecf3"/>
            </g>
          </g>
        </g>
        <g id="Grupo_55761" data-name="Grupo 55761" transform="translate(31.366 41.088)">
          <g id="Grupo_55760" data-name="Grupo 55760" style="isolation: isolate">
            <path id="Trazado_118893" data-name="Trazado 118893" d="M1434.469,478.342l0,.008a.638.638,0,0,0,.2.172l.487.282a1.082,1.082,0,0,0,.287.11l.043.011a1.576,1.576,0,0,0,.326.037h.011a1.526,1.526,0,0,0,.342-.038l.013,0a1.078,1.078,0,0,0,.3-.116l1.811-1.046a.467.467,0,0,0,.277-.385l0,.446a.468.468,0,0,1-.277.387l-1.812,1.046a1.138,1.138,0,0,1-.132.064c-.037.014-.075.027-.113.038l-.057.014-.013,0-.027.006-.094.016a.917.917,0,0,1-.092.01c-.03,0-.062,0-.094.006h-.048c-.016,0-.033,0-.049,0-.035,0-.07,0-.105-.006s-.081-.01-.121-.018l-.049-.011-.044-.011c-.027-.008-.056-.013-.083-.021a1.067,1.067,0,0,1-.2-.089l-.487-.283-.011-.006a.644.644,0,0,1-.115-.084.531.531,0,0,1-.057-.062l-.013-.019,0-.006-.019-.029a.4.4,0,0,1-.025-.052.281.281,0,0,1-.014-.053.31.31,0,0,1-.007-.054v-.455A.343.343,0,0,0,1434.469,478.342Z" transform="translate(-1434.404 -476.552)" fill="#fafcfe"/>
            <g id="Grupo_55759" data-name="Grupo 55759">
              <path id="Trazado_118894" data-name="Trazado 118894" d="M1434.682,478.063c-.365.21-.374.554-.012.764l.487.282a1.47,1.47,0,0,0,1.324,0l1.811-1.046a.405.405,0,0,0,0-.767l-.485-.282a1.447,1.447,0,0,0-1.318,0Z" transform="translate(-1434.404 -476.857)" fill="#fafcfe"/>
            </g>
          </g>
        </g>
        <path id="Trazado_118895" data-name="Trazado 118895" d="M1426.227,481.719l6.847,3.834,29.807-17.026-6.528-4.063Z" transform="translate(-1407.877 -443.101)" fill="#0d0d0d"/>
        <path id="Trazado_118896" data-name="Trazado 118896" d="M1428.738,482.262l-6.756-18.715,1.6.782,6.8,18.778Z" transform="translate(-1410.388 -443.644)" fill="#00223d"/>
        <path id="Trazado_118897" data-name="Trazado 118897" d="M1429.8,489.224l29.75-17.254-6.847-18.761-29.75,17.255Z" transform="translate(-1409.811 -449.762)" fill="#21587b"/>
        <path id="Trazado_118898" data-name="Trazado 118898" d="M1422,469.958l29.75-17.254,1.523.8-29.75,17.255Z" transform="translate(-1410.377 -450.061)" fill="#00223d"/>
        <path id="Trazado_118899" data-name="Trazado 118899" d="M1445.95,465v6.231l5.261-3.013Z" transform="translate(-1396.206 -442.787)" fill="#0a0a0a"/>
        <path id="Trazado_118900" data-name="Trazado 118900" d="M1444.979,451.043c10.772,5.113,14.241,22.185,14.79,24.558a4.74,4.74,0,0,0,2.738,3.2l-24.832,14.059a4.74,4.74,0,0,1-2.738-3.2c-.548-2.373-4.017-19.446-14.79-24.558Z" transform="translate(-1411.474 -451.043)" fill="#fff"/>
      </g>
      <g id="Grupo_55763" data-name="Grupo 55763" transform="translate(1289.422 428.285)">
        <path id="Trazado_118901" data-name="Trazado 118901" d="M1285.834,420.14a7.506,7.506,0,0,0-2.508,14.588h5.017a7.507,7.507,0,0,0-2.509-14.588Z" transform="translate(-1255.736 -397.567)" fill="#37a3a5"/>
        <path id="Trazado_118902" data-name="Trazado 118902" d="M1283.736,453.334a1.881,1.881,0,0,1-1.881-1.881V429.506a1.881,1.881,0,0,1,3.763,0v21.946A1.882,1.882,0,0,1,1283.736,453.334Z" transform="translate(-1253.637 -393.138)" fill="#00223d"/>
        <path id="Trazado_118903" data-name="Trazado 118903" d="M1285.834,435.19a7.525,7.525,0,1,1,7.524-7.524A7.534,7.534,0,0,1,1285.834,435.19Zm0-11.287a3.762,3.762,0,1,0,3.763,3.763A3.766,3.766,0,0,0,1285.834,423.9Z" transform="translate(-1255.736 -397.567)" fill="#00223d"/>
        <path id="Trazado_118904" data-name="Trazado 118904" d="M1314.167,457.878a1.882,1.882,0,0,1-1.331-3.215,26.055,26.055,0,0,0,7.726-18.605,26.336,26.336,0,1,0-52.672,0,26.072,26.072,0,0,0,7.723,18.609,1.882,1.882,0,0,1-2.657,2.666,29.81,29.81,0,0,1-8.829-21.275,30.1,30.1,0,1,1,60.2,0,29.784,29.784,0,0,1-8.831,21.271A1.868,1.868,0,0,1,1314.167,457.878Z" transform="translate(-1264.127 -405.958)" fill="#00223d"/>
        <path id="Trazado_118905" data-name="Trazado 118905" d="M1303.338,447.051a1.883,1.883,0,0,1-1.324-3.218,16.1,16.1,0,0,0,4.786-11.5,16.3,16.3,0,0,0-32.608,0,16.1,16.1,0,0,0,4.786,11.508,1.882,1.882,0,0,1-2.652,2.671,19.838,19.838,0,0,1-5.9-14.179,20.066,20.066,0,1,1,40.131,0,19.821,19.821,0,0,1-5.9,14.176A1.865,1.865,0,0,1,1303.338,447.051Z" transform="translate(-1260.397 -402.229)" fill="#00223d"/>
      </g>
      <g id="Group_55121" data-name="Group 55121" transform="translate(1409.376 471.063)">
        <g id="Group_55110" data-name="Group 55110">
          <g id="Group_55107" data-name="Group 55107" transform="translate(2.504 42.314)">
            <path id="Path_118841" data-name="Path 118841" d="M1368.42,475.571l-27.358-16.153v8.867l61.7,36.222v2.607l1.947-1.179v-8.716l-36.4-21.649Z" transform="translate(-1341.062 -459.418)" fill="#bdc3c7"/>
          </g>
          <g id="Group_55108" data-name="Group 55108" transform="translate(14.731 65.654)">
            <path id="Path_118842" data-name="Path 118842" d="M1370.571,491.945l3.613-2.026v-2.945l-3.613,2.044Z" transform="translate(-1335.829 -466.454)" fill="#bdc3c7"/>
            <path id="Path_118843" data-name="Path 118843" d="M1368.945,485.655l-3.613,2.026v-6.812l3.613,2.119Z" transform="translate(-1338.929 -470.066)" fill="#bdc3c7"/>
            <path id="Path_118844" data-name="Path 118844" d="M1387.1,494.6l-3.613,2.044-34.742-20.528,3.613-2.034Z" transform="translate(-1348.744 -474.082)" fill="#bdc3c7"/>
          </g>
          <g id="Group_55109" data-name="Group 55109">
            <path id="Path_118845" data-name="Path 118845" d="M1341.686,432.834l-2.2.965v.054l64.158,37.683,1.99-1.117Z" transform="translate(-1339.489 -432.834)" fill="#21587b"/>
            <path id="Path_118846" data-name="Path 118846" d="M1381.855,456.494l-.216-.127-1.956,1.245h.18v42.473l1.99-1.062Z" transform="translate(-1315.707 -418.91)" fill="#21587b"/>
          </g>
          <path id="Path_118847" data-name="Path 118847" d="M1403.692,471.167l-64.2-37.728V475.89l64.2,37.726Z" transform="translate(-1339.489 -432.476)" fill="#00223d"/>
          <path id="Path_118848" data-name="Path 118848" d="M1340.886,475.652V436.136l59.2,34.815v39.517Z" transform="translate(-1338.662 -430.88)" fill="#21587b"/>
          <path id="Path_118849" data-name="Path 118849" d="M1403.692,506.7v-8.867l-64.2-37.725v8.869l23.067,13.553v6.776l-8.337-4.928v2.935l34.74,20.527v-2.93l-8.337-4.928V493.15Z" transform="translate(-1339.489 -416.694)" fill="#ecf0f1"/>
        </g>
        <g id="Group_55112" data-name="Group 55112" transform="translate(2.224 5.254)">
          <path id="Path_118850" data-name="Path 118850" d="M1340.886,439.2v-3.066l59.2,34.817v3.064Z" transform="translate(-1340.886 -436.135)" fill="#ecf0f1"/>
          <g id="Group_55111" data-name="Group 55111" transform="translate(51.87 32.477)">
            <path id="Path_118851" data-name="Path 118851" d="M1375.814,458.3l1.694-.826.239.446-1.694.826Z" transform="translate(-1372.089 -455.985)" fill="#21587b"/>
            <path id="Path_118852" data-name="Path 118852" d="M1377.746,459.759l-1.692-2.82-.239.164,1.694,2.82Z" transform="translate(-1372.089 -456.303)" fill="#21587b"/>
            <path id="Path_118853" data-name="Path 118853" d="M1375.779,458.282l-2.3-1.326,0-.417,2.3,1.326Z" transform="translate(-1373.474 -456.539)" fill="#21587b"/>
          </g>
        </g>
        <g id="Group_55120" data-name="Group 55120" transform="translate(5.003 13.472)">
          <path id="Path_118854" data-name="Path 118854" d="M1360.036,481.761l-17.4-10.047V441.3l17.4,10.048Z" transform="translate(-1342.632 -441.298)" fill="#ecf0f1"/>
          <path id="Path_118855" data-name="Path 118855" d="M1379.53,493.014l-8.947-5.165V457.435l8.947,5.165Z" transform="translate(-1326.093 -431.75)" fill="#ecf0f1"/>
          <path id="Path_118856" data-name="Path 118856" d="M1377.135,468.591l-21.887-12.637v-7.373l21.887,12.636Z" transform="translate(-1335.167 -436.988)" fill="#ecf0f1"/>
          <g id="Group_55113" data-name="Group 55113" transform="translate(20.35 22.578)">
            <path id="Path_118857" data-name="Path 118857" d="M1377.035,469.192l-21.618-12.481v-1.229l21.618,12.481Z" transform="translate(-1355.417 -455.483)" fill="#ecf0f1"/>
          </g>
          <g id="Group_55114" data-name="Group 55114" transform="translate(20.35 25.65)">
            <path id="Path_118858" data-name="Path 118858" d="M1377.035,471.124l-21.618-12.482v-1.229l21.618,12.481Z" transform="translate(-1355.417 -457.413)" fill="#ecf0f1"/>
          </g>
          <g id="Group_55115" data-name="Group 55115" transform="translate(20.35 28.722)">
            <path id="Path_118859" data-name="Path 118859" d="M1377.035,473.054l-21.618-12.482v-1.229l21.618,12.482Z" transform="translate(-1355.417 -459.343)" fill="#ecf0f1"/>
          </g>
          <g id="Group_55116" data-name="Group 55116" transform="translate(20.35 31.793)">
            <path id="Path_118860" data-name="Path 118860" d="M1377.035,474.984,1355.417,462.5v-1.23l21.618,12.482Z" transform="translate(-1355.417 -461.272)" fill="#ecf0f1"/>
          </g>
          <g id="Group_55117" data-name="Group 55117" transform="translate(20.35 34.866)">
            <path id="Path_118861" data-name="Path 118861" d="M1377.035,476.914l-21.618-12.482V463.2l21.618,12.481Z" transform="translate(-1355.417 -463.203)" fill="#ecf0f1"/>
          </g>
          <g id="Group_55118" data-name="Group 55118" transform="translate(20.35 37.938)">
            <path id="Path_118862" data-name="Path 118862" d="M1377.035,478.844l-21.618-12.482v-1.229l21.618,12.482Z" transform="translate(-1355.417 -465.133)" fill="#ecf0f1"/>
          </g>
          <g id="Group_55119" data-name="Group 55119" transform="translate(20.35 41.01)">
            <path id="Path_118863" data-name="Path 118863" d="M1377.035,480.774l-21.618-12.482v-1.229l21.618,12.482Z" transform="translate(-1355.417 -467.063)" fill="#ecf0f1"/>
          </g>
        </g>
      </g>
      <g id="Group_55122" data-name="Group 55122" transform="translate(1376.203 536.056)">
        <path id="Path_118864" data-name="Path 118864" d="M1378.741,524.616l-60.093-34.694,27.527-15.357,60.093,34.694Z" transform="translate(-1318.648 -473.134)" fill="#bdc3c7"/>
        <path id="Path_118865" data-name="Path 118865" d="M1318.648,483.314v1.429l1.67.291,1.24-1.367Z" transform="translate(-1318.648 -467.957)" fill="#bcbec0"/>
        <path id="Path_118866" data-name="Path 118866" d="M1374.451,495.463v1.431l-2.028-.482Z" transform="translate(-1286.829 -460.769)" fill="#bcbec0"/>
        <path id="Path_118867" data-name="Path 118867" d="M1378.741,523.717l-60.093-34.694,27.527-15.357,60.093,34.694Z" transform="translate(-1318.648 -473.666)" fill="#ecf0f1"/>
      </g>
      <g id="Group_55125" data-name="Group 55125" transform="translate(1448.044 578.612)">
        <g id="Group_55123" data-name="Group 55123">
          <path id="Path_118868" data-name="Path 118868" d="M1379.84,511.012c-4.452,2.571-10.75,3.1-14.066,1.187s-2.4-5.55,2.056-8.121,10.749-3.1,14.066-1.187S1384.292,508.44,1379.84,511.012Z" transform="translate(-1363.783 -499.61)" fill="#bdc3c7"/>
          <path id="Path_118869" data-name="Path 118869" d="M1377.057,503.023v2.437h-1.73Z" transform="translate(-1356.952 -498.852)" fill="#bcbec0"/>
          <path id="Path_118870" data-name="Path 118870" d="M1363.783,505.2v2.212H1365l.886-.887Z" transform="translate(-1363.783 -497.564)" fill="#bcbec0"/>
          <path id="Path_118871" data-name="Path 118871" d="M1379.84,509.672c-4.452,2.571-10.75,3.1-14.066,1.187s-2.4-5.55,2.056-8.121,10.749-3.1,14.066-1.187S1384.292,507.1,1379.84,509.672Z" transform="translate(-1363.783 -500.403)" fill="#e2e2e2"/>
        </g>
        <path id="Path_118872" data-name="Path 118872" d="M1370.579,504.993l-.014-.008a.445.445,0,0,1,0-.844l3.572-2.061a1.605,1.605,0,0,1,1.46,0l.014.01a.444.444,0,0,1,.282.562.452.452,0,0,1-.277.28l-3.573,2.063A1.612,1.612,0,0,1,1370.579,504.993Z" transform="translate(-1359.951 -499.514)" fill="#bdc3c7"/>
        <path id="Path_118873" data-name="Path 118873" d="M1376.348,501.174c-.081-.048-.166-.091-.25-.135l-2.938,1.694.3.53,3.238-1.864C1376.588,501.321,1376.472,501.246,1376.348,501.174Z" transform="translate(-1358.234 -500.026)" fill="#bdc3c7"/>
        <g id="Group_55124" data-name="Group 55124" transform="translate(11.528 2.324)">
          <path id="Path_118874" data-name="Path 118874" d="M1374.46,502.1l-1.285.705.123.016-1.307.755v-.008l-.961-.175v.853h0a.356.356,0,0,0,.18.2l.014.008a.7.7,0,0,0,.618.059l2.54-1.466a.14.14,0,0,0,.072-.092h0Z" transform="translate(-1371.022 -501.721)" fill="#262626"/>
          <path id="Path_118875" data-name="Path 118875" d="M1371.213,503.732c-.2-.115-.247-.275-.106-.357l2.542-1.468a.7.7,0,0,1,.618.059c.215.124.261.285.119.365l-2.542,1.468a.71.71,0,0,1-.617-.059Z" transform="translate(-1371.025 -501.863)" fill="#2b2b2b"/>
        </g>
      </g>
      <g id="Group_55262" data-name="Group 55262" transform="translate(1382.036 539.39)">
        <g id="Group_55127" data-name="Group 55127" transform="translate(17.726)">
          <g id="Group_55126" data-name="Group 55126">
            <path id="Path_118876" data-name="Path 118876" d="M1339.356,477.872c.1.059.1.153.01.208l-1.945,1.114a.4.4,0,0,1-.358-.008l-3.533-2.061c-.1-.061-.107-.154-.011-.21l1.945-1.116a.4.4,0,0,1,.361.01Z" transform="translate(-1333.449 -475.761)" fill="#00223d"/>
          </g>
        </g>
        <g id="Group_55129" data-name="Group 55129" transform="translate(22.32 2.687)">
          <g id="Group_55128" data-name="Group 55128">
            <path id="Path_118877" data-name="Path 118877" d="M1341.567,479.163c.1.06.108.154.011.209l-1.944,1.117a.4.4,0,0,1-.361-.008l-2.857-1.67c-.1-.059-.108-.153-.011-.208l1.945-1.116a.4.4,0,0,1,.36.008Z" transform="translate(-1336.336 -477.449)" fill="#00223d"/>
          </g>
        </g>
        <g id="Group_55131" data-name="Group 55131" transform="translate(26.221 4.967)">
          <g id="Group_55130" data-name="Group 55130">
            <path id="Path_118878" data-name="Path 118878" d="M1344.021,480.6c.1.06.108.154.011.21l-1.944,1.114a.4.4,0,0,1-.361-.008l-2.862-1.668c-.1-.061-.107-.154-.01-.21l1.944-1.116a.406.406,0,0,1,.361.008Z" transform="translate(-1338.786 -478.882)" fill="#00223d"/>
          </g>
        </g>
        <g id="Group_55133" data-name="Group 55133" transform="translate(30.123 7.25)">
          <g id="Group_55132" data-name="Group 55132">
            <path id="Path_118879" data-name="Path 118879" d="M1346.472,482.032c.1.059.108.153.011.208l-1.945,1.116a.4.4,0,0,1-.361-.008l-2.86-1.67c-.1-.059-.1-.153-.01-.208l1.945-1.116a.4.4,0,0,1,.357.008Z" transform="translate(-1341.237 -480.316)" fill="#00223d"/>
          </g>
        </g>
        <g id="Group_55135" data-name="Group 55135" transform="translate(34.029 9.53)">
          <g id="Group_55134" data-name="Group 55134">
            <path id="Path_118880" data-name="Path 118880" d="M1348.921,483.465c.1.059.108.154.011.209l-1.943,1.116a.406.406,0,0,1-.361-.008l-2.857-1.67c-.1-.059-.107-.154-.01-.208l1.944-1.116a.4.4,0,0,1,.361.008Z" transform="translate(-1343.691 -481.748)" fill="#00223d"/>
          </g>
        </g>
        <g id="Group_55137" data-name="Group 55137" transform="translate(37.926 11.813)">
          <g id="Group_55136" data-name="Group 55136">
            <path id="Path_118881" data-name="Path 118881" d="M1351.377,484.9c.1.059.106.154.01.209l-1.944,1.116a.406.406,0,0,1-.361-.008l-2.862-1.67c-.1-.059-.106-.153-.011-.208l1.945-1.116a.406.406,0,0,1,.361.008Z" transform="translate(-1346.14 -483.183)" fill="#00223d"/>
          </g>
        </g>
        <g id="Group_55139" data-name="Group 55139" transform="translate(41.829 14.096)">
          <g id="Group_55138" data-name="Group 55138">
            <path id="Path_118882" data-name="Path 118882" d="M1353.827,486.331c.1.06.108.154.011.21l-1.943,1.114a.4.4,0,0,1-.363-.008l-2.86-1.668c-.1-.06-.107-.153-.01-.208l1.944-1.114a.389.389,0,0,1,.358.008Z" transform="translate(-1348.592 -484.617)" fill="#00223d"/>
          </g>
        </g>
        <g id="Group_55141" data-name="Group 55141" transform="translate(45.733 16.376)">
          <g id="Group_55140" data-name="Group 55140">
            <path id="Path_118883" data-name="Path 118883" d="M1356.276,487.765c.1.059.108.154.011.208l-1.944,1.116a.4.4,0,0,1-.358-.006l-2.86-1.67c-.1-.059-.108-.154-.011-.208l1.943-1.116a.4.4,0,0,1,.361.008Z" transform="translate(-1351.045 -486.049)" fill="#00223d"/>
          </g>
        </g>
        <g id="Group_55143" data-name="Group 55143" transform="translate(49.633 18.658)">
          <g id="Group_55142" data-name="Group 55142">
            <path id="Path_118884" data-name="Path 118884" d="M1358.73,489.2c.1.059.108.154.013.208l-1.945,1.117a.4.4,0,0,1-.361-.01l-2.86-1.668c-.1-.06-.108-.153-.011-.21l1.944-1.116a.4.4,0,0,1,.361.01Z" transform="translate(-1353.495 -487.483)" fill="#00223d"/>
          </g>
        </g>
        <g id="Group_55145" data-name="Group 55145" transform="translate(53.539 20.941)">
          <g id="Group_55144" data-name="Group 55144">
            <path id="Path_118885" data-name="Path 118885" d="M1361.181,490.633c.1.059.107.154.011.209l-1.945,1.116a.406.406,0,0,1-.361-.008l-2.857-1.67c-.1-.059-.107-.153-.01-.207l1.943-1.116a.4.4,0,0,1,.358.008Z" transform="translate(-1355.949 -488.917)" fill="#00223d"/>
          </g>
        </g>
        <g id="Group_55147" data-name="Group 55147" transform="translate(57.441 23.222)">
          <g id="Group_55146" data-name="Group 55146">
            <path id="Path_118886" data-name="Path 118886" d="M1363.633,492.066c.1.06.107.153.01.208l-1.943,1.116a.387.387,0,0,1-.361-.008l-2.857-1.668c-.1-.06-.108-.154-.011-.21l1.945-1.114a.4.4,0,0,1,.361.008Z" transform="translate(-1358.401 -490.35)" fill="#00223d"/>
          </g>
        </g>
        <g id="Group_55149" data-name="Group 55149" transform="translate(61.34 25.501)">
          <g id="Group_55148" data-name="Group 55148">
            <path id="Path_118887" data-name="Path 118887" d="M1366.085,493.5c.1.059.108.154.011.209l-1.945,1.116a.393.393,0,0,1-.36-.008l-2.862-1.67c-.1-.059-.107-.153-.011-.208l1.945-1.116a.4.4,0,0,1,.362.01Z" transform="translate(-1360.85 -491.782)" fill="#00223d"/>
          </g>
        </g>
        <g id="Group_55151" data-name="Group 55151" transform="translate(65.246 27.786)">
          <g id="Group_55150" data-name="Group 55150">
            <path id="Path_118888" data-name="Path 118888" d="M1368.538,494.934c.1.059.108.153.011.209l-1.943,1.116a.406.406,0,0,1-.361-.008l-2.86-1.67c-.1-.059-.107-.153-.01-.209l1.943-1.116a.4.4,0,0,1,.362.01Z" transform="translate(-1363.304 -493.218)" fill="#00223d"/>
          </g>
        </g>
        <g id="Group_55153" data-name="Group 55153" transform="translate(68.779 29.849)">
          <g id="Group_55152" data-name="Group 55152">
            <path id="Path_118889" data-name="Path 118889" d="M1371.514,496.676c.1.059.108.153.011.208L1369.582,498a.406.406,0,0,1-.361-.008l-3.616-2.114c-.1-.06-.108-.154-.011-.21l1.945-1.114a.393.393,0,0,1,.36.008Z" transform="translate(-1365.524 -494.514)" fill="#00223d"/>
          </g>
        </g>
        <g id="Group_55155" data-name="Group 55155" transform="translate(14.178 1.646)">
          <g id="Group_55154" data-name="Group 55154">
            <path id="Path_118890" data-name="Path 118890" d="M1337.8,478.907c.1.059.107.154.01.208l-2.618,1.5a.394.394,0,0,1-.358-.006l-3.531-2.066c-.1-.059-.108-.153-.011-.208l2.618-1.5a.4.4,0,0,1,.361.008Z" transform="translate(-1331.22 -476.795)" fill="#00223d"/>
          </g>
        </g>
        <g id="Group_55157" data-name="Group 55157" transform="translate(18.76 4.328)">
          <g id="Group_55156" data-name="Group 55156">
            <path id="Path_118891" data-name="Path 118891" d="M1340.057,480.226c.1.059.106.154.011.209l-2.623,1.5a.4.4,0,0,1-.361-.01l-2.9-1.7c-.1-.06-.108-.154-.011-.21l2.618-1.5a.4.4,0,0,1,.362.01Z" transform="translate(-1334.099 -478.48)" fill="#00223d"/>
          </g>
        </g>
        <g id="Group_55159" data-name="Group 55159" transform="translate(22.718 6.639)">
          <g id="Group_55158" data-name="Group 55158">
            <path id="Path_118892" data-name="Path 118892" d="M1342.543,481.68c.1.06.107.154.01.21l-2.618,1.5a.4.4,0,0,1-.361-.008l-2.906-1.7c-.1-.06-.108-.154-.013-.21l2.62-1.5a.4.4,0,0,1,.361.008Z" transform="translate(-1336.585 -479.932)" fill="#00223d"/>
          </g>
        </g>
        <g id="Group_55161" data-name="Group 55161" transform="translate(26.674 8.955)">
          <g id="Group_55160" data-name="Group 55160">
            <path id="Path_118893" data-name="Path 118893" d="M1345.027,483.133c.1.06.108.154.011.21l-2.618,1.5a.4.4,0,0,1-.361-.008l-2.908-1.7c-.1-.059-.107-.153-.011-.208l2.622-1.5a.406.406,0,0,1,.361.008Z" transform="translate(-1339.071 -481.387)" fill="#00223d"/>
          </g>
        </g>
        <g id="Group_55163" data-name="Group 55163" transform="translate(30.624 11.266)">
          <g id="Group_55162" data-name="Group 55162">
            <path id="Path_118894" data-name="Path 118894" d="M1347.513,484.587c.1.059.108.154.011.208l-2.621,1.5a.406.406,0,0,1-.361-.008l-2.908-1.7c-.1-.059-.108-.153-.011-.208l2.618-1.5a.4.4,0,0,1,.363.008Z" transform="translate(-1341.553 -482.839)" fill="#00223d"/>
          </g>
        </g>
        <g id="Group_55165" data-name="Group 55165" transform="translate(34.588 13.58)">
          <g id="Group_55164" data-name="Group 55164">
            <path id="Path_118895" data-name="Path 118895" d="M1350,486.041c.1.059.108.154.011.209l-2.62,1.5a.4.4,0,0,1-.362-.008l-2.9-1.7c-.1-.059-.107-.153-.011-.209l2.62-1.5a.4.4,0,0,1,.36.006Z" transform="translate(-1344.043 -484.293)" fill="#00223d"/>
          </g>
        </g>
        <g id="Group_55167" data-name="Group 55167" transform="translate(38.543 15.893)">
          <g id="Group_55166" data-name="Group 55166">
            <path id="Path_118896" data-name="Path 118896" d="M1352.485,487.494c.1.06.107.154.011.21l-2.62,1.5a.406.406,0,0,1-.361-.008l-2.907-1.7c-.1-.059-.108-.153-.011-.208l2.618-1.5a.4.4,0,0,1,.361.008Z" transform="translate(-1346.527 -485.746)" fill="#00223d"/>
          </g>
        </g>
        <g id="Group_55169" data-name="Group 55169" transform="translate(42.499 18.206)">
          <g id="Group_55168" data-name="Group 55168">
            <path id="Path_118897" data-name="Path 118897" d="M1354.971,488.947c.1.06.107.154.011.21l-2.62,1.5a.4.4,0,0,1-.361-.01l-2.908-1.7c-.1-.059-.107-.153-.011-.208l2.623-1.5a.4.4,0,0,1,.361.008Z" transform="translate(-1349.013 -487.199)" fill="#00223d"/>
          </g>
        </g>
        <g id="Group_55171" data-name="Group 55171" transform="translate(46.457 20.522)">
          <g id="Group_55170" data-name="Group 55170">
            <path id="Path_118898" data-name="Path 118898" d="M1357.455,490.4c.1.06.108.153.011.21l-2.62,1.5a.4.4,0,0,1-.356-.008l-2.91-1.7c-.1-.06-.107-.154-.01-.208l2.618-1.5a.4.4,0,0,1,.358.006Z" transform="translate(-1351.5 -488.654)" fill="#00223d"/>
          </g>
        </g>
        <g id="Group_55173" data-name="Group 55173" transform="translate(50.415 22.834)">
          <g id="Group_55172" data-name="Group 55172">
            <path id="Path_118899" data-name="Path 118899" d="M1359.942,491.855c.1.06.1.153.01.208l-2.62,1.5a.4.4,0,0,1-.356-.008l-2.91-1.7c-.1-.059-.107-.151-.01-.208l2.618-1.5a.4.4,0,0,1,.358.008Z" transform="translate(-1353.986 -490.107)" fill="#00223d"/>
          </g>
        </g>
        <g id="Group_55175" data-name="Group 55175" transform="translate(54.37 25.147)">
          <g id="Group_55174" data-name="Group 55174">
            <path id="Path_118900" data-name="Path 118900" d="M1362.429,493.308c.1.06.108.154.011.21l-2.618,1.5a.41.41,0,0,1-.363-.008l-2.91-1.7c-.1-.06-.1-.153-.01-.208l2.623-1.5a.4.4,0,0,1,.358.006Z" transform="translate(-1356.471 -491.56)" fill="#00223d"/>
          </g>
        </g>
        <g id="Group_55177" data-name="Group 55177" transform="translate(58.324 27.462)">
          <g id="Group_55176" data-name="Group 55176">
            <path id="Path_118901" data-name="Path 118901" d="M1364.914,494.762c.1.06.107.154.013.21l-2.623,1.5a.4.4,0,0,1-.361-.01l-2.908-1.7c-.1-.059-.107-.154-.011-.208l2.62-1.5a.4.4,0,0,1,.361.008Z" transform="translate(-1358.955 -493.014)" fill="#00223d"/>
          </g>
        </g>
        <g id="Group_55179" data-name="Group 55179" transform="translate(10.682 3.652)">
          <g id="Group_55178" data-name="Group 55178">
            <path id="Path_118902" data-name="Path 118902" d="M1336.291,480.571c.1.059.108.153.011.208l-2.618,1.5a.4.4,0,0,1-.358-.01l-4.223-2.466c-.1-.059-.105-.154-.011-.209l2.62-1.5a.4.4,0,0,1,.361.008Z" transform="translate(-1329.023 -478.055)" fill="#00223d"/>
          </g>
        </g>
        <g id="Group_55181" data-name="Group 55181" transform="translate(16.011 6.769)">
          <g id="Group_55180" data-name="Group 55180">
            <path id="Path_118903" data-name="Path 118903" d="M1338.328,481.762c.1.06.107.154.011.21l-2.62,1.5a.4.4,0,0,1-.361-.01l-2.906-1.7c-.1-.06-.107-.154-.011-.21l2.618-1.5a.4.4,0,0,1,.361.01Z" transform="translate(-1332.372 -480.014)" fill="#00223d"/>
          </g>
        </g>
        <g id="Group_55183" data-name="Group 55183" transform="translate(7.186 5.659)">
          <g id="Group_55182" data-name="Group 55182">
            <path id="Path_118904" data-name="Path 118904" d="M1334.9,482.3c.1.059.108.153.011.208l-2.618,1.5a.4.4,0,0,1-.363-.008l-5.02-2.937c-.1-.059-.108-.153-.011-.208l2.618-1.5a.4.4,0,0,1,.362.008Z" transform="translate(-1326.827 -479.316)" fill="#00223d"/>
          </g>
        </g>
        <g id="Group_55185" data-name="Group 55185" transform="translate(19.969 9.079)">
          <g id="Group_55184" data-name="Group 55184">
            <path id="Path_118905" data-name="Path 118905" d="M1340.813,483.213c.1.061.108.154.011.21l-2.618,1.5a.407.407,0,0,1-.361-.008l-2.907-1.7c-.1-.06-.1-.154-.011-.209l2.618-1.5a.4.4,0,0,1,.361.008Z" transform="translate(-1334.858 -481.465)" fill="#00223d"/>
          </g>
        </g>
        <g id="Group_55187" data-name="Group 55187" transform="translate(23.924 11.397)">
          <g id="Group_55186" data-name="Group 55186">
            <path id="Path_118906" data-name="Path 118906" d="M1343.3,484.669c.1.059.108.153.011.208l-2.618,1.5a.406.406,0,0,1-.361-.008l-2.908-1.7c-.1-.06-.107-.156-.011-.21l2.623-1.5a.4.4,0,0,1,.361.008Z" transform="translate(-1337.343 -482.921)" fill="#00223d"/>
          </g>
        </g>
        <g id="Group_55189" data-name="Group 55189" transform="translate(27.877 13.709)">
          <g id="Group_55188" data-name="Group 55188">
            <path id="Path_118907" data-name="Path 118907" d="M1345.787,486.12c.1.06.106.154.011.21l-2.623,1.5a.407.407,0,0,1-.362-.008l-2.906-1.7c-.1-.06-.106-.154-.011-.21l2.618-1.5a.4.4,0,0,1,.361.01Z" transform="translate(-1339.827 -484.374)" fill="#00223d"/>
          </g>
        </g>
        <g id="Group_55191" data-name="Group 55191" transform="translate(31.837 16.022)">
          <g id="Group_55190" data-name="Group 55190">
            <path id="Path_118908" data-name="Path 118908" d="M1348.272,487.575c.1.059.107.153.01.209l-2.618,1.5a.4.4,0,0,1-.361-.008l-2.908-1.7c-.1-.059-.105-.154-.011-.209l2.62-1.5a.4.4,0,0,1,.361.008Z" transform="translate(-1342.314 -485.827)" fill="#00223d"/>
          </g>
        </g>
        <g id="Group_55193" data-name="Group 55193" transform="translate(35.794 18.336)">
          <g id="Group_55192" data-name="Group 55192">
            <path id="Path_118909" data-name="Path 118909" d="M1350.756,489.029c.1.059.108.153.011.209l-2.618,1.5a.4.4,0,0,1-.361-.008l-2.908-1.7c-.1-.059-.1-.156-.01-.209l2.618-1.5a.4.4,0,0,1,.361.006Z" transform="translate(-1344.8 -487.281)" fill="#00223d"/>
          </g>
        </g>
        <g id="Group_55195" data-name="Group 55195" transform="translate(39.746 20.649)">
          <g id="Group_55194" data-name="Group 55194">
            <path id="Path_118910" data-name="Path 118910" d="M1353.243,490.482c.1.06.107.154.011.209l-2.623,1.5a.4.4,0,0,1-.361-.01l-2.906-1.7c-.1-.059-.107-.154-.011-.209l2.618-1.5a.4.4,0,0,1,.361.008Z" transform="translate(-1347.284 -488.734)" fill="#00223d"/>
          </g>
        </g>
        <g id="Group_55197" data-name="Group 55197" transform="translate(43.706 22.962)">
          <g id="Group_55196" data-name="Group 55196">
            <path id="Path_118911" data-name="Path 118911" d="M1355.727,491.935c.1.06.109.154.011.21l-2.618,1.5a.407.407,0,0,1-.362-.008l-2.908-1.7c-.1-.06-.105-.156-.011-.21l2.62-1.5a.4.4,0,0,1,.361.008Z" transform="translate(-1349.771 -490.187)" fill="#00223d"/>
          </g>
        </g>
        <g id="Group_55199" data-name="Group 55199" transform="translate(47.665 25.276)">
          <g id="Group_55198" data-name="Group 55198">
            <path id="Path_118912" data-name="Path 118912" d="M1358.214,493.389c.1.06.107.153.01.208l-2.618,1.5a.4.4,0,0,1-.358-.006l-2.909-1.7c-.1-.06-.105-.154-.01-.21l2.621-1.5a.4.4,0,0,1,.358.008Z" transform="translate(-1352.259 -491.641)" fill="#00223d"/>
          </g>
        </g>
        <g id="Group_55201" data-name="Group 55201" transform="translate(51.618 27.588)">
          <g id="Group_55200" data-name="Group 55200">
            <path id="Path_118913" data-name="Path 118913" d="M1360.7,494.844c.1.06.106.153.01.209l-2.618,1.5a.4.4,0,0,1-.358-.008l-2.913-1.7c-.1-.059-.1-.154-.01-.208l2.618-1.5a.4.4,0,0,1,.358.006Z" transform="translate(-1354.742 -493.093)" fill="#00223d"/>
          </g>
        </g>
        <g id="Group_55203" data-name="Group 55203" transform="translate(55.576 29.903)">
          <g id="Group_55202" data-name="Group 55202">
            <path id="Path_118914" data-name="Path 118914" d="M1363.187,496.3c.1.059.106.154.01.209l-2.618,1.5a.4.4,0,0,1-.361-.008l-2.908-1.7c-.1-.059-.107-.154-.011-.208l2.618-1.5a.4.4,0,0,1,.361.008Z" transform="translate(-1357.229 -494.548)" fill="#00223d"/>
          </g>
        </g>
        <g id="Group_55205" data-name="Group 55205" transform="translate(13.262 9.211)">
          <g id="Group_55204" data-name="Group 55204">
            <path id="Path_118915" data-name="Path 118915" d="M1336.6,483.294c.1.06.107.154.01.21l-2.618,1.5a.4.4,0,0,1-.361-.008l-2.91-1.7c-.1-.06-.107-.153-.01-.208l2.618-1.5a.406.406,0,0,1,.361.008Z" transform="translate(-1330.644 -481.548)" fill="#00223d"/>
          </g>
        </g>
        <g id="Group_55207" data-name="Group 55207" transform="translate(17.219 11.523)">
          <g id="Group_55206" data-name="Group 55206">
            <path id="Path_118916" data-name="Path 118916" d="M1339.088,484.748c.1.06.108.154.011.21l-2.618,1.5a.406.406,0,0,1-.361-.008l-2.908-1.7c-.1-.059-.108-.153-.011-.208l2.622-1.5a.4.4,0,0,1,.361.008Z" transform="translate(-1333.131 -483)" fill="#00223d"/>
          </g>
        </g>
        <g id="Group_55209" data-name="Group 55209" transform="translate(21.175 13.837)">
          <g id="Group_55208" data-name="Group 55208">
            <path id="Path_118917" data-name="Path 118917" d="M1341.574,486.2c.1.059.106.154.01.208l-2.618,1.5a.4.4,0,0,1-.361-.008l-2.908-1.7c-.1-.059-.107-.153-.011-.208l2.62-1.5a.4.4,0,0,1,.361.008Z" transform="translate(-1335.616 -484.454)" fill="#00223d"/>
          </g>
        </g>
        <g id="Group_55211" data-name="Group 55211" transform="translate(25.131 16.149)">
          <g id="Group_55210" data-name="Group 55210">
            <path id="Path_118918" data-name="Path 118918" d="M1344.059,487.655c.1.059.107.154.011.208l-2.62,1.5a.4.4,0,0,1-.361-.008l-2.906-1.7c-.1-.059-.108-.154-.011-.208l2.618-1.5a.4.4,0,0,1,.361.01Z" transform="translate(-1338.101 -485.907)" fill="#00223d"/>
          </g>
        </g>
        <g id="Group_55213" data-name="Group 55213" transform="translate(29.088 18.464)">
          <g id="Group_55212" data-name="Group 55212">
            <path id="Path_118919" data-name="Path 118919" d="M1346.545,489.109c.1.059.107.154.011.208l-2.62,1.5a.407.407,0,0,1-.361-.008l-2.908-1.7c-.1-.059-.107-.153-.01-.209l2.618-1.5a.4.4,0,0,1,.361.008Z" transform="translate(-1340.587 -487.361)" fill="#00223d"/>
          </g>
        </g>
        <g id="Group_55215" data-name="Group 55215" transform="translate(33.044 20.777)">
          <g id="Group_55214" data-name="Group 55214">
            <path id="Path_118920" data-name="Path 118920" d="M1349.031,490.562c.1.061.107.154.011.21l-2.62,1.5a.392.392,0,0,1-.362-.01l-2.908-1.7c-.1-.059-.107-.153-.011-.209l2.623-1.5a.4.4,0,0,1,.361.008Z" transform="translate(-1343.073 -488.814)" fill="#00223d"/>
          </g>
        </g>
        <g id="Group_55217" data-name="Group 55217" transform="translate(37 23.091)">
          <g id="Group_55216" data-name="Group 55216">
            <path id="Path_118921" data-name="Path 118921" d="M1351.516,492.016c.1.06.108.154.011.21l-2.62,1.5a.4.4,0,0,1-.361-.01l-2.906-1.7c-.1-.059-.108-.153-.011-.209l2.618-1.5a.4.4,0,0,1,.361.008Z" transform="translate(-1345.558 -490.268)" fill="#00223d"/>
          </g>
        </g>
        <g id="Group_55219" data-name="Group 55219" transform="translate(40.955 25.404)">
          <g id="Group_55218" data-name="Group 55218">
            <path id="Path_118922" data-name="Path 118922" d="M1354,493.469c.1.059.108.154.011.209l-2.618,1.5a.4.4,0,0,1-.361-.008l-2.908-1.7c-.1-.059-.108-.154-.01-.209l2.618-1.5a.4.4,0,0,1,.361.008Z" transform="translate(-1348.043 -491.721)" fill="#00223d"/>
          </g>
        </g>
        <g id="Group_55221" data-name="Group 55221" transform="translate(44.913 27.718)">
          <g id="Group_55220" data-name="Group 55220">
            <path id="Path_118923" data-name="Path 118923" d="M1356.486,494.923c.1.059.108.153.011.208l-2.618,1.5a.4.4,0,0,1-.361-.008l-2.908-1.7c-.1-.059-.108-.154-.011-.208l2.618-1.5a.41.41,0,0,1,.363.008Z" transform="translate(-1350.53 -493.175)" fill="#00223d"/>
          </g>
        </g>
        <g id="Group_55223" data-name="Group 55223" transform="translate(48.871 30.032)">
          <g id="Group_55222" data-name="Group 55222">
            <path id="Path_118924" data-name="Path 118924" d="M1358.974,496.377c.1.059.1.153.008.209l-2.618,1.5a.4.4,0,0,1-.358-.008l-2.91-1.7c-.1-.059-.105-.153-.01-.207l2.62-1.5a.4.4,0,0,1,.358.006Z" transform="translate(-1353.016 -494.629)" fill="#00223d"/>
          </g>
        </g>
        <g id="Group_55225" data-name="Group 55225" transform="translate(3.718 7.65)">
          <g id="Group_55224" data-name="Group 55224">
            <path id="Path_118925" data-name="Path 118925" d="M1332.087,483.179c.1.06.108.154.011.21l-2.62,1.5a.406.406,0,0,1-.361-.008l-4.39-2.567c-.1-.06-.105-.154-.011-.21l2.62-1.5a.4.4,0,0,1,.361.008Z" transform="translate(-1324.648 -480.567)" fill="#00223d"/>
          </g>
        </g>
        <g id="Group_55227" data-name="Group 55227" transform="translate(9.183 10.841)">
          <g id="Group_55226" data-name="Group 55226">
            <path id="Path_118926" data-name="Path 118926" d="M1334.038,484.323c.1.06.108.154.011.21l-2.618,1.5a.406.406,0,0,1-.361-.008l-2.908-1.7c-.1-.059-.107-.154-.011-.208l2.618-1.5a.4.4,0,0,1,.363.008Z" transform="translate(-1328.082 -482.572)" fill="#00223d"/>
          </g>
        </g>
        <g id="Group_55229" data-name="Group 55229" transform="translate(13.138 13.157)">
          <g id="Group_55228" data-name="Group 55228">
            <path id="Path_118927" data-name="Path 118927" d="M1336.523,485.775c.1.06.107.154.01.21l-2.618,1.5a.4.4,0,0,1-.361-.01l-2.908-1.7c-.1-.059-.1-.154-.011-.209l2.62-1.5a.4.4,0,0,1,.362.008Z" transform="translate(-1330.566 -484.027)" fill="#00223d"/>
          </g>
        </g>
        <g id="Group_55231" data-name="Group 55231" transform="translate(17.096 15.467)">
          <g id="Group_55230" data-name="Group 55230">
            <path id="Path_118928" data-name="Path 118928" d="M1339.01,487.23c.1.06.107.153.01.207l-2.618,1.5a.406.406,0,0,1-.361-.008l-2.908-1.7c-.1-.059-.1-.154-.01-.208l2.618-1.506a.393.393,0,0,1,.36.008Z" transform="translate(-1333.053 -485.478)" fill="#00223d"/>
          </g>
        </g>
        <g id="Group_55233" data-name="Group 55233" transform="translate(21.056 17.785)">
          <g id="Group_55232" data-name="Group 55232">
            <path id="Path_118929" data-name="Path 118929" d="M1341.5,488.681c.1.06.107.154.01.208l-2.618,1.5a.394.394,0,0,1-.358-.006l-2.91-1.7c-.1-.059-.1-.153-.01-.208l2.618-1.5a.394.394,0,0,1,.358.008Z" transform="translate(-1335.541 -486.934)" fill="#00223d"/>
          </g>
        </g>
        <g id="Group_55235" data-name="Group 55235" transform="translate(25.008 20.098)">
          <g id="Group_55234" data-name="Group 55234">
            <path id="Path_118930" data-name="Path 118930" d="M1343.983,490.136c.1.059.107.153.011.209l-2.623,1.5a.4.4,0,0,1-.361-.008l-2.905-1.7c-.1-.059-.106-.156-.013-.209l2.62-1.5a.389.389,0,0,1,.358.006Z" transform="translate(-1338.024 -488.388)" fill="#00223d"/>
          </g>
        </g>
        <g id="Group_55237" data-name="Group 55237" transform="translate(28.966 22.409)">
          <g id="Group_55236" data-name="Group 55236">
            <path id="Path_118931" data-name="Path 118931" d="M1346.467,491.589c.1.059.108.154.011.209l-2.618,1.5a.406.406,0,0,1-.361-.008l-2.908-1.7c-.1-.059-.107-.154-.011-.208l2.618-1.5a.406.406,0,0,1,.361.008Z" transform="translate(-1340.511 -489.84)" fill="#00223d"/>
          </g>
        </g>
        <g id="Group_55239" data-name="Group 55239" transform="translate(32.924 24.724)">
          <g id="Group_55238" data-name="Group 55238">
            <path id="Path_118932" data-name="Path 118932" d="M1348.953,493.042c.1.06.108.154.011.21l-2.618,1.5a.4.4,0,0,1-.361-.01l-2.908-1.7c-.1-.06-.105-.156-.01-.21l2.618-1.5a.4.4,0,0,1,.361.008Z" transform="translate(-1342.998 -491.294)" fill="#00223d"/>
          </g>
        </g>
        <g id="Group_55241" data-name="Group 55241" transform="translate(36.877 27.038)">
          <g id="Group_55240" data-name="Group 55240">
            <path id="Path_118933" data-name="Path 118933" d="M1351.441,494.5c.1.059.107.154.011.208l-2.623,1.5a.4.4,0,0,1-.361-.008l-2.907-1.7c-.1-.059-.106-.156-.011-.208l2.618-1.5a.4.4,0,0,1,.361.01Z" transform="translate(-1345.481 -492.748)" fill="#00223d"/>
          </g>
        </g>
        <g id="Group_55243" data-name="Group 55243" transform="translate(40.836 29.351)">
          <g id="Group_55242" data-name="Group 55242">
            <path id="Path_118934" data-name="Path 118934" d="M1353.924,495.949c.1.059.108.154.011.208l-2.618,1.5a.4.4,0,0,1-.361-.01l-2.908-1.7c-.1-.059-.1-.154-.011-.208l2.62-1.5a.4.4,0,0,1,.361.008Z" transform="translate(-1347.968 -494.201)" fill="#00223d"/>
          </g>
        </g>
        <g id="Group_55245" data-name="Group 55245" transform="translate(44.792 31.664)">
          <g id="Group_55244" data-name="Group 55244">
            <path id="Path_118935" data-name="Path 118935" d="M1356.409,497.4c.1.06.108.154.013.21l-2.62,1.5a.407.407,0,0,1-.361-.008l-2.908-1.7c-.1-.06-.1-.156-.011-.21l2.623-1.5a.391.391,0,0,1,.361.01Z" transform="translate(-1350.453 -495.654)" fill="#00223d"/>
          </g>
        </g>
        <g id="Group_55247" data-name="Group 55247" transform="translate(62.286 29.778)">
          <g id="Group_55246" data-name="Group 55246">
            <path id="Path_118936" data-name="Path 118936" d="M1371.053,498.351c.1.06.107.154.011.21l-2.62,1.5a.4.4,0,0,1-.361-.01l-3.231-1.889-.371-.216-2.958-1.729c-.1-.059-.107-.154-.01-.209l2.618-1.5a.4.4,0,0,1,.361.01l2.956,1.729.371.215Z" transform="translate(-1361.444 -494.469)" fill="#00223d"/>
          </g>
        </g>
        <g id="Group_55249" data-name="Group 55249" transform="translate(59.556 32.233)">
          <g id="Group_55248" data-name="Group 55248">
            <path id="Path_118937" data-name="Path 118937" d="M1368.572,499.444c.1.06.108.154.011.21l-2.62,1.5a.4.4,0,0,1-.356-.01l-2.838-1.654-.372-.218-2.587-1.514c-.1-.06-.108-.154-.013-.208l2.618-1.5a.4.4,0,0,1,.358.008l2.59,1.514.373.218Z" transform="translate(-1359.729 -496.012)" fill="#00223d"/>
          </g>
        </g>
        <g id="Group_55251" data-name="Group 55251" transform="translate(53.233 32.582)">
          <g id="Group_55250" data-name="Group 55250">
            <path id="Path_118938" data-name="Path 118938" d="M1367.427,501.32c.1.06.108.154.011.21l-2.618,1.5a.407.407,0,0,1-.362-.008l-5.343-3.124-.372-.218-1.267-.742-.372-.218-1.267-.74c-.1-.059-.108-.154-.011-.208l2.618-1.5a.4.4,0,0,1,.361.008l1.269.742.371.216,1.269.742.373.218Z" transform="translate(-1355.757 -496.231)" fill="#00223d"/>
          </g>
        </g>
        <g id="Group_55253" data-name="Group 55253" transform="translate(48.75 33.98)">
          <g id="Group_55252" data-name="Group 55252">
            <path id="Path_118939" data-name="Path 118939" d="M1358.9,498.858c.1.059.108.153.011.208l-2.622,1.5a.406.406,0,0,1-.361-.008l-2.908-1.7c-.1-.06-.107-.156-.011-.21l2.623-1.5a.4.4,0,0,1,.361.008Z" transform="translate(-1352.94 -497.109)" fill="#00223d"/>
          </g>
        </g>
        <g id="Group_55255" data-name="Group 55255" transform="translate(52.679 36.276)">
          <g id="Group_55254" data-name="Group 55254">
            <path id="Path_118940" data-name="Path 118940" d="M1364.165,501.938c.1.059.106.153.01.209l-2.618,1.5a.4.4,0,0,1-.362-.008L1357.7,501.6l-.369-.216-.737-.431-.373-.216-.735-.431c-.1-.06-.105-.154-.013-.208l2.623-1.5a.4.4,0,0,1,.361.01l.737.43.371.218.737.431.371.216Z" transform="translate(-1355.409 -498.552)" fill="#00223d"/>
          </g>
        </g>
        <path id="Path_118941" data-name="Path 118941" d="M1328.167,483.579c.1.06.105.153.008.208l-2.618,1.5a.4.4,0,0,1-.356-.008l-2.808-1.641c-.1-.059-.107-.154-.011-.208l2.62-1.5a.4.4,0,0,1,.361.006Z" transform="translate(-1322.313 -472.134)" fill="#00223d"/>
        <path id="Path_118942" data-name="Path 118942" d="M1330.727,485.074c.1.06.108.154.011.21l-2.618,1.5a.4.4,0,0,1-.361-.008l-2.908-1.7c-.1-.059-.107-.153-.01-.208l2.618-1.5a.4.4,0,0,1,.361.008Z" transform="translate(-1320.858 -471.282)" fill="#00223d"/>
        <path id="Path_118943" data-name="Path 118943" d="M1333.216,486.53c.1.06.107.154.011.21l-2.623,1.5a.4.4,0,0,1-.362-.01l-2.906-1.7c-.1-.06-.108-.154-.013-.208l2.62-1.5a.4.4,0,0,1,.361.01Z" transform="translate(-1319.388 -470.423)" fill="#00223d"/>
        <path id="Path_118944" data-name="Path 118944" d="M1335.7,487.982c.1.059.108.154.013.208l-2.62,1.5a.4.4,0,0,1-.361-.006l-2.906-1.7c-.1-.059-.108-.153-.011-.208l2.618-1.5a.4.4,0,0,1,.361.01Z" transform="translate(-1317.916 -469.562)" fill="#00223d"/>
        <path id="Path_118945" data-name="Path 118945" d="M1358.689,501.425c.111.065.124.164.027.22l-2.615,1.5a.411.411,0,0,1-.377-.017L1332.241,489.4c-.113-.067-.126-.164-.03-.221l2.623-1.5a.419.419,0,0,1,.379.019Z" transform="translate(-1316.494 -468.731)" fill="#00223d"/>
        <path id="Path_118946" data-name="Path 118946" d="M1353.356,498.309c.1.059.108.153.011.208l-2.618,1.5a.4.4,0,0,1-.361-.008l-2.908-1.7c-.1-.06-.106-.154-.011-.21l2.62-1.5a.4.4,0,0,1,.361.008Z" transform="translate(-1307.468 -463.454)" fill="#00223d"/>
        <g id="Group_55257" data-name="Group 55257" transform="translate(43.888 35.419)">
          <g id="Group_55256" data-name="Group 55256">
            <path id="Path_118947" data-name="Path 118947" d="M1355.844,499.761c.1.06.107.154.011.21l-2.62,1.5a.407.407,0,0,1-.361-.008l-2.908-1.7c-.1-.059-.106-.153-.011-.209l2.623-1.5a.4.4,0,0,1,.361.008Z" transform="translate(-1349.886 -498.013)" fill="#00223d"/>
          </g>
        </g>
        <g id="Group_55259" data-name="Group 55259" transform="translate(49.438 37.733)">
          <g id="Group_55258" data-name="Group 55258">
            <path id="Path_118948" data-name="Path 118948" d="M1357.736,501.213c.1.06.108.154.011.21l-1.027.589a.4.4,0,0,1-.361-.008l-2.908-1.7c-.1-.061-.107-.154-.01-.21l1.027-.589a.4.4,0,0,1,.361.01Z" transform="translate(-1353.372 -499.467)" fill="#00223d"/>
          </g>
        </g>
        <g id="Group_55261" data-name="Group 55261" transform="translate(47.845 38.648)">
          <g id="Group_55260" data-name="Group 55260">
            <path id="Path_118949" data-name="Path 118949" d="M1356.737,501.788c.1.06.1.156.011.21l-1.027.589a.4.4,0,0,1-.361-.01l-2.908-1.7c-.1-.059-.108-.153-.011-.208l1.027-.589a.406.406,0,0,1,.361.008Z" transform="translate(-1352.372 -500.042)" fill="#00223d"/>
          </g>
        </g>
        <path id="Path_118950" data-name="Path 118950" d="M1360.819,502.669c.1.061.107.153.01.209l-2.618,1.5a.4.4,0,0,1-.358-.006l-2.913-1.7c-.1-.059-.107-.151-.01-.208l2.618-1.5a.394.394,0,0,1,.358.008Z" transform="translate(-1303.055 -460.872)" fill="#00223d"/>
      </g>
      <line id="Línea_1638" data-name="Línea 1638" x1="118.786" y2="33.908" transform="translate(1341.869 410.566)" fill="none" stroke="#00223d" stroke-miterlimit="10" stroke-width="1"/>
      <line id="Línea_1639" data-name="Línea 1639" x2="43.502" y2="81.175" transform="translate(1507.472 426.193)" fill="none" stroke="#00223d" stroke-miterlimit="10" stroke-width="1"/>
      <line id="Línea_1640" data-name="Línea 1640" x1="39.943" y2="61.582" transform="translate(1442.133 429.741)" fill="none" stroke="#00223d" stroke-miterlimit="10" stroke-width="1"/>
      <g id="Grupo_55769" data-name="Grupo 55769" transform="translate(1455.196 368.224)">
        <g id="Grupo_55768" data-name="Grupo 55768">
          <g id="Group_34510" data-name="Group 34510" transform="translate(0 20.436)">
            <g id="Group_34509" data-name="Group 34509">
              <g id="Group_34507" data-name="Group 34507" transform="translate(0 18.737)">
                <path id="Path_85365" data-name="Path 85365" d="M1433.314,393.02l-.026,3.717c-.014,4.788-3.159,9.568-9.447,13.221-12.654,7.354-33.235,7.354-45.971,0-6.408-3.7-9.609-8.557-9.595-13.407l.025-3.715c-.014,4.848,3.188,9.706,9.6,13.405,12.735,7.354,33.317,7.354,45.971,0C1430.153,402.587,1433.3,397.807,1433.314,393.02Z" transform="translate(-1368.276 -392.835)" fill="#cdd1f6"/>
                <g id="Grupo_55765" data-name="Grupo 55765">
                  <g id="Grupo_55764" data-name="Grupo 55764" clip-path="url(#clip-path)">
                    <g id="Group_34506" data-name="Group 34506">
                      <g id="Group_34505" data-name="Group 34505">
                        <path id="Path_85366" data-name="Path 85366" d="M1410.413,392.95l-.026,3.715a12.835,12.835,0,0,1-3.406,8.364l.027-3.715a12.838,12.838,0,0,0,3.406-8.364Z" transform="translate(-1345.374 -392.767)" fill="#cdd1f6"/>
                        <path id="Path_85367" data-name="Path 85367" d="M1410.475,398.207l-.027,3.715a23.419,23.419,0,0,1-6.037,4.856,33.631,33.631,0,0,1-3.292,1.673l.025-3.715a33.444,33.444,0,0,0,3.292-1.673A23.489,23.489,0,0,0,1410.475,398.207Z" transform="translate(-1348.843 -389.656)" fill="#cdd1f6"/>
                        <path id="Path_85368" data-name="Path 85368" d="M1410.584,402.308l-.025,3.717c-7.381,3.269-16.638,4.452-25.394,3.549l.027-3.717c8.754.9,18.013-.28,25.392-3.549Z" transform="translate(-1358.283 -387.23)" fill="#cdd1f6"/>
                        <path id="Path_85369" data-name="Path 85369" d="M1390.171,405.764l-.027,3.717a47.393,47.393,0,0,1-13.4-3.3l.027-3.715A47.323,47.323,0,0,0,1390.171,405.764Z" transform="translate(-1363.263 -387.136)" fill="#cdd1f6"/>
                        <path id="Path_85370" data-name="Path 85370" d="M1381.788,408.165l-.027,3.715a34.748,34.748,0,0,1-3.89-1.923c-6.408-3.7-9.609-8.557-9.595-13.407l.025-3.715c-.014,4.848,3.188,9.706,9.6,13.405A34.728,34.728,0,0,0,1381.788,408.165Z" transform="translate(-1368.276 -392.835)" fill="#cdd1f6"/>
                      </g>
                    </g>
                  </g>
                </g>
              </g>
              <g id="Group_34508" data-name="Group 34508" transform="translate(0.024)">
                <path id="Path_85372" data-name="Path 85372" d="M1423.708,386.578c12.737,7.354,12.8,19.275.151,26.628s-33.236,7.354-45.971,0-12.8-19.275-.151-26.628S1410.972,379.224,1423.708,386.578Z" transform="translate(-1368.291 -381.063)" fill="#e8ecf2"/>
              </g>
            </g>
          </g>
          <g id="Group_34512" data-name="Group 34512" transform="translate(0.619 6.644)">
            <g id="Group_34511" data-name="Group 34511">
              <path id="Path_85373" data-name="Path 85373" d="M1423.047,385.34c12.5,7.215,12.562,18.914.146,26.129s-32.612,7.217-45.11,0-12.563-18.914-.146-26.129S1410.548,378.125,1423.047,385.34Z" transform="translate(-1368.665 -367.944)" fill="#00223d"/>
              <path id="Path_85374" data-name="Path 85374" d="M1423.047,384.869c12.5,7.215,12.562,18.914.146,26.129s-32.612,7.215-45.11,0-12.565-18.914-.148-26.131S1410.549,377.652,1423.047,384.869Z" transform="translate(-1368.665 -368.223)" fill="#00223d"/>
              <path id="Path_85375" data-name="Path 85375" d="M1423.047,384.4c12.5,7.215,12.562,18.913.146,26.128s-32.612,7.217-45.11,0-12.565-18.914-.148-26.129S1410.549,377.184,1423.047,384.4Z" transform="translate(-1368.665 -368.501)" fill="#00223d"/>
              <path id="Path_85376" data-name="Path 85376" d="M1423.047,383.928c12.5,7.215,12.562,18.914.146,26.129s-32.612,7.215-45.11,0-12.565-18.914-.148-26.129S1410.549,376.712,1423.047,383.928Z" transform="translate(-1368.665 -368.779)" fill="#00223d"/>
              <path id="Path_85377" data-name="Path 85377" d="M1423.047,383.458c12.5,7.215,12.562,18.914.146,26.128s-32.612,7.215-45.11,0-12.565-18.913-.148-26.128S1410.549,376.243,1423.047,383.458Z" transform="translate(-1368.665 -369.057)" fill="#00223d"/>
              <path id="Path_85378" data-name="Path 85378" d="M1423.047,382.987c12.5,7.215,12.562,18.914.146,26.129s-32.612,7.215-45.11,0-12.565-18.914-.148-26.129S1410.549,375.771,1423.047,382.987Z" transform="translate(-1368.665 -369.336)" fill="#00223d"/>
              <path id="Path_85379" data-name="Path 85379" d="M1423.047,382.515c12.5,7.215,12.562,18.914.146,26.131s-32.612,7.215-45.11,0-12.565-18.914-.148-26.129S1410.549,375.3,1423.047,382.515Z" transform="translate(-1368.665 -369.614)" fill="#00223d"/>
              <path id="Path_85380" data-name="Path 85380" d="M1423.047,382.046c12.5,7.215,12.562,18.914.146,26.129s-32.612,7.215-45.11,0-12.565-18.916-.148-26.131S1410.549,374.831,1423.047,382.046Z" transform="translate(-1368.665 -369.893)" fill="#00223d"/>
              <path id="Path_85381" data-name="Path 85381" d="M1423.047,381.575c12.5,7.215,12.562,18.914.146,26.129s-32.612,7.217-45.11,0-12.565-18.914-.148-26.129S1410.549,374.359,1423.047,381.575Z" transform="translate(-1368.665 -370.171)" fill="#00223d"/>
              <path id="Path_85382" data-name="Path 85382" d="M1423.047,381.1c12.5,7.215,12.562,18.913.146,26.128s-32.612,7.217-45.11,0-12.565-18.914-.148-26.128S1410.549,373.888,1423.047,381.1Z" transform="translate(-1368.665 -370.45)" fill="#00223d"/>
              <path id="Path_85383" data-name="Path 85383" d="M1423.047,380.634c12.5,7.215,12.562,18.914.146,26.129s-32.612,7.215-45.11,0-12.565-18.914-.148-26.129S1410.549,373.418,1423.047,380.634Z" transform="translate(-1368.665 -370.728)" fill="#00223d"/>
              <path id="Path_85384" data-name="Path 85384" d="M1423.047,380.162c12.5,7.217,12.562,18.914.146,26.131s-32.612,7.215-45.11,0-12.565-18.914-.148-26.129S1410.549,372.947,1423.047,380.162Z" transform="translate(-1368.665 -371.007)" fill="#00223d"/>
              <path id="Path_85385" data-name="Path 85385" d="M1423.047,379.693c12.5,7.215,12.562,18.914.146,26.129s-32.612,7.215-45.11,0-12.565-18.914-.148-26.129S1410.549,372.476,1423.047,379.693Z" transform="translate(-1368.665 -371.285)" fill="#00223d"/>
              <path id="Path_85386" data-name="Path 85386" d="M1423.047,379.222c12.5,7.215,12.562,18.914.146,26.131s-32.612,7.215-45.11,0-12.565-18.914-.148-26.131S1410.549,372.006,1423.047,379.222Z" transform="translate(-1368.665 -371.564)" fill="#00223d"/>
              <path id="Path_85387" data-name="Path 85387" d="M1423.047,378.752c12.5,7.215,12.562,18.913.146,26.129-6.06,3.521-13.972,5.324-22.112,5.41-8.183.086-16.6-1.716-23-5.41-12.5-7.217-12.565-18.914-.146-26.129S1410.548,371.535,1423.047,378.752Z" transform="translate(-1368.665 -371.842)" fill="#00223d"/>
              <path id="Path_85388" data-name="Path 85388" d="M1423.047,378.28c12.5,7.215,12.562,18.914.146,26.129s-32.612,7.217-45.11,0-12.563-18.917-.146-26.129S1410.548,371.065,1423.047,378.28Z" transform="translate(-1368.665 -372.12)" fill="#00223d"/>
              <path id="Path_85389" data-name="Path 85389" d="M1423.047,377.809c12.5,7.217,12.562,18.914.146,26.131s-32.612,7.215-45.11,0-12.565-18.914-.148-26.129S1410.549,370.594,1423.047,377.809Z" transform="translate(-1368.665 -372.399)" fill="#00223d"/>
            </g>
          </g>
          <g id="Group_34518" data-name="Group 34518">
            <g id="Group_34517" data-name="Group 34517">
              <g id="Group_34515" data-name="Group 34515" transform="translate(0 18.734)">
                <path id="Path_85390" data-name="Path 85390" d="M1433.314,380.183l-.026,3.715c-.014,4.788-3.159,9.568-9.447,13.221-12.654,7.354-33.235,7.354-45.971,0-6.408-3.7-9.609-8.557-9.595-13.407l.025-3.718c-.014,4.85,3.188,9.708,9.6,13.407,12.735,7.354,33.317,7.354,45.971,0C1430.153,389.748,1433.3,384.971,1433.314,380.183Z" transform="translate(-1368.276 -379.994)" fill="#cdd1f6"/>
                <g id="Grupo_55767" data-name="Grupo 55767">
                  <g id="Grupo_55766" data-name="Grupo 55766" clip-path="url(#clip-path-2)">
                    <g id="Group_34514" data-name="Group 34514">
                      <g id="Group_34513" data-name="Group 34513">
                        <path id="Path_85391" data-name="Path 85391" d="M1410.413,380.113l-.026,3.715a12.835,12.835,0,0,1-3.406,8.364l.027-3.717a12.834,12.834,0,0,0,3.406-8.363Z" transform="translate(-1345.374 -379.924)" fill="#cdd1f6"/>
                        <path id="Path_85392" data-name="Path 85392" d="M1410.475,385.367l-.027,3.717a23.458,23.458,0,0,1-6.037,4.858,34.334,34.334,0,0,1-3.292,1.673l.025-3.717a34.367,34.367,0,0,0,3.292-1.673,23.5,23.5,0,0,0,6.039-4.858Z" transform="translate(-1348.843 -376.815)" fill="#cdd1f6"/>
                        <path id="Path_85393" data-name="Path 85393" d="M1410.584,389.47l-.025,3.717c-7.381,3.268-16.638,4.45-25.394,3.548l.027-3.715c8.754.9,18.013-.282,25.392-3.549Z" transform="translate(-1358.283 -374.387)" fill="#cdd1f6"/>
                        <path id="Path_85394" data-name="Path 85394" d="M1390.171,392.927l-.027,3.715a47.286,47.286,0,0,1-13.4-3.3l.027-3.715A47.325,47.325,0,0,0,1390.171,392.927Z" transform="translate(-1363.263 -374.294)" fill="#cdd1f6"/>
                        <path id="Path_85395" data-name="Path 85395" d="M1381.788,395.327l-.027,3.715a34.477,34.477,0,0,1-3.89-1.923c-6.408-3.7-9.609-8.557-9.595-13.407l.025-3.718c-.014,4.85,3.188,9.708,9.6,13.407a34.6,34.6,0,0,0,3.89,1.923Z" transform="translate(-1368.276 -379.994)" fill="#cdd1f6"/>
                      </g>
                    </g>
                  </g>
                </g>
              </g>
              <g id="Group_34516" data-name="Group 34516" transform="translate(0.024)">
                <path id="Path_85397" data-name="Path 85397" d="M1423.708,373.739c12.737,7.354,12.8,19.276.151,26.629s-33.236,7.354-45.971,0-12.8-19.276-.151-26.629S1410.972,366.387,1423.708,373.739Z" transform="translate(-1368.291 -368.224)" fill="#e8ecf2"/>
              </g>
            </g>
          </g>
        </g>
        <path id="Trazado_118908" data-name="Trazado 118908" d="M1373.833,372.917l14.114,8.6L1382.512,385h14.195l.974-9.247-6.165,4.218-14.763-8.76Z" transform="translate(-1364.988 -366.455)" fill="#00223d"/>
        <path id="Trazado_118909" data-name="Trazado 118909" d="M1381.483,387.7l-6.245-4.137-.487,9.571h15.411l-5.516-3.65,12.086-7.544-2.839-1.7Z" transform="translate(-1364.445 -361.118)" fill="#00223d"/>
        <path id="Trazado_118910" data-name="Trazado 118910" d="M1390.217,381.045l-.892,7.868,5.921-3.934,14.357,8.638,2.433-1.866-13.546-8.274,4.786-3.244Z" transform="translate(-1355.821 -361.118)" fill="#00223d"/>
        <path id="Trazado_118911" data-name="Trazado 118911" d="M1389.325,383.07c.487-.406,12.33-7.543,12.33-7.543l-6.165-3.651h15.817v9.167l-7.056-4.056-12.735,8.193Z" transform="translate(-1355.821 -366.064)" fill="#00223d"/>
      </g>
      <g id="Group_34948" data-name="Group 34948" transform="translate(1221.377 471.75)">
        <g id="Group_34930" data-name="Group 34930" transform="translate(2.963 53.635)" opacity="0.8">
          <path id="Path_86148" data-name="Path 86148" d="M1276.61,517.422a5.152,5.152,0,0,1-2.562-.684h0l-50.035-28.888a1.552,1.552,0,0,1,0-2.685l31.527-18.2.192.111,52.405,30.255a1.553,1.553,0,0,1,.567,2.12,1.57,1.57,0,0,1-.567.567l-28.967,16.721A5.139,5.139,0,0,1,1276.61,517.422Zm-2.176-1.355a4.445,4.445,0,0,0,4.353,0l28.961-16.722a.778.778,0,0,0,0-1.348l-52.209-30.142-.051.027-31.089,17.95a.781.781,0,0,0-.285,1.065.773.773,0,0,0,.285.283Z" transform="translate(-1223.239 -466.962)" fill="#00223d"/>
        </g>
        <g id="Group_34943" data-name="Group 34943">
          <g id="Group_34942" data-name="Group 34942">
            <g id="Group_34941" data-name="Group 34941">
              <g id="Group_34935" data-name="Group 34935">
                <g id="Group_34932" data-name="Group 34932" transform="translate(34.322)">
                  <path id="Path_86149" data-name="Path 86149" d="M1243.492,475.41l6.97-41.357-.565-.236.844-.484v0a.6.6,0,0,1,.648.046l55.713,32.162a1.57,1.57,0,0,1,.723,1.41L1300.8,508.64a.524.524,0,0,1-.295.425h0l-.824.476-.142-.77.048.014-55.372-31.969A1.569,1.569,0,0,1,1243.492,475.41Z" transform="translate(-1242.616 -433.265)" fill="url(#linear-gradient)"/>
                  <path id="Path_86150" data-name="Path 86150" d="M1286.979,454.409l.915-.406a1.256,1.256,0,0,1,.118.689l-7.026,41.683a.52.52,0,0,1-.293.425h0l-.825.476-.142-.769.046.013-2.8-1.617Z" transform="translate(-1222.804 -420.995)" fill="#dee4f0"/>
                  <path id="Path_86151" data-name="Path 86151" d="M1243.67,477.139l55.7,32.163c.43.25.8.105.874-.341l7.026-41.682a1.574,1.574,0,0,0-.724-1.412L1250.843,433.7c-.43-.248-.8-.105-.874.341l-7.026,41.683A1.57,1.57,0,0,0,1243.67,477.139Z" transform="translate(-1242.94 -433.08)" fill="#00223d"/>
                  <g id="Group_34931" data-name="Group 34931" transform="translate(2.01 3.28)" opacity="0.51">
                    <path id="Path_86152" data-name="Path 86152" d="M1250.826,435.326l53.7,31-6.658,39.258L1244.2,474.606Z" transform="translate(-1244.203 -435.326)" fill="#00223d"/>
                  </g>
                </g>
                <g id="Group_34934" data-name="Group 34934" transform="translate(0 43.917)">
                  <path id="Path_86153" data-name="Path 86153" d="M1221.4,479.373l3.04,1.587,30.486-17.6a2.217,2.217,0,0,1,1.991.081l52.579,30.357c.5-.282,2.8-1.385,2.8-1.385l-1.117,2.9h0a.666.666,0,0,1-.31.345l-32.108,18.535a2.208,2.208,0,0,1-1.99-.083l-53.8-31.064a.966.966,0,0,1-.452-.479h0Z" transform="translate(-1221.366 -459.493)" fill="#00223d"/>
                  <path id="Path_86154" data-name="Path 86154" d="M1221.875,481.234l55.14,31.837a2.268,2.268,0,0,0,2.039.084l32.906-19c.522-.3.457-.829-.146-1.176l-55.138-31.837a2.263,2.263,0,0,0-2.039-.084l-32.906,19C1221.207,480.359,1221.273,480.886,1221.875,481.234Z" transform="translate(-1221.377 -460.857)" fill="url(#linear-gradient-2)"/>
                  <path id="Path_86155" data-name="Path 86155" d="M1221.874,473.646l55.14,31.837a2.263,2.263,0,0,0,2.039.084l32.907-19a.675.675,0,0,0,.318-.355.555.555,0,0,1-.318.673l-32.907,19a2.268,2.268,0,0,1-2.039-.084l-55.14-31.837c-.406-.234-.563-.547-.469-.821A.972.972,0,0,0,1221.874,473.646Z" transform="translate(-1221.376 -453.587)" fill="#fff"/>
                  <path id="Path_86156" data-name="Path 86156" d="M1267.636,489.583v-.6c0-.057-.035-.084-.078-.059l-2.133,1.232a.186.186,0,0,0-.078.148v.6c0,.057.035.084.078.059l2.133-1.23A.2.2,0,0,0,1267.636,489.583Z" transform="translate(-1195.36 -444.256)" fill="#21587b"/>
                  <path id="Path_86157" data-name="Path 86157" d="M1265.632,490.741v-.6c0-.057-.035-.083-.076-.059l-2.133,1.232a.184.184,0,0,0-.08.148v.6c0,.057.035.084.08.059l2.133-1.232A.193.193,0,0,0,1265.632,490.741Z" transform="translate(-1196.546 -443.572)" fill="#21587b"/>
                  <path id="Path_86158" data-name="Path 86158" d="M1296.433,490.544l-45.824-26.456a.985.985,0,0,0-.987,0l-16.318,9.443a.352.352,0,0,0-.131.479.366.366,0,0,0,.131.131l45.8,26.44a.982.982,0,0,0,.985,0l16.34-9.429a.352.352,0,0,0,.127-.481A.359.359,0,0,0,1296.433,490.544Z" transform="translate(-1214.424 -459.023)" fill="#d2e1f1"/>
                  <path id="Path_86159" data-name="Path 86159" d="M1296.432,491.155l-.163.094-45.661-26.362a.986.986,0,0,0-.987,0l-16.154,9.346-.162-.094a.351.351,0,0,1-.131-.479.367.367,0,0,1,.131-.13l16.316-9.44a.985.985,0,0,1,.987,0l45.823,26.456a.352.352,0,0,1,.129.481A.357.357,0,0,1,1296.432,491.155Z" transform="translate(-1214.424 -459.022)" fill="#727997"/>
                  <g id="Group_34933" data-name="Group 34933" transform="translate(21.15 8.653)">
                    <path id="Path_86160" data-name="Path 86160" d="M1245.125,467.31l38.788,22.4,1.676-1.078L1246.9,466.293Z" transform="translate(-1228.476 -466.293)" fill="#00223d"/>
                    <path id="Path_86161" data-name="Path 86161" d="M1243.543,469.546l35.215,20.332,1.207-1.348-34.655-20.006Z" transform="translate(-1229.412 -464.973)" fill="#00223d"/>
                    <path id="Path_86162" data-name="Path 86162" d="M1238.215,468.525l43.958,25.378,1.77-1.022L1239.985,467.5Z" transform="translate(-1232.565 -465.58)" fill="#00223d"/>
                    <path id="Path_86163" data-name="Path 86163" d="M1236.438,469.546l43.958,25.378,1.77-1.022-43.958-25.378Z" transform="translate(-1233.616 -464.973)" fill="#00223d"/>
                    <path id="Path_86164" data-name="Path 86164" d="M1234.665,470.569l43.958,25.378,1.77-1.022-43.96-25.373Z" transform="translate(-1234.665 -464.365)" fill="#00223d"/>
                    <path id="Path_86165" data-name="Path 86165" d="M1269.235,481.232l1.77,1.022,1.77-1.022-1.77-1.022Z" transform="translate(-1214.21 -458.058)" fill="#00223d"/>
                    <path id="Path_86166" data-name="Path 86166" d="M1265.314,482.115l3.669,2.122,1.77-1.022-3.669-2.122Z" transform="translate(-1216.53 -457.536)" fill="#00223d"/>
                  </g>
                  <path id="Path_86167" data-name="Path 86167" d="M1247.732,489.6l-12.356-7.131a.532.532,0,0,1,0-1.009l8.449-4.879a1.932,1.932,0,0,1,1.748,0l12.355,7.134a.532.532,0,0,1,0,1.009l-8.449,4.879A1.934,1.934,0,0,1,1247.732,489.6Z" transform="translate(-1213.31 -451.676)" fill="url(#linear-gradient-3)"/>
                  <path id="Path_86168" data-name="Path 86168" d="M1257.926,484.126l-12.355-7.132a1.922,1.922,0,0,0-1.748,0l-8.449,4.877a.742.742,0,0,0-.3.3c-.129-.245-.032-.521.3-.712l8.449-4.878a1.932,1.932,0,0,1,1.748,0l12.355,7.134c.334.188.433.47.3.711A.744.744,0,0,0,1257.926,484.126Z" transform="translate(-1213.307 -451.677)" fill="#727997"/>
                </g>
              </g>
              <g id="Group_34940" data-name="Group 34940" transform="translate(36.333 3.281)" opacity="0.11">
                <g id="Grupo_55771" data-name="Grupo 55771">
                  <g id="Grupo_55770" data-name="Grupo 55770" clip-path="url(#clip-path-3)">
                    <g id="Group_34939" data-name="Group 34939" transform="translate(-1.589 20.48)">
                      <g id="Group_34938" data-name="Group 34938">
                        <path id="Path_86169" data-name="Path 86169" d="M1243.7,468.57l55.14,31.837a2.267,2.267,0,0,0,2.039.086l32.905-19c.522-.3.458-.829-.145-1.178l-55.14-31.837a2.268,2.268,0,0,0-2.039-.084l-32.905,19C1243.036,467.7,1243.1,468.223,1243.7,468.57Z" transform="translate(-1243.206 -448.193)" fill="url(#linear-gradient-4)"/>
                        <path id="Path_86170" data-name="Path 86170" d="M1282.994,469.5l-12.355-7.134a.533.533,0,0,1,0-1.009l8.449-4.879a1.935,1.935,0,0,1,1.749,0l12.355,7.134a.532.532,0,0,1,0,1.009l-8.449,4.879A1.936,1.936,0,0,1,1282.994,469.5Z" transform="translate(-1227.187 -443.414)" fill="url(#linear-gradient-5)"/>
                        <path id="Path_86171" data-name="Path 86171" d="M1293.19,464.026l-12.354-7.132a1.922,1.922,0,0,0-1.748,0l-8.45,4.877a.76.76,0,0,0-.3.3c-.127-.244-.03-.519.3-.71l8.45-4.879a1.932,1.932,0,0,1,1.748,0l12.354,7.134c.334.188.431.47.3.71A.749.749,0,0,0,1293.19,464.026Z" transform="translate(-1227.186 -443.413)" fill="#9198db"/>
                        <g id="Group_34937" data-name="Group 34937" transform="translate(8.131 10.645)">
                          <path id="Path_86172" data-name="Path 86172" d="M1311.619,481.47,1265.8,455.013a.988.988,0,0,0-.988,0l-16.316,9.442a.349.349,0,0,0,0,.608l45.8,26.441a.99.99,0,0,0,.985,0l16.339-9.429a.353.353,0,0,0,.124-.482A.347.347,0,0,0,1311.619,481.47Z" transform="translate(-1248.314 -454.881)" fill="#adb1f2"/>
                          <path id="Path_86173" data-name="Path 86173" d="M1311.619,482.08l-.164.094-45.66-26.363a.988.988,0,0,0-.988,0l-16.153,9.346-.164-.094a.352.352,0,0,1-.129-.481.358.358,0,0,1,.129-.129l16.316-9.44a.988.988,0,0,1,.988,0l45.824,26.456a.35.35,0,0,1,.138.476A.332.332,0,0,1,1311.619,482.08Z" transform="translate(-1248.314 -454.881)" fill="#9198db"/>
                          <g id="Group_34936" data-name="Group 34936" transform="translate(2.865 1.938)">
                            <path id="Path_86174" data-name="Path 86174" d="M1251.691,460.491l39.921,23.048-1.582.914-39.917-23.046Z" transform="translate(-1250.114 -453.499)" fill="#24126a"/>
                            <path id="Path_86175" data-name="Path 86175" d="M1254.338,458.966l37.944,21.907-1.582.912-37.943-21.907Z" transform="translate(-1248.55 -454.401)" fill="#24126a"/>
                            <path id="Path_86176" data-name="Path 86176" d="M1279.956,473.756l3.545,2.047-1.582.912-3.543-2.045Z" transform="translate(-1233.392 -445.65)" fill="#24126a"/>
                            <path id="Path_86177" data-name="Path 86177" d="M1277.99,475.673l2.469,1.424-1.582.912-2.469-1.425Z" transform="translate(-1234.556 -444.516)" fill="#24126a"/>
                            <path id="Path_86178" data-name="Path 86178" d="M1255.994,458.009l44.318,25.59-1.582.912-44.318-25.588Z" transform="translate(-1247.571 -454.967)" fill="#24126a"/>
                            <path id="Path_86179" data-name="Path 86179" d="M1257.649,457.053l44.318,25.588-1.581.914-44.318-25.59Z" transform="translate(-1246.591 -455.533)" fill="#24126a"/>
                            <path id="Path_86180" data-name="Path 86180" d="M1259.306,456.1l44.318,25.588-1.582.912-44.318-25.588Z" transform="translate(-1245.611 -456.098)" fill="#24126a"/>
                          </g>
                        </g>
                      </g>
                    </g>
                  </g>
                </g>
              </g>
            </g>
          </g>
        </g>
        <g id="Group_34947" data-name="Group 34947" transform="translate(50.278 17.08)">
          <path id="Path_86181" data-name="Path 86181" d="M1255.916,444.749l4.345,2.51.125-.753-4.344-2.51Z" transform="translate(-1251.219 -443.996)" fill="#42e8e0"/>
          <path id="Path_86182" data-name="Path 86182" d="M1259.085,446.578l2.367,1.369.127-.753-2.367-1.369Z" transform="translate(-1249.344 -442.914)" fill="#42e8e0"/>
          <path id="Path_86183" data-name="Path 86183" d="M1262.884,448.773l1.711.99.127-.753-1.713-.99Z" transform="translate(-1247.096 -441.615)" fill="#42e8e0"/>
          <path id="Path_86184" data-name="Path 86184" d="M1262.1,448.32l.586.337.127-.751-.586-.339Z" transform="translate(-1247.559 -441.883)" fill="#42e8e0"/>
          <path id="Path_86185" data-name="Path 86185" d="M1261.017,447.691l1.063.614.127-.751-1.065-.614Z" transform="translate(-1248.201 -442.254)" fill="#42e8e0"/>
          <path id="Path_86186" data-name="Path 86186" d="M1258.076,448.372l1.712.99.127-.753-1.713-.99Z" transform="translate(-1249.941 -441.852)" fill="#42e8e0"/>
          <path id="Path_86187" data-name="Path 86187" d="M1255.551,446.914l3.357,1.939.126-.753-3.355-1.939Z" transform="translate(-1251.435 -442.715)" fill="#42e8e0"/>
          <g id="Group_34944" data-name="Group 34944" transform="translate(7.201 14.675)">
            <path id="Path_86188" data-name="Path 86188" d="M1258.573,454.595l3.357,1.94.126-.753-3.355-1.94Z" transform="translate(-1256.848 -452.846)" fill="#42e8e0"/>
            <path id="Path_86189" data-name="Path 86189" d="M1257.489,453.969l1.063.614.127-.753-1.063-.614Z" transform="translate(-1257.489 -453.216)" fill="#42e8e0"/>
          </g>
          <path id="Path_86190" data-name="Path 86190" d="M1258.925,452.428l3.355,1.939.127-.753-3.355-1.939Z" transform="translate(-1249.438 -439.452)" fill="#42e8e0"/>
          <path id="Path_86191" data-name="Path 86191" d="M1257.84,451.8l1.063.614.127-.753-1.063-.614Z" transform="translate(-1250.081 -439.825)" fill="#42e8e0"/>
          <path id="Path_86192" data-name="Path 86192" d="M1259.415,465.032l-6.322-3.655-.128.753,6.322,3.655Z" transform="translate(-1252.965 -433.712)" fill="#42e8e0"/>
          <path id="Path_86193" data-name="Path 86193" d="M1259.045,464.818l-1.565-.9-.126.753,1.563.9Z" transform="translate(-1250.367 -432.211)" fill="#42e8e0"/>
          <path id="Path_86194" data-name="Path 86194" d="M1267.795,466.3l-6.322-3.653-.127.753,6.322,3.653Z" transform="translate(-1248.006 -432.96)" fill="#42e8e0"/>
          <path id="Path_86195" data-name="Path 86195" d="M1267.424,466.087l-1.563-.9-.127.753,1.565.9Z" transform="translate(-1245.41 -431.46)" fill="#42e8e0"/>
          <path id="Path_86196" data-name="Path 86196" d="M1254.985,461.285l-1.713-.99-.126.753,1.711.99Z" transform="translate(-1252.858 -434.352)" fill="#42e8e0"/>
          <path id="Path_86197" data-name="Path 86197" d="M1261.535,462.689l-1.712-.99-.127.753,1.713.99Z" transform="translate(-1248.983 -433.521)" fill="#42e8e0"/>
          <path id="Path_86198" data-name="Path 86198" d="M1258.125,463.1l-3.357-1.939-.127.753L1258,463.85Z" transform="translate(-1251.973 -433.841)" fill="#42e8e0"/>
          <path id="Path_86199" data-name="Path 86199" d="M1258.356,463.231l-1.063-.614-.126.753,1.063.614Z" transform="translate(-1250.479 -432.978)" fill="#42e8e0"/>
          <path id="Path_86200" data-name="Path 86200" d="M1261.754,465.192l-3.355-1.939-.127.753,3.355,1.939Z" transform="translate(-1249.825 -432.602)" fill="#42e8e0"/>
          <path id="Path_86201" data-name="Path 86201" d="M1261.986,465.326l-1.063-.614-.127.753,1.063.614Z" transform="translate(-1248.331 -431.738)" fill="#42e8e0"/>
          <path id="Path_86202" data-name="Path 86202" d="M1261.353,463.772l-1.713-.99-.127.753,1.713.99Z" transform="translate(-1249.091 -432.88)" fill="#42e8e0"/>
          <path id="Path_86203" data-name="Path 86203" d="M1264.488,465.585l-3.355-1.94-.127.753,3.357,1.94Z" transform="translate(-1248.208 -432.37)" fill="#42e8e0"/>
          <path id="Path_86204" data-name="Path 86204" d="M1264.721,465.718l-1.063-.614-.127.753,1.063.614Z" transform="translate(-1246.714 -431.506)" fill="#42e8e0"/>
          <path id="Path_86205" data-name="Path 86205" d="M1256.963,461.238l-3.5-2.026-.127.753,3.5,2.025Z" transform="translate(-1252.748 -434.993)" fill="#42e8e0"/>
          <path id="Path_86206" data-name="Path 86206" d="M1258.611,462.191l-2.534-1.466-.127.753,2.534,1.464Z" transform="translate(-1251.199 -434.098)" fill="#42e8e0"/>
          <path id="Path_86207" data-name="Path 86207" d="M1259.8,462.877l-1.713-.99-.127.753,1.713.99Z" transform="translate(-1250.01 -433.41)" fill="#42e8e0"/>
          <path id="Path_86208" data-name="Path 86208" d="M1270.9,468.092l-3.5-2.026-.127.753,3.5,2.026Z" transform="translate(-1244.501 -430.937)" fill="#42e8e0"/>
          <path id="Path_86209" data-name="Path 86209" d="M1272.548,469.045l-2.534-1.466-.127.753,2.534,1.466Z" transform="translate(-1242.952 -430.042)" fill="#42e8e0"/>
          <path id="Path_86210" data-name="Path 86210" d="M1273.737,469.731l-1.713-.99-.127.753,1.713.99Z" transform="translate(-1241.763 -429.354)" fill="#42e8e0"/>
          <path id="Path_86211" data-name="Path 86211" d="M1268.689,453.313l3.5,2.026.127-.753-3.5-2.026Z" transform="translate(-1243.661 -438.929)" fill="#42e8e0"/>
          <path id="Path_86212" data-name="Path 86212" d="M1266.682,452.15l2.534,1.466.126-.753-2.534-1.464Z" transform="translate(-1244.849 -439.616)" fill="#42e8e0"/>
          <path id="Path_86213" data-name="Path 86213" d="M1265.188,451.289l1.713.99.127-.753-1.713-.99Z" transform="translate(-1245.733 -440.126)" fill="#42e8e0"/>
          <path id="Path_86214" data-name="Path 86214" d="M1267.96,451.7l3.505,2.026.127-.753-3.5-2.026Z" transform="translate(-1244.092 -439.884)" fill="#42e8e0"/>
          <path id="Path_86215" data-name="Path 86215" d="M1265.951,450.535l2.534,1.466.127-.753-2.534-1.464Z" transform="translate(-1245.281 -440.571)" fill="#42e8e0"/>
          <path id="Path_86216" data-name="Path 86216" d="M1264.456,449.674l1.713.99.127-.753-1.713-.99Z" transform="translate(-1246.166 -441.082)" fill="#42e8e0"/>
          <path id="Path_86217" data-name="Path 86217" d="M1259.07,453.7l1.184.684.127-.753-1.184-.684Z" transform="translate(-1249.353 -438.7)" fill="#42e8e0"/>
          <path id="Path_86218" data-name="Path 86218" d="M1257.67,452.891l1.564.9.126-.753-1.563-.9Z" transform="translate(-1250.181 -439.178)" fill="#42e8e0"/>
          <path id="Path_86219" data-name="Path 86219" d="M1257.159,460.161l-3.5-2.026-.128.753,3.5,2.026Z" transform="translate(-1252.632 -435.63)" fill="#42e8e0"/>
          <path id="Path_86220" data-name="Path 86220" d="M1258.808,461.115l-2.534-1.464-.127.753,2.534,1.464Z" transform="translate(-1251.082 -434.733)" fill="#42e8e0"/>
          <path id="Path_86221" data-name="Path 86221" d="M1260,461.8l-1.713-.99-.127.753,1.713.99Z" transform="translate(-1249.893 -434.047)" fill="#42e8e0"/>
          <path id="Path_86222" data-name="Path 86222" d="M1255.021,457.737l-1.184-.684-.126.753,1.182.684Z" transform="translate(-1252.524 -436.27)" fill="#42e8e0"/>
          <path id="Path_86223" data-name="Path 86223" d="M1256.563,458.628l-1.563-.9-.127.753,1.563.9Z" transform="translate(-1251.837 -435.873)" fill="#42e8e0"/>
          <path id="Path_86224" data-name="Path 86224" d="M1258.918,459.989l-2.52-1.456-.127.753,2.521,1.456Z" transform="translate(-1251.009 -435.395)" fill="#42e8e0"/>
          <path id="Path_86225" data-name="Path 86225" d="M1260.082,450.714l1.184.684.127-.753-1.184-.684Z" transform="translate(-1248.754 -440.467)" fill="#42e8e0"/>
          <path id="Path_86226" data-name="Path 86226" d="M1258.682,449.9l1.565.9.127-.753-1.565-.9Z" transform="translate(-1249.582 -440.946)" fill="#42e8e0"/>
          <path id="Path_86227" data-name="Path 86227" d="M1256.682,448.75l2.52,1.456.127-.753-2.52-1.456Z" transform="translate(-1250.766 -441.629)" fill="#42e8e0"/>
          <path id="Path_86228" data-name="Path 86228" d="M1261.214,452.471l2.52,1.458.127-.753-2.521-1.456Z" transform="translate(-1248.084 -439.426)" fill="#42e8e0"/>
          <path id="Path_86229" data-name="Path 86229" d="M1258.624,451.06l3.4,1.964.127-.753-3.4-1.964Z" transform="translate(-1249.616 -440.262)" fill="#42e8e0"/>
          <path id="Path_86230" data-name="Path 86230" d="M1257.54,450.434l1.063.614.126-.753-1.063-.614Z" transform="translate(-1250.258 -440.632)" fill="#42e8e0"/>
          <path id="Path_86231" data-name="Path 86231" d="M1256.5,449.832l1.063.614.127-.751-1.063-.616Z" transform="translate(-1250.874 -440.988)" fill="#42e8e0"/>
          <g id="Group_34946" data-name="Group 34946" transform="translate(1.479 16.525)">
            <path id="Path_86232" data-name="Path 86232" d="M1256.642,455.953l3.357,1.939.128-.753-3.357-1.939Z" transform="translate(-1252.268 -453.892)" fill="#42e8e0"/>
            <path id="Path_86233" data-name="Path 86233" d="M1255.557,455.323l1.063.614.128-.753-1.063-.614Z" transform="translate(-1252.91 -454.264)" fill="#42e8e0"/>
            <path id="Path_86234" data-name="Path 86234" d="M1256.788,457.223l1.183.684.127-.753-1.184-.684Z" transform="translate(-1252.182 -453.14)" fill="#42e8e0"/>
            <path id="Path_86235" data-name="Path 86235" d="M1259.413,456.355l1.184.683.126-.753-1.182-.683Z" transform="translate(-1250.629 -453.654)" fill="#42e8e0"/>
            <path id="Path_86236" data-name="Path 86236" d="M1260.473,456.967l2.84,1.639.127-.753-2.841-1.639Z" transform="translate(-1250.001 -453.292)" fill="#42e8e0"/>
            <path id="Path_86237" data-name="Path 86237" d="M1262.574,458.181l1.693.976.128-.753-1.694-.976Z" transform="translate(-1248.758 -452.573)" fill="#42e8e0"/>
            <path id="Path_86238" data-name="Path 86238" d="M1255.385,456.414l1.565.9.127-.753-1.565-.9Z" transform="translate(-1253.012 -453.619)" fill="#42e8e0"/>
            <g id="Group_34945" data-name="Group 34945" transform="translate(0 2.526)">
              <path id="Path_86239" data-name="Path 86239" d="M1255.3,457.527l1.184.684.126-.753-1.183-.684Z" transform="translate(-1253.065 -455.486)" fill="#42e8e0"/>
              <path id="Path_86240" data-name="Path 86240" d="M1253.894,456.718l1.563.9.127-.753-1.563-.9Z" transform="translate(-1253.894 -455.965)" fill="#42e8e0"/>
            </g>
            <path id="Path_86241" data-name="Path 86241" d="M1258.333,455.732l1.063.614.127-.753-1.063-.614Z" transform="translate(-1251.267 -454.022)" fill="#42e8e0"/>
            <path id="Path_86242" data-name="Path 86242" d="M1257.292,455.131l1.063.614.127-.753-1.063-.614Z" transform="translate(-1251.883 -454.378)" fill="#42e8e0"/>
          </g>
          <path id="Path_86243" data-name="Path 86243" d="M1262.421,449.689l3.626,2.1.127-.753-3.626-2.1Z" transform="translate(-1247.37 -441.073)" fill="#42e8e0"/>
          <path id="Path_86244" data-name="Path 86244" d="M1259.87,448.215l3.4,1.964.127-.753-3.4-1.964Z" transform="translate(-1248.879 -441.945)" fill="#42e8e0"/>
          <path id="Path_86245" data-name="Path 86245" d="M1258.786,447.588l1.063.614.127-.751-1.063-.616Z" transform="translate(-1249.521 -442.316)" fill="#42e8e0"/>
          <path id="Path_86246" data-name="Path 86246" d="M1257.745,446.987l1.063.614.127-.753-1.063-.614Z" transform="translate(-1250.137 -442.672)" fill="#42e8e0"/>
          <path id="Path_86247" data-name="Path 86247" d="M1258.026,447.15l-2.292-1.326.125-.753,2.294,1.326Z" transform="translate(-1251.327 -443.36)" fill="#42e8e0"/>
        </g>
      </g>
      <g id="Grupo_55772" data-name="Grupo 55772" transform="translate(1301.093 559.179)">
        <g id="Group_35154" data-name="Group 35154">
          <path id="Path_86498" data-name="Path 86498" d="M1314.44,522.366l14.823-8.558a1.946,1.946,0,0,0,1.128-1.611c0-.054,0-1.216,0-1.269-.062-.7-.6-.315-1.592-.888l-34.862-20.125a7.243,7.243,0,0,0-6.523-.271l-14.823,8.559c-.747.431-1.117-.326-1.127.275,0,.053,0,1.439,0,1.493a2.8,2.8,0,0,0,1.592,2l34.86,20.126A7.243,7.243,0,0,0,1314.44,522.366Z" transform="translate(-1271.459 -487.721)" fill="#00223d"/>
          <path id="Path_86499" data-name="Path 86499" d="M1314.44,521.568l14.823-8.559c1.673-.966,1.463-2.653-.468-3.768l-34.862-20.125a7.243,7.243,0,0,0-6.523-.271l-14.824,8.559c-1.671.966-1.461,2.652.47,3.766l34.86,20.127A7.253,7.253,0,0,0,1314.44,521.568Z" transform="translate(-1271.459 -488.193)" fill="url(#linear-gradient-6)"/>
          <path id="Path_86500" data-name="Path 86500" d="M1329.264,508.84l-14.823,8.559a7.247,7.247,0,0,1-6.524-.271L1273.057,497a2.75,2.75,0,0,1-1.595-2.045,2.613,2.613,0,0,0,1.595,2.212l34.86,20.127a7.257,7.257,0,0,0,6.524.271l14.823-8.56a1.907,1.907,0,0,0,1.127-1.721A1.973,1.973,0,0,1,1329.264,508.84Z" transform="translate(-1271.459 -484.191)" fill="#fff"/>
          <path id="Path_86501" data-name="Path 86501" d="M1327.173,509.462l-34.728-20.051a5.325,5.325,0,0,0-4.786-.2l-14.432,8.336c-1.227.708-1.073,1.945.344,2.763l34.728,20.051a5.338,5.338,0,0,0,4.788.2l14.43-8.333C1328.744,511.519,1328.591,510.281,1327.173,509.462Z" transform="translate(-1270.904 -487.873)" fill="#022652"/>
          <path id="Path_86502" data-name="Path 86502" d="M1287.63,489.39a4.611,4.611,0,0,1,4.175-.008l35.11,20.27a1.273,1.273,0,0,1-.013,2.411l-14.1,8.138a4.611,4.611,0,0,1-4.175.008l-35.11-20.272a1.272,1.272,0,0,1,.013-2.41Z" transform="translate(-1270.749 -487.783)" fill="#00223d"/>
        </g>
        <rect id="Rectángulo_31148" data-name="Rectángulo 31148" width="2.226" height="0.919" rx="0.289" transform="matrix(0.866, -0.5, 0.5, 0.866, 10.012, 6.244)" fill="#a8cff0"/>
      </g>
    </g>
  </g>
</svg>
