<svg xmlns="http://www.w3.org/2000/svg" xmlns:xlink="http://www.w3.org/1999/xlink" width="230.759" height="226.63" viewBox="0 0 230.759 226.63">
  <defs>
    <linearGradient id="linear-gradient" x1="0.167" y1="-0.077" x2="0.833" y2="1.077" gradientUnits="objectBoundingBox">
      <stop offset="0" stop-color="#b1b2f3"/>
      <stop offset="1" stop-color="#9d9ef0"/>
    </linearGradient>
    <linearGradient id="linear-gradient-4" x1="0.314" y1="-0.604" x2="0.686" y2="1.604" xlink:href="#linear-gradient"/>
  </defs>
  <g id="Grupo_34126" data-name="Grupo 34126" transform="translate(-336.881 -103.953)">
    <g id="Grupo_29020" data-name="Grupo 29020" transform="translate(447.472 112.128)">
      <path id="Trazado_68871" data-name="Trazado 68871" d="M543.705,126.019h0Z" transform="translate(-522.187 -120.1)" fill="#e8e8e8"/>
      <path id="Trazado_68872" data-name="Trazado 68872" d="M532.763,126.038l-1.334.261a10.119,10.119,0,0,0-1.081-2.97l1.187-.658a11.466,11.466,0,0,0-3.608-3.949l-.76,1.124a10.113,10.113,0,0,0-2.862-1.341l.376-1.3-.06-.017a11.436,11.436,0,0,0-5.286-.23l.257,1.334a10.14,10.14,0,0,0-2.973,1.073l-.654-1.189a11.469,11.469,0,0,0-3.958,3.6l1.121.762a10.132,10.132,0,0,0-1.348,2.86l-1.3-.379-.026.089a11.438,11.438,0,0,0-.237,5.254l1.334-.253a10.135,10.135,0,0,0,1.065,2.976l-1.191.651h0a11.478,11.478,0,0,0,3.586,3.969l.765-1.118a10.127,10.127,0,0,0,2.857,1.354l-.383,1.3h0l.119.035a11.447,11.447,0,0,0,5.347.218l-.264-1.333a10.136,10.136,0,0,0,2.967-1.09l.661,1.186a11.473,11.473,0,0,0,3.938-3.618l-1.126-.758a10.14,10.14,0,0,0,1.335-2.865l1.3.372.008-.03a11.416,11.416,0,0,0,.224-5.316ZM521.5,135.062a6.84,6.84,0,1,1,6.567-4.972A6.818,6.818,0,0,1,521.5,135.062Z" transform="translate(-510.018 -116.752)" fill="#e8e8e8"/>
    </g>
    <g id="Grupo_29021" data-name="Grupo 29021" transform="translate(361.877 148.288)">
      <path id="Trazado_68873" data-name="Trazado 68873" d="M608.8,421.525a39.981,39.981,0,1,0-70.259,0Z" transform="translate(-432.974 -241.668)" fill="#fff"/>
      <circle id="Elipse_3363" data-name="Elipse 3363" cx="53.236" cy="53.236" r="53.236" transform="translate(0 33.994)" fill="#fff"/>
      <circle id="Elipse_3364" data-name="Elipse 3364" cx="39.98" cy="39.98" r="39.98" transform="translate(24.48)" fill="#fff"/>
      <circle id="Elipse_3365" data-name="Elipse 3365" cx="39.98" cy="39.98" r="39.98" transform="translate(66.751 79.433) rotate(-79.905)" fill="#fff"/>
      <circle id="Elipse_3366" data-name="Elipse 3366" cx="31.4" cy="31.4" r="31.4" transform="translate(96.946 70.804)" fill="#fff"/>
      <path id="Trazado_68874" data-name="Trazado 68874" d="M399.946,370.171a39.979,39.979,0,0,0,11.407,44.364h87.594a39.974,39.974,0,0,0-44.184-66.344,39.992,39.992,0,0,0-47.268,9.475,7.305,7.305,0,1,0-7.55,12.505Z" transform="translate(-383.341 -234.678)" fill="#dfe1f7"/>
    </g>
    <g id="Grupo_29048" data-name="Grupo 29048" transform="translate(404.455 139.1)">
      <g id="Grupo_29044" data-name="Grupo 29044">
        <g id="Grupo_29043" data-name="Grupo 29043">
          <g id="Grupo_29042" data-name="Grupo 29042">
            <path id="Rectángulo_26499" data-name="Rectángulo 26499" d="M8.851,0h81.3A8.85,8.85,0,0,1,99,8.85V179.072a8.851,8.851,0,0,1-8.851,8.851H8.85A8.85,8.85,0,0,1,0,179.073V8.851A8.851,8.851,0,0,1,8.851,0Z" transform="translate(0.638 0.638)" fill="#00223d"/>
            <path id="Trazado_68906" data-name="Trazado 68906" d="M536.658,160.255a5.014,5.014,0,0,1,5.014,5.014V341.886a5.014,5.014,0,0,1-5.014,5.014H448.964a5.014,5.014,0,0,1-5.014-5.014V165.27a5.014,5.014,0,0,1,5.014-5.014h87.695m0-1.277H448.964a6.3,6.3,0,0,0-6.292,6.292V341.886a6.3,6.3,0,0,0,6.292,6.292h87.695a6.3,6.3,0,0,0,6.292-6.292V165.27a6.3,6.3,0,0,0-6.292-6.292Z" transform="translate(-442.672 -158.978)" fill="#b4b7c6"/>
          </g>
        </g>
      </g>
      <g id="Grupo_29045" data-name="Grupo 29045" transform="translate(1.277 10.907)">
        <path id="Trazado_68907" data-name="Trazado 68907" d="M542.4,181.847v155.8a5.794,5.794,0,0,1-5.794,5.795H450.466a5.794,5.794,0,0,1-5.794-5.795v-155.8a5.794,5.794,0,0,1,5.794-5.794H536.6A5.794,5.794,0,0,1,542.4,181.847Z" transform="translate(-444.672 -176.053)" fill="#00926e"/>
      </g>
      <g id="Grupo_29046" data-name="Grupo 29046" transform="translate(43.047 5.116)">
        <path id="Trazado_68908" data-name="Trazado 68908" d="M523.13,169.225H511.183a1.118,1.118,0,0,1-1.118-1.118h0a1.119,1.119,0,0,1,1.118-1.118H523.13a1.118,1.118,0,0,1,1.119,1.118h0A1.118,1.118,0,0,1,523.13,169.225Z" transform="translate(-510.065 -166.988)" fill="#fff"/>
      </g>
      <g id="Grupo_29047" data-name="Grupo 29047" transform="translate(38.434 5.116)">
        <path id="Trazado_68909" data-name="Trazado 68909" d="M505.08,168.106a1.118,1.118,0,1,1-1.118-1.118A1.118,1.118,0,0,1,505.08,168.106Z" transform="translate(-502.843 -166.988)" fill="#fff"/>
      </g>
    </g>
    <path id="Rectángulo_26500" data-name="Rectángulo 26500" d="M2.949,0H75.231a2.949,2.949,0,0,1,2.949,2.949v3.3a2.948,2.948,0,0,1-2.948,2.948H2.948A2.948,2.948,0,0,1,0,6.245v-3.3A2.949,2.949,0,0,1,2.949,0Z" transform="translate(415.504 213.542)" fill="#e6e7e8" style="mix-blend-mode: multiply;isolation: isolate"/>
    <rect id="Rectángulo_26501" data-name="Rectángulo 26501" width="23.034" height="10.853" rx="2.106" transform="translate(415.103 158.706)" fill="#e6e7e8" style="mix-blend-mode: multiply;isolation: isolate"/>
    <rect id="Rectángulo_26502" data-name="Rectángulo 26502" width="23.034" height="10.853" rx="2.106" transform="translate(443.078 158.706)" fill="#e6e7e8" style="mix-blend-mode: multiply;isolation: isolate"/>
    <rect id="Rectángulo_26503" data-name="Rectángulo 26503" width="23.034" height="10.853" rx="2.106" transform="translate(471.051 158.706)" fill="#e6e7e8" style="mix-blend-mode: multiply;isolation: isolate"/>
    <rect id="Rectángulo_26504" data-name="Rectángulo 26504" width="34.449" height="34.449" rx="2.455" transform="translate(418.382 250.363)" stroke="#707070" stroke-miterlimit="10" stroke-width="8" opacity="0.4" fill="url(#linear-gradient)" style="mix-blend-mode: multiply;isolation: isolate"/>
    <rect id="Rectángulo_26505" data-name="Rectángulo 26505" width="34.449" height="34.449" rx="2.455" transform="translate(463.074 250.363)" stroke="#707070" stroke-miterlimit="10" stroke-width="8" opacity="0.4" fill="url(#linear-gradient)" style="mix-blend-mode: multiply;isolation: isolate"/>
    <rect id="Rectángulo_26506" data-name="Rectángulo 26506" width="34.448" height="34.449" rx="2.455" transform="translate(507.767 250.363)" stroke="#707070" stroke-miterlimit="10" stroke-width="8" opacity="0.4" fill="url(#linear-gradient)" style="mix-blend-mode: multiply;isolation: isolate"/>
    <rect id="Rectángulo_26507" data-name="Rectángulo 26507" width="34.449" height="34.449" rx="2.455" transform="translate(415.923 247.904)" fill="#e8e8e8"/>
    <rect id="Rectángulo_26508" data-name="Rectángulo 26508" width="34.449" height="34.449" rx="2.455" transform="translate(460.616 247.904)" fill="#e8e8e8"/>
    <rect id="Rectángulo_26509" data-name="Rectángulo 26509" width="34.449" height="16.553" rx="1.702" transform="translate(460.616 289.036)" fill="#e6e7e8" style="mix-blend-mode: multiply;isolation: isolate"/>
    <rect id="Rectángulo_26510" data-name="Rectángulo 26510" width="34.449" height="16.553" rx="1.702" transform="translate(415.575 289.036)" fill="#e6e7e8" style="mix-blend-mode: multiply;isolation: isolate"/>
    <rect id="Rectángulo_26511" data-name="Rectángulo 26511" width="34.448" height="34.449" rx="2.455" transform="translate(505.309 247.904)" fill="#e8e8e8"/>
    <g id="Grupo_29049" data-name="Grupo 29049" transform="translate(415.103 172.447)">
      <rect id="Rectángulo_26512" data-name="Rectángulo 26512" width="23.034" height="2.566" rx="1.283" fill="#e8e8e8"/>
      <rect id="Rectángulo_26513" data-name="Rectángulo 26513" width="23.034" height="2.566" rx="1.283" transform="translate(27.974)" fill="#e8e8e8"/>
      <rect id="Rectángulo_26514" data-name="Rectángulo 26514" width="23.034" height="2.566" rx="1.283" transform="translate(55.947)" fill="#e8e8e8"/>
    </g>
    <g id="Grupo_29050" data-name="Grupo 29050" transform="translate(415.103 177.873)" style="mix-blend-mode: multiply;isolation: isolate">
      <rect id="Rectángulo_26515" data-name="Rectángulo 26515" width="23.034" height="2.566" rx="1.283" fill="#e6e7e8"/>
      <rect id="Rectángulo_26516" data-name="Rectángulo 26516" width="23.034" height="2.566" rx="1.283" transform="translate(27.974)" fill="#e6e7e8"/>
      <rect id="Rectángulo_26517" data-name="Rectángulo 26517" width="23.034" height="2.566" rx="1.283" transform="translate(55.947)" fill="#e6e7e8"/>
    </g>
    <g id="Grupo_29053" data-name="Grupo 29053" transform="translate(526.93 252.718)">
      <path id="Trazado_68910" data-name="Trazado 68910" d="M669.036,409.148c-1.727-.145-1.851-9.812-1.584-13.916s1.243-7.287,3.352-7.11,2.541,3.479,2.118,7.57S670.764,409.294,669.036,409.148Z" transform="translate(-646.31 -355.372)" fill="#ffc8af"/>
      <path id="Trazado_68911" data-name="Trazado 68911" d="M677.708,436.879c-1.426.576-6.663-11.94-7.806-14.769s-2.131-5.906-.533-6.551,3.023,2.253,4.167,5.083S679.134,436.3,677.708,436.879Z" transform="translate(-646.74 -365.253)" fill="#ffc8af"/>
      <path id="Trazado_68912" data-name="Trazado 68912" d="M681.511,443.247c-.934.642-2.867,1.056-3.043.73s.125-1.244.392-1.906l0-.006c.08-.2.156-.37.214-.5.069-.162.115-.257.115-.257s-3.1-12.233-2.523-12.389c.621-.168,4.764,11.972,4.764,11.972s.02.077.055.185l.047.156.316,1.053C681.892,442.416,682.2,442.784,681.511,443.247Z" transform="translate(-649.654 -370.113)" fill="#ffc8af"/>
      <path id="Trazado_68913" data-name="Trazado 68913" d="M682.538,450.212c-.934.642-2.867,1.056-3.043.73s.125-1.244.392-1.906l0-.006c.081-.2.156-.37.214-.5.059.122.148.3.217.464.122.28.282.283.852-.091a11.091,11.091,0,0,1,1.389-.7s.369.774.47,1.041C683.081,449.366,683.223,449.75,682.538,450.212Z" transform="translate(-650.68 -377.078)" fill="#00223d"/>
      <g id="Grupo_29052" data-name="Grupo 29052" transform="translate(22.153 12.577)">
        <path id="Trazado_68914" data-name="Trazado 68914" d="M679.023,371.332c-1.154.48-4.56-5.961-5.8-8.8s-1.714-5.3-.307-5.887,2.82,1.484,3.958,4.368S680.176,370.853,679.023,371.332Z" transform="translate(-670.164 -356.544)" fill="#ffc8af"/>
        <g id="Grupo_29051" data-name="Grupo 29051" transform="translate(0 12.803)">
          <path id="Trazado_68915" data-name="Trazado 68915" d="M672.661,390.467c-1.007-.462,2.112-8,3.07-10.089s2.124-4.23,3.254-3.712.271,2.8-.687,4.888S673.668,390.928,672.661,390.467Z" transform="translate(-670.313 -376.587)" fill="#ffc8af"/>
          <path id="Trazado_68916" data-name="Trazado 68916" d="M672.274,395.2c1.226.455.177,2.527-.206,3.221a3.078,3.078,0,0,1-2.812,1.453c-.442-.236,1.165-2.687,1.11-2.828s-.787,1.257-1.18.992.582-1.921,1.219-2.428A1.671,1.671,0,0,1,672.274,395.2Z" transform="translate(-669.096 -383.264)" fill="#ffc8af"/>
        </g>
      </g>
      <path id="Trazado_68917" data-name="Trazado 68917" d="M666.724,442.648c.1.415.315.88.089,1.291a1.138,1.138,0,0,1-.807.476,9.15,9.15,0,0,1-1.343.192,4.91,4.91,0,0,1-.547.044c-.152,0-.3-.028-.452-.037-.3-.018-.594-.006-.891-.031-.029,0-.229,0-.256-.035s.024-.094.049-.116c.128-.112.3-.162.427-.268.148-.119.283-.254.433-.371a4.131,4.131,0,0,1,.969-.587c.067-.028-1.981-12.865-1.37-13C663.579,430.086,666.723,442.642,666.724,442.648Z" transform="translate(-644.564 -370.578)" fill="#ffc8af"/>
      <path id="Trazado_68918" data-name="Trazado 68918" d="M656.595,410.164c-1.694-.37-.554-9.97.246-14s2.184-7.062,4.252-6.611,2.065,3.781,1.111,7.781S658.288,410.534,656.595,410.164Z" transform="translate(-642.11 -355.874)" fill="#ffc8af"/>
      <path id="Trazado_68919" data-name="Trazado 68919" d="M663.546,438.1c-1.467.46-5.932-12.369-6.845-15.281s-1.652-6.057-.008-6.573,2.833,2.488,3.747,5.4S665.012,437.64,663.546,438.1Z" transform="translate(-642.11 -365.514)" fill="#ffc8af"/>
      <path id="Trazado_68920" data-name="Trazado 68920" d="M666.473,450.671v1.443a.263.263,0,0,1-.263.263l-4.644,0a.421.421,0,0,1-.254-.758,17.6,17.6,0,0,1,2.558-1.391c.19.167.476.685.81.747A9.332,9.332,0,0,0,666.473,450.671Z" transform="translate(-644.07 -377.81)" fill="#00223d"/>
      <path id="Trazado_68921" data-name="Trazado 68921" d="M638.035,365.192c.724-.825,7,4.277,8.714,5.782s3.415,3.219,2.6,4.145-2.733-.536-4.449-2.04S637.311,366.018,638.035,365.192Z" transform="translate(-635.7 -347.059)" fill="#ffc8af"/>
      <path id="Trazado_68922" data-name="Trazado 68922" d="M669.794,379.851,659.04,379.4l-.471-18.4.743-4.621,4.967-1.826,3.2.611a3.753,3.753,0,0,1,3.047,3.818l-1.166,13.021Z" transform="translate(-643.14 -343.25)" fill="#ffc8af"/>
      <path id="Trazado_68923" data-name="Trazado 68923" d="M667.227,351.011v3.7a5.49,5.49,0,0,1-2.609.467c-.986,0-1.207-.467-1.207-.467v-1.367Z" transform="translate(-644.889 -341.968)" fill="#ffc8af"/>
      <path id="Trazado_68924" data-name="Trazado 68924" d="M665.759,343.614c-.008.134-.013.259-.022.38,0,.043,0,.086,0,.134.091,2.195-1.318,4.545-3.438,4.864,0,0-.017,0-.048.009s-.043,0-.073,0c-.453.056-2.1.19-2.7-.471a5.587,5.587,0,0,1-1.331-3.176,12.444,12.444,0,0,1,.178-1.6c0-.307-.165-1.267-.168-1.683a3.68,3.68,0,0,1,3.645-3.9C665.323,338.175,665.859,341.255,665.759,343.614Z" transform="translate(-642.991 -337.331)" fill="#ffc8af"/>
      <path id="Trazado_68925" data-name="Trazado 68925" d="M663.414,356.6" transform="translate(-644.891 -343.989)" fill="#6ebaad"/>
      <path id="Trazado_68926" data-name="Trazado 68926" d="M658.275,356.472c-.747.693-1.329,1.906-1.469,4.388a9.155,9.155,0,0,0,.377,4.917c1.64,4.089.635,9.162.635,9.162l11.142.411s.235-7.47.616-9.853c1.149-7.19-.009-9.5-2.012-10.067C664.561,354.588,659.022,355.779,658.275,356.472Z" transform="translate(-642.439 -343.46)" fill="#21587b"/>
      <path id="Trazado_68927" data-name="Trazado 68927" d="M654.6,372.543c-1.2-.31-.048-7.442.665-10.433s1.81-5.22,3.274-4.842,1.346,2.859.524,5.822S655.8,372.852,654.6,372.543Z" transform="translate(-641.517 -344.213)" fill="#ffc8af"/>
      <path id="Trazado_68928" data-name="Trazado 68928" d="M634.52,361.312c.288-.321,1.855,1.219,2.359,1.616.076.06.13.1.149.093s.018-.029.006-.069c-.082-.246-.7-1.108-.4-1.38.33-.3,1.563.872,1.981,1.62.023.041.054.086.072.125a1.658,1.658,0,0,1-.045,1.9c-.727,1.074-2.477-.423-3.055-.956a4.059,4.059,0,0,1-1.026-1.719A1.553,1.553,0,0,1,634.52,361.312Z" transform="translate(-634.414 -345.674)" fill="#ffc8af"/>
      <path id="Trazado_68929" data-name="Trazado 68929" d="M657.121,340.387a3.327,3.327,0,0,0,.068.354c.241.981,1.01,1.552.932,2.623a4.474,4.474,0,0,0,.6,2.773c1.184,2.007-.452,1.562-.123,4.642.162,1.513,1.6,2.136,4.435,2.1s5.959-.082,5.877-2.219a3.923,3.923,0,0,0-.781-2.123,2.841,2.841,0,0,1-.715-2.534,5.9,5.9,0,0,0,.325-1.276c.064-1.073-.7-1.419-1.3-2.114-.641-.747-.266-2.01-.48-2.91-.7-2.926-3.732-3.27-6.2-2.477C658.259,337.707,656.889,338.659,657.121,340.387Z" transform="translate(-642.608 -336.854)" fill="#00223d"/>
      <path id="Trazado_68930" data-name="Trazado 68930" d="M672.8,382.215c-.093,2.338,1.67,5.4,1.943,7.732.547,4.665-2.681,13.4-2.681,13.968s3.02,8.144,4.191,12.766c0,0-.657.945-3.821,1.52,0,0-4.852-10.559-5.3-12.941s.1-22.609.1-22.609Z" transform="translate(-646.171 -353.241)" fill="#00223d"/>
      <path id="Trazado_68931" data-name="Trazado 68931" d="M663.328,382.816h-6.1a114.384,114.384,0,0,0-2.308,13.007c-.9,7.477-.616,9.7-.452,10.887s4.286,12.447,4.286,12.447a7.186,7.186,0,0,0,4.25-.986,81.465,81.465,0,0,0-2.579-9.367,29.425,29.425,0,0,1-1.322-3.615s3.43-7.313,4.286-12.53A30.866,30.866,0,0,0,663.328,382.816Z" transform="translate(-641.594 -353.458)" fill="#00223d"/>
    </g>
    <rect id="Rectángulo_26518" data-name="Rectángulo 26518" width="111.495" height="32.587" rx="1.881" transform="translate(373.993 187.687)" stroke="#707070" stroke-miterlimit="10" stroke-width="8" opacity="0.3" fill="url(#linear-gradient-4)" style="mix-blend-mode: multiply;isolation: isolate"/>
    <g id="Grupo_29065" data-name="Grupo 29065" transform="translate(368.812 183.589)">
      <g id="Grupo_29054" data-name="Grupo 29054" transform="translate(0 100.224)">
        <path id="Trazado_68932" data-name="Trazado 68932" d="M401.284,385.535v8.7h-3.073v6.88h3.073v.027h-6.247v6.88h6.247v.027H392.53v6.88h8.754v.027H389.357v6.88h11.927v.027H386.871v6.88h35.885V385.535Z" transform="translate(-386.871 -385.535)" fill="#00223d"/>
      </g>
      <path id="Trazado_68933" data-name="Trazado 68933" d="M422.155,385.535v8.7h-3.073v6.88h3.073v.027h-6.247v6.88h6.247v.027H413.4v6.88h8.754v.027H410.228v6.88h11.927v.027H407.742v6.88H430.3V385.535Z" transform="translate(-394.411 -285.311)" fill="#8998a5"/>
      <g id="Grupo_29064" data-name="Grupo 29064" transform="translate(6)">
        <path id="Trazado_68934" data-name="Trazado 68934" d="M427.418,338.565c1.826-.153,1.956-10.37,1.675-14.707s-1.314-7.7-3.543-7.514-2.685,3.676-2.238,8S425.592,338.718,427.418,338.565Z" transform="translate(-405.979 -260.313)" fill="#ffc8af"/>
        <path id="Trazado_68935" data-name="Trazado 68935" d="M416.025,367.869c1.506.608,7.042-12.618,8.249-15.608s2.252-6.241.563-6.923-3.2,2.382-4.4,5.373S414.518,367.261,416.025,367.869Z" transform="translate(-403.296 -270.755)" fill="#ffc8af"/>
        <path id="Trazado_68936" data-name="Trazado 68936" d="M414.455,374.6c.988.679,3.031,1.117,3.216.772s-.132-1.315-.415-2.014l0-.006c-.085-.207-.165-.391-.226-.527-.073-.172-.121-.271-.121-.271s3.272-12.928,2.666-13.092c-.657-.178-5.035,12.652-5.035,12.652s-.022.08-.058.2l-.05.165-.333,1.113C414.053,373.721,413.731,374.111,414.455,374.6Z" transform="translate(-402.667 -275.891)" fill="#ffc8af"/>
        <path id="Trazado_68937" data-name="Trazado 68937" d="M414.4,381.96c.988.679,3.031,1.117,3.216.772s-.132-1.315-.415-2.014l0-.006c-.085-.207-.165-.392-.226-.527-.062.13-.156.321-.23.49-.128.3-.3.3-.9-.1a11.648,11.648,0,0,0-1.469-.744s-.39.818-.5,1.1C413.822,381.066,413.672,381.472,414.4,381.96Z" transform="translate(-402.608 -283.252)" fill="#21587b"/>
        <path id="Trazado_68938" data-name="Trazado 68938" d="M426.373,327.746s.075,9.334-.342,11.288-8.548,20.639-8.548,20.639a11.557,11.557,0,0,1-3.113-.885s3.039-10.68,4.3-14.5,2.388-5.6,2.3-6.99-1.476-12.981-1.476-12.981l6.886-.291Z" transform="translate(-402.805 -263.091)" fill="#00223d"/>
        <g id="Grupo_29057" data-name="Grupo 29057" transform="translate(17.256 20.326)">
          <g id="Grupo_29055" data-name="Grupo 29055" transform="translate(13.057)">
            <path id="Trazado_68939" data-name="Trazado 68939" d="M456.523,265.042c-.724-.92-7.692,4.152-9.6,5.656s-3.818,3.232-3.007,4.264,2.94-.415,4.851-1.919S457.247,265.962,456.523,265.042Z" transform="translate(-443.722 -262.069)" fill="#ffc8af"/>
            <path id="Trazado_68940" data-name="Trazado 68940" d="M460.773,264.757c.772,1.147,2.641-.445,3.258-1.01,1.006-.922,1.147-2.855.8-3.25s-2.472,1.864-2.63,1.842,1.1-1.121.726-1.458-1.829,1.074-2.192,1.854A1.766,1.766,0,0,0,460.773,264.757Z" transform="translate(-449.759 -260.45)" fill="#ffc8af"/>
          </g>
          <g id="Grupo_29056" data-name="Grupo 29056" transform="translate(0 10.963)">
            <path id="Trazado_68941" data-name="Trazado 68941" d="M439.872,278.083c-.39-1.261-7.925.321-11.073,1.23s-5.466,2.188-4.991,3.727,3.111,1.29,6.224.267S440.26,279.344,439.872,278.083Z" transform="translate(-423.448 -277.614)" fill="#ffc8af"/>
            <path id="Trazado_68942" data-name="Trazado 68942" d="M423.575,283.676c-.758-1.369-.052-2.853,2.061-3.687a61.775,61.775,0,0,1,7.5-1.988c.056.119.106.238.153.354,1.251,2.924.687,3.852.687,3.852-3.616,1.453-7.854,2.6-9.275,2.116A4.145,4.145,0,0,1,423.575,283.676Z" transform="translate(-423.28 -277.754)" fill="#80eb9a"/>
          </g>
        </g>
        <g id="Grupo_29060" data-name="Grupo 29060">
          <rect id="Rectángulo_26519" data-name="Rectángulo 26519" width="111.495" height="32.587" rx="1.47" fill="#57cc98"/>
          <g id="Grupo_29058" data-name="Grupo 29058" transform="translate(5.05 4.747)">
            <rect id="Rectángulo_26520" data-name="Rectángulo 26520" width="23.094" height="23.094" rx="0.634" fill="#eef0f2"/>
            <path id="Trazado_68943" data-name="Trazado 68943" d="M425.647,250.077l-10.653-6.151a.405.405,0,0,0-.608.351v12.3a.405.405,0,0,0,.608.351l10.653-6.151A.406.406,0,0,0,425.647,250.077Z" transform="translate(-407.86 -238.882)" fill="#00926e"/>
          </g>
          <g id="Grupo_29059" data-name="Grupo 29059" transform="translate(35.521 6.065)">
            <rect id="Rectángulo_26521" data-name="Rectángulo 26521" width="64.961" height="2.896" rx="1.448" fill="#eef0f2"/>
            <rect id="Rectángulo_26522" data-name="Rectángulo 26522" width="64.961" height="2.896" rx="1.448" transform="translate(0 8.781)" fill="#eef0f2"/>
            <rect id="Rectángulo_26523" data-name="Rectángulo 26523" width="50.294" height="2.896" rx="1.448" transform="translate(0 17.562)" fill="#eef0f2"/>
          </g>
        </g>
        <path id="Trazado_68944" data-name="Trazado 68944" d="M430.631,373.966c-.089.354-.4,1.091-.114,1.415.178.2.607.214.848.224a2.67,2.67,0,0,0,.9-.076c.383-.109.608-.194.708-.6.227-.919.319-1.871.453-2.809.2-1.416.4-2.833.591-4.251.192-1.439.376-2.88.516-4.325.052-.538.1-1.079.123-1.619a3.056,3.056,0,0,0-.026-.953c-.014-.047-.024-.143-.085-.156C433.955,360.691,430.632,373.961,430.631,373.966Z" transform="translate(-408.595 -276.382)" fill="#ffc8af"/>
        <path id="Trazado_68945" data-name="Trazado 68945" d="M439.742,339.638c1.79-.391.584-10.537-.261-14.8s-2.308-7.464-4.493-6.987-2.182,4-1.175,8.223S437.952,340.028,439.742,339.638Z" transform="translate(-409.594 -260.843)" fill="#ffc8af"/>
        <path id="Trazado_68946" data-name="Trazado 68946" d="M431.758,369.16c1.55.486,6.269-13.071,7.234-16.15s1.746-6.4.009-6.946-2.995,2.629-3.96,5.707S430.208,368.674,431.758,369.16Z" transform="translate(-408.956 -271.031)" fill="#ffc8af"/>
        <path id="Trazado_68947" data-name="Trazado 68947" d="M430.245,382.446v1.525a.278.278,0,0,0,.279.277l4.907,0a.445.445,0,0,0,.268-.8,18.614,18.614,0,0,0-2.7-1.468c-.2.177-.5.724-.855.789A9.843,9.843,0,0,1,430.245,382.446Z" transform="translate(-408.54 -284.025)" fill="#21587b"/>
        <path id="Trazado_68948" data-name="Trazado 68948" d="M422.89,307.6h12.089l.5-19.443-.9-5.486-5.858-1.8-3.381.645a3.966,3.966,0,0,0-3.221,4.035l1.232,13.761Z" transform="translate(-405.603 -247.502)" fill="#ffc8af"/>
        <path id="Trazado_68949" data-name="Trazado 68949" d="M430.47,276.8v3.907a5.8,5.8,0,0,0,2.757.493c1.042,0,1.276-.493,1.276-.493v-1.444Z" transform="translate(-408.621 -246.032)" fill="#ffc8af"/>
        <path id="Trazado_68950" data-name="Trazado 68950" d="M429.752,268.987c.009.142.013.274.022.4,0,.046,0,.091,0,.142-.1,2.319,1.392,4.8,3.634,5.141,0,0,.019,0,.05.009s.045,0,.077,0c.48.059,2.215.2,2.849-.5a5.9,5.9,0,0,0,1.407-3.357,13.189,13.189,0,0,0-.187-1.688c0-.324.174-1.339.177-1.779a3.888,3.888,0,0,0-3.852-4.123C430.213,263.239,429.646,266.494,429.752,268.987Z" transform="translate(-408.357 -241.132)" fill="#ffc8af"/>
        <path id="Trazado_68951" data-name="Trazado 68951" d="M436.781,283.034" transform="translate(-410.901 -248.283)" fill="#6ebaad"/>
        <g id="Grupo_29062" data-name="Grupo 29062" transform="translate(39.077 31.119)">
          <path id="Trazado_68952" data-name="Trazado 68952" d="M470.226,281.056c-.708-.919-7.668,4.043-9.578,5.515s-3.817,3.167-3.023,4.2,2.919-.383,4.829-1.855S470.935,281.975,470.226,281.056Z" transform="translate(-457.441 -278.647)" fill="#ffc8af"/>
          <g id="Grupo_29061" data-name="Grupo 29061" transform="translate(10.414)">
            <path id="Trazado_68953" data-name="Trazado 68953" d="M476.038,278.822a.424.424,0,0,1-.164.088c-.021,0-.017-.033,0-.073.1-.254.812-1.122.514-1.428-.328-.337-1.707.816-2.2,1.576-.027.042-.063.088-.084.127a1.751,1.751,0,0,0-.08,2c.7,1.182,2.641-.281,3.286-.8a3.468,3.468,0,0,0,1.109-1.543C477.636,278.822,476.927,278.776,476.038,278.822Z" transform="translate(-473.746 -277.348)" fill="#ffc8af"/>
          </g>
        </g>
        <path id="Trazado_68954" data-name="Trazado 68954" d="M438.278,325.947c1.767,5.164,2.071,12.415,1.875,15.606s-6.55,19.8-6.55,19.8a4.771,4.771,0,0,1-3.19-.723s4.66-19.594,4.4-21.157-3.772-14.2-3.772-14.2Z" transform="translate(-408.601 -263.538)" fill="#00223d"/>
        <path id="Trazado_68955" data-name="Trazado 68955" d="M431.338,281.643a12.33,12.33,0,0,1,3.2,1.083,14.154,14.154,0,0,1,1.141,4.722c.042.733.038,2.836.012,5.477-.073,6.778-.294,17.122-.294,17.122H421.57s1.016-15.182.614-17.7c-1.214-7.6.01-10.044,2.127-10.638C427.482,280.819,429.271,281.471,431.338,281.643Z" transform="translate(-405.406 -247.639)" fill="#80eb9a"/>
        <path id="Trazado_68956" data-name="Trazado 68956" d="M436.552,268.414s-.043,1.52-.261,1.628-.261-.415-.3-.814c-.049-.453-.087-1.226-.781-1.14s-.469,1.623-.318,2.144-.78,2.611-1.382,2.676-3.012.261-3.337-.239a10.245,10.245,0,0,1-1.129-4.255c-.065-1.889-.434-4.472,1.324-5.036,0,0,.257-1.359,2.8-1.033s2.71.664,3.732.685a3.575,3.575,0,0,0,1.2-.261s.469,2.165-.92,2.556c0,0,.324,1.46-.175,1.7S436.578,267.91,436.552,268.414Z" transform="translate(-408.077 -240.791)" fill="#00223d"/>
        <g id="Grupo_29063" data-name="Grupo 29063" transform="translate(25.841 34.745)">
          <path id="Trazado_68957" data-name="Trazado 68957" d="M451.8,291.735c.59-1.168-5.878-5.225-8.752-6.743s-5.408-2.2-6.129-.774,1.334,3.062,4.26,4.474S451.214,292.9,451.8,291.735Z" transform="translate(-436.741 -283.173)" fill="#ffc8af"/>
          <path id="Trazado_68958" data-name="Trazado 68958" d="M437.376,283.357c-1.216.986-.694,2.768,1.175,4.057a61.785,61.785,0,0,0,6.862,3.631c.08-.1.156-.208.229-.31,1.879-2.566,1.539-3.6,1.539-3.6C443.986,284.9,439,282.04,437.376,283.357Z" transform="translate(-436.72 -283.024)" fill="#80eb9a"/>
        </g>
        <path id="Trazado_68959" data-name="Trazado 68959" d="M467.473,288.012c-.3-.34-1.96,1.287-2.492,1.707.9-.141,1.738-.28,2.45-.41C467.614,288.721,467.643,288.2,467.473,288.012Z" transform="translate(-421.088 -250.064)" fill="#ffc8af"/>
      </g>
    </g>
    <path id="Trazado_68960" data-name="Trazado 68960" d="M367.443,219.533a15.285,15.285,0,1,0-8.271,13.577c2.494.809,7.1,2.283,7.1,2.283l-1.936-6.62A15.213,15.213,0,0,0,367.443,219.533Z" transform="translate(0 -36.233)" fill="#e8e8e8"/>
    <g id="Grupo_29066" data-name="Grupo 29066" transform="translate(371.493 147.969)">
      <path id="Trazado_68961" data-name="Trazado 68961" d="M399.649,172.957a5,5,0,1,0,3.921,3.921A5.007,5.007,0,0,0,399.649,172.957Zm1.781,9.906a5.687,5.687,0,0,1-5.541,0,7.593,7.593,0,0,0-4.821,7.072v.165a11.661,11.661,0,0,0,15.188,0v-.165A7.6,7.6,0,0,0,401.431,182.864Z" transform="translate(-391.069 -172.862)" fill="#e8e8e8"/>
    </g>
    <g id="Grupo_29067" data-name="Grupo 29067" transform="translate(471.332 260.857)">
      <path id="Trazado_68962" data-name="Trazado 68962" d="M547.372,356.3v-1.32l3.665-1.713v1.062l-2.862,1.311,2.862,1.311v1.061Z" transform="translate(-547.372 -350.922)" fill="#00926e"/>
      <path id="Trazado_68963" data-name="Trazado 68963" d="M557.425,349.6h1.23l-3.433,8.542H554Z" transform="translate(-549.767 -349.596)" fill="#00926e"/>
      <path id="Trazado_68964" data-name="Trazado 68964" d="M562.012,358.011V356.95l2.853-1.311-2.853-1.311v-1.062l3.665,1.713v1.32Z" transform="translate(-552.661 -350.922)" fill="#00926e"/>
    </g>
    <path id="Rectángulo_26524" data-name="Rectángulo 26524" d="M2.949,0H75.231a2.949,2.949,0,0,1,2.949,2.949v3.3a2.949,2.949,0,0,1-2.949,2.949H2.948A2.948,2.948,0,0,1,0,6.245v-3.3A2.949,2.949,0,0,1,2.949,0Z" transform="translate(415.504 227.179)" fill="#e8e8e8"/>
    <path id="Trazado_68965" data-name="Trazado 68965" d="M488.321,354.445a3.617,3.617,0,0,0-.451-1.544l.447-.249a4.131,4.131,0,0,0-.864-1.078l-.341.384a3.606,3.606,0,0,0-1.409-.775l.14-.491-.006,0a4.135,4.135,0,0,0-1.126-.157c-.08,0-.162,0-.242.007l.031.512a3.616,3.616,0,0,0-1.544.45l-.249-.448a4.144,4.144,0,0,0-1.079.864l.383.342a3.6,3.6,0,0,0-.775,1.408l-.491-.141,0,.01a4.129,4.129,0,0,0-.157,1.125c0,.08,0,.159.007.238l.512-.029a3.607,3.607,0,0,0,.45,1.544l-.448.249a4.144,4.144,0,0,0,.863,1.079l.342-.383a3.6,3.6,0,0,0,1.408.777l-.141.491.013,0a4.14,4.14,0,0,0,1.126.157c.083,0,.166,0,.249-.008l-.031-.512a3.612,3.612,0,0,0,1.543-.453l.25.447a4.119,4.119,0,0,0,1.077-.865l-.383-.34a3.6,3.6,0,0,0,.773-1.41l.491.139v0a4.133,4.133,0,0,0,.157-1.126q0-.124-.008-.245Zm-4.506,3.385h0l.026-.089Zm3-2.573a2.183,2.183,0,1,1,.084-.6A2.188,2.188,0,0,1,486.816,355.257Z" transform="translate(-51.912 -89.077)" fill="#00926e"/>
    <path id="Trazado_68966" data-name="Trazado 68966" d="M626.609,354.211v-2.071h-1.15v2.071h-2.071v1.149h2.071v2.071h1.15v-2.071h2.071v-1.149Z" transform="translate(-103.501 -89.658)" fill="#00926e"/>
    <g id="Grupo_29070" data-name="Grupo 29070" transform="translate(478.093 112.31)">
      <g id="Grupo_29069" data-name="Grupo 29069" transform="translate(0)">
        <rect id="Rectángulo_26525" data-name="Rectángulo 26525" width="80.991" height="51.456" rx="2.658" fill="#57cc98"/>
        <g id="Grupo_29068" data-name="Grupo 29068" transform="translate(7.312 5.944)">
          <rect id="Rectángulo_26526" data-name="Rectángulo 26526" width="13.62" height="0.825" rx="0.412" transform="translate(41.086)" fill="#00223d"/>
          <rect id="Rectángulo_26527" data-name="Rectángulo 26527" width="38.92" height="0.825" rx="0.412" fill="#00223d"/>
          <rect id="Rectángulo_26528" data-name="Rectángulo 26528" width="13.573" height="0.825" rx="0.412" transform="translate(52.794 4.305)" fill="#00223d"/>
          <rect id="Rectángulo_26529" data-name="Rectángulo 26529" width="11.98" height="0.825" rx="0.412" transform="translate(0 4.305)" fill="#00223d"/>
          <rect id="Rectángulo_26530" data-name="Rectángulo 26530" width="36.596" height="0.825" rx="0.412" transform="translate(14.248 4.305)" fill="#00223d"/>
          <rect id="Rectángulo_26531" data-name="Rectángulo 26531" width="23.022" height="0.825" rx="0.412" transform="translate(38.471 8.61)" fill="#00223d"/>
          <rect id="Rectángulo_26532" data-name="Rectángulo 26532" width="36.183" height="0.825" rx="0.412" transform="translate(0 8.61)" fill="#00223d"/>
          <rect id="Rectángulo_26533" data-name="Rectángulo 26533" width="17.167" height="0.825" rx="0.412" transform="translate(0 12.914)" fill="#00223d"/>
          <rect id="Rectángulo_26534" data-name="Rectángulo 26534" width="47.148" height="0.825" rx="0.412" transform="translate(19.22 12.914)" fill="#00223d"/>
          <rect id="Rectángulo_26535" data-name="Rectángulo 26535" width="56.018" height="0.825" rx="0.412" transform="translate(0 17.219)" fill="#00223d"/>
          <rect id="Rectángulo_26536" data-name="Rectángulo 26536" width="9.636" height="0.825" rx="0.412" transform="translate(0 21.524)" fill="#00223d"/>
          <rect id="Rectángulo_26537" data-name="Rectángulo 26537" width="36.821" height="0.825" rx="0.412" transform="translate(12.186 21.524)" fill="#00223d"/>
          <rect id="Rectángulo_26538" data-name="Rectángulo 26538" width="11.099" height="0.825" rx="0.412" transform="translate(51.706 21.524)" fill="#00223d"/>
          <rect id="Rectángulo_26539" data-name="Rectángulo 26539" width="37.946" height="0.825" rx="0.412" transform="translate(0 25.829)" fill="#00223d"/>
          <rect id="Rectángulo_26540" data-name="Rectángulo 26540" width="25.909" height="0.825" rx="0.412" transform="translate(40.458 25.829)" fill="#00223d"/>
          <rect id="Rectángulo_26541" data-name="Rectángulo 26541" width="6.093" height="0.825" rx="0.412" transform="translate(57.518 30.134)" fill="#00223d"/>
          <rect id="Rectángulo_26542" data-name="Rectángulo 26542" width="16.339" height="0.825" rx="0.412" transform="translate(0 30.134)" fill="#00223d"/>
          <rect id="Rectángulo_26543" data-name="Rectángulo 26543" width="36.305" height="0.825" rx="0.412" transform="translate(18.701 30.134)" fill="#00223d"/>
          <rect id="Rectángulo_26544" data-name="Rectángulo 26544" width="29.996" height="0.825" rx="0.412" transform="translate(36.371 34.439)" fill="#00223d"/>
          <rect id="Rectángulo_26545" data-name="Rectángulo 26545" width="34.121" height="0.825" rx="0.412" transform="translate(0 34.439)" fill="#00223d"/>
          <rect id="Rectángulo_26546" data-name="Rectángulo 26546" width="40.045" height="0.825" rx="0.412" transform="translate(7.312 38.743)" fill="#00223d"/>
          <rect id="Rectángulo_26547" data-name="Rectángulo 26547" width="4.687" height="0.825" rx="0.412" transform="translate(0 38.743)" fill="#00223d"/>
        </g>
      </g>
    </g>
    <rect id="Rectángulo_26548" data-name="Rectángulo 26548" width="226.091" height="3.561" rx="1.78" transform="translate(341.549 327.023)" fill="#b3b5c4"/>
    <rect id="Rectángulo_26549" data-name="Rectángulo 26549" width="85.394" height="18.292" rx="3.608" transform="translate(352.317 116.459)" fill="#00223d"/>
    <g id="Grupo_29071" data-name="Grupo 29071" transform="translate(373.037 121.231)">
      <rect id="Rectángulo_26550" data-name="Rectángulo 26550" width="57.439" height="1.238" rx="0.619" fill="#e6eef3"/>
      <rect id="Rectángulo_26551" data-name="Rectángulo 26551" width="57.439" height="1.238" rx="0.619" transform="translate(0 3.755)" fill="#e6eef3"/>
      <rect id="Rectángulo_26552" data-name="Rectángulo 26552" width="44.471" height="1.238" rx="0.619" transform="translate(0 7.51)" fill="#e6eef3"/>
    </g>
    <circle id="Elipse_3367" data-name="Elipse 3367" cx="6.584" cy="6.584" r="6.584" transform="translate(353.257 125.605) rotate(-45)" fill="#e6eef3"/>
    <g id="Grupo_29072" data-name="Grupo 29072" transform="translate(359.546 121.617)">
      <path id="Trazado_68967" data-name="Trazado 68967" d="M375.778,131.645a1.991,1.991,0,1,0,1.56,1.56A1.992,1.992,0,0,0,375.778,131.645Zm.709,3.942a2.266,2.266,0,0,1-2.2,0,3.02,3.02,0,0,0-1.918,2.813v.066a4.639,4.639,0,0,0,6.043,0V138.4A3.022,3.022,0,0,0,376.487,135.586Z" transform="translate(-372.365 -131.607)" fill="#00223d"/>
    </g>
    <g id="Grupo_29077" data-name="Grupo 29077" transform="translate(338.085 233.517)">
      <rect id="Rectángulo_26553" data-name="Rectángulo 26553" width="43.061" height="26.853" rx="2.294" fill="#cbd9e4"/>
      <g id="Grupo_29075" data-name="Grupo 29075" transform="translate(3.741 5.821)">
        <g id="Grupo_29073" data-name="Grupo 29073">
          <rect id="Rectángulo_26554" data-name="Rectángulo 26554" width="2.609" height="15.211" fill="#00223d"/>
          <rect id="Rectángulo_26555" data-name="Rectángulo 26555" width="2.609" height="15.211" transform="translate(5.59)" fill="#00223d"/>
          <rect id="Rectángulo_26556" data-name="Rectángulo 26556" width="2.609" height="15.211" transform="translate(11.179)" fill="#00223d"/>
          <rect id="Rectángulo_26557" data-name="Rectángulo 26557" width="2.609" height="15.211" transform="translate(16.769)" fill="#00223d"/>
          <rect id="Rectángulo_26558" data-name="Rectángulo 26558" width="2.609" height="15.211" transform="translate(22.358)" fill="#00223d"/>
        </g>
        <g id="Grupo_29074" data-name="Grupo 29074">
          <rect id="Rectángulo_26559" data-name="Rectángulo 26559" width="2.609" height="3.799" fill="#57cc98"/>
          <rect id="Rectángulo_26560" data-name="Rectángulo 26560" width="2.609" height="8.865" transform="translate(5.59)" fill="#57cc98"/>
          <rect id="Rectángulo_26561" data-name="Rectángulo 26561" width="2.609" height="6.468" transform="translate(11.179)" fill="#57cc98"/>
          <rect id="Rectángulo_26562" data-name="Rectángulo 26562" width="2.609" height="10.973" transform="translate(16.769)" fill="#57cc98"/>
          <rect id="Rectángulo_26563" data-name="Rectángulo 26563" width="2.609" height="12.936" transform="translate(22.358)" fill="#57cc98"/>
        </g>
      </g>
      <g id="Grupo_29076" data-name="Grupo 29076" transform="translate(31.522 5.821)" style="mix-blend-mode: multiply;isolation: isolate">
        <rect id="Rectángulo_26564" data-name="Rectángulo 26564" width="7.909" height="1.269" fill="#dce8ef"/>
        <rect id="Rectángulo_26565" data-name="Rectángulo 26565" width="7.909" height="1.269" transform="translate(0 2.788)" fill="#dce8ef"/>
        <rect id="Rectángulo_26566" data-name="Rectángulo 26566" width="7.909" height="1.269" transform="translate(0 5.577)" fill="#dce8ef"/>
        <rect id="Rectángulo_26567" data-name="Rectángulo 26567" width="7.909" height="1.269" transform="translate(0 8.365)" fill="#dce8ef"/>
        <rect id="Rectángulo_26568" data-name="Rectángulo 26568" width="7.909" height="1.269" transform="translate(0 11.154)" fill="#dce8ef"/>
        <rect id="Rectángulo_26569" data-name="Rectángulo 26569" width="7.909" height="1.269" transform="translate(0 13.942)" fill="#dce8ef"/>
      </g>
    </g>
    <g id="Grupo_29082" data-name="Grupo 29082" transform="translate(509.948 171.068)">
      <rect id="Rectángulo_26570" data-name="Rectángulo 26570" width="43.061" height="26.854" rx="2.294" transform="translate(0)" fill="#57cc98"/>
      <g id="Grupo_29078" data-name="Grupo 29078" transform="translate(4.873 2.555)" style="mix-blend-mode: multiply;isolation: isolate">
        <line id="Línea_260" data-name="Línea 260" y2="21.744" transform="translate(33.315)" fill="none" stroke="#dce8ef" stroke-miterlimit="10" stroke-width="0.5"/>
        <line id="Línea_261" data-name="Línea 261" y2="21.744" transform="translate(27.763)" fill="none" stroke="#dce8ef" stroke-miterlimit="10" stroke-width="0.5"/>
        <line id="Línea_262" data-name="Línea 262" y2="21.744" transform="translate(22.21)" fill="none" stroke="#dce8ef" stroke-miterlimit="10" stroke-width="0.5"/>
        <line id="Línea_263" data-name="Línea 263" y2="21.744" transform="translate(16.658)" fill="none" stroke="#dce8ef" stroke-miterlimit="10" stroke-width="0.5"/>
        <line id="Línea_264" data-name="Línea 264" y2="21.744" transform="translate(11.105)" fill="none" stroke="#dce8ef" stroke-miterlimit="10" stroke-width="0.5"/>
        <line id="Línea_265" data-name="Línea 265" y2="21.744" fill="none" stroke="#dce8ef" stroke-miterlimit="10" stroke-width="0.5"/>
        <line id="Línea_266" data-name="Línea 266" y2="21.744" transform="translate(5.553)" fill="none" stroke="#dce8ef" stroke-miterlimit="10" stroke-width="0.5"/>
      </g>
      <g id="Grupo_29081" data-name="Grupo 29081" transform="translate(3.766 2.903)">
        <g id="Grupo_29080" data-name="Grupo 29080">
          <path id="Trazado_68968" data-name="Trazado 68968" d="M615.456,231.2l5.553-5.377,5.552-1.4,5.553-5.5,5.553,2.213,5.553-2.8,5.553-3.042" transform="translate(-614.349 -214.196)" fill="none" stroke="#00926e" stroke-linecap="round" stroke-miterlimit="10" stroke-width="1"/>
          <g id="Grupo_29079" data-name="Grupo 29079">
            <rect id="Rectángulo_26571" data-name="Rectángulo 26571" width="2.213" height="2.213" transform="translate(0 15.901)" fill="#002b45"/>
            <rect id="Rectángulo_26572" data-name="Rectángulo 26572" width="2.213" height="2.213" transform="translate(5.553 10.524)" fill="#00223d"/>
            <rect id="Rectángulo_26573" data-name="Rectángulo 26573" width="2.213" height="2.213" transform="translate(11.105 9.129)" fill="#00223d"/>
            <rect id="Rectángulo_26574" data-name="Rectángulo 26574" width="2.213" height="2.213" transform="translate(16.658 3.632)" fill="#00223d"/>
            <rect id="Rectángulo_26575" data-name="Rectángulo 26575" width="2.213" height="2.213" transform="translate(22.21 5.845)" fill="#00223d"/>
            <rect id="Rectángulo_26576" data-name="Rectángulo 26576" width="2.213" height="2.213" transform="translate(27.763 3.042)" fill="#00223d"/>
            <rect id="Rectángulo_26577" data-name="Rectángulo 26577" width="2.213" height="2.213" transform="translate(33.315)" fill="#00223d"/>
          </g>
        </g>
      </g>
    </g>
    <path id="Trazado_68969" data-name="Trazado 68969" d="M365.762,223.784H366a.65.65,0,1,0,0-1.3h-.237l.98-1.884h-2.528a8.778,8.778,0,1,0,0,5.07h2.528Zm-9.949,6.826a7.477,7.477,0,1,1,7.034-10.011h-.034l-.98,1.884h-.278a5.779,5.779,0,1,0,0,1.3h.277l.982,1.886h.033A7.489,7.489,0,0,1,355.812,230.611Zm2.234-8.127a2.328,2.328,0,1,0,0,1.3h2.2a4.478,4.478,0,1,1,0-1.3Z" transform="translate(-3.669 -39.884)" fill="#57cc98"/>
    <path id="Trazado_68970" data-name="Trazado 68970" d="M636.813,301.476H642.9v-2.269h-6.083Zm7.994-8.631c.045-.541.073-1.087.073-1.64a19.41,19.41,0,0,0-4.229-12.123,1.021,1.021,0,0,0-1.594,0,19.41,19.41,0,0,0-4.228,12.123c0,.553.028,1.1.073,1.64-3.032,2.041-5.031,7.095-2.814,10.995a.405.405,0,0,0,.75-.1c.341-1.468,1.261-4.17,3.494-5.217h7.041c2.234,1.048,3.154,3.749,3.495,5.217a.406.406,0,0,0,.751.1C649.838,299.94,647.839,294.886,644.807,292.845Zm-4.952-4.927a1.793,1.793,0,1,1,1.793-1.792A1.792,1.792,0,0,1,639.855,287.918Z" transform="translate(-106.303 -63.127)" fill="#00926e"/>
    <g id="Grupo_29083" data-name="Grupo 29083" transform="translate(354.252 139.783)">
      <path id="Trazado_68971" data-name="Trazado 68971" d="M365.42,162.734a1.343,1.343,0,1,0-.95-.393,1.355,1.355,0,0,0,.95.393" transform="translate(-364.077 -160.047)" fill="#dfe1f7"/>
      <path id="Trazado_68972" data-name="Trazado 68972" d="M389.374,162.734h.006a1.343,1.343,0,1,0,0-2.687h-.006a1.343,1.343,0,0,0,0,2.687Zm-9.341,0h.006a1.343,1.343,0,1,0,0-2.687h-.006a1.343,1.343,0,1,0,0,2.687Z" transform="translate(-369.356 -160.047)" fill="#dfe1f7"/>
      <path id="Trazado_68973" data-name="Trazado 68973" d="M409.292,162.734a1.342,1.342,0,1,0-.95-.393,1.353,1.353,0,0,0,.95.393" transform="translate(-379.926 -160.047)" fill="#dfe1f7"/>
    </g>
    <g id="Grupo_29084" data-name="Grupo 29084" transform="translate(518.311 103.953)">
      <path id="Trazado_68974" data-name="Trazado 68974" d="M622.264,106.639a1.343,1.343,0,1,0-.95-.393,1.35,1.35,0,0,0,.95.393" transform="translate(-620.921 -103.953)" fill="#dfe1f7"/>
      <path id="Trazado_68975" data-name="Trazado 68975" d="M646.219,106.639h.007a1.343,1.343,0,1,0,0-2.686h-.007a1.343,1.343,0,1,0,0,2.686Zm-9.341,0h.007a1.343,1.343,0,1,0,0-2.686h-.007a1.343,1.343,0,0,0,0,2.686Z" transform="translate(-626.2 -103.953)" fill="#dfe1f7"/>
      <path id="Trazado_68976" data-name="Trazado 68976" d="M666.136,106.639a1.343,1.343,0,1,0-.95-.393,1.352,1.352,0,0,0,.95.393" transform="translate(-636.77 -103.953)" fill="#dfe1f7"/>
    </g>
    <g id="Grupo_29085" data-name="Grupo 29085" transform="translate(354.911 306.549)">
      <path id="Trazado_68977" data-name="Trazado 68977" d="M371.022,427.043h-5.914V421.13h5.914Zm-4.906-1.007h3.9v-3.9h-3.9Z" transform="translate(-365.108 -421.13)" fill="#dfe1f7"/>
    </g>
    <g id="Grupo_29086" data-name="Grupo 29086" transform="translate(550.919 227.219)">
      <path id="Trazado_68978" data-name="Trazado 68978" d="M677.885,302.847h-5.914v-5.914h5.914Zm-4.906-1.008h3.9v-3.9h-3.9Z" transform="translate(-671.971 -296.933)" fill="#e8e8e8"/>
    </g>
    <g id="Grupo_29087" data-name="Grupo 29087" transform="translate(550.919 236.954)">
      <path id="Trazado_68979" data-name="Trazado 68979" d="M677.885,318.088h-5.914v-5.914h5.914Zm-4.906-1.007h3.9v-3.9h-3.9Z" transform="translate(-671.971 -312.174)" fill="#e8e8e8"/>
    </g>
    <path id="Trazado_68980" data-name="Trazado 68980" d="M382.143,373.065v-3.522h-1.955v3.522h-3.523v1.955h3.523v3.522h1.955v-3.522h3.522v-1.955Z" transform="translate(-14.372 -95.945)" fill="#002b45"/>
    <path id="Trazado_68981" data-name="Trazado 68981" d="M638.411,434.574a1.158,1.158,0,1,0,.818.339A1.165,1.165,0,0,0,638.411,434.574Zm5.972,0h-.006a1.158,1.158,0,0,0,0,2.315h.006a1.158,1.158,0,0,0,0-2.315Zm-5.972-5.913a1.158,1.158,0,1,0,.818.339A1.168,1.168,0,0,0,638.411,428.661Zm5.966,2.315h.006a1.158,1.158,0,0,0,0-2.315h-.006a1.158,1.158,0,0,0,0,2.315Z" transform="translate(-108.51 -117.301)" fill="#f9fbfc"/>
    <path id="Trazado_68982" data-name="Trazado 68982" d="M349.231,290.986a1.343,1.343,0,1,0,.95.393A1.354,1.354,0,0,0,349.231,290.986Zm6.929,0h-.006a1.343,1.343,0,0,0,0,2.687h.006a1.343,1.343,0,0,0,0-2.687Zm-6.929-6.86a1.342,1.342,0,1,0,.95.393A1.353,1.353,0,0,0,349.231,284.126Zm6.923,2.686h.006a1.343,1.343,0,1,0,0-2.686h-.006a1.343,1.343,0,1,0,0,2.686Z" transform="translate(-3.976 -65.088)" fill="#dfe1f7"/>
    <path id="Trazado_68983" data-name="Trazado 68983" d="M656.86,264.636h-5.55v.9h5.55Zm-3.6,5.6.634.634,3.924-3.924-.634-.634Zm7.964-5.6v.9h5.55v-.9Zm-7.964-4.7,3.924,3.924.634-.634-3.924-3.924Zm11.566,0-.634-.634-3.924,3.924.634.634Zm-4.557,7.008,3.924,3.924.634-.634L660.9,266.31Zm-1.673-4.041h.9v-5.549h-.9Zm0,9.912h.9v-5.549h-.9Z" transform="translate(-113.588 -55.416)" fill="#e8e8e8"/>
    <path id="Trazado_68984" data-name="Trazado 68984" d="M372.973,179.931H353.239a2.975,2.975,0,0,0-2.975,2.975v11.034" transform="translate(-4.835 -27.447)" fill="none" stroke="#e8e8e8" stroke-miterlimit="10" stroke-width="2"/>
    <path id="Trazado_68985" data-name="Trazado 68985" d="M660,290.711h15.875a2.11,2.11,0,0,1,2.11,2.11v27.869a2.11,2.11,0,0,1-2.11,2.11h-5.91" transform="translate(-116.727 -67.467)" fill="none" stroke="#e8e8e8" stroke-miterlimit="10" stroke-width="2"/>
    <path id="Trazado_68986" data-name="Trazado 68986" d="M363,368.261H351.929a2.856,2.856,0,0,1-2.857-2.856V353.538" transform="translate(-4.404 -90.163)" fill="none" stroke="#e8e8e8" stroke-miterlimit="10" stroke-width="2"/>
    <path id="Trazado_68987" data-name="Trazado 68987" d="M413.173,114.491v-5.649a2.786,2.786,0,0,1,2.787-2.786h123" transform="translate(-27.561 -0.76)" fill="none" stroke="#e8e8e8" stroke-miterlimit="10" stroke-width="2"/>
    <line id="Línea_267" data-name="Línea 267" y2="27.115" transform="translate(366.793 285.348)" fill="none" stroke="#e8e8e8" stroke-miterlimit="10" stroke-width="2"/>
  </g>
</svg>
