<svg id="Grupo_63375" data-name="Grupo 63375" xmlns="http://www.w3.org/2000/svg" xmlns:xlink="http://www.w3.org/1999/xlink" width="304.214" height="213.657" viewBox="0 0 304.214 213.657">
  <defs>
    <linearGradient id="linear-gradient" x1="0.5" x2="0.5" y2="1" gradientUnits="objectBoundingBox">
      <stop offset="0" stop-color="#fff"/>
      <stop offset="1" stop-color="#f8f8f8"/>
    </linearGradient>
  </defs>
  <g id="Grupo_57070" data-name="Grupo 57070" transform="translate(0 0)">
    <g id="Grupo_57069" data-name="Grupo 57069" transform="translate(0 0)" opacity="0.7" style="mix-blend-mode: multiply;isolation: isolate">
      <rect id="Rectángulo_29501" data-name="Rectángulo 29501" width="304.214" height="213.657" rx="9.04" fill="#fff" opacity="0"/>
      <rect id="Rectángulo_29502" data-name="Rectángulo 29502" width="301.11" height="210.553" rx="9.04" transform="translate(1.552 1.552)" fill="#f3f3f3" opacity="0.048"/>
      <rect id="Rectángulo_29503" data-name="Rectángulo 29503" width="298.006" height="207.449" rx="9.04" transform="translate(3.104 3.104)" fill="#e7e7e7" opacity="0.095"/>
      <rect id="Rectángulo_29504" data-name="Rectángulo 29504" width="294.902" height="204.345" rx="9.04" transform="translate(4.656 4.656)" fill="#dbdbdb" opacity="0.143"/>
      <rect id="Rectángulo_29505" data-name="Rectángulo 29505" width="291.798" height="201.242" rx="9.04" transform="translate(6.208 6.208)" fill="#cecece" opacity="0.19"/>
      <rect id="Rectángulo_29506" data-name="Rectángulo 29506" width="288.694" height="198.138" rx="9.04" transform="translate(7.76 7.76)" fill="#c2c2c2" opacity="0.238"/>
      <rect id="Rectángulo_29507" data-name="Rectángulo 29507" width="285.59" height="195.034" rx="9.04" transform="translate(9.312 9.312)" fill="#b6b6b6" opacity="0.286"/>
      <rect id="Rectángulo_29508" data-name="Rectángulo 29508" width="282.487" height="191.93" rx="9.04" transform="translate(10.864 10.864)" fill="#aaa" opacity="0.333"/>
      <rect id="Rectángulo_29509" data-name="Rectángulo 29509" width="279.383" height="188.826" rx="9.04" transform="translate(12.416 12.416)" fill="#9e9e9e" opacity="0.381"/>
      <rect id="Rectángulo_29510" data-name="Rectángulo 29510" width="276.279" height="185.722" rx="9.04" transform="translate(13.968 13.968)" fill="#929292" opacity="0.429"/>
      <rect id="Rectángulo_29511" data-name="Rectángulo 29511" width="273.175" height="182.618" rx="9.04" transform="translate(15.52 15.52)" fill="#868686" opacity="0.476"/>
      <rect id="Rectángulo_29512" data-name="Rectángulo 29512" width="270.071" height="179.514" rx="9.04" transform="translate(17.071 17.072)" fill="#797979" opacity="0.524"/>
      <rect id="Rectángulo_29513" data-name="Rectángulo 29513" width="266.967" height="176.41" rx="9.04" transform="translate(18.623 18.623)" fill="#6d6d6d" opacity="0.571"/>
      <rect id="Rectángulo_29514" data-name="Rectángulo 29514" width="263.863" height="173.306" rx="9.04" transform="translate(20.175 20.175)" fill="#616161" opacity="0.619"/>
      <rect id="Rectángulo_29515" data-name="Rectángulo 29515" width="260.759" height="170.202" rx="9.04" transform="translate(21.727 21.727)" fill="#555" opacity="0.667"/>
      <rect id="Rectángulo_29516" data-name="Rectángulo 29516" width="257.655" height="167.098" rx="9.04" transform="translate(23.279 23.279)" fill="#494949" opacity="0.714"/>
      <rect id="Rectángulo_29517" data-name="Rectángulo 29517" width="254.551" height="163.994" rx="9.04" transform="translate(24.831 24.831)" fill="#3d3d3d" opacity="0.762"/>
      <rect id="Rectángulo_29518" data-name="Rectángulo 29518" width="251.447" height="160.891" rx="9.04" transform="translate(26.383 26.383)" fill="#313131" opacity="0.81"/>
      <rect id="Rectángulo_29519" data-name="Rectángulo 29519" width="248.344" height="157.787" rx="9.04" transform="translate(27.935 27.935)" fill="#242424" opacity="0.857"/>
      <rect id="Rectángulo_29520" data-name="Rectángulo 29520" width="245.24" height="154.683" rx="9.04" transform="translate(29.487 29.487)" fill="#181818" opacity="0.905"/>
      <rect id="Rectángulo_29521" data-name="Rectángulo 29521" width="242.136" height="151.579" rx="9.04" transform="translate(31.039 31.039)" fill="#0c0c0c" opacity="0.952"/>
      <rect id="Rectángulo_29522" data-name="Rectángulo 29522" width="239.032" height="148.475" rx="9.04" transform="translate(32.591 32.591)"/>
    </g>
    <rect id="Rectángulo_29523" data-name="Rectángulo 29523" width="279.14" height="188.584" transform="translate(11.035 12.935)" fill="url(#linear-gradient)"/>
    <path id="Trazado_123976" data-name="Trazado 123976" d="M185.015,982.253h279.14v16.136H349.829l-25.8,15.463L297,998.052l-111.98.336Z" transform="translate(-173.981 -969.318)" fill="#37a3a5"/>
    <path id="Trazado_123977" data-name="Trazado 123977" d="M292.256,988.867,276.513,1001.2a4.546,4.546,0,0,1-5.562.034L254.3,988.517" transform="translate(-124.348 -967.722)" fill="none" stroke="#12263f" stroke-linecap="round" stroke-miterlimit="10" stroke-width="0.806"/>
    <path id="Trazado_124272" data-name="Trazado 124272" d="M62.025,9.742H57.1v4.031h5.727V15H55.6V3.625h7.148V4.852H57.1V8.516h4.93Zm7.359,3.016a1.064,1.064,0,0,0-.441-.91,4.249,4.249,0,0,0-1.539-.559,7.277,7.277,0,0,1-1.742-.562,2.479,2.479,0,0,1-.953-.781A1.869,1.869,0,0,1,64.4,8.867a2.193,2.193,0,0,1,.879-1.758,3.432,3.432,0,0,1,2.246-.719,3.532,3.532,0,0,1,2.332.742,2.357,2.357,0,0,1,.895,1.9H69.3a1.3,1.3,0,0,0-.5-1.023,1.888,1.888,0,0,0-1.27-.43,1.976,1.976,0,0,0-1.234.344,1.082,1.082,0,0,0-.445.9.877.877,0,0,0,.414.789,5.1,5.1,0,0,0,1.5.508,7.8,7.8,0,0,1,1.754.578,2.558,2.558,0,0,1,1,.809,1.988,1.988,0,0,1,.324,1.152,2.163,2.163,0,0,1-.906,1.816,3.8,3.8,0,0,1-2.352.684,4.257,4.257,0,0,1-1.8-.359,2.922,2.922,0,0,1-1.223-1,2.42,2.42,0,0,1-.441-1.395h1.445a1.5,1.5,0,0,0,.582,1.152,2.258,2.258,0,0,0,1.434.426,2.331,2.331,0,0,0,1.316-.332A1.02,1.02,0,0,0,69.384,12.758Zm10.469-1.891a5.062,5.062,0,0,1-.883,3.109,2.829,2.829,0,0,1-2.391,1.18,3.1,3.1,0,0,1-2.422-.977v4.07H72.712V6.547h1.32l.07.938a2.977,2.977,0,0,1,2.453-1.094,2.882,2.882,0,0,1,2.41,1.148,5.117,5.117,0,0,1,.887,3.2ZM78.408,10.7A3.735,3.735,0,0,0,77.8,8.445a1.963,1.963,0,0,0-1.672-.828,2.125,2.125,0,0,0-1.969,1.164V12.82a2.129,2.129,0,0,0,1.984,1.156,1.954,1.954,0,0,0,1.652-.824A4.077,4.077,0,0,0,78.408,10.7ZM85.2,15.156a3.693,3.693,0,0,1-2.8-1.129,4.19,4.19,0,0,1-1.078-3.02v-.266A5.073,5.073,0,0,1,81.8,8.5a3.748,3.748,0,0,1,1.344-1.547,3.378,3.378,0,0,1,1.871-.559A3.166,3.166,0,0,1,87.58,7.477a4.7,4.7,0,0,1,.914,3.109v.6H82.767a3,3,0,0,0,.73,2.02,2.3,2.3,0,0,0,1.777.77,2.517,2.517,0,0,0,1.3-.312,3.259,3.259,0,0,0,.93-.828l.883.688A3.55,3.55,0,0,1,85.2,15.156Zm-.18-7.578a1.928,1.928,0,0,0-1.469.637A3.1,3.1,0,0,0,82.814,10h4.234V9.891a2.753,2.753,0,0,0-.594-1.707A1.815,1.815,0,0,0,85.017,7.578Zm8.539,6.4a2.082,2.082,0,0,0,1.352-.469,1.649,1.649,0,0,0,.641-1.172h1.367a2.621,2.621,0,0,1-.5,1.383,3.293,3.293,0,0,1-1.23,1.047,3.55,3.55,0,0,1-1.629.391A3.482,3.482,0,0,1,90.81,14a4.59,4.59,0,0,1-1.02-3.152v-.242a5.089,5.089,0,0,1,.453-2.2,3.451,3.451,0,0,1,1.3-1.492,3.7,3.7,0,0,1,2-.531,3.39,3.39,0,0,1,2.363.852,3.043,3.043,0,0,1,1,2.211H95.548a1.992,1.992,0,0,0-.621-1.348,1.932,1.932,0,0,0-1.379-.527,2.023,2.023,0,0,0-1.707.793,3.724,3.724,0,0,0-.605,2.293v.273a3.65,3.65,0,0,0,.6,2.25A2.033,2.033,0,0,0,93.556,13.977ZM100.111,15H98.666V6.547h1.445ZM98.548,4.3a.863.863,0,0,1,.215-.594.807.807,0,0,1,.637-.242.819.819,0,0,1,.641.242.854.854,0,0,1,.219.594.826.826,0,0,1-.219.586.834.834,0,0,1-.641.234.821.821,0,0,1-.637-.234A.834.834,0,0,1,98.548,4.3ZM102.908,15V7.664h-1.336V6.547h1.336V5.828a2.937,2.937,0,0,1,.809-2.2A3.136,3.136,0,0,1,106,2.836a6.881,6.881,0,0,1,2.211.477l-.242,1.219a5.008,5.008,0,0,0-1.859-.391,1.819,1.819,0,0,0-1.34.418,1.723,1.723,0,0,0-.41,1.254v.734h1.727V7.664h-1.727V15Zm6.023,0h-1.453V6.547h1.453Zm5.742-1.023a2.082,2.082,0,0,0,1.352-.469,1.649,1.649,0,0,0,.641-1.172h1.367a2.621,2.621,0,0,1-.5,1.383,3.293,3.293,0,0,1-1.23,1.047,3.55,3.55,0,0,1-1.629.391A3.482,3.482,0,0,1,111.927,14a4.59,4.59,0,0,1-1.02-3.152v-.242a5.089,5.089,0,0,1,.453-2.2,3.451,3.451,0,0,1,1.3-1.492,3.7,3.7,0,0,1,2-.531,3.39,3.39,0,0,1,2.363.852,3.043,3.043,0,0,1,1,2.211h-1.367a1.992,1.992,0,0,0-.621-1.348,1.932,1.932,0,0,0-1.379-.527,2.023,2.023,0,0,0-1.707.793,3.724,3.724,0,0,0-.605,2.293v.273a3.65,3.65,0,0,0,.6,2.25A2.033,2.033,0,0,0,114.673,13.977ZM124.876,15a3.036,3.036,0,0,1-.2-.891,3.225,3.225,0,0,1-2.406,1.047,2.984,2.984,0,0,1-2.051-.707,2.288,2.288,0,0,1-.8-1.793,2.39,2.39,0,0,1,1-2.051,4.733,4.733,0,0,1,2.824-.73h1.406V9.211A1.623,1.623,0,0,0,124.2,8a1.821,1.821,0,0,0-1.336-.449,2.108,2.108,0,0,0-1.3.391,1.151,1.151,0,0,0-.523.945h-1.453a2,2,0,0,1,.449-1.223,3.066,3.066,0,0,1,1.219-.934,4.1,4.1,0,0,1,1.691-.344,3.342,3.342,0,0,1,2.289.73,2.635,2.635,0,0,1,.859,2.012v3.891a4.757,4.757,0,0,0,.3,1.852V15Zm-2.4-1.1a2.54,2.54,0,0,0,1.289-.352,2.127,2.127,0,0,0,.883-.914V10.9h-1.133q-2.656,0-2.656,1.555a1.316,1.316,0,0,0,.453,1.063A1.742,1.742,0,0,0,122.478,13.9Zm9.273.078a2.082,2.082,0,0,0,1.352-.469,1.649,1.649,0,0,0,.641-1.172h1.367a2.621,2.621,0,0,1-.5,1.383,3.293,3.293,0,0,1-1.23,1.047,3.55,3.55,0,0,1-1.629.391A3.482,3.482,0,0,1,129.005,14a4.59,4.59,0,0,1-1.02-3.152v-.242a5.089,5.089,0,0,1,.453-2.2,3.451,3.451,0,0,1,1.3-1.492,3.7,3.7,0,0,1,2-.531,3.39,3.39,0,0,1,2.363.852,3.043,3.043,0,0,1,1,2.211h-1.367a1.992,1.992,0,0,0-.621-1.348,1.932,1.932,0,0,0-1.379-.527,2.023,2.023,0,0,0-1.707.793,3.724,3.724,0,0,0-.605,2.293v.273a3.65,3.65,0,0,0,.6,2.25A2.033,2.033,0,0,0,131.751,13.977ZM138.306,15h-1.445V6.547h1.445ZM136.744,4.3a.863.863,0,0,1,.215-.594.807.807,0,0,1,.637-.242.819.819,0,0,1,.641.242.854.854,0,0,1,.219.594.826.826,0,0,1-.219.586.834.834,0,0,1-.641.234.821.821,0,0,1-.637-.234A.834.834,0,0,1,136.744,4.3Zm3.492,6.391a4.993,4.993,0,0,1,.488-2.234,3.642,3.642,0,0,1,1.359-1.531,3.7,3.7,0,0,1,1.988-.539,3.565,3.565,0,0,1,2.793,1.2,4.6,4.6,0,0,1,1.066,3.18v.1a5.036,5.036,0,0,1-.473,2.215,3.589,3.589,0,0,1-1.352,1.527,3.743,3.743,0,0,1-2.02.547,3.556,3.556,0,0,1-2.785-1.2,4.575,4.575,0,0,1-1.066-3.164Zm1.453.172a3.616,3.616,0,0,0,.652,2.258,2.211,2.211,0,0,0,3.5-.012,3.954,3.954,0,0,0,.648-2.418,3.61,3.61,0,0,0-.66-2.254,2.1,2.1,0,0,0-1.754-.863,2.075,2.075,0,0,0-1.727.852A3.925,3.925,0,0,0,141.689,10.867Zm3.039-7.852h1.75l-2.094,2.3-1.164,0Zm6.383,3.531.047,1.063a3.08,3.08,0,0,1,2.531-1.219q2.68,0,2.7,3.023V15h-1.445V9.406a1.946,1.946,0,0,0-.418-1.352,1.675,1.675,0,0,0-1.277-.437,2.086,2.086,0,0,0-1.234.375,2.546,2.546,0,0,0-.828.984V15h-1.445V6.547Zm11.07,4.156a4.952,4.952,0,0,1,.922-3.129,3.137,3.137,0,0,1,4.766-.168V3h1.445V15h-1.328l-.07-.906a2.943,2.943,0,0,1-2.414,1.063,2.887,2.887,0,0,1-2.395-1.2,5.008,5.008,0,0,1-.926-3.141Zm1.445.164a3.749,3.749,0,0,0,.594,2.25,1.919,1.919,0,0,0,1.641.813,2.108,2.108,0,0,0,2.008-1.234V8.813a2.125,2.125,0,0,0-1.992-1.2,1.929,1.929,0,0,0-1.656.82A4.128,4.128,0,0,0,163.626,10.867Zm11.438,4.289a3.693,3.693,0,0,1-2.8-1.129,4.19,4.19,0,0,1-1.078-3.02v-.266a5.073,5.073,0,0,1,.48-2.246,3.748,3.748,0,0,1,1.344-1.547,3.378,3.378,0,0,1,1.871-.559,3.166,3.166,0,0,1,2.563,1.086,4.7,4.7,0,0,1,.914,3.109v.6h-5.727a3,3,0,0,0,.73,2.02,2.3,2.3,0,0,0,1.777.77,2.517,2.517,0,0,0,1.3-.312,3.258,3.258,0,0,0,.93-.828l.883.688A3.55,3.55,0,0,1,175.064,15.156Zm-.18-7.578a1.928,1.928,0,0,0-1.469.637A3.1,3.1,0,0,0,172.681,10h4.234V9.891a2.753,2.753,0,0,0-.594-1.707A1.815,1.815,0,0,0,174.884,7.578ZM68.244,31.844a4.331,4.331,0,0,0-.711-.055A1.9,1.9,0,0,0,65.6,33v6H64.158V30.547h1.406l.023.977A2.251,2.251,0,0,1,67.6,30.391a1.477,1.477,0,0,1,.641.109Zm4.688,7.313a3.693,3.693,0,0,1-2.8-1.129,4.19,4.19,0,0,1-1.078-3.02v-.266a5.073,5.073,0,0,1,.48-2.246,3.748,3.748,0,0,1,1.344-1.547,3.378,3.378,0,0,1,1.871-.559,3.166,3.166,0,0,1,2.563,1.086,4.7,4.7,0,0,1,.914,3.109v.6H70.5a3,3,0,0,0,.73,2.02,2.3,2.3,0,0,0,1.777.77,2.517,2.517,0,0,0,1.3-.312,3.259,3.259,0,0,0,.93-.828l.883.688A3.55,3.55,0,0,1,72.931,39.156Zm-.18-7.578a1.928,1.928,0,0,0-1.469.637A3.1,3.1,0,0,0,70.548,34h4.234v-.109a2.753,2.753,0,0,0-.594-1.707A1.815,1.815,0,0,0,72.751,31.578Zm4.8,3.125a4.961,4.961,0,0,1,.914-3.152,3.226,3.226,0,0,1,4.82-.152l.063-.852h1.328v11.7H83.228V38.219a3.033,3.033,0,0,1-2.328.938,2.915,2.915,0,0,1-2.441-1.191,5.072,5.072,0,0,1-.91-3.16Zm1.445.164a3.761,3.761,0,0,0,.613,2.281,1.951,1.951,0,0,0,1.652.828,2.164,2.164,0,0,0,1.969-1.141V32.7a2.171,2.171,0,0,0-1.953-1.117,1.965,1.965,0,0,0-1.664.832A4.094,4.094,0,0,0,78.994,34.867Zm13.219,3.3a3.07,3.07,0,0,1-2.477.992,2.628,2.628,0,0,1-2.059-.785,3.4,3.4,0,0,1-.715-2.324v-5.5h1.445v5.461q0,1.922,1.563,1.922a2.163,2.163,0,0,0,2.2-1.234V30.547h1.445V39H92.244Zm7.109.992a3.693,3.693,0,0,1-2.8-1.129,4.19,4.19,0,0,1-1.078-3.02v-.266a5.073,5.073,0,0,1,.48-2.246,3.748,3.748,0,0,1,1.344-1.547,3.378,3.378,0,0,1,1.871-.559,3.166,3.166,0,0,1,2.563,1.086,4.7,4.7,0,0,1,.914,3.109v.6H96.892a3,3,0,0,0,.73,2.02,2.3,2.3,0,0,0,1.777.77,2.517,2.517,0,0,0,1.3-.312,3.259,3.259,0,0,0,.93-.828l.883.688A3.55,3.55,0,0,1,99.322,39.156Zm-.18-7.578a1.928,1.928,0,0,0-1.469.637A3.1,3.1,0,0,0,96.939,34h4.234v-.109a2.753,2.753,0,0,0-.594-1.707A1.815,1.815,0,0,0,99.142,31.578Zm9.234.266a4.331,4.331,0,0,0-.711-.055A1.9,1.9,0,0,0,105.736,33v6h-1.445V30.547H105.7l.023.977a2.251,2.251,0,0,1,2.016-1.133,1.477,1.477,0,0,1,.641.109Zm2.9,7.156H109.83V30.547h1.445Zm-1.562-10.7a.863.863,0,0,1,.215-.594.807.807,0,0,1,.637-.242.819.819,0,0,1,.641.242.854.854,0,0,1,.219.594.826.826,0,0,1-.219.586.834.834,0,0,1-.641.234.821.821,0,0,1-.637-.234A.834.834,0,0,1,109.712,28.3Zm5.234,2.242.039.938a3.122,3.122,0,0,1,2.508-1.094,2.417,2.417,0,0,1,2.414,1.359,3.2,3.2,0,0,1,1.1-.984,3.242,3.242,0,0,1,1.6-.375q2.781,0,2.828,2.945V39h-1.445V33.422a1.941,1.941,0,0,0-.414-1.355,1.823,1.823,0,0,0-1.391-.449,1.916,1.916,0,0,0-1.336.48,1.949,1.949,0,0,0-.617,1.293V39h-1.453V33.461a1.613,1.613,0,0,0-1.8-1.844,1.934,1.934,0,0,0-1.945,1.211V39H113.58V30.547ZM129.181,39h-1.445V30.547h1.445Zm-1.562-10.7a.863.863,0,0,1,.215-.594.807.807,0,0,1,.637-.242.819.819,0,0,1,.641.242.854.854,0,0,1,.219.594.826.826,0,0,1-.219.586.834.834,0,0,1-.641.234.821.821,0,0,1-.637-.234A.834.834,0,0,1,127.619,28.3ZM135,39.156a3.693,3.693,0,0,1-2.8-1.129,4.19,4.19,0,0,1-1.078-3.02v-.266a5.073,5.073,0,0,1,.48-2.246,3.748,3.748,0,0,1,1.344-1.547,3.378,3.378,0,0,1,1.871-.559,3.166,3.166,0,0,1,2.563,1.086,4.7,4.7,0,0,1,.914,3.109v.6h-5.727a3,3,0,0,0,.73,2.02,2.3,2.3,0,0,0,1.777.77,2.517,2.517,0,0,0,1.3-.312,3.258,3.258,0,0,0,.93-.828l.883.688A3.55,3.55,0,0,1,135,39.156Zm-.18-7.578a1.928,1.928,0,0,0-1.469.637A3.1,3.1,0,0,0,132.619,34h4.234v-.109a2.753,2.753,0,0,0-.594-1.707A1.815,1.815,0,0,0,134.822,31.578Zm6.516-1.031.047,1.063a3.08,3.08,0,0,1,2.531-1.219q2.68,0,2.7,3.023V39h-1.445V33.406a1.946,1.946,0,0,0-.418-1.352,1.675,1.675,0,0,0-1.277-.437,2.086,2.086,0,0,0-1.234.375,2.546,2.546,0,0,0-.828.984V39H139.97V30.547Zm9.422-2.047v2.047h1.578v1.117h-1.578v5.249a1.173,1.173,0,0,0,.211.763.888.888,0,0,0,.719.254,3.5,3.5,0,0,0,.688-.094V39a4.215,4.215,0,0,1-1.109.155,1.8,1.8,0,0,1-1.461-.586,2.517,2.517,0,0,1-.492-1.664V31.664h-1.539V30.547h1.539V28.5Zm2.727,6.2a4.993,4.993,0,0,1,.488-2.234,3.642,3.642,0,0,1,1.359-1.531,3.7,3.7,0,0,1,1.988-.539,3.565,3.565,0,0,1,2.793,1.2,4.6,4.6,0,0,1,1.066,3.18v.1a5.036,5.036,0,0,1-.473,2.215,3.589,3.589,0,0,1-1.352,1.527,3.743,3.743,0,0,1-2.02.547,3.556,3.556,0,0,1-2.785-1.2,4.575,4.575,0,0,1-1.066-3.164Zm1.453.172a3.616,3.616,0,0,0,.652,2.258,2.211,2.211,0,0,0,3.5-.012,3.954,3.954,0,0,0,.648-2.418,3.61,3.61,0,0,0-.66-2.254,2.1,2.1,0,0,0-1.754-.863,2.075,2.075,0,0,0-1.727.852A3.925,3.925,0,0,0,154.939,34.867Zm12.977,1.891a1.064,1.064,0,0,0-.441-.91,4.249,4.249,0,0,0-1.539-.559,7.277,7.277,0,0,1-1.742-.562,2.479,2.479,0,0,1-.953-.781,1.869,1.869,0,0,1-.309-1.078,2.193,2.193,0,0,1,.879-1.758,3.432,3.432,0,0,1,2.246-.719,3.532,3.532,0,0,1,2.332.742,2.357,2.357,0,0,1,.895,1.9H167.83a1.3,1.3,0,0,0-.5-1.023,1.888,1.888,0,0,0-1.27-.43,1.976,1.976,0,0,0-1.234.344,1.082,1.082,0,0,0-.445.9.877.877,0,0,0,.414.789,5.1,5.1,0,0,0,1.5.508,7.8,7.8,0,0,1,1.754.578,2.558,2.558,0,0,1,1,.809,1.988,1.988,0,0,1,.324,1.152,2.163,2.163,0,0,1-.906,1.816,3.8,3.8,0,0,1-2.352.684,4.257,4.257,0,0,1-1.8-.359,2.922,2.922,0,0,1-1.223-1,2.42,2.42,0,0,1-.441-1.395h1.445a1.5,1.5,0,0,0,.582,1.152,2.258,2.258,0,0,0,1.434.426,2.331,2.331,0,0,0,1.316-.332A1.02,1.02,0,0,0,167.916,36.758Z" transform="translate(35.529 91.672)" fill="#12263f"/>
  </g>
  <line id="Línea_1692" data-name="Línea 1692" x2="66.735" transform="translate(116.988 183.767)" fill="none" stroke="#37a3a5" stroke-linecap="round" stroke-miterlimit="10" stroke-width="0.806"/>
  <path id="Trazado_124273" data-name="Trazado 124273" d="M-1.406-8.818q0,4.424-1.831,6.768A6.391,6.391,0,0,1-8.6.293a6.436,6.436,0,0,1-5.332-2.3A10.488,10.488,0,0,1-15.82-8.6v-3.926q0-4.468,1.853-6.782a6.439,6.439,0,0,1,5.339-2.314A6.445,6.445,0,0,1-3.3-19.329a10.456,10.456,0,0,1,1.89,6.584ZM-5.64-13.135A7.81,7.81,0,0,0-6.365-17a2.45,2.45,0,0,0-2.263-1.21,2.407,2.407,0,0,0-2.2,1.151,7.309,7.309,0,0,0-.754,3.6v5.191a8.2,8.2,0,0,0,.71,3.878A2.418,2.418,0,0,0-8.6-3.12,2.377,2.377,0,0,0-6.357-4.337,8,8,0,0,0-5.64-8.061Zm11.4.6H8.013a3.179,3.179,0,0,0,2.388-.806,2.952,2.952,0,0,0,.776-2.139,2.61,2.61,0,0,0-.769-2.007,2.98,2.98,0,0,0-2.117-.718,3.124,3.124,0,0,0-2.036.667,2.131,2.131,0,0,0-.82,1.736H1.2a5.206,5.206,0,0,1,.9-3,6,6,0,0,1,2.52-2.073,8.409,8.409,0,0,1,3.567-.747A7.975,7.975,0,0,1,13.491-20a5.523,5.523,0,0,1,1.919,4.46,4.488,4.488,0,0,1-.894,2.7,5.805,5.805,0,0,1-2.344,1.89,5.3,5.3,0,0,1,2.688,1.934,5.245,5.245,0,0,1,.886,3.047,5.614,5.614,0,0,1-2.073,4.556A8.334,8.334,0,0,1,8.188.293,7.9,7.9,0,0,1,2.966-1.392,5.5,5.5,0,0,1,.938-5.845H5.171a2.453,2.453,0,0,0,.9,1.963,3.32,3.32,0,0,0,2.219.762,3.335,3.335,0,0,0,2.366-.8,2.756,2.756,0,0,0,.857-2.117q0-3.193-3.516-3.193H5.757Z" transform="translate(150.387 173.451)" fill="#12263f"/>
</svg>
